<!-- 
https://www.figma.com/ 
I used this resource to layout my images and pages for this program
https://undraw.co/ 
I used this resource to find free vector stock images for my program so the images 
are displayed with high-quality 
 -->
<svg width="653" height="573" viewBox="0 0 653 573" fill="none" xmlns="http://www.w3.org/2000/svg">
<path d="M135.607 115.922C135.678 116.455 135.59 116.998 135.353 117.481C135.116 117.965 134.741 118.367 134.275 118.637C133.81 118.907 133.274 119.034 132.737 119C132.2 118.966 131.685 118.773 131.257 118.447C130.829 118.12 130.508 117.674 130.333 117.165C130.159 116.655 130.139 116.106 130.277 115.585C130.415 115.065 130.704 114.597 131.108 114.241C131.512 113.885 132.012 113.657 132.546 113.585C133.261 113.492 133.984 113.685 134.557 114.123C135.131 114.561 135.508 115.207 135.607 115.922Z" fill="#5375E2"/>
<path d="M132.885 163.378C132.956 163.911 132.868 164.454 132.631 164.938C132.394 165.421 132.019 165.823 131.554 166.093C131.088 166.364 130.553 166.49 130.016 166.456C129.478 166.422 128.963 166.229 128.535 165.903C128.107 165.576 127.786 165.13 127.612 164.621C127.437 164.111 127.418 163.562 127.556 163.042C127.694 162.521 127.983 162.053 128.387 161.697C128.79 161.341 129.291 161.113 129.824 161.041C130.179 160.994 130.539 161.016 130.885 161.108C131.23 161.199 131.554 161.358 131.839 161.575C132.123 161.792 132.362 162.063 132.541 162.372C132.721 162.682 132.838 163.023 132.885 163.378Z" fill="#263238"/>
<path d="M229.551 221.162C229.574 221.339 229.562 221.519 229.515 221.691C229.469 221.864 229.389 222.026 229.28 222.167C229.171 222.309 229.035 222.427 228.88 222.517C228.725 222.606 228.554 222.663 228.377 222.686C228.2 222.709 228.02 222.697 227.847 222.651C227.675 222.604 227.513 222.524 227.371 222.415C227.23 222.306 227.111 222.17 227.022 222.015C226.933 221.86 226.875 221.689 226.852 221.512C226.806 221.154 226.903 220.793 227.123 220.507C227.344 220.221 227.668 220.034 228.026 219.988C228.384 219.941 228.746 220.039 229.032 220.259C229.318 220.479 229.504 220.804 229.551 221.162Z" fill="#5375E2"/>
<path d="M181.697 67.1222C181.734 67.3904 181.69 67.6637 181.572 67.9072C181.453 68.1507 181.265 68.3536 181.031 68.4901C180.797 68.6265 180.528 68.6904 180.258 68.6736C179.988 68.6569 179.728 68.5602 179.513 68.3959C179.298 68.2316 179.136 68.007 179.049 67.7507C178.961 67.4944 178.952 67.2179 179.022 66.9563C179.092 66.6946 179.238 66.4597 179.442 66.2812C179.645 66.1028 179.898 65.9888 180.166 65.9539C180.524 65.9073 180.885 66.004 181.172 66.2228C181.459 66.4417 181.647 66.7649 181.697 67.1222Z" fill="#5375E2"/>
<path d="M350.761 36.5478C350.807 36.9057 350.71 37.2673 350.49 37.5533C350.269 37.8392 349.945 38.0259 349.587 38.0724C349.229 38.1189 348.867 38.0213 348.581 37.8011C348.295 37.5809 348.109 37.2561 348.062 36.8983C348.016 36.5404 348.113 36.1787 348.333 35.8928C348.554 35.6069 348.878 35.4201 349.236 35.3736C349.594 35.3272 349.956 35.4248 350.242 35.645C350.528 35.8651 350.714 36.1899 350.761 36.5478Z" fill="#263238"/>
<path d="M197.118 140.094C197.16 140.279 197.163 140.471 197.127 140.657C197.09 140.843 197.016 141.02 196.907 141.176C196.799 141.331 196.659 141.463 196.497 141.562C196.336 141.661 196.155 141.725 195.967 141.75C195.779 141.775 195.587 141.761 195.405 141.709C195.223 141.656 195.053 141.566 194.908 141.444C194.762 141.322 194.644 141.171 194.56 141.001C194.475 140.831 194.428 140.646 194.419 140.456C194.404 140.115 194.517 139.78 194.736 139.518C194.955 139.257 195.265 139.086 195.603 139.041C195.942 138.995 196.285 139.078 196.565 139.273C196.845 139.468 197.043 139.761 197.118 140.094Z" fill="#263238"/>
<path d="M322.453 262.426C322.476 262.603 322.464 262.783 322.418 262.956C322.371 263.128 322.291 263.29 322.182 263.431C322.073 263.573 321.937 263.692 321.782 263.781C321.627 263.87 321.456 263.928 321.279 263.951C321.102 263.974 320.922 263.961 320.749 263.915C320.577 263.868 320.415 263.788 320.274 263.679C320.132 263.57 320.013 263.434 319.924 263.279C319.835 263.125 319.778 262.954 319.755 262.776C319.708 262.419 319.806 262.057 320.026 261.771C320.246 261.485 320.571 261.298 320.929 261.252C321.287 261.205 321.648 261.303 321.934 261.523C322.22 261.743 322.407 262.068 322.453 262.426Z" fill="#455A64"/>
<path d="M129.427 270.289C129.461 270.554 129.416 270.824 129.298 271.065C129.179 271.305 128.991 271.505 128.759 271.638C128.527 271.772 128.26 271.834 127.993 271.816C127.725 271.798 127.469 271.702 127.256 271.538C127.044 271.375 126.885 271.152 126.799 270.898C126.713 270.644 126.704 270.37 126.774 270.112C126.844 269.853 126.989 269.62 127.191 269.444C127.392 269.268 127.642 269.155 127.908 269.12C128.084 269.096 128.264 269.107 128.437 269.152C128.609 269.198 128.771 269.277 128.912 269.386C129.053 269.495 129.172 269.631 129.26 269.786C129.348 269.94 129.405 270.111 129.427 270.289Z" fill="#5375E2"/>
<path d="M88.4202 218.942C88.4916 219.476 88.4033 220.018 88.1663 220.502C87.9293 220.985 87.5543 221.387 87.0887 221.657C86.6232 221.928 86.0879 222.054 85.5507 222.02C85.0134 221.986 84.4983 221.794 84.0704 221.467C83.6425 221.14 83.3211 220.694 83.1467 220.185C82.9724 219.676 82.9529 219.126 83.0909 218.606C83.2288 218.085 83.518 217.618 83.9217 217.261C84.3255 216.905 84.8257 216.677 85.3593 216.605C85.7139 216.556 86.0748 216.578 86.4211 216.669C86.7674 216.76 87.0922 216.918 87.3768 217.136C87.6614 217.353 87.9002 217.624 88.0792 217.934C88.2583 218.244 88.3742 218.587 88.4202 218.942Z" fill="#5375E2"/>
<path d="M254.295 36.3609C254.367 36.8944 254.278 37.4372 254.041 37.9205C253.804 38.4039 253.429 38.8061 252.964 39.0764C252.498 39.3466 251.963 39.4728 251.426 39.4388C250.888 39.4049 250.373 39.2125 249.945 38.8859C249.518 38.5592 249.196 38.1131 249.022 37.6038C248.847 37.0945 248.828 36.5449 248.966 36.0246C249.104 35.5042 249.393 35.0365 249.797 34.6804C250.2 34.3244 250.701 34.0961 251.234 34.0243C251.589 33.9766 251.949 33.9993 252.295 34.0909C252.64 34.1825 252.965 34.3414 253.249 34.5584C253.533 34.7754 253.772 35.0462 253.951 35.3555C254.131 35.6648 254.248 36.0064 254.295 36.3609Z" fill="#5375E2"/>
<path d="M439.131 310.127L442.987 308.831C442.987 308.831 440.358 307.475 440.358 303.258C440.358 299.04 443.968 297.416 442.414 293.573L438.115 294.741C438.598 295.744 438.866 296.837 438.9 297.95C438.934 299.063 438.734 300.171 438.313 301.202C437.215 303.608 436.14 306.494 439.131 310.127Z" fill="#5375E2"/>
<path d="M119.112 301.003L115.303 299.566C115.303 299.566 116.471 302.276 113.831 305.548C111.191 308.819 107.323 307.884 106.132 311.786L110.186 313.597C110.444 312.513 110.927 311.496 111.603 310.611C112.28 309.725 113.134 308.991 114.111 308.457C116.53 307.253 119.135 305.699 119.112 301.003Z" fill="#5375E2"/>
<path d="M224.936 121.494L221.08 120.093C221.08 120.093 222.249 122.803 219.608 126.074C216.968 129.345 213.101 128.411 211.909 132.301L215.963 134.124C216.22 133.039 216.702 132.021 217.378 131.135C218.055 130.25 218.91 129.516 219.889 128.983C222.354 127.803 224.959 126.226 224.936 121.494Z" fill="#455A64"/>
<path d="M363.612 243.313L359.803 241.887C359.803 241.887 360.971 244.598 358.331 247.869C355.691 251.14 351.823 250.206 350.632 254.096L354.686 255.919C354.942 254.834 355.424 253.816 356.101 252.93C356.777 252.044 357.633 251.311 358.611 250.778C361.053 249.598 363.67 248.021 363.612 243.313Z" fill="#455A64"/>
<path d="M201.219 207.388L201.768 203.369C201.768 203.369 199.431 205.121 195.611 203.252C191.791 201.383 191.943 197.41 187.83 197.118L186.954 201.476C188.061 201.494 189.152 201.742 190.158 202.204C191.164 202.667 192.062 203.334 192.796 204.163C194.56 206.266 196.686 208.462 201.219 207.388Z" fill="#5375E2"/>
<path d="M384.361 286.785L384.91 282.754C384.91 282.754 382.573 284.507 378.753 282.637C374.932 280.768 375.084 276.796 370.972 276.504L370.096 280.862C371.204 280.88 372.296 281.129 373.301 281.594C374.307 282.059 375.205 282.729 375.937 283.56C377.631 285.652 379.781 287.848 384.361 286.785Z" fill="#455A64"/>
<path d="M367.911 100.57L368.46 96.5514C368.46 96.5514 366.124 98.3038 362.304 96.4346C358.483 94.5653 358.635 90.5931 354.523 90.301L353.646 94.6588C354.753 94.6763 355.845 94.9242 356.85 95.3869C357.856 95.8495 358.754 96.5167 359.488 97.3458C361.205 99.4371 363.332 101.633 367.911 100.57Z" fill="#5375E2"/>
<path d="M441.887 119.859L437.611 117.522C437.611 117.522 434.106 122.745 438.312 125.385C438.301 125.397 437.436 121.997 441.887 119.859Z" fill="#5375E2"/>
<path d="M438.383 131.764L442.893 130.093C442.893 130.093 443.162 126.226 438.278 125.42C438.302 125.397 441.363 128.902 438.383 131.764Z" fill="#5375E2"/>
<path d="M213.58 245.123L209.292 242.787C209.292 242.787 205.787 248.021 209.993 250.649C209.993 250.661 209.14 247.273 213.58 245.123Z" fill="#455A64"/>
<path d="M210.11 257.017L214.608 255.334C214.608 255.334 214.876 251.479 209.935 250.661C209.993 250.661 213.054 254.166 210.11 257.017Z" fill="#455A64"/>
<path d="M380.704 90.7684C380.632 90.2343 380.72 89.691 380.958 89.2072C381.195 88.7233 381.571 88.3208 382.037 88.0506C382.503 87.7803 383.039 87.6545 383.577 87.6892C384.114 87.7238 384.63 87.9172 385.058 88.245C385.485 88.5727 385.806 89.0201 385.979 89.5303C386.153 90.0406 386.171 90.5908 386.031 91.1112C385.891 91.6317 385.6 92.099 385.195 92.4539C384.789 92.8088 384.288 93.0354 383.753 93.105C383.039 93.1979 382.318 93.0043 381.746 92.5664C381.175 92.1284 380.8 91.482 380.704 90.7684Z" fill="#263238"/>
<path d="M423.732 156.999C423.661 156.465 423.749 155.923 423.986 155.439C424.223 154.956 424.598 154.554 425.064 154.284C425.529 154.013 426.064 153.887 426.602 153.921C427.139 153.955 427.654 154.147 428.082 154.474C428.51 154.801 428.831 155.247 429.006 155.756C429.18 156.265 429.199 156.815 429.061 157.335C428.923 157.856 428.634 158.323 428.231 158.679C427.827 159.036 427.327 159.264 426.793 159.336C426.439 159.383 426.078 159.361 425.733 159.269C425.387 159.177 425.063 159.019 424.778 158.802C424.494 158.585 424.255 158.314 424.076 158.004C423.896 157.695 423.78 157.353 423.732 156.999Z" fill="#5375E2"/>
<path d="M412.447 255.159C412.412 254.893 412.457 254.623 412.576 254.383C412.695 254.143 412.882 253.943 413.114 253.809C413.347 253.675 413.613 253.613 413.881 253.631C414.148 253.649 414.405 253.746 414.617 253.909C414.83 254.073 414.989 254.296 415.075 254.55C415.16 254.803 415.169 255.077 415.099 255.336C415.03 255.595 414.885 255.827 414.683 256.004C414.481 256.18 414.232 256.293 413.966 256.327C413.609 256.374 413.249 256.277 412.964 256.058C412.68 255.839 412.494 255.515 412.447 255.159Z" fill="#5375E2"/>
<path d="M254.54 211.57L253.979 215.601C253.979 215.601 256.316 213.848 260.136 215.717C263.957 217.587 263.817 221.559 267.929 221.851L268.793 217.493C267.687 217.476 266.595 217.228 265.59 216.765C264.584 216.303 263.686 215.635 262.952 214.806C261.235 212.703 259.12 210.507 254.54 211.57Z" fill="#455A64"/>
<path d="M478.49 257.449L472.006 259.283C472.006 259.283 468.91 251.175 475.347 248.885C475.347 248.839 473.151 253.208 478.49 257.449Z" fill="#455A64"/>
<path d="M477.427 240.322L483 243.955C483 243.955 482.182 249.248 475.348 248.885C475.348 248.839 480.535 245.088 477.427 240.322Z" fill="#455A64"/>
<path d="M362.445 192.048L355.925 193.929C355.925 193.929 352.841 185.821 359.267 183.531C359.267 183.484 357.082 187.807 362.445 192.048Z" fill="#263238"/>
<path d="M361.358 174.921L366.931 178.554C366.931 178.554 366.113 183.846 359.267 183.484C359.267 183.484 364.466 179.687 361.358 174.921Z" fill="#263238"/>
<path d="M141.017 230.345L134.521 232.179C134.521 232.179 131.437 224.071 137.862 221.781C137.862 221.781 135.666 226.104 141.017 230.345Z" fill="#263238"/>
<path d="M139.954 213.217L145.526 216.851C145.526 216.851 144.697 222.143 137.862 221.781C137.862 221.781 143.061 217.984 139.954 213.217Z" fill="#263238"/>
<path d="M413.568 178.998L417.856 181.335C417.856 181.335 421.361 176.101 417.155 173.472C417.155 173.46 418.008 176.848 413.568 178.998Z" fill="#455A64"/>
<path d="M417.038 167.058L412.529 168.74C412.529 168.74 412.272 172.596 417.202 173.414C417.155 173.46 414.094 169.955 417.038 167.058Z" fill="#455A64"/>
<path d="M264.506 158.436L268.793 160.773C268.793 160.773 272.298 155.55 268.093 152.91C268.093 152.898 268.98 156.298 264.506 158.436Z" fill="#5375E2"/>
<path d="M267.976 146.531L263.466 148.202C263.466 148.202 263.209 152.069 268.139 152.875C268.093 152.898 265.032 149.405 267.976 146.531Z" fill="#5375E2"/>
<path d="M302.066 312.943L302.779 317.756C302.779 317.756 309.041 317.394 308.621 312.476C308.702 312.476 306.448 315.198 302.066 312.943Z" fill="#5375E2"/>
<path d="M313.667 308.562L309.625 305.968C309.625 305.968 306.377 308.071 308.643 312.476C308.702 312.476 309.601 307.931 313.667 308.562Z" fill="#5375E2"/>
<path d="M653.001 344.609V511.993H322.439V378.343H351.115V417.083H358.496V349.365H394.964V413.642H399.783V332.129H431.472V354.49H447.734V382.345H452.646V364.829H481.468V417.069H489.884V374.606H516.236V342.349H534.158V323.976H554.881V405.46H561.851V371.445H595.996V420.126H600.722V380.396H635.345V344.609H653.001Z" fill="#EBEBEB"/>
<path d="M330.789 383.217H325.943V390.631H330.789V383.217Z" fill="white"/>
<path d="M339.205 383.217H334.359V390.631H339.205V383.217Z" fill="white"/>
<path d="M347.608 383.217H342.763V390.631H347.608V383.217Z" fill="white"/>
<path d="M330.789 394.353H325.943V401.767H330.789V394.353Z" fill="white"/>
<path d="M339.205 394.353H334.359V401.767H339.205V394.353Z" fill="white"/>
<path d="M347.608 394.353H342.763V401.767H347.608V394.353Z" fill="white"/>
<path d="M330.789 405.504H325.943V412.918H330.789V405.504Z" fill="white"/>
<path d="M339.205 405.504H334.359V412.918H339.205V405.504Z" fill="white"/>
<path d="M347.608 405.504H342.763V412.918H347.608V405.504Z" fill="white"/>
<path d="M330.789 416.655H325.943V424.069H330.789V416.655Z" fill="white"/>
<path d="M339.205 416.655H334.359V424.069H339.205V416.655Z" fill="white"/>
<path d="M347.608 416.655H342.763V424.069H347.608V416.655Z" fill="white"/>
<path d="M498.778 379.894H493.933V386.067H498.778V379.894Z" fill="white"/>
<path d="M507.194 379.894H502.349V386.067H507.194V379.894Z" fill="white"/>
<path d="M515.598 379.894H510.752V386.067H515.598V379.894Z" fill="white"/>
<path d="M498.778 389.198H493.933V395.372H498.778V389.198Z" fill="white"/>
<path d="M507.194 389.198H502.349V395.372H507.194V389.198Z" fill="white"/>
<path d="M515.598 389.198H510.752V395.372H515.598V389.198Z" fill="white"/>
<path d="M498.778 398.489H493.933V404.662H498.778V398.489Z" fill="white"/>
<path d="M507.194 398.489H502.349V404.662H507.194V398.489Z" fill="white"/>
<path d="M515.598 398.489H510.752V404.662H515.598V398.489Z" fill="white"/>
<path d="M498.778 407.793H493.933V413.967H498.778V407.793Z" fill="white"/>
<path d="M507.194 407.793H502.349V413.967H507.194V407.793Z" fill="white"/>
<path d="M515.598 407.793H510.752V413.967H515.598V407.793Z" fill="white"/>
<path d="M498.778 417.32H493.933V423.493H498.778V417.32Z" fill="white"/>
<path d="M507.194 417.32H502.349V423.493H507.194V417.32Z" fill="white"/>
<path d="M515.598 417.32H510.752V423.493H515.598V417.32Z" fill="white"/>
<path d="M498.778 426.846H493.933V433.02H498.778V426.846Z" fill="white"/>
<path d="M507.194 426.846H502.349V433.02H507.194V426.846Z" fill="white"/>
<path d="M515.598 426.846H510.752V433.02H515.598V426.846Z" fill="white"/>
<path d="M498.778 436.387H493.933V442.561H498.778V436.387Z" fill="white"/>
<path d="M507.194 436.387H502.349V442.561H507.194V436.387Z" fill="white"/>
<path d="M515.598 436.387H510.752V442.561H515.598V436.387Z" fill="white"/>
<path d="M498.778 445.914H493.933V452.087H498.778V445.914Z" fill="white"/>
<path d="M507.194 445.914H502.349V452.087H507.194V445.914Z" fill="white"/>
<path d="M515.598 445.914H510.752V452.087H515.598V445.914Z" fill="white"/>
<path d="M390.568 354.12H362.636V358.758H390.568V354.12Z" fill="white"/>
<path d="M390.568 363.101H362.636V367.738H390.568V363.101Z" fill="white"/>
<path d="M390.568 372.095H362.636V376.733H390.568V372.095Z" fill="white"/>
<path d="M390.568 381.09H362.636V385.728H390.568V381.09Z" fill="white"/>
<path d="M390.568 390.07H362.636V394.707H390.568V390.07Z" fill="white"/>
<path d="M390.568 399.064H362.636V403.702H390.568V399.064Z" fill="white"/>
<path d="M390.568 408.059H362.636V412.697H390.568V408.059Z" fill="white"/>
<path d="M390.568 417.039H362.636V421.677H390.568V417.039Z" fill="white"/>
<path d="M591.653 375.773H565.979V380.411H591.653V375.773Z" fill="white"/>
<path d="M591.653 384.767H565.979V389.405H591.653V384.767Z" fill="white"/>
<path d="M591.653 393.747H565.979V398.385H591.653V393.747Z" fill="white"/>
<path d="M591.653 402.742H565.979V407.38H591.653V402.742Z" fill="white"/>
<path d="M591.653 411.737H565.979V416.374H591.653V411.737Z" fill="white"/>
<path d="M591.653 420.717H565.979V425.354H591.653V420.717Z" fill="white"/>
<path d="M591.653 429.711H565.979V434.349H591.653V429.711Z" fill="white"/>
<path d="M591.653 438.706H565.979V443.344H591.653V438.706Z" fill="white"/>
<path d="M591.653 447.243H565.979V451.881H591.653V447.243Z" fill="white"/>
<path d="M591.653 455.78H565.979V460.417H591.653V455.78Z" fill="white"/>
<path d="M591.653 464.331H565.979V468.969H591.653V464.331Z" fill="white"/>
<path d="M591.653 472.868H565.979V477.506H591.653V472.868Z" fill="white"/>
<path d="M591.653 481.405H565.979V486.043H591.653V481.405Z" fill="white"/>
<path d="M633.179 386.628H606.057V391.266H633.179V386.628Z" fill="white"/>
<path d="M633.179 395.623H606.057V400.261H633.179V395.623Z" fill="white"/>
<path d="M633.179 404.618H606.057V409.256H633.179V404.618Z" fill="white"/>
<path d="M633.179 413.598H606.057V418.235H633.179V413.598Z" fill="white"/>
<path d="M633.179 422.593H606.057V427.23H633.179V422.593Z" fill="white"/>
<path d="M633.179 431.572H606.057V436.21H633.179V431.572Z" fill="white"/>
<path d="M633.179 440.567H606.057V445.205H633.179V440.567Z" fill="white"/>
<path d="M633.179 449.562H606.057V454.2H633.179V449.562Z" fill="white"/>
<path d="M633.179 457.611H606.057V462.249H633.179V457.611Z" fill="white"/>
<path d="M633.179 465.646H606.057V470.283H633.179V465.646Z" fill="white"/>
<path d="M633.179 473.695H606.057V478.333H633.179V473.695Z" fill="white"/>
<path d="M469.704 369.023H461.075V373.498H469.704V369.023Z" fill="white"/>
<path d="M469.704 377.708H461.075V382.183H469.704V377.708Z" fill="white"/>
<path d="M469.704 386.392H461.075V390.868H469.704V386.392Z" fill="white"/>
<path d="M469.704 395.062H461.075V399.537H469.704V395.062Z" fill="white"/>
<path d="M469.704 403.746H461.075V408.222H469.704V403.746Z" fill="white"/>
<path d="M469.704 412.431H461.075V416.906H469.704V412.431Z" fill="white"/>
<path d="M469.704 421.116H461.075V425.591H469.704V421.116Z" fill="white"/>
<path d="M469.704 429.8H461.075V434.275H469.704V429.8Z" fill="white"/>
<path d="M481.44 369.023H472.811V373.498H481.44V369.023Z" fill="white"/>
<path d="M481.44 377.708H472.811V382.183H481.44V377.708Z" fill="white"/>
<path d="M481.44 386.392H472.811V390.868H481.44V386.392Z" fill="white"/>
<path d="M481.44 395.062H472.811V399.537H481.44V395.062Z" fill="white"/>
<path d="M481.44 403.746H472.811V408.222H481.44V403.746Z" fill="white"/>
<path d="M481.44 412.431H472.811V416.906H481.44V412.431Z" fill="white"/>
<path d="M481.44 421.116H472.811V425.591H481.44V421.116Z" fill="white"/>
<path d="M481.44 429.8H472.811V434.275H481.44V429.8Z" fill="white"/>
<path d="M413.575 336.825H404.588V343.885H413.575V336.825Z" fill="white"/>
<path d="M426.984 336.825H417.996V343.885H426.984V336.825Z" fill="white"/>
<path d="M413.575 347.179H404.588V354.239H413.575V347.179Z" fill="white"/>
<path d="M426.984 347.179H417.996V354.239H426.984V347.179Z" fill="white"/>
<path d="M413.575 357.547H404.588V364.607H413.575V357.547Z" fill="white"/>
<path d="M426.984 357.547H417.996V364.607H426.984V357.547Z" fill="white"/>
<path d="M413.575 367.916H404.588V374.975H413.575V367.916Z" fill="white"/>
<path d="M426.984 367.916H417.996V374.975H426.984V367.916Z" fill="white"/>
<path d="M413.575 378.284H404.588V385.344H413.575V378.284Z" fill="white"/>
<path d="M426.984 378.284H417.996V385.344H426.984V378.284Z" fill="white"/>
<path d="M413.575 388.637H404.588V395.697H413.575V388.637Z" fill="white"/>
<path d="M426.984 388.637H417.996V395.697H426.984V388.637Z" fill="white"/>
<path d="M413.575 399.006H404.588V406.065H413.575V399.006Z" fill="white"/>
<path d="M426.984 399.006H417.996V406.065H426.984V399.006Z" fill="white"/>
<path d="M413.575 409.374H404.588V416.434H413.575V409.374Z" fill="white"/>
<path d="M426.984 409.374H417.996V416.434H426.984V409.374Z" fill="white"/>
<path d="M443.577 357.547H434.59V364.607H443.577V357.547Z" fill="white"/>
<path d="M443.577 367.916H434.59V374.975H443.577V367.916Z" fill="white"/>
<path d="M443.577 378.284H434.59V385.344H443.577V378.284Z" fill="white"/>
<path d="M443.577 388.637H434.59V395.697H443.577V388.637Z" fill="white"/>
<path d="M443.577 399.006H434.59V406.065H443.577V399.006Z" fill="white"/>
<path d="M443.577 409.374H434.59V416.434H443.577V409.374Z" fill="white"/>
<path d="M413.575 419.609H404.588V426.669H413.575V419.609Z" fill="white"/>
<path d="M426.984 419.609H417.996V426.669H426.984V419.609Z" fill="white"/>
<path d="M443.577 419.609H434.59V426.669H443.577V419.609Z" fill="white"/>
<path d="M413.575 429.859H404.588V436.919H413.575V429.859Z" fill="white"/>
<path d="M426.984 429.859H417.996V436.919H426.984V429.859Z" fill="white"/>
<path d="M443.577 429.859H434.59V436.919H443.577V429.859Z" fill="white"/>
<path d="M413.575 440.094H404.588V447.154H413.575V440.094Z" fill="white"/>
<path d="M426.984 440.094H417.996V447.154H426.984V440.094Z" fill="white"/>
<path d="M443.577 440.094H434.59V447.154H443.577V440.094Z" fill="white"/>
<path d="M413.575 450.345H404.588V457.404H413.575V450.345Z" fill="white"/>
<path d="M426.984 450.345H417.996V457.404H426.984V450.345Z" fill="white"/>
<path d="M443.577 450.345H434.59V457.404H443.577V450.345Z" fill="white"/>
<path d="M413.575 460.58H404.588V467.64H413.575V460.58Z" fill="white"/>
<path d="M426.984 460.58H417.996V467.64H426.984V460.58Z" fill="white"/>
<path d="M443.577 460.58H434.59V467.64H443.577V460.58Z" fill="white"/>
<path d="M524.744 346.884H519.898V353.057H524.744V346.884Z" fill="white"/>
<path d="M533.162 346.884H528.316V353.057H533.162V346.884Z" fill="white"/>
<path d="M524.744 356.188H519.898V362.362H524.744V356.188Z" fill="white"/>
<path d="M533.162 356.188H528.316V362.362H533.162V356.188Z" fill="white"/>
<path d="M524.744 365.493H519.898V371.667H524.744V365.493Z" fill="white"/>
<path d="M533.162 365.493H528.316V371.667H533.162V365.493Z" fill="white"/>
<path d="M524.744 374.783H519.898V380.957H524.744V374.783Z" fill="white"/>
<path d="M533.162 374.783H528.316V380.957H533.162V374.783Z" fill="white"/>
<path d="M524.744 384.31H519.898V390.483H524.744V384.31Z" fill="white"/>
<path d="M533.162 384.31H528.316V390.483H533.162V384.31Z" fill="white"/>
<path d="M524.744 393.851H519.898V400.025H524.744V393.851Z" fill="white"/>
<path d="M533.162 393.851H528.316V400.025H533.162V393.851Z" fill="white"/>
<path d="M524.744 403.377H519.898V409.551H524.744V403.377Z" fill="white"/>
<path d="M533.162 403.377H528.316V409.551H533.162V403.377Z" fill="white"/>
<path d="M524.744 412.904H519.898V419.077H524.744V412.904Z" fill="white"/>
<path d="M533.162 412.904H528.316V419.077H533.162V412.904Z" fill="white"/>
<path d="M524.744 422.533H519.898V428.707H524.744V422.533Z" fill="white"/>
<path d="M533.162 422.533H528.316V428.707H533.162V422.533Z" fill="white"/>
<path d="M524.744 432.163H519.898V438.337H524.744V432.163Z" fill="white"/>
<path d="M533.162 432.163H528.316V438.337H533.162V432.163Z" fill="white"/>
<path d="M524.744 441.793H519.898V447.967H524.744V441.793Z" fill="white"/>
<path d="M533.162 441.793H528.316V447.967H533.162V441.793Z" fill="white"/>
<path d="M524.744 451.423H519.898V457.597H524.744V451.423Z" fill="white"/>
<path d="M533.162 451.423H528.316V457.597H533.162V451.423Z" fill="white"/>
<path d="M643.228 347.888H638.383V355.169H643.228V347.888Z" fill="white"/>
<path d="M651.631 347.888H646.785V355.169H651.631V347.888Z" fill="white"/>
<path d="M643.228 358.847H638.383V366.128H643.228V358.847Z" fill="white"/>
<path d="M651.631 358.847H646.785V366.128H651.631V358.847Z" fill="white"/>
<path d="M643.228 369.806H638.383V377.088H643.228V369.806Z" fill="white"/>
<path d="M651.631 369.806H646.785V377.088H651.631V369.806Z" fill="white"/>
<path d="M643.228 380.765H638.383V388.046H643.228V380.765Z" fill="white"/>
<path d="M651.631 380.765H646.785V388.046H651.631V380.765Z" fill="white"/>
<path d="M643.228 391.99H638.383V399.271H643.228V391.99Z" fill="white"/>
<path d="M651.631 391.99H646.785V399.271H651.631V391.99Z" fill="white"/>
<path d="M643.228 403.215H638.383V410.496H643.228V403.215Z" fill="white"/>
<path d="M651.631 403.215H646.785V410.496H651.631V403.215Z" fill="white"/>
<path d="M643.228 414.44H638.383V421.721H643.228V414.44Z" fill="white"/>
<path d="M651.631 414.44H646.785V421.721H651.631V414.44Z" fill="white"/>
<path d="M643.228 425.665H638.383V432.946H643.228V425.665Z" fill="white"/>
<path d="M651.631 425.665H646.785V432.946H651.631V425.665Z" fill="white"/>
<path d="M643.228 437.008H638.383V444.289H643.228V437.008Z" fill="white"/>
<path d="M651.631 437.008H646.785V444.289H651.631V437.008Z" fill="white"/>
<path d="M643.228 448.351H638.383V455.632H643.228V448.351Z" fill="white"/>
<path d="M651.631 448.351H646.785V455.632H651.631V448.351Z" fill="white"/>
<path d="M643.228 459.708H638.383V466.99H643.228V459.708Z" fill="white"/>
<path d="M651.631 459.708H646.785V466.99H651.631V459.708Z" fill="white"/>
<path d="M643.228 471.051H638.383V478.333H643.228V471.051Z" fill="white"/>
<path d="M651.631 471.051H646.785V478.333H651.631V471.051Z" fill="white"/>
<path d="M542.733 346.884H537.888V353.057H542.733V346.884Z" fill="white"/>
<path d="M551.139 346.884H546.293V353.057H551.139V346.884Z" fill="white"/>
<path d="M542.733 337.357H537.888V343.531H542.733V337.357Z" fill="white"/>
<path d="M551.139 337.357H546.293V343.531H551.139V337.357Z" fill="white"/>
<path d="M542.733 327.816H537.888V333.99H542.733V327.816Z" fill="white"/>
<path d="M551.139 327.816H546.293V333.99H551.139V327.816Z" fill="white"/>
<path d="M542.733 356.188H537.888V362.362H542.733V356.188Z" fill="white"/>
<path d="M551.139 356.188H546.293V362.362H551.139V356.188Z" fill="white"/>
<path d="M542.733 365.493H537.888V371.667H542.733V365.493Z" fill="white"/>
<path d="M551.139 365.493H546.293V371.667H551.139V365.493Z" fill="white"/>
<path d="M542.733 374.783H537.888V380.957H542.733V374.783Z" fill="white"/>
<path d="M551.139 374.783H546.293V380.957H551.139V374.783Z" fill="white"/>
<path d="M542.733 384.31H537.888V390.483H542.733V384.31Z" fill="white"/>
<path d="M551.139 384.31H546.293V390.483H551.139V384.31Z" fill="white"/>
<path d="M542.733 393.851H537.888V400.025H542.733V393.851Z" fill="white"/>
<path d="M551.139 393.851H546.293V400.025H551.139V393.851Z" fill="white"/>
<path d="M542.733 403.377H537.888V409.551H542.733V403.377Z" fill="white"/>
<path d="M551.139 403.377H546.293V409.551H551.139V403.377Z" fill="white"/>
<path d="M542.733 412.904H537.888V419.077H542.733V412.904Z" fill="white"/>
<path d="M551.139 412.904H546.293V419.077H551.139V412.904Z" fill="white"/>
<path d="M542.733 422.533H537.888V428.707H542.733V422.533Z" fill="white"/>
<path d="M551.139 422.533H546.293V428.707H551.139V422.533Z" fill="white"/>
<path d="M542.733 432.163H537.888V438.337H542.733V432.163Z" fill="white"/>
<path d="M551.139 432.163H546.293V438.337H551.139V432.163Z" fill="white"/>
<path d="M542.733 441.793H537.888V447.967H542.733V441.793Z" fill="white"/>
<path d="M551.139 441.793H546.293V447.967H551.139V441.793Z" fill="white"/>
<path d="M542.733 451.423H537.888V457.597H542.733V451.423Z" fill="white"/>
<path d="M551.139 451.423H546.293V457.597H551.139V451.423Z" fill="white"/>
<path d="M322.438 511.993H83V362.096H111.675V400.837H119.056V378.904H155.524V413.642H160.357V332.129H192.046V354.49H208.295V382.345H213.22V364.829H242.028V417.069H250.458V374.606H276.81V342.349H294.719L315.442 342.453V405.46H322.425L322.438 511.993Z" fill="#EBEBEB"/>
<path d="M311.438 515.864H72V365.967H100.675V404.708H108.056V382.775H144.524V417.513H149.357V336H181.046V358.361H197.295V386.217H202.22V368.7H231.028V420.94H239.458V378.477H265.81V346.221H283.719L304.442 346.324V409.331H311.425L311.438 515.864Z" fill="#EBEBEB"/>
<path d="M91.3641 366.97H86.5186V374.385H91.3641V366.97Z" fill="white"/>
<path d="M99.7675 366.97H94.9219V374.385H99.7675V366.97Z" fill="white"/>
<path d="M108.184 366.97H103.339V374.385H108.184V366.97Z" fill="white"/>
<path d="M91.3641 378.107H86.5186V385.521H91.3641V378.107Z" fill="white"/>
<path d="M99.7675 378.107H94.9219V385.521H99.7675V378.107Z" fill="white"/>
<path d="M108.184 378.107H103.339V385.521H108.184V378.107Z" fill="white"/>
<path d="M91.3641 389.258H86.5186V396.672H91.3641V389.258Z" fill="white"/>
<path d="M99.7675 389.258H94.9219V396.672H99.7675V389.258Z" fill="white"/>
<path d="M108.184 389.258H103.339V396.672H108.184V389.258Z" fill="white"/>
<path d="M91.3641 400.409H86.5186V407.823H91.3641V400.409Z" fill="white"/>
<path d="M99.7675 400.409H94.9219V407.823H99.7675V400.409Z" fill="white"/>
<path d="M108.184 400.409H103.339V407.823H108.184V400.409Z" fill="white"/>
<path d="M259.353 379.894H254.508V386.067H259.353V379.894Z" fill="white"/>
<path d="M267.756 379.894H262.91V386.067H267.756V379.894Z" fill="white"/>
<path d="M276.173 379.894H271.327V386.067H276.173V379.894Z" fill="white"/>
<path d="M259.353 389.198H254.508V395.372H259.353V389.198Z" fill="white"/>
<path d="M267.756 389.198H262.91V395.372H267.756V389.198Z" fill="white"/>
<path d="M276.173 389.198H271.327V395.372H276.173V389.198Z" fill="white"/>
<path d="M259.353 398.489H254.508V404.662H259.353V398.489Z" fill="white"/>
<path d="M267.756 398.489H262.91V404.662H267.756V398.489Z" fill="white"/>
<path d="M276.173 398.489H271.327V404.662H276.173V398.489Z" fill="white"/>
<path d="M259.353 407.793H254.508V413.967H259.353V407.793Z" fill="white"/>
<path d="M267.756 407.793H262.91V413.967H267.756V407.793Z" fill="white"/>
<path d="M276.173 407.793H271.327V413.967H276.173V407.793Z" fill="white"/>
<path d="M259.353 417.32H254.508V423.493H259.353V417.32Z" fill="white"/>
<path d="M267.756 417.32H262.91V423.493H267.756V417.32Z" fill="white"/>
<path d="M276.173 417.32H271.327V423.493H276.173V417.32Z" fill="white"/>
<path d="M259.353 426.846H254.508V433.02H259.353V426.846Z" fill="white"/>
<path d="M267.756 426.846H262.91V433.02H267.756V426.846Z" fill="white"/>
<path d="M276.173 426.846H271.327V433.02H276.173V426.846Z" fill="white"/>
<path d="M259.353 436.387H254.508V442.561H259.353V436.387Z" fill="white"/>
<path d="M267.756 436.387H262.91V442.561H267.756V436.387Z" fill="white"/>
<path d="M276.173 436.387H271.327V442.561H276.173V436.387Z" fill="white"/>
<path d="M259.353 445.914H254.508V452.087H259.353V445.914Z" fill="white"/>
<path d="M267.756 445.914H262.91V452.087H267.756V445.914Z" fill="white"/>
<path d="M276.173 445.914H271.327V452.087H276.173V445.914Z" fill="white"/>
<path d="M151.131 383.66H123.199V388.297H151.131V383.66Z" fill="white"/>
<path d="M151.131 392.64H123.199V397.277H151.131V392.64Z" fill="white"/>
<path d="M151.131 401.635H123.199V406.272H151.131V401.635Z" fill="white"/>
<path d="M151.131 410.629H123.199V415.267H151.131V410.629Z" fill="white"/>
<path d="M151.131 419.609H123.199V424.247H151.131V419.609Z" fill="white"/>
<path d="M151.131 428.604H123.199V433.241H151.131V428.604Z" fill="white"/>
<path d="M151.131 437.598H123.199V442.236H151.131V437.598Z" fill="white"/>
<path d="M151.131 446.578H123.199V451.216H151.131V446.578Z" fill="white"/>
<path d="M230.28 369.023H221.65V373.498H230.28V369.023Z" fill="white"/>
<path d="M230.28 377.708H221.65V382.183H230.28V377.708Z" fill="white"/>
<path d="M230.28 386.392H221.65V390.868H230.28V386.392Z" fill="white"/>
<path d="M230.28 395.062H221.65V399.537H230.28V395.062Z" fill="white"/>
<path d="M230.28 403.746H221.65V408.222H230.28V403.746Z" fill="white"/>
<path d="M230.28 412.431H221.65V416.906H230.28V412.431Z" fill="white"/>
<path d="M230.28 421.116H221.65V425.591H230.28V421.116Z" fill="white"/>
<path d="M230.28 429.8H221.65V434.275H230.28V429.8Z" fill="white"/>
<path d="M242.015 369.023H233.386V373.498H242.015V369.023Z" fill="white"/>
<path d="M242.015 377.708H233.386V382.183H242.015V377.708Z" fill="white"/>
<path d="M242.015 386.392H233.386V390.868H242.015V386.392Z" fill="white"/>
<path d="M242.015 395.062H233.386V399.537H242.015V395.062Z" fill="white"/>
<path d="M242.015 403.746H233.386V408.222H242.015V403.746Z" fill="white"/>
<path d="M242.015 412.431H233.386V416.906H242.015V412.431Z" fill="white"/>
<path d="M242.015 421.116H233.386V425.591H242.015V421.116Z" fill="white"/>
<path d="M242.015 429.8H233.386V434.275H242.015V429.8Z" fill="white"/>
<path d="M174.15 336.825H165.162V343.885H174.15V336.825Z" fill="white"/>
<path d="M187.546 336.825H178.559V343.885H187.546V336.825Z" fill="white"/>
<path d="M174.15 347.179H165.162V354.239H174.15V347.179Z" fill="white"/>
<path d="M187.546 347.179H178.559V354.239H187.546V347.179Z" fill="white"/>
<path d="M174.15 357.547H165.162V364.607H174.15V357.547Z" fill="white"/>
<path d="M187.546 357.547H178.559V364.607H187.546V357.547Z" fill="white"/>
<path d="M174.15 367.916H165.162V374.975H174.15V367.916Z" fill="white"/>
<path d="M187.546 367.916H178.559V374.975H187.546V367.916Z" fill="white"/>
<path d="M174.15 378.284H165.162V385.344H174.15V378.284Z" fill="white"/>
<path d="M187.546 378.284H178.559V385.344H187.546V378.284Z" fill="white"/>
<path d="M174.15 388.637H165.162V395.697H174.15V388.637Z" fill="white"/>
<path d="M187.546 388.637H178.559V395.697H187.546V388.637Z" fill="white"/>
<path d="M174.15 399.006H165.162V406.065H174.15V399.006Z" fill="white"/>
<path d="M187.546 399.006H178.559V406.065H187.546V399.006Z" fill="white"/>
<path d="M174.15 409.374H165.162V416.434H174.15V409.374Z" fill="white"/>
<path d="M187.546 409.374H178.559V416.434H187.546V409.374Z" fill="white"/>
<path d="M204.154 357.547H195.166V364.607H204.154V357.547Z" fill="white"/>
<path d="M204.154 367.916H195.166V374.975H204.154V367.916Z" fill="white"/>
<path d="M204.154 378.284H195.166V385.344H204.154V378.284Z" fill="white"/>
<path d="M204.154 388.637H195.166V395.697H204.154V388.637Z" fill="white"/>
<path d="M204.154 399.006H195.166V406.065H204.154V399.006Z" fill="white"/>
<path d="M204.154 409.374H195.166V416.434H204.154V409.374Z" fill="white"/>
<path d="M174.15 419.609H165.162V426.669H174.15V419.609Z" fill="white"/>
<path d="M187.546 419.609H178.559V426.669H187.546V419.609Z" fill="white"/>
<path d="M204.154 419.609H195.166V426.669H204.154V419.609Z" fill="white"/>
<path d="M174.15 429.859H165.162V436.919H174.15V429.859Z" fill="white"/>
<path d="M187.546 429.859H178.559V436.919H187.546V429.859Z" fill="white"/>
<path d="M204.154 429.859H195.166V436.919H204.154V429.859Z" fill="white"/>
<path d="M174.15 440.094H165.162V447.154H174.15V440.094Z" fill="white"/>
<path d="M187.546 440.094H178.559V447.154H187.546V440.094Z" fill="white"/>
<path d="M204.154 440.094H195.166V447.154H204.154V440.094Z" fill="white"/>
<path d="M174.15 450.345H165.162V457.404H174.15V450.345Z" fill="white"/>
<path d="M187.546 450.345H178.559V457.404H187.546V450.345Z" fill="white"/>
<path d="M204.154 450.345H195.166V457.404H204.154V450.345Z" fill="white"/>
<path d="M174.15 460.58H165.162V467.64H174.15V460.58Z" fill="white"/>
<path d="M187.546 460.58H178.559V467.64H187.546V460.58Z" fill="white"/>
<path d="M204.154 460.58H195.166V467.64H204.154V460.58Z" fill="white"/>
<path d="M285.307 346.884H280.461V353.057H285.307V346.884Z" fill="white"/>
<path d="M293.723 346.884H288.877V353.057H293.723V346.884Z" fill="white"/>
<path d="M285.307 356.188H280.461V362.362H285.307V356.188Z" fill="white"/>
<path d="M293.723 356.188H288.877V362.362H293.723V356.188Z" fill="white"/>
<path d="M285.307 365.493H280.461V371.667H285.307V365.493Z" fill="white"/>
<path d="M293.723 365.493H288.877V371.667H293.723V365.493Z" fill="white"/>
<path d="M285.307 374.783H280.461V380.957H285.307V374.783Z" fill="white"/>
<path d="M293.723 374.783H288.877V380.957H293.723V374.783Z" fill="white"/>
<path d="M285.307 384.31H280.461V390.483H285.307V384.31Z" fill="white"/>
<path d="M293.723 384.31H288.877V390.483H293.723V384.31Z" fill="white"/>
<path d="M285.307 393.851H280.461V400.025H285.307V393.851Z" fill="white"/>
<path d="M293.723 393.851H288.877V400.025H293.723V393.851Z" fill="white"/>
<path d="M285.307 403.377H280.461V409.551H285.307V403.377Z" fill="white"/>
<path d="M293.723 403.377H288.877V409.551H293.723V403.377Z" fill="white"/>
<path d="M285.307 412.904H280.461V419.077H285.307V412.904Z" fill="white"/>
<path d="M293.723 412.904H288.877V419.077H293.723V412.904Z" fill="white"/>
<path d="M285.307 422.533H280.461V428.707H285.307V422.533Z" fill="white"/>
<path d="M293.723 422.533H288.877V428.707H293.723V422.533Z" fill="white"/>
<path d="M285.307 432.163H280.461V438.337H285.307V432.163Z" fill="white"/>
<path d="M293.723 432.163H288.877V438.337H293.723V432.163Z" fill="white"/>
<path d="M285.307 441.793H280.461V447.967H285.307V441.793Z" fill="white"/>
<path d="M293.723 441.793H288.877V447.967H293.723V441.793Z" fill="white"/>
<path d="M285.307 451.423H280.461V457.597H285.307V451.423Z" fill="white"/>
<path d="M293.723 451.423H288.877V457.597H293.723V451.423Z" fill="white"/>
<path d="M303.295 346.884H298.449V353.057H303.295V346.884Z" fill="white"/>
<path d="M311.712 346.884H306.866V353.057H311.712V346.884Z" fill="white"/>
<path d="M303.295 356.188H298.449V362.362H303.295V356.188Z" fill="white"/>
<path d="M311.712 356.188H306.866V362.362H311.712V356.188Z" fill="white"/>
<path d="M303.295 365.493H298.449V371.667H303.295V365.493Z" fill="white"/>
<path d="M311.712 365.493H306.866V371.667H311.712V365.493Z" fill="white"/>
<path d="M303.295 374.783H298.449V380.957H303.295V374.783Z" fill="white"/>
<path d="M311.712 374.783H306.866V380.957H311.712V374.783Z" fill="white"/>
<path d="M303.295 384.31H298.449V390.483H303.295V384.31Z" fill="white"/>
<path d="M311.712 384.31H306.866V390.483H311.712V384.31Z" fill="white"/>
<path d="M303.295 393.851H298.449V400.025H303.295V393.851Z" fill="white"/>
<path d="M311.712 393.851H306.866V400.025H311.712V393.851Z" fill="white"/>
<path d="M303.295 403.377H298.449V409.551H303.295V403.377Z" fill="white"/>
<path d="M311.712 403.377H306.866V409.551H311.712V403.377Z" fill="white"/>
<path d="M303.295 412.904H298.449V419.077H303.295V412.904Z" fill="white"/>
<path d="M311.712 412.904H306.866V419.077H311.712V412.904Z" fill="white"/>
<path d="M303.295 422.533H298.449V428.707H303.295V422.533Z" fill="white"/>
<path d="M311.712 422.533H306.866V428.707H311.712V422.533Z" fill="white"/>
<path d="M303.295 432.163H298.449V438.337H303.295V432.163Z" fill="white"/>
<path d="M311.712 432.163H306.866V438.337H311.712V432.163Z" fill="white"/>
<path d="M303.295 441.793H298.449V447.967H303.295V441.793Z" fill="white"/>
<path d="M311.712 441.793H306.866V447.967H311.712V441.793Z" fill="white"/>
<path d="M303.295 451.423H298.449V457.597H303.295V451.423Z" fill="white"/>
<path d="M311.712 451.423H306.866V457.597H311.712V451.423Z" fill="white"/>
<path d="M0 70.0681H142.938C142.938 70.0681 128.773 27 106.961 27C85.1495 27 78.3126 56.7164 78.3126 56.7164C78.3126 56.7164 63.59 40.5732 51.5092 40.5732C39.4285 40.5732 28.9407 61.9153 28.9407 61.9153C28.9407 61.9153 11.8285 50.4393 0 70.0681Z" fill="#EBEBEB"/>
<path opacity="0.5" d="M438.427 196.5H505.229C505.229 196.5 490.294 172.425 478.546 172.425C466.797 172.425 463.305 188.48 463.305 188.48C463.305 188.48 455.008 180.992 447.375 182.321C439.741 183.65 438.427 196.5 438.427 196.5Z" fill="#EBEBEB"/>
<path d="M505.402 122.061H635.503C635.503 122.061 617.687 77.7523 598.623 75.0494C579.56 72.3466 570.453 107.927 570.453 107.927C570.453 107.927 558.159 95.3281 548.482 95.3281C538.804 95.3281 531.356 111.929 531.356 111.929C531.356 111.929 512.027 100.557 505.402 122.061Z" fill="#EBEBEB"/>
<path opacity="0.5" d="M442.821 32.764H530.719C530.719 32.764 515.625 0.699278 499.242 0.27096C482.86 -0.157358 474.205 24.4931 474.205 24.4931C474.205 24.4931 448.769 1.74792 442.821 32.764Z" fill="#EBEBEB"/>
<path opacity="0.5" d="M218.783 226.526H306.681C306.681 226.526 291.573 194.461 275.191 194.033C258.809 193.605 250.206 218.3 250.206 218.3C250.206 218.3 224.731 195.51 218.783 226.526Z" fill="#EBEBEB"/>
<path d="M137 566.5L191.16 566.26L245.32 566.17L353.64 566L461.96 566.17L516.12 566.26L570.28 566.5L516.12 566.75L461.96 566.83L353.64 567L245.32 566.83L191.16 566.74L137 566.5Z" fill="#263238"/>
<path d="M361.191 267.601C341.84 280.014 308.616 288.203 282.68 285.921C278.6 285.621 274.553 284.98 270.58 284.004C265.246 282.7 260.057 281.227 255.05 279.858C221.721 270.73 192.956 262.906 143.354 276.428C84.1154 292.571 70.9064 299.899 69.759 300.056L78.5084 290.524L66.9033 283.287C67.1771 283.287 80.5817 275.894 138.842 260.012C192.904 245.29 225.228 254.118 259.457 263.454C264.412 264.758 269.523 266.205 274.713 267.535C276.725 268.04 278.762 268.441 280.816 268.735C305.486 272.282 341.214 263.519 355.962 251.784C357.511 250.602 358.791 249.104 359.717 247.389L359.965 265.645C360.291 265.918 360.63 266.61 361.191 267.601Z" fill="#5375E2"/>
<path opacity="0.2" d="M361.191 267.601C341.84 280.014 308.616 288.203 282.68 285.921C278.6 285.621 274.553 284.98 270.58 284.004C265.246 282.7 260.057 281.227 255.05 279.858C221.721 270.73 192.956 262.906 143.354 276.428C84.1154 292.571 70.9064 299.899 69.759 300.056L78.5084 290.524L66.9033 283.287C67.1771 283.287 80.5817 275.894 138.842 260.012C192.904 245.29 225.228 254.118 259.457 263.454C264.412 264.758 269.523 266.205 274.713 267.535C276.725 268.04 278.762 268.441 280.816 268.735C305.486 272.282 341.214 263.519 355.962 251.784C357.511 250.602 358.791 249.104 359.717 247.389L359.965 265.645C360.291 265.918 360.63 266.61 361.191 267.601Z" fill="black"/>
<path d="M357.318 241.052C357.318 241.052 357.618 284.891 349.038 294.357C349.038 294.357 292.434 398.556 261.935 404.475C236.103 409.496 142.05 339.852 142.05 339.852L171.793 294.031C171.793 294.031 188.236 302.038 210.663 314.282C229.179 324.4 245.088 335.862 245.57 335.014C252.585 322.392 281.194 286.521 280.633 284.16C274.439 257.912 293.164 241.13 293.164 241.13L357.318 241.052Z" fill="#263238"/>
<path d="M349.025 294.357C349.025 294.357 335.125 319.967 317.378 346.515L280.62 284.121C274.452 257.886 293.177 241.091 293.177 241.091H357.331C357.331 241.091 357.604 284.891 349.025 294.357Z" fill="#37474F"/>
<path d="M56.7201 331.337C57.5677 328.169 106.896 254.157 110.573 252.54C111.955 251.901 171.858 294.031 171.858 294.031L142.142 339.67L103.988 315.077C103.988 315.077 73.2411 334.467 69.0163 335.823C64.7915 337.179 55.8595 334.493 56.7201 331.337Z" fill="#EB9481"/>
<path d="M56.7316 331.337C57.5792 328.169 106.894 254.157 110.558 252.54C111.223 252.227 130.118 265.084 141.397 272.829L110.845 319.576L103.921 315.129C103.921 315.129 73.2396 334.454 69.0148 335.823C64.79 337.192 55.858 334.48 56.7316 331.337Z" fill="#EBEBEB"/>
<path d="M56.5506 331.676C57.4112 328.534 106.557 253.57 110.195 251.94C111.577 251.314 122.778 258.825 134.67 268.2L103.806 315.899C103.806 315.899 72.9933 334.78 68.8076 336.162C64.622 337.544 55.703 334.858 56.5506 331.676Z" fill="#5375E2"/>
<path d="M60.2002 332.589C68.741 320.436 101.992 270.612 109.502 257.951C109.502 257.847 109.502 257.795 109.424 257.951C100.714 269.804 67.8544 319.902 60.0046 332.498C59.8351 332.719 60.0307 332.837 60.2002 332.589Z" fill="#263238"/>
<path d="M74.6103 333.163C75.5637 331.814 76.2255 330.282 76.5533 328.663C76.8811 327.044 76.8677 325.375 76.514 323.761C75.91 320.851 74.2048 318.286 71.7546 316.603C71.7546 316.603 71.5982 316.681 71.6634 316.746C73.8326 318.793 75.2777 321.49 75.781 324.43C76.2843 327.37 75.8185 330.393 74.4538 333.045C74.4016 333.163 74.5451 333.267 74.6103 333.163Z" fill="#263238"/>
<path d="M99.9842 318.937C103.348 314.047 105.422 307.201 103.427 301.386C103.348 301.164 103.035 301.268 103.009 301.464C102.396 307.299 101.159 313.052 99.3192 318.624C99.3022 318.707 99.3136 318.793 99.3516 318.869C99.3896 318.945 99.4519 319.006 99.5287 319.042C99.6054 319.078 99.692 319.087 99.7746 319.068C99.8572 319.049 99.931 319.003 99.9842 318.937Z" fill="#263238"/>
<path d="M95.9549 321.819C99.3191 316.929 101.392 310.083 99.3973 304.254C99.3191 304.033 99.0061 304.15 98.9801 304.346C98.3648 310.181 97.1277 315.933 95.2899 321.506C95.2729 321.589 95.2843 321.675 95.3223 321.751C95.3603 321.827 95.4227 321.887 95.4994 321.924C95.5761 321.96 95.6627 321.969 95.7453 321.95C95.8279 321.931 95.9017 321.885 95.9549 321.819Z" fill="#263238"/>
<path d="M91.925 324.596C95.2892 319.693 97.3624 312.86 95.3674 307.032C95.2892 306.81 94.9762 306.927 94.9501 307.123C94.3348 312.954 93.0977 318.702 91.26 324.27C91.2383 324.354 91.2463 324.443 91.2827 324.522C91.3191 324.601 91.3816 324.665 91.4597 324.704C91.5379 324.742 91.6268 324.752 91.7115 324.733C91.7963 324.713 91.8717 324.665 91.925 324.596Z" fill="#263238"/>
<path d="M87.8967 327.425C91.2608 322.523 93.3341 315.625 91.3391 309.861C91.2608 309.64 90.9479 309.757 90.9218 309.953C90.3065 315.783 89.0694 321.532 87.2317 327.1C87.21 327.184 87.218 327.273 87.2544 327.352C87.2908 327.431 87.3533 327.495 87.4314 327.533C87.5095 327.572 87.5985 327.582 87.6832 327.562C87.768 327.543 87.8434 327.494 87.8967 327.425Z" fill="#263238"/>
<path d="M119.139 268.904C122.816 263.35 114.184 257.625 110.507 263.193C106.83 268.761 115.462 274.472 119.139 268.904Z" fill="#263238"/>
<path d="M109.62 333.085C113.376 331.95 113.441 327.438 112.32 324.478C110.711 320.46 108.287 316.82 105.2 313.786C104.783 313.343 104.339 312.939 103.896 312.482C103.692 312.327 103.496 312.162 103.309 311.987L103.14 311.882L102.657 311.491C102.638 311.478 102.615 311.469 102.591 311.466C102.568 311.463 102.544 311.465 102.521 311.473C102.498 311.48 102.478 311.493 102.461 311.51C102.444 311.526 102.431 311.547 102.423 311.569C102.284 311.521 102.135 311.513 101.992 311.545C101.849 311.577 101.718 311.649 101.614 311.752C101.554 311.806 101.506 311.872 101.475 311.947C101.443 312.021 101.428 312.102 101.432 312.182C101.432 313.604 101.432 315.064 101.432 316.524C101.419 316.776 101.419 317.029 101.432 317.281C101.246 320.837 101.661 324.398 102.657 327.817C103.622 330.763 106.087 334.128 109.62 333.085ZM103.101 320.045C103.101 318.819 103.022 317.594 102.983 316.381C102.944 315.168 102.905 314.321 102.853 313.291C102.853 313.147 102.853 312.991 102.853 312.86C102.853 312.73 102.853 312.586 102.853 312.469L103.088 312.756C103.583 313.421 104.066 314.06 104.574 314.699C105.92 316.428 107.17 318.23 108.317 320.097C109.118 321.387 109.833 322.728 110.455 324.113C111.368 326.278 112.254 333.893 106.543 330.79C103.414 329.107 103.283 323.018 103.166 320.019L103.101 320.045Z" fill="#263238"/>
<path d="M102.24 312.808C102.239 312.833 102.244 312.857 102.254 312.879C102.265 312.901 102.28 312.92 102.299 312.935C102.318 312.951 102.34 312.961 102.364 312.966C102.388 312.971 102.412 312.971 102.436 312.965C102.592 312.937 102.745 312.893 102.892 312.834C102.951 312.856 103.016 312.856 103.075 312.834C103.348 312.796 103.616 312.721 103.87 312.613C104.829 312.341 105.767 311.997 106.674 311.583C110.32 310.053 113.639 307.84 116.453 305.063C118.696 302.807 120.443 298.66 117.47 296.118C117.363 296.028 117.249 295.945 117.131 295.87C114.38 293.875 110.951 295.87 108.955 298.061C106.964 300.409 105.341 303.047 104.144 305.884C103.27 307.853 102.449 309.796 101.536 311.765C101.477 311.879 101.45 312.008 101.457 312.136C101.465 312.265 101.507 312.389 101.579 312.495C101.651 312.602 101.75 312.687 101.867 312.743C101.983 312.798 102.112 312.82 102.24 312.808ZM106.308 305.441C107.612 302.729 110.22 297.226 113.819 296.926C114.644 296.814 115.484 296.917 116.258 297.226C119.022 298.53 116.088 303.263 114.667 304.606C113.541 305.633 112.347 306.582 111.094 307.449C110.155 308.114 109.203 308.753 108.199 309.288C106.595 310.252 104.952 311.126 103.322 312.052C103.218 312.052 103.127 312.182 103.023 312.221C103.086 312.13 103.134 312.028 103.166 311.922C103.322 311.661 103.453 311.426 103.583 311.152C104.509 309.275 105.37 307.345 106.308 305.441Z" fill="#263238"/>
<path d="M548.359 520.136C546.311 522.743 471.569 570.898 467.514 570.989C465.988 570.989 427.913 508.517 427.913 508.517L473.395 478.527L498.561 516.341C498.561 516.341 534.419 510.851 538.827 511.282C543.234 511.712 550.406 517.58 548.359 520.136Z" fill="#EB9481"/>
<path d="M548.345 520.135C546.311 522.743 471.556 570.898 467.501 570.989C466.77 570.989 454.578 551.678 447.315 540.073L493.984 509.391L498.547 516.237C498.547 516.237 534.393 510.747 538.813 511.177C543.234 511.608 550.405 517.593 548.345 520.135Z" fill="#EBEBEB"/>
<path d="M548.646 519.888C546.611 522.496 471.648 571.576 467.658 571.615C466.132 571.615 458.869 560.284 451.697 546.945L499.017 515.52C499.017 515.52 534.811 510.473 539.192 510.904C543.573 511.334 550.667 517.332 548.646 519.888Z" fill="#5375E2"/>
<path d="M545.66 517.593C532.986 525.338 482.627 557.767 470.683 566.373C470.592 566.452 470.683 566.517 470.683 566.452C483.41 559.058 533.52 526.225 545.738 517.801C546.051 517.619 545.934 517.41 545.66 517.593Z" fill="#263238"/>
<path d="M532.686 511.321C531.279 512.175 530.064 513.311 529.117 514.658C528.17 516.004 527.512 517.532 527.183 519.144C526.581 522.051 527.123 525.077 528.696 527.594C528.696 527.672 528.878 527.594 528.839 527.503C527.666 524.762 527.414 521.715 528.119 518.819C528.824 515.922 530.45 513.333 532.751 511.438C532.882 511.399 532.777 511.256 532.686 511.321Z" fill="#263238"/>
<path d="M503.725 514.242C498.692 517.397 494.037 522.887 493.567 528.976C493.567 529.211 493.88 529.237 493.985 529.054C496.877 523.951 500.308 519.173 504.221 514.802C504.279 514.733 504.311 514.645 504.31 514.554C504.309 514.463 504.275 514.376 504.215 514.308C504.155 514.24 504.072 514.196 503.982 514.184C503.892 514.171 503.801 514.192 503.725 514.242Z" fill="#263238"/>
<path d="M508.563 513.251C503.517 516.406 498.875 521.909 498.405 527.985C498.405 528.22 498.718 528.246 498.823 528.076C501.71 522.97 505.138 518.187 509.045 513.811C509.098 513.742 509.125 513.658 509.122 513.571C509.12 513.484 509.088 513.401 509.031 513.336C508.975 513.27 508.897 513.226 508.812 513.21C508.727 513.195 508.639 513.209 508.563 513.251Z" fill="#263238"/>
<path d="M513.386 512.273C508.34 515.428 503.698 520.918 503.229 527.007C503.229 527.242 503.541 527.268 503.646 527.086C506.534 521.983 509.961 517.205 513.869 512.833C513.921 512.764 513.948 512.68 513.946 512.593C513.943 512.507 513.911 512.423 513.854 512.358C513.798 512.292 513.721 512.248 513.635 512.232C513.55 512.217 513.462 512.231 513.386 512.273Z" fill="#263238"/>
<path d="M518.211 511.282C513.165 514.437 508.523 519.94 508.054 526.016C508.054 526.251 508.367 526.277 508.471 526.108C511.359 521.001 514.786 516.218 518.694 511.842C518.746 511.774 518.774 511.689 518.771 511.602C518.768 511.516 518.736 511.433 518.68 511.367C518.623 511.301 518.546 511.257 518.461 511.241C518.375 511.226 518.287 511.24 518.211 511.282Z" fill="#263238"/>
<path d="M466.222 552.486C460.628 556.111 466.222 564.809 471.855 561.171C477.488 557.533 471.816 548.848 466.222 552.486Z" fill="#263238"/>
<path d="M500.543 497.434C496.631 496.964 494.792 501.085 494.636 504.253C494.512 508.575 495.28 512.876 496.892 516.889C497.1 517.462 497.348 518.01 497.596 518.545C497.726 518.766 497.831 519.001 497.935 519.223L498.052 519.392L498.339 519.94C498.354 519.959 498.372 519.974 498.394 519.985C498.415 519.995 498.439 520.001 498.463 520.001C498.487 520.001 498.51 519.995 498.532 519.985C498.553 519.974 498.572 519.959 498.587 519.94C498.694 520.042 498.829 520.112 498.974 520.139C499.12 520.167 499.271 520.152 499.408 520.096C499.484 520.071 499.553 520.03 499.612 519.976C499.67 519.922 499.716 519.857 499.747 519.783C500.282 518.479 500.882 517.176 501.469 515.793C501.586 515.572 501.677 515.35 501.782 515.115C503.368 511.925 504.408 508.492 504.859 504.958C505.12 501.958 504.207 497.851 500.543 497.434ZM501.26 511.986C500.817 513.133 500.347 514.268 499.956 515.389C499.565 516.51 499.2 517.319 498.835 518.284C498.835 518.414 498.73 518.571 498.691 518.688L498.561 519.053C498.561 518.936 498.496 518.818 498.469 518.701C498.274 517.906 498.104 517.123 497.896 516.328C497.336 514.208 496.901 512.057 496.592 509.886C496.376 508.383 496.259 506.867 496.24 505.349C496.24 503.002 498.483 495.673 502.473 500.785C504.624 503.549 502.342 509.195 501.26 511.986Z" fill="#263238"/>
<path d="M499.227 518.962C499.237 518.94 499.242 518.916 499.242 518.891C499.241 518.867 499.235 518.843 499.224 518.822C499.212 518.8 499.196 518.782 499.176 518.767C499.156 518.753 499.134 518.744 499.11 518.74C498.954 518.723 498.796 518.723 498.64 518.74C498.612 518.726 498.58 518.719 498.549 518.719C498.517 518.719 498.486 518.726 498.458 518.74C498.193 518.674 497.922 518.639 497.649 518.636C496.66 518.497 495.662 518.436 494.663 518.453C490.717 518.39 486.795 519.085 483.11 520.501C480.163 521.674 476.903 524.778 478.612 528.324C478.673 528.45 478.743 528.572 478.82 528.689C480.554 531.61 484.505 531.128 487.191 529.993C489.97 528.623 492.521 526.833 494.754 524.686C496.345 523.239 497.884 521.726 499.462 520.318C499.601 520.25 499.714 520.138 499.784 520C499.855 519.862 499.878 519.705 499.852 519.552C499.825 519.399 499.75 519.259 499.638 519.153C499.525 519.047 499.381 518.98 499.227 518.962ZM492.564 524.1C490.256 526.055 485.666 530.059 482.276 528.911C481.474 528.693 480.745 528.265 480.163 527.672C478.129 525.39 482.771 522.196 484.557 521.531C485.999 521.042 487.471 520.65 488.965 520.357C490.086 520.122 491.221 519.953 492.355 519.81C494.22 519.575 496.071 519.431 497.936 519.223H498.288C498.195 519.29 498.108 519.364 498.027 519.444C497.78 519.627 497.571 519.797 497.336 519.992C495.732 521.322 494.181 522.73 492.564 524.1Z" fill="#263238"/>
<path d="M474.778 479.935L427.953 508.452C427.953 508.452 380.216 458.342 369.276 415.077C365.977 402.037 310.246 320.801 291.547 300.447C266.942 273.651 291.743 241.013 291.743 241.013H359.705L360.044 265.54C365.39 274.211 474.778 479.935 474.778 479.935Z" fill="#263238"/>
<path d="M345.948 254.013C348.581 255.58 351.084 257.354 353.433 259.32C355.812 261.251 358.035 263.366 360.083 265.644C357.447 264.078 354.944 262.299 352.598 260.324C350.22 258.398 347.996 256.288 345.948 254.013Z" fill="#37474F"/>
<path d="M334.394 114.922C333.56 109.706 332.451 104.216 324.654 101.687C307.924 96.2752 295.967 119.081 276.656 126.383C253.393 135.224 244.057 149.268 253.524 158.291C264.099 168.396 283.736 162.763 299.983 134.82C310.154 117.36 319.216 112.953 323.389 113.018C326.401 113.018 330.626 119.12 330.626 119.12L334.394 114.922Z" fill="#263238"/>
<path d="M305.824 125.366C304.012 127.974 302.512 130.856 300.921 133.633C299.331 136.411 297.792 139.214 296.149 141.939C294.506 144.664 292.772 147.351 290.855 149.88C288.989 152.43 286.875 154.789 284.544 156.922C282.254 159.071 279.571 160.758 276.642 161.89C273.636 162.929 270.473 163.441 267.293 163.402C264.076 163.372 260.909 162.604 258.035 161.159C256.581 160.436 255.227 159.529 254.005 158.46C253.401 157.923 252.83 157.348 252.297 156.739C251.742 156.14 251.277 155.463 250.915 154.731C251.574 156.249 252.537 157.616 253.745 158.747C254.911 159.929 256.226 160.955 257.656 161.798C259.116 162.633 260.67 163.29 262.285 163.754C263.905 164.212 265.572 164.483 267.253 164.563C268.921 164.646 270.594 164.572 272.248 164.341L273.486 164.145L274.699 163.898C275.52 163.719 276.33 163.493 277.124 163.22C280.244 162.044 283.105 160.273 285.548 158.004C290.213 153.491 294.127 148.262 297.14 142.513C298.718 139.696 300.152 136.828 301.547 133.946C302.942 131.064 304.312 128.183 305.824 125.366Z" fill="#263238"/>
<path d="M334.434 116.434C334.278 114.214 333.84 112.023 333.13 109.914C332.41 107.856 331.23 105.988 329.68 104.454C328.13 102.92 326.251 101.759 324.185 101.061C323.159 100.712 322.103 100.463 321.029 100.317C319.97 100.141 318.895 100.076 317.822 100.122C315.681 100.287 313.586 100.821 311.628 101.7C309.653 102.626 307.778 103.754 306.034 105.064C302.487 107.672 299.201 110.697 295.798 113.605C292.409 116.585 288.8 119.305 285.001 121.741C281.103 124.015 277.036 125.986 272.835 127.635C268.675 129.202 264.624 131.045 260.709 133.151C258.759 134.22 256.953 135.535 255.337 137.063L254.163 138.223C253.798 138.653 253.472 139.097 253.12 139.527L252.598 140.179L252.155 140.883L251.281 142.317C253.217 138.207 256.342 134.773 260.252 132.46C264.133 130.19 268.157 128.178 272.301 126.435C276.37 124.682 280.317 122.656 284.115 120.372C287.824 117.955 291.346 115.261 294.65 112.314C298.067 109.445 301.353 106.394 305.082 103.773C306.94 102.427 308.933 101.277 311.028 100.343C313.165 99.42 315.456 98.9026 317.782 98.8178C318.947 98.8124 320.109 98.926 321.251 99.1568C322.384 99.3626 323.497 99.6681 324.576 100.07C326.747 100.859 328.697 102.157 330.264 103.853C331.832 105.55 332.971 107.597 333.586 109.823C334.18 111.976 334.466 114.201 334.434 116.434Z" fill="#263238"/>
<path d="M339.742 115.221C339.585 113.605 338.177 111.675 337.134 111.518C336.091 111.362 328.762 115.613 328.332 117.673C327.902 119.733 331.553 121.05 331.553 121.05L339.742 115.221Z" fill="#5375E2"/>
<path d="M352.584 171.239C361.985 150.376 371.087 134.063 385.182 109.367C392.511 96.5098 405.263 75.8031 408.536 70.2483C412.852 62.9984 443.677 91.1114 440.196 95.6753C437.927 98.6874 425.005 117.386 412.526 130.608C396.501 147.559 384.674 163.311 366.784 180.836C353.262 194.123 346.377 185.022 352.584 171.239Z" fill="#EB9481"/>
<path d="M431.526 104.607C439.258 101.608 462.716 85.0481 466.602 80.8233C470.488 76.5986 480.802 63.4026 477.829 60.0906C474.856 56.7786 471.531 60.3775 471.531 60.3775C471.531 60.3775 475.443 53.61 471.701 51.0804C468.728 49.0723 463.786 53.8969 463.786 53.8969C463.786 53.8969 467.697 46.2558 463.655 44.2216C459.991 42.357 455.975 48.9158 455.975 48.9158C455.975 48.9158 458.583 42.1875 454.671 41.0921C450.016 39.7882 445.543 51.3933 440.849 55.8006C439.793 56.8047 410.115 74.7209 410.115 74.7209L431.526 104.607Z" fill="#EB9481"/>
<path d="M455.791 48.5638C451.527 56.9351 449.519 60.2993 442.256 65.6455C442.113 65.7498 442.256 65.9845 442.386 65.8802C449.988 61.2772 452.662 57.4958 456.221 48.7072C456.391 48.2769 456 48.1726 455.791 48.5638Z" fill="#263238"/>
<path d="M463.693 53.8838C459.39 62.4638 456.195 65.7106 448.958 71.8913C448.854 71.9826 448.958 72.1521 449.102 72.0738C456.678 66.6103 460.837 63.0897 463.954 53.9621C464.136 53.5448 463.888 53.4926 463.693 53.8838Z" fill="#263238"/>
<path d="M471.126 60.6904C466.419 68.6966 463.12 72.6345 455.362 77.746C455.332 77.772 455.312 77.8076 455.306 77.8467C455.3 77.8857 455.307 77.9257 455.327 77.9597C455.347 77.9938 455.379 78.0197 455.416 78.0331C455.453 78.0464 455.494 78.0463 455.531 78.0328C463.955 73.5994 468.101 68.7227 471.361 60.8599C471.622 60.3253 471.465 60.1818 471.126 60.6904Z" fill="#263238"/>
<path d="M404.481 77.7069C404.481 77.7069 407.676 65.1239 419.62 60.4949C424.432 58.6172 431.173 44.3129 435.62 44.5998C440.588 44.9258 437.028 57.8739 430.978 64.837C430.978 64.837 439.049 77.6678 433.585 84.6309C432.399 86.1435 423.728 90.9289 421.563 90.4856L404.481 77.7069Z" fill="#EB9481"/>
<path d="M430.613 65.7628C433.938 70.6526 436.246 78.0721 433.886 83.4704C433.868 83.5015 433.864 83.5383 433.874 83.5725C433.884 83.6067 433.907 83.6357 433.938 83.653C433.969 83.6703 434.006 83.6745 434.04 83.6647C434.074 83.6549 434.103 83.6319 434.12 83.6008C437.445 78.1634 434.838 69.5443 431.617 65.3456C430.991 64.5502 429.752 64.5111 430.613 65.7628Z" fill="#263238"/>
<path d="M361.699 230.308L359.665 241.052H293.164C293.164 241.052 303.596 186.56 327.914 170.391C340.093 162.307 351.203 165.854 356.601 174.929C357.97 177.224 371.883 201.269 371.492 212.743C371.127 222.966 361.699 230.308 361.699 230.308Z" fill="#EB9481"/>
<path d="M371.505 212.796C371.152 222.327 362.82 229.395 361.79 230.242L296.958 225.874C298.471 220.58 300.427 214.373 302.917 207.971C309.359 208.203 315.808 207.911 322.202 207.097C325.032 206.563 331.33 197.135 339.388 198.1C347.447 199.065 355.505 207.097 355.505 207.097C359.042 203.311 363.627 200.665 368.675 199.495C370.396 204.463 371.635 209.249 371.505 212.796Z" fill="#263238"/>
<path d="M356.613 174.916C356.268 174.329 355.89 173.763 355.479 173.221C357.396 178.776 361.021 191.02 356.352 192.232C351.228 193.536 338.332 173.547 334.342 167.145C332.08 167.963 329.925 169.053 327.926 170.391C309.267 182.583 293.633 226.617 291.716 241.013H359.677L361.699 230.268C361.699 230.268 371.126 222.927 371.504 212.757C371.895 201.269 357.982 177.224 356.613 174.916ZM331.278 201.582C327.835 209.027 319.998 214.804 314.783 214.1C310.519 213.513 308.524 207.723 310.219 200.33C313.14 187.734 325.566 169.166 331.225 169.609C337.719 170.118 336.989 189.181 331.278 201.582Z" fill="#455A64"/>
<path d="M340.197 221.284C343.836 221.904 347.414 222.842 350.889 224.088C352.623 224.74 354.305 225.496 356 226.279C356.835 226.683 357.683 227.035 358.608 227.387C359.481 227.79 360.408 228.062 361.36 228.195C361.438 228.195 361.425 228.352 361.36 228.352C360.46 228.35 359.562 228.276 358.674 228.13C357.813 227.944 356.968 227.696 356.144 227.387C354.384 226.748 352.649 226.005 350.928 225.34C347.381 224.036 343.848 222.732 340.236 221.636C339.962 221.597 340.027 221.245 340.197 221.284Z" fill="#263238"/>
<path d="M330.966 224.622C333.983 224.42 337.011 224.42 340.028 224.622C341.541 224.74 343.027 224.961 344.527 225.222C345.231 225.353 345.948 225.496 346.652 225.653C347.356 225.809 348.191 226.122 348.973 226.278C349.064 226.278 349.051 226.448 348.973 226.435C348.23 226.304 347.461 226.344 346.717 226.265L344.461 226.057C342.962 225.926 341.462 225.809 339.95 225.653C336.951 225.34 333.952 225.079 330.94 224.896C330.77 224.909 330.809 224.622 330.966 224.622Z" fill="#263238"/>
<path d="M297.962 218.611C304.407 218.961 310.867 218.961 317.312 218.611C329.739 217.764 343.756 215.508 344.043 215.69C344.565 216.029 369.053 215.456 369.053 215.456L370.944 216.525L371.244 215.221L369.562 214.308C370.156 212.438 370.291 210.452 369.953 208.519C369.379 205.454 364.737 192.871 364.607 192.519C364.476 192.167 356.444 173.977 356.34 173.873C356.235 173.769 355.479 173.208 355.479 173.208L363.485 192.624C360.844 193.207 358.164 193.595 355.466 193.784C352.174 193.626 348.893 193.3 345.634 192.806C345.634 192.806 339.897 177.733 338.984 176.181C338.071 174.629 334.968 166.897 334.655 167.053C334.36 167.151 334.059 167.234 333.755 167.301C333.755 167.301 338.449 179.037 339.127 180.236C339.806 181.436 344.187 193.68 344.187 193.68C344.187 193.68 345.126 203.903 345.165 205.741C344.917 208.462 344.508 211.166 343.939 213.839C343.939 213.839 329.987 215.886 317.665 216.942C307.389 217.842 298.392 217.79 298.262 217.79C298.131 217.79 297.962 218.611 297.962 218.611Z" fill="white"/>
<path d="M351.933 199.065L352.519 211.635C352.519 212.3 352.193 212.822 351.75 212.848C351.307 212.874 350.929 212.378 350.903 211.713L350.407 201.282L349.846 201.79C349.743 201.907 349.597 201.977 349.442 201.986C349.281 201.974 349.126 201.914 348.999 201.814C348.871 201.714 348.776 201.579 348.725 201.425C348.595 201.166 348.544 200.875 348.579 200.587C348.614 200.3 348.733 200.029 348.921 199.808L350.642 198.165C350.642 198.165 350.642 198.165 350.72 198.165H350.798C350.798 198.165 350.798 198.165 350.863 198.165C350.897 198.152 350.934 198.152 350.968 198.165H351.163C351.163 198.165 351.229 198.165 351.255 198.165H351.32C351.32 198.165 351.385 198.231 351.411 198.231C351.433 198.236 351.455 198.236 351.476 198.231V198.296C351.476 198.296 351.476 198.296 351.541 198.374C351.607 198.452 351.541 198.374 351.541 198.465L351.607 198.543C351.607 198.543 351.607 198.609 351.607 198.648C351.607 198.687 351.607 198.739 351.607 198.752C351.61 198.787 351.61 198.822 351.607 198.856C351.588 198.907 351.588 198.962 351.607 199.013L351.933 199.065Z" fill="#263238"/>
<path d="M356.823 198.83L357.422 211.413C357.422 212.065 357.096 212.6 356.653 212.626C356.21 212.652 355.832 212.144 355.792 211.479L355.31 201.047L354.736 201.569C354.688 201.625 354.628 201.671 354.56 201.702C354.493 201.734 354.419 201.75 354.345 201.751C354.182 201.744 354.025 201.686 353.896 201.586C353.768 201.485 353.674 201.347 353.628 201.191C353.494 200.933 353.441 200.642 353.473 200.354C353.506 200.066 353.623 199.795 353.81 199.574L355.545 197.944C355.545 197.944 355.545 197.944 355.61 197.944H355.701C355.735 197.933 355.772 197.933 355.805 197.944H356.027C356.042 197.938 356.057 197.934 356.073 197.934C356.088 197.934 356.104 197.938 356.118 197.944C356.118 197.944 356.184 197.944 356.21 197.944L356.275 198.009L356.34 198.1C356.345 198.126 356.345 198.153 356.34 198.178L356.405 198.257C356.405 198.257 356.405 198.257 356.405 198.322C356.413 198.356 356.413 198.392 356.405 198.426C356.409 198.461 356.409 198.496 356.405 198.53C356.405 198.53 356.405 198.609 356.405 198.635C356.396 198.682 356.396 198.731 356.405 198.778L356.823 198.83Z" fill="#263238"/>
<path d="M365.259 198.883L362.195 211.661C362.091 212.105 361.817 212.378 361.478 212.391C361.369 212.401 361.261 212.378 361.165 212.326C360.945 212.149 360.78 211.912 360.69 211.644C360.6 211.376 360.588 211.088 360.656 210.814L363.264 199.73L359.496 199.9C359.052 199.9 358.661 199.378 358.635 198.739C358.609 198.1 358.948 197.553 359.378 197.539L364.399 197.305C364.446 197.293 364.495 197.293 364.542 197.305C364.656 197.336 364.762 197.389 364.855 197.461V197.526C364.864 197.552 364.864 197.579 364.855 197.605L364.92 197.683V197.774C364.922 197.809 364.922 197.844 364.92 197.879V197.983C364.92 197.983 364.92 198.061 364.92 198.087C364.915 198.122 364.915 198.157 364.92 198.191C364.933 198.348 364.933 198.505 364.92 198.661C365.272 198.752 365.272 198.817 365.259 198.883Z" fill="#263238"/>
<path d="M339.31 167.953C339.557 169.426 345.908 179.31 352.584 179.428C354.748 179.428 355.465 167.614 355.465 167.614L355.713 166.74L359.234 154.666L345.425 144.482L343.417 143.178C343.417 143.178 342.674 146.542 341.787 150.754C341.787 150.949 341.709 151.145 341.657 151.354C341.604 151.562 341.552 151.81 341.513 152.032C341.37 152.658 341.226 153.336 341.096 153.936C340.966 154.535 340.9 154.9 340.822 155.409C340.744 155.918 340.64 156.426 340.535 156.948C339.88 160.584 339.471 164.261 339.31 167.953Z" fill="#EB9481"/>
<path d="M341.788 150.728C342.808 154.248 344.582 157.503 346.987 160.268C349.392 163.034 352.37 165.242 355.714 166.74L359.235 154.666L345.426 144.482L343.418 143.178C343.418 143.178 342.675 146.516 341.788 150.728Z" fill="#263238"/>
<path d="M369.483 126.292C380.292 145.564 369.965 154.209 365.806 156.53C362.037 158.643 348.854 165.358 336.18 147.312C323.506 129.265 328.982 118.142 337.367 112.861C345.751 107.58 358.673 107.033 369.483 126.292Z" fill="#EB9481"/>
<path d="M364.203 124.714C363.731 124.898 363.248 125.05 362.756 125.17C362.265 125.405 361.71 125.469 361.178 125.353C361.018 125.286 360.886 125.167 360.801 125.016C360.716 124.865 360.683 124.69 360.709 124.519C360.814 124.193 361.003 123.901 361.257 123.672C361.511 123.443 361.821 123.285 362.156 123.215C362.819 122.961 363.553 122.961 364.216 123.215C364.356 123.284 364.473 123.392 364.555 123.525C364.637 123.659 364.679 123.812 364.678 123.968C364.676 124.125 364.631 124.277 364.547 124.409C364.463 124.541 364.344 124.647 364.203 124.714Z" fill="#263238"/>
<path d="M351.593 131.899C352.007 131.602 352.399 131.275 352.766 130.921C353.231 130.642 353.59 130.215 353.783 129.708C353.815 129.536 353.787 129.358 353.704 129.204C353.621 129.05 353.488 128.929 353.327 128.861C352.995 128.762 352.642 128.756 352.306 128.843C351.971 128.931 351.665 129.108 351.423 129.356C350.841 129.77 350.44 130.39 350.302 131.09C350.28 131.25 350.304 131.412 350.372 131.558C350.44 131.704 350.549 131.827 350.686 131.913C350.822 131.998 350.98 132.042 351.141 132.04C351.302 132.037 351.459 131.988 351.593 131.899Z" fill="#263238"/>
<path d="M362.155 144.899C362.617 145.15 363.152 145.233 363.668 145.134C364.176 144.89 364.622 144.533 364.972 144.091C364.972 144.091 365.076 144.091 365.063 144.091C365.006 144.446 364.855 144.779 364.626 145.057C364.397 145.334 364.097 145.545 363.759 145.668C363.448 145.729 363.125 145.695 362.833 145.572C362.541 145.449 362.291 145.242 362.116 144.977C361.986 144.951 362.077 144.873 362.155 144.899Z" fill="#263238"/>
<path d="M364.998 137.089C364.998 137.089 366.367 138.901 366.875 139.827C366.875 139.905 366.732 140.075 366.419 140.27C365.701 140.86 364.834 141.241 363.914 141.37C362.994 141.499 362.056 141.371 361.203 141C361.185 140.986 361.171 140.966 361.164 140.943C361.158 140.921 361.158 140.896 361.165 140.874C361.172 140.851 361.185 140.831 361.204 140.817C361.222 140.802 361.245 140.793 361.269 140.792C362.896 140.944 364.53 140.564 365.924 139.71C365.845 139.423 363.485 136.684 363.629 136.593C364.381 136.257 365.175 136.025 365.989 135.902C363.264 131.99 359.939 128.652 357.278 124.779C357.256 124.751 357.245 124.716 357.247 124.68C357.25 124.644 357.266 124.61 357.292 124.585C357.319 124.56 357.353 124.547 357.39 124.546C357.426 124.546 357.46 124.559 357.487 124.584C361.163 128.105 364.478 131.984 367.384 136.163C367.749 136.658 365.506 137.036 364.998 137.089Z" fill="#263238"/>
<path d="M365.337 140.57C365.19 141.429 364.827 142.237 364.281 142.917C363.97 143.276 363.555 143.531 363.094 143.647C362.09 143.882 361.634 143.087 361.425 142.343C361.311 141.918 361.254 141.48 361.256 141.039C362.631 141.327 364.063 141.162 365.337 140.57Z" fill="#263238"/>
<path d="M364.28 142.891C363.969 143.25 363.555 143.505 363.094 143.621C362.09 143.856 361.633 143.061 361.425 142.317C361.897 142.082 362.434 142.011 362.951 142.115C363.468 142.219 363.936 142.492 364.28 142.891Z" fill="#FF9CBD"/>
<path d="M354.331 136.332C354.328 136.517 354.288 136.698 354.214 136.867C354.166 137.007 354.088 137.136 353.984 137.242C353.88 137.348 353.754 137.429 353.614 137.48C352.753 137.819 351.958 137.141 351.476 136.332C351.476 136.332 351.476 136.228 351.476 136.254C352.036 136.502 352.662 136.737 353.093 136.424C353.363 136.147 353.549 135.799 353.627 135.42C353.831 135.746 354.067 136.052 354.331 136.332Z" fill="#263238"/>
<path d="M353.771 136.332C353.608 135.918 353.563 135.467 353.641 135.028C353.693 134.797 353.792 134.578 353.931 134.385C354.069 134.192 354.246 134.03 354.449 133.907C354.666 133.798 354.905 133.741 355.147 133.741C355.389 133.741 355.628 133.798 355.845 133.907C356.228 134.087 356.563 134.355 356.823 134.689C356.978 134.887 357.118 135.096 357.24 135.315C357.508 135.768 357.669 136.277 357.709 136.802C357.536 136.466 357.331 136.147 357.096 135.85C356.879 135.583 356.643 135.33 356.392 135.094C355.884 134.624 355.271 134.337 354.828 134.624C354.578 134.789 354.393 135.034 354.303 135.319C354.213 135.604 354.223 135.911 354.332 136.189C354.498 136.897 354.734 137.587 355.036 138.249C354.468 137.72 354.034 137.063 353.771 136.332Z" fill="#263238"/>
<path d="M366.211 128.939C366.371 129.027 366.542 129.092 366.719 129.134C366.865 129.168 367.015 129.171 367.162 129.142C367.308 129.112 367.446 129.052 367.567 128.965C367.886 128.655 368.082 128.241 368.12 127.798C368.159 127.355 368.036 126.913 367.776 126.553C367.776 126.553 367.697 126.461 367.684 126.553C367.58 127.166 367.437 127.857 366.941 128C366.561 128.081 366.165 128.045 365.807 127.896C365.981 128.227 366.117 128.577 366.211 128.939Z" fill="#263238"/>
<path d="M366.497 128.482C366.239 128.141 365.898 127.872 365.506 127.7C365.283 127.617 365.046 127.58 364.808 127.591C364.571 127.602 364.338 127.662 364.124 127.765C363.911 127.88 363.728 128.042 363.588 128.238C363.448 128.435 363.355 128.661 363.316 128.9C363.252 129.338 363.292 129.784 363.433 130.204C363.524 130.438 363.629 130.673 363.733 130.895C363.971 131.366 364.315 131.777 364.737 132.094C364.538 131.767 364.38 131.417 364.267 131.051C364.155 130.728 364.067 130.397 364.007 130.06C363.902 129.369 364.007 128.756 364.476 128.496C364.75 128.378 365.056 128.358 365.343 128.438C365.63 128.519 365.881 128.696 366.054 128.939C366.546 129.462 366.983 130.035 367.358 130.647C367.25 129.867 366.954 129.124 366.497 128.482Z" fill="#263238"/>
<path d="M345.609 114.491C346.928 115.945 347.777 117.763 348.048 119.707C348.256 125.236 342.323 126.866 341.424 129.565C340.524 132.264 342.949 135.185 342.271 137.636C341.319 141.026 339.011 140.166 339.468 141.874C339.924 143.582 341.45 148.981 339.833 150.624C338.216 152.266 312.28 124.545 338.268 112.261C338.268 112.261 341.019 108.767 347.865 108.884C357.684 109.054 364.204 118.403 364.204 118.403C363.23 118.665 362.213 118.718 361.217 118.56C359.431 118.129 358.388 117.634 357.123 117.399C355.128 117.047 354.672 118.286 352.638 117.986C349.495 117.503 345.609 114.491 345.609 114.491Z" fill="#263238"/>
<path d="M344.8 113.474C345.862 114.532 346.799 115.709 347.59 116.982C348.436 118.18 348.937 119.587 349.038 121.05C348.938 122.517 348.302 123.895 347.251 124.923C346.273 126.005 345.009 126.827 343.978 128.039C343.444 128.658 343.088 129.411 342.948 130.217C342.885 131.01 342.978 131.807 343.222 132.564C343.758 133.918 343.911 135.393 343.665 136.828C343.486 137.52 343.16 138.165 342.71 138.721C342.261 139.276 341.697 139.729 341.058 140.049C339.754 140.727 338.163 141.105 337.211 142.33C338.267 141.183 339.819 141.026 341.201 140.361C341.926 140.055 342.574 139.592 343.099 139.006C343.624 138.42 344.014 137.725 344.239 136.971C344.581 135.446 344.463 133.853 343.9 132.394C343.691 131.72 343.611 131.012 343.665 130.308C343.803 129.629 344.118 129 344.578 128.483C345.491 127.374 346.756 126.514 347.786 125.353C348.319 124.777 348.759 124.122 349.09 123.41C349.453 122.697 349.628 121.902 349.598 121.102C349.435 119.554 348.843 118.082 347.89 116.851C347 115.605 345.962 114.471 344.8 113.474Z" fill="#263238"/>
<path d="M345.948 114.374C346.84 115.464 347.875 116.429 349.026 117.243C350.195 118.117 351.597 118.625 353.055 118.703C353.765 118.695 354.473 118.616 355.167 118.468C355.795 118.359 356.44 118.427 357.032 118.664C357.631 119.032 358.264 119.342 358.923 119.59C359.61 119.782 360.333 119.813 361.035 119.681C360.352 119.673 359.678 119.527 359.053 119.251C358.431 118.955 357.841 118.597 357.293 118.181C356.616 117.827 355.845 117.695 355.089 117.803C354.427 117.929 353.755 117.995 353.081 117.999C351.742 117.893 350.453 117.444 349.339 116.695C348.161 115.993 347.028 115.218 345.948 114.374Z" fill="#263238"/>
<path d="M340.601 146.503C340.601 146.503 333.586 141.861 331.317 144.612C329.048 147.364 336.076 155.318 340.001 155.24C340.504 155.264 341.007 155.187 341.479 155.012C341.951 154.837 342.382 154.569 342.748 154.223C343.113 153.877 343.405 153.461 343.605 152.999C343.806 152.537 343.91 152.04 343.913 151.536L340.601 146.503Z" fill="#EB9481"/>
<path d="M333.391 146.842C333.326 146.842 333.391 146.946 333.391 146.946C336.169 146.946 338.307 148.694 340.107 150.637C339.873 150.451 339.601 150.319 339.311 150.25C339.021 150.18 338.719 150.174 338.426 150.232C338.134 150.29 337.857 150.412 337.616 150.587C337.375 150.763 337.175 150.989 337.029 151.249C337.029 151.328 337.029 151.393 337.147 151.354C337.511 151.061 337.956 150.887 338.422 150.855C338.888 150.822 339.353 150.933 339.755 151.171C340.431 151.59 341.06 152.079 341.632 152.632C341.828 152.801 342.167 152.527 341.984 152.319C340.85 149.189 336.821 145.851 333.391 146.842Z" fill="#263238"/>
<path d="M372.027 131.677C373.412 134.456 374.253 137.475 374.504 140.57C374.635 142.128 374.569 143.697 374.309 145.238C374.181 146.013 374.007 146.779 373.787 147.533C373.54 148.285 373.248 149.02 372.913 149.737C372.224 151.152 371.347 152.468 370.305 153.649C369.237 154.793 368.022 155.793 366.694 156.622C364.04 158.251 361.026 159.201 357.918 159.386C359.422 159.113 360.891 158.676 362.299 158.082C365.105 156.987 367.618 155.255 369.64 153.023C370.624 151.907 371.449 150.661 372.092 149.32C373.38 146.609 373.972 143.619 373.813 140.622C373.78 139.11 373.61 137.605 373.305 136.124C372.996 134.61 372.568 133.124 372.027 131.677Z" fill="#263238"/>
<path d="M323.467 187.616C323.154 187.108 322.841 186.599 322.515 186.091C324.55 188.151 326.662 190.107 328.853 191.998C328.853 191.998 328.983 191.998 328.931 191.919C326.779 189.442 324.589 187.017 322.307 184.656C321.225 183.548 320.181 182.401 319.06 181.318C317.939 180.236 316.452 178.958 315.305 177.68C315.161 177.524 314.913 177.68 315.057 177.876C316.191 179.089 317.208 180.406 318.304 181.67C319.399 182.935 320.26 183.809 321.277 184.839C321.469 185.241 321.682 185.633 321.916 186.013C322.307 186.625 322.698 187.225 323.128 187.812C323.989 188.972 324.902 190.107 325.736 191.241C324.98 190.12 324.211 188.816 323.467 187.616Z" fill="#263238"/>
<path d="M332.151 169.413C322.176 147.246 313.817 131.247 298.861 105.025C291.037 91.3722 281.206 75.0338 277.724 69.14C273.147 61.4336 240.418 91.2157 244.122 96.1316C246.521 99.3393 254.475 109.693 268.518 126.331C284.531 145.277 298.092 161.042 317.09 179.662C331.434 193.706 338.749 184.044 332.151 169.413Z" fill="#EB9481"/>
<path d="M252.219 103.564C244.004 100.383 219.112 82.8575 214.979 78.3067C210.845 73.756 199.905 59.8298 203.061 56.3092C206.216 52.7885 209.75 56.6091 209.75 56.6091C209.75 56.6091 205.603 49.4244 209.567 46.7382C212.723 44.5998 217.965 49.7243 217.965 49.7243C217.965 49.7243 213.844 41.6137 218.108 39.4492C222.02 37.4802 226.271 44.4302 226.271 44.4302C226.271 44.4302 223.506 37.2977 227.575 36.1111C232.517 34.7028 237.302 47.0642 242.244 51.7584C243.366 52.8276 274.843 71.8392 274.843 71.8392L252.219 103.564Z" fill="#EB9481"/>
<path d="M226.44 44.0782C230.978 52.9711 233.116 56.5178 240.784 62.2161C240.927 62.3204 240.784 62.5681 240.627 62.4638C232.556 57.574 229.726 53.5579 225.945 44.2086C225.814 43.7652 226.232 43.6479 226.44 44.0782Z" fill="#263238"/>
<path d="M218.069 49.7112C222.568 58.8388 226.023 62.2682 233.716 68.8271C233.821 68.9183 233.716 69.1139 233.56 69.0357C225.528 63.2201 221.094 59.4778 217.795 49.7895C217.587 49.3592 217.86 49.294 218.069 49.7112Z" fill="#263238"/>
<path d="M210.129 56.9351C215.123 65.4368 218.631 69.6225 226.872 75.0469C226.907 75.0739 226.931 75.1129 226.94 75.1566C226.949 75.2002 226.941 75.2455 226.919 75.284C226.896 75.3224 226.86 75.3513 226.818 75.3653C226.776 75.3793 226.73 75.3773 226.689 75.3598C217.744 70.6526 213.337 65.4629 209.881 57.1046C209.646 56.5439 209.816 56.4005 210.129 56.9351Z" fill="#263238"/>
<path d="M280.932 75.0077C280.932 75.0077 277.542 61.6423 264.868 56.7525C259.743 54.7705 252.584 39.5795 247.916 39.8794C242.701 40.2315 246.417 53.9751 252.845 61.3685C252.845 61.3685 244.265 74.9816 250.107 82.3881C251.411 83.9919 260.538 89.0643 262.86 88.6079L280.932 75.0077Z" fill="#EB9481"/>
<path d="M253.185 62.3334C249.664 67.5492 247.2 75.3728 249.716 81.1232C249.735 81.1578 249.74 81.1985 249.729 81.2364C249.718 81.2744 249.692 81.3063 249.658 81.3254C249.623 81.3444 249.582 81.3489 249.544 81.3379C249.506 81.3269 249.474 81.3013 249.455 81.2667C245.935 75.4902 248.699 66.3365 252.129 61.8901C252.78 61.0294 254.097 61.0294 253.185 62.3334Z" fill="#263238"/>
<path d="M359.717 243.96C343.913 236.436 298.64 221.063 267.711 213.591C240.028 206.928 211.419 216.538 183.763 225.822C166.277 231.69 149.769 237.232 133.756 238.705C70.9193 244.495 50.3952 199.848 49 197.944L60.6051 200.839L62.6523 187.877C63.8259 189.468 79.1863 226.709 132.218 221.78C146.261 220.476 161.856 215.26 178.377 209.705C206.921 200.121 239.272 189.26 271.688 197.057C303.752 204.763 352.95 220.085 364.463 227.609L359.717 243.96Z" fill="#5375E2"/>
<path d="M140.146 572.045L152.338 569.842C152.338 569.842 139.299 556.542 147.318 548.353C155.337 540.164 167.308 547.401 167.308 547.401C167.308 547.401 165.443 527.933 180.504 523.865C195.564 519.796 208.799 548.887 208.799 548.887C208.799 548.887 211.016 542.055 222.256 544.741C233.496 547.427 242.376 562.735 242.376 562.735L473.448 571.928" fill="white"/>
<path d="M140.146 572.046L152.325 569.79V569.881C149.659 567.108 147.489 563.897 145.91 560.388C145.118 558.621 144.675 556.717 144.606 554.781C144.559 552.816 145.165 550.89 146.327 549.305C146.899 548.522 147.57 547.817 148.322 547.205C149.071 546.583 149.889 546.049 150.761 545.615C152.512 544.776 154.426 544.331 156.368 544.311C160.252 544.323 164.066 545.343 167.438 547.271L167.112 547.479C166.911 544.55 167.104 541.608 167.686 538.73C168.231 535.835 169.319 533.07 170.894 530.58C172.1 528.714 173.676 527.114 175.524 525.878C177.371 524.643 179.452 523.798 181.638 523.395C183.115 523.152 184.625 523.196 186.084 523.526C188.976 524.247 191.657 525.641 193.908 527.594C196.152 529.481 198.192 531.596 199.998 533.905C203.58 538.526 206.641 543.529 209.125 548.822H208.578C209.324 547.087 210.691 545.692 212.411 544.911C214.089 544.156 215.919 543.803 217.757 543.88C221.405 543.961 224.964 545.024 228.058 546.958C231.099 548.902 233.844 551.273 236.208 553.999C238.6 556.685 240.743 559.583 242.61 562.657L242.441 562.553L473.513 571.954L242.428 562.957H242.324V562.866C240.464 559.818 238.325 556.95 235.934 554.299C233.592 551.617 230.874 549.289 227.863 547.388C224.841 545.509 221.367 544.482 217.809 544.415C216.055 544.345 214.308 544.689 212.711 545.419C211.137 546.137 209.887 547.415 209.203 549.005L208.943 549.631L208.656 549.031C206.163 543.795 203.102 538.85 199.528 534.283C197.763 532.001 195.761 529.912 193.556 528.051C191.394 526.152 188.817 524.786 186.032 524.06C184.595 523.73 183.106 523.685 181.651 523.93C180.247 524.182 178.884 524.621 177.596 525.234C174.997 526.472 172.794 528.409 171.233 530.828C169.688 533.266 168.617 535.973 168.077 538.808C167.495 541.637 167.289 544.531 167.464 547.414V547.818L167.112 547.623C163.816 545.72 160.082 544.705 156.276 544.676C154.382 544.705 152.517 545.151 150.813 545.98C149.119 546.818 147.642 548.036 146.497 549.54C145.385 551.049 144.798 552.881 144.828 554.755C144.868 556.654 145.275 558.527 146.027 560.271C147.564 563.772 149.685 566.987 152.299 569.777L152.377 569.855H152.273L140.146 572.046Z" fill="#263238"/>
<path d="M294.115 233.633C287.595 233.894 281.076 234.024 274.556 234.128C268.036 234.233 261.516 234.233 254.997 234.285C248.477 234.337 241.957 234.285 235.437 234.128L225.645 233.946C222.385 233.841 219.125 233.776 215.865 233.633C219.125 233.489 222.385 233.424 225.645 233.307L235.437 233.124C241.957 233.02 248.477 233.033 254.997 232.981C261.516 232.929 268.036 232.981 274.556 233.137C281.076 233.294 287.582 233.359 294.115 233.633Z" fill="#263238"/>
<path d="M394.859 79.076C388.339 79.3368 381.819 79.4672 375.299 79.5715C368.78 79.6758 362.26 79.6628 355.74 79.7149C349.22 79.7671 342.701 79.7149 336.181 79.5715L326.388 79.3889C323.128 79.2846 319.869 79.2194 316.596 79.076C319.869 78.9195 323.115 78.8543 326.388 78.75L336.181 78.5674C342.701 78.4631 349.22 78.4631 355.74 78.424C362.26 78.3849 368.78 78.424 375.299 78.5674C381.819 78.7109 388.326 78.8022 394.859 79.076Z" fill="#263238"/>
<path d="M405.134 86.978C400.857 87.2518 396.593 87.3692 392.316 87.4735C388.039 87.5778 383.775 87.6169 379.511 87.63C375.247 87.643 370.957 87.63 366.693 87.4865L360.291 87.304C358.166 87.1866 356.027 87.1345 353.889 86.978C356.027 86.8346 358.166 86.7694 360.291 86.6651L366.706 86.4825C370.97 86.3651 375.247 86.3391 379.524 86.326C383.801 86.313 388.065 86.326 392.329 86.4825C396.593 86.639 400.857 86.7172 405.134 86.978Z" fill="#263238"/>
<path d="M125.75 328.599C120.026 328.86 114.288 328.99 108.564 329.094C102.84 329.199 97.1022 329.199 91.3778 329.251C85.6535 329.303 79.9162 329.251 74.1788 329.094L65.5989 328.912C62.7302 328.808 59.8615 328.742 57.0059 328.599C59.8615 328.455 62.7302 328.39 65.5989 328.273L74.1918 328.09C79.9292 327.986 85.6535 327.999 91.3909 327.947C97.1282 327.895 102.853 327.947 108.577 328.103C114.301 328.26 120.026 328.338 125.75 328.599Z" fill="#263238"/>
<path d="M163.629 316.85C157.892 317.111 152.168 317.242 146.43 317.346C140.693 317.45 134.969 317.45 129.244 317.502C123.52 317.555 117.783 317.502 112.045 317.346L103.452 317.163C100.584 317.059 97.7281 316.994 94.8594 316.85C97.7281 316.694 100.584 316.642 103.452 316.524L112.045 316.342C117.783 316.238 123.507 316.251 129.244 316.198C134.982 316.146 140.706 316.198 146.43 316.342C152.155 316.485 157.892 316.603 163.629 316.85Z" fill="#263238"/>
<path d="M305.863 250.414C296.736 250.688 287.608 250.806 278.481 250.91L251.098 251.066L223.715 250.923L210.049 250.74C205.486 250.623 200.922 250.571 196.371 250.414C200.935 250.271 205.499 250.206 210.049 250.101L223.715 249.919L251.098 249.762L278.481 249.919C287.647 250.023 296.749 250.101 305.863 250.414Z" fill="#263238"/>
<path d="M445.79 548.575C439.192 548.848 432.594 548.966 425.996 549.07C419.398 549.174 412.787 549.174 406.189 549.227C399.591 549.279 392.993 549.227 386.395 549.07L376.485 548.888C373.186 548.783 369.887 548.718 366.588 548.575C369.887 548.431 373.186 548.366 376.485 548.249L386.395 548.066C392.993 547.975 399.591 547.975 406.189 547.923C412.787 547.87 419.398 547.923 425.996 548.079C432.594 548.236 439.192 548.301 445.79 548.575Z" fill="#263238"/>
<path d="M426.61 557.089C417.286 557.363 407.95 557.494 398.627 557.598L370.631 557.741L342.649 557.598L328.657 557.415C323.989 557.311 319.334 557.246 314.666 557.089C319.334 556.946 323.989 556.881 328.657 556.776L342.649 556.594L370.631 556.437L398.627 556.594C407.95 556.698 417.286 556.829 426.61 557.089Z" fill="#263238"/>
<path d="M249.938 239.996C242.115 240.257 234.2 240.387 226.337 240.491C218.474 240.596 210.598 240.583 202.736 240.648C194.873 240.713 186.997 240.648 179.121 240.491L167.32 240.309C163.409 240.205 159.497 240.139 155.585 239.996C159.497 239.839 163.409 239.774 167.32 239.67L179.121 239.487C186.945 239.383 194.86 239.396 202.736 239.344C210.611 239.292 218.461 239.344 226.337 239.487C234.213 239.631 242.076 239.67 249.938 239.996Z" fill="#263238"/>
</svg>
