<!-- 
https://www.figma.com/ 
I used this resource to layout my images and pages for this program
https://undraw.co/ 
I used this resource to find free vector stock images for my program so the images 
are displayed with high-quality 
 -->
<svg width="599" height="562" viewBox="0 0 599 562" fill="none" xmlns="http://www.w3.org/2000/svg">
<path d="M115.425 187.334H3.59656C3.59656 187.334 14.686 157.051 31.7576 157.051C48.8293 157.051 54.1641 177.947 54.1641 177.947C54.1641 177.947 65.6731 166.594 75.1321 166.594C84.591 166.594 92.8151 181.603 92.8151 181.603C92.8151 181.603 106.17 173.535 115.425 187.334Z" fill="#EBEBEB"/>
<path d="M229.774 559.128H103.445C102.395 555.057 101.388 551.06 100.381 547.12C99.2286 542.582 98.0905 538.161 97.0108 533.857C96.7627 532.894 96.5147 531.931 96.2666 530.939C95.4349 527.641 94.6178 524.416 93.8153 521.294C93.3338 519.397 92.8523 517.515 92.3562 515.662C91.8602 513.809 91.3932 511.912 90.8971 510.103C90.7658 509.621 90.6637 509.14 90.5324 508.644C90.4011 508.147 90.2697 507.593 90.1384 507.082C90.0071 506.572 89.8174 505.842 89.6569 505.215C89.4818 504.558 89.3213 503.916 89.1608 503.274L88.2562 499.685C87.8039 497.963 87.3807 496.256 86.9576 494.607C86.7825 493.892 86.5928 493.148 86.4177 492.462C86.1162 491.305 85.8244 490.181 85.5423 489.092C85.3526 488.347 85.1775 487.633 85.0024 486.932C84.2583 484.014 83.5433 481.3 82.9305 478.761C82.7408 478.09 82.5949 477.433 82.4052 476.791C82.1426 475.683 81.8653 474.632 81.6173 473.611C81.4422 472.969 81.2817 472.341 81.1358 471.728C80.5667 469.554 80.056 467.57 79.6767 465.819C79.5454 465.367 79.4286 464.914 79.3119 464.477C79.0347 463.324 78.7575 462.303 78.5386 461.383C78.4364 461.019 78.3635 460.668 78.2614 460.347C78.1592 460.026 78.0863 459.647 77.9987 459.341C77.9112 459.034 77.8966 458.888 77.8382 458.699C77.7799 458.509 77.6777 458.086 77.6194 457.838C77.5978 457.708 77.5636 457.581 77.5172 457.458C77.3275 456.7 77.24 456.32 77.24 456.32H200.213C200.213 456.32 204.254 470.269 210.747 492.798C212.061 497.379 213.476 502.326 215.008 507.578C219.342 522.651 224.361 540.16 229.774 559.128Z" fill="#37474F"/>
<path d="M124.121 559.134H120.969C116.3 539.776 111.772 520.385 107.385 500.959C106.32 496.246 105.284 491.519 104.248 486.777C104.146 486.325 104.044 485.901 103.956 485.449C103.956 485.216 104.262 485.114 104.321 485.347L104.452 485.785C105.882 490.862 107.297 495.95 108.698 501.047C114.029 520.356 119.17 539.718 124.121 559.134Z" fill="#263238"/>
<path d="M196.244 456.409L190.831 483.577L186.366 505.857L178.793 543.794L178.02 547.675L176.721 554.168L175.744 559.085H103.431L100.381 547.077C99.2286 542.539 98.0905 538.118 97.0108 533.814C96.7627 532.851 96.5147 531.888 96.2666 530.896C95.4349 527.598 94.6178 524.373 93.8153 521.251C93.3338 519.354 92.8523 517.472 92.3562 515.619C91.8602 513.766 91.3932 511.869 90.8971 510.06C90.7658 509.578 90.6637 509.097 90.5324 508.601C90.4011 508.104 90.2697 507.55 90.1384 507.039C90.0071 506.529 89.8174 505.799 89.6569 505.172C89.4818 504.515 89.3213 503.873 89.1608 503.231L88.2562 499.642C87.8039 497.92 87.3807 496.213 86.9576 494.564C86.7679 493.835 86.5928 493.105 86.4177 492.419C86.1162 491.262 85.8244 490.138 85.5423 489.049C85.3526 488.305 85.1775 487.59 85.0024 486.889C84.2583 483.971 83.5433 481.257 82.9305 478.718C82.7408 478.047 82.5949 477.39 82.4052 476.748C82.1426 475.64 81.8653 474.589 81.6173 473.568C81.4422 472.926 81.2817 472.298 81.1358 471.685C80.5667 469.511 80.056 467.527 79.6767 465.776C79.5454 465.324 79.4286 464.871 79.3119 464.434C79.0347 463.281 78.7575 462.26 78.5386 461.34C78.4364 460.976 78.3635 460.625 78.2614 460.304C78.1592 459.983 78.0863 459.604 77.9987 459.298C77.9112 458.991 77.8966 458.845 77.8382 458.656C77.7799 458.466 77.6777 458.043 77.6194 457.795C77.5978 457.665 77.5636 457.538 77.5172 457.415C77.3275 456.657 77.24 456.277 77.24 456.277L196.244 456.409Z" fill="#263238"/>
<path d="M196.273 456.352C196.273 457.023 195.748 464.347 194.566 475.539C194.23 478.807 193.836 482.396 193.369 486.234C192.655 492.304 191.75 499.001 190.641 506.078C188.759 518.422 186.264 531.874 183.097 545.036C181.959 549.778 180.705 554.476 179.377 559.072H20.6415C22.5091 534.88 24.2309 512.994 25.5878 495.747C27.4846 471.482 28.7103 456.352 28.7103 456.352H172.694H196.273Z" fill="#37474F"/>
<path d="M195.938 470.942C195.748 476.617 195.515 482.293 195.15 487.94C194.756 494.068 194.201 500.196 193.399 506.31C193.399 506.529 193.399 506.762 193.399 506.981C192.64 512.716 191.794 518.421 190.816 524.126C189.897 529.437 189.226 535.171 186.877 540.088C185.991 541.989 184.73 543.691 183.171 545.093C181.74 546.402 179.988 547.308 178.093 547.719C177.782 547.802 177.465 547.856 177.144 547.88H176.867C176.924 547.914 176.971 547.964 177.002 548.023C177.033 548.082 177.047 548.149 177.042 548.215C177.042 550.127 177.042 552.067 176.823 553.95C176.823 554.037 176.823 554.11 176.823 554.198C176.634 555.846 176.327 557.481 176.021 559.115H173.292C173.296 559.081 173.296 559.047 173.292 559.013C173.774 557.218 174.168 555.409 174.62 553.599C175.073 551.79 175.7 549.952 176.079 548.084C176.088 548.047 176.104 548.013 176.127 547.983C176.15 547.953 176.178 547.928 176.211 547.909C174.481 547.99 172.769 547.54 171.303 546.62C169.837 545.699 168.688 544.351 168.01 542.758C167.325 540.326 167.28 537.757 167.879 535.302C168.375 532.049 168.857 528.809 169.338 525.556C170.272 519.573 171.469 513.678 172.519 507.74L173.001 505.026C175.131 492.945 177.378 480.849 180.033 468.884C180.136 468.373 180.238 467.877 180.354 467.425C180.471 466.973 180.967 467.192 180.938 467.513C180.851 468.315 180.778 469.132 180.675 469.935C180.209 474.531 179.669 479.098 179.027 483.665C178.253 489.034 177.728 494.418 176.969 499.788C176.721 501.612 176.459 503.436 176.196 505.259C174.956 514.087 173.672 522.9 172.169 531.698C171.469 535.784 168.93 543.094 174.795 544.363C176.141 544.658 177.547 544.483 178.779 543.867C181.376 542.303 183.32 539.852 184.25 536.966C185.684 532.16 186.728 527.246 187.373 522.273C188.345 516.893 189.197 511.504 189.926 506.106C190.889 499.365 191.881 492.653 192.932 485.926L194.551 475.64C194.814 474.064 195.062 472.474 195.325 470.883C195.398 470.504 195.938 470.606 195.938 470.942Z" fill="#263238"/>
<path d="M55.4118 513.145C62.0218 513.075 68.5982 512.193 74.9929 510.518C77.9111 509.759 80.8293 508.811 83.7475 507.863C86.6128 507.068 89.2947 505.72 91.6412 503.894C96.0185 500.056 98.1634 494.016 100.104 488.646C102.222 482.589 103.937 476.399 105.24 470.116C105.24 469.809 105.751 469.912 105.765 470.203C105.923 477.306 105.023 484.392 103.095 491.229C101.505 497.065 99.3599 503.515 94.6616 507.585C89.7298 511.861 82.9888 513.422 76.7147 514.151C69.6209 514.976 62.4498 514.873 55.3827 513.845C55.3367 513.843 55.2915 513.832 55.2497 513.813C55.208 513.793 55.1705 513.766 55.1393 513.732C55.1081 513.698 55.084 513.659 55.0681 513.615C55.0523 513.572 55.0451 513.526 55.0471 513.48C55.049 513.434 55.0599 513.389 55.0793 513.347C55.0987 513.306 55.1261 513.268 55.1599 513.237C55.1938 513.206 55.2335 513.182 55.2767 513.166C55.3199 513.15 55.3658 513.143 55.4118 513.145Z" fill="#263238"/>
<path d="M44.454 470.302C44.1038 479.183 43.7342 488.074 43.3451 496.974C42.421 517.693 41.4191 538.413 40.3393 559.132H37.4211C38.7927 538.354 40.2518 517.606 41.7984 496.887C42.3821 488.015 43.0289 479.154 43.739 470.302C43.739 469.791 44.4832 469.82 44.454 470.302Z" fill="#263238"/>
<path d="M171.731 273.455C193.515 299.836 271.358 396.968 260.4 424.02C249.297 451.422 223.31 470.259 209.784 451.174C198.622 435.43 156.6 326.45 150.589 298.304C144.869 271.515 150.253 247.527 171.731 273.455Z" fill="#D3766A"/>
<path d="M165.472 368.41L246.408 352.36C246.408 352.36 189.43 281.725 166.814 265.675C141.353 247.625 137.632 264.595 142.418 293.879C147.204 323.163 165.472 368.41 165.472 368.41Z" fill="#5375E2"/>
<path d="M246.408 352.316L165.472 368.366C165.472 368.366 147.145 323.134 142.418 293.791C137.69 264.449 141.353 247.538 166.814 265.587C168.098 266.506 169.499 267.601 171.002 268.841L172.84 270.402C181.055 277.537 191.662 288.655 202.256 300.401L202.839 301.043C211.185 310.338 219.517 320.011 226.622 328.387L229.541 331.932C239.535 343.795 246.408 352.316 246.408 352.316Z" fill="#5375E2"/>
<path d="M189.284 344.614C188.356 346.949 187.771 349.407 187.548 351.91C189.022 349.9 190.211 347.695 191.079 345.358C192.006 343.047 192.596 340.615 192.83 338.136C191.35 340.118 190.157 342.299 189.284 344.614ZM159.081 309.158C156.747 308.224 154.289 307.634 151.785 307.407C153.777 308.897 155.974 310.091 158.307 310.953C160.643 311.884 163.1 312.474 165.603 312.704C163.611 311.214 161.414 310.02 159.081 309.158ZM174.679 273.965C174.135 272.77 173.526 271.606 172.855 270.477L171.002 268.945C171.44 270.952 172.086 272.908 172.928 274.782C173.897 277.076 175.2 279.215 176.794 281.129C176.437 278.651 175.724 276.239 174.679 273.965ZM230.285 333.394C230.066 332.927 229.847 332.46 229.614 332.008L226.695 328.462C227.112 330.43 227.738 332.347 228.563 334.182C229.549 336.471 230.856 338.608 232.444 340.529C232.071 338.059 231.343 335.656 230.285 333.394ZM202.27 300.476C201.862 300.768 201.453 301.089 201.059 301.425C201.662 301.354 202.261 301.251 202.854 301.118L202.27 300.476Z" fill="white"/>
<path d="M232.167 340.211C229.249 340.328 203.977 344.953 198.506 346.047C193.034 347.142 170.593 351.548 165.034 353.182C164.991 353.194 164.953 353.22 164.926 353.255C164.898 353.291 164.884 353.335 164.884 353.379C164.884 353.424 164.898 353.468 164.926 353.503C164.953 353.539 164.991 353.564 165.034 353.576C170.783 353.022 193.413 348.674 199.016 347.652C204.619 346.631 229.555 341.495 232.211 340.547C232.503 340.444 232.371 340.211 232.167 340.211Z" fill="#263238"/>
<path d="M212.119 359.131L165.428 368.396C165.428 368.396 147.102 323.164 142.374 293.836C138.887 272.227 139.967 257.359 150.997 258.249L212.119 359.131Z" fill="#263238"/>
<path d="M221.749 501.761L16.4102 512.617C16.4102 512.617 33.8026 337.657 109.792 263.257C119.174 254.065 144.125 249.819 156.878 259.77C163.677 265.081 176.006 288.835 182.543 313.085C189.08 337.336 222.303 500.944 221.749 501.761Z" fill="#5375E2"/>
<path d="M132.919 279.611C132.004 281.925 131.42 284.356 131.183 286.834C132.673 284.836 133.867 282.635 134.728 280.297C135.649 277.984 136.239 275.552 136.479 273.074C134.993 275.076 133.795 277.276 132.919 279.611ZM109.296 373.256C108.356 375.588 107.766 378.047 107.545 380.551C110.48 376.506 112.301 371.762 112.827 366.792C111.355 368.772 110.167 370.947 109.296 373.256ZM94.2821 472.606C93.356 474.912 92.7663 477.34 92.5312 479.814C95.4655 475.769 97.2868 471.024 97.8131 466.055C96.3297 468.059 95.1407 470.265 94.2821 472.606ZM189.547 343.972L189.284 344.614C188.355 346.949 187.771 349.406 187.548 351.909C188.627 350.482 189.538 348.935 190.262 347.299C190.013 346.117 189.78 345.037 189.547 343.972ZM150.603 462.319C149.666 464.653 149.071 467.11 148.838 469.615C150.332 467.623 151.531 465.427 152.398 463.093C153.314 460.779 153.899 458.347 154.134 455.87C152.663 457.845 151.475 460.016 150.603 462.319ZM67.3617 336.983C66.4371 339.294 65.8523 341.726 65.6254 344.205C67.1062 342.205 68.2951 340.004 69.1564 337.668C70.0909 335.334 70.6807 332.877 70.9073 330.373C69.411 332.393 68.2166 334.619 67.3617 336.983ZM159.081 309.158C156.747 308.223 154.289 307.633 151.785 307.407C153.777 308.897 155.974 310.091 158.307 310.952C160.642 311.884 163.099 312.473 165.603 312.703C163.611 311.214 161.414 310.019 159.081 309.158ZM179.61 387.409C177.303 386.49 174.875 385.905 172.402 385.673C174.391 387.164 176.589 388.353 178.924 389.204C181.237 390.129 183.668 390.724 186.147 390.969C184.152 389.472 181.95 388.272 179.61 387.409ZM190.364 480.514C188.03 479.58 185.572 478.99 183.068 478.763C187.11 481.697 191.848 483.523 196.813 484.06C194.84 482.581 192.669 481.387 190.364 480.514ZM36.6915 475.422C34.3575 474.487 31.8999 473.898 29.396 473.671C33.4443 476.602 38.1865 478.428 43.1553 478.968C41.1788 477.486 39.0026 476.293 36.6915 475.422ZM91.4076 412.885C89.0749 411.944 86.6171 411.349 84.1122 411.119C86.1087 412.614 88.3103 413.813 90.6489 414.68C92.9858 415.603 95.4424 416.187 97.9444 416.416C95.9438 414.935 93.7429 413.746 91.4076 412.885ZM111.062 324.245C110.076 321.956 108.769 319.818 107.18 317.898C107.964 322.835 110.032 327.48 113.177 331.365C112.808 328.904 112.096 326.508 111.062 324.245ZM146.562 403.036C145.576 400.75 144.274 398.613 142.695 396.689C143.055 399.152 143.768 401.55 144.811 403.809C145.792 406.098 147.094 408.235 148.677 410.156C148.314 407.69 147.602 405.287 146.562 403.021V403.036ZM62.9698 445.861C61.9865 443.575 60.6794 441.442 59.0886 439.528C59.4575 441.989 60.1697 444.386 61.2043 446.649C62.1844 448.936 63.4918 451.069 65.0855 452.981C64.7249 450.514 64.0124 448.111 62.9698 445.846V445.861ZM76.8604 508.237C75.8804 505.948 74.5784 503.811 72.9938 501.89C73.3449 504.355 74.0578 506.754 75.1095 509.01C75.1971 509.215 75.2992 509.404 75.3868 509.609L77.3857 509.506L76.8604 508.237ZM185.738 433.269C183.449 434.241 181.311 435.539 179.391 437.121C184.324 436.34 188.967 434.283 192.859 431.153C190.396 431.474 187.996 432.162 185.738 433.196V433.269ZM125.011 496.564C122.722 497.546 120.585 498.848 118.664 500.431C121.125 500.067 123.523 499.354 125.784 498.315C128.076 497.335 130.214 496.028 132.131 494.434C129.666 494.792 127.267 495.51 125.011 496.564ZM25.792 511.009C24.9166 511.418 24.0411 511.841 23.1948 512.308L28.0244 512.06C29.7841 511.215 31.427 510.146 32.9124 508.879C30.435 509.244 28.0225 509.961 25.7482 511.009H25.792ZM63.9183 377.925C61.6316 378.91 59.4949 380.211 57.5712 381.792C62.5083 381.001 67.1546 378.94 71.0532 375.809C68.5709 376.165 66.1531 376.878 63.8745 377.925H63.9183ZM119.729 439.908C117.441 440.896 115.304 442.203 113.382 443.789C115.851 443.435 118.254 442.723 120.517 441.673C122.807 440.689 124.944 439.382 126.864 437.792C124.383 438.155 121.966 438.867 119.685 439.908H119.729ZM144.533 344.38C142.245 345.362 140.108 346.664 138.186 348.247C143.123 347.457 147.77 345.395 151.668 342.265C149.161 342.614 146.718 343.326 144.417 344.38H144.533ZM89.5984 288.57C89.0877 288.803 88.5916 289.037 88.1393 289.299C87.5702 290.116 87.0012 290.948 86.4467 291.78C87.8034 291.376 89.1338 290.889 90.4301 290.321C92.7156 289.334 94.8519 288.032 96.7771 286.454C94.2749 286.805 91.837 287.517 89.54 288.57H89.5984Z" fill="white"/>
<path d="M82.1425 288.377C24.4352 356.386 -15.0042 463.863 5.4815 479.65C28.7249 497.582 114.593 512.334 148.707 515.296C159.285 516.215 160.89 428.567 149.538 428.83C135.779 429.151 84.3312 418.704 82.9596 418.689C80.0414 418.689 108.041 329.684 116.139 294.841C127.418 246.267 103.81 262.843 82.1425 288.377Z" fill="#D3766A"/>
<path d="M261.29 442.575C263.742 451.33 255.848 456.495 255.848 456.495C259.19 459.551 261.358 463.681 261.976 468.168C262.691 476.134 250.508 480.745 250.508 480.745C253.313 484.648 254.879 489.305 255.002 494.11C254.914 501.8 243.329 508.205 243.329 508.205C243.93 513.212 242.707 518.267 239.886 522.446C231.89 533.316 211.346 531.77 198.287 530.909C185.228 530.048 145.467 513.779 138.274 511.678L146.474 429.443C146.474 429.443 206.151 416.603 221.37 419.784C234.195 422.498 258.533 432.77 261.29 442.575Z" fill="#D3766A"/>
<path d="M255.6 456.13C242.658 450.017 228.607 448.047 214.745 445.289C214.439 445.289 214.351 445.727 214.658 445.785C228.534 448.353 241.71 453.65 255.513 456.787C255.584 456.772 255.649 456.736 255.699 456.683C255.749 456.63 255.781 456.562 255.791 456.49C255.8 456.417 255.787 456.344 255.753 456.279C255.719 456.215 255.665 456.163 255.6 456.13Z" fill="#263238"/>
<path d="M250.303 479.702C247.215 478.582 243.991 477.876 240.717 477.601C237.288 477.105 233.859 476.652 230.416 476.273C223.529 475.485 216.627 474.877 209.711 474.449C209.405 474.449 209.303 474.902 209.624 474.931C216.482 475.719 223.339 476.609 230.153 477.688C233.568 478.233 236.972 478.797 240.367 479.381C243.542 480.144 246.791 480.555 250.055 480.607C250.158 480.6 250.257 480.561 250.337 480.496C250.417 480.431 250.475 480.342 250.502 480.243C250.529 480.143 250.525 480.038 250.489 479.941C250.454 479.844 250.389 479.76 250.303 479.702Z" fill="#263238"/>
<path d="M242.993 508.237C240.455 506.997 237.069 507.084 234.312 506.778C231.16 506.486 228.023 506.18 224.871 505.859C218.597 505.217 212.323 504.56 206.064 503.699C205.757 503.699 205.655 504.137 205.976 504.181C212.323 505.085 218.656 506.092 225.017 506.938C228.14 507.366 231.262 507.77 234.385 508.149C237.055 508.485 240.338 509.2 242.979 508.514C243.001 508.499 243.019 508.479 243.032 508.455C243.045 508.432 243.053 508.406 243.054 508.379C243.056 508.352 243.051 508.326 243.04 508.301C243.03 508.276 243.014 508.254 242.993 508.237Z" fill="#263238"/>
<path d="M102.57 373.331L20.8605 361.439C20.8605 361.439 74.1175 287.959 95.8727 270.771C120.356 251.423 124.894 268.174 121.699 297.662C118.503 327.15 102.57 373.331 102.57 373.331Z" fill="#5375E2"/>
<path d="M89.5401 288.569C87.2284 289.54 85.0706 290.842 83.1347 292.435C88.0717 291.645 92.7181 289.584 96.6167 286.453C94.1693 286.819 91.7865 287.531 89.5401 288.569ZM111.062 324.244C110.076 321.955 108.769 319.817 107.181 317.897C107.964 322.834 110.032 327.479 113.177 331.364C112.809 328.903 112.096 326.507 111.062 324.244ZM30.2278 348.815C29.8338 349.355 29.4399 349.895 29.0459 350.405H29.148C31.4836 351.338 33.9401 351.932 36.4435 352.171C34.5384 350.768 32.4462 349.638 30.2278 348.815ZM67.3618 336.982C66.4372 339.293 65.8524 341.725 65.6255 344.204C67.1063 342.204 68.2952 340.003 69.1565 337.667C70.091 335.333 70.6808 332.876 70.9074 330.372C69.4111 332.392 68.2167 334.618 67.3618 336.982Z" fill="white"/>
<path d="M34.5175 348.016C37.4357 348.016 62.9115 351.299 68.4269 352.145C73.9423 352.991 96.5875 356.187 102.234 357.529C102.288 357.529 102.34 357.55 102.379 357.589C102.417 357.627 102.438 357.679 102.438 357.733C102.438 357.787 102.417 357.839 102.379 357.878C102.34 357.916 102.288 357.937 102.234 357.937C96.4708 357.675 73.6359 354.509 67.9892 353.764C62.3425 353.02 37.1731 349.198 34.43 348.395C34.1965 348.322 34.3132 348.016 34.5175 348.016Z" fill="#263238"/>
<path d="M96.1062 371.754C98.5866 371.929 102.453 372.352 102.453 372.352C104.89 361.088 108.538 349.984 111.47 338.793C114.403 327.601 117.788 316.22 120.911 304.912C120.92 304.877 120.944 304.848 120.975 304.83C121.007 304.812 121.044 304.808 121.079 304.817C121.113 304.827 121.143 304.85 121.161 304.882C121.179 304.913 121.183 304.95 121.173 304.985C119.812 311.493 118.421 317.986 117 324.464L117.963 322.13C119.102 319.372 120.313 316.643 121.363 313.842C121.377 313.792 121.41 313.749 121.455 313.723C121.5 313.697 121.554 313.69 121.604 313.703C121.654 313.717 121.697 313.75 121.723 313.795C121.749 313.84 121.756 313.894 121.743 313.944C120.946 316.856 119.972 319.717 118.824 322.509C117.993 324.464 117.03 326.346 116.052 328.229C115.206 331.935 114.374 335.656 113.426 339.347C110.507 350.684 108.173 363.481 104.408 374.555C104.408 374.555 98.7034 373.227 95.9019 372.25C95.8529 372.213 95.8175 372.161 95.8013 372.101C95.7851 372.042 95.789 371.979 95.8124 371.923C95.8357 371.866 95.8772 371.819 95.9304 371.788C95.9836 371.757 96.0454 371.745 96.1062 371.754Z" fill="#263238"/>
<path d="M156.673 294.876C145.642 298.626 124.573 283.203 115.585 269.969C114.987 269.05 115.483 258.807 115.497 246.317C115.497 238.744 115.293 230.267 114.549 222.621C114.388 221.045 163.881 229.712 163.881 229.712C163.881 229.712 160.686 246.273 162.043 259.668C162.159 260.726 162.374 261.772 162.685 262.79C162.685 262.921 162.772 263.097 162.801 263.301C164.348 269.196 167.354 291.243 156.673 294.876Z" fill="#D3766A"/>
<path d="M157.87 264.031C159.526 263.928 161.171 263.684 162.787 263.302C162.76 263.124 162.721 262.949 162.67 262.777C162.369 261.756 162.159 260.712 162.043 259.654C160.686 246.274 163.867 229.713 163.867 229.713C163.867 229.713 123.712 222.666 115.862 222.418C118.153 231.173 129.388 266.133 157.87 264.031Z" fill="#263238"/>
<path d="M100.906 162.521C97.0398 180.03 109.997 228.779 123.041 238.847C142.009 253.438 170.972 252.664 182.864 230.384C194.405 208.775 176.4 145.566 161.999 136.622C140.813 123.461 106.626 136.637 100.906 162.521Z" fill="#D3766A"/>
<path d="M186.351 203.039H186.234C187.183 215.31 185.286 227.654 177.261 237.386C175.27 239.901 172.837 242.032 170.082 243.675C170.061 243.696 170.048 243.723 170.044 243.752C170.04 243.781 170.047 243.811 170.062 243.836C170.077 243.861 170.1 243.881 170.128 243.891C170.155 243.902 170.185 243.903 170.214 243.894C172.709 242.536 175.027 240.875 177.115 238.947C179.173 236.952 180.942 234.678 182.368 232.192C185.582 226.676 187.349 220.437 187.504 214.055C187.491 210.354 187.104 206.663 186.351 203.039Z" fill="#263238"/>
<path d="M151.858 189.049C151.858 188.917 151.639 189.267 151.683 189.399C152.573 192.652 153.142 196.548 150.355 198.358C150.268 198.358 150.355 198.576 150.428 198.533C153.93 197.146 153.245 191.981 151.858 189.049Z" fill="#263238"/>
<path d="M148.094 186.318C142.695 187.208 144.869 197.918 149.859 197.087C154.849 196.255 152.602 185.574 148.094 186.318Z" fill="#263238"/>
<path d="M170.943 184.898C170.943 184.767 171.235 185 171.264 185.132C171.804 188.473 172.986 192.208 176.211 192.719C176.313 192.719 176.327 192.909 176.211 192.923C172.446 193.069 170.929 188.137 170.943 184.898Z" fill="#263238"/>
<path d="M173.234 180.848C178.487 179.389 181.011 190.026 176.152 191.368C171.293 192.711 168.828 182.059 173.234 180.848Z" fill="#263238"/>
<path d="M151.099 180.89C149.849 181.708 148.559 182.463 147.233 183.151C145.981 184.13 144.444 184.673 142.856 184.698C142.352 184.606 141.893 184.35 141.55 183.97C141.206 183.59 140.999 183.107 140.959 182.597C140.959 180.408 142.418 178.92 144.256 177.826C145.991 176.659 148.097 176.18 150.166 176.483C150.632 176.583 151.059 176.815 151.395 177.153C151.732 177.49 151.964 177.917 152.063 178.383C152.161 178.85 152.123 179.334 151.952 179.779C151.781 180.224 151.485 180.61 151.099 180.89Z" fill="#263238"/>
<path d="M175.744 170.895C174.247 170.893 172.752 170.81 171.264 170.647C169.674 170.777 168.085 170.382 166.741 169.523C166.384 169.179 166.149 168.728 166.07 168.239C165.991 167.75 166.073 167.248 166.303 166.809C167.456 164.956 169.601 164.577 171.673 164.62C173.763 164.604 175.785 165.363 177.349 166.751C177.66 167.092 177.871 167.513 177.956 167.967C178.041 168.421 177.998 168.89 177.831 169.32C177.664 169.751 177.38 170.127 177.012 170.405C176.643 170.683 176.204 170.853 175.744 170.895Z" fill="#263238"/>
<path d="M156.703 215.513C160.555 212.974 166.055 212.376 169.557 212.084C169.937 211.952 170.126 211.135 170.112 210.756C170.112 210.639 168.448 203.811 168.448 203.811C169.455 204.073 174.591 205.27 174.285 203.898C171.366 193.145 168.098 181.18 162.904 171.098C162.877 171.02 162.82 170.957 162.746 170.921C162.672 170.886 162.587 170.881 162.51 170.908C162.432 170.935 162.369 170.992 162.333 171.066C162.298 171.14 162.293 171.225 162.32 171.302C164.742 181.764 168.959 191.729 171.556 202.176C169.722 201.743 167.835 201.575 165.953 201.68C165.618 201.855 168.113 208.976 168.229 210.099C168.229 210.099 161.124 209.501 156.396 214.112C155.112 215.279 154.864 216.724 156.703 215.513Z" fill="#263238"/>
<path d="M150.122 224.721C151.07 225.304 152.091 226.18 153.303 226.048C154.517 225.762 155.656 225.22 156.644 224.458C156.665 224.442 156.691 224.433 156.717 224.434C156.744 224.434 156.77 224.444 156.79 224.461C156.81 224.478 156.824 224.501 156.83 224.527C156.835 224.553 156.831 224.58 156.819 224.604C156.487 225.347 155.96 225.987 155.295 226.457C154.63 226.927 153.851 227.209 153.04 227.274C152.335 227.242 151.655 227.001 151.087 226.583C150.518 226.165 150.086 225.588 149.844 224.925C149.757 224.75 149.99 224.633 150.122 224.721Z" fill="#263238"/>
<path d="M163.633 210.418C160.525 211.031 150.662 215.029 153.113 219.61C154.178 221.624 157.49 220.427 160.029 217.495C161.657 215.378 162.879 212.979 163.633 210.418Z" fill="#263238"/>
<path d="M158.76 218.797C156.513 220.737 154.003 221.292 153.098 219.614C152.804 219.052 152.682 218.417 152.746 217.786C152.811 217.155 153.061 216.558 153.463 216.068C155.36 215.747 159.402 215.426 158.76 218.797Z" fill="#FF9ABB"/>
<path d="M176.094 153.121C161.226 169.434 132.657 156.754 132.657 156.754C132.058 160.977 130.111 164.894 127.106 167.92C124.101 170.947 120.198 172.921 115.979 173.549C115.979 173.549 119.539 204.379 111.602 206.174C99.5205 208.932 86.1843 168.894 88.0957 159.964C90.0072 151.035 99.7685 146.57 99.7685 146.57C99.7685 146.57 99.0536 140.164 105.167 132.723C111.908 124.479 142.316 126.288 142.316 126.288C143.042 122.11 144.741 118.161 147.277 114.762C147.88 113.921 148.648 113.213 149.533 112.678C150.419 112.143 151.403 111.793 152.428 111.65C153.452 111.507 154.495 111.573 155.493 111.844C156.491 112.116 157.424 112.587 158.235 113.229C157.244 115.797 156.849 118.556 157.082 121.298C157.724 130.418 164.903 128.725 162.918 120.773C162.301 117.772 160.623 115.094 158.191 113.229C160.511 107.189 165.895 104.125 170.053 106.095C177.655 109.655 188.467 139.566 176.094 153.121Z" fill="#263238"/>
<path d="M114.841 203.025C114.841 203.025 100.819 189.382 94.4136 194.679C88.0081 199.975 100.673 221.22 109.661 222.737C110.8 223.002 111.981 223.037 113.134 222.839C114.286 222.64 115.387 222.213 116.372 221.582C117.357 220.951 118.205 220.129 118.867 219.164C119.529 218.2 119.99 217.113 120.225 215.967L114.841 203.025Z" fill="#D3766A"/>
<path d="M98.1925 200.675C98.0611 200.675 98.0757 200.88 98.1925 200.909C104.54 202.164 108.683 207.037 111.923 212.275C109.763 210.422 107.151 209.693 104.627 212.275C104.496 212.407 104.627 212.625 104.846 212.552C105.817 212.025 106.928 211.812 108.026 211.942C109.124 212.073 110.154 212.541 110.974 213.282C112.339 214.529 113.566 215.919 114.636 217.426C115.016 217.907 115.906 217.426 115.599 216.871C115.57 216.831 115.545 216.787 115.527 216.74C114.228 209.269 106.393 199.888 98.1925 200.675Z" fill="#263238"/>
<path d="M109.471 273.834C115.797 283.79 124.607 291.927 135.035 297.442C140.092 300.247 145.756 301.78 151.537 301.907C154.556 302.002 157.533 301.178 160.073 299.543C162.396 297.666 164.191 295.217 165.282 292.437C166.609 289.304 167.455 285.989 167.792 282.603C168.227 278.792 168.393 274.954 168.288 271.12C168.288 270.974 168.507 270.988 168.507 271.12C168.609 274.753 169.017 278.415 168.857 282.005C168.785 285.211 168.295 288.395 167.398 291.474C166.523 294.411 165.031 297.128 163.02 299.441C160.867 301.735 157.974 303.197 154.849 303.57C148.743 304.278 142.563 303.193 137.063 300.448C131.545 297.891 126.46 294.489 121.99 290.365C116.867 285.635 112.549 280.1 109.209 273.979C109.034 273.775 109.398 273.629 109.471 273.834Z" fill="#263238"/>
<path d="M211.36 447.535C222.201 468.605 250.493 453.255 256.592 437.891C271.023 401.807 275.458 325.934 271.519 291.018C270.249 279.783 198.462 290.23 195.762 302.005C192.99 314.334 189.372 404.769 211.36 447.535Z" fill="#D3766A"/>
<path d="M270.906 296.376C270.906 296.376 273.824 273.629 275.531 253.625C276.465 242.463 274.072 219.701 270.994 211.194C266.412 198.456 239.112 148.117 226.768 154.479C215.592 160.228 244.54 200.499 244.54 200.499C244.54 200.499 218.918 157.281 206.735 166.692C194.552 176.103 233.305 217.235 233.305 217.235C233.305 217.235 205.991 173.462 194.96 185.135C186.629 193.962 219.633 233.285 219.633 233.285C219.633 233.285 195.894 195.786 186.92 204.497C177.028 214.127 205.203 252.268 205.203 252.268C186.235 278.24 182.339 294.479 197.484 310.033C199.936 312.441 270.906 296.376 270.906 296.376Z" fill="#D3766A"/>
<path d="M254.345 214.87C251.529 209.69 248.699 204.423 245.43 199.506C242.162 194.588 238.704 189.788 234.983 185.192C225.849 173.942 218.379 168.325 218.802 168.719C228.826 178.115 240.834 195.537 244.102 200.454C247.371 205.371 250.887 210.099 254.17 215.045C254.258 215.133 254.418 214.957 254.345 214.87Z" fill="#263238"/>
<path d="M236.822 227.024C232.926 220.561 229.293 214.009 225.149 207.706C221.005 201.403 216.496 195.873 211.915 189.905C211.565 189.453 211.433 189.788 211.769 190.27C216.146 196.398 219.648 202.409 223.909 208.596C228.169 214.782 232.663 220.809 236.719 227.126C236.734 227.229 236.88 227.126 236.822 227.024Z" fill="#263238"/>
<path d="M223.646 240.155C217.929 229.886 211.187 220.221 203.525 211.309C203.16 210.871 203.043 211.309 203.393 211.805C210.266 221.041 215.679 228.92 223.296 240.359C223.412 240.535 223.763 240.374 223.646 240.155Z" fill="#263238"/>
<path d="M205.392 178.818C204.64 176.728 204.221 174.531 204.152 172.311C204.21 170.272 204.985 168.319 206.341 166.795C206.428 166.693 206.589 166.795 206.487 166.941C204.75 168.4 204.721 171.231 205.028 173.288C205.381 175.301 205.913 177.279 206.618 179.198C207.341 181.197 208.194 183.146 209.172 185.034C210.095 186.916 211.118 188.747 212.236 190.52C212.246 190.535 212.252 190.553 212.252 190.571C212.252 190.59 212.246 190.607 212.236 190.622C212.226 190.632 212.215 190.64 212.202 190.645C212.19 190.65 212.176 190.653 212.163 190.653C212.149 190.653 212.136 190.65 212.123 190.645C212.111 190.64 212.099 190.632 212.09 190.622C209.993 188.141 207.378 186.149 204.429 184.786C203.088 184.043 201.586 183.637 200.052 183.604C198.634 183.69 197.296 184.29 196.288 185.292C195.281 186.294 194.674 187.629 194.581 189.046C194.592 190.47 194.864 191.879 195.383 193.205C196.391 196.283 197.57 199.304 198.914 202.251C199.658 203.885 200.373 205.49 201.292 207.066C202.212 208.642 203.131 210.16 203.875 211.779C203.875 211.881 203.554 211.969 203.481 211.91C202.489 211.079 195.514 204.323 191.327 203.973C190.254 203.825 189.162 204.017 188.204 204.523C187.246 205.028 186.471 205.82 185.986 206.789C185.013 208.886 184.762 211.246 185.272 213.501C186.14 217.375 187.296 221.179 188.73 224.882C188.73 224.999 188.584 225.057 188.54 224.882C187.446 222.183 185.067 216.39 184.323 213.574C183.586 211.224 183.715 208.687 184.688 206.424C185.149 205.4 185.872 204.516 186.784 203.86C187.696 203.204 188.765 202.8 189.882 202.689C192.209 202.77 194.447 203.604 196.259 205.067C198.495 206.795 200.624 208.656 202.635 210.641C201.949 209.649 198.958 204.44 198.17 202.849C196.561 199.671 195.186 196.379 194.055 193.001C193.049 190.082 192.786 186.829 195.15 184.392C196.228 183.372 197.593 182.705 199.061 182.481C200.529 182.256 202.03 182.485 203.364 183.137C205.535 184.061 207.514 185.383 209.201 187.033C208.778 186.435 208.369 185.807 208.004 185.165C206.932 183.138 206.057 181.013 205.392 178.818Z" fill="#263238"/>
<path d="M200.694 416.738C202.022 420.619 203.277 424.501 204.721 428.324C206.166 432.146 207.552 435.969 209.098 439.704C210.581 443.399 212.459 446.921 214.701 450.21C214.966 450.596 215.259 450.961 215.577 451.304L216.511 452.238C217.252 452.84 218.037 453.387 218.86 453.872C220.488 454.841 222.254 455.554 224.098 455.988C225.948 456.411 227.851 456.558 229.745 456.426C231.66 456.254 233.547 455.847 235.362 455.215C239.083 453.871 242.569 451.951 245.693 449.524C247.327 448.372 248.815 446.985 250.333 445.687C251.787 444.343 253.075 442.829 254.17 441.178C256.449 437.813 258.196 434.117 259.35 430.22C258.717 434.311 257.379 438.26 255.396 441.893C254.365 443.739 253.116 445.454 251.675 447C250.243 448.526 248.728 449.973 247.137 451.333C243.926 454.105 240.264 456.306 236.311 457.841C234.282 458.599 232.163 459.09 230.007 459.3C227.814 459.475 225.607 459.328 223.456 458.862C221.326 458.334 219.289 457.482 217.415 456.338C216.477 455.771 215.585 455.132 214.745 454.427L213.52 453.201C213.153 452.783 212.817 452.339 212.513 451.873C210.22 448.347 208.377 444.548 207.027 440.565C204.255 432.814 202.137 424.843 200.694 416.738Z" fill="#263238"/>
<path d="M459.596 146.492H444.338V561.29H459.596V146.492Z" fill="#DBDBDB"/>
<path d="M451.967 75.5273L332.082 283.17H571.852L451.967 75.5273Z" fill="#5375E2"/>
<path d="M451.967 105.609L358.143 268.132H545.804L451.967 105.609Z" fill="white"/>
<path d="M442.469 152.633H461.478L460.198 222.7H443.749L442.469 152.633Z" fill="#5375E2"/>
<path d="M460.185 231.484H443.75V247.92H460.185V231.484Z" fill="#5375E2"/>
<path d="M571.852 295.254H332.082V375.472H571.852V295.254Z" fill="#5375E2"/>
<path d="M566.463 370.119H337.471V300.602H566.463V370.119ZM338.751 368.839H565.183V301.882H338.751V368.839Z" fill="white"/>
<path d="M368.754 312.421H373.503L376.498 321.214L379.48 312.421H384.28L379.749 324.504L383.116 333.003L390.642 312.344H396.248L385.432 338.904H381.093L376.498 327.755L371.89 338.904H367.551L356.812 312.344H362.354L369.906 333.003L373.196 324.504L368.754 312.421Z" fill="#263238"/>
<path d="M404.248 312.344H408.818L418.943 338.904H413.631L411.135 332.286H401.855L399.423 338.904H394.111L404.248 312.344ZM410.201 328.651L406.54 318.206L402.7 328.638L410.201 328.651Z" fill="#263238"/>
<path d="M421.836 338.9V312.34H433.586C434.757 312.328 435.915 312.592 436.965 313.108C437.979 313.603 438.888 314.29 439.641 315.131C440.396 315.963 440.995 316.926 441.407 317.972C441.819 318.989 442.032 320.075 442.034 321.172C442.054 322.827 441.611 324.454 440.754 325.87C439.937 327.231 438.709 328.298 437.247 328.916L443.314 338.9H437.516L432.089 330.004H426.969V338.9H421.836ZM426.956 325.473H433.433C433.88 325.465 434.318 325.351 434.713 325.14C435.126 324.909 435.487 324.595 435.775 324.219C436.087 323.804 436.329 323.341 436.492 322.849C436.664 322.307 436.75 321.741 436.748 321.172C436.752 320.583 436.653 319.998 436.453 319.444C436.262 318.95 435.989 318.492 435.647 318.087C435.325 317.711 434.929 317.406 434.482 317.191C434.086 316.988 433.648 316.879 433.202 316.871H426.956V325.473Z" fill="#263238"/>
<path d="M451.877 321.88V338.904H446.757V312.344H450.751L464.562 329.726V312.382H469.682V338.904H465.535L451.877 321.88Z" fill="#263238"/>
<path d="M475.263 338.904V312.344H480.383V338.904H475.263Z" fill="#263238"/>
<path d="M491.122 321.88V338.904H486.002V312.344H489.996L503.807 329.726V312.382H508.927V338.904H504.742L491.122 321.88Z" fill="#263238"/>
<path d="M532.94 335.906C531.991 336.916 530.845 337.72 529.572 338.268C528.299 338.817 526.928 339.097 525.542 339.093C523.842 339.106 522.16 338.748 520.614 338.044C519.102 337.363 517.743 336.384 516.62 335.164C515.457 333.904 514.541 332.436 513.919 330.837C513.248 329.13 512.913 327.309 512.934 325.474C512.907 321.985 514.243 318.623 516.659 316.105C517.821 314.884 519.213 313.905 520.755 313.224C522.363 312.498 524.11 312.132 525.875 312.149C528.111 312.087 530.322 312.631 532.275 313.724C534.003 314.709 535.401 316.183 536.294 317.961L532.454 320.802C531.84 319.532 530.859 318.475 529.638 317.769C528.437 317.071 527.071 316.708 525.683 316.719C524.612 316.71 523.555 316.956 522.598 317.436C521.668 317.903 520.851 318.567 520.204 319.381C519.533 320.234 519.014 321.195 518.668 322.223C518.304 323.321 518.123 324.471 518.131 325.628C518.124 326.819 518.328 328.002 518.732 329.122C519.102 330.157 519.657 331.115 520.371 331.951C521.068 332.739 521.917 333.379 522.867 333.833C523.842 334.297 524.91 334.534 525.99 334.524C527.346 334.48 528.675 334.132 529.878 333.505C531.081 332.878 532.128 331.988 532.94 330.901V329.033H527.59V325.193H537.215V338.85H532.94V335.906Z" fill="#263238"/>
<path d="M542.105 328.914V312.082H547.123V328.914H542.105ZM542.105 338.898V333.253H547.123V338.898H542.105Z" fill="#263238"/>
<path d="M364.223 346.684H366.642L371.992 360.764H369.176L367.896 357.256H362.981L361.701 360.764H358.885L364.223 346.684ZM367.372 355.311L365.439 349.794L363.416 355.324L367.372 355.311Z" fill="white"/>
<path d="M382.655 349.077H378.162V360.738H375.423V349.077H370.93V346.684H382.629L382.655 349.077Z" fill="white"/>
<path d="M394.904 349.077H390.412V360.738H387.698V349.077H383.205V346.684H394.904V349.077Z" fill="white"/>
<path d="M406.399 358.343V360.736H396.645V346.656H406.22V349.05H399.372V352.442H405.298V354.656H399.372V358.317L406.399 358.343Z" fill="white"/>
<path d="M411.263 351.729V360.689H408.524V346.609H410.648L417.97 355.838V346.635H420.697V360.715H418.482L411.263 351.729Z" fill="white"/>
<path d="M434.149 349.077H429.657V360.738H426.943V349.077H422.45V346.684H434.149V349.077Z" fill="white"/>
<path d="M435.89 360.736V346.656H438.629V360.736H435.89Z" fill="white"/>
<path d="M447.551 360.841C446.582 360.851 445.624 360.641 444.748 360.227C443.931 359.844 443.199 359.3 442.597 358.627C441.991 357.963 441.518 357.19 441.202 356.349C440.873 355.508 440.704 354.614 440.703 353.712C440.703 352.79 440.881 351.877 441.228 351.024C441.564 350.181 442.054 349.408 442.674 348.745C443.29 348.079 444.035 347.543 444.863 347.171C445.727 346.778 446.666 346.577 447.615 346.582C448.577 346.576 449.527 346.79 450.393 347.209C451.21 347.61 451.94 348.166 452.543 348.848C453.137 349.523 453.605 350.299 453.925 351.139C454.416 352.407 454.54 353.787 454.285 355.122C454.029 356.457 453.403 357.694 452.479 358.691C451.866 359.353 451.126 359.884 450.303 360.253C449.439 360.645 448.5 360.846 447.551 360.841ZM443.468 353.712C443.472 354.311 443.567 354.907 443.749 355.478C443.925 356.022 444.198 356.53 444.556 356.976C444.906 357.409 445.342 357.767 445.836 358.025C446.378 358.291 446.973 358.429 447.577 358.429C448.18 358.429 448.776 358.291 449.317 358.025C449.817 357.764 450.253 357.397 450.597 356.95C450.949 356.497 451.218 355.986 451.391 355.44C451.569 354.885 451.659 354.307 451.66 353.725C451.658 353.124 451.558 352.527 451.365 351.958C451.185 351.416 450.912 350.91 450.559 350.461C450.21 350.028 449.774 349.675 449.279 349.424C448.739 349.158 448.146 349.02 447.545 349.02C446.943 349.02 446.35 349.158 445.81 349.424C445.311 349.686 444.874 350.052 444.53 350.499C444.185 350.949 443.921 351.456 443.749 351.997C443.568 352.55 443.473 353.129 443.468 353.712Z" fill="white"/>
<path d="M459.25 351.729V360.689H456.511V346.609H458.623L465.945 355.838V346.635H468.671V360.715H466.457L459.25 351.729Z" fill="white"/>
<path d="M476.364 360.736V346.656H482.329C482.95 346.653 483.563 346.794 484.121 347.066C484.652 347.33 485.129 347.69 485.529 348.128C485.924 348.575 486.24 349.086 486.463 349.639C486.678 350.176 486.791 350.749 486.796 351.328C486.798 351.919 486.689 352.505 486.476 353.056C486.279 353.607 485.979 354.115 485.593 354.554C485.205 354.99 484.735 355.347 484.21 355.604C483.652 355.873 483.038 356.009 482.418 356H479.103V360.711L476.364 360.736ZM479.103 353.632H482.265C482.512 353.638 482.756 353.586 482.979 353.479C483.201 353.372 483.395 353.214 483.545 353.018C483.911 352.543 484.093 351.952 484.057 351.354C484.063 351.026 484.007 350.7 483.89 350.394C483.798 350.132 483.66 349.889 483.481 349.677C483.32 349.481 483.113 349.327 482.879 349.229C482.658 349.13 482.418 349.077 482.175 349.075H479.103V353.632Z" fill="white"/>
<path d="M488.703 360.736V346.656H491.43V358.317H498.598V360.711L488.703 360.736Z" fill="white"/>
<path d="M510.015 358.343V360.736H500.262V346.656H509.823V349.05H502.975V352.442H508.889V354.656H502.975V358.317L510.015 358.343Z" fill="white"/>
<path d="M516.146 346.684H518.566L523.903 360.764H521.1L519.82 357.256H514.943L513.663 360.764H510.847L516.146 346.684ZM519.295 355.324L517.35 349.807L515.34 355.324H519.295Z" fill="white"/>
<path d="M533.606 350.368C533.453 350.223 533.286 350.094 533.107 349.984C532.819 349.81 532.52 349.656 532.211 349.523C531.843 349.363 531.461 349.234 531.071 349.139C530.653 349.03 530.223 348.974 529.791 348.973C529.197 348.929 528.605 349.077 528.102 349.395C527.921 349.529 527.777 349.706 527.681 349.909C527.585 350.112 527.541 350.336 527.551 350.56C527.539 350.819 527.611 351.075 527.756 351.29C527.918 351.498 528.123 351.668 528.358 351.789C528.677 351.954 529.011 352.087 529.356 352.186L530.751 352.557C531.443 352.749 532.031 352.941 532.633 353.159C533.146 353.346 533.625 353.614 534.054 353.952C534.434 354.254 534.741 354.64 534.95 355.079C535.179 355.594 535.288 356.154 535.27 356.717C535.288 357.386 535.143 358.05 534.847 358.65C534.576 359.166 534.18 359.605 533.695 359.93C533.19 360.272 532.626 360.519 532.031 360.659C531.384 360.805 530.723 360.878 530.06 360.877C529.001 360.878 527.948 360.719 526.937 360.403C525.95 360.105 525.017 359.651 524.172 359.059L525.375 356.704C525.573 356.878 525.787 357.033 526.015 357.165C526.369 357.381 526.737 357.573 527.116 357.741C527.57 357.945 528.041 358.108 528.524 358.227C529.039 358.36 529.567 358.429 530.099 358.432C531.609 358.432 532.364 357.946 532.364 356.986C532.367 356.704 532.277 356.43 532.108 356.205C531.901 355.973 531.648 355.786 531.366 355.655C531 355.475 530.619 355.329 530.227 355.219L528.716 354.784C528.118 354.627 527.532 354.426 526.963 354.183C526.497 353.998 526.064 353.739 525.683 353.415C525.362 353.128 525.109 352.774 524.94 352.378C524.761 351.935 524.674 351.46 524.684 350.983C524.675 350.33 524.811 349.683 525.081 349.088C525.337 348.546 525.714 348.068 526.182 347.693C526.674 347.32 527.229 347.039 527.82 346.861C528.467 346.662 529.14 346.563 529.817 346.567C530.747 346.561 531.67 346.721 532.543 347.04C533.311 347.316 534.042 347.686 534.719 348.141L533.606 350.368Z" fill="white"/>
<path d="M547.123 358.343V360.736H537.369V346.656H546.943V349.05H540.095V352.442H546.009V354.656H540.095V358.317L547.123 358.343Z" fill="white"/>
<path d="M582.209 93.5117L600 98.6908L579.727 163.896L564.334 159.413L582.209 93.5117Z" fill="#EBEBEB"/>
<path d="M577.321 172.109L561.943 167.633L557.466 183.011L572.844 187.488L577.321 172.109Z" fill="#EBEBEB"/>
<path d="M496.325 0H518.204L516.729 80.6228H497.799L496.325 0Z" fill="#EBEBEB"/>
<path d="M516.729 90.7188H497.811V109.637H516.729V90.7188Z" fill="#EBEBEB"/>
<path d="M345.269 21.0883L359.44 14.3867L383.153 67.0882L370.889 72.8907L345.269 21.0883Z" fill="#EBEBEB"/>
<path d="M386.243 73.6611L373.981 79.4492L379.77 91.7107L392.031 85.9226L386.243 73.6611Z" fill="#EBEBEB"/>
<path d="M346.144 134.922H268.543C268.543 134.922 281.874 109.458 296.332 109.099C310.79 108.739 318.403 128.364 318.403 128.364C318.403 128.364 340.893 110.309 346.144 134.922Z" fill="#EBEBEB"/>
<path d="M1.19885 560.463L65.6274 560.163L130.069 560.067L258.952 559.863L387.835 560.067L452.277 560.163L516.705 560.463L452.277 560.75L387.835 560.858L258.952 561.062L130.069 560.858L65.6274 560.75L1.19885 560.463Z" fill="#263238"/>
<path d="M456.547 455.841H341.673C341.673 455.841 357.402 420.727 374.234 418.521C391.065 416.315 399.11 444.62 399.11 444.62C399.11 444.62 409.899 434.622 418.495 434.622C427.091 434.622 433.625 447.809 433.625 447.809C433.625 447.809 450.696 438.77 456.547 455.841Z" fill="#EBEBEB"/>
<path d="M536.102 479.457H477.143C477.143 479.457 490.33 460.359 500.7 460.359C511.07 460.359 514.128 473.103 514.128 473.103C514.128 473.103 521.464 467.169 528.25 468.224C535.035 469.279 536.102 479.457 536.102 479.457Z" fill="#EBEBEB"/>
<path d="M218.922 113.82L233.321 93.176L240.406 100.393L253.401 84.832L260.822 92.6126L239.758 106.172L234.112 99.1343L218.922 113.82Z" fill="#455A64"/>
<path d="M214.331 125.303L234.196 120.867L234.208 127.209L248.642 128.18L248.786 134.966L229.412 131.465L230.935 125.255L214.331 125.303Z" fill="#455A64"/>
<path d="M207.665 113.82L206.203 94.6981L213.012 95.5253L212.868 79.9402L220.457 79.125L216.153 99.3137L210.099 98.1748L207.665 113.82Z" fill="#455A64"/>
<path d="M8.39199 75.1535C8.38467 83.0385 10.5698 90.7701 14.7033 97.4848C18.8368 104.199 24.7558 109.633 31.7991 113.177C38.8423 116.722 46.7324 118.238 54.5879 117.557C62.4434 116.876 69.9548 114.025 76.283 109.321L97.131 114.644L88.4513 95.2343C91.5037 89.5315 93.2156 83.2077 93.4569 76.7439C93.6982 70.2801 92.4625 63.8463 89.8439 57.9318C87.2253 52.0172 83.2926 46.7776 78.3448 42.6112C73.397 38.4448 67.5644 35.4614 61.2904 33.8877C55.0165 32.3141 48.4663 32.1916 42.1379 33.5297C35.8094 34.8677 29.8694 37.631 24.7694 41.6096C19.6693 45.5881 15.5435 50.6771 12.7056 56.4896C9.86772 62.3021 8.39246 68.6852 8.39199 75.1535Z" fill="white"/>
<path d="M8.39197 75.1542C8.43283 83.0071 10.6353 90.6971 14.7579 97.3809C15.7925 99.0454 16.9254 100.647 18.1506 102.176C19.4259 103.657 20.7869 105.062 22.2267 106.384C22.932 107.058 23.6723 107.694 24.4446 108.29L26.8423 110.041C27.6335 110.616 28.5087 111.06 29.3359 111.587L30.5348 112.331C30.9544 112.57 31.4099 112.762 31.8415 112.978L34.491 114.177L37.2483 115.16C38.1609 115.504 39.0988 115.777 40.0536 115.975C41.0007 116.191 41.9358 116.503 42.8949 116.634C44.8124 116.978 46.751 117.19 48.6974 117.27C50.6386 117.398 52.587 117.37 54.5238 117.186C58.3994 116.824 62.2072 115.932 65.8409 114.536C69.4606 113.12 72.8722 111.22 75.9832 108.89L76.1391 108.77H76.3429L97.2149 113.997L96.6035 114.728L87.8878 95.4148L87.7679 95.163L87.9118 94.9113C90.9138 89.2817 92.5988 83.0442 92.8397 76.6688C93.0806 70.2934 91.8711 63.9465 89.3025 58.1065C86.6917 52.2799 82.837 47.0954 78.0093 42.9171C73.1334 38.7644 67.3716 35.7831 61.1654 34.2014C54.9433 32.5988 48.4394 32.4226 42.1396 33.6859C35.8385 35.0227 29.9157 37.7506 24.8042 41.6703C19.7117 45.6445 15.5884 50.7234 12.7453 56.5238C9.90221 62.3242 8.41366 68.6945 8.39197 75.1542ZM8.39197 75.1542C8.39682 68.687 9.87009 62.3054 12.7007 56.4906C15.5312 50.6757 19.6452 45.5796 24.7323 41.5864C29.8167 37.5376 35.7649 34.7137 42.1161 33.3333C48.4673 31.9528 55.051 32.053 61.3572 33.626C67.6969 35.1622 73.6017 38.1269 78.6207 42.2937C83.6451 46.4904 87.6447 51.7791 90.3145 57.7565C92.9843 63.7339 94.2537 70.2421 94.026 76.7846C93.82 83.3407 92.0833 89.7576 88.9548 95.5227V95.0072L97.5865 114.441L98.0301 115.436L96.9751 115.16L76.1511 109.741L76.5107 109.669C70.1103 114.383 62.5199 117.215 54.5957 117.845C52.6327 118.001 50.6604 118.001 48.6974 117.845C46.733 117.748 44.778 117.511 42.847 117.138C41.8639 116.994 40.9288 116.67 39.9817 116.443C39.0194 116.222 38.0739 115.934 37.1524 115.579L34.3951 114.548C33.5079 114.141 32.6327 113.697 31.7456 113.266C31.302 113.038 30.8584 112.846 30.4269 112.606L29.228 111.827C28.4128 111.3 27.5376 110.832 26.7464 110.245L24.3487 108.47C23.5737 107.869 22.8332 107.225 22.1308 106.54C20.6849 105.212 19.3235 103.795 18.0547 102.296C16.8312 100.771 15.706 99.1691 14.6859 97.5008C10.5691 90.7741 8.39101 83.0407 8.39197 75.1542Z" fill="#263238"/>
<path d="M45.2567 49.4609H55.2072L54.5358 86.1458H45.9281L45.2567 49.4609Z" fill="#5375E2"/>
<path d="M54.5357 90.7383H45.928V99.346H54.5357V90.7383Z" fill="#5375E2"/>
</svg>
