<!-- 
https://www.figma.com/ 
I used this resource to layout my images and pages for this program
https://undraw.co/ 
I used this resource to find free vector stock images for my program so the images 
are displayed with high-quality 
 -->
<svg width="350" height="470" viewBox="0 0 350 470" fill="none" xmlns="http://www.w3.org/2000/svg">
<path d="M165.069 379.457H188.737L223.991 201.732H165.069V379.457Z" fill="#DBDBDB"/>
<path d="M165.069 201.732C165.416 215.649 165.564 229.565 165.697 243.482L165.895 285.231L165.697 326.981L165.564 347.922L165.151 368.797L164.672 347.922L164.441 327.047L164.242 285.298L164.441 243.548C164.573 229.565 164.721 215.699 165.069 201.732Z" fill="#DBDBDB"/>
<path d="M165.069 248.754C180.473 248.424 195.861 248.258 211.265 248.126L257.444 247.928L303.722 248.126L326.861 248.357L350 248.754L326.861 249.167L303.722 249.399L257.444 249.581L211.265 249.399C195.861 249.333 180.44 249.167 165.069 248.754Z" fill="#DBDBDB"/>
<path d="M218.025 379.459L219.198 393.855L221.942 427.126H234.47L237.214 393.855L238.387 379.459H218.025Z" fill="#C7C7C7"/>
<path d="M238.387 379.459H218.025L219.198 393.855H237.214L238.387 379.459Z" fill="#A6A6A6"/>
<path d="M130.328 379.459L131.501 393.855L134.245 427.126H146.773L149.517 393.855L150.69 379.459H130.328Z" fill="#C7C7C7"/>
<path d="M130.328 379.459L131.501 393.855H149.517L150.69 379.459H130.328Z" fill="#A6A6A6"/>
<path d="M51.522 407.735C55.1581 409.867 167.069 433.254 171.895 431.453C173.729 430.775 178.093 414.677 182.803 395.091C183.828 390.86 184.853 386.48 185.861 382.034C192.472 353.144 198.868 322.336 198.868 322.336L124.047 306.469L113.105 366.597L110.692 379.82C110.692 379.82 63.8518 390.034 58.7612 392.579C53.6706 395.124 47.8859 405.62 51.522 407.735Z" fill="#F7A9A0"/>
<path d="M51.1421 407.835C54.8113 409.967 167.333 433.486 172.193 431.685C174.44 430.842 180.457 407.124 186.241 381.969L113.072 366.449L110.659 379.672C110.659 379.672 63.538 389.935 58.4309 392.497C53.3238 395.059 47.4894 405.769 51.1421 407.835Z" fill="#5375E2"/>
<path d="M53.7044 403.671C72.662 407.141 148.806 422.975 167.284 427.851C167.433 427.851 167.417 428 167.284 427.967C148.409 424.942 72.3975 408.497 53.6548 403.985C53.1755 403.885 53.3078 403.588 53.7044 403.671Z" fill="#263238"/>
<path d="M108.874 374.975C116.593 375.141 125.402 378.182 129.997 384.644C130.162 384.892 129.815 385.14 129.584 385.024C122.971 381.252 115.973 378.198 108.709 375.917C108.591 375.889 108.488 375.816 108.422 375.714C108.355 375.612 108.33 375.489 108.351 375.369C108.372 375.249 108.438 375.142 108.535 375.069C108.632 374.996 108.753 374.962 108.874 374.975Z" fill="#263238"/>
<path d="M102.841 377.08C110.56 377.245 119.369 380.286 123.964 386.765C124.129 387.013 123.782 387.261 123.551 387.129C116.961 383.368 109.991 380.316 102.759 378.022C102.649 377.994 102.553 377.927 102.487 377.835C102.421 377.742 102.391 377.629 102.401 377.516C102.411 377.403 102.46 377.297 102.541 377.217C102.622 377.137 102.728 377.089 102.841 377.08Z" fill="#263238"/>
<path d="M96.8087 379.192C104.511 379.357 113.337 382.399 117.931 388.878C118.097 389.125 117.75 389.373 117.518 389.241C110.902 385.475 103.905 382.422 96.6435 380.134C96.5254 380.105 96.4227 380.033 96.3563 379.931C96.2898 379.829 96.2645 379.706 96.2855 379.586C96.3065 379.466 96.3723 379.359 96.4694 379.286C96.5666 379.213 96.6878 379.179 96.8087 379.192Z" fill="#263238"/>
<path d="M90.7765 381.307C98.4785 381.473 107.304 384.497 111.899 390.976C112.064 391.224 111.717 391.472 111.486 391.356C104.877 387.577 97.8776 384.523 90.6112 382.249C90.4931 382.221 90.3905 382.148 90.324 382.046C90.2576 381.944 90.2323 381.821 90.2533 381.701C90.2743 381.581 90.34 381.474 90.4372 381.401C90.5343 381.328 90.6556 381.294 90.7765 381.307Z" fill="#263238"/>
<path d="M99.866 366.202C104.262 371.392 110.741 374.466 116.394 378.036C116.525 378.103 116.67 378.138 116.818 378.138C116.965 378.139 117.111 378.105 117.242 378.039C117.374 377.973 117.489 377.877 117.577 377.759C117.665 377.641 117.724 377.503 117.749 377.358C117.78 377.361 117.811 377.357 117.841 377.346C117.87 377.335 117.896 377.318 117.918 377.296C117.94 377.274 117.957 377.248 117.968 377.218C117.979 377.189 117.983 377.158 117.981 377.127C117.095 370.081 114.377 363.39 110.097 357.723C107.551 354.418 102.494 351.525 98.7256 354.946C94.9572 358.368 97.3042 363.177 99.866 366.202ZM99.2214 359.839C99.6181 351.426 107.485 357.525 109.254 360.004C110.39 361.619 111.407 363.315 112.295 365.078C114.104 368.734 115.726 372.48 117.154 376.301C114.477 374.383 111.667 372.714 108.89 370.896C105.667 368.731 99.0066 364.45 99.2214 359.839Z" fill="#263238"/>
<path d="M145.137 371.061C144.31 366.102 138.526 365.226 134.509 366.185C127.653 367.968 121.384 371.518 116.329 376.482C116.304 376.502 116.285 376.527 116.271 376.556C116.258 376.584 116.251 376.615 116.251 376.647C116.251 376.679 116.258 376.71 116.271 376.738C116.285 376.767 116.304 376.792 116.329 376.812C116.259 376.942 116.22 377.086 116.216 377.234C116.212 377.381 116.242 377.527 116.305 377.661C116.367 377.794 116.461 377.911 116.577 378.002C116.693 378.093 116.829 378.155 116.973 378.184C123.584 378.911 130.625 380.514 137.286 379.192C141.154 378.349 145.93 375.721 145.137 371.061ZM127.254 377.242C123.948 376.961 120.742 376.515 117.453 376.366C120.942 374.253 124.539 372.322 128.229 370.581C130.022 369.756 131.873 369.06 133.766 368.499C136.708 367.672 146.641 367.755 141.732 374.598C139.005 378.3 131.154 377.506 127.254 377.176V377.242Z" fill="#263238"/>
<path d="M154.426 469.389C158.492 470.529 272.667 464.629 276.881 461.654C278.534 460.53 278.98 414.698 277.774 410.285C273.724 395.41 255.924 350.371 255.924 350.371L179.532 354.09L203.58 413.904L204.605 427.275C204.605 427.275 161.896 449.092 157.632 452.861C153.368 456.629 150.376 468.265 154.426 469.389Z" fill="#F7A9A0"/>
<path d="M154.094 469.571C158.16 470.712 272.98 464.778 277.211 461.786C279.178 460.415 278.864 435.937 278.136 410.137L203.43 413.773L204.472 427.227C204.472 427.227 161.499 449.159 157.235 452.944C152.971 456.729 150.012 468.447 154.094 469.571Z" fill="#5375E2"/>
<path d="M155.5 464.889C174.722 463.435 252.387 459.319 271.493 459.336C271.658 459.336 271.658 459.452 271.493 459.452C252.469 461.336 174.772 464.807 155.5 465.203C155.103 465.269 155.087 464.922 155.5 464.889Z" fill="#263238"/>
<path d="M201.529 423.092C209.033 421.29 218.355 421.968 224.42 427.075C224.652 427.257 224.42 427.604 224.123 427.538C216.767 425.566 209.219 424.397 201.612 424.05C201.503 424.033 201.402 423.979 201.327 423.898C201.252 423.817 201.206 423.713 201.196 423.603C201.187 423.493 201.214 423.383 201.275 423.29C201.335 423.197 201.425 423.127 201.529 423.092Z" fill="#263238"/>
<path d="M196.241 426.662C203.744 424.861 213.066 425.555 219.132 430.645C219.363 430.844 219.132 431.174 218.834 431.108C211.476 429.147 203.93 427.978 196.323 427.621C196.196 427.632 196.07 427.592 195.972 427.51C195.874 427.428 195.814 427.31 195.803 427.183C195.792 427.056 195.832 426.929 195.914 426.832C195.996 426.734 196.113 426.673 196.241 426.662Z" fill="#263238"/>
<path d="M190.935 430.248C198.439 428.447 207.76 429.124 213.826 434.215C214.058 434.413 213.826 434.744 213.529 434.678C206.171 432.72 198.624 431.556 191.018 431.207C190.908 431.19 190.808 431.136 190.733 431.055C190.657 430.974 190.611 430.87 190.602 430.76C190.592 430.65 190.62 430.54 190.68 430.447C190.741 430.354 190.83 430.284 190.935 430.248Z" fill="#263238"/>
<path d="M185.646 433.869C193.15 432.067 202.472 432.745 208.537 437.852C208.769 438.05 208.537 438.381 208.24 438.315C200.882 436.354 193.335 435.185 185.729 434.827C185.666 434.833 185.603 434.826 185.542 434.807C185.482 434.788 185.426 434.757 185.378 434.716C185.33 434.676 185.29 434.626 185.261 434.57C185.232 434.514 185.214 434.452 185.208 434.389C185.203 434.327 185.21 434.263 185.229 434.203C185.248 434.143 185.279 434.087 185.319 434.038C185.36 433.99 185.41 433.95 185.466 433.921C185.522 433.892 185.583 433.874 185.646 433.869Z" fill="#263238"/>
<path d="M190.588 416.91C196.158 420.794 203.231 422.133 209.595 424.133C209.74 424.165 209.89 424.162 210.034 424.125C210.177 424.088 210.31 424.017 210.421 423.919C210.532 423.82 210.619 423.697 210.673 423.559C210.728 423.421 210.749 423.272 210.735 423.125C210.867 423.125 210.966 422.993 210.9 422.844C208.25 416.26 203.919 410.487 198.339 406.101C195.034 403.605 189.398 402.052 186.637 406.299C183.877 410.547 187.332 414.646 190.588 416.91ZM188.356 410.911C186.588 402.647 195.728 406.58 198.091 408.514C199.598 409.789 201.012 411.17 202.322 412.646C205.005 415.72 207.526 418.93 209.876 422.265C206.801 421.092 203.661 420.199 200.554 419.142C196.852 417.869 189.315 415.456 188.356 410.911Z" fill="#263238"/>
<path d="M235.594 410.002C233.511 405.374 227.71 406.035 224.024 407.985C217.837 411.462 212.668 416.5 209.033 422.596C209.017 422.624 209.007 422.654 209.004 422.686C209.001 422.718 209.005 422.751 209.016 422.781C209.027 422.811 209.045 422.838 209.068 422.86C209.091 422.883 209.119 422.9 209.149 422.91C209.112 423.054 209.11 423.205 209.143 423.35C209.176 423.496 209.242 423.631 209.337 423.746C209.432 423.86 209.553 423.95 209.69 424.009C209.827 424.068 209.976 424.093 210.124 424.084C216.735 423.092 223.909 422.86 229.958 419.869C233.61 418.133 237.544 414.382 235.594 410.002ZM219.859 420.53C216.554 421.092 213.38 421.505 210.174 422.183C213.009 419.249 215.993 416.463 219.116 413.836C220.644 412.587 222.257 411.444 223.942 410.415C226.57 408.878 236.205 406.432 233.181 414.299C231.528 418.629 223.727 419.869 219.859 420.53Z" fill="#263238"/>
<path d="M329.654 239.169C306.895 264.507 230.486 244.491 225.858 254.574C221.842 263.482 277.806 402.366 277.806 402.366L196.819 409.721C196.819 409.721 118.41 257.565 144.177 211.965C158.094 187.354 219.413 197.089 256.419 192.66C267.575 191.305 272.814 168.281 272.814 168.281H338.926C338.926 168.281 355.636 210.196 329.654 239.169Z" fill="#455A64"/>
<path d="M167.416 197.85L237.527 251.499C260.815 251.003 311.771 259.069 329.638 239.153C355.669 210.18 338.976 168.281 338.976 168.281H272.864C272.864 168.281 267.625 191.305 256.468 192.66C230.487 195.866 192.555 191.933 167.416 197.85Z" fill="#263238"/>
<path d="M192.208 393.987C194.505 393.26 216.157 390.847 220.933 390.335C230.486 389.293 260.6 386.484 266.038 386.5C266.187 386.5 266.203 386.731 266.038 386.765C261.311 387.756 242.106 389.987 237.329 390.483C227.759 391.458 194.885 394.648 192.224 394.384C192.172 394.386 192.12 394.367 192.082 394.332C192.043 394.296 192.02 394.246 192.018 394.194C192.016 394.141 192.034 394.09 192.07 394.051C192.106 394.012 192.155 393.989 192.208 393.987Z" fill="#263238"/>
<path d="M215.149 244.97C220.52 242.309 247.428 243.317 258.782 243.102L275.889 242.689C280.946 242.573 286.02 242.507 291.061 242.127C300.598 241.4 310.118 239.202 317.39 232.971C323.723 227.262 328.24 219.82 330.381 211.567C333.191 201.65 332.894 191.188 332.414 180.957C332.299 178.445 332.133 175.999 331.968 173.42C331.968 173.288 332.216 173.255 332.232 173.42C334.464 191.717 336.15 212.162 324.25 227.963C318.981 234.939 311.459 239.874 302.962 241.929C293.194 244.408 282.847 244.127 272.815 244.358L239.015 245.102C233.379 245.234 219.182 245.416 216.802 247.201C214.025 249.333 230.106 299.016 233.958 309.115C241.671 329.411 249.312 349.74 256.882 370.103C257.791 372.549 260.336 379.656 261.195 382.135C261.344 382.598 260.534 382.912 260.336 382.449C256.105 372.45 250.651 357.657 246.701 347.542C242.75 337.427 238.817 327.428 234.933 317.346C227.016 297.049 210.405 247.3 215.149 244.97Z" fill="#263238"/>
<path d="M141.22 216.377C145.649 206.609 154.128 200.163 167.334 197.783C167.565 197.783 167.549 198.064 167.334 198.13C155.764 201.436 147.632 205.998 142.839 215.6C140.097 221.807 138.873 228.577 139.269 235.351C139.848 254.672 146.74 282.654 150.674 296.058C154.607 309.462 159.301 322.668 164.326 335.725C169.35 348.782 180.853 376.037 181.68 377.723C181.697 377.753 181.702 377.79 181.693 377.824C181.683 377.858 181.661 377.887 181.63 377.904C181.6 377.922 181.563 377.927 181.529 377.917C181.495 377.908 181.466 377.886 181.448 377.855C176.209 369.012 159.962 329.544 150.789 300.785C146.475 287.15 131.683 237.351 141.22 216.377Z" fill="#263238"/>
<path d="M111.022 362.797L181.597 377.838C181.597 377.838 124.377 227.434 147.797 208.179C154.293 202.84 168.44 200.989 185.266 208.179C210.388 219.021 239.461 241.135 266.881 249.234C292.549 256.804 323.076 249.846 333.505 238.293C355.553 214.046 338.976 168.214 338.976 168.214L260.534 164.793C260.534 164.793 262.187 168.297 257.823 172.148C257.823 172.148 191.629 157.636 168.407 171.817C126.526 197.518 111.022 362.797 111.022 362.797Z" fill="#455A64"/>
<path d="M299.689 173.569C299.7 173.536 299.721 173.507 299.749 173.486C299.778 173.466 299.812 173.455 299.846 173.455C299.881 173.455 299.915 173.466 299.943 173.486C299.972 173.507 299.993 173.536 300.003 173.569C299.928 176.986 300.194 180.402 300.797 183.766C301.513 186.961 303.097 189.895 305.375 192.245C310.333 197.204 317.506 199.005 324.035 201.055C324.382 201.17 324.333 201.782 323.936 201.716C316.68 200.608 309.061 198.774 303.772 193.32C301.332 190.815 299.697 187.638 299.078 184.196C298.402 180.657 298.613 177.007 299.689 173.569Z" fill="#263238"/>
<path d="M149.368 205.303C159.086 199.188 174.275 203.832 181.548 206.609C181.713 206.609 181.63 206.923 181.548 206.857C174.854 204.46 158.21 200.808 149.302 207.121C128.724 221.699 161.07 317.33 181.663 377.012C181.961 377.855 181.267 377.64 180.886 376.814C177.911 370.302 147.616 289.926 142.558 251.829C141.567 244.788 135.352 214.047 149.368 205.303Z" fill="#263238"/>
<path d="M119.683 348.234C121.601 348.234 137.98 351.804 141.599 352.614C148.805 354.267 171.35 359.771 175.3 361.258C175.399 361.258 175.3 361.523 175.217 361.506C171.465 361.159 156.904 358.035 153.301 357.209C146.095 355.556 121.386 349.606 119.568 348.631C119.419 348.548 119.501 348.251 119.683 348.234Z" fill="#263238"/>
<path d="M152.459 202.706C159.07 199.136 166.788 198.541 174.044 199.401C181.708 200.565 189.149 202.895 196.109 206.309C210.901 213.069 224.983 221.333 239.792 228.06C254.601 234.787 270.237 239.977 286.451 240.472C300.334 240.902 317.854 238.456 326.795 225.994C340.546 206.755 332.53 173.617 332.382 171.452C332.382 171.287 332.596 171.303 332.63 171.452C343.29 212.193 329.572 228.01 320.316 234.655C312.961 239.944 302.4 241.266 295.425 241.861C279.294 243.233 263.113 239.282 248.139 233.316C232.817 227.217 218.389 218.986 203.745 211.482C189.663 204.276 173.995 196.839 157.863 200.971C156.044 201.452 154.26 202.06 152.525 202.789C152.426 202.904 152.343 202.756 152.459 202.706Z" fill="#263238"/>
<path d="M228.453 143.075L241.196 142.612C244.504 135.216 245.434 126.974 243.857 119.027C243.527 117.192 248.502 127.489 247.659 142.397C261.112 141.901 282.78 140.91 298.746 140.166C298.746 133.918 298.895 128.134 298.895 128.134C299.651 132.188 300.757 136.17 302.201 140.034L308.581 139.72C307.962 130.869 307.824 121.992 308.167 113.126C309.871 122.294 313.065 131.121 317.621 139.257C327.753 138.678 334.414 138.116 333.951 137.604C317.572 120.944 328.183 110.151 322.894 94.929C316.564 76.7483 300.399 74.7154 300.036 60.7658C299.705 49.4111 300.664 7.5294 283.97 7.33106C283.97 7.33106 269.806 -5.41197 251.939 2.70324C229.842 12.7192 240.601 66.0548 239.477 73.2609C237.825 83.5413 233.279 87.4254 230.37 99.2098C227.461 110.994 233.197 118.614 234.271 126.53C235.345 134.447 225.908 143.207 228.453 143.075Z" fill="#263238"/>
<path d="M334.314 135.126C332.025 132.2 330.166 128.96 328.794 125.507C327.668 122.072 327.463 118.402 328.199 114.863C328.786 111.112 329.183 107.333 329.389 103.542C329.564 99.6022 328.946 95.6677 327.571 91.972C326.105 88.2677 323.809 84.9488 320.861 82.2701C318.007 79.7377 314.95 77.4437 311.721 75.4111C308.596 73.4679 305.74 71.1229 303.225 68.4363C300.792 65.6182 299.175 62.1893 298.548 58.5195C298.632 62.3753 299.883 66.115 302.134 69.2461C304.477 72.2888 307.263 74.963 310.398 77.1796C313.391 79.3393 316.245 81.6854 318.943 84.2039C321.491 86.6871 323.48 89.6846 324.778 92.9968C325.962 96.3657 326.522 99.9222 326.43 103.492C326.43 107.128 325.968 110.814 325.72 114.615C325.571 116.541 325.571 118.475 325.72 120.4C325.928 122.379 326.488 124.304 327.373 126.086C329.123 129.493 331.475 132.555 334.314 135.126Z" fill="#263238"/>
<path d="M239.941 22.6016C238.476 26.8758 237.559 31.3188 237.214 35.8239C236.767 40.303 237.627 61.2108 237.445 65.6898L237.147 72.301C237.066 74.4502 236.778 76.5867 236.288 78.6808C235.056 82.8365 233.061 86.7264 230.404 90.1512C229.096 92.055 227.915 94.0426 226.867 96.1012C225.844 98.2101 225.062 100.428 224.537 102.712C224.088 104.985 223.817 107.29 223.727 109.605C223.627 111.934 223.827 114.267 224.322 116.546C224.785 118.827 225.512 120.992 226.14 123.157C226.756 125.262 227.171 127.42 227.379 129.603C227.504 131.796 227.09 133.986 226.174 135.983C225.257 137.979 223.867 139.721 222.124 141.057C224.106 139.857 225.752 138.174 226.908 136.165C228.064 134.156 228.693 131.888 228.735 129.57C228.717 127.268 228.456 124.975 227.958 122.728C227.495 120.496 226.851 118.364 226.537 116.216C225.973 111.933 226.214 107.584 227.247 103.39C227.763 101.32 228.505 99.3136 229.462 97.4069C230.466 95.4683 231.604 93.6017 232.867 91.8205C234.171 89.9322 235.379 87.9794 236.486 85.9696C237.61 83.8875 238.45 81.6639 238.982 79.3584C239.458 77.0862 239.702 74.7714 239.709 72.4498C239.709 70.1854 239.709 67.9542 239.709 65.7064C239.709 61.2438 238.503 40.3525 238.602 35.9561C238.57 31.4696 239.019 26.9925 239.941 22.6016Z" fill="#263238"/>
<path d="M278.285 86.6642C271.756 113.225 255.923 154.429 241.923 154.263C229.164 154.065 200.604 131.438 188.77 124.017C176.936 116.596 203.645 87.3914 210.438 92.1184C221.016 99.4403 236.882 112.514 239.56 111.654C242.866 110.597 247.146 102.382 266.17 78.1688C274.004 68.2686 281.062 75.3591 278.285 86.6642Z" fill="#F7A9A0"/>
<path d="M197.645 80.86C192.026 78.8767 185.729 76.1496 179.465 76.2653C173.201 76.381 168.044 84.6284 168.044 86.9754C168.044 89.3223 170.391 104.065 176.638 104.065C182.886 104.065 179.118 92.7601 179.349 91.4544C179.58 90.1487 179.828 88.5125 181.002 88.6282C182.175 88.7439 202.802 98.5449 202.802 98.5449L197.645 80.86Z" fill="#F7A9A0"/>
<path d="M197.248 81.7211C196.885 81.7211 180.158 75.11 173.911 75.2422C167.663 75.3744 162.474 83.6053 162.474 85.9688C162.474 88.3323 164.837 103.059 171.085 103.059C177.332 103.059 173.547 91.7371 173.795 90.4479C174.043 89.1587 174.258 87.4894 175.448 87.6051C176.638 87.7208 197.248 97.5218 197.248 97.5218V81.7211Z" fill="#F7A9A0"/>
<path d="M173.201 102.269C173.871 101.149 174.231 99.8714 174.243 98.5667C174.372 97.235 174.294 95.8912 174.011 94.5835C173.668 93.4593 173.414 92.3098 173.251 91.1457C173.268 89.9887 173.568 88.8535 174.127 87.8401C174.606 86.9641 175.532 87.2782 176.309 87.5426C177.473 87.9872 178.61 88.5005 179.713 89.0797C180.903 89.6747 182.093 90.3028 183.267 90.9143C184.519 91.5001 185.733 92.1624 186.903 92.8976C186.903 92.8976 186.903 93.1125 186.82 93.0629C185.738 92.6469 184.678 92.1724 183.647 91.6415L180.077 89.9887C178.953 89.4929 177.862 88.9309 176.771 88.4516C176.375 88.2863 175.581 87.8566 175.119 87.9723C174.656 88.088 174.391 89.245 174.292 89.6251C174.045 90.7247 174.119 91.8723 174.507 92.9307C174.836 94.0466 175.052 95.1928 175.152 96.352C175.269 97.4607 175.179 98.5815 174.887 99.6576C174.514 100.618 174.013 101.524 173.4 102.352C173.317 102.5 173.119 102.368 173.201 102.269Z" fill="#263238"/>
<path d="M217.05 98.1202C217.05 98.1202 199.745 82.336 196.142 79.2123C188.919 72.9317 158.475 60.4861 154.227 60.0399C149.979 59.5936 148.459 68.3038 169.102 77.3281C179.994 82.0881 181.928 88.3192 181.713 91.7735C181.498 95.2278 178.209 101.69 172.408 101.525C166.607 101.36 162.822 92.8808 157.533 91.9388C152.244 90.9967 155.731 100.781 159.5 106.45C163.452 111.914 168.874 116.143 175.135 118.648C180.093 120.532 195.729 127.242 195.729 127.242L217.05 98.1202Z" fill="#F7A9A0"/>
<path d="M165.201 97.4435C167.383 99.0962 169.879 101.328 172.754 101.443C175.63 101.559 177.713 99.6086 179.051 97.1955C180.569 94.8055 181.113 91.9252 180.572 89.1464C179.898 86.6378 178.515 84.3768 176.589 82.6344C174.232 80.5143 171.582 78.7442 168.722 77.3786C168.589 77.3786 168.722 77.1306 168.837 77.1968C171.515 78.3868 179.828 81.7915 181.498 89.1464C182.027 92.0111 181.436 94.9698 179.845 97.4104C178.556 99.7243 176.671 101.956 173.862 102.187C170.424 102.468 167.465 99.6747 165.003 97.5757C164.92 97.4269 165.085 97.3443 165.201 97.4435Z" fill="#263238"/>
<path d="M273.674 141.591L240.783 110.469C240.783 110.469 249.593 97.61 261.873 82.206C273.773 67.3308 281.293 67.8597 280.979 94.4201C280.799 110.411 278.339 126.295 273.674 141.591Z" fill="#5375E2"/>
<path d="M245.329 105.64C248.023 107.673 250.436 110.119 252.965 112.367C255.493 114.615 257.774 116.664 260.105 118.879C264.953 123.496 269.696 128.201 274.335 132.994C274.418 132.994 274.335 133.225 274.186 133.159C269.239 128.752 264.352 124.3 259.526 119.805C257.13 117.557 254.783 115.26 252.436 112.946C250.089 110.632 247.477 108.351 245.196 105.806C245.186 105.797 245.177 105.786 245.17 105.774C245.163 105.762 245.159 105.749 245.157 105.735C245.156 105.721 245.157 105.707 245.161 105.694C245.165 105.68 245.171 105.668 245.18 105.657C245.189 105.646 245.199 105.637 245.212 105.63C245.224 105.624 245.237 105.619 245.251 105.618C245.265 105.616 245.279 105.617 245.292 105.621C245.305 105.625 245.318 105.632 245.329 105.64Z" fill="#263238"/>
<path opacity="0.1" d="M280.98 94.4162C280.8 110.407 278.34 126.291 273.674 141.587L241.263 110.928L275.476 72.5332C279.145 73.6736 281.145 80.4501 280.98 94.4162Z" fill="black"/>
<path d="M246.386 176.329L345.322 177.982C345.322 177.982 319.274 97.3755 298.696 75.7736C289.325 65.8568 280.268 67.5096 272.649 73.972C270.748 75.6248 247.245 105.97 245.328 116.515C243.675 125.82 251.278 136.067 251.278 136.067L246.386 176.329Z" fill="#5375E2"/>
<path opacity="0.1" d="M295.26 72.6645H274.319C275.176 72.0493 276.076 71.4969 277.013 71.0117H292.681C293.579 71.5003 294.441 72.0526 295.26 72.6645ZM300.449 77.7386H269.476C269.046 78.2675 268.6 78.846 268.121 79.3914H301.838C301.342 78.8074 300.879 78.2565 300.449 77.7386ZM305.408 84.5481H264.253C263.823 85.11 263.394 85.705 262.964 86.3H306.532C306.201 85.705 305.821 85.1266 305.441 84.5481H305.408ZM309.573 91.3741H259.328L258.121 93.1095H310.548L309.573 91.3741ZM313.275 98.1836H254.816C254.436 98.7621 254.055 99.3406 253.692 99.8364H314.267L313.275 98.1836ZM316.68 105.01H250.502C250.155 105.605 249.824 106.183 249.527 106.745H317.622C317.302 106.15 316.999 105.555 316.713 104.96L316.68 105.01ZM319.87 111.819H246.932C246.668 112.431 246.42 113.009 246.221 113.472H320.696L319.87 111.819ZM322.927 118.645H245.081C245.039 119.223 245.039 119.803 245.081 120.381H323.671L322.927 118.645ZM325.886 125.455H246.039C246.205 126.05 246.403 126.628 246.601 127.107H326.58L325.886 125.455ZM328.679 132.264H248.915C249.262 132.925 249.609 133.504 249.924 134.016H329.258L328.679 132.264ZM331.373 139.09H250.915L250.7 140.743H332.018C331.803 140.247 331.571 139.669 331.34 139.09H331.373ZM333.984 145.9H250.089L249.874 147.553H334.613C334.414 147.073 334.15 146.478 333.951 145.9H333.984ZM336.546 152.726H249.262L249.048 154.379H337.158C336.948 153.872 336.734 153.321 336.513 152.726H336.546ZM339.009 159.535H248.419L248.221 161.188H339.604C339.406 160.709 339.207 160.13 338.976 159.502L339.009 159.535ZM341.439 166.361H247.593L247.395 168.014H342.001C341.802 167.507 341.604 166.956 341.406 166.361H341.439ZM343.769 173.171H246.767L246.552 174.824H344.314C344.149 174.377 343.951 173.815 343.736 173.171H343.769Z" fill="#030402"/>
<path d="M265.576 131.954C269.968 132.247 274.325 132.922 278.6 133.97C280.732 134.548 282.831 135.226 284.93 135.953C285.971 136.317 287.013 136.648 288.07 136.962C289.137 137.326 290.25 137.538 291.376 137.59C291.475 137.59 291.492 137.771 291.376 137.771C290.309 137.862 289.236 137.862 288.17 137.771C287.126 137.666 286.093 137.478 285.079 137.209C282.914 136.664 280.782 135.986 278.616 135.408C274.253 134.251 269.89 133.094 265.477 132.334C265.345 132.35 265.378 131.937 265.576 131.954Z" fill="#263238"/>
<path d="M255.064 137.094C258.615 136.483 262.205 136.118 265.807 136.003C267.61 135.959 269.414 136.014 271.212 136.168C272.071 136.168 272.864 136.3 273.79 136.4C274.716 136.499 275.674 136.763 276.616 136.862C276.715 136.862 276.715 137.044 276.616 137.044C275.724 137.044 274.831 137.127 273.939 137.127H271.245C269.443 137.127 267.642 137.209 265.857 137.209C262.253 137.209 258.667 137.209 255.08 137.424C254.816 137.457 254.816 137.127 255.064 137.094Z" fill="#263238"/>
<path d="M287.524 71.906C287.524 73.691 281.459 86.3844 273.558 87.5414C270.98 87.905 268.336 73.9554 268.336 73.9554L267.906 72.9803L261.89 59.196L276.765 45.0481L278.93 43.1309C278.93 43.1309 280.335 47.0149 282.037 51.8576C282.037 52.089 282.186 52.3039 282.269 52.5518L282.566 53.3286L283.326 55.5268C283.525 56.0887 283.706 56.6342 283.888 57.1796L284.467 58.9481C285.786 63.1911 286.808 67.5209 287.524 71.906Z" fill="#F7A9A0"/>
<path d="M281.971 51.84C281.298 56.1698 279.691 60.3015 277.262 63.9488C274.834 67.596 271.641 70.6717 267.906 72.9627L261.89 59.1784L276.765 45.0305L278.93 43.1133C278.93 43.1133 280.269 46.9973 281.971 51.84Z" fill="#263238"/>
<path d="M239.081 41.493C244.254 67.3758 260.353 67.2105 265.922 66.0866C270.997 65.0619 288.119 60.9464 285.64 34.6835C283.161 8.42069 269.492 2.61939 257.791 4.33829C246.089 6.05719 233.908 15.6103 239.081 41.493Z" fill="#F7A9A0"/>
<path d="M241.841 36.2882C242.406 36.0741 242.958 35.8257 243.493 35.5444C244.115 35.358 244.66 34.9753 245.047 34.4536C245.133 34.2646 245.155 34.0529 245.11 33.8503C245.066 33.6476 244.956 33.4649 244.799 33.3297C244.441 33.1189 244.033 33.0078 243.617 33.0078C243.202 33.0078 242.794 33.1189 242.436 33.3297C241.638 33.6302 240.983 34.2204 240.601 34.9825C240.531 35.1584 240.513 35.3507 240.549 35.5366C240.585 35.7226 240.673 35.8943 240.803 36.0317C240.934 36.169 241.101 36.2661 241.284 36.3116C241.468 36.357 241.661 36.3489 241.841 36.2882Z" fill="#263238"/>
<path d="M259.492 32.2394C258.887 32.2726 258.28 32.2726 257.674 32.2394C257.032 32.3312 256.378 32.2154 255.807 31.9089C255.649 31.7736 255.54 31.591 255.495 31.3883C255.45 31.1856 255.473 30.9739 255.559 30.785C255.791 30.4407 256.112 30.1644 256.486 29.9844C256.861 29.8043 257.276 29.727 257.691 29.7603C258.535 29.6875 259.375 29.9419 260.038 30.471C260.187 30.5988 260.296 30.7676 260.351 30.9566C260.406 31.1455 260.404 31.3464 260.346 31.5344C260.288 31.7224 260.176 31.8893 260.025 32.0146C259.873 32.1399 259.688 32.218 259.492 32.2394Z" fill="#263238"/>
<path d="M256.832 39.5273C256.832 39.5273 256.981 39.5273 256.997 39.6596C257.278 41.4446 257.923 43.4279 259.625 43.6924V43.7915C257.642 43.9072 256.815 41.2628 256.832 39.5273Z" fill="#263238"/>
<path d="M258.121 37.378C260.914 36.6012 262.253 42.2372 259.675 42.9644C257.096 43.6917 255.691 38.0391 258.121 37.378Z" fill="#263238"/>
<path d="M259.212 37.4119C259.791 37.6102 260.402 38.0565 261.014 37.9738C261.625 37.8912 262.088 37.164 262.402 36.4863C262.402 36.4863 262.501 36.4863 262.518 36.4863C262.727 36.9821 262.741 37.5388 262.557 38.0446C262.373 38.5504 262.005 38.968 261.526 39.2134C260.501 39.6101 259.51 38.8333 258.981 37.8086C258.882 37.6763 258.981 37.3292 259.212 37.4119Z" fill="#263238"/>
<path d="M247.015 41.4922C247.015 41.4922 246.899 41.6079 246.915 41.674C247.411 43.4094 247.676 45.4754 246.238 46.4506C246.238 46.4506 246.238 46.5663 246.238 46.5332C248.205 45.7895 247.758 43.0458 247.015 41.4922Z" fill="#263238"/>
<path d="M245.014 40.055C242.155 40.5343 243.362 46.2199 245.973 45.7737C248.584 45.3274 247.411 39.6584 245.014 40.055Z" fill="#263238"/>
<path d="M243.907 40.6678C243.51 41.0645 243.18 41.7091 242.651 41.8578C242.122 42.0066 241.461 41.5108 240.998 40.9984C241.18 42.0892 241.775 43.147 242.866 43.1305C243.957 43.114 244.37 42.0562 244.403 40.9157C244.271 40.7835 244.056 40.5025 243.907 40.6678Z" fill="#263238"/>
<path d="M251.692 49.1616C251.692 49.1616 251.924 51.8557 252.204 53.0952C252.204 53.2109 252.552 53.1944 252.965 53.0952C254.068 53.0429 255.136 52.6905 256.053 52.0759C256.971 51.4614 257.703 50.608 258.171 49.6079C258.178 49.5806 258.176 49.5518 258.165 49.5257C258.155 49.4996 258.136 49.4776 258.112 49.4629C258.088 49.4481 258.06 49.4414 258.032 49.4437C258.004 49.446 257.977 49.4572 257.956 49.4756C256.639 50.8961 254.901 51.8575 252.998 52.2193C252.833 51.9052 252.766 47.5915 252.568 47.608C251.628 47.912 250.734 48.34 249.907 48.8806C249.246 43.2777 249.51 37.6086 248.783 32.0222C248.772 31.9852 248.749 31.9528 248.717 31.9299C248.686 31.9069 248.648 31.8945 248.61 31.8945C248.571 31.8945 248.533 31.9069 248.502 31.9299C248.471 31.9528 248.448 31.9852 248.436 32.0222C247.983 38.0822 248.132 44.1723 248.882 50.2029C248.915 50.9962 251.246 49.4922 251.692 49.1616Z" fill="#263238"/>
<path d="M253.014 52.5012C253.937 53.384 255.078 54.0057 256.32 54.3027C256.989 54.451 257.688 54.3874 258.32 54.1209C259.708 53.5259 259.543 52.2202 259.096 51.1294C258.867 50.5441 258.568 49.989 258.204 49.4766C256.842 51.0138 255.023 52.0739 253.014 52.5012Z" fill="#263238"/>
<path d="M256.254 54.3023C256.923 54.4505 257.622 54.387 258.254 54.1205C259.642 53.5255 259.477 52.2197 259.031 51.1289C258.281 51.2744 257.601 51.6653 257.099 52.2399C256.596 52.8145 256.299 53.5401 256.254 54.3023Z" fill="#FF9BBC"/>
<path d="M284.12 37.0503C281.261 37.3478 272.55 30.7531 270.17 17.1011C270.17 17.1011 273.211 29.216 274.435 30.8523C275.658 32.4886 269.592 27.15 267.46 16.159C264.392 19.2141 260.902 21.8134 257.097 23.8775C252.138 26.1914 248.932 26.6542 248.486 26.3402C248.039 26.0262 255.328 22.357 257.014 19.6299C257.014 19.6299 244.205 28.3235 237.891 29.8606C237.164 30.0259 236.239 15.5144 245.081 7.44877C253.923 -0.616851 268.22 3.28373 273.178 6.65543C273.178 6.65543 278.236 6.55627 284.748 13.0022C291.26 19.448 287.211 36.7363 284.12 37.0503Z" fill="#263238"/>
<path d="M287.607 44.2045C287.266 44.4546 286.9 44.6705 286.516 44.8491C286.139 45.0306 285.739 45.1586 285.326 45.2293C284.783 45.3574 284.217 45.3574 283.674 45.2293C283.26 45.1389 282.864 44.9826 282.5 44.7665C281.975 44.4697 281.505 44.0838 281.112 43.6261L280.55 36.453C280.55 36.453 283.773 26.9163 287.938 27.8584C292.103 28.8005 291.359 41.4113 287.607 44.2045Z" fill="#F7A9A0"/>
<path d="M287.673 31.4297C287.673 31.4297 287.789 31.4297 287.673 31.5289C285.062 33.5948 284.367 36.7847 284.053 39.9416C284.14 39.6021 284.299 39.2853 284.519 39.0125C284.739 38.7398 285.015 38.5176 285.329 38.3609C285.642 38.2041 285.986 38.1166 286.336 38.1041C286.686 38.0917 287.035 38.1547 287.359 38.2888C287.458 38.2888 287.359 38.4541 287.359 38.4541C286.792 38.4434 286.236 38.6074 285.766 38.9238C285.296 39.2402 284.934 39.6936 284.731 40.2225C284.403 41.1169 284.165 42.0414 284.02 42.9827C284.02 43.2802 283.442 43.2802 283.458 42.9827C282.351 39.1152 283.739 32.9833 287.673 31.4297Z" fill="#263238"/>
<path d="M286.946 43.2481C286.965 43.4889 286.912 43.7299 286.794 43.9407C286.676 44.1514 286.498 44.3225 286.283 44.4323C286.068 44.5421 285.825 44.5858 285.585 44.5577C285.345 44.5297 285.119 44.4313 284.935 44.2748C284.751 44.1184 284.617 43.9109 284.551 43.6787C284.485 43.4464 284.489 43.1997 284.562 42.9697C284.636 42.7396 284.776 42.5366 284.965 42.3861C285.154 42.2357 285.383 42.1445 285.624 42.1242C285.948 42.1012 286.267 42.2061 286.515 42.4162C286.762 42.6263 286.917 42.925 286.946 43.2481Z" fill="white"/>
<path d="M288.83 40.7656C288.849 40.9911 288.777 41.2147 288.632 41.3879C288.487 41.5612 288.279 41.6702 288.053 41.6912C287.93 41.7368 287.797 41.7534 287.666 41.7395C287.535 41.7257 287.408 41.6818 287.297 41.6113C287.185 41.5408 287.091 41.4455 287.023 41.3329C286.954 41.2203 286.912 41.0933 286.9 40.9619C286.888 40.8304 286.907 40.698 286.954 40.5749C287.002 40.4519 287.077 40.3414 287.174 40.2521C287.271 40.1628 287.388 40.097 287.515 40.06C287.641 40.0229 287.775 40.0155 287.905 40.0384C288.123 40.0191 288.34 40.0835 288.512 40.2187C288.683 40.3538 288.797 40.5494 288.83 40.7656Z" fill="white"/>
<path d="M301.821 98.3476C297.21 125.42 280.616 177.913 265.807 182.64C248.651 188.16 185.712 168.145 174.027 159.6C169.383 156.195 194.224 125.222 200.059 127.205C222.537 134.808 247.031 140.61 248.783 139.7C253.94 137.073 270.418 107.587 283.128 90.2159C299.094 68.4156 303.887 86.1996 301.821 98.3476Z" fill="#F7A9A0"/>
<path d="M175.565 160.446C172.92 159.504 154.69 146.265 149.318 140.051C143.488 133.628 138.753 126.291 135.303 118.333C129.898 105.739 127.353 96.5164 128.691 92.3844C130.195 87.5913 130.625 86.8145 143.236 107.706C150.359 119.54 157.169 120.928 163.069 120.763C177.577 120.485 191.94 123.693 204.951 130.118C204.951 130.118 185.746 164.066 175.565 160.446Z" fill="#F7A9A0"/>
<path d="M143.054 67.8224L179.415 105.622C179.654 105.798 179.841 106.036 179.957 106.31C180.072 106.583 180.112 106.883 180.071 107.177C180.031 107.472 179.911 107.75 179.726 107.982C179.541 108.214 179.296 108.392 179.019 108.498L157.152 118.183C156.463 118.428 155.718 118.473 155.004 118.312C154.29 118.152 153.637 117.791 153.119 117.274L116.758 79.4745C116.519 79.2981 116.332 79.0605 116.216 78.7867C116.101 78.513 116.061 78.2131 116.102 77.9188C116.143 77.6244 116.262 77.3465 116.447 77.1142C116.632 76.8819 116.877 76.7038 117.155 76.5987L139.004 66.9464C139.693 66.6933 140.439 66.6413 141.156 66.7964C141.873 66.9515 142.531 67.3073 143.054 67.8224Z" fill="#37474F"/>
<path d="M140.409 66.2857L118.51 76.0041C118.232 76.1092 117.987 76.2873 117.802 76.5196C117.617 76.7519 117.498 77.0299 117.457 77.3242C117.416 77.6185 117.456 77.9184 117.571 78.1922C117.687 78.4659 117.874 78.7035 118.113 78.88L154.474 116.679C154.992 117.197 155.645 117.557 156.359 117.718C157.073 117.879 157.818 117.834 158.507 117.588L180.44 107.87C180.718 107.765 180.962 107.587 181.147 107.354C181.333 107.122 181.452 106.844 181.492 106.55C181.533 106.255 181.493 105.956 181.378 105.682C181.263 105.408 181.075 105.17 180.836 104.994L144.475 67.1947C143.955 66.6709 143.295 66.307 142.575 66.1459C141.854 65.9848 141.103 66.0333 140.409 66.2857ZM178.324 104.449C179.283 105.44 179.167 106.63 178.076 107.126L158.491 115.803C157.848 116.021 157.158 116.05 156.499 115.889C155.84 115.728 155.241 115.383 154.772 114.894L120.939 79.6898C118.989 77.6734 119.782 77.1776 120.939 76.6817L124.856 75.0289C125.016 74.9938 125.181 75.0029 125.336 75.0553C125.49 75.1078 125.627 75.2016 125.732 75.3264L125.848 75.4421C125.933 75.5592 126.04 75.6581 126.164 75.7332C126.288 75.8083 126.425 75.8581 126.568 75.8796C126.711 75.9012 126.857 75.894 126.997 75.8586C127.138 75.8233 127.269 75.7603 127.385 75.6735L136.459 71.6572C136.955 71.4259 137.368 71.2441 136.756 70.616L136.641 70.5003C136.393 70.2193 136.36 69.9218 136.641 69.8226L140.574 68.1699C141.665 67.674 142.822 67.5583 144.607 69.4094L178.324 104.449Z" fill="#263238"/>
<path d="M132.277 72.2339L129.798 73.3413C129.758 73.3645 129.712 73.3767 129.666 73.3767C129.619 73.3767 129.574 73.3645 129.534 73.3413C129.517 73.331 129.502 73.3165 129.493 73.2991C129.483 73.2817 129.478 73.2621 129.478 73.2421C129.478 73.2222 129.483 73.2026 129.493 73.1852C129.502 73.1678 129.517 73.1533 129.534 73.143L132.013 72.0521C132.055 72.0257 132.104 72.0117 132.153 72.0117C132.203 72.0117 132.252 72.0257 132.294 72.0521C132.311 72.0613 132.325 72.0754 132.334 72.0925C132.343 72.1096 132.347 72.1291 132.346 72.1485C132.344 72.1679 132.336 72.1863 132.324 72.2015C132.312 72.2167 132.296 72.228 132.277 72.2339Z" fill="white"/>
<path d="M144.442 69.2434L178.324 104.448C179.283 105.44 179.167 106.63 178.077 107.125L158.491 115.803C157.849 116.02 157.158 116.05 156.499 115.889C155.841 115.728 155.242 115.382 154.772 114.894L120.939 79.689C118.989 77.6726 119.783 77.1768 120.939 76.681L124.857 75.0282C125.016 74.993 125.182 75.0021 125.336 75.0546C125.491 75.107 125.628 75.2008 125.733 75.3257L125.848 75.4414C125.933 75.5584 126.041 75.6573 126.164 75.7324C126.288 75.8076 126.425 75.8573 126.568 75.8789C126.711 75.9004 126.857 75.8933 126.998 75.8579C127.138 75.8225 127.27 75.7596 127.385 75.6728L136.459 71.6565C136.955 71.4251 137.368 71.2433 136.757 70.6152L136.658 70.4995C136.393 70.2186 136.36 69.921 136.658 69.8219L140.591 68.1691C141.5 67.508 142.657 67.3923 144.442 69.2434Z" fill="white"/>
<path d="M144.442 69.2434L146.971 71.8713L123.402 82.317L120.939 79.689C118.989 77.6726 119.783 77.1768 120.939 76.681L124.873 75.0282C125.032 74.993 125.198 75.0021 125.353 75.0546C125.507 75.107 125.644 75.2008 125.749 75.3257L125.865 75.4414C125.95 75.5584 126.057 75.6573 126.181 75.7324C126.305 75.8076 126.442 75.8573 126.585 75.8789C126.728 75.9004 126.874 75.8933 127.014 75.8579C127.154 75.8225 127.286 75.7596 127.402 75.6728L136.476 71.6565C136.972 71.4251 137.385 71.2433 136.773 70.6152L136.674 70.4995C136.41 70.2186 136.377 69.921 136.674 69.8219L140.608 68.1691C141.5 67.508 142.641 67.3923 144.442 69.2434Z" fill="#5375E2"/>
<path d="M124.559 79.9863L123.336 79.7384L123.501 78.8789L123.7 78.9285L123.567 79.6392L124.576 79.8375L124.559 79.9863Z" fill="white"/>
<path d="M143.302 70.5674C143.302 70.5674 143.302 70.6996 143.302 70.7492C143.264 70.771 143.221 70.7824 143.178 70.7824C143.134 70.7824 143.091 70.771 143.054 70.7492C143.054 70.7492 143.054 70.617 143.054 70.5839C143.089 70.5579 143.131 70.5425 143.175 70.5396C143.219 70.5366 143.263 70.5463 143.302 70.5674Z" fill="white"/>
<path d="M143.699 70.9796C143.712 70.9887 143.723 71.0009 143.731 71.0153C143.739 71.0298 143.743 71.0459 143.743 71.0622C143.743 71.0786 143.739 71.0947 143.731 71.1091C143.723 71.1236 143.712 71.1358 143.699 71.1449C143.661 71.1684 143.619 71.1809 143.575 71.1809C143.531 71.1809 143.488 71.1684 143.451 71.1449C143.433 71.1372 143.418 71.1245 143.407 71.1083C143.397 71.0922 143.391 71.0733 143.391 71.054C143.391 71.0347 143.397 71.0158 143.407 70.9996C143.418 70.9835 143.433 70.9708 143.451 70.9631C143.49 70.9438 143.533 70.9351 143.577 70.938C143.62 70.941 143.662 70.9553 143.699 70.9796Z" fill="white"/>
<path d="M144.079 71.3758C144.097 71.3836 144.112 71.3963 144.122 71.4124C144.133 71.4286 144.138 71.4474 144.138 71.4667C144.138 71.4861 144.133 71.5049 144.122 71.5211C144.112 71.5372 144.097 71.5499 144.079 71.5577C144.041 71.5779 143.998 71.5885 143.955 71.5885C143.912 71.5885 143.869 71.5779 143.831 71.5577C143.813 71.5499 143.798 71.5372 143.788 71.5211C143.777 71.5049 143.771 71.4861 143.771 71.4667C143.771 71.4474 143.777 71.4286 143.788 71.4124C143.798 71.3963 143.813 71.3836 143.831 71.3758C143.868 71.3523 143.911 71.3398 143.955 71.3398C143.999 71.3398 144.042 71.3523 144.079 71.3758Z" fill="white"/>
<path d="M124.824 76.0391C124.67 75.9792 124.499 75.9792 124.345 76.0391C124.28 76.0553 124.221 76.0909 124.177 76.1411C124.133 76.1912 124.105 76.2537 124.097 76.3201H123.998V76.2209C123.998 76.2209 123.998 76.2209 124.097 76.1052H124.262H124.593L124.824 76.0391Z" fill="white"/>
<path d="M124.245 76.4864C124.249 76.4427 124.263 76.4006 124.286 76.3633C124.309 76.326 124.34 76.2946 124.377 76.2715C124.531 76.2116 124.702 76.2116 124.857 76.2715C124.749 76.2384 124.634 76.2384 124.526 76.2715C124.462 76.2697 124.399 76.2901 124.348 76.3292C124.296 76.3683 124.26 76.4238 124.245 76.4864Z" fill="white"/>
<path d="M124.774 76.3347C124.72 76.3181 124.662 76.3181 124.609 76.3347C124.609 76.3347 124.609 76.3347 124.526 76.4339H124.427C124.427 76.3843 124.592 76.3016 124.774 76.3347Z" fill="white"/>
<path d="M124.741 76.5C124.726 76.5074 124.709 76.5112 124.692 76.5112C124.675 76.5112 124.658 76.5074 124.642 76.5H124.741Z" fill="white"/>
<path d="M121.22 77.7739C121.203 77.7636 121.189 77.7491 121.179 77.7317C121.169 77.7143 121.164 77.6947 121.164 77.6747C121.164 77.6548 121.169 77.6351 121.179 77.6178C121.189 77.6004 121.203 77.5858 121.22 77.5756C121.262 77.5492 121.311 77.5352 121.361 77.5352C121.41 77.5352 121.459 77.5492 121.501 77.5756C121.518 77.5858 121.532 77.6004 121.542 77.6178C121.552 77.6351 121.557 77.6548 121.557 77.6747C121.557 77.6947 121.552 77.7143 121.542 77.7317C121.532 77.7491 121.518 77.7636 121.501 77.7739C121.458 77.797 121.41 77.8092 121.361 77.8092C121.312 77.8092 121.263 77.797 121.22 77.7739Z" fill="white"/>
<path d="M121.716 77.5573C121.633 77.5573 121.716 77.3921 121.716 77.359C121.761 77.3312 121.812 77.3164 121.865 77.3164C121.917 77.3164 121.969 77.3312 122.013 77.359C122.03 77.3713 122.044 77.3874 122.054 77.4061C122.064 77.4247 122.069 77.4454 122.069 77.4664C122.069 77.4874 122.064 77.5081 122.054 77.5268C122.044 77.5455 122.03 77.5616 122.013 77.5739C121.967 77.5975 121.915 77.6084 121.862 77.6055C121.81 77.6026 121.76 77.586 121.716 77.5573Z" fill="white"/>
<path d="M122.195 77.3439C122.178 77.3316 122.164 77.3155 122.154 77.2968C122.145 77.2781 122.14 77.2574 122.14 77.2364C122.14 77.2154 122.145 77.1947 122.154 77.1761C122.164 77.1574 122.178 77.1413 122.195 77.129C122.238 77.1059 122.286 77.0938 122.335 77.0938C122.384 77.0938 122.433 77.1059 122.476 77.129C122.558 77.129 122.476 77.2943 122.476 77.3273C122.435 77.3546 122.387 77.3704 122.337 77.3733C122.288 77.3762 122.239 77.3661 122.195 77.3439Z" fill="white"/>
<path d="M122.692 77.1125C122.675 77.1022 122.661 77.0877 122.651 77.0703C122.641 77.0529 122.636 77.0333 122.636 77.0133C122.636 76.9934 122.641 76.9737 122.651 76.9564C122.661 76.939 122.675 76.9244 122.692 76.9142C122.735 76.891 122.783 76.8789 122.832 76.8789C122.881 76.8789 122.93 76.891 122.973 76.9142C122.99 76.9244 123.004 76.939 123.014 76.9564C123.024 76.9737 123.029 76.9934 123.029 77.0133C123.029 77.0333 123.024 77.0529 123.014 77.0703C123.004 77.0877 122.99 77.1022 122.973 77.1125C122.931 77.1389 122.882 77.1529 122.832 77.1529C122.783 77.1529 122.734 77.1389 122.692 77.1125Z" fill="white"/>
<path d="M123.187 76.8637C123.17 76.8535 123.156 76.8389 123.146 76.8215C123.136 76.8042 123.131 76.7845 123.131 76.7646C123.131 76.7446 123.136 76.725 123.146 76.7076C123.156 76.6902 123.17 76.6757 123.187 76.6654C123.229 76.639 123.278 76.625 123.327 76.625C123.377 76.625 123.426 76.639 123.468 76.6654C123.485 76.6757 123.499 76.6902 123.509 76.7076C123.519 76.725 123.524 76.7446 123.524 76.7646C123.524 76.7845 123.519 76.8042 123.509 76.8215C123.499 76.8389 123.485 76.8535 123.468 76.8637C123.426 76.8901 123.377 76.9041 123.327 76.9041C123.278 76.9041 123.229 76.8901 123.187 76.8637Z" fill="white"/>
<path d="M140.393 70.087L139.352 69.0127L141.368 68.1367L142.393 69.1945L140.393 70.087Z" fill="white"/>
<path d="M141.004 68.8125L140.194 69.1761L140.508 69.5067L141.318 69.1431L141.004 68.8125Z" fill="white"/>
<path d="M141.748 68.9129L141.649 68.9625L141.384 68.698L141.5 68.6484L141.748 68.9129Z" fill="white"/>
<path d="M158.012 112.958L157.831 113.025L158.492 113.719L158.161 113.867L157.814 113.52L157.236 113.785L157.566 114.132L157.236 114.281L156.574 113.586L156.393 113.669L156.525 112.611L158.012 112.958Z" fill="#EBEBEB"/>
<path d="M175.581 104.502L173.631 105.361L173.399 105.13L175.35 104.254L175.581 104.502Z" fill="#EBEBEB"/>
<path d="M176.143 105.075L174.176 105.935L173.961 105.703L175.911 104.844L176.143 105.075Z" fill="#EBEBEB"/>
<path d="M176.688 105.657L174.737 106.517L174.522 106.285L176.473 105.426L176.688 105.657Z" fill="#EBEBEB"/>
<path d="M166.672 108.978L166.589 109.722L165.564 109.458L165.581 109.342L166.424 109.557L166.49 108.945L166.672 108.978Z" fill="#EBEBEB"/>
<path d="M166.507 111.114C166.177 111.116 165.85 111.052 165.546 110.924C165.242 110.796 164.967 110.607 164.738 110.37C164.549 110.186 164.407 109.959 164.324 109.709C164.241 109.459 164.218 109.193 164.259 108.932C164.312 108.69 164.422 108.465 164.58 108.275C164.738 108.085 164.94 107.936 165.168 107.841C165.616 107.669 166.104 107.63 166.574 107.73C167.043 107.83 167.473 108.064 167.812 108.403C167.998 108.589 168.137 108.816 168.218 109.066C168.298 109.316 168.318 109.582 168.275 109.841C168.225 110.084 168.116 110.31 167.958 110.5C167.799 110.691 167.596 110.839 167.366 110.932C167.095 111.051 166.803 111.112 166.507 111.114ZM166.061 109.312C166.193 109.399 166.348 109.445 166.507 109.444C166.369 109.368 166.217 109.323 166.061 109.312Z" fill="#EBEBEB"/>
<path d="M131.468 76.4005C131.4 76.3498 131.347 76.2815 131.316 76.203C131.284 76.1246 131.275 76.0389 131.288 75.9555C131.302 75.872 131.338 75.7938 131.393 75.7295C131.448 75.6652 131.52 75.6171 131.6 75.5906C131.768 75.5479 131.944 75.5479 132.112 75.5906C132.142 75.5971 132.17 75.6112 132.193 75.6314C132.216 75.6516 132.234 75.6774 132.244 75.7063C132.244 75.7063 132.244 75.7063 132.112 75.7063C131.999 75.6718 131.878 75.6718 131.765 75.7063C131.71 75.7238 131.661 75.7562 131.623 75.8C131.585 75.8437 131.56 75.8971 131.55 75.9542C131.543 76.0095 131.55 76.0658 131.57 76.1179C131.59 76.1699 131.623 76.2159 131.666 76.2517C131.767 76.3488 131.893 76.4173 132.03 76.45C132.164 76.492 132.308 76.492 132.443 76.45C132.49 76.4358 132.532 76.4103 132.567 76.3757C132.601 76.3411 132.627 76.2985 132.641 76.2517C132.641 76.2517 132.74 76.2517 132.806 76.2517C132.872 76.2517 132.906 76.2517 132.806 76.3839C132.783 76.4487 132.746 76.5075 132.698 76.5561C132.649 76.6047 132.59 76.6419 132.525 76.6649C132.341 76.7175 132.147 76.7207 131.961 76.6743C131.775 76.6279 131.605 76.5335 131.468 76.4005Z" fill="white"/>
<path d="M134.856 75.2918L134.443 75.4736L134.542 75.705C134.52 75.718 134.494 75.7249 134.468 75.7249C134.442 75.7249 134.416 75.718 134.394 75.705L133.947 74.6802C133.995 74.6639 134.048 74.6639 134.096 74.6802L135.303 75.3744C135.303 75.3744 135.385 75.3744 135.303 75.5066C135.282 75.5182 135.26 75.5244 135.236 75.5244C135.213 75.5244 135.19 75.5182 135.17 75.5066L134.856 75.2918ZM134.641 75.1596L134.195 74.9116L134.36 75.2918L134.641 75.1596Z" fill="white"/>
<path d="M135.335 74.2035L135.07 74.3192L135.814 75.096C135.824 75.1037 135.833 75.1137 135.839 75.1252C135.844 75.1366 135.847 75.1493 135.847 75.1621C135.847 75.1749 135.844 75.1876 135.839 75.1991C135.833 75.2105 135.824 75.2205 135.814 75.2282C135.786 75.2427 135.755 75.2503 135.723 75.2503C135.692 75.2503 135.661 75.2427 135.632 75.2282L134.889 74.4679L134.624 74.5836C134.597 74.5996 134.565 74.608 134.533 74.608C134.501 74.608 134.47 74.5996 134.442 74.5836C134.442 74.5836 134.442 74.5836 134.442 74.4679L135.186 74.1374C135.211 74.1229 135.24 74.1152 135.269 74.1152C135.298 74.1152 135.326 74.1229 135.351 74.1374L135.335 74.2035Z" fill="white"/>
<path d="M140.129 95.8708L156.987 88.4002L152.707 83.9707L135.865 91.4413L140.129 95.8708Z" fill="#455A64"/>
<path d="M158.541 87.708L156.987 88.4022L155.665 87.0469L158.541 87.708Z" fill="#455A64"/>
<path d="M152.557 85.2428L137.633 91.854L137.566 91.7713L152.475 85.1602L152.557 85.2428Z" fill="white"/>
<path d="M149.897 87.0796L138.08 92.319L137.997 92.2364L149.815 86.9805L149.897 87.0796Z" fill="white"/>
<path d="M152.656 87.1451L138.955 93.2274L138.872 93.1448L152.574 87.0625L152.656 87.1451Z" fill="white"/>
<path d="M154.31 87.0631L139.401 93.6743L139.319 93.5916L154.227 86.9805L154.31 87.0631Z" fill="white"/>
<path d="M154.755 87.5241L139.831 94.1352L139.748 94.0526L154.673 87.4414L154.755 87.5241Z" fill="white"/>
<path d="M151.053 89.8053L140.277 94.5819L140.194 94.4992L150.971 89.7227L151.053 89.8053Z" fill="white"/>
<path d="M150.21 106.35L167.068 98.8796L162.788 94.4336L145.946 101.921L150.21 106.35Z" fill="#455A64"/>
<path d="M168.622 98.1845L167.068 98.8787L165.763 97.5234L168.622 98.1845Z" fill="#455A64"/>
<path d="M162.656 95.7233L147.731 102.334L147.648 102.252L162.573 95.6406L162.656 95.7233Z" fill="white"/>
<path d="M159.995 97.5397L148.161 102.796L148.095 102.713L159.912 97.457L159.995 97.5397Z" fill="white"/>
<path d="M162.738 97.6237L149.037 103.706L148.971 103.623L162.656 97.541L162.738 97.6237Z" fill="white"/>
<path d="M164.408 97.5397L149.483 104.151L149.4 104.068L164.325 97.457L164.408 97.5397Z" fill="white"/>
<path d="M164.837 98.0045L149.913 104.616L149.847 104.533L164.755 97.9219L164.837 98.0045Z" fill="white"/>
<path d="M161.152 100.284L150.359 105.06L150.276 104.978L161.069 100.201L161.152 100.284Z" fill="white"/>
<path d="M150.029 78.8642L133.17 86.3348L129.567 82.5995L146.426 75.1289L150.029 78.8642Z" fill="#5375E2"/>
<path d="M131.616 87.028L133.17 86.3338L131.864 84.9785L131.616 87.028Z" fill="#5375E2"/>
<path d="M143.731 77.4225L131.302 82.9263L131.22 82.8436L143.649 77.3398L143.731 77.4225Z" fill="white"/>
<path d="M146.657 76.7828L131.749 83.3939L131.667 83.3113L146.575 76.6836L146.657 76.7828Z" fill="white"/>
<path d="M147.103 77.2272L132.178 83.8383L132.096 83.7557L147.02 77.1445L147.103 77.2272Z" fill="white"/>
<path d="M146.359 78.2037L132.625 84.3025L132.542 84.2199L146.277 78.1211L146.359 78.2037Z" fill="white"/>
<path d="M147.98 78.1354L133.055 84.7631L132.973 84.6639L147.897 78.0527L147.98 78.1354Z" fill="white"/>
<path d="M144.525 80.317L133.501 85.2093L133.418 85.1266L144.443 80.2344L144.525 80.317Z" fill="white"/>
<path d="M153.285 82.2533L136.427 89.7239L133.766 86.9472L150.608 79.4766L153.285 82.2533Z" fill="#5375E2"/>
<path d="M134.872 90.4147L136.426 89.7205L135.12 88.3652L134.872 90.4147Z" fill="#5375E2"/>
<path d="M150.376 80.6803L135.501 87.2915L135.401 87.1923L150.31 80.5977L150.376 80.6803Z" fill="white"/>
<path d="M148.194 82.3014L135.93 87.7391L135.847 87.6564L148.111 82.2188L148.194 82.3014Z" fill="white"/>
<path d="M149.863 82.2194L136.377 88.2025L136.294 88.1198L149.781 82.1367L149.863 82.2194Z" fill="white"/>
<path d="M147.219 84.0358L136.806 88.6471L136.724 88.5644L147.136 83.9531L147.219 84.0358Z" fill="white"/>
<path d="M163.35 92.714L146.508 100.185L142.739 96.2675L159.581 88.7969L163.35 92.714Z" fill="#DBDBDB"/>
<path d="M144.938 100.878L146.508 100.184L145.186 98.8125L144.938 100.878Z" fill="#DBDBDB"/>
<path d="M159.863 91.7057L145.765 97.9532L145.682 97.8706L159.78 91.623L159.863 91.7057Z" fill="white"/>
<path d="M159.152 92.6647L146.211 98.4164L146.128 98.3338L159.069 92.582L159.152 92.6647Z" fill="white"/>
<path d="M158.16 91.1607L144.888 97.0447L144.806 96.9621L158.094 91.0781L158.16 91.1607Z" fill="white"/>
<path d="M159.185 90.0533L144.459 96.5984L144.376 96.4993L159.102 89.9707L159.185 90.0533Z" fill="white"/>
<path d="M160.044 92.9303L146.64 98.8638L146.558 98.7812L159.962 92.8477L160.044 92.9303Z" fill="white"/>
<path d="M172.87 102.6L156.028 110.07L152.888 106.814L169.746 99.3438L172.87 102.6Z" fill="#5375E2"/>
<path d="M154.458 110.76L156.028 110.066L154.722 108.711L154.458 110.76Z" fill="#5375E2"/>
<path d="M169.515 100.517L154.59 107.128L154.508 107.046L169.433 100.418L169.515 100.517Z" fill="white"/>
<path d="M169.945 100.962L155.037 107.573L154.954 107.49L169.862 100.879L169.945 100.962Z" fill="white"/>
<path d="M169.201 101.936L155.466 108.035L155.384 107.952L169.118 101.854L169.201 101.936Z" fill="white"/>
<path d="M170.821 101.872L155.913 108.483L155.831 108.4L170.739 101.789L170.821 101.872Z" fill="white"/>
<path d="M167.367 104.055L156.342 108.948L156.26 108.865L167.284 103.973L167.367 104.055Z" fill="white"/>
<path d="M160.078 120.662C166.177 120.744 146.376 108.398 146.079 101.456C145.781 94.5146 152.525 96.7129 157.863 100.63C176.341 114.216 190.291 113.538 199.662 126.529C209.034 139.52 160.078 120.662 160.078 120.662Z" fill="#F7A9A0"/>
<path d="M174.522 110.5C177.068 111.343 179.597 112.285 182.092 113.293C184.614 114.284 187.07 115.432 189.447 116.731C191.822 118.081 194.002 119.75 195.926 121.689C197.86 123.59 199.678 125.59 201.446 127.673L201.066 127.425L213.661 130.995C217.842 132.201 222.04 133.391 226.255 134.532C230.469 135.672 234.651 136.879 238.882 137.92C240.998 138.416 243.113 138.945 245.245 139.325C246.272 139.581 247.341 139.626 248.386 139.457C249.382 139.055 250.308 138.497 251.129 137.804C250.381 138.623 249.49 139.301 248.501 139.804C247.423 140.09 246.294 140.135 245.196 139.936C243.02 139.692 240.857 139.339 238.717 138.878C234.42 138.002 230.155 137.06 225.924 135.97C221.693 134.879 217.462 133.755 213.247 132.664C209.033 131.573 204.868 130.234 200.67 128.995H200.455L200.306 128.813C198.653 126.747 196.835 124.747 194.984 122.846C193.219 120.882 191.189 119.175 188.951 117.772C186.687 116.367 184.274 115.194 181.877 114.004C179.481 112.814 176.969 111.574 174.522 110.5Z" fill="#263238"/>
<path d="M297.259 147.473L264.352 116.351C270.127 106.271 276.502 96.5461 283.442 87.2291C295.177 71.4119 304.928 73.7589 304.565 100.303C304.377 116.293 301.917 132.175 297.259 147.473Z" fill="#5375E2"/>
<path d="M268.897 111.571C271.607 113.604 274.02 116.05 276.533 118.298C279.045 120.546 281.342 122.579 283.673 124.81C288.521 129.427 293.264 134.132 297.903 138.925C297.986 139.008 297.903 139.156 297.771 139.074C292.813 134.694 287.937 130.248 283.094 125.736C280.698 123.488 278.351 121.19 276.004 118.877C273.657 116.563 271.045 114.265 268.765 111.72C268.682 111.571 268.798 111.472 268.897 111.571Z" fill="#263238"/>
<path d="M266.186 112.049C266.996 110.612 267.839 109.207 268.748 107.802L269.294 106.942C270.021 105.009 270.765 103.075 271.674 101.24C271.674 101.24 271.806 101.24 271.789 101.24C271.31 102.744 270.715 104.215 270.137 105.686C271.479 103.544 272.936 101.475 274.5 99.4883H274.599C272.946 102.397 271.294 105.19 269.542 108.033C268.732 109.405 264.583 116.099 264.583 116.165C264.919 116.492 265.234 116.84 265.525 117.206C265.658 117.471 265.525 117.371 265.426 117.305L263.773 116.132C263.773 116.132 265.492 113.223 266.186 112.049Z" fill="#263238"/>
<path d="M289.524 140.217C292.235 142.481 294.879 144.812 297.49 147.159L296.78 147.324C298.432 141.523 299.672 135.507 300.912 129.54L304.399 111.574C304.168 114.632 303.87 117.673 303.473 120.714C303.077 123.755 302.631 126.78 302.069 129.805C301.507 132.829 300.945 135.837 300.201 138.812C299.517 141.812 298.661 144.769 297.639 147.671L297.391 148.316L296.912 147.853C294.482 145.308 291.987 142.795 289.524 140.217Z" fill="#263238"/>
<path d="M305.225 116.117C305.102 117.337 304.807 118.533 304.349 119.671C303.914 120.826 303.295 121.903 302.515 122.861C302.759 121.668 303.114 120.501 303.572 119.373C304.01 118.234 304.564 117.143 305.225 116.117Z" fill="#263238"/>
<path d="M0 86.86H95V37H0V86.86Z" fill="#455A64"/>
<path d="M109.7 86.8608H95V71.5508L109.7 86.8608Z" fill="#455A64"/>
<path d="M85.8999 45.6191H9.08984V46.5691H85.8999V45.6191Z" fill="white"/>
<path d="M56.7198 50.7402H9.08984V51.6902H56.7198V50.7402Z" fill="white"/>
<path d="M74.3398 60.9707H9.08984V61.9207H74.3398V60.9707Z" fill="white"/>
<path d="M85.8999 66.0898H9.08984V67.0398H85.8999V66.0898Z" fill="white"/>
<path d="M85.8999 71.1992H9.08984V72.1492H85.8999V71.1992Z" fill="white"/>
<path d="M46.9599 76.3203H9.08984V77.2703H46.9599V76.3203Z" fill="white"/>
</svg>
