<!-- 
https://www.figma.com/ 
I used this resource to layout my images and pages for this program
https://undraw.co/ 
I used this resource to find free vector stock images for my program so the images 
are displayed with high-quality 
 -->
<svg width="500" height="257" viewBox="0 0 500 257" fill="none" xmlns="http://www.w3.org/2000/svg">
<path d="M491.15 253.339C487.565 254.729 383.48 256.605 379.409 254.284C378.964 254.02 379.089 249.42 377.56 237.608C377.491 237.053 375.115 234.829 371.404 231.73C357.508 220.071 324.782 195.474 324.782 195.474L376.713 150.283L427.046 199.755L440.136 212.609C440.136 212.609 482.659 235.58 486.87 238.609C491.08 241.638 494.735 251.963 491.15 253.339Z" fill="#AD6359"/>
<path d="M491.15 253.34C487.565 254.729 383.481 256.605 379.409 254.285C378.978 254.021 379.103 249.435 377.561 237.609C377.491 237.053 375.115 234.83 371.405 231.731C366.569 227.673 364.262 225.825 357.063 220.211L423.099 195.934L427.06 199.825L440.136 212.693C440.136 212.693 482.673 235.65 486.87 238.679C491.067 241.708 494.736 251.964 491.15 253.34Z" fill="#EBEBEB"/>
<path d="M498.321 254.771C494.708 256.035 383.814 257.244 379.826 254.771C378.881 254.201 378.02 247.753 377.339 238.929C377.255 237.831 366.013 228.854 364.484 227.186L432.438 204.299L441.012 212.373C441.012 212.373 491.039 235.635 495.111 238.776C499.183 241.916 501.934 253.52 498.321 254.771Z" fill="#5375E2"/>
<path d="M496.778 250.631C479.366 250.409 402.074 251.159 384.843 252.257C384.704 252.257 384.704 252.354 384.843 252.368C402.102 252.966 479.338 251.659 496.792 250.978C497.154 250.909 497.154 250.645 496.778 250.631Z" fill="#263238"/>
<path d="M446.557 213.123C439.692 211.914 431.271 213.123 426.143 218.014C425.935 218.209 426.212 218.487 426.435 218.417C432.96 216.226 439.701 214.74 446.543 213.984C446.657 213.986 446.767 213.943 446.85 213.863C446.932 213.784 446.979 213.675 446.981 213.561C446.982 213.446 446.939 213.336 446.859 213.254C446.78 213.172 446.671 213.125 446.557 213.123Z" fill="#263238"/>
<path d="M451.531 216.041C444.667 214.846 436.245 216.041 431.118 220.932C430.923 221.127 431.187 221.419 431.409 221.335C437.917 219.148 444.639 217.662 451.462 216.902C451.576 216.912 451.689 216.875 451.777 216.801C451.864 216.727 451.918 216.621 451.928 216.506C451.937 216.392 451.9 216.279 451.826 216.192C451.752 216.104 451.646 216.05 451.531 216.041Z" fill="#263238"/>
<path d="M456.52 218.974C449.655 217.765 441.234 218.974 436.106 223.866C435.898 224.061 436.176 224.338 436.398 224.269C442.923 222.078 449.665 220.592 456.506 219.836C456.621 219.838 456.731 219.794 456.813 219.715C456.895 219.635 456.942 219.526 456.944 219.412C456.946 219.298 456.902 219.188 456.823 219.105C456.743 219.023 456.634 218.976 456.52 218.974Z" fill="#263238"/>
<path d="M461.495 221.892C454.63 220.697 446.209 221.892 441.081 226.784C440.887 226.979 441.151 227.257 441.373 227.187C447.899 224.996 454.64 223.51 461.481 222.754C461.596 222.756 461.706 222.712 461.788 222.633C461.87 222.553 461.917 222.444 461.919 222.33C461.921 222.216 461.877 222.106 461.798 222.024C461.718 221.941 461.61 221.894 461.495 221.892Z" fill="#263238"/>
<path d="M459.022 197.128C456.243 193.446 451.295 195.169 448.461 197.615C443.677 201.885 440.102 207.339 438.094 213.429C438.085 213.456 438.083 213.486 438.088 213.514C438.092 213.542 438.102 213.57 438.118 213.593C438.134 213.617 438.155 213.637 438.18 213.652C438.204 213.667 438.232 213.676 438.261 213.679C438.261 214.193 438.761 214.749 439.345 214.527C444.973 212.359 451.268 210.747 456.02 206.925C458.869 204.688 461.621 200.603 459.022 197.128ZM447.21 209.496C444.431 210.622 441.651 211.622 438.983 212.845C440.914 209.708 443.001 206.671 445.237 203.743C446.343 202.341 447.541 201.013 448.822 199.769C450.851 197.893 458.869 193.849 457.757 201.381C457.132 205.536 450.489 208.148 447.21 209.496Z" fill="#263238"/>
<path d="M420.653 211.846C426.323 214.194 432.827 213.986 438.83 214.5C438.964 214.5 439.096 214.468 439.215 214.408C439.335 214.347 439.438 214.258 439.517 214.15C439.595 214.041 439.647 213.916 439.668 213.783C439.689 213.651 439.678 213.516 439.636 213.388C439.664 213.38 439.689 213.366 439.71 213.346C439.731 213.326 439.747 213.302 439.756 213.275C439.766 213.247 439.769 213.218 439.765 213.19C439.761 213.161 439.75 213.134 439.733 213.11C436.108 207.817 431.159 203.567 425.378 200.784C421.974 199.242 416.693 198.964 415.095 203.258C413.566 207.26 417.332 210.484 420.653 211.846ZM417.499 206.996C414.331 200.048 423.169 201.729 425.628 202.966C427.202 203.792 428.72 204.72 430.172 205.745C433.216 207.858 435.912 210.359 438.719 212.694C435.773 212.263 432.827 212.082 429.881 211.762C426.351 211.429 419.25 210.818 417.499 206.996Z" fill="#263238"/>
<path d="M427.838 196.989L363.636 230.257C363.636 230.257 296.683 169.738 290.555 169.266C284.427 168.793 194.447 229.868 149.145 230.063C102.23 230.257 99.854 181.106 99.854 181.106L168.294 165.389C217.64 141.07 269.029 97.3934 302.631 101.465C339.137 105.898 427.838 196.989 427.838 196.989Z" fill="#263238"/>
<path d="M412.079 188.526C401.254 193.876 404.283 192.195 393.5 197.67C388.233 200.338 361.677 213.734 357.174 217.055C357.077 217.125 357.174 217.306 357.285 217.264C362.594 215.485 388.844 201.519 394.069 198.754C404.742 193.084 401.615 194.585 412.246 188.818C412.265 188.807 412.282 188.792 412.295 188.775C412.309 188.757 412.319 188.737 412.325 188.716C412.33 188.695 412.332 188.673 412.329 188.651C412.326 188.629 412.319 188.608 412.308 188.589C412.297 188.569 412.283 188.553 412.265 188.539C412.248 188.526 412.228 188.516 412.207 188.51C412.185 188.504 412.163 188.502 412.141 188.505C412.119 188.508 412.098 188.515 412.079 188.526Z" fill="#37474F"/>
<path d="M352.2 214.93C339.693 203.813 298.518 167.821 296.851 166.487C295.558 165.249 294.121 164.171 292.571 163.277C291.93 163.026 291.24 162.924 290.553 162.98C289.867 163.035 289.203 163.246 288.61 163.597C286.706 164.486 284.844 165.459 282.954 166.376L271.837 171.809C257.454 178.827 243.141 186.039 228.647 192.821C214.751 199.352 204.759 205.494 190.209 210.511C175.737 215.618 160.766 219.186 145.546 221.156C143.67 221.378 141.794 221.573 139.904 221.753C139.887 221.747 139.869 221.745 139.852 221.747C139.834 221.75 139.817 221.756 139.802 221.766C139.787 221.777 139.775 221.79 139.767 221.806C139.759 221.822 139.754 221.84 139.754 221.858C139.754 221.875 139.759 221.893 139.767 221.909C139.775 221.925 139.787 221.939 139.802 221.949C139.817 221.959 139.834 221.966 139.852 221.968C139.869 221.97 139.887 221.968 139.904 221.962C154.839 221.082 169.605 218.337 183.859 213.791C198.269 209.358 208.066 203.605 221.754 197.296C235.956 190.764 249.95 183.774 263.944 176.826C271.323 173.157 278.702 169.447 286.109 165.82C287.79 165 290.18 163.208 292.098 164.097C292.9 164.544 293.642 165.09 294.308 165.723L296.767 167.78C299.95 170.42 350.352 213.832 352.006 215.027C352.145 215.194 352.311 215.027 352.2 214.93Z" fill="#37474F"/>
<path d="M99.7295 181.106C99.7295 181.106 92.0448 225.491 114.237 242.931C136.43 260.371 299.06 258.217 323.712 250.296C348.365 242.375 349.157 202.506 322.184 193.321C296.531 184.552 187.388 180.286 184.706 179.202C184.025 178.938 194.434 172.726 194.336 172.351L169.504 164.764L99.7295 181.106Z" fill="#263238"/>
<path d="M133.414 179.981C133.414 179.8 133.08 179.856 133.08 179.981C133.085 185.14 131.269 190.135 127.952 194.086C124.172 198.449 118.6 200.881 113.556 203.438C113.069 203.688 113.444 204.439 113.945 204.3C117.045 203.343 120.032 202.053 122.852 200.45C125.443 199.071 127.727 197.18 129.564 194.892C131.199 192.806 132.385 190.405 133.048 187.839C133.71 185.273 133.835 182.597 133.414 179.981Z" fill="#37474F"/>
<path d="M182.913 174.493C181.787 173.103 180.564 171.713 179.383 170.324C176.604 167.016 173.825 163.695 170.892 160.499C170.628 160.193 170.086 160.624 170.336 160.957C172.296 163.528 174.38 166.002 176.423 168.503C177.465 169.796 178.522 171.074 179.578 172.339C180.678 173.486 181.665 174.738 182.524 176.077C183.274 177.466 182.274 178.717 180.801 178.856C179.496 178.89 178.227 178.423 177.257 177.55C175.055 175.598 173.04 173.444 171.24 171.116C170.072 169.726 168.891 168.489 167.71 167.183C166.529 165.877 165.098 164.487 163.833 163.111C163.814 163.099 163.792 163.093 163.769 163.094C163.746 163.095 163.724 163.102 163.706 163.116C163.688 163.13 163.674 163.148 163.667 163.17C163.66 163.192 163.66 163.215 163.666 163.237C164.778 164.751 165.792 166.335 166.89 167.836C167.988 169.337 169.114 170.852 170.253 172.339C171.393 173.826 172.449 175.118 173.588 176.508C174.543 177.702 175.689 178.73 176.979 179.551C179.091 180.788 182.76 181.052 183.927 178.328C184.125 177.657 184.136 176.945 183.957 176.268C183.778 175.592 183.417 174.978 182.913 174.493Z" fill="#37474F"/>
<path d="M320.335 250.435C311.845 250.602 303.354 251.089 294.863 251.269C286.373 251.45 278.007 251.506 269.572 251.422C252.646 251.255 235.734 250.598 218.836 249.449C201.771 248.268 183.358 246.572 166.418 244.224C158.303 243.098 150.076 242.167 142.058 240.444C134.854 239.067 128.191 235.663 122.853 230.633C111.875 219.974 107.567 204.327 105.858 189.361C105.622 187.36 105.427 185.345 105.26 183.33C105.26 183.191 105.052 183.204 105.052 183.33C106.052 198.616 108.429 214.652 118.087 226.978C122.147 232.376 127.565 236.6 133.79 239.221C141.391 242.264 149.812 242.973 157.83 244.071C174.854 246.378 193.322 248.156 210.442 249.491C227.563 250.825 244.933 251.658 262.207 251.909C279.48 252.159 296.781 251.908 314.026 251.075C316.139 250.964 318.195 250.838 320.335 250.658C320.365 250.658 320.393 250.646 320.414 250.625C320.435 250.604 320.447 250.576 320.447 250.547C320.447 250.517 320.435 250.489 320.414 250.468C320.393 250.447 320.365 250.435 320.335 250.435Z" fill="#37474F"/>
<path d="M266.778 185.191C261.428 184.413 256.092 183.635 250.714 183.079C245.336 182.523 239.847 182.023 234.413 181.564C223.657 180.661 212.874 179.841 202.09 179.327C195.962 179.049 189.834 179.021 183.705 179.091C183.497 179.091 183.525 179.383 183.705 179.397C194.489 180.369 205.286 181.05 216.084 181.773C226.881 182.495 237.623 183.426 248.379 184.455C254.48 185.038 260.58 185.483 266.695 185.983C267.139 186.025 267.223 185.261 266.778 185.191Z" fill="#37474F"/>
<path d="M195.601 171.768C191.296 173.628 187.155 175.845 183.219 178.396C179.219 180.797 175.393 183.477 171.769 186.415C171.671 186.498 171.769 186.623 171.894 186.581C176.063 184.636 180.134 182.204 184.136 179.869C188.194 177.598 192.111 175.082 195.865 172.337C196.129 172.143 195.962 171.629 195.601 171.768Z" fill="#37474F"/>
<path d="M244.614 29.9114L228.966 72.9903C228.369 74.241 228.966 75.3666 230.189 75.4917L253.021 77.8124C253.723 77.834 254.416 77.6545 255.02 77.295C255.623 76.9355 256.111 76.4111 256.426 75.7835L272.087 32.7046C272.685 31.4539 272.087 30.3282 270.864 30.2032L248.032 27.8825C247.329 27.8616 246.634 28.0412 246.028 28.4005C245.423 28.7597 244.932 29.2837 244.614 29.9114Z" fill="#A6A6A6"/>
<path d="M247.338 30.1615L231.676 73.2404C231.079 74.4911 231.676 75.6167 232.899 75.7418L255.731 78.0625C256.435 78.0834 257.13 77.9038 257.735 77.5445C258.34 77.1853 258.831 76.6613 259.15 76.0336L274.797 32.9547C274.962 32.7234 275.061 32.452 275.085 32.169C275.109 31.886 275.057 31.6017 274.933 31.346C274.809 31.0903 274.619 30.8725 274.383 30.7155C274.146 30.5584 273.872 30.4678 273.588 30.4533L250.742 28.1326C250.04 28.111 249.347 28.2905 248.744 28.6499C248.14 29.0094 247.653 29.5339 247.338 30.1615Z" fill="#C7C7C7"/>
<path d="M253.396 32.8166C253.33 33.3301 253.064 33.7967 252.655 34.1143C252.246 34.432 251.728 34.5749 251.214 34.512C250.96 34.4828 250.714 34.4033 250.49 34.2781C250.267 34.153 250.071 33.9846 249.913 33.7829C249.755 33.5812 249.639 33.3501 249.572 33.1031C249.504 32.8561 249.486 32.5981 249.519 32.3441C249.618 31.8622 249.895 31.4351 250.294 31.1479C250.694 30.8606 251.187 30.7342 251.675 30.7937C252.164 30.8532 252.612 31.0943 252.931 31.4691C253.25 31.8439 253.416 32.325 253.396 32.8166Z" fill="#263238"/>
<path d="M164.792 92.7125C174.659 121.645 199.783 153.371 208.899 156.733C214.277 158.721 224.046 161.153 232.259 155.427C250.186 142.92 269.488 119.019 273.949 103.649C275.561 98.1877 249.783 83.124 245.28 87.2095C234.733 96.7981 216.334 120.881 214.708 120.561C208.621 119.408 191.584 98.3267 175.798 83.0406C161.096 68.8801 160.859 81.1924 164.792 92.7125Z" fill="#AD6359"/>
<path d="M277.868 74.923C276.242 63.2917 274.046 60.5541 277.868 50.0206C280.397 43.0724 277.062 38.5282 271.392 43.6699C262.109 52.0912 261.053 67.5301 262.22 72.9914L277.868 74.923Z" fill="#AD6359"/>
<path d="M272.197 108.357C272.197 108.357 278.993 93.1547 278.493 80.5645C278.159 71.8653 275.296 53.0496 252.437 40.7512C247.017 37.833 237.151 37.5273 244.349 45.5038C249.407 51.1736 254.327 53.2441 256.675 57.0795C256.675 57.0795 244.168 58.1635 241.459 63.7082C239.091 68.5568 237.071 73.5675 235.414 78.7024C236.287 79.2215 237.192 79.6856 238.123 80.092C238.123 80.092 236.081 85.5116 239.277 93.7244L272.197 108.357Z" fill="#AD6359"/>
<path d="M276.783 72.3538C273.657 69.0325 266.903 62.126 259.413 58.4573C251.075 54.2884 233.955 48.563 230.953 54.747C228.757 59.2633 235.122 62.0287 235.122 62.0287C235.122 62.0287 227.534 61.1532 226.437 65.6835C225.45 69.8524 230.494 71.645 230.494 71.645C230.494 71.645 225.797 71.9091 225.603 76.0502C225.367 81.0529 235.247 79.6911 239.388 84.9578C240.319 86.0834 276.783 72.3538 276.783 72.3538Z" fill="#AD6359"/>
<path d="M256.509 67.9197C250.212 63.7888 242.805 61.6752 235.275 61.8609C235.081 61.8609 234.997 62.0276 235.164 62.0554C242.479 63.1642 249.632 65.1567 256.467 67.9892C256.467 67.9892 256.537 67.9475 256.509 67.9197Z" fill="#263238"/>
<path d="M252.076 76.1891C248.866 74.2297 239.013 70.6305 230.522 71.4226C230.342 71.4226 230.258 71.6033 230.425 71.6172C237.786 72.3451 245.04 73.9069 252.048 76.2724C252.048 76.2724 252.117 76.2169 252.076 76.1891Z" fill="#263238"/>
<path d="M232.941 96.9911L276.895 129.731C276.895 129.731 242.613 161.596 232.149 162.944C222.927 163.924 213.607 162.582 205.037 159.039C199.311 156.51 175.312 122.324 164.084 95.4764C152.855 68.6285 167.544 70.8102 177.549 81.4271C187.555 92.044 213.68 118.614 215.209 118.169C216.737 117.725 232.941 96.9911 232.941 96.9911Z" fill="#A6A6A6"/>
<path d="M264.791 136.663C249.352 121.975 230.925 108.871 227.882 106.425C227.729 106.3 227.562 106.55 227.715 106.661C230.828 108.968 250.283 126.199 264.61 136.928C264.777 137.053 264.944 136.802 264.791 136.663Z" fill="#263238"/>
<path d="M198.658 152.868C189.069 141.348 172.755 116.223 164.084 95.4759C156.357 76.9936 160.915 72.2688 167.766 74.6312L168.002 75.2288L198.658 152.868Z" fill="#263238"/>
<path d="M193.711 177.063L97.7563 182.622C97.8675 180.662 112.139 123.548 122.937 102.592C136.833 75.7303 143.656 73.7014 147.77 72.3257C153.023 70.5747 162.278 71.7142 164.445 72.7982C166.919 74.0211 174.562 88.0843 177.188 98.3537C182.469 118.948 195.018 175.84 193.711 177.063Z" fill="#DBDBDB"/>
<path d="M147.894 130.606C146.729 130.166 145.508 129.885 144.267 129.773C145.268 130.512 146.373 131.097 147.547 131.51C148.722 131.95 149.952 132.231 151.202 132.343C150.187 131.611 149.073 131.026 147.894 130.606ZM174.298 101.424C173.129 100.974 171.904 100.688 170.657 100.576C171.66 101.319 172.771 101.905 173.95 102.313C175.122 102.766 176.353 103.052 177.605 103.161C176.588 102.445 175.475 101.879 174.298 101.479V101.424ZM164.737 176.354C163.565 175.904 162.334 175.628 161.082 175.534C162.093 176.271 163.208 176.857 164.389 177.271C165.559 177.713 166.784 177.993 168.03 178.104C167.017 177.388 165.909 176.817 164.737 176.409V176.354ZM119.587 109.984C119.49 110.177 119.406 110.377 119.337 110.582C119.845 110.694 120.361 110.764 120.88 110.79C120.469 110.491 120.037 110.221 119.587 109.984ZM187.986 145.267C187.427 144.978 186.851 144.723 186.262 144.503C185.097 144.046 183.87 143.765 182.622 143.669C183.635 144.404 184.749 144.989 185.929 145.406C186.652 145.68 187.396 145.899 188.152 146.059L187.986 145.267ZM130.037 176.409C128.87 175.961 127.643 175.685 126.397 175.589C127.403 176.327 128.513 176.912 129.69 177.326C130.86 177.768 132.085 178.049 133.331 178.16C132.325 177.418 131.215 176.828 130.037 176.409ZM192.738 177.118H193.475C193.591 176.63 193.666 176.132 193.697 175.631C193.331 176.095 193.01 176.593 192.738 177.118ZM147.728 161.679C147.27 162.84 146.989 164.062 146.894 165.306C148.338 163.251 149.223 160.857 149.465 158.358C148.731 159.377 148.146 160.495 147.728 161.679ZM164 119.461C163.556 120.63 163.28 121.856 163.18 123.102C163.913 122.088 164.498 120.974 164.917 119.795C165.371 118.633 165.652 117.411 165.751 116.168C165.02 117.181 164.431 118.289 164 119.461ZM167.016 83.7893C166.567 84.9613 166.29 86.1925 166.196 87.4441C166.938 86.4285 167.536 85.3156 167.975 84.1367C168.417 82.9723 168.693 81.7513 168.795 80.5098C168.05 81.5139 167.452 82.618 167.016 83.7893ZM176.465 161.331C175.323 161.845 174.257 162.513 173.297 163.319C175.771 162.884 178.091 161.822 180.037 160.234C178.796 160.448 177.593 160.841 176.465 161.401V161.331ZM130.607 152.716C129.464 153.228 128.397 153.896 127.439 154.703C128.671 154.501 129.869 154.127 130.996 153.591C132.145 153.095 133.213 152.43 134.165 151.618C132.936 151.807 131.742 152.177 130.621 152.716H130.607ZM138.389 111.874C137.249 112.392 136.184 113.061 135.221 113.861C137.694 113.427 140.015 112.364 141.961 110.776C140.728 110.97 139.53 111.339 138.403 111.874H138.389ZM183.539 125.131C182.459 125.631 181.449 126.271 180.537 127.035C181.644 126.857 182.724 126.535 183.747 126.076L183.539 125.131ZM109.151 165.723C108.655 164.574 107.989 163.506 107.178 162.554C107.366 163.788 107.736 164.987 108.276 166.112C108.782 167.258 109.451 168.325 110.263 169.28C110.066 168.049 109.696 166.851 109.165 165.723H109.151ZM125.438 132.941C124.931 131.798 124.266 130.732 123.464 129.773C123.89 132.242 124.948 134.559 126.535 136.499C126.35 135.266 125.985 134.068 125.452 132.941H125.438ZM164.987 145.114C164.465 143.981 163.797 142.92 163 141.96C163.203 143.196 163.577 144.398 164.111 145.531C164.612 146.673 165.276 147.736 166.085 148.686C165.897 147.449 165.532 146.246 165.001 145.114H164.987ZM150.91 95.4206C150.413 94.2722 149.748 93.2043 148.937 92.2522C149.125 93.4858 149.495 94.6846 150.034 95.8097C150.541 96.9526 151.206 98.019 152.008 98.9781C151.828 97.7443 151.463 96.5448 150.924 95.4206H150.91Z" fill="#A6A6A6"/>
<path d="M166.251 89.3357C160.79 90.642 151.382 82.3875 147.658 75.5782C147.394 75.1057 148.089 70.2142 148.658 64.2387C148.978 60.5978 149.256 56.5401 149.242 52.8297C149.242 52.0654 172.574 58.3883 172.574 58.3883C171.268 63.0441 170.531 67.8408 170.379 72.6738C170.39 73.1872 170.446 73.6987 170.545 74.2025C170.545 74.2766 170.545 74.3599 170.545 74.4526C171.059 77.3569 171.532 88.0572 166.251 89.3357Z" fill="#AD6359"/>
<path d="M150.673 52.9121C151.785 59.1933 155.746 74.3682 168.197 74.6045C168.991 74.6247 169.786 74.5782 170.573 74.4655C170.588 74.3828 170.588 74.2981 170.573 74.2154C170.473 73.7116 170.418 73.2002 170.406 72.6868C170.55 67.8529 171.287 63.0551 172.602 58.4012C172.602 58.4012 155.746 53.8293 150.673 52.9121Z" fill="#263238"/>
<path d="M148.145 23.3545C144.796 31.3311 146.755 55.5387 152.008 61.4308C159.693 69.9771 173.506 72.131 181.079 62.612C188.417 53.3708 185.373 21.8815 179.328 16.3924C170.435 8.31857 153.092 11.5981 148.145 23.3545Z" fill="#AD6359"/>
<path d="M169.92 40.252C169.92 40.252 169.795 40.3492 169.809 40.4187C170.045 42.0307 170.031 43.9345 168.628 44.5876C168.628 44.5876 168.628 44.6988 168.628 44.6849C170.421 44.268 170.393 41.7528 169.92 40.252Z" fill="#263238"/>
<path d="M168.28 38.7236C165.64 38.8209 166.015 44.0877 168.461 43.9904C170.907 43.8931 170.49 38.6403 168.28 38.7236Z" fill="#263238"/>
<path d="M179.092 39.6387C179.092 39.6387 179.231 39.7082 179.231 39.7776C179.3 41.4174 179.648 43.2656 181.162 43.7103C181.162 43.7103 181.162 43.8076 181.162 43.7937C179.286 43.6825 178.855 41.1951 179.092 39.6387Z" fill="#263238"/>
<path d="M180.384 37.8331C182.997 37.444 183.58 42.6968 181.162 43.0442C178.744 43.3917 178.202 38.1666 180.384 37.8331Z" fill="#263238"/>
<path d="M166.14 35.554C166.818 35.3039 167.481 35.0163 168.127 34.6924C168.872 34.4922 169.528 34.0467 169.989 33.4278C170.113 33.2016 170.155 32.9391 170.107 32.6856C170.059 32.432 169.924 32.2032 169.725 32.0382C169.311 31.7793 168.836 31.634 168.349 31.6169C167.861 31.5999 167.377 31.7116 166.946 31.9409C166.002 32.2922 165.217 32.9734 164.736 33.8586C164.628 34.067 164.584 34.3026 164.609 34.536C164.634 34.7694 164.727 34.9904 164.877 35.1712C165.026 35.352 165.226 35.4848 165.451 35.5528C165.675 35.6209 165.915 35.6213 166.14 35.554Z" fill="#263238"/>
<path d="M182.649 35.0251C181.912 35.0251 181.259 34.8861 180.495 34.8027C179.726 34.8219 178.97 34.5929 178.341 34.1496C178.165 33.9674 178.055 33.7311 178.03 33.4789C178.005 33.2267 178.065 32.9734 178.202 32.7599C178.523 32.3852 178.938 32.1027 179.405 31.9415C179.871 31.7803 180.372 31.7462 180.856 31.8428C181.866 31.8782 182.824 32.2953 183.538 33.0101C183.707 33.1785 183.82 33.394 183.864 33.6281C183.908 33.8623 183.88 34.1041 183.783 34.3221C183.687 34.54 183.528 34.7237 183.325 34.8492C183.123 34.9746 182.887 35.0359 182.649 35.0251Z" fill="#263238"/>
<path d="M169.656 50.606C170.117 51.2213 170.701 51.7341 171.371 52.112C172.041 52.4899 172.782 52.7248 173.547 52.8017C174.21 52.8982 174.884 52.8982 175.548 52.8017C175.676 52.8 175.803 52.7765 175.923 52.7322L176.27 52.6627C176.357 52.6411 176.435 52.5911 176.49 52.5206C176.545 52.4501 176.576 52.3632 176.576 52.2736C176.584 52.2183 176.584 52.1622 176.576 52.1069V51.9679C176.576 50.7033 176.257 48.7995 176.257 48.7995C176.729 48.9941 179.147 49.8834 179.036 49.2303C178.48 43.5714 177.348 37.9839 175.659 32.5546C175.649 32.5235 175.63 32.4963 175.604 32.477C175.577 32.4577 175.546 32.4473 175.513 32.4473C175.481 32.4473 175.449 32.4577 175.423 32.477C175.396 32.4963 175.377 32.5235 175.367 32.5546C175.854 37.7796 177.257 42.8796 177.827 48.1325C176.966 47.8026 176.063 47.5968 175.145 47.521C174.964 47.5905 175.715 51.1897 175.701 51.7595C174.678 51.9321 173.631 51.898 172.621 51.6594C171.611 51.4207 170.66 50.9822 169.823 50.3698C169.67 50.3698 169.545 50.481 169.656 50.606Z" fill="#263238"/>
<path d="M174.201 52.7297C173.496 53.5171 172.601 54.1104 171.602 54.4529C171.056 54.6331 170.467 54.6331 169.921 54.4529C168.725 54.0499 168.767 52.9381 169.059 51.9932C169.222 51.5062 169.441 51.0398 169.712 50.6035C170.947 51.7678 172.518 52.512 174.201 52.7297Z" fill="#263238"/>
<path d="M171.602 54.3991C171.056 54.5793 170.467 54.5793 169.921 54.3991C168.725 53.9961 168.767 52.8844 169.059 51.9395C169.696 52.0075 170.293 52.2865 170.753 52.7321C171.214 53.1777 171.513 53.7644 171.602 54.3991Z" fill="#FF9BBC"/>
<path d="M144.92 41.7246C151.146 42.7946 155.19 35.6519 154.342 29.4957C154.342 29.4957 170.782 33.4146 172.963 20.1018C173.95 22.0398 175.4 23.7045 177.184 24.948C178.968 26.1916 181.031 26.9757 183.191 27.2306L184.581 32.3584C186.346 32.0388 188.666 27.3557 184.873 23.1173C184.873 23.1173 185.262 16.4053 180.704 11.9029C179.488 10.6051 177.921 9.68936 176.194 9.26739C174.466 8.84542 172.653 8.93547 170.976 9.52655C168.289 7.12966 164.777 5.86922 161.179 6.01075C159.292 6.12433 157.459 6.68824 155.835 7.65531C154.21 8.62238 152.84 9.96448 151.841 11.5693C151.841 11.5693 143.42 12.3058 141.418 18.0312C140.812 19.6412 140.553 21.3613 140.659 23.0785C140.764 24.7956 141.231 26.4711 142.03 27.9949C142.03 27.9949 139.723 30.0933 140.265 35.2072C140.682 38.4451 143.044 41.3911 144.92 41.7246Z" fill="#263238"/>
<path d="M172.713 18.8789C172.73 19.9753 172.628 21.0703 172.408 22.1446C172.231 23.216 171.923 24.2615 171.49 25.2574C170.639 27.2202 169.082 28.7922 167.127 29.6626C165.125 30.457 162.964 30.7711 160.818 30.5797C159.748 30.4268 158.65 30.3574 157.58 30.1628C156.51 29.9683 155.426 29.6903 154.342 29.4958C155.371 29.8571 156.441 30.1767 157.497 30.5241C158.553 30.8715 159.679 30.9549 160.776 31.1634C163.031 31.464 165.325 31.1916 167.447 30.3712C169.555 29.4015 171.201 27.6461 172.032 25.4797C172.815 23.3727 173.05 21.1013 172.713 18.8789Z" fill="#263238"/>
<path d="M180.482 27.4951C178.717 26.6936 177.1 25.5988 175.701 24.2572C175.023 23.5909 174.434 22.8388 173.95 22.0199C173.47 21.172 173.088 20.2722 172.811 19.3379C172.797 20.3528 173.006 21.3584 173.422 22.284C173.822 23.2294 174.408 24.0848 175.145 24.7992C175.894 25.5367 176.757 26.1469 177.702 26.6057C178.575 27.0502 179.513 27.3506 180.482 27.4951Z" fill="#263238"/>
<path d="M151.299 43.2791C151.299 43.2791 146.561 35.1497 142.961 36.7755C139.362 38.4014 142.447 49.8938 146.422 51.7559C146.914 52.0314 147.457 52.2041 148.018 52.2635C148.58 52.3229 149.147 52.2678 149.686 52.1015C150.225 51.9352 150.725 51.6612 151.155 51.296C151.585 50.9309 151.937 50.4822 152.189 49.9772L151.299 43.2791Z" fill="#AD6359"/>
<path d="M143.809 40.002V40.1131C146.588 41.5028 147.88 44.282 148.714 47.1586C148.571 46.8566 148.365 46.5891 148.109 46.3747C147.853 46.1604 147.553 46.0041 147.23 45.9169C146.908 45.8297 146.571 45.8136 146.241 45.8696C145.912 45.9256 145.599 46.0525 145.323 46.2414C145.24 46.2414 145.323 46.4221 145.323 46.4082C145.846 46.2815 146.395 46.3219 146.894 46.5238C147.393 46.7258 147.815 47.079 148.103 47.5338C148.573 48.2863 148.959 49.0878 149.256 49.924C149.381 50.2019 149.854 50.0908 149.784 49.7989V49.7295C150.145 46.0608 147.713 40.6968 143.809 40.002Z" fill="#263238"/>
<path d="M138.194 79.4112C105.732 113.207 58.4006 198.782 52.5502 211.052C48.5759 219.39 92.1134 241.346 93.9616 235.288C96.3379 227.52 134.261 131.759 144.35 95.6284C149.909 75.6731 144.892 72.463 138.194 79.4112Z" fill="#AD6359"/>
<path d="M96.0188 229.494C94.5041 233.663 89.3346 251.256 85.7077 253.451C82.0807 255.647 63.1259 255.174 53.5513 255.174C43.9766 255.174 42.1006 252.52 42.2674 249.227C42.4341 245.933 62.4867 245.294 62.4867 245.294C62.4867 245.294 35.6805 253.021 29.0102 254.285C22.3399 255.55 6.77586 259.455 4.48295 253.868C3.46851 251.339 7.73472 248.796 7.73472 248.796C7.73472 248.796 1.20339 250.7 0.175052 247.406C-1.00615 243.724 4.17722 241.695 4.17722 241.695C4.17722 241.695 0.105566 242.515 0.00829053 239.513C-0.269638 232.829 25.2164 229.494 25.2164 229.494C25.2164 229.494 5.76142 238.999 5.08049 233.51C4.20502 225.922 44.2129 217.598 48.3818 214.291C51.1037 211.994 53.3669 209.202 55.0521 206.064L96.0188 229.494Z" fill="#AD6359"/>
<path d="M42.4065 250.936C42.3424 250.469 42.391 249.993 42.5481 249.548C42.7052 249.103 42.9664 248.703 43.3098 248.379C44.0054 247.737 44.8101 247.224 45.6861 246.865C47.4771 246.093 49.3387 245.498 51.2447 245.086C55.0106 244.127 58.8738 243.446 62.7231 242.446C58.7429 242.407 54.7738 242.874 50.9111 243.835C48.9413 244.293 47.0431 245.018 45.2692 245.989C44.3554 246.497 43.556 247.188 42.9207 248.018C42.5934 248.42 42.3744 248.9 42.2844 249.41C42.1945 249.921 42.2365 250.446 42.4065 250.936Z" fill="#263238"/>
<path d="M7.66553 248.795C10.4448 248.114 13.1407 247.336 15.8505 246.558C18.5603 245.78 21.2563 244.932 23.9661 244.126L32.0399 241.597C34.7173 240.754 37.4178 239.925 40.1415 239.109C37.3262 239.416 34.5356 239.917 31.7898 240.61C29.0105 241.236 26.2312 242 23.5908 242.861C20.9505 243.723 18.199 244.585 15.5587 245.641C12.9184 246.697 10.2364 247.558 7.66553 248.795Z" fill="#263238"/>
<path d="M33.6654 232.412C31.0621 232.575 28.4748 232.932 25.9251 233.482C20.8126 234.513 15.8237 236.083 11.042 238.165C8.64076 239.182 6.31832 240.376 4.09375 241.737C6.55342 240.889 8.95751 239.944 11.4033 239.124C13.8491 238.304 16.2948 237.457 18.7545 236.706C21.2142 235.956 23.6877 235.205 26.1613 234.469C28.6349 233.732 31.1501 233.093 33.6654 232.412Z" fill="#263238"/>
<path d="M29.7187 226.006C21.3027 226.737 13.1929 229.513 6.09473 234.094C10.0691 232.704 13.9184 231.189 17.865 229.925C21.8116 228.66 25.7165 227.298 29.7187 226.006Z" fill="#263238"/>
<path d="M143.948 104.954C136.235 138.083 99.4792 228.632 99.4792 228.632L66.4057 212.693L49.73 204.633C49.73 204.633 106.539 115.89 129.76 86.8605C131.557 84.637 133.201 82.724 134.693 81.1213C149.006 65.7796 149.909 79.412 143.948 104.954Z" fill="#A6A6A6"/>
<path d="M102.175 218.795C82.7199 207.497 60.5551 198.589 56.7892 196.755C56.6224 196.672 56.4974 196.963 56.678 197.047C60.4578 198.645 84.6932 211.583 102.05 219.114C102.258 219.198 102.356 218.906 102.175 218.795Z" fill="#263238"/>
<path d="M118.434 180.175L131.33 143.836C133.526 137.791 135.582 131.718 137.653 125.631C139.723 119.545 141.697 113.43 143.392 107.232C142.047 113.524 140.387 119.743 138.417 125.868C136.513 132.024 134.429 138.11 132.317 144.183C130.204 150.256 127.953 156.287 125.632 162.248C123.312 168.21 120.963 174.269 118.434 180.175Z" fill="#263238"/>
<path d="M144.239 111.152C143.889 112.411 143.39 113.624 142.753 114.765C142.44 115.338 142.092 115.89 141.71 116.419C141.337 116.962 140.903 117.46 140.418 117.906C140.96 116.697 141.53 115.571 142.141 114.432C142.757 113.287 143.458 112.191 144.239 111.152Z" fill="#263238"/>
<path d="M407.7 0H312.7V43.97H407.7V0Z" fill="#5375E2"/>
<path d="M298 43.9702H312.7V28.6602L298 43.9702Z" fill="#5375E2"/>
<path d="M390.97 22.9609H321.98V23.9109H390.97V22.9609Z" fill="white"/>
<path d="M380.16 28.0801H321.98V29.0301H380.16V28.0801Z" fill="white"/>
<path d="M383.31 12.7305H321.98V13.6805H383.31V12.7305Z" fill="white"/>
<path d="M397.04 7.61133H321.98V8.56133H397.04V7.61133Z" fill="white"/>
<path d="M384.49 33.1914H321.98V34.1414H384.49V33.1914Z" fill="white"/>
</svg>
