<!-- 
https://www.figma.com/ 
I used this resource to layout my images and pages for this program
https://undraw.co/ 
I used this resource to find free vector stock images for my program so the images 
are displayed with high-quality 
 -->
<svg width="317" height="199" viewBox="0 0 317 199" fill="none" xmlns="http://www.w3.org/2000/svg">
<path d="M200 89.8849H30.1521V197.597H200V89.8849Z" fill="#5375E2"/>
<g opacity="0.1">
<path d="M200 89.8849H30.1521V197.597H200V89.8849Z" fill="black"/>
</g>
<path d="M30.1521 89.8849H199.994V113.034L130.71 158.1C126.06 161.124 120.632 162.734 115.084 162.734C109.537 162.734 104.109 161.124 99.4594 158.1L30.1521 113.034V89.8849Z" fill="#5375E2"/>
<path opacity="0.2" d="M30.1521 89.8849H199.994V113.034L130.71 158.1C126.06 161.124 120.632 162.734 115.084 162.734C109.537 162.734 104.109 161.124 99.4594 158.1L30.1521 113.034V89.8849Z" fill="black"/>
<g opacity="0.1">
<path d="M179.232 183.417C186.145 188.162 193.137 192.779 199.994 197.597C192.711 193.468 185.535 189.131 178.313 184.896C171.092 180.661 163.915 176.302 156.789 171.887C149.379 167.372 141.97 162.796 134.564 158.161L133.617 158.783C131.833 160.019 129.96 161.121 128.015 162.083C121.916 164.962 115.029 165.717 108.451 164.229C106.285 163.719 104.174 162.998 102.149 162.077C100.202 161.117 98.3297 160.014 96.5461 158.778L95.6161 158.167C88.2098 162.787 80.7903 167.37 73.3578 171.915C66.2166 176.274 59.053 180.601 51.867 184.896C44.6231 189.131 37.4577 193.468 30.1633 197.597C37.0207 192.779 44.0125 188.162 50.9258 183.417C57.8877 178.778 64.8758 174.152 71.89 169.54C78.766 165.058 85.6513 160.596 92.546 156.156L91.3695 155.366L81.0611 148.475L75.9125 145.024L70.7863 141.533C57.1053 132.245 43.5138 122.827 30.1633 113.034C44.5279 121.264 58.6515 129.841 72.6911 138.603L77.9574 141.87L83.2012 145.181L93.6833 151.808C94.6245 152.396 95.5545 152.996 96.4845 153.595L98.8992 155.153C99.1513 155.321 99.4034 155.483 99.6499 155.635C101.035 156.558 102.484 157.382 103.986 158.1C105.729 158.874 107.544 159.477 109.404 159.898C111.272 160.277 113.172 160.476 115.079 160.492C118.909 160.511 122.697 159.698 126.183 158.111C127.686 157.389 129.137 156.564 130.525 155.64C130.771 155.489 131.018 155.326 131.27 155.164L133.656 153.623C134.598 153.018 135.539 152.413 136.491 151.819C143.483 147.416 150.436 142.945 157.478 138.615C171.517 129.875 185.641 121.247 200 113.034C186.65 122.821 173.058 132.245 159.377 141.533C152.565 146.211 145.657 150.761 138.799 155.366C138.407 155.629 138.015 155.892 137.617 156.15C144.534 160.587 151.429 165.069 158.301 169.596C165.282 174.134 172.268 178.778 179.232 183.417Z" fill="black"/>
</g>
<path d="M169.842 197.597H0V53.9231L84.9099 0L169.842 53.9231V197.597Z" fill="#5375E2"/>
<path opacity="0.1" d="M161.024 197.333H8.81812V58.5843L84.9099 10.2636L161.024 58.5843V197.333Z" fill="black"/>
<path d="M164.184 57.7439H5.66406V197.249H164.184V57.7439Z" fill="#EBEBEB"/>
<path d="M29.8888 95.2015L110.384 95.2015V90.686L29.8888 90.686V95.2015Z" fill="#DBDBDB"/>
<path d="M116.743 79.9966H141.494V75.4811H116.743V79.9966Z" fill="#DBDBDB"/>
<path d="M29.8944 106.602L106.065 106.602V102.087L29.8944 102.087V106.602Z" fill="#DBDBDB"/>
<path d="M29.8888 129.404H141.494V124.889L29.8888 124.889V129.404Z" fill="#DBDBDB"/>
<path d="M29.8888 140.799H141.494V136.284H29.8888V140.799Z" fill="#DBDBDB"/>
<path d="M29.8888 152.2H141.494V147.685H29.8888V152.2Z" fill="#DBDBDB"/>
<path d="M29.8888 163.596H141.494V159.08H29.8888V163.596Z" fill="#DBDBDB"/>
<path d="M169.842 89.8849V197.591H0V89.8849C7.28312 94.0195 14.4598 98.3557 21.6813 102.591C28.9028 106.827 36.0626 111.208 43.2057 115.594C51.1611 120.45 59.1109 125.365 67.0551 130.34C67.1335 130.289 67.2344 130.239 67.3072 130.189C67.2344 130.239 67.1839 130.312 67.1055 130.362C73.0515 134.067 78.9938 137.784 84.9324 141.511C90.8541 137.785 96.7926 134.037 102.737 130.362C102.658 130.312 102.608 130.239 102.535 130.189C102.613 130.241 102.698 130.282 102.787 130.312C110.72 125.363 118.67 120.45 126.637 115.572C133.782 111.206 140.949 106.879 148.139 102.591C155.382 98.3557 162.548 94.0195 169.842 89.8849Z" fill="#5375E2"/>
<g opacity="0.1">
<path d="M169.842 89.8849C162.985 94.7086 155.993 99.3249 149.08 104.07C142.116 108.709 135.13 113.353 128.116 117.942C120.791 122.737 113.454 127.49 106.104 132.2C105.874 132.357 105.672 132.508 105.443 132.659C98.9365 136.816 92.4153 140.973 85.8792 145.13L84.9212 145.718L83.9744 145.13C77.4494 140.973 70.9376 136.809 64.4388 132.637C64.2091 132.508 63.9794 132.357 63.7497 132.2C56.377 127.483 49.0303 122.722 41.7099 117.919C34.7237 113.353 27.7375 108.709 20.7737 104.07C13.8604 99.3249 6.86856 94.7086 0.0112305 89.8849C7.29435 94.0195 14.471 98.3557 21.6925 102.591C28.914 106.827 36.0739 111.208 43.2169 115.594C51.1723 120.45 59.1221 125.365 67.0663 130.34C67.0663 130.34 67.0663 130.34 67.1167 130.34C73.0628 134.045 79.005 137.761 84.9436 141.489C90.8653 137.763 96.8038 134.015 102.748 130.34C102.776 130.289 102.776 130.289 102.798 130.289C110.731 125.341 118.681 120.427 126.648 115.549C133.793 111.183 140.96 106.856 148.15 102.569C155.383 98.3557 162.548 94.0195 169.842 89.8849Z" fill="black"/>
<path d="M67.3072 130.189C67.2343 130.239 67.1839 130.312 67.1055 130.362C66.2147 131.13 65.3183 131.897 64.4275 132.637C60.1697 136.234 55.8054 139.673 51.3683 143.018C45.962 147.169 40.4269 151.091 34.8637 155.013C29.3005 158.934 23.6589 162.688 17.9276 166.363C12.1964 170.038 6.3979 173.646 0.408936 176.924C5.55754 172.408 10.9134 168.201 16.3197 164.094C21.7261 159.988 27.2892 156.021 32.8188 152.094C38.3484 148.167 44.0236 144.391 49.7829 140.721C54.3488 137.785 58.9876 134.906 63.7328 132.2C64.8533 131.561 65.9234 130.95 67.0495 130.34C67.1335 130.289 67.2343 130.239 67.3072 130.189Z" fill="black"/>
<path d="M169.433 176.941C163.444 173.646 157.629 170.05 151.915 166.38C146.2 162.71 140.564 158.878 134.95 155.013C129.337 151.147 123.858 147.169 118.451 143.018C114.037 139.657 109.672 136.256 105.443 132.659C104.524 131.897 103.627 131.13 102.737 130.362C102.658 130.312 102.608 130.239 102.535 130.189C102.613 130.241 102.698 130.282 102.787 130.312C103.908 130.95 105.028 131.561 106.104 132.2C110.849 134.906 115.465 137.802 120.054 140.721C125.819 144.368 131.421 148.217 136.99 152.094C142.559 155.971 148.088 159.976 153.494 164.111C158.901 168.246 164.285 172.425 169.433 176.941Z" fill="black"/>
</g>
<path d="M169.842 197.591H0V174.453L69.2848 129.387C73.9354 126.364 79.3631 124.755 84.9099 124.755C90.4568 124.755 95.8845 126.364 100.535 129.387L169.842 174.453V197.591Z" fill="#5375E2"/>
<path d="M143.143 186.942C142.978 189.081 149.093 189.696 151.645 188.31C153.707 186.826 155.67 185.21 157.521 183.471C163.655 178.054 172.12 170.13 172.12 170.13L178.4 172.949L209.057 183.159L221.985 149.702C221.985 149.702 207.157 143.431 193.045 137.811L186.664 135.296L186.278 135.149C176.812 131.476 168.971 128.722 168.163 129.319C165.996 130.824 143.308 184.784 143.143 186.942Z" fill="#F7A9A0"/>
<path d="M143.143 186.933C142.978 189.081 149.093 189.687 151.645 188.31C153.707 186.826 155.67 185.21 157.521 183.471C163.655 178.063 172.129 170.13 172.129 170.13L178.4 172.949L179.419 173.289L193.504 137.986L193.054 137.802L186.627 135.305C186.498 135.241 186.361 135.195 186.241 135.149C176.775 131.476 168.934 128.722 168.126 129.319C165.996 130.824 143.308 184.784 143.143 186.933Z" fill="#EBEBEB"/>
<path d="M142.601 187.722C142.73 185.528 165.151 130.301 167.346 128.74C168.163 128.134 176.399 130.934 186.26 134.598L186.563 134.717L172.497 170.525L171.9 170.259C171.9 170.259 153.867 187.566 151.278 189.026C148.689 190.486 142.455 189.917 142.601 187.722Z" fill="#C7C7C7"/>
<path d="M144.998 187.97C149.001 178.789 164.279 141.199 167.557 131.779C167.557 131.706 167.557 131.687 167.502 131.779C163.333 140.823 148.34 178.504 144.842 187.924C144.768 188.108 144.906 188.181 144.998 187.97Z" fill="#263238"/>
<path d="M170.78 174.409C172.946 171.021 174.204 166.311 172.735 162.473C172.68 162.326 172.46 162.409 172.451 162.537C172.164 166.499 171.45 170.418 170.32 174.225C170.315 174.281 170.327 174.337 170.356 174.385C170.385 174.433 170.429 174.47 170.481 174.491C170.533 174.511 170.59 174.515 170.644 174.5C170.698 174.485 170.745 174.453 170.78 174.409Z" fill="#263238"/>
<path d="M168.117 176.438C170.293 173.05 171.551 168.34 170.073 164.502C170.018 164.346 169.806 164.429 169.797 164.566C169.5 168.523 168.787 172.438 167.667 176.245C167.653 176.302 167.659 176.363 167.685 176.416C167.712 176.468 167.756 176.51 167.81 176.533C167.864 176.556 167.925 176.56 167.981 176.542C168.037 176.525 168.085 176.488 168.117 176.438Z" fill="#263238"/>
<path d="M165.454 178.431C167.621 175.043 168.879 170.342 167.41 166.495C167.355 166.348 167.135 166.43 167.125 166.568C166.839 170.527 166.125 174.442 164.995 178.247C164.99 178.303 165.002 178.359 165.031 178.406C165.06 178.454 165.104 178.491 165.156 178.512C165.207 178.533 165.265 178.536 165.319 178.521C165.372 178.507 165.42 178.475 165.454 178.431Z" fill="#263238"/>
<path d="M176.849 182.443C179.41 181.809 179.603 178.77 178.942 176.714C177.737 173.217 175.635 170.098 172.845 167.67C172.835 167.656 172.822 167.646 172.807 167.638C172.792 167.631 172.775 167.627 172.758 167.627C172.741 167.627 172.725 167.631 172.71 167.638C172.695 167.646 172.681 167.656 172.671 167.67C172.6 167.637 172.523 167.622 172.446 167.625C172.368 167.629 172.292 167.651 172.225 167.689C172.157 167.728 172.1 167.782 172.058 167.847C172.016 167.913 171.99 167.987 171.982 168.065C171.881 171.544 171.331 175.244 172.295 178.66C172.855 180.68 174.452 183.049 176.849 182.443ZM172.901 173.399C172.901 171.682 173.011 169.983 172.956 168.267C174.195 169.997 175.344 171.789 176.399 173.638C176.903 174.523 177.342 175.443 177.712 176.392C178.263 177.88 178.63 183.058 174.865 180.781C172.79 179.56 172.891 175.437 172.901 173.399Z" fill="#263238"/>
<path d="M177.583 158.745C175.067 161.243 173.727 164.741 172.074 167.826C172.043 167.897 172.03 167.974 172.034 168.051C172.039 168.128 172.062 168.203 172.102 168.269C172.141 168.336 172.196 168.392 172.261 168.433C172.327 168.474 172.401 168.499 172.478 168.505C172.479 168.522 172.484 168.538 172.491 168.553C172.499 168.567 172.51 168.58 172.523 168.591C172.536 168.601 172.551 168.609 172.567 168.613C172.583 168.617 172.599 168.618 172.616 168.615C176.239 167.866 179.601 166.179 182.367 163.722C183.955 162.262 185.277 159.517 183.349 157.699C181.421 155.881 179.043 157.285 177.583 158.745ZM180.861 158.148C185.259 158.011 182.403 162.344 181.191 163.373C180.394 164.025 179.553 164.623 178.676 165.163C176.85 166.252 174.968 167.245 173.038 168.138C173.956 166.678 174.682 165.145 175.508 163.648C176.5 161.867 178.446 158.231 180.879 158.148H180.861Z" fill="#263238"/>
<path opacity="0.1" d="M142.601 187.722C142.455 189.917 148.698 190.477 151.278 189.017C153.858 187.557 171.9 170.25 171.9 170.25L172.497 170.516L183.634 142.219L161.736 140.254C154.381 156.964 142.693 186.143 142.601 187.722Z" fill="black"/>
<path d="M183.973 179.138C183.973 179.138 250.659 194.434 275.137 190.018C286.871 187.906 295.336 172.811 289.699 161.243C284.438 150.454 252.266 139.501 243.176 133.156C240.311 131.164 240.623 123.277 240.623 123.277L216.751 122.956C216.751 122.956 208.249 136.48 211.849 143.063C211.909 143.176 211.98 143.284 212.06 143.385L201.29 139.29L183.973 179.138Z" fill="#263238"/>
<path d="M198.728 161.114C201.382 155.339 204.301 149.702 206.992 143.954C207.047 143.844 207.221 143.899 207.175 144.018C204.623 149.812 202.272 155.679 199.619 161.463C196.965 167.248 194.11 172.885 191.291 178.596C191.227 178.743 190.988 178.66 191.052 178.513C193.632 172.701 196.084 166.862 198.728 161.114Z" fill="#455A64"/>
<path d="M211.885 143.66C213.538 144.624 215.108 145.735 216.706 146.763C218.303 147.792 219.864 148.793 221.48 149.747C224.739 151.685 228.072 153.503 231.451 155.256C238.254 158.745 245.285 161.769 252.495 164.309C256.508 165.723 260.575 167.064 264.707 168.129C264.798 168.129 264.707 168.285 264.707 168.267C261.695 167.541 258.684 166.834 255.709 165.999C257.288 166.99 258.84 168.028 260.401 169.038C260.412 169.041 260.422 169.046 260.431 169.054C260.439 169.061 260.446 169.071 260.451 169.081C260.455 169.092 260.457 169.104 260.456 169.115C260.455 169.127 260.451 169.138 260.445 169.148C260.439 169.157 260.431 169.166 260.421 169.172C260.411 169.178 260.4 169.181 260.389 169.182C260.377 169.183 260.365 169.181 260.355 169.177C260.344 169.173 260.335 169.166 260.327 169.157C258.61 168.12 256.875 167.128 255.167 166.063C255.148 166.051 255.131 166.035 255.118 166.016C255.105 165.997 255.096 165.976 255.092 165.954C255.087 165.931 255.088 165.908 255.093 165.886C255.098 165.864 255.108 165.843 255.121 165.824C254.616 165.677 254.102 165.54 253.597 165.384C249.924 164.245 246.252 162.96 242.699 161.518C235.627 158.669 228.811 155.223 222.325 151.216C220.488 150.078 218.683 148.909 216.908 147.709C215.114 146.554 213.396 145.284 211.766 143.908C211.591 143.77 211.757 143.587 211.885 143.66Z" fill="#455A64"/>
<path d="M117.526 195.123C117.361 197.262 123.476 197.877 126.029 196.491C128.093 195.01 130.058 193.396 131.914 191.661C138.038 186.244 146.503 178.311 146.503 178.311L152.784 181.139L182.523 191.312L196.405 157.882C196.405 157.882 181.577 151.602 167.465 145.946C165.298 145.083 163.159 144.248 161.084 143.44L160.698 143.293C151.232 139.62 143.391 136.866 142.583 137.463C140.416 139.014 117.728 192.974 117.526 195.123Z" fill="#F7A9A0"/>
<path d="M117.526 195.123C117.361 197.262 123.476 197.877 126.029 196.491C128.092 195.009 130.058 193.396 131.914 191.661C138.029 186.244 146.513 178.311 146.513 178.311L152.784 181.139L153.619 181.433L168.236 146.313L167.428 145.992C165.261 145.129 163.134 144.294 161.047 143.486C160.909 143.44 160.79 143.385 160.661 143.329C151.195 139.657 143.354 136.902 142.546 137.508C140.416 139.005 117.728 192.974 117.526 195.123Z" fill="#EBEBEB"/>
<path d="M117.003 195.609C117.168 193.415 140.352 138.5 142.565 136.976C143.391 136.379 151.59 139.29 161.396 143.091L161.699 143.21L147.146 178.807L146.549 178.541C146.549 178.541 128.269 195.591 125.661 197.014C123.054 198.437 116.838 197.794 117.003 195.609Z" fill="#C7C7C7"/>
<path d="M119.363 195.885C123.495 186.703 139.305 149.38 142.702 140.015C142.702 139.932 142.702 139.914 142.638 140.015C138.341 149.004 122.834 186.474 119.207 195.848C119.17 196.022 119.308 196.077 119.363 195.885Z" fill="#263238"/>
<path d="M145.374 182.672C147.596 179.321 148.918 174.629 147.495 170.736C147.44 170.59 147.229 170.672 147.21 170.801C146.873 174.756 146.106 178.663 144.924 182.452C144.895 182.512 144.891 182.581 144.912 182.643C144.934 182.706 144.979 182.758 145.039 182.787C145.099 182.816 145.167 182.821 145.23 182.799C145.293 182.778 145.345 182.732 145.374 182.672Z" fill="#263238"/>
<path d="M142.684 184.674C144.897 181.314 146.219 176.622 144.805 172.738C144.75 172.582 144.529 172.665 144.52 172.802C144.177 176.776 143.408 180.7 142.225 184.509C142.224 184.563 142.239 184.616 142.27 184.66C142.3 184.705 142.344 184.739 142.395 184.757C142.446 184.775 142.501 184.777 142.553 184.762C142.605 184.747 142.651 184.716 142.684 184.674Z" fill="#263238"/>
<path d="M139.985 186.63C142.207 183.278 143.529 178.587 142.106 174.694C142.051 174.547 141.839 174.629 141.83 174.758C141.485 178.713 140.716 182.619 139.535 186.409C139.506 186.469 139.501 186.538 139.523 186.601C139.544 186.663 139.59 186.715 139.65 186.744C139.709 186.774 139.778 186.778 139.841 186.756C139.904 186.735 139.955 186.689 139.985 186.63Z" fill="#263238"/>
<path d="M151.324 190.798C153.895 190.201 154.133 187.125 153.5 185.106C152.345 181.588 150.284 178.437 147.523 175.97C147.513 175.957 147.501 175.946 147.487 175.938C147.472 175.931 147.456 175.927 147.44 175.927C147.424 175.927 147.408 175.931 147.393 175.938C147.379 175.946 147.367 175.957 147.357 175.97C147.287 175.938 147.21 175.922 147.132 175.925C147.055 175.928 146.979 175.949 146.911 175.987C146.843 176.024 146.785 176.077 146.742 176.141C146.698 176.205 146.67 176.279 146.66 176.355C146.503 179.826 145.907 183.526 146.825 186.951C147.357 188.98 148.891 191.367 151.324 190.798ZM147.504 181.699C147.504 179.991 147.66 178.284 147.633 176.576C148.79 178.357 150.02 180.083 151.002 181.984C151.488 182.89 151.911 183.829 152.27 184.793C152.802 186.299 153.087 191.468 149.359 189.145C147.311 187.86 147.458 183.737 147.504 181.699Z" fill="#263238"/>
<path d="M152.416 167.11C149.873 169.57 148.477 173.05 146.825 176.117C146.794 176.188 146.78 176.265 146.785 176.342C146.79 176.419 146.813 176.494 146.853 176.56C146.892 176.626 146.947 176.683 147.012 176.724C147.078 176.765 147.152 176.79 147.229 176.796C147.227 176.813 147.229 176.83 147.235 176.846C147.241 176.861 147.25 176.875 147.263 176.886C147.276 176.897 147.291 176.905 147.308 176.908C147.324 176.912 147.341 176.911 147.357 176.906C150.991 176.212 154.379 174.575 157.182 172.16C158.788 170.718 160.147 167.991 158.247 166.155C156.346 164.319 153.867 165.677 152.416 167.11ZM155.713 166.568C160.101 166.485 157.191 170.773 155.97 171.792C155.161 172.428 154.315 173.013 153.436 173.546C151.599 174.666 149.671 175.511 147.752 176.447C148.67 174.987 149.432 173.472 150.286 171.985C151.259 170.213 153.252 166.605 155.676 166.568H155.713Z" fill="#263238"/>
<path d="M232.415 123.121L191.364 122.506C191.364 122.506 182.651 144.661 186.26 151.253C189.868 157.846 227.705 167.257 227.705 167.257L175.719 147.489L158.421 187.318C158.421 187.318 221.627 201.091 255.149 197.675C267.727 196.39 275.623 179.964 268.251 167.376C260.474 154.054 232.342 135.847 232.342 135.847L232.415 123.121Z" fill="#263238"/>
<path d="M177.05 147.379C192.962 154.65 209.011 161.601 225.428 167.661C227.705 168.505 229.988 169.338 232.277 170.158C234.646 171.012 237.006 171.994 239.43 172.674C239.549 172.674 239.485 172.894 239.375 172.857C237.281 172.068 235.105 171.508 232.948 170.81C230.79 170.112 228.798 169.442 226.732 168.726L224.06 167.808L224.602 168.175C225.419 168.717 226.236 169.267 227.044 169.837C228.706 171.003 230.248 172.389 231.993 173.427C232.094 173.491 231.993 173.665 231.892 173.592C230.23 172.417 228.366 171.535 226.658 170.424C225.832 169.883 225.033 169.323 224.225 168.753C223.467 168.264 222.751 167.711 222.086 167.101C219.466 166.164 216.858 165.206 214.263 164.227C206.092 161.105 198.018 157.738 190.042 154.127C185.589 152.116 181.173 150.023 176.821 147.801C176.628 147.672 176.812 147.278 177.05 147.379Z" fill="#455A64"/>
<path d="M172.23 168.955C174.893 163.18 177.803 157.533 180.494 151.786C180.54 151.676 180.723 151.74 180.668 151.85C178.116 157.644 175.765 163.52 173.112 169.295C170.458 175.07 167.603 180.726 164.784 186.437C164.72 186.584 164.481 186.501 164.545 186.345C167.107 180.533 169.586 174.703 172.23 168.955Z" fill="#455A64"/>
<path d="M233.085 136.306C237.606 138.871 241.944 141.746 246.068 144.909C250.181 147.966 254.175 151.189 258.004 154.632C259.923 156.367 261.778 158.176 263.568 160.04C265.307 161.797 266.886 163.705 268.287 165.742C270.777 169.425 271.975 173.829 271.694 178.265C271.53 180.623 270.977 182.937 270.06 185.115C269.072 187.238 267.793 189.213 266.258 190.982C266.203 191.055 266.093 190.982 266.157 190.881C267.593 189.243 268.683 187.332 269.362 185.262C270.079 183.343 270.509 181.329 270.638 179.284C270.92 175.056 269.919 170.841 267.764 167.192C265.239 163.015 261.539 159.544 258.013 156.175C254.374 152.745 250.565 149.5 246.601 146.451C244.373 144.743 242.114 143.076 239.825 141.447C237.539 139.804 235.234 138.234 232.975 136.526C232.963 136.505 232.956 136.481 232.955 136.457C232.954 136.432 232.96 136.408 232.971 136.386C232.982 136.364 232.998 136.345 233.018 136.331C233.038 136.317 233.061 136.308 233.085 136.306Z" fill="#455A64"/>
<path d="M221.149 137.958C224.563 136.906 228.083 136.235 231.644 135.957C235.142 135.562 238.64 135.378 242.166 135.323C242.258 135.323 242.249 135.461 242.166 135.47C238.604 135.782 235.041 136.232 231.506 136.765C227.971 137.297 224.648 138.023 221.195 138.298C220.984 138.316 220.984 138.023 221.149 137.958Z" fill="#455A64"/>
<path d="M193.238 138.445C195.427 138.387 197.61 138.191 199.775 137.857C201.597 137.754 203.364 137.188 204.907 136.214C207.818 134.029 209.002 130.191 209.617 126.757C209.617 126.683 209.774 126.702 209.755 126.757C209.259 130.485 209.094 134.772 205.816 137.27C204.176 138.398 202.234 139.005 200.243 139.014C197.899 139.105 195.553 138.96 193.238 138.583C193.226 138.575 193.217 138.565 193.211 138.553C193.204 138.541 193.201 138.528 193.201 138.514C193.201 138.5 193.204 138.487 193.211 138.475C193.217 138.463 193.226 138.453 193.238 138.445Z" fill="#455A64"/>
<path d="M188.72 144.358C188.945 142.19 189.328 140.042 189.868 137.931C190.382 135.764 190.997 133.625 191.704 131.504C192.485 129.107 193.384 126.739 194.33 124.397C194.33 124.315 194.505 124.351 194.468 124.443C193.118 128.4 191.879 132.422 190.85 136.48C190.336 138.491 189.886 140.511 189.473 142.549C189 144.51 189 146.556 189.473 148.517C190.039 150.512 191.187 152.292 192.769 153.631C191.384 152.538 190.29 151.119 189.583 149.502C188.877 147.884 188.581 146.117 188.72 144.358Z" fill="#455A64"/>
<path d="M181.696 156.533C184.451 157.258 187.205 158.213 189.905 159.094C192.604 159.976 195.358 160.866 198.076 161.775C203.512 163.612 208.938 165.448 214.355 167.33C217.431 168.395 220.488 169.534 223.537 170.645C223.556 170.651 223.572 170.664 223.582 170.682C223.591 170.7 223.593 170.722 223.587 170.741C223.581 170.761 223.567 170.777 223.549 170.786C223.531 170.796 223.51 170.798 223.491 170.792C212.546 167.388 201.666 163.78 190.85 159.966C187.775 158.883 184.662 157.891 181.669 156.634C181.659 156.627 181.652 156.618 181.648 156.607C181.643 156.596 181.643 156.584 181.646 156.573C181.649 156.562 181.656 156.552 181.665 156.545C181.674 156.537 181.685 156.533 181.696 156.533Z" fill="#455A64"/>
<path d="M281.711 20.5173C281.711 21.075 281.489 21.6098 281.095 22.0041C280.701 22.3984 280.166 22.6199 279.608 22.6199V25.3009C279.884 25.3009 280.158 25.3553 280.413 25.4609C280.668 25.5666 280.9 25.7215 281.095 25.9167C281.29 26.112 281.445 26.3437 281.551 26.5988C281.656 26.8539 281.711 27.1274 281.711 27.4035C281.711 27.6796 281.656 27.953 281.551 28.2081C281.445 28.4632 281.29 28.695 281.095 28.8902C280.9 29.0855 280.668 29.2403 280.413 29.346C280.158 29.4516 279.884 29.506 279.608 29.506V32.1871C280.166 32.1871 280.701 32.4086 281.095 32.8029C281.489 33.1972 281.711 33.732 281.711 34.2896C281.711 34.8473 281.489 35.3821 281.095 35.7764C280.701 36.1707 280.166 36.3922 279.608 36.3922V39.0732C279.884 39.0732 280.158 39.1276 280.413 39.2333C280.668 39.3389 280.9 39.4938 281.095 39.689C281.29 39.8843 281.445 40.116 281.551 40.3711C281.656 40.6262 281.711 40.8997 281.711 41.1758C281.711 41.4519 281.656 41.7253 281.551 41.9804C281.445 42.2355 281.29 42.4673 281.095 42.6625C280.9 42.8578 280.668 43.0126 280.413 43.1183C280.158 43.224 279.884 43.2783 279.608 43.2783V45.9502C280.143 45.9855 280.644 46.2229 281.011 46.6142C281.377 47.0054 281.581 47.5214 281.581 48.0573C281.581 48.5933 281.377 49.1092 281.011 49.5005C280.644 49.8918 280.143 50.1292 279.608 50.1645V52.8363C280.166 52.8363 280.701 53.0578 281.095 53.4521C281.489 53.8464 281.711 54.3813 281.711 54.9389C281.711 55.4965 281.489 56.0313 281.095 56.4256C280.701 56.8199 280.166 57.0415 279.608 57.0415V59.3828H282.078C282.078 58.8251 282.3 58.2903 282.694 57.896C283.088 57.5017 283.623 57.2802 284.181 57.2802C284.738 57.2802 285.273 57.5017 285.667 57.896C286.062 58.2903 286.283 58.8251 286.283 59.3828H288.955C288.936 59.0943 288.976 58.8051 289.074 58.5329C289.171 58.2607 289.323 58.0114 289.52 57.8004C289.718 57.5894 289.957 57.4212 290.222 57.3062C290.487 57.1912 290.773 57.1318 291.062 57.1318C291.351 57.1318 291.637 57.1912 291.902 57.3062C292.167 57.4212 292.406 57.5894 292.604 57.8004C292.801 58.0114 292.953 58.2607 293.051 58.5329C293.148 58.8051 293.188 59.0943 293.169 59.3828H295.841C295.822 59.0943 295.862 58.8051 295.96 58.5329C296.057 58.2607 296.209 58.0114 296.407 57.8004C296.604 57.5894 296.843 57.4212 297.108 57.3062C297.373 57.1912 297.659 57.1318 297.948 57.1318C298.237 57.1318 298.523 57.1912 298.788 57.3062C299.054 57.4212 299.292 57.5894 299.49 57.8004C299.687 58.0114 299.84 58.2607 299.937 58.5329C300.034 58.8051 300.074 59.0943 300.055 59.3828H302.727C302.708 59.0943 302.749 58.8051 302.846 58.5329C302.943 58.2607 303.095 58.0114 303.293 57.8004C303.49 57.5894 303.729 57.4212 303.994 57.3062C304.259 57.1912 304.545 57.1318 304.834 57.1318C305.123 57.1318 305.409 57.1912 305.675 57.3062C305.94 57.4212 306.179 57.5894 306.376 57.8004C306.574 58.0114 306.726 58.2607 306.823 58.5329C306.92 58.8051 306.961 59.0943 306.942 59.3828H309.623C309.623 58.8251 309.844 58.2903 310.238 57.896C310.633 57.5017 311.168 57.2802 311.725 57.2802C312.283 57.2802 312.818 57.5017 313.212 57.896C313.606 58.2903 313.828 58.8251 313.828 59.3828H316.298V57.0415C315.74 57.0415 315.205 56.8199 314.811 56.4256C314.417 56.0313 314.195 55.4965 314.195 54.9389C314.195 54.3813 314.417 53.8464 314.811 53.4521C315.205 53.0578 315.74 52.8363 316.298 52.8363V50.1645C316.009 50.1835 315.72 50.1432 315.448 50.0459C315.176 49.9486 314.926 49.7965 314.715 49.599C314.504 49.4015 314.336 49.1627 314.221 48.8975C314.106 48.6323 314.047 48.3464 314.047 48.0573C314.047 47.7683 314.106 47.4823 314.221 47.2171C314.336 46.952 314.504 46.7132 314.715 46.5157C314.926 46.3182 315.176 46.166 315.448 46.0687C315.72 45.9715 316.009 45.9311 316.298 45.9502V43.2783C316.021 43.2783 315.748 43.224 315.493 43.1183C315.238 43.0126 315.006 42.8578 314.811 42.6625C314.616 42.4673 314.461 42.2355 314.355 41.9804C314.249 41.7253 314.195 41.4519 314.195 41.1758C314.195 40.8997 314.249 40.6262 314.355 40.3711C314.461 40.116 314.616 39.8843 314.811 39.689C315.006 39.4938 315.238 39.3389 315.493 39.2333C315.748 39.1276 316.021 39.0732 316.298 39.0732V36.3922C315.74 36.3922 315.205 36.1707 314.811 35.7764C314.417 35.3821 314.195 34.8473 314.195 34.2896C314.195 33.732 314.417 33.1972 314.811 32.8029C315.205 32.4086 315.74 32.1871 316.298 32.1871V29.506C316.021 29.506 315.748 29.4516 315.493 29.346C315.238 29.2403 315.006 29.0855 314.811 28.8902C314.616 28.695 314.461 28.4632 314.355 28.2081C314.249 27.953 314.195 27.6796 314.195 27.4035C314.195 27.1274 314.249 26.8539 314.355 26.5988C314.461 26.3437 314.616 26.112 314.811 25.9167C315.006 25.7215 315.238 25.5666 315.493 25.4609C315.748 25.3553 316.021 25.3009 316.298 25.3009V22.6199C315.74 22.6199 315.205 22.3984 314.811 22.0041C314.417 21.6098 314.195 21.075 314.195 20.5173C314.195 19.9597 314.417 19.4249 314.811 19.0306C315.205 18.6363 315.74 18.4147 316.298 18.4147V16H313.819C313.783 16.5324 313.547 17.0316 313.157 17.3962C312.768 17.7608 312.254 17.9637 311.721 17.9637C311.187 17.9637 310.673 17.7608 310.284 17.3962C309.894 17.0316 309.658 16.5324 309.623 16H306.932C306.897 16.5324 306.661 17.0316 306.271 17.3962C305.882 17.7608 305.368 17.9637 304.834 17.9637C304.301 17.9637 303.787 17.7608 303.398 17.3962C303.008 17.0316 302.772 16.5324 302.736 16H300.046C300.011 16.5324 299.775 17.0316 299.385 17.3962C298.996 17.7608 298.482 17.9637 297.948 17.9637C297.415 17.9637 296.901 17.7608 296.511 17.3962C296.122 17.0316 295.886 16.5324 295.85 16H293.16C293.125 16.5324 292.888 17.0316 292.499 17.3962C292.109 17.7608 291.596 17.9637 291.062 17.9637C290.529 17.9637 290.015 17.7608 289.625 17.3962C289.236 17.0316 288.999 16.5324 288.964 16H286.274C286.239 16.5324 286.002 17.0316 285.613 17.3962C285.223 17.7608 284.71 17.9637 284.176 17.9637C283.642 17.9637 283.129 17.7608 282.739 17.3962C282.35 17.0316 282.113 16.5324 282.078 16H279.608V18.4147C280.165 18.4172 280.698 18.6394 281.092 19.0332C281.486 19.427 281.708 19.9604 281.711 20.5173Z" fill="white"/>
<path d="M286.32 51.9365H309.577V23.4279L286.32 23.4279V51.9365Z" fill="#5375E2"/>
<path d="M187.104 132.247L245.554 134.194C245.554 135.342 243.92 92.3537 229.661 64.2398C228.697 62.3301 219.561 59.9979 215.402 63.5971C197.103 79.371 187.077 132.991 187.104 132.247Z" fill="#455A64"/>
<path d="M227.98 77.9111C228.514 77.735 229.085 77.7064 229.633 77.8285C229.934 77.9381 230.194 78.1364 230.379 78.3971C230.564 78.6578 230.666 78.9686 230.671 79.2883C230.666 79.5011 230.716 79.7114 230.816 79.8994C230.915 80.0874 231.061 80.2469 231.24 80.3626C231.435 80.4899 231.66 80.5627 231.892 80.5738C232.158 80.6197 232.424 80.6564 232.681 80.7207C232.147 80.9087 231.567 80.9311 231.02 80.7849C230.729 80.6603 230.482 80.4526 230.309 80.1881C230.135 79.9235 230.044 79.6137 230.046 79.2975C230.041 79.0876 229.982 78.8825 229.876 78.7011C229.77 78.5198 229.62 78.368 229.44 78.26C229.239 78.1348 229.007 78.068 228.77 78.0672C228.504 78.0029 228.247 78.0029 227.98 77.9111ZM233.93 110.965C234.167 110.973 234.398 111.043 234.6 111.167C234.782 111.273 234.933 111.425 235.039 111.606C235.145 111.788 235.202 111.994 235.206 112.204C235.204 112.52 235.295 112.83 235.469 113.095C235.642 113.359 235.889 113.567 236.18 113.692C236.727 113.838 237.307 113.816 237.841 113.627C237.581 113.564 237.317 113.515 237.052 113.48C236.819 113.465 236.594 113.389 236.4 113.26C236.222 113.146 236.076 112.988 235.977 112.802C235.877 112.615 235.827 112.406 235.831 112.195C235.826 111.875 235.725 111.564 235.542 111.303C235.359 111.041 235.101 110.84 234.802 110.726C234.25 110.607 233.676 110.638 233.141 110.818C233.401 110.889 233.664 110.947 233.93 110.992V110.965ZM214.474 89.0208C214.711 89.0216 214.944 89.0883 215.145 89.2136C215.327 89.3189 215.479 89.47 215.585 89.652C215.692 89.8339 215.749 90.0404 215.751 90.2511C215.749 90.5683 215.842 90.8788 216.017 91.1435C216.192 91.4082 216.441 91.6152 216.733 91.7385C217.281 91.8847 217.86 91.8623 218.395 91.6743C218.129 91.61 217.862 91.5733 217.605 91.5273C217.37 91.5118 217.142 91.4359 216.944 91.307C216.768 91.1915 216.623 91.0333 216.523 90.8472C216.424 90.6611 216.373 90.4529 216.375 90.2419C216.371 89.9232 216.271 89.6133 216.087 89.3527C215.903 89.0921 215.645 88.8932 215.347 88.782C214.795 88.6597 214.221 88.6882 213.685 88.8647C213.933 88.9565 214.217 89.0208 214.474 89.0208ZM203.925 122.763C204.161 122.771 204.391 122.838 204.595 122.956C204.777 123.062 204.93 123.213 205.037 123.395C205.145 123.576 205.205 123.782 205.21 123.993C205.203 124.31 205.292 124.622 205.466 124.888C205.64 125.153 205.89 125.36 206.184 125.481C206.73 125.63 207.31 125.611 207.845 125.426C207.579 125.352 207.322 125.325 207.056 125.269C206.82 125.261 206.592 125.188 206.395 125.058C206.217 124.941 206.072 124.782 205.973 124.594C205.873 124.406 205.823 124.196 205.825 123.984C205.823 123.665 205.723 123.354 205.539 123.094C205.355 122.833 205.097 122.634 204.797 122.524C204.249 122.402 203.678 122.431 203.144 122.607C203.401 122.68 203.668 122.708 203.925 122.763ZM196.02 114.279C195.845 114.44 195.634 114.557 195.404 114.619C195.2 114.671 194.985 114.67 194.78 114.616C194.576 114.561 194.389 114.455 194.238 114.307C194.015 114.083 193.73 113.929 193.42 113.866C193.11 113.802 192.788 113.831 192.494 113.949C191.888 114.215 191.667 114.738 191.365 115.17C191.603 115.032 191.805 114.867 192.035 114.72C192.205 114.558 192.419 114.449 192.65 114.408C192.857 114.362 193.071 114.371 193.274 114.432C193.476 114.493 193.66 114.605 193.807 114.757C194.036 114.979 194.326 115.128 194.641 115.182C194.956 115.236 195.28 115.193 195.57 115.06C196.043 114.756 196.427 114.331 196.681 113.829C196.488 113.967 196.24 114.132 196.02 114.279ZM219.671 109.395C219.499 109.557 219.287 109.671 219.056 109.725C218.853 109.778 218.641 109.778 218.438 109.725C218.235 109.672 218.05 109.568 217.899 109.422C217.677 109.195 217.393 109.039 217.082 108.976C216.771 108.912 216.448 108.943 216.155 109.064C215.549 109.33 215.328 109.854 215.025 110.276C215.253 110.138 215.474 109.988 215.686 109.826C215.862 109.673 216.074 109.565 216.302 109.514C216.51 109.469 216.727 109.478 216.931 109.541C217.135 109.604 217.32 109.718 217.468 109.872C217.696 110.093 217.985 110.24 218.298 110.294C218.611 110.348 218.932 110.307 219.221 110.175C219.71 109.881 220.105 109.455 220.36 108.945C220.103 109.082 219.892 109.22 219.671 109.395ZM238.319 132.459C238.151 132.624 237.942 132.742 237.713 132.798C237.509 132.852 237.294 132.852 237.09 132.799C236.886 132.746 236.699 132.642 236.547 132.495C236.325 132.269 236.041 132.113 235.73 132.048C235.42 131.982 235.097 132.01 234.802 132.128C234.196 132.394 233.976 132.918 233.673 133.349C233.912 133.212 234.114 133.046 234.334 132.899C234.575 132.671 234.893 132.544 235.225 132.544C235.556 132.544 235.875 132.671 236.115 132.899C236.343 133.124 236.633 133.274 236.948 133.329C237.263 133.385 237.587 133.344 237.878 133.212C238.353 132.905 238.736 132.477 238.989 131.972C238.723 132.174 238.539 132.312 238.319 132.459ZM230.808 95.3469C230.808 95.5839 230.741 95.8159 230.616 96.0171C230.51 96.1996 230.359 96.3514 230.177 96.4577C229.995 96.564 229.789 96.621 229.578 96.6231C229.261 96.6217 228.95 96.7143 228.686 96.8891C228.421 97.064 228.214 97.3132 228.091 97.6055C227.944 98.1533 227.967 98.7325 228.155 99.2674C228.219 99.0011 228.256 98.7348 228.302 98.4777C228.317 98.2421 228.393 98.0145 228.522 97.8167C228.638 97.6401 228.796 97.4954 228.982 97.3959C229.168 97.2964 229.376 97.2453 229.587 97.2474C229.906 97.2433 230.216 97.1429 230.476 96.9594C230.737 96.7759 230.936 96.5178 231.047 96.2191C231.169 95.6678 231.14 95.0938 230.964 94.5572C230.891 94.8235 230.863 95.0898 230.808 95.3469ZM206.744 78.4896C206.734 78.7252 206.668 78.955 206.551 79.1598C206.445 79.3423 206.294 79.4942 206.112 79.6004C205.93 79.7067 205.724 79.7637 205.513 79.7658C205.196 79.7632 204.885 79.8553 204.62 80.0303C204.355 80.2052 204.148 80.4552 204.026 80.7482C203.877 81.2951 203.896 81.8742 204.081 82.4101C204.154 82.1438 204.182 81.8775 204.237 81.6205C204.25 81.3857 204.323 81.1581 204.448 80.9594C204.566 80.7826 204.726 80.638 204.913 80.5386C205.101 80.4392 205.31 80.3882 205.522 80.3901C205.84 80.3836 206.149 80.2822 206.409 80.099C206.67 79.9158 206.869 79.6591 206.982 79.3618C207.104 78.8136 207.076 78.2425 206.9 77.7091C206.826 78.0029 206.799 78.2325 206.744 78.4896ZM206.744 101.508C206.732 101.743 206.666 101.973 206.551 102.178C206.443 102.358 206.291 102.508 206.11 102.614C205.928 102.72 205.723 102.778 205.513 102.784C205.197 102.779 204.886 102.87 204.621 103.043C204.356 103.216 204.148 103.465 204.026 103.757C203.877 104.304 203.896 104.883 204.081 105.419C204.154 105.153 204.182 104.896 204.237 104.629C204.248 104.397 204.321 104.172 204.448 103.978C204.564 103.798 204.723 103.652 204.911 103.55C205.099 103.449 205.309 103.397 205.522 103.399C205.841 103.396 206.152 103.296 206.413 103.113C206.674 102.929 206.872 102.67 206.982 102.371C207.104 101.822 207.076 101.251 206.9 100.718C206.826 100.957 206.799 101.241 206.744 101.508ZM225.244 121.331C225.236 121.568 225.166 121.799 225.042 122.001C224.934 122.181 224.783 122.331 224.601 122.437C224.42 122.543 224.215 122.601 224.005 122.607C223.689 122.605 223.379 122.696 223.114 122.869C222.85 123.042 222.642 123.29 222.517 123.58C222.371 124.128 222.394 124.707 222.582 125.242C222.655 124.976 222.683 124.719 222.738 124.452C222.745 124.219 222.818 123.993 222.949 123.8C223.063 123.622 223.22 123.475 223.407 123.373C223.593 123.272 223.802 123.22 224.014 123.222C224.334 123.22 224.646 123.12 224.909 122.937C225.171 122.753 225.371 122.494 225.483 122.194C225.603 121.645 225.571 121.073 225.391 120.541C225.327 120.807 225.29 121.064 225.244 121.331ZM216.687 70.8322C216.86 70.6699 217.072 70.5559 217.302 70.5016C217.507 70.4497 217.72 70.4502 217.924 70.5032C218.128 70.5562 218.315 70.6599 218.468 70.8046C218.689 71.031 218.972 71.1861 219.281 71.25C219.59 71.3138 219.912 71.2834 220.204 71.1627C220.695 70.8801 221.091 70.4584 221.342 69.9507C221.11 70.0868 220.886 70.2371 220.672 70.4006C220.497 70.5559 220.285 70.6634 220.057 70.7128C219.849 70.7579 219.634 70.7487 219.431 70.6859C219.229 70.6232 219.046 70.5091 218.9 70.3547C218.67 70.1341 218.379 69.9874 218.065 69.9334C217.751 69.8794 217.428 69.9206 217.137 70.0517C216.663 70.3549 216.28 70.7798 216.026 71.282C216.265 71.1719 216.467 71.0158 216.687 70.8597V70.8322Z" fill="white"/>
<path d="M227.916 71.7503C225.088 72.1818 219.579 68.4266 217.927 64.2949C217.816 64.0102 218.56 61.265 219.313 57.8678C219.763 55.8111 220.231 53.5157 220.47 51.3856C220.525 50.9449 233.416 56.2518 233.416 56.2518C232.33 58.8198 231.565 61.512 231.139 64.2673C231.109 64.5727 231.109 64.8801 231.139 65.1855C231.144 65.2343 231.144 65.2835 231.139 65.3324C231.194 66.9851 230.946 71.3004 227.916 71.7503Z" fill="#F7A9A0"/>
<path d="M231.13 65.1487C231.13 65.1946 231.13 65.2406 231.13 65.2956C230.672 65.2949 230.215 65.2643 229.762 65.2038C221.92 64.0745 221.048 53.984 220.947 51.4315C223.279 52.0559 233.434 56.2335 233.434 56.2335C232.345 58.801 231.577 61.4932 231.148 64.2489C231.113 64.5476 231.107 64.8489 231.13 65.1487Z" fill="#263238"/>
<path d="M234.334 28.5879C234.334 28.5879 238.833 30.2314 239.843 34.6753C240.853 39.1191 240.027 43.8568 239.65 44.1139C239.274 44.371 234.334 28.5879 234.334 28.5879Z" fill="#263238"/>
<path d="M217.505 36.686C216.338 41.5339 219.653 55.1317 223.215 57.9964C228.375 62.1556 236.437 62.1097 239.871 55.9948C243.194 50.0635 238.558 32.4166 234.619 29.8458C228.807 26.0538 219.24 29.5152 217.505 36.686Z" fill="#F7A9A0"/>
<path d="M231.378 44.1139C231.378 44.1139 231.323 44.1782 231.378 44.2149C231.626 45.1331 231.754 46.2073 231.001 46.7123V46.7582C231.965 46.3726 231.782 44.9494 231.378 44.1139Z" fill="#263238"/>
<path d="M230.349 43.3518C228.853 43.5905 229.431 46.5745 230.827 46.3542C232.222 46.1338 231.607 43.1131 230.349 43.3518Z" fill="#263238"/>
<path d="M236.786 43.205C236.786 43.205 236.868 43.2049 236.868 43.2784C237.024 44.1965 237.355 45.2433 238.255 45.3902C237.208 45.5003 236.776 44.1139 236.786 43.205Z" fill="#263238"/>
<path d="M237.419 42.0756C238.879 41.6716 239.586 44.628 238.236 45.0045C236.886 45.3809 236.189 42.4153 237.419 42.0756Z" fill="#263238"/>
<path d="M228.899 42.1949C229.271 42.0035 229.633 41.792 229.982 41.5613C230.386 41.3043 230.744 41.1574 230.955 40.6983C231.001 40.5633 231 40.4171 230.954 40.2825C230.907 40.1479 230.817 40.0325 230.698 39.9546C230.441 39.8352 230.157 39.7859 229.875 39.8117C229.593 39.8375 229.322 39.9375 229.091 40.1015C228.571 40.3648 228.168 40.8136 227.962 41.3593C227.922 41.4857 227.92 41.6209 227.955 41.7486C227.99 41.8763 228.062 41.9912 228.161 42.0794C228.259 42.1676 228.382 42.2254 228.513 42.2459C228.643 42.2664 228.777 42.2486 228.899 42.1949Z" fill="#263238"/>
<path d="M238.273 40.3586C237.851 40.3586 237.456 40.3127 237.024 40.2851C236.581 40.32 236.139 40.207 235.766 39.9638C235.662 39.8653 235.595 39.7345 235.575 39.5928C235.555 39.451 235.584 39.3067 235.656 39.1833C235.829 38.9587 236.059 38.7847 236.323 38.6797C236.586 38.5747 236.873 38.5425 237.153 38.5865C237.734 38.5856 238.296 38.7979 238.732 39.1833C238.827 39.2779 238.892 39.3981 238.919 39.5291C238.947 39.6602 238.935 39.7964 238.887 39.9211C238.838 40.0458 238.754 40.1535 238.645 40.2312C238.536 40.3089 238.407 40.3532 238.273 40.3586Z" fill="#263238"/>
<path d="M232.241 52.873C232.507 53.0382 232.783 53.2953 233.159 53.2586C233.491 53.1791 233.804 53.0322 234.077 52.8271C234.077 52.8271 234.141 52.8271 234.123 52.8271C234.027 53.0352 233.877 53.2134 233.687 53.3428C233.498 53.4721 233.278 53.5477 233.049 53.5616C232.846 53.5562 232.649 53.4892 232.485 53.3695C232.321 53.2498 232.198 53.083 232.131 52.8913C232.128 52.8767 232.132 52.8617 232.14 52.8497C232.149 52.8376 232.162 52.8295 232.177 52.8271C232.191 52.8246 232.206 52.8281 232.218 52.8367C232.23 52.8453 232.238 52.8584 232.241 52.873Z" fill="#263238"/>
<path d="M232.663 49.9075C232.97 50.2271 233.34 50.4795 233.749 50.6486C234.158 50.8178 234.598 50.8999 235.041 50.8899C235.43 50.8897 235.816 50.834 236.189 50.7246L236.4 50.6512C236.467 50.6348 236.532 50.6102 236.593 50.5777C236.64 50.5598 236.68 50.5266 236.707 50.4834C236.734 50.4402 236.745 50.3894 236.74 50.339C236.743 50.3085 236.743 50.2777 236.74 50.2472V50.1738C236.62 49.4576 236.336 48.3833 236.336 48.3833C236.62 48.466 238.062 48.7965 237.97 48.3833C237.254 45.1888 236.214 42.0755 234.867 39.0916C234.821 38.9998 234.674 39.0916 234.701 39.1467C235.344 42.1032 236.538 44.9311 237.208 47.8876C236.692 47.7583 236.16 47.7057 235.629 47.7315C235.537 47.7774 236.216 49.7881 236.244 50.1095C235.672 50.2865 235.071 50.3452 234.475 50.2821C233.88 50.2189 233.304 50.0352 232.783 49.7422C232.654 49.7698 232.599 49.8432 232.663 49.9075Z" fill="#263238"/>
<path d="M235.693 50.4583C235.405 51.0469 234.968 51.5501 234.426 51.9182C234.127 52.1051 233.778 52.1979 233.425 52.1844C232.645 52.1385 232.507 51.4591 232.507 50.8531C232.521 50.5418 232.574 50.2334 232.663 49.9349C233.59 50.431 234.653 50.6146 235.693 50.4583Z" fill="#263238"/>
<path d="M234.426 51.8999C234.127 52.0868 233.778 52.1795 233.425 52.1661C232.645 52.1202 232.507 51.4408 232.507 50.8348C232.9 50.7675 233.305 50.8364 233.654 51.03C234.003 51.2237 234.275 51.5305 234.426 51.8999Z" fill="#FF99BA"/>
<path d="M219.699 49.5402C221.333 49.5402 221.801 44.5729 221.81 42.6999C221.81 41.0472 220.956 36.0525 220.938 35.6944C220.92 35.3363 228.687 38.1734 232.167 36.0066C235.647 33.8397 237.235 29.7356 236.85 28.1288C236.464 26.522 230.625 23.8135 226.493 24.7408C222.361 25.6682 218.294 32.3799 218.294 32.3799C218.749 31.4377 219.129 30.4615 219.432 29.4601C219.313 29.2949 216.981 31.0761 217.018 33.1328C217.018 33.1328 216.88 30.6354 216.669 30.6446C216.458 30.6537 214.979 33.2429 215.861 34.6385C215.861 34.6385 214.024 37.3471 214.474 39.6608C214.924 41.9746 217.78 49.5402 219.699 49.5402Z" fill="#263238"/>
<path d="M234.646 34.4825C233.691 35.3972 232.605 36.1646 231.424 36.7595C230.063 37.2729 228.596 37.4401 227.154 37.2461C225.71 37.0999 224.3 36.7216 222.977 36.126C221.81 35.6118 220.709 34.9048 219.497 34.4916C219.203 34.3814 219.01 34.8314 219.23 35.0242C221.579 36.926 224.475 38.0263 227.494 38.1642C228.902 38.2269 230.303 37.9211 231.557 37.277C232.812 36.633 233.876 35.6729 234.646 34.4916C234.646 34.4916 234.655 34.4641 234.646 34.4825Z" fill="#263238"/>
<path d="M221.645 47.8232C221.645 47.8232 218.193 43.6272 216.265 44.8943C214.337 46.1613 217.183 52.414 219.616 53.1026C219.922 53.213 220.247 53.2604 220.572 53.2421C220.896 53.2238 221.214 53.1401 221.505 52.9961C221.797 52.852 222.056 52.6506 222.268 52.4038C222.48 52.1571 222.64 51.8701 222.738 51.5601L221.645 47.8232Z" fill="#F7A9A0"/>
<path d="M217.128 46.6664V46.7307C218.836 47.2724 219.836 48.7414 220.571 50.2839C220.46 50.1262 220.317 49.9943 220.151 49.897C219.984 49.7998 219.799 49.7395 219.607 49.7203C219.416 49.7012 219.222 49.7235 219.04 49.7859C218.857 49.8483 218.691 49.9493 218.551 50.0819C218.546 50.0908 218.543 50.1011 218.543 50.1115C218.544 50.1219 218.547 50.1319 218.553 50.1406C218.558 50.1492 218.566 50.156 218.576 50.1603C218.585 50.1645 218.596 50.166 218.606 50.1645C218.89 50.0485 219.204 50.0232 219.503 50.0923C219.802 50.1613 220.073 50.3213 220.277 50.5502C220.627 50.9358 220.935 51.3574 221.195 51.808C221.287 51.955 221.544 51.808 221.48 51.6887C221.278 49.5402 219.442 46.7031 217.128 46.6664Z" fill="#263238"/>
<path d="M217.394 81.9969C228.935 90.0675 252.404 107.531 262.751 106.163C276.321 104.326 294.62 84.9166 299.652 79.9403C301.846 77.7734 288.303 62.3301 285.007 62.4953C281.711 62.6606 258.858 82.4101 256.544 83.264C254.231 84.1179 234.261 74.8721 222.72 71.7411C208.167 67.8023 207.625 75.1751 217.394 81.9969Z" fill="#F7A9A0"/>
<path d="M294.629 58.382C293.105 58.7952 292.885 58.0055 294.556 55.7561C296.227 53.5066 304.747 46.0604 301.901 43.3151C299.055 40.5698 287.211 51.2479 284.686 55.196C282.161 59.1441 279.526 66.3975 279.526 66.3975C282.243 64.7815 289.221 61.4762 294.629 58.382Z" fill="#F7A9A0"/>
<path d="M293.564 85.0544C301.075 80.2157 310.724 74.6517 315.26 65.6446C315.79 64.6592 315.971 63.5234 315.774 62.4219C317.886 58.4187 316.628 56.2243 316.628 56.2243C317.445 51.8998 315.857 49.7973 315.857 49.7973C315.857 49.7973 318.272 45.078 315.664 43.1406C312.744 40.9554 309.916 48.016 305.987 50.945C296.98 57.6567 282.308 64.7173 279.516 66.3608L293.564 85.0544Z" fill="#F7A9A0"/>
<path d="M301.497 64.6438C304.152 62.7105 306.674 60.6001 309.044 58.3269C311.48 55.672 313.714 52.8393 315.729 49.8523C315.742 49.8357 315.762 49.8246 315.783 49.8209C315.805 49.8172 315.827 49.8212 315.845 49.8323C315.864 49.8433 315.878 49.8605 315.886 49.881C315.893 49.9015 315.892 49.9239 315.885 49.9442C312.564 56.0982 307.62 61.2238 301.589 64.7632C301.451 64.8458 301.369 64.754 301.497 64.6438Z" fill="#263238"/>
<path d="M304.757 70.6577C307.19 68.5459 311.432 64.7999 316.536 56.16H316.592C314.11 62.0358 310.036 67.1016 304.83 70.7862C304.701 70.9056 304.6 70.8138 304.757 70.6577Z" fill="#263238"/>
<path d="M306.574 73.8713C310.568 70.116 312.616 67.2514 315.756 62.4219H315.811C312.818 68.2705 311.073 70.0517 306.694 73.9906C306.529 74.1651 306.418 74.0182 306.574 73.8713Z" fill="#263238"/>
<path d="M238.622 75.6616L235.197 96.9077C235.197 96.9077 216.246 82.7314 211.858 76.9838C206.909 70.5567 211.298 69.409 218.973 70.3639C226.649 71.3187 238.622 75.6616 238.622 75.6616Z" fill="#455A64"/>
<path d="M227.981 77.911C228.514 77.7349 229.085 77.7063 229.633 77.8284C229.934 77.9381 230.194 78.1364 230.379 78.3971C230.564 78.6577 230.666 78.9685 230.671 79.2883C230.666 79.501 230.716 79.7114 230.816 79.8994C230.915 80.0874 231.061 80.2468 231.24 80.3625C231.435 80.4898 231.66 80.5627 231.892 80.5737C232.158 80.6196 232.424 80.6563 232.681 80.7206C232.147 80.9087 231.567 80.9311 231.02 80.7849C230.729 80.6602 230.482 80.4526 230.309 80.188C230.135 79.9234 230.044 79.6137 230.046 79.2975C230.041 79.0875 229.982 78.8824 229.876 78.701C229.77 78.5197 229.621 78.368 229.44 78.26C229.239 78.1347 229.007 78.0679 228.77 78.0671C228.504 78.0029 228.247 78.0029 227.981 77.911ZM220.461 70.5658C220.218 70.714 219.932 70.7748 219.649 70.738C219.367 70.7013 219.106 70.5693 218.909 70.3638C218.257 70.2812 217.633 70.2169 217.073 70.171C216.669 70.478 216.336 70.8697 216.1 71.3187C216.338 71.181 216.54 71.0249 216.761 70.8688C216.933 70.7066 217.145 70.5926 217.376 70.5383C217.58 70.4863 217.794 70.4869 217.998 70.5398C218.202 70.5928 218.389 70.6965 218.542 70.8413C218.762 71.0677 219.045 71.2228 219.355 71.2866C219.664 71.3504 219.985 71.32 220.277 71.1993C220.546 71.0836 220.778 70.8962 220.947 70.6576L220.461 70.5658Z" fill="white"/>
<path d="M234.665 75.7902C233.857 78.4345 232.571 86.707 232.342 88.0751C232.222 88.8004 231.873 91.6926 231.745 92.4088C231.745 92.5006 231.873 92.5098 231.892 92.4088C232.131 91.0407 232.507 89.6543 232.764 88.323C233.021 86.9917 234.6 78.5814 234.766 75.7994C234.766 75.7535 234.674 75.7351 234.665 75.7902Z" fill="#263238"/>
<path d="M229.945 72.494C228.908 72.0441 227.87 71.5758 226.814 71.1627C227.567 71.5299 228.329 71.8788 229.091 72.2186C227.475 71.787 225.86 71.383 224.234 71.0525C224.234 71.0525 224.234 71.0525 224.234 71.0984C226.612 71.9523 229.027 72.6776 231.424 73.4764C233.82 74.2752 236.134 75.0006 238.493 75.7443C238.493 76.2401 238.493 76.7359 238.493 77.2317C238.493 77.2512 238.501 77.2698 238.515 77.2836C238.529 77.2974 238.547 77.3051 238.567 77.3051C238.586 77.3051 238.605 77.2974 238.619 77.2836C238.632 77.2698 238.64 77.2512 238.64 77.2317C238.75 76.7083 238.861 76.1758 238.998 75.6524C239.017 75.5926 239.014 75.5277 238.989 75.4702C238.963 75.4127 238.918 75.3665 238.861 75.3403C235.904 74.3303 232.938 73.3295 229.945 72.494Z" fill="#263238"/>
<path d="M223.849 88.8555C222.931 88.2311 221.948 87.6068 221.021 86.9549C221.737 87.3864 222.444 87.8271 223.151 88.2862C221.902 87.1661 220.681 86.0367 219.478 84.8523C221.489 86.3673 223.417 88.0016 225.4 89.5716C227.384 91.1417 233.113 95.2734 235.032 96.8434C235.032 96.8434 235.225 95.4111 235.39 94.6398C235.39 94.548 235.564 94.5388 235.564 94.6398C235.556 95.6038 235.446 96.5641 235.234 97.5045C232.847 95.6039 226.19 90.903 223.849 88.8555Z" fill="#263238"/>
</svg>
