<!-- 
https://www.figma.com/ 
I used this resource to layout my images and pages for this program
https://undraw.co/ 
I used this resource to find free vector stock images for my program so the images 
are displayed with high-quality 
 -->
<svg width="30" height="30" viewBox="0 0 30 30" fill="none" xmlns="http://www.w3.org/2000/svg">
<g clip-path="url(#clip0_587_435)">
<path d="M25 0H5C3.67392 0 2.40215 0.526784 1.46447 1.46447C0.526784 2.40215 0 3.67392 0 5L0 20C0 21.3261 0.526784 22.5979 1.46447 23.5355C2.40215 24.4732 3.67392 25 5 25H8.625L14.1887 29.7038C14.4145 29.8948 14.7006 29.9996 14.9963 29.9996C15.2919 29.9996 15.578 29.8948 15.8037 29.7038L21.375 25H25C26.3261 25 27.5979 24.4732 28.5355 23.5355C29.4732 22.5979 30 21.3261 30 20V5C30 3.67392 29.4732 2.40215 28.5355 1.46447C27.5979 0.526784 26.3261 0 25 0ZM27.5 20C27.5 20.663 27.2366 21.2989 26.7678 21.7678C26.2989 22.2366 25.663 22.5 25 22.5H21.375C20.7841 22.5002 20.2124 22.7097 19.7612 23.0912L15 27.1125L10.2413 23.0912C9.78945 22.7091 9.21675 22.4996 8.625 22.5H5C4.33696 22.5 3.70107 22.2366 3.23223 21.7678C2.76339 21.2989 2.5 20.663 2.5 20V5C2.5 4.33696 2.76339 3.70107 3.23223 3.23223C3.70107 2.76339 4.33696 2.5 5 2.5H25C25.663 2.5 26.2989 2.76339 26.7678 3.23223C27.2366 3.70107 27.5 4.33696 27.5 5V20Z" fill="#5375E2"/>
<path d="M8.75 8.75H15C15.3315 8.75 15.6495 8.6183 15.8839 8.38388C16.1183 8.14946 16.25 7.83152 16.25 7.5C16.25 7.16848 16.1183 6.85054 15.8839 6.61612C15.6495 6.3817 15.3315 6.25 15 6.25H8.75C8.41848 6.25 8.10054 6.3817 7.86612 6.61612C7.6317 6.85054 7.5 7.16848 7.5 7.5C7.5 7.83152 7.6317 8.14946 7.86612 8.38388C8.10054 8.6183 8.41848 8.75 8.75 8.75Z" fill="#5375E2"/>
<path d="M21.25 11.25H8.75C8.41848 11.25 8.10054 11.3817 7.86612 11.6161C7.6317 11.8505 7.5 12.1685 7.5 12.5C7.5 12.8315 7.6317 13.1495 7.86612 13.3839C8.10054 13.6183 8.41848 13.75 8.75 13.75H21.25C21.5815 13.75 21.8995 13.6183 22.1339 13.3839C22.3683 13.1495 22.5 12.8315 22.5 12.5C22.5 12.1685 22.3683 11.8505 22.1339 11.6161C21.8995 11.3817 21.5815 11.25 21.25 11.25Z" fill="#5375E2"/>
<path d="M21.25 16.25H8.75C8.41848 16.25 8.10054 16.3817 7.86612 16.6161C7.6317 16.8505 7.5 17.1685 7.5 17.5C7.5 17.8315 7.6317 18.1495 7.86612 18.3839C8.10054 18.6183 8.41848 18.75 8.75 18.75H21.25C21.5815 18.75 21.8995 18.6183 22.1339 18.3839C22.3683 18.1495 22.5 17.8315 22.5 17.5C22.5 17.1685 22.3683 16.8505 22.1339 16.6161C21.8995 16.3817 21.5815 16.25 21.25 16.25Z" fill="#5375E2"/>
</g>
<defs>
<clipPath id="clip0_587_435">
<rect width="30" height="30" fill="white"/>
</clipPath>
</defs>
</svg>
