<!-- 
https://www.figma.com/ 
I used this resource to layout my images and pages for this program
https://undraw.co/ 
I used this resource to find free vector stock images for my program so the images 
are displayed with high-quality 
 -->
<svg width="300" height="470" viewBox="0 0 300 470" fill="none" xmlns="http://www.w3.org/2000/svg">
<path d="M115.069 379.457H138.737L173.991 201.732H115.069V379.457Z" fill="#DBDBDB"/>
<path d="M115.069 201.732C115.416 215.649 115.564 229.565 115.697 243.482L115.895 285.231L115.697 326.981L115.564 347.922L115.151 368.797L114.672 347.922L114.441 327.047L114.242 285.298L114.441 243.548C114.573 229.565 114.721 215.699 115.069 201.732Z" fill="#DBDBDB"/>
<path d="M115.069 248.754C130.473 248.424 145.861 248.258 161.265 248.126L207.444 247.928L253.722 248.126L276.861 248.357L300 248.754L276.861 249.167L253.722 249.399L207.444 249.581L161.265 249.399C145.861 249.333 130.44 249.167 115.069 248.754Z" fill="#DBDBDB"/>
<path d="M168.025 379.459L169.198 393.855L171.942 427.126H184.47L187.214 393.855L188.387 379.459H168.025Z" fill="#C7C7C7"/>
<path d="M188.387 379.459H168.025L169.198 393.855H187.214L188.387 379.459Z" fill="#A6A6A6"/>
<path d="M80.3276 379.459L81.5011 393.855L84.2448 427.126H96.7729L99.5166 393.855L100.69 379.459H80.3276Z" fill="#C7C7C7"/>
<path d="M80.3276 379.459L81.5011 393.855H99.5166L100.69 379.459H80.3276Z" fill="#A6A6A6"/>
<path d="M1.52201 407.735C5.15815 409.867 117.069 433.254 121.895 431.453C123.729 430.775 128.093 414.677 132.803 395.091C133.828 390.86 134.853 386.48 135.861 382.034C142.472 353.144 148.868 322.336 148.868 322.336L74.0465 306.469L63.105 366.597L60.6919 379.82C60.6919 379.82 13.8518 390.034 8.76124 392.579C3.67064 395.124 -2.11414 405.62 1.52201 407.735Z" fill="#F7A9A0"/>
<path d="M1.14209 407.835C4.81128 409.967 117.333 433.486 122.193 431.685C124.44 430.842 130.457 407.124 136.241 381.969L63.0722 366.449L60.6591 379.672C60.6591 379.672 13.538 389.935 8.43088 392.497C3.32375 395.059 -2.51058 405.769 1.14209 407.835Z" fill="#5375E2"/>
<path d="M3.70444 403.671C22.662 407.141 98.8061 422.975 117.284 427.851C117.433 427.851 117.417 428 117.284 427.967C98.4094 424.942 22.3975 408.497 3.65484 403.985C3.17553 403.885 3.30777 403.588 3.70444 403.671Z" fill="#263238"/>
<path d="M58.8742 374.975C66.5927 375.141 75.4021 378.182 79.9968 384.644C80.1621 384.892 79.815 385.14 79.5836 385.024C72.9708 381.252 65.9726 378.198 58.7089 375.917C58.5908 375.889 58.4882 375.816 58.4217 375.714C58.3552 375.612 58.33 375.489 58.351 375.369C58.372 375.249 58.4377 375.142 58.5348 375.069C58.632 374.996 58.7533 374.962 58.8742 374.975Z" fill="#263238"/>
<path d="M52.8415 377.08C60.56 377.245 69.3694 380.286 73.9642 386.765C74.1294 387.013 73.7823 387.261 73.551 387.129C66.961 383.368 59.9915 380.316 52.7588 378.022C52.6489 377.994 52.5525 377.927 52.487 377.835C52.4214 377.742 52.3908 377.629 52.4008 377.516C52.4107 377.403 52.4604 377.297 52.5411 377.217C52.6218 377.137 52.7283 377.089 52.8415 377.08Z" fill="#263238"/>
<path d="M46.8087 379.192C54.5107 379.357 63.3367 382.399 67.9314 388.878C68.0967 389.125 67.7496 389.373 67.5182 389.241C60.902 385.475 53.9045 382.422 46.6435 380.134C46.5254 380.105 46.4227 380.033 46.3563 379.931C46.2898 379.829 46.2645 379.706 46.2855 379.586C46.3065 379.466 46.3723 379.359 46.4694 379.286C46.5666 379.213 46.6878 379.179 46.8087 379.192Z" fill="#263238"/>
<path d="M40.7765 381.307C48.4785 381.473 57.3044 384.497 61.8992 390.976C62.0645 391.224 61.7174 391.472 61.486 391.356C54.8766 387.577 47.8776 384.523 40.6112 382.249C40.4931 382.221 40.3905 382.148 40.324 382.046C40.2576 381.944 40.2323 381.821 40.2533 381.701C40.2743 381.581 40.34 381.474 40.4372 381.401C40.5343 381.328 40.6556 381.294 40.7765 381.307Z" fill="#263238"/>
<path d="M49.866 366.202C54.2624 371.392 60.7414 374.466 66.3939 378.036C66.5253 378.103 66.6705 378.138 66.8178 378.138C66.9652 378.139 67.1106 378.105 67.2425 378.039C67.3743 377.973 67.4888 377.877 67.5768 377.759C67.6648 377.641 67.7239 377.503 67.7492 377.358C67.7802 377.361 67.8114 377.357 67.8406 377.346C67.8698 377.335 67.8964 377.318 67.9184 377.296C67.9404 377.274 67.9573 377.248 67.9681 377.218C67.9788 377.189 67.9831 377.158 67.9806 377.127C67.0952 370.081 64.3768 363.39 60.0968 357.723C57.5515 354.418 52.4939 351.525 48.7256 354.946C44.9572 358.368 47.3042 363.177 49.866 366.202ZM49.2214 359.839C49.6181 351.426 57.4854 357.525 59.2538 360.004C60.3902 361.619 61.4067 363.315 62.295 365.078C64.1039 368.734 65.7257 372.48 67.1542 376.301C64.4767 374.383 61.6669 372.714 58.8903 370.896C55.6673 368.731 49.0066 364.45 49.2214 359.839Z" fill="#263238"/>
<path d="M95.1368 371.061C94.3104 366.102 88.5256 365.226 84.5093 366.185C77.6527 367.968 71.3838 371.518 66.3286 376.482C66.3044 376.502 66.2848 376.527 66.2714 376.556C66.258 376.584 66.2511 376.615 66.2511 376.647C66.2511 376.679 66.258 376.71 66.2714 376.738C66.2848 376.767 66.3044 376.792 66.3286 376.812C66.2585 376.942 66.2198 377.086 66.2157 377.234C66.2116 377.381 66.2421 377.527 66.3048 377.661C66.3675 377.794 66.4606 377.911 66.5767 378.002C66.6928 378.093 66.8286 378.155 66.9732 378.184C73.5844 378.911 80.6253 380.514 87.286 379.192C91.1536 378.349 95.9301 375.721 95.1368 371.061ZM77.2536 377.242C73.948 376.961 70.7416 376.515 67.4525 376.366C70.9424 374.253 74.5393 372.322 78.2287 370.581C80.0222 369.756 81.8726 369.06 83.7656 368.499C86.7075 367.672 96.6408 367.755 91.732 374.598C89.0049 378.3 81.1542 377.506 77.2536 377.176V377.242Z" fill="#263238"/>
<path d="M104.426 469.389C108.492 470.529 222.667 464.629 226.881 461.654C228.534 460.53 228.98 414.698 227.774 410.285C223.724 395.41 205.924 350.371 205.924 350.371L129.532 354.09L153.58 413.904L154.605 427.275C154.605 427.275 111.896 449.092 107.632 452.861C103.368 456.629 100.376 468.265 104.426 469.389Z" fill="#F7A9A0"/>
<path d="M104.094 469.571C108.16 470.712 222.98 464.778 227.211 461.786C229.178 460.415 228.864 435.937 228.136 410.137L153.43 413.773L154.472 427.227C154.472 427.227 111.499 449.159 107.235 452.944C102.971 456.729 100.012 468.447 104.094 469.571Z" fill="#5375E2"/>
<path d="M105.5 464.889C124.722 463.435 202.387 459.319 221.493 459.336C221.658 459.336 221.658 459.452 221.493 459.452C202.469 461.336 124.772 464.807 105.5 465.203C105.103 465.269 105.087 464.922 105.5 464.889Z" fill="#263238"/>
<path d="M151.529 423.092C159.033 421.29 168.355 421.968 174.42 427.075C174.652 427.257 174.42 427.604 174.123 427.538C166.767 425.566 159.219 424.397 151.612 424.05C151.503 424.033 151.402 423.979 151.327 423.898C151.252 423.817 151.206 423.713 151.196 423.603C151.187 423.493 151.214 423.383 151.275 423.29C151.335 423.197 151.425 423.127 151.529 423.092Z" fill="#263238"/>
<path d="M146.241 426.662C153.744 424.861 163.066 425.555 169.132 430.645C169.363 430.844 169.132 431.174 168.834 431.108C161.476 429.147 153.93 427.978 146.323 427.621C146.196 427.632 146.07 427.592 145.972 427.51C145.874 427.428 145.814 427.31 145.803 427.183C145.792 427.056 145.832 426.929 145.914 426.832C145.996 426.734 146.113 426.673 146.241 426.662Z" fill="#263238"/>
<path d="M140.935 430.248C148.439 428.447 157.76 429.124 163.826 434.215C164.058 434.413 163.826 434.744 163.529 434.678C156.171 432.72 148.624 431.556 141.018 431.207C140.908 431.19 140.808 431.136 140.733 431.055C140.657 430.974 140.611 430.87 140.602 430.76C140.592 430.65 140.62 430.54 140.68 430.447C140.741 430.354 140.83 430.284 140.935 430.248Z" fill="#263238"/>
<path d="M135.646 433.869C143.15 432.067 152.472 432.745 158.537 437.852C158.769 438.05 158.537 438.381 158.24 438.315C150.882 436.354 143.335 435.185 135.729 434.827C135.666 434.833 135.603 434.826 135.542 434.807C135.482 434.788 135.426 434.757 135.378 434.716C135.33 434.676 135.29 434.626 135.261 434.57C135.232 434.514 135.214 434.452 135.208 434.389C135.203 434.327 135.21 434.263 135.229 434.203C135.248 434.143 135.279 434.087 135.319 434.038C135.36 433.99 135.41 433.95 135.466 433.921C135.522 433.892 135.583 433.874 135.646 433.869Z" fill="#263238"/>
<path d="M140.588 416.91C146.158 420.794 153.231 422.133 159.595 424.133C159.74 424.165 159.89 424.162 160.034 424.125C160.177 424.088 160.31 424.017 160.421 423.919C160.532 423.82 160.619 423.697 160.673 423.559C160.728 423.421 160.749 423.272 160.735 423.125C160.867 423.125 160.966 422.993 160.9 422.844C158.25 416.26 153.919 410.487 148.339 406.101C145.034 403.605 139.398 402.052 136.637 406.299C133.877 410.547 137.332 414.646 140.588 416.91ZM138.356 410.911C136.588 402.647 145.728 406.58 148.091 408.514C149.598 409.789 151.012 411.17 152.322 412.646C155.005 415.72 157.526 418.93 159.876 422.265C156.801 421.092 153.661 420.199 150.554 419.142C146.852 417.869 139.315 415.456 138.356 410.911Z" fill="#263238"/>
<path d="M185.594 410.002C183.511 405.374 177.71 406.035 174.024 407.985C167.837 411.462 162.668 416.5 159.033 422.596C159.017 422.624 159.007 422.654 159.004 422.686C159.001 422.718 159.005 422.751 159.016 422.781C159.027 422.811 159.045 422.838 159.068 422.86C159.091 422.883 159.119 422.9 159.149 422.91C159.112 423.054 159.11 423.205 159.143 423.35C159.176 423.496 159.242 423.631 159.337 423.746C159.432 423.86 159.553 423.95 159.69 424.009C159.827 424.068 159.976 424.093 160.124 424.084C166.735 423.092 173.909 422.86 179.958 419.869C183.61 418.133 187.544 414.382 185.594 410.002ZM169.859 420.53C166.554 421.092 163.38 421.505 160.174 422.183C163.009 419.249 165.993 416.463 169.116 413.836C170.644 412.587 172.257 411.444 173.942 410.415C176.57 408.878 186.205 406.432 183.181 414.299C181.528 418.629 173.727 419.869 169.859 420.53Z" fill="#263238"/>
<path d="M279.654 239.169C256.895 264.507 180.486 244.491 175.858 254.574C171.842 263.482 227.806 402.366 227.806 402.366L146.819 409.721C146.819 409.721 68.4104 257.565 94.1774 211.965C108.094 187.354 169.413 197.089 206.419 192.66C217.575 191.305 222.814 168.281 222.814 168.281H288.926C288.926 168.281 305.636 210.196 279.654 239.169Z" fill="#455A64"/>
<path d="M117.416 197.85L187.527 251.499C210.815 251.003 261.771 259.069 279.638 239.153C305.669 210.18 288.976 168.281 288.976 168.281H222.864C222.864 168.281 217.625 191.305 206.468 192.66C180.487 195.866 142.555 191.933 117.416 197.85Z" fill="#263238"/>
<path d="M142.208 393.987C144.505 393.26 166.157 390.847 170.933 390.335C180.486 389.293 210.6 386.484 216.038 386.5C216.187 386.5 216.203 386.731 216.038 386.765C211.311 387.756 192.106 389.987 187.329 390.483C177.759 391.458 144.885 394.648 142.224 394.384C142.172 394.386 142.12 394.367 142.082 394.332C142.043 394.296 142.02 394.246 142.018 394.194C142.016 394.141 142.034 394.09 142.07 394.051C142.106 394.012 142.155 393.989 142.208 393.987Z" fill="#263238"/>
<path d="M165.149 244.97C170.52 242.309 197.428 243.317 208.782 243.102L225.889 242.689C230.946 242.573 236.02 242.507 241.061 242.127C250.598 241.4 260.118 239.202 267.39 232.971C273.723 227.262 278.24 219.82 280.381 211.567C283.191 201.65 282.894 191.188 282.414 180.957C282.299 178.445 282.133 175.999 281.968 173.42C281.968 173.288 282.216 173.255 282.232 173.42C284.464 191.717 286.15 212.162 274.25 227.963C268.981 234.939 261.459 239.874 252.962 241.929C243.194 244.408 232.847 244.127 222.815 244.358L189.015 245.102C183.379 245.234 169.182 245.416 166.802 247.201C164.025 249.333 180.106 299.016 183.958 309.115C191.671 329.411 199.312 349.74 206.882 370.103C207.791 372.549 210.336 379.656 211.195 382.135C211.344 382.598 210.534 382.912 210.336 382.449C206.105 372.45 200.651 357.657 196.701 347.542C192.75 337.427 188.817 327.428 184.933 317.346C177.016 297.049 160.405 247.3 165.149 244.97Z" fill="#263238"/>
<path d="M91.2195 216.377C95.649 206.609 104.128 200.163 117.334 197.783C117.565 197.783 117.549 198.064 117.334 198.13C105.764 201.436 97.6324 205.998 92.8393 215.6C90.0966 221.807 88.8727 228.577 89.2692 235.351C89.8477 254.672 96.7399 282.654 100.674 296.058C104.607 309.462 109.301 322.668 114.326 335.725C119.35 348.782 130.853 376.037 131.68 377.723C131.697 377.753 131.702 377.79 131.693 377.824C131.683 377.858 131.661 377.887 131.63 377.904C131.6 377.922 131.563 377.927 131.529 377.917C131.495 377.908 131.466 377.886 131.448 377.855C126.209 369.012 109.962 329.544 100.789 300.785C96.4754 287.15 81.6829 237.351 91.2195 216.377Z" fill="#263238"/>
<path d="M61.0225 362.797L131.597 377.838C131.597 377.838 74.377 227.434 97.7971 208.179C104.293 202.84 118.44 200.989 135.266 208.179C160.388 219.021 189.461 241.135 216.881 249.234C242.549 256.804 273.076 249.846 283.505 238.293C305.553 214.046 288.976 168.214 288.976 168.214L210.534 164.793C210.534 164.793 212.187 168.297 207.823 172.148C207.823 172.148 141.629 157.636 118.407 171.817C76.5256 197.518 61.0225 362.797 61.0225 362.797Z" fill="#455A64"/>
<path d="M249.689 173.569C249.7 173.536 249.721 173.507 249.749 173.486C249.778 173.466 249.812 173.455 249.846 173.455C249.881 173.455 249.915 173.466 249.943 173.486C249.972 173.507 249.993 173.536 250.003 173.569C249.928 176.986 250.194 180.402 250.797 183.766C251.513 186.961 253.097 189.895 255.375 192.245C260.333 197.204 267.506 199.005 274.035 201.055C274.382 201.17 274.333 201.782 273.936 201.716C266.68 200.608 259.061 198.774 253.772 193.32C251.332 190.815 249.697 187.638 249.078 184.196C248.402 180.657 248.613 177.007 249.689 173.569Z" fill="#263238"/>
<path d="M99.3677 205.303C109.086 199.188 124.275 203.832 131.548 206.609C131.713 206.609 131.63 206.923 131.548 206.857C124.854 204.46 108.21 200.808 99.3016 207.121C78.7244 221.699 111.07 317.33 131.663 377.012C131.961 377.855 131.267 377.64 130.886 376.814C127.911 370.302 97.6158 289.926 92.5583 251.829C91.5666 244.788 85.3521 214.047 99.3677 205.303Z" fill="#263238"/>
<path d="M69.6833 348.234C71.6005 348.234 87.9797 351.804 91.5993 352.614C98.8055 354.267 121.35 359.771 125.3 361.258C125.399 361.258 125.3 361.523 125.217 361.506C121.465 361.159 106.904 358.035 103.301 357.209C96.0949 355.556 71.3856 349.606 69.5676 348.631C69.4188 348.548 69.5015 348.251 69.6833 348.234Z" fill="#263238"/>
<path d="M102.459 202.706C109.07 199.136 116.788 198.541 124.044 199.401C131.708 200.565 139.149 202.895 146.109 206.309C160.901 213.069 174.983 221.333 189.792 228.06C204.601 234.787 220.237 239.977 236.451 240.472C250.334 240.902 267.854 238.456 276.795 225.994C290.546 206.755 282.53 173.617 282.382 171.452C282.382 171.287 282.596 171.303 282.63 171.452C293.29 212.193 279.572 228.01 270.316 234.655C262.961 239.944 252.4 241.266 245.425 241.861C229.294 243.233 213.113 239.282 198.139 233.316C182.817 227.217 168.389 218.986 153.745 211.482C139.663 204.276 123.995 196.839 107.863 200.971C106.044 201.452 104.26 202.06 102.525 202.789C102.426 202.904 102.343 202.756 102.459 202.706Z" fill="#263238"/>
<path d="M178.453 143.075L191.196 142.612C194.504 135.216 195.434 126.974 193.857 119.027C193.527 117.192 198.502 127.489 197.659 142.397C211.112 141.901 232.78 140.91 248.746 140.166C248.746 133.918 248.895 128.134 248.895 128.134C249.651 132.188 250.757 136.17 252.201 140.034L258.581 139.72C257.962 130.869 257.824 121.992 258.167 113.126C259.871 122.294 263.065 131.121 267.621 139.257C277.753 138.678 284.414 138.116 283.951 137.604C267.572 120.944 278.183 110.151 272.894 94.929C266.564 76.7483 250.399 74.7154 250.036 60.7658C249.705 49.4111 250.664 7.5294 233.97 7.33106C233.97 7.33106 219.806 -5.41197 201.939 2.70324C179.842 12.7192 190.601 66.0548 189.477 73.2609C187.825 83.5413 183.279 87.4254 180.37 99.2098C177.461 110.994 183.197 118.614 184.271 126.53C185.345 134.447 175.908 143.207 178.453 143.075Z" fill="#263238"/>
<path d="M284.314 135.126C282.025 132.2 280.166 128.96 278.794 125.507C277.668 122.072 277.463 118.402 278.199 114.863C278.786 111.112 279.183 107.333 279.389 103.542C279.564 99.6022 278.946 95.6677 277.571 91.972C276.105 88.2677 273.809 84.9488 270.861 82.2701C268.007 79.7377 264.95 77.4437 261.721 75.4111C258.596 73.4679 255.74 71.1229 253.225 68.4363C250.792 65.6182 249.175 62.1893 248.548 58.5195C248.632 62.3753 249.883 66.115 252.134 69.2461C254.477 72.2888 257.263 74.963 260.398 77.1796C263.391 79.3393 266.245 81.6854 268.943 84.2039C271.491 86.6871 273.48 89.6846 274.778 92.9968C275.962 96.3657 276.522 99.9222 276.43 103.492C276.43 107.128 275.968 110.814 275.72 114.615C275.571 116.541 275.571 118.475 275.72 120.4C275.928 122.379 276.488 124.304 277.373 126.086C279.123 129.493 281.475 132.555 284.314 135.126Z" fill="#263238"/>
<path d="M189.941 22.6016C188.476 26.8758 187.559 31.3188 187.214 35.8239C186.767 40.303 187.627 61.2108 187.445 65.6898L187.147 72.301C187.066 74.4502 186.778 76.5867 186.288 78.6808C185.056 82.8365 183.061 86.7264 180.404 90.1512C179.096 92.055 177.915 94.0426 176.867 96.1012C175.844 98.2101 175.062 100.428 174.537 102.712C174.088 104.985 173.817 107.29 173.727 109.605C173.627 111.934 173.827 114.267 174.322 116.546C174.785 118.827 175.512 120.992 176.14 123.157C176.756 125.262 177.171 127.42 177.379 129.603C177.504 131.796 177.09 133.986 176.174 135.983C175.257 137.979 173.867 139.721 172.124 141.057C174.106 139.857 175.752 138.174 176.908 136.165C178.064 134.156 178.693 131.888 178.735 129.57C178.717 127.268 178.456 124.975 177.958 122.728C177.495 120.496 176.851 118.364 176.537 116.216C175.973 111.933 176.214 107.584 177.247 103.39C177.763 101.32 178.505 99.3136 179.462 97.4069C180.466 95.4683 181.604 93.6017 182.867 91.8205C184.171 89.9322 185.379 87.9794 186.486 85.9696C187.61 83.8875 188.45 81.6639 188.982 79.3584C189.458 77.0862 189.702 74.7714 189.709 72.4498C189.709 70.1854 189.709 67.9542 189.709 65.7064C189.709 61.2438 188.503 40.3525 188.602 35.9561C188.57 31.4696 189.019 26.9925 189.941 22.6016Z" fill="#263238"/>
<path d="M228.285 86.6642C221.756 113.225 205.923 154.429 191.923 154.263C179.164 154.065 150.604 131.438 138.77 124.017C126.936 116.596 153.645 87.3914 160.438 92.1184C171.016 99.4403 186.882 112.514 189.56 111.654C192.866 110.597 197.146 102.382 216.17 78.1688C224.004 68.2686 231.062 75.3591 228.285 86.6642Z" fill="#F7A9A0"/>
<path d="M147.645 80.86C142.026 78.8767 135.729 76.1496 129.465 76.2653C123.201 76.381 118.044 84.6284 118.044 86.9754C118.044 89.3223 120.391 104.065 126.638 104.065C132.886 104.065 129.118 92.7601 129.349 91.4544C129.58 90.1487 129.828 88.5125 131.002 88.6282C132.175 88.7439 152.802 98.5449 152.802 98.5449L147.645 80.86Z" fill="#F7A9A0"/>
<path d="M147.248 81.7211C146.885 81.7211 130.158 75.11 123.911 75.2422C117.663 75.3744 112.474 83.6053 112.474 85.9688C112.474 88.3323 114.837 103.059 121.085 103.059C127.332 103.059 123.547 91.7371 123.795 90.4479C124.043 89.1587 124.258 87.4894 125.448 87.6051C126.638 87.7208 147.248 97.5218 147.248 97.5218V81.7211Z" fill="#F7A9A0"/>
<path d="M123.201 102.269C123.871 101.149 124.231 99.8714 124.243 98.5667C124.372 97.235 124.294 95.8912 124.011 94.5835C123.668 93.4593 123.414 92.3098 123.251 91.1457C123.268 89.9887 123.568 88.8535 124.127 87.8401C124.606 86.9641 125.532 87.2782 126.309 87.5426C127.473 87.9872 128.61 88.5005 129.713 89.0797C130.903 89.6747 132.093 90.3028 133.267 90.9143C134.519 91.5001 135.733 92.1624 136.903 92.8976C136.903 92.8976 136.903 93.1125 136.82 93.0629C135.738 92.6469 134.678 92.1724 133.647 91.6415L130.077 89.9887C128.953 89.4929 127.862 88.9309 126.771 88.4516C126.375 88.2863 125.581 87.8566 125.119 87.9723C124.656 88.088 124.391 89.245 124.292 89.6251C124.045 90.7247 124.119 91.8723 124.507 92.9307C124.836 94.0466 125.052 95.1928 125.152 96.352C125.269 97.4607 125.179 98.5815 124.887 99.6576C124.514 100.618 124.013 101.524 123.4 102.352C123.317 102.5 123.119 102.368 123.201 102.269Z" fill="#263238"/>
<path d="M167.05 98.1202C167.05 98.1202 149.745 82.336 146.142 79.2123C138.919 72.9317 108.475 60.4861 104.227 60.0399C99.9795 59.5936 98.4589 68.3038 119.102 77.3281C129.994 82.0881 131.928 88.3192 131.713 91.7735C131.498 95.2278 128.209 101.69 122.408 101.525C116.607 101.36 112.822 92.8808 107.533 91.9388C102.244 90.9967 105.731 100.781 109.5 106.45C113.452 111.914 118.874 116.143 125.135 118.648C130.093 120.532 145.729 127.242 145.729 127.242L167.05 98.1202Z" fill="#F7A9A0"/>
<path d="M115.201 97.4435C117.383 99.0962 119.879 101.328 122.754 101.443C125.63 101.559 127.713 99.6086 129.051 97.1955C130.569 94.8055 131.113 91.9252 130.572 89.1464C129.898 86.6378 128.515 84.3768 126.589 82.6344C124.232 80.5143 121.582 78.7442 118.722 77.3786C118.589 77.3786 118.722 77.1306 118.837 77.1968C121.515 78.3868 129.828 81.7915 131.498 89.1464C132.027 92.0111 131.436 94.9698 129.845 97.4104C128.556 99.7243 126.671 101.956 123.862 102.187C120.424 102.468 117.465 99.6747 115.003 97.5757C114.92 97.4269 115.085 97.3443 115.201 97.4435Z" fill="#263238"/>
<path d="M223.674 141.591L190.783 110.469C190.783 110.469 199.593 97.61 211.873 82.206C223.773 67.3308 231.293 67.8597 230.979 94.4201C230.799 110.411 228.339 126.295 223.674 141.591Z" fill="#5375E2"/>
<path d="M195.329 105.64C198.023 107.673 200.436 110.119 202.965 112.367C205.493 114.615 207.774 116.664 210.105 118.879C214.953 123.496 219.696 128.201 224.335 132.994C224.418 132.994 224.335 133.225 224.186 133.159C219.239 128.752 214.352 124.3 209.526 119.805C207.13 117.557 204.783 115.26 202.436 112.946C200.089 110.632 197.477 108.351 195.196 105.806C195.186 105.797 195.177 105.786 195.17 105.774C195.163 105.762 195.159 105.749 195.157 105.735C195.156 105.721 195.157 105.707 195.161 105.694C195.165 105.68 195.171 105.668 195.18 105.657C195.189 105.646 195.199 105.637 195.212 105.63C195.224 105.624 195.237 105.619 195.251 105.618C195.265 105.616 195.279 105.617 195.292 105.621C195.305 105.625 195.318 105.632 195.329 105.64Z" fill="#263238"/>
<path opacity="0.1" d="M230.98 94.4162C230.8 110.407 228.34 126.291 223.674 141.587L191.263 110.928L225.476 72.5332C229.145 73.6736 231.145 80.4501 230.98 94.4162Z" fill="black"/>
<path d="M196.386 176.329L295.322 177.982C295.322 177.982 269.274 97.3755 248.696 75.7736C239.325 65.8568 230.268 67.5096 222.649 73.972C220.748 75.6248 197.245 105.97 195.328 116.515C193.675 125.82 201.278 136.067 201.278 136.067L196.386 176.329Z" fill="#5375E2"/>
<path opacity="0.1" d="M245.26 72.6645H224.319C225.176 72.0493 226.076 71.4969 227.013 71.0117H242.681C243.579 71.5003 244.441 72.0526 245.26 72.6645ZM250.449 77.7386H219.476C219.046 78.2675 218.6 78.846 218.121 79.3914H251.838C251.342 78.8074 250.879 78.2565 250.449 77.7386ZM255.408 84.5481H214.253C213.823 85.11 213.394 85.705 212.964 86.3H256.532C256.201 85.705 255.821 85.1266 255.441 84.5481H255.408ZM259.573 91.3741H209.328L208.121 93.1095H260.548L259.573 91.3741ZM263.275 98.1836H204.816C204.436 98.7621 204.055 99.3406 203.692 99.8364H264.267L263.275 98.1836ZM266.68 105.01H200.502C200.155 105.605 199.824 106.183 199.527 106.745H267.622C267.302 106.15 266.999 105.555 266.713 104.96L266.68 105.01ZM269.87 111.819H196.932C196.668 112.431 196.42 113.009 196.221 113.472H270.696L269.87 111.819ZM272.927 118.645H195.081C195.039 119.223 195.039 119.803 195.081 120.381H273.671L272.927 118.645ZM275.886 125.455H196.039C196.205 126.05 196.403 126.628 196.601 127.107H276.58L275.886 125.455ZM278.679 132.264H198.915C199.262 132.925 199.609 133.504 199.924 134.016H279.258L278.679 132.264ZM281.373 139.09H200.915L200.7 140.743H282.018C281.803 140.247 281.571 139.669 281.34 139.09H281.373ZM283.984 145.9H200.089L199.874 147.553H284.613C284.414 147.073 284.15 146.478 283.951 145.9H283.984ZM286.546 152.726H199.262L199.048 154.379H287.158C286.948 153.872 286.734 153.321 286.513 152.726H286.546ZM289.009 159.535H198.419L198.221 161.188H289.604C289.406 160.709 289.207 160.13 288.976 159.502L289.009 159.535ZM291.439 166.361H197.593L197.395 168.014H292.001C291.802 167.507 291.604 166.956 291.406 166.361H291.439ZM293.769 173.171H196.767L196.552 174.824H294.314C294.149 174.377 293.951 173.815 293.736 173.171H293.769Z" fill="#030402"/>
<path d="M215.576 131.954C219.968 132.247 224.325 132.922 228.6 133.97C230.732 134.548 232.831 135.226 234.93 135.953C235.971 136.317 237.013 136.648 238.07 136.962C239.137 137.326 240.25 137.538 241.376 137.59C241.475 137.59 241.492 137.771 241.376 137.771C240.309 137.862 239.236 137.862 238.17 137.771C237.126 137.666 236.093 137.478 235.079 137.209C232.914 136.664 230.782 135.986 228.616 135.408C224.253 134.251 219.89 133.094 215.477 132.334C215.345 132.35 215.378 131.937 215.576 131.954Z" fill="#263238"/>
<path d="M205.064 137.094C208.615 136.483 212.205 136.118 215.807 136.003C217.61 135.959 219.414 136.014 221.212 136.168C222.071 136.168 222.864 136.3 223.79 136.4C224.716 136.499 225.674 136.763 226.616 136.862C226.715 136.862 226.715 137.044 226.616 137.044C225.724 137.044 224.831 137.127 223.939 137.127H221.245C219.443 137.127 217.642 137.209 215.857 137.209C212.253 137.209 208.667 137.209 205.08 137.424C204.816 137.457 204.816 137.127 205.064 137.094Z" fill="#263238"/>
<path d="M237.524 71.906C237.524 73.691 231.459 86.3844 223.558 87.5414C220.98 87.905 218.336 73.9554 218.336 73.9554L217.906 72.9803L211.89 59.196L226.765 45.0481L228.93 43.1309C228.93 43.1309 230.335 47.0149 232.037 51.8576C232.037 52.089 232.186 52.3039 232.269 52.5518L232.566 53.3286L233.326 55.5268C233.525 56.0887 233.706 56.6342 233.888 57.1796L234.467 58.9481C235.786 63.1911 236.808 67.5209 237.524 71.906Z" fill="#F7A9A0"/>
<path d="M231.971 51.84C231.298 56.1698 229.691 60.3015 227.262 63.9488C224.834 67.596 221.641 70.6717 217.906 72.9627L211.89 59.1784L226.765 45.0305L228.93 43.1133C228.93 43.1133 230.269 46.9973 231.971 51.84Z" fill="#263238"/>
<path d="M189.081 41.493C194.254 67.3758 210.353 67.2105 215.922 66.0866C220.997 65.0619 238.119 60.9464 235.64 34.6835C233.161 8.42069 219.492 2.61939 207.791 4.33829C196.089 6.05719 183.908 15.6103 189.081 41.493Z" fill="#F7A9A0"/>
<path d="M191.841 36.2882C192.406 36.0741 192.958 35.8257 193.493 35.5444C194.115 35.358 194.66 34.9753 195.047 34.4536C195.133 34.2646 195.155 34.0529 195.11 33.8503C195.066 33.6476 194.956 33.4649 194.799 33.3297C194.441 33.1189 194.033 33.0078 193.617 33.0078C193.202 33.0078 192.794 33.1189 192.436 33.3297C191.638 33.6302 190.983 34.2204 190.601 34.9825C190.531 35.1584 190.513 35.3507 190.549 35.5366C190.585 35.7226 190.673 35.8943 190.803 36.0317C190.934 36.169 191.101 36.2661 191.284 36.3116C191.468 36.357 191.661 36.3489 191.841 36.2882Z" fill="#263238"/>
<path d="M209.492 32.2394C208.887 32.2726 208.28 32.2726 207.674 32.2394C207.032 32.3312 206.378 32.2154 205.807 31.9089C205.649 31.7736 205.54 31.591 205.495 31.3883C205.45 31.1856 205.473 30.9739 205.559 30.785C205.791 30.4407 206.112 30.1644 206.486 29.9844C206.861 29.8043 207.276 29.727 207.691 29.7603C208.535 29.6875 209.375 29.9419 210.038 30.471C210.187 30.5988 210.296 30.7676 210.351 30.9566C210.406 31.1455 210.404 31.3464 210.346 31.5344C210.288 31.7224 210.176 31.8893 210.025 32.0146C209.873 32.1399 209.688 32.218 209.492 32.2394Z" fill="#263238"/>
<path d="M206.832 39.5273C206.832 39.5273 206.981 39.5273 206.997 39.6596C207.278 41.4446 207.923 43.4279 209.625 43.6924V43.7915C207.642 43.9072 206.815 41.2628 206.832 39.5273Z" fill="#263238"/>
<path d="M208.121 37.378C210.914 36.6012 212.253 42.2372 209.675 42.9644C207.096 43.6917 205.691 38.0391 208.121 37.378Z" fill="#263238"/>
<path d="M209.212 37.4119C209.791 37.6102 210.402 38.0565 211.014 37.9738C211.625 37.8912 212.088 37.164 212.402 36.4863C212.402 36.4863 212.501 36.4863 212.518 36.4863C212.727 36.9821 212.741 37.5388 212.557 38.0446C212.373 38.5504 212.005 38.968 211.526 39.2134C210.501 39.6101 209.51 38.8333 208.981 37.8086C208.882 37.6763 208.981 37.3292 209.212 37.4119Z" fill="#263238"/>
<path d="M197.015 41.4922C197.015 41.4922 196.899 41.6079 196.915 41.674C197.411 43.4094 197.676 45.4754 196.238 46.4506C196.238 46.4506 196.238 46.5663 196.238 46.5332C198.205 45.7895 197.758 43.0458 197.015 41.4922Z" fill="#263238"/>
<path d="M195.014 40.055C192.155 40.5343 193.362 46.2199 195.973 45.7737C198.584 45.3274 197.411 39.6584 195.014 40.055Z" fill="#263238"/>
<path d="M193.907 40.6678C193.51 41.0645 193.18 41.7091 192.651 41.8578C192.122 42.0066 191.461 41.5108 190.998 40.9984C191.18 42.0892 191.775 43.147 192.866 43.1305C193.957 43.114 194.37 42.0562 194.403 40.9157C194.271 40.7835 194.056 40.5025 193.907 40.6678Z" fill="#263238"/>
<path d="M201.692 49.1616C201.692 49.1616 201.924 51.8557 202.204 53.0952C202.204 53.2109 202.552 53.1944 202.965 53.0952C204.068 53.0429 205.136 52.6905 206.053 52.0759C206.971 51.4614 207.703 50.608 208.171 49.6079C208.178 49.5806 208.176 49.5518 208.165 49.5257C208.155 49.4996 208.136 49.4776 208.112 49.4629C208.088 49.4481 208.06 49.4414 208.032 49.4437C208.004 49.446 207.977 49.4572 207.956 49.4756C206.639 50.8961 204.901 51.8575 202.998 52.2193C202.833 51.9052 202.766 47.5915 202.568 47.608C201.628 47.912 200.734 48.34 199.907 48.8806C199.246 43.2777 199.51 37.6086 198.783 32.0222C198.772 31.9852 198.749 31.9528 198.717 31.9299C198.686 31.9069 198.648 31.8945 198.61 31.8945C198.571 31.8945 198.533 31.9069 198.502 31.9299C198.471 31.9528 198.448 31.9852 198.436 32.0222C197.983 38.0822 198.132 44.1723 198.882 50.2029C198.915 50.9962 201.246 49.4922 201.692 49.1616Z" fill="#263238"/>
<path d="M203.014 52.5012C203.937 53.384 205.078 54.0057 206.32 54.3027C206.989 54.451 207.688 54.3874 208.32 54.1209C209.708 53.5259 209.543 52.2202 209.096 51.1294C208.867 50.5441 208.568 49.989 208.204 49.4766C206.842 51.0138 205.023 52.0739 203.014 52.5012Z" fill="#263238"/>
<path d="M206.254 54.3023C206.923 54.4505 207.622 54.387 208.254 54.1205C209.642 53.5255 209.477 52.2197 209.031 51.1289C208.281 51.2744 207.601 51.6653 207.099 52.2399C206.596 52.8145 206.299 53.5401 206.254 54.3023Z" fill="#FF9BBC"/>
<path d="M234.12 37.0503C231.261 37.3478 222.55 30.7531 220.17 17.1011C220.17 17.1011 223.211 29.216 224.435 30.8523C225.658 32.4886 219.592 27.15 217.46 16.159C214.392 19.2141 210.902 21.8134 207.097 23.8775C202.138 26.1914 198.932 26.6542 198.486 26.3402C198.039 26.0262 205.328 22.357 207.014 19.6299C207.014 19.6299 194.205 28.3235 187.891 29.8606C187.164 30.0259 186.239 15.5144 195.081 7.44877C203.923 -0.616851 218.22 3.28373 223.178 6.65543C223.178 6.65543 228.236 6.55627 234.748 13.0022C241.26 19.448 237.211 36.7363 234.12 37.0503Z" fill="#263238"/>
<path d="M237.607 44.2045C237.266 44.4546 236.9 44.6705 236.516 44.8491C236.139 45.0306 235.739 45.1586 235.326 45.2293C234.783 45.3574 234.217 45.3574 233.674 45.2293C233.26 45.1389 232.864 44.9826 232.5 44.7665C231.975 44.4697 231.505 44.0838 231.112 43.6261L230.55 36.453C230.55 36.453 233.773 26.9163 237.938 27.8584C242.103 28.8005 241.359 41.4113 237.607 44.2045Z" fill="#F7A9A0"/>
<path d="M237.673 31.4297C237.673 31.4297 237.789 31.4297 237.673 31.5289C235.062 33.5948 234.367 36.7847 234.053 39.9416C234.14 39.6021 234.299 39.2853 234.519 39.0125C234.739 38.7398 235.015 38.5176 235.329 38.3609C235.642 38.2041 235.986 38.1166 236.336 38.1041C236.686 38.0917 237.035 38.1547 237.359 38.2888C237.458 38.2888 237.359 38.4541 237.359 38.4541C236.792 38.4434 236.236 38.6074 235.766 38.9238C235.296 39.2402 234.934 39.6936 234.731 40.2225C234.403 41.1169 234.165 42.0414 234.02 42.9827C234.02 43.2802 233.442 43.2802 233.458 42.9827C232.351 39.1152 233.739 32.9833 237.673 31.4297Z" fill="#263238"/>
<path d="M236.946 43.2481C236.965 43.4889 236.912 43.7299 236.794 43.9407C236.676 44.1514 236.498 44.3225 236.283 44.4323C236.068 44.5421 235.825 44.5858 235.585 44.5577C235.345 44.5297 235.119 44.4313 234.935 44.2748C234.751 44.1184 234.617 43.9109 234.551 43.6787C234.485 43.4464 234.489 43.1997 234.562 42.9697C234.636 42.7396 234.776 42.5366 234.965 42.3861C235.154 42.2357 235.383 42.1445 235.624 42.1242C235.948 42.1012 236.267 42.2061 236.515 42.4162C236.762 42.6263 236.917 42.925 236.946 43.2481Z" fill="white"/>
<path d="M238.83 40.7656C238.849 40.9911 238.777 41.2147 238.632 41.3879C238.487 41.5612 238.279 41.6702 238.053 41.6912C237.93 41.7368 237.797 41.7534 237.666 41.7395C237.535 41.7257 237.408 41.6818 237.297 41.6113C237.185 41.5408 237.091 41.4455 237.023 41.3329C236.954 41.2203 236.912 41.0933 236.9 40.9619C236.888 40.8304 236.907 40.698 236.954 40.5749C237.002 40.4519 237.077 40.3414 237.174 40.2521C237.271 40.1628 237.388 40.097 237.515 40.06C237.641 40.0229 237.775 40.0155 237.905 40.0384C238.123 40.0191 238.34 40.0835 238.512 40.2187C238.683 40.3538 238.797 40.5494 238.83 40.7656Z" fill="white"/>
<path d="M251.821 98.3476C247.21 125.42 230.616 177.913 215.807 182.64C198.651 188.16 135.712 168.145 124.027 159.6C119.383 156.195 144.224 125.222 150.059 127.205C172.537 134.808 197.031 140.61 198.783 139.7C203.94 137.073 220.418 107.587 233.128 90.2159C249.094 68.4156 253.887 86.1996 251.821 98.3476Z" fill="#F7A9A0"/>
<path d="M125.565 160.446C122.92 159.504 104.69 146.265 99.3182 140.051C93.4881 133.628 88.7531 126.291 85.3025 118.333C79.8979 105.739 77.3526 96.5164 78.6914 92.3844C80.1954 87.5913 80.6251 86.8145 93.2359 107.706C100.359 119.54 107.169 120.928 113.069 120.763C127.577 120.485 141.94 123.693 154.951 130.118C154.951 130.118 135.746 164.066 125.565 160.446Z" fill="#F7A9A0"/>
<path d="M93.0538 67.8224L129.415 105.622C129.654 105.798 129.841 106.036 129.957 106.31C130.072 106.583 130.112 106.883 130.071 107.177C130.031 107.472 129.911 107.75 129.726 107.982C129.541 108.214 129.296 108.392 129.019 108.498L107.152 118.183C106.463 118.428 105.718 118.473 105.004 118.312C104.29 118.152 103.637 117.791 103.119 117.274L66.7579 79.4745C66.5188 79.2981 66.3317 79.0605 66.2163 78.7867C66.1008 78.513 66.0613 78.2131 66.1019 77.9188C66.1425 77.6244 66.2617 77.3465 66.447 77.1142C66.6322 76.8819 66.8767 76.7038 67.1546 76.5987L89.0045 66.9464C89.693 66.6933 90.4393 66.6413 91.1563 66.7964C91.8733 66.9515 92.5314 67.3073 93.0538 67.8224Z" fill="#37474F"/>
<path d="M90.409 66.2857L68.5095 76.0041C68.2316 76.1092 67.9872 76.2873 67.802 76.5196C67.6167 76.7519 67.4975 77.0299 67.4569 77.3242C67.4163 77.6185 67.4558 77.9184 67.5713 78.1922C67.6867 78.4659 67.8738 78.7035 68.1129 78.88L104.474 116.679C104.992 117.197 105.645 117.557 106.359 117.718C107.073 117.879 107.818 117.834 108.507 117.588L130.44 107.87C130.718 107.765 130.962 107.587 131.147 107.354C131.333 107.122 131.452 106.844 131.492 106.55C131.533 106.255 131.493 105.956 131.378 105.682C131.263 105.408 131.075 105.17 130.836 104.994L94.4749 67.1947C93.9546 66.6709 93.2953 66.307 92.5748 66.1459C91.8544 65.9848 91.1028 66.0333 90.409 66.2857ZM128.324 104.449C129.283 105.44 129.167 106.63 128.076 107.126L108.491 115.803C107.848 116.021 107.158 116.05 106.499 115.889C105.84 115.728 105.241 115.383 104.772 114.894L70.9392 79.6898C68.9889 77.6734 69.7822 77.1776 70.9392 76.6817L74.8563 75.0289C75.0155 74.9938 75.1814 75.0029 75.3358 75.0553C75.4902 75.1078 75.6273 75.2016 75.7322 75.3264L75.8479 75.4421C75.933 75.5592 76.0404 75.6581 76.1641 75.7332C76.2877 75.8083 76.425 75.8581 76.568 75.8796C76.7111 75.9012 76.857 75.894 76.9973 75.8586C77.1375 75.8233 77.2693 75.7603 77.385 75.6735L86.4589 71.6572C86.9547 71.4259 87.3679 71.2441 86.7564 70.616L86.6407 70.5003C86.3928 70.2193 86.3597 69.9218 86.6407 69.8226L90.5743 68.1699C91.6652 67.674 92.8221 67.5583 94.6071 69.4094L128.324 104.449Z" fill="#263238"/>
<path d="M82.2773 72.2339L79.7981 73.3413C79.7579 73.3645 79.7123 73.3767 79.6659 73.3767C79.6194 73.3767 79.5738 73.3645 79.5336 73.3413C79.5165 73.331 79.5024 73.3165 79.4925 73.2991C79.4827 73.2817 79.4775 73.2621 79.4775 73.2421C79.4775 73.2222 79.4827 73.2026 79.4925 73.1852C79.5024 73.1678 79.5165 73.1533 79.5336 73.143L82.0128 72.0521C82.0549 72.0257 82.1036 72.0117 82.1533 72.0117C82.203 72.0117 82.2517 72.0257 82.2938 72.0521C82.3109 72.0613 82.325 72.0754 82.3342 72.0925C82.3435 72.1096 82.3475 72.1291 82.3457 72.1485C82.3439 72.1679 82.3365 72.1863 82.3243 72.2015C82.3122 72.2167 82.2958 72.228 82.2773 72.2339Z" fill="white"/>
<path d="M94.4422 69.2434L128.324 104.448C129.283 105.44 129.167 106.63 128.077 107.125L108.491 115.803C107.849 116.02 107.158 116.05 106.499 115.889C105.841 115.728 105.242 115.382 104.772 114.894L70.9395 79.689C68.9892 77.6726 69.7825 77.1768 70.9395 76.681L74.8566 75.0282C75.0159 74.993 75.1817 75.0021 75.3361 75.0546C75.4906 75.107 75.6277 75.2008 75.7326 75.3257L75.8483 75.4414C75.9333 75.5584 76.0408 75.6573 76.1644 75.7324C76.288 75.8076 76.4253 75.8573 76.5684 75.8789C76.7114 75.9004 76.8573 75.8933 76.9976 75.8579C77.1378 75.8225 77.2697 75.7596 77.3854 75.6728L86.4592 71.6565C86.955 71.4251 87.3682 71.2433 86.7567 70.6152L86.6575 70.4995C86.3931 70.2186 86.36 69.921 86.6575 69.8219L90.5912 68.1691C91.5002 67.508 92.6572 67.3923 94.4422 69.2434Z" fill="white"/>
<path d="M94.4422 69.2434L96.971 71.8713L73.4022 82.317L70.9395 79.689C68.9892 77.6726 69.7825 77.1768 70.9395 76.681L74.8731 75.0282C75.0324 74.993 75.1982 75.0021 75.3527 75.0546C75.5071 75.107 75.6442 75.2008 75.7491 75.3257L75.8648 75.4414C75.9498 75.5584 76.0573 75.6573 76.1809 75.7324C76.3046 75.8076 76.4419 75.8573 76.5849 75.8789C76.728 75.9004 76.8738 75.8933 77.0141 75.8579C77.1544 75.8225 77.2862 75.7596 77.4019 75.6728L86.4757 71.6565C86.9716 71.4251 87.3848 71.2433 86.7732 70.6152L86.6741 70.4995C86.4096 70.2186 86.3766 69.921 86.6741 69.8219L90.6077 68.1691C91.5002 67.508 92.6406 67.3923 94.4422 69.2434Z" fill="#5375E2"/>
<path d="M74.559 79.9863L73.3359 79.7384L73.5012 78.8789L73.6996 78.9285L73.5673 79.6392L74.5755 79.8375L74.559 79.9863Z" fill="white"/>
<path d="M93.3016 70.5674C93.3016 70.5674 93.3016 70.6996 93.3016 70.7492C93.2639 70.771 93.2212 70.7824 93.1777 70.7824C93.1341 70.7824 93.0914 70.771 93.0537 70.7492C93.0537 70.7492 93.0537 70.617 93.0537 70.5839C93.0892 70.5579 93.1313 70.5425 93.1752 70.5396C93.2192 70.5366 93.263 70.5463 93.3016 70.5674Z" fill="white"/>
<path d="M93.6986 70.9796C93.7122 70.9887 93.7234 71.0009 93.7311 71.0153C93.7389 71.0298 93.7429 71.0459 93.7429 71.0622C93.7429 71.0786 93.7389 71.0947 93.7311 71.1091C93.7234 71.1236 93.7122 71.1358 93.6986 71.1449C93.6615 71.1684 93.6185 71.1809 93.5746 71.1809C93.5307 71.1809 93.4877 71.1684 93.4506 71.1449C93.4329 71.1372 93.4179 71.1245 93.4073 71.1083C93.3967 71.0922 93.3911 71.0733 93.3911 71.054C93.3911 71.0347 93.3967 71.0158 93.4073 70.9996C93.4179 70.9835 93.4329 70.9708 93.4506 70.9631C93.4898 70.9438 93.5333 70.9351 93.5768 70.938C93.6204 70.941 93.6623 70.9553 93.6986 70.9796Z" fill="white"/>
<path d="M94.0789 71.3758C94.0966 71.3836 94.1117 71.3963 94.1223 71.4124C94.1328 71.4286 94.1385 71.4474 94.1385 71.4667C94.1385 71.4861 94.1328 71.5049 94.1223 71.5211C94.1117 71.5372 94.0966 71.5499 94.0789 71.5577C94.0408 71.5779 93.9982 71.5885 93.955 71.5885C93.9118 71.5885 93.8692 71.5779 93.831 71.5577C93.8133 71.5499 93.7983 71.5372 93.7877 71.5211C93.7771 71.5049 93.7715 71.4861 93.7715 71.4667C93.7715 71.4474 93.7771 71.4286 93.7877 71.4124C93.7983 71.3963 93.8133 71.3836 93.831 71.3758C93.8681 71.3523 93.9111 71.3398 93.955 71.3398C93.9989 71.3398 94.0419 71.3523 94.0789 71.3758Z" fill="white"/>
<path d="M74.824 76.0391C74.6698 75.9792 74.4988 75.9792 74.3446 76.0391C74.2797 76.0553 74.2213 76.0909 74.177 76.1411C74.1328 76.1912 74.1048 76.2537 74.0967 76.3201H73.9976V76.2209C73.9976 76.2209 73.9976 76.2209 74.0967 76.1052H74.262H74.5926L74.824 76.0391Z" fill="white"/>
<path d="M74.2451 76.4864C74.2489 76.4427 74.2628 76.4006 74.2857 76.3633C74.3087 76.326 74.3401 76.2946 74.3773 76.2715C74.5315 76.2116 74.7025 76.2116 74.8566 76.2715C74.7489 76.2384 74.6338 76.2384 74.5261 76.2715C74.4617 76.2697 74.3987 76.2901 74.3476 76.3292C74.2964 76.3683 74.2602 76.4238 74.2451 76.4864Z" fill="white"/>
<path d="M74.7739 76.3347C74.72 76.3181 74.6624 76.3181 74.6086 76.3347C74.6086 76.3347 74.6086 76.3347 74.5259 76.4339H74.4268C74.4268 76.3843 74.592 76.3016 74.7739 76.3347Z" fill="white"/>
<path d="M74.7413 76.5C74.7258 76.5074 74.7088 76.5112 74.6917 76.5112C74.6745 76.5112 74.6576 76.5074 74.6421 76.5H74.7413Z" fill="white"/>
<path d="M71.2202 77.7739C71.203 77.7636 71.1889 77.7491 71.179 77.7317C71.1692 77.7143 71.1641 77.6947 71.1641 77.6747C71.1641 77.6548 71.1692 77.6351 71.179 77.6178C71.1889 77.6004 71.203 77.5858 71.2202 77.5756C71.2623 77.5492 71.311 77.5352 71.3606 77.5352C71.4103 77.5352 71.459 77.5492 71.5011 77.5756C71.5182 77.5858 71.5324 77.6004 71.5422 77.6178C71.5521 77.6351 71.5572 77.6548 71.5572 77.6747C71.5572 77.6947 71.5521 77.7143 71.5422 77.7317C71.5324 77.7491 71.5182 77.7636 71.5011 77.7739C71.4579 77.797 71.4097 77.8092 71.3606 77.8092C71.3116 77.8092 71.2634 77.797 71.2202 77.7739Z" fill="white"/>
<path d="M71.7159 77.5573C71.6333 77.5573 71.7159 77.3921 71.7159 77.359C71.7605 77.3312 71.8121 77.3164 71.8647 77.3164C71.9173 77.3164 71.9688 77.3312 72.0134 77.359C72.0305 77.3713 72.0444 77.3874 72.054 77.4061C72.0636 77.4247 72.0686 77.4454 72.0686 77.4664C72.0686 77.4874 72.0636 77.5081 72.054 77.5268C72.0444 77.5455 72.0305 77.5616 72.0134 77.5739C71.9668 77.5975 71.9147 77.6084 71.8625 77.6055C71.8102 77.6026 71.7597 77.586 71.7159 77.5573Z" fill="white"/>
<path d="M72.1948 77.3439C72.1777 77.3316 72.1638 77.3155 72.1542 77.2968C72.1446 77.2781 72.1396 77.2574 72.1396 77.2364C72.1396 77.2154 72.1446 77.1947 72.1542 77.1761C72.1638 77.1574 72.1777 77.1413 72.1948 77.129C72.238 77.1059 72.2863 77.0938 72.3353 77.0938C72.3843 77.0938 72.4325 77.1059 72.4758 77.129C72.5584 77.129 72.4758 77.2943 72.4758 77.3273C72.4345 77.3546 72.3868 77.3704 72.3375 77.3733C72.2882 77.3762 72.2389 77.3661 72.1948 77.3439Z" fill="white"/>
<path d="M72.6918 77.1125C72.6747 77.1022 72.6606 77.0877 72.6507 77.0703C72.6409 77.0529 72.6357 77.0333 72.6357 77.0133C72.6357 76.9934 72.6409 76.9737 72.6507 76.9564C72.6606 76.939 72.6747 76.9244 72.6918 76.9142C72.735 76.891 72.7833 76.8789 72.8323 76.8789C72.8813 76.8789 72.9296 76.891 72.9728 76.9142C72.9899 76.9244 73.0041 76.939 73.0139 76.9564C73.0237 76.9737 73.0289 76.9934 73.0289 77.0133C73.0289 77.0333 73.0237 77.0529 73.0139 77.0703C73.0041 77.0877 72.9899 77.1022 72.9728 77.1125C72.9307 77.1389 72.882 77.1529 72.8323 77.1529C72.7826 77.1529 72.7339 77.1389 72.6918 77.1125Z" fill="white"/>
<path d="M73.187 76.8637C73.1699 76.8535 73.1557 76.8389 73.1459 76.8215C73.136 76.8042 73.1309 76.7845 73.1309 76.7646C73.1309 76.7446 73.136 76.725 73.1459 76.7076C73.1557 76.6902 73.1699 76.6757 73.187 76.6654C73.2291 76.639 73.2778 76.625 73.3275 76.625C73.3772 76.625 73.4258 76.639 73.4679 76.6654C73.4851 76.6757 73.4992 76.6902 73.5091 76.7076C73.5189 76.725 73.5241 76.7446 73.5241 76.7646C73.5241 76.7845 73.5189 76.8042 73.5091 76.8215C73.4992 76.8389 73.4851 76.8535 73.4679 76.8637C73.4258 76.8901 73.3772 76.9041 73.3275 76.9041C73.2778 76.9041 73.2291 76.8901 73.187 76.8637Z" fill="white"/>
<path d="M90.3928 70.087L89.3516 69.0127L91.368 68.1367L92.3927 69.1945L90.3928 70.087Z" fill="white"/>
<path d="M91.0042 68.8125L90.1943 69.1761L90.5084 69.5067L91.3182 69.1431L91.0042 68.8125Z" fill="white"/>
<path d="M91.7479 68.9129L91.6487 68.9625L91.3843 68.698L91.5 68.6484L91.7479 68.9129Z" fill="white"/>
<path d="M108.012 112.958L107.831 113.025L108.492 113.719L108.161 113.867L107.814 113.52L107.236 113.785L107.566 114.132L107.236 114.281L106.574 113.586L106.393 113.669L106.525 112.611L108.012 112.958Z" fill="#EBEBEB"/>
<path d="M125.581 104.502L123.631 105.361L123.399 105.13L125.35 104.254L125.581 104.502Z" fill="#EBEBEB"/>
<path d="M126.143 105.075L124.176 105.935L123.961 105.703L125.911 104.844L126.143 105.075Z" fill="#EBEBEB"/>
<path d="M126.688 105.657L124.737 106.517L124.522 106.285L126.473 105.426L126.688 105.657Z" fill="#EBEBEB"/>
<path d="M116.672 108.978L116.589 109.722L115.564 109.458L115.581 109.342L116.424 109.557L116.49 108.945L116.672 108.978Z" fill="#EBEBEB"/>
<path d="M116.507 111.114C116.177 111.116 115.85 111.052 115.546 110.924C115.242 110.796 114.967 110.607 114.738 110.37C114.549 110.186 114.407 109.959 114.324 109.709C114.241 109.459 114.218 109.193 114.259 108.932C114.312 108.69 114.422 108.465 114.58 108.275C114.738 108.085 114.94 107.936 115.168 107.841C115.616 107.669 116.104 107.63 116.574 107.73C117.043 107.83 117.473 108.064 117.812 108.403C117.998 108.589 118.137 108.816 118.218 109.066C118.298 109.316 118.318 109.582 118.275 109.841C118.225 110.084 118.116 110.31 117.958 110.5C117.799 110.691 117.596 110.839 117.366 110.932C117.095 111.051 116.803 111.112 116.507 111.114ZM116.061 109.312C116.193 109.399 116.348 109.445 116.507 109.444C116.369 109.368 116.217 109.323 116.061 109.312Z" fill="#EBEBEB"/>
<path d="M81.4676 76.4005C81.3999 76.3498 81.3474 76.2815 81.3158 76.203C81.2841 76.1246 81.2746 76.0389 81.2883 75.9555C81.3019 75.872 81.3382 75.7938 81.3931 75.7295C81.448 75.6652 81.5195 75.6171 81.5998 75.5906C81.768 75.5479 81.9441 75.5479 82.1122 75.5906C82.1422 75.5971 82.1701 75.6112 82.1932 75.6314C82.2164 75.6516 82.234 75.6774 82.2444 75.7063C82.2444 75.7063 82.2444 75.7063 82.1122 75.7063C81.9991 75.6718 81.8783 75.6718 81.7651 75.7063C81.7099 75.7238 81.6607 75.7562 81.6227 75.8C81.5848 75.8437 81.5597 75.8971 81.5503 75.9542C81.5429 76.0095 81.5496 76.0658 81.5698 76.1179C81.5901 76.1699 81.6231 76.2159 81.666 76.2517C81.7675 76.3488 81.893 76.4173 82.0296 76.45C82.1641 76.492 82.3082 76.492 82.4428 76.45C82.4896 76.4358 82.5322 76.4103 82.5668 76.3757C82.6014 76.3411 82.6269 76.2985 82.6411 76.2517C82.6411 76.2517 82.7403 76.2517 82.8064 76.2517C82.8725 76.2517 82.9055 76.2517 82.8064 76.3839C82.7833 76.4487 82.7462 76.5075 82.6976 76.5561C82.649 76.6047 82.5902 76.6419 82.5254 76.6649C82.3414 76.7175 82.1468 76.7207 81.9611 76.6743C81.7754 76.6279 81.6052 76.5335 81.4676 76.4005Z" fill="white"/>
<path d="M84.8563 75.2918L84.4431 75.4736L84.5423 75.705C84.5197 75.718 84.494 75.7249 84.4679 75.7249C84.4418 75.7249 84.4161 75.718 84.3935 75.705L83.9473 74.6802C83.9955 74.6639 84.0478 74.6639 84.096 74.6802L85.3026 75.3744C85.3026 75.3744 85.3852 75.3744 85.3026 75.5066C85.2825 75.5182 85.2597 75.5244 85.2364 75.5244C85.2132 75.5244 85.1904 75.5182 85.1703 75.5066L84.8563 75.2918ZM84.6414 75.1596L84.1952 74.9116L84.3605 75.2918L84.6414 75.1596Z" fill="white"/>
<path d="M85.3349 74.2035L85.0705 74.3192L85.8142 75.096C85.8245 75.1037 85.8328 75.1137 85.8385 75.1252C85.8443 75.1366 85.8473 75.1493 85.8473 75.1621C85.8473 75.1749 85.8443 75.1876 85.8385 75.1991C85.8328 75.2105 85.8245 75.2205 85.8142 75.2282C85.7861 75.2427 85.7549 75.2503 85.7233 75.2503C85.6917 75.2503 85.6605 75.2427 85.6324 75.2282L84.8886 74.4679L84.6242 74.5836C84.5966 74.5996 84.5652 74.608 84.5333 74.608C84.5014 74.608 84.47 74.5996 84.4424 74.5836C84.4424 74.5836 84.4424 74.5836 84.4424 74.4679L85.1861 74.1374C85.2113 74.1229 85.2398 74.1152 85.2688 74.1152C85.2978 74.1152 85.3263 74.1229 85.3514 74.1374L85.3349 74.2035Z" fill="white"/>
<path d="M90.129 95.8708L106.987 88.4002L102.707 83.9707L85.8647 91.4413L90.129 95.8708Z" fill="#455A64"/>
<path d="M108.541 87.708L106.987 88.4022L105.665 87.0469L108.541 87.708Z" fill="#455A64"/>
<path d="M102.557 85.2428L87.6325 91.854L87.5664 91.7713L102.475 85.1602L102.557 85.2428Z" fill="white"/>
<path d="M99.8972 87.0796L88.0797 92.319L87.9971 92.2364L99.8145 86.9805L99.8972 87.0796Z" fill="white"/>
<path d="M102.656 87.1451L88.9547 93.2274L88.8721 93.1448L102.574 87.0625L102.656 87.1451Z" fill="white"/>
<path d="M104.31 87.0631L89.4015 93.6743L89.3188 93.5916L104.227 86.9805L104.31 87.0631Z" fill="white"/>
<path d="M104.755 87.5241L89.8307 94.1352L89.748 94.0526L104.673 87.4414L104.755 87.5241Z" fill="white"/>
<path d="M101.053 89.8053L90.277 94.5819L90.1943 94.4992L100.971 89.7227L101.053 89.8053Z" fill="white"/>
<path d="M100.21 106.35L117.068 98.8796L112.788 94.4336L95.9458 101.921L100.21 106.35Z" fill="#455A64"/>
<path d="M118.622 98.1845L117.068 98.8787L115.763 97.5234L118.622 98.1845Z" fill="#455A64"/>
<path d="M112.656 95.7233L97.7311 102.334L97.6484 102.252L112.573 95.6406L112.656 95.7233Z" fill="white"/>
<path d="M109.995 97.5397L98.1609 102.796L98.0947 102.713L109.912 97.457L109.995 97.5397Z" fill="white"/>
<path d="M112.738 97.6237L99.0368 103.706L98.9707 103.623L112.656 97.541L112.738 97.6237Z" fill="white"/>
<path d="M114.408 97.5397L99.483 104.151L99.4004 104.068L114.325 97.457L114.408 97.5397Z" fill="white"/>
<path d="M114.837 98.0045L99.9128 104.616L99.8467 104.533L114.755 97.9219L114.837 98.0045Z" fill="white"/>
<path d="M111.152 100.284L100.359 105.06L100.276 104.978L111.069 100.201L111.152 100.284Z" fill="white"/>
<path d="M100.029 78.8642L83.1705 86.3348L79.5674 82.5995L96.4259 75.1289L100.029 78.8642Z" fill="#5375E2"/>
<path d="M81.6162 87.028L83.1698 86.3338L81.8641 84.9785L81.6162 87.028Z" fill="#5375E2"/>
<path d="M93.7313 77.4225L81.3024 82.9263L81.2197 82.8436L93.6487 77.3398L93.7313 77.4225Z" fill="white"/>
<path d="M96.6573 76.7828L81.7491 83.3939L81.6665 83.3113L96.5747 76.6836L96.6573 76.7828Z" fill="white"/>
<path d="M97.1031 77.2272L82.1783 83.8383L82.0957 83.7557L97.0204 77.1445L97.1031 77.2272Z" fill="white"/>
<path d="M96.3593 78.2037L82.6246 84.3025L82.542 84.2199L96.2767 78.1211L96.3593 78.2037Z" fill="white"/>
<path d="M97.98 78.1354L83.0553 84.7631L82.9727 84.6639L97.8974 78.0527L97.98 78.1354Z" fill="white"/>
<path d="M94.5252 80.317L83.5011 85.2093L83.4185 85.1266L94.4426 80.2344L94.5252 80.317Z" fill="white"/>
<path d="M103.285 82.2533L86.4266 89.7239L83.7656 86.9472L100.608 79.4766L103.285 82.2533Z" fill="#5375E2"/>
<path d="M84.8721 90.4147L86.4257 89.7205L85.12 88.3652L84.8721 90.4147Z" fill="#5375E2"/>
<path d="M100.376 80.6803L85.5005 87.2915L85.4014 87.1923L100.31 80.5977L100.376 80.6803Z" fill="white"/>
<path d="M98.1935 82.3014L85.9298 87.7391L85.8472 87.6564L98.1109 82.2188L98.1935 82.3014Z" fill="white"/>
<path d="M99.8634 82.2194L86.3766 88.2025L86.2939 88.1198L99.7807 82.1367L99.8634 82.2194Z" fill="white"/>
<path d="M97.2188 84.0358L86.8063 88.6471L86.7236 88.5644L97.1362 83.9531L97.2188 84.0358Z" fill="white"/>
<path d="M113.35 92.714L96.5076 100.185L92.7393 96.2675L109.581 88.7969L113.35 92.714Z" fill="#DBDBDB"/>
<path d="M94.938 100.878L96.5081 100.184L95.1859 98.8125L94.938 100.878Z" fill="#DBDBDB"/>
<path d="M109.863 91.7057L95.7648 97.9532L95.6821 97.8706L109.78 91.623L109.863 91.7057Z" fill="white"/>
<path d="M109.152 92.6647L96.2105 98.4164L96.1279 98.3338L109.069 92.582L109.152 92.6647Z" fill="white"/>
<path d="M108.16 91.1607L94.8883 97.0447L94.8057 96.9621L108.094 91.0781L108.16 91.1607Z" fill="white"/>
<path d="M109.185 90.0533L94.4586 96.5984L94.376 96.4993L109.102 89.9707L109.185 90.0533Z" fill="white"/>
<path d="M110.044 92.9303L96.6403 98.8638L96.5576 98.7812L109.962 92.8477L110.044 92.9303Z" fill="white"/>
<path d="M122.87 102.6L106.028 110.07L102.888 106.814L119.746 99.3438L122.87 102.6Z" fill="#5375E2"/>
<path d="M104.458 110.76L106.028 110.066L104.722 108.711L104.458 110.76Z" fill="#5375E2"/>
<path d="M119.515 100.517L104.59 107.128L104.508 107.046L119.433 100.418L119.515 100.517Z" fill="white"/>
<path d="M119.945 100.962L105.037 107.573L104.954 107.49L119.862 100.879L119.945 100.962Z" fill="white"/>
<path d="M119.201 101.936L105.466 108.035L105.384 107.952L119.118 101.854L119.201 101.936Z" fill="white"/>
<path d="M120.821 101.872L105.913 108.483L105.831 108.4L120.739 101.789L120.821 101.872Z" fill="white"/>
<path d="M117.367 104.055L106.342 108.948L106.26 108.865L117.284 103.973L117.367 104.055Z" fill="white"/>
<path d="M110.078 120.662C116.177 120.744 96.3763 108.398 96.0788 101.456C95.7813 94.5146 102.525 96.7129 107.863 100.63C126.341 114.216 140.291 113.538 149.662 126.529C159.034 139.52 110.078 120.662 110.078 120.662Z" fill="#F7A9A0"/>
<path d="M124.522 110.5C127.068 111.343 129.597 112.285 132.092 113.293C134.614 114.284 137.07 115.432 139.447 116.731C141.822 118.081 144.002 119.75 145.926 121.689C147.86 123.59 149.678 125.59 151.446 127.673L151.066 127.425L163.661 130.995C167.842 132.201 172.04 133.391 176.255 134.532C180.469 135.672 184.651 136.879 188.882 137.92C190.998 138.416 193.113 138.945 195.245 139.325C196.272 139.581 197.341 139.626 198.386 139.457C199.382 139.055 200.308 138.497 201.129 137.804C200.381 138.623 199.49 139.301 198.501 139.804C197.423 140.09 196.294 140.135 195.196 139.936C193.02 139.692 190.857 139.339 188.717 138.878C184.42 138.002 180.155 137.06 175.924 135.97C171.693 134.879 167.462 133.755 163.247 132.664C159.033 131.573 154.868 130.234 150.67 128.995H150.455L150.306 128.813C148.653 126.747 146.835 124.747 144.984 122.846C143.219 120.882 141.189 119.175 138.951 117.772C136.687 116.367 134.274 115.194 131.877 114.004C129.481 112.814 126.969 111.574 124.522 110.5Z" fill="#263238"/>
<path d="M247.259 147.473L214.352 116.351C220.127 106.271 226.502 96.5461 233.442 87.2291C245.177 71.4119 254.928 73.7589 254.565 100.303C254.377 116.293 251.917 132.175 247.259 147.473Z" fill="#5375E2"/>
<path d="M218.897 111.571C221.607 113.604 224.02 116.05 226.533 118.298C229.045 120.546 231.342 122.579 233.673 124.81C238.521 129.427 243.264 134.132 247.903 138.925C247.986 139.008 247.903 139.156 247.771 139.074C242.813 134.694 237.937 130.248 233.094 125.736C230.698 123.488 228.351 121.19 226.004 118.877C223.657 116.563 221.045 114.265 218.765 111.72C218.682 111.571 218.798 111.472 218.897 111.571Z" fill="#263238"/>
<path d="M216.186 112.049C216.996 110.612 217.839 109.207 218.748 107.802L219.294 106.942C220.021 105.009 220.765 103.075 221.674 101.24C221.674 101.24 221.806 101.24 221.789 101.24C221.31 102.744 220.715 104.215 220.137 105.686C221.479 103.544 222.936 101.475 224.5 99.4883H224.599C222.946 102.397 221.294 105.19 219.542 108.033C218.732 109.405 214.583 116.099 214.583 116.165C214.919 116.492 215.234 116.84 215.525 117.206C215.658 117.471 215.525 117.371 215.426 117.305L213.773 116.132C213.773 116.132 215.492 113.223 216.186 112.049Z" fill="#263238"/>
<path d="M239.524 140.217C242.235 142.481 244.879 144.812 247.49 147.159L246.78 147.324C248.432 141.523 249.672 135.507 250.912 129.54L254.399 111.574C254.168 114.632 253.87 117.673 253.473 120.714C253.077 123.755 252.631 126.78 252.069 129.805C251.507 132.829 250.945 135.837 250.201 138.812C249.517 141.812 248.661 144.769 247.639 147.671L247.391 148.316L246.912 147.853C244.482 145.308 241.987 142.795 239.524 140.217Z" fill="#263238"/>
<path d="M255.225 116.117C255.102 117.337 254.807 118.533 254.349 119.671C253.914 120.826 253.295 121.903 252.515 122.861C252.759 121.668 253.114 120.501 253.572 119.373C254.01 118.234 254.564 117.143 255.225 116.117Z" fill="#263238"/>
</svg>
