<!-- 
https://www.figma.com/ 
I used this resource to layout my images and pages for this program
https://undraw.co/ 
I used this resource to find free vector stock images for my program so the images 
are displayed with high-quality 
 -->
<svg width="500" height="251" viewBox="0 0 500 251" fill="none" xmlns="http://www.w3.org/2000/svg">
<path d="M491.15 247.339C487.565 248.729 383.48 250.605 379.409 248.284C378.964 248.02 379.089 243.42 377.56 231.608C377.491 231.053 375.115 228.829 371.404 225.73C357.508 214.071 324.782 189.474 324.782 189.474L376.713 144.283L427.046 193.755L440.136 206.609C440.136 206.609 482.659 229.58 486.87 232.609C491.08 235.638 494.735 245.963 491.15 247.339Z" fill="#AD6359"/>
<path d="M491.15 247.34C487.565 248.729 383.481 250.605 379.409 248.285C378.978 248.021 379.103 243.435 377.561 231.609C377.491 231.053 375.115 228.83 371.405 225.731C366.569 221.673 364.262 219.825 357.063 214.211L423.099 189.934L427.06 193.825L440.136 206.693C440.136 206.693 482.673 229.65 486.87 232.679C491.067 235.708 494.736 245.964 491.15 247.34Z" fill="#EBEBEB"/>
<path d="M498.321 248.771C494.708 250.035 383.814 251.244 379.826 248.771C378.881 248.201 378.02 241.753 377.339 232.929C377.255 231.831 366.013 222.854 364.484 221.186L432.438 198.299L441.012 206.373C441.012 206.373 491.039 229.635 495.111 232.776C499.183 235.916 501.934 247.52 498.321 248.771Z" fill="#5375E2"/>
<path d="M496.778 244.631C479.366 244.409 402.074 245.159 384.843 246.257C384.704 246.257 384.704 246.354 384.843 246.368C402.102 246.966 479.338 245.659 496.792 244.978C497.154 244.909 497.154 244.645 496.778 244.631Z" fill="#263238"/>
<path d="M446.557 207.123C439.692 205.914 431.271 207.123 426.143 212.014C425.935 212.209 426.212 212.487 426.435 212.417C432.96 210.226 439.701 208.74 446.543 207.984C446.657 207.986 446.767 207.943 446.85 207.863C446.932 207.784 446.979 207.675 446.981 207.561C446.982 207.446 446.939 207.336 446.859 207.254C446.78 207.172 446.671 207.125 446.557 207.123Z" fill="#263238"/>
<path d="M451.531 210.041C444.667 208.846 436.245 210.041 431.118 214.932C430.923 215.127 431.187 215.419 431.409 215.335C437.917 213.148 444.639 211.662 451.462 210.902C451.576 210.912 451.689 210.875 451.777 210.801C451.864 210.727 451.918 210.621 451.928 210.506C451.937 210.392 451.9 210.279 451.826 210.192C451.752 210.104 451.646 210.05 451.531 210.041Z" fill="#263238"/>
<path d="M456.52 212.974C449.655 211.765 441.234 212.974 436.106 217.866C435.898 218.061 436.176 218.338 436.398 218.269C442.923 216.078 449.665 214.592 456.506 213.836C456.621 213.838 456.731 213.794 456.813 213.715C456.895 213.635 456.942 213.526 456.944 213.412C456.946 213.298 456.902 213.188 456.823 213.105C456.743 213.023 456.634 212.976 456.52 212.974Z" fill="#263238"/>
<path d="M461.495 215.892C454.63 214.697 446.209 215.892 441.081 220.784C440.887 220.979 441.151 221.257 441.373 221.187C447.899 218.996 454.64 217.51 461.481 216.754C461.596 216.756 461.706 216.712 461.788 216.633C461.87 216.553 461.917 216.444 461.919 216.33C461.921 216.216 461.877 216.106 461.798 216.024C461.718 215.941 461.61 215.894 461.495 215.892Z" fill="#263238"/>
<path d="M459.022 191.128C456.243 187.446 451.295 189.169 448.461 191.615C443.677 195.885 440.102 201.339 438.094 207.429C438.085 207.456 438.083 207.486 438.088 207.514C438.092 207.542 438.102 207.57 438.118 207.593C438.134 207.617 438.155 207.637 438.18 207.652C438.204 207.667 438.232 207.676 438.261 207.679C438.261 208.193 438.761 208.749 439.345 208.527C444.973 206.359 451.268 204.747 456.02 200.925C458.869 198.688 461.621 194.603 459.022 191.128ZM447.21 203.496C444.431 204.622 441.651 205.622 438.983 206.845C440.914 203.708 443.001 200.671 445.237 197.743C446.343 196.341 447.541 195.013 448.822 193.769C450.851 191.893 458.869 187.849 457.757 195.381C457.132 199.536 450.489 202.148 447.21 203.496Z" fill="#263238"/>
<path d="M420.653 205.846C426.323 208.194 432.827 207.986 438.83 208.5C438.964 208.5 439.096 208.468 439.215 208.408C439.335 208.347 439.438 208.258 439.517 208.15C439.595 208.041 439.647 207.916 439.668 207.783C439.689 207.651 439.678 207.516 439.636 207.388C439.664 207.38 439.689 207.366 439.71 207.346C439.731 207.326 439.747 207.302 439.756 207.275C439.766 207.247 439.769 207.218 439.765 207.19C439.761 207.161 439.75 207.134 439.733 207.11C436.108 201.817 431.159 197.567 425.378 194.784C421.974 193.242 416.693 192.964 415.095 197.258C413.566 201.26 417.332 204.484 420.653 205.846ZM417.499 200.996C414.331 194.048 423.169 195.729 425.628 196.966C427.202 197.792 428.72 198.72 430.172 199.745C433.216 201.858 435.912 204.359 438.719 206.694C435.773 206.263 432.827 206.082 429.881 205.762C426.351 205.429 419.25 204.818 417.499 200.996Z" fill="#263238"/>
<path d="M427.838 190.989L363.636 224.257C363.636 224.257 296.683 163.738 290.555 163.266C284.427 162.793 194.447 223.868 149.145 224.063C102.23 224.257 99.854 175.106 99.854 175.106L168.294 159.389C217.64 135.07 269.029 91.3934 302.631 95.4651C339.137 99.898 427.838 190.989 427.838 190.989Z" fill="#263238"/>
<path d="M412.079 182.526C401.254 187.876 404.283 186.195 393.5 191.67C388.233 194.338 361.677 207.734 357.174 211.055C357.077 211.125 357.174 211.306 357.285 211.264C362.594 209.485 388.844 195.519 394.069 192.754C404.742 187.084 401.615 188.585 412.246 182.818C412.265 182.807 412.282 182.792 412.295 182.775C412.309 182.757 412.319 182.737 412.325 182.716C412.33 182.695 412.332 182.673 412.329 182.651C412.326 182.629 412.319 182.608 412.308 182.589C412.297 182.569 412.283 182.553 412.265 182.539C412.248 182.526 412.228 182.516 412.207 182.51C412.185 182.504 412.163 182.502 412.141 182.505C412.119 182.508 412.098 182.515 412.079 182.526Z" fill="#37474F"/>
<path d="M352.2 208.93C339.693 197.813 298.518 161.821 296.851 160.487C295.558 159.249 294.121 158.171 292.571 157.277C291.93 157.026 291.24 156.924 290.553 156.98C289.867 157.035 289.203 157.246 288.61 157.597C286.706 158.486 284.844 159.459 282.954 160.376L271.837 165.809C257.454 172.827 243.141 180.039 228.647 186.821C214.751 193.352 204.759 199.494 190.209 204.511C175.737 209.618 160.766 213.186 145.546 215.156C143.67 215.378 141.794 215.573 139.904 215.753C139.887 215.747 139.869 215.745 139.852 215.747C139.834 215.75 139.817 215.756 139.802 215.766C139.787 215.777 139.775 215.79 139.767 215.806C139.759 215.822 139.754 215.84 139.754 215.858C139.754 215.875 139.759 215.893 139.767 215.909C139.775 215.925 139.787 215.939 139.802 215.949C139.817 215.959 139.834 215.966 139.852 215.968C139.869 215.97 139.887 215.968 139.904 215.962C154.839 215.082 169.605 212.337 183.859 207.791C198.269 203.358 208.066 197.605 221.754 191.296C235.956 184.764 249.95 177.774 263.944 170.826C271.323 167.157 278.702 163.447 286.109 159.82C287.79 159 290.18 157.208 292.098 158.097C292.9 158.544 293.642 159.09 294.308 159.723L296.767 161.78C299.95 164.42 350.352 207.832 352.006 209.027C352.145 209.194 352.311 209.027 352.2 208.93Z" fill="#37474F"/>
<path d="M99.7295 175.106C99.7295 175.106 92.0448 219.491 114.237 236.931C136.43 254.371 299.06 252.217 323.712 244.296C348.365 236.375 349.157 196.506 322.184 187.321C296.531 178.552 187.388 174.286 184.706 173.202C184.025 172.938 194.434 166.726 194.336 166.351L169.504 158.764L99.7295 175.106Z" fill="#263238"/>
<path d="M133.414 173.981C133.414 173.8 133.08 173.856 133.08 173.981C133.085 179.14 131.269 184.135 127.952 188.086C124.172 192.449 118.6 194.881 113.556 197.438C113.069 197.688 113.444 198.439 113.945 198.3C117.045 197.343 120.032 196.053 122.852 194.45C125.443 193.071 127.727 191.18 129.564 188.892C131.199 186.806 132.385 184.405 133.048 181.839C133.71 179.273 133.835 176.597 133.414 173.981Z" fill="#37474F"/>
<path d="M182.913 168.493C181.787 167.103 180.564 165.713 179.383 164.324C176.604 161.016 173.825 157.695 170.892 154.499C170.628 154.193 170.086 154.624 170.336 154.957C172.296 157.528 174.38 160.002 176.423 162.503C177.465 163.796 178.522 165.074 179.578 166.339C180.678 167.486 181.665 168.738 182.524 170.077C183.274 171.466 182.274 172.717 180.801 172.856C179.496 172.89 178.227 172.423 177.257 171.55C175.055 169.598 173.04 167.444 171.24 165.116C170.072 163.726 168.891 162.489 167.71 161.183C166.529 159.877 165.098 158.487 163.833 157.111C163.814 157.099 163.792 157.093 163.769 157.094C163.746 157.095 163.724 157.102 163.706 157.116C163.688 157.13 163.674 157.148 163.667 157.17C163.66 157.192 163.66 157.215 163.666 157.237C164.778 158.751 165.792 160.335 166.89 161.836C167.988 163.337 169.114 164.852 170.253 166.339C171.393 167.826 172.449 169.118 173.588 170.508C174.543 171.702 175.689 172.73 176.979 173.551C179.091 174.788 182.76 175.052 183.927 172.328C184.125 171.657 184.136 170.945 183.957 170.268C183.778 169.592 183.417 168.978 182.913 168.493Z" fill="#37474F"/>
<path d="M320.335 244.435C311.845 244.602 303.354 245.089 294.863 245.269C286.373 245.45 278.007 245.506 269.572 245.422C252.646 245.255 235.734 244.598 218.836 243.449C201.771 242.268 183.358 240.572 166.418 238.224C158.303 237.098 150.076 236.167 142.058 234.444C134.854 233.067 128.191 229.663 122.853 224.633C111.875 213.974 107.567 198.327 105.858 183.361C105.622 181.36 105.427 179.345 105.26 177.33C105.26 177.191 105.052 177.204 105.052 177.33C106.052 192.616 108.429 208.652 118.087 220.978C122.147 226.376 127.565 230.6 133.79 233.221C141.391 236.264 149.812 236.973 157.83 238.071C174.854 240.378 193.322 242.156 210.442 243.491C227.563 244.825 244.933 245.658 262.207 245.909C279.48 246.159 296.781 245.908 314.026 245.075C316.139 244.964 318.195 244.838 320.335 244.658C320.365 244.658 320.393 244.646 320.414 244.625C320.435 244.604 320.447 244.576 320.447 244.547C320.447 244.517 320.435 244.489 320.414 244.468C320.393 244.447 320.365 244.435 320.335 244.435Z" fill="#37474F"/>
<path d="M266.778 179.191C261.428 178.413 256.092 177.635 250.714 177.079C245.336 176.523 239.847 176.023 234.413 175.564C223.657 174.661 212.874 173.841 202.09 173.327C195.962 173.049 189.834 173.021 183.705 173.091C183.497 173.091 183.525 173.383 183.705 173.397C194.489 174.369 205.286 175.05 216.084 175.773C226.881 176.495 237.623 177.426 248.379 178.455C254.48 179.038 260.58 179.483 266.695 179.983C267.139 180.025 267.223 179.261 266.778 179.191Z" fill="#37474F"/>
<path d="M195.601 165.768C191.296 167.628 187.155 169.845 183.219 172.396C179.219 174.797 175.393 177.477 171.769 180.415C171.671 180.498 171.769 180.623 171.894 180.581C176.063 178.636 180.134 176.204 184.136 173.869C188.194 171.598 192.111 169.082 195.865 166.337C196.129 166.143 195.962 165.629 195.601 165.768Z" fill="#37474F"/>
<path d="M244.614 23.9114L228.966 66.9903C228.369 68.241 228.966 69.3666 230.189 69.4917L253.021 71.8124C253.723 71.834 254.416 71.6545 255.02 71.295C255.623 70.9355 256.111 70.4111 256.426 69.7835L272.087 26.7046C272.685 25.4539 272.087 24.3282 270.864 24.2032L248.032 21.8825C247.329 21.8616 246.634 22.0412 246.028 22.4005C245.423 22.7597 244.932 23.2837 244.614 23.9114Z" fill="#A6A6A6"/>
<path d="M247.338 24.1615L231.676 67.2404C231.079 68.4911 231.676 69.6167 232.899 69.7418L255.731 72.0625C256.435 72.0834 257.13 71.9038 257.735 71.5445C258.34 71.1853 258.831 70.6613 259.15 70.0336L274.797 26.9547C274.962 26.7234 275.061 26.452 275.085 26.169C275.109 25.886 275.057 25.6017 274.933 25.346C274.809 25.0903 274.619 24.8725 274.383 24.7155C274.146 24.5584 273.872 24.4678 273.588 24.4533L250.742 22.1326C250.04 22.111 249.347 22.2905 248.744 22.6499C248.14 23.0094 247.653 23.5339 247.338 24.1615Z" fill="#C7C7C7"/>
<path d="M253.396 26.8166C253.33 27.3301 253.064 27.7967 252.655 28.1143C252.246 28.432 251.728 28.5749 251.214 28.512C250.96 28.4828 250.714 28.4033 250.49 28.2781C250.267 28.153 250.071 27.9846 249.913 27.7829C249.755 27.5812 249.639 27.3501 249.572 27.1031C249.504 26.8561 249.486 26.5981 249.519 26.3441C249.618 25.8622 249.895 25.4351 250.294 25.1479C250.694 24.8606 251.187 24.7342 251.675 24.7937C252.164 24.8532 252.612 25.0943 252.931 25.4691C253.25 25.8439 253.416 26.325 253.396 26.8166Z" fill="#263238"/>
<path d="M164.792 86.7125C174.659 115.645 199.783 147.371 208.899 150.733C214.277 152.721 224.046 155.153 232.259 149.427C250.186 136.92 269.488 113.019 273.949 97.649C275.561 92.1877 249.783 77.124 245.28 81.2095C234.733 90.7981 216.334 114.881 214.708 114.561C208.621 113.408 191.584 92.3267 175.798 77.0406C161.096 62.8801 160.859 75.1924 164.792 86.7125Z" fill="#AD6359"/>
<path d="M277.868 68.923C276.242 57.2917 274.046 54.5541 277.868 44.0206C280.397 37.0724 277.062 32.5282 271.392 37.6699C262.109 46.0912 261.053 61.5301 262.22 66.9914L277.868 68.923Z" fill="#AD6359"/>
<path d="M272.197 102.357C272.197 102.357 278.993 87.1547 278.493 74.5645C278.159 65.8653 275.296 47.0496 252.437 34.7512C247.017 31.833 237.151 31.5273 244.349 39.5038C249.407 45.1736 254.327 47.2441 256.675 51.0795C256.675 51.0795 244.168 52.1635 241.459 57.7082C239.091 62.5568 237.071 67.5675 235.414 72.7024C236.287 73.2215 237.192 73.6856 238.123 74.092C238.123 74.092 236.081 79.5116 239.277 87.7244L272.197 102.357Z" fill="#AD6359"/>
<path d="M276.783 66.3538C273.657 63.0325 266.903 56.126 259.413 52.4573C251.075 48.2884 233.955 42.563 230.953 48.747C228.757 53.2633 235.122 56.0287 235.122 56.0287C235.122 56.0287 227.534 55.1532 226.437 59.6835C225.45 63.8524 230.494 65.645 230.494 65.645C230.494 65.645 225.797 65.9091 225.603 70.0502C225.367 75.0529 235.247 73.6911 239.388 78.9578C240.319 80.0834 276.783 66.3538 276.783 66.3538Z" fill="#AD6359"/>
<path d="M256.509 61.9197C250.212 57.7888 242.805 55.6752 235.275 55.8609C235.081 55.8609 234.997 56.0276 235.164 56.0554C242.479 57.1642 249.632 59.1567 256.467 61.9892C256.467 61.9892 256.537 61.9475 256.509 61.9197Z" fill="#263238"/>
<path d="M252.076 70.1891C248.866 68.2297 239.013 64.6305 230.522 65.4226C230.342 65.4226 230.258 65.6033 230.425 65.6172C237.786 66.3451 245.04 67.9069 252.048 70.2724C252.048 70.2724 252.117 70.2169 252.076 70.1891Z" fill="#263238"/>
<path d="M232.941 90.9911L276.895 123.731C276.895 123.731 242.613 155.596 232.149 156.944C222.927 157.924 213.607 156.582 205.037 153.039C199.311 150.51 175.312 116.324 164.084 89.4764C152.855 62.6285 167.544 64.8102 177.549 75.4271C187.555 86.044 213.68 112.614 215.209 112.169C216.737 111.725 232.941 90.9911 232.941 90.9911Z" fill="#A6A6A6"/>
<path d="M264.791 130.663C249.352 115.975 230.925 102.871 227.882 100.425C227.729 100.3 227.562 100.55 227.715 100.661C230.828 102.968 250.283 120.199 264.61 130.928C264.777 131.053 264.944 130.802 264.791 130.663Z" fill="#263238"/>
<path d="M198.658 146.868C189.069 135.348 172.755 110.223 164.084 89.4759C156.357 70.9936 160.915 66.2688 167.766 68.6312L168.002 69.2288L198.658 146.868Z" fill="#263238"/>
<path d="M193.711 171.063L97.7563 176.622C97.8675 174.662 112.139 117.548 122.937 96.5921C136.833 69.7303 143.656 67.7014 147.77 66.3257C153.023 64.5747 162.278 65.7142 164.445 66.7982C166.919 68.0211 174.562 82.0843 177.188 92.3537C182.469 112.948 195.018 169.84 193.711 171.063Z" fill="#DBDBDB"/>
<path d="M147.894 124.606C146.729 124.166 145.508 123.885 144.267 123.773C145.268 124.512 146.373 125.097 147.547 125.51C148.722 125.95 149.952 126.231 151.202 126.343C150.187 125.611 149.073 125.026 147.894 124.606ZM174.298 95.4239C173.129 94.9738 171.904 94.6885 170.657 94.5762C171.66 95.319 172.771 95.9048 173.95 96.3133C175.122 96.7664 176.353 97.0518 177.605 97.1609C176.588 96.4453 175.475 95.8791 174.298 95.4795V95.4239ZM164.737 170.354C163.565 169.904 162.334 169.628 161.082 169.534C162.093 170.271 163.208 170.857 164.389 171.271C165.559 171.713 166.784 171.993 168.03 172.104C167.017 171.388 165.909 170.817 164.737 170.409V170.354ZM119.587 103.984C119.49 104.177 119.406 104.377 119.337 104.582C119.845 104.694 120.361 104.764 120.88 104.79C120.469 104.491 120.037 104.221 119.587 103.984ZM187.986 139.267C187.427 138.978 186.851 138.723 186.262 138.503C185.097 138.046 183.87 137.765 182.622 137.669C183.635 138.404 184.749 138.989 185.929 139.406C186.652 139.68 187.396 139.899 188.152 140.059L187.986 139.267ZM130.037 170.409C128.87 169.961 127.643 169.685 126.397 169.589C127.403 170.327 128.513 170.912 129.69 171.326C130.86 171.768 132.085 172.049 133.331 172.16C132.325 171.418 131.215 170.828 130.037 170.409ZM192.738 171.118H193.475C193.591 170.63 193.666 170.132 193.697 169.631C193.331 170.095 193.01 170.593 192.738 171.118ZM147.728 155.679C147.27 156.84 146.989 158.062 146.894 159.306C148.338 157.251 149.223 154.857 149.465 152.358C148.731 153.377 148.146 154.495 147.728 155.679ZM164 113.461C163.556 114.63 163.28 115.856 163.18 117.102C163.913 116.088 164.498 114.974 164.917 113.795C165.371 112.633 165.652 111.411 165.751 110.168C165.02 111.181 164.431 112.289 164 113.461ZM167.016 77.7893C166.567 78.9613 166.29 80.1925 166.196 81.4441C166.938 80.4285 167.536 79.3156 167.975 78.1367C168.417 76.9723 168.693 75.7513 168.795 74.5098C168.05 75.5139 167.452 76.618 167.016 77.7893ZM176.465 155.331C175.323 155.845 174.257 156.513 173.297 157.319C175.771 156.884 178.091 155.822 180.037 154.234C178.796 154.448 177.593 154.841 176.465 155.401V155.331ZM130.607 146.716C129.464 147.228 128.397 147.896 127.439 148.703C128.671 148.501 129.869 148.127 130.996 147.591C132.145 147.095 133.213 146.43 134.165 145.618C132.936 145.807 131.742 146.177 130.621 146.716H130.607ZM138.389 105.874C137.249 106.392 136.184 107.061 135.221 107.861C137.694 107.427 140.015 106.364 141.961 104.776C140.728 104.97 139.53 105.339 138.403 105.874H138.389ZM183.539 119.131C182.459 119.631 181.449 120.271 180.537 121.035C181.644 120.857 182.724 120.535 183.747 120.076L183.539 119.131ZM109.151 159.723C108.655 158.574 107.989 157.506 107.178 156.554C107.366 157.788 107.736 158.987 108.276 160.112C108.782 161.258 109.451 162.325 110.263 163.28C110.066 162.049 109.696 160.851 109.165 159.723H109.151ZM125.438 126.941C124.931 125.798 124.266 124.732 123.464 123.773C123.89 126.242 124.948 128.559 126.535 130.499C126.35 129.266 125.985 128.068 125.452 126.941H125.438ZM164.987 139.114C164.465 137.981 163.797 136.92 163 135.96C163.203 137.196 163.577 138.398 164.111 139.531C164.612 140.673 165.276 141.736 166.085 142.686C165.897 141.449 165.532 140.246 165.001 139.114H164.987ZM150.91 89.4206C150.413 88.2722 149.748 87.2043 148.937 86.2522C149.125 87.4858 149.495 88.6846 150.034 89.8097C150.541 90.9526 151.206 92.019 152.008 92.9781C151.828 91.7443 151.463 90.5448 150.924 89.4206H150.91Z" fill="#A6A6A6"/>
<path d="M166.251 83.3357C160.79 84.642 151.382 76.3875 147.658 69.5782C147.394 69.1057 148.089 64.2142 148.658 58.2387C148.978 54.5978 149.256 50.5401 149.242 46.8297C149.242 46.0654 172.574 52.3883 172.574 52.3883C171.268 57.0441 170.531 61.8408 170.379 66.6738C170.39 67.1872 170.446 67.6987 170.545 68.2025C170.545 68.2766 170.545 68.3599 170.545 68.4526C171.059 71.3569 171.532 82.0572 166.251 83.3357Z" fill="#AD6359"/>
<path d="M150.673 46.9121C151.785 53.1933 155.746 68.3682 168.197 68.6045C168.991 68.6247 169.786 68.5782 170.573 68.4655C170.588 68.3828 170.588 68.2981 170.573 68.2154C170.473 67.7116 170.418 67.2002 170.406 66.6868C170.55 61.8529 171.287 57.0551 172.602 52.4012C172.602 52.4012 155.746 47.8293 150.673 46.9121Z" fill="#263238"/>
<path d="M148.145 17.3545C144.796 25.3311 146.755 49.5387 152.008 55.4308C159.693 63.9771 173.506 66.131 181.079 56.612C188.417 47.3708 185.373 15.8815 179.328 10.3924C170.435 2.31857 153.092 5.59814 148.145 17.3545Z" fill="#AD6359"/>
<path d="M169.92 34.252C169.92 34.252 169.795 34.3492 169.809 34.4187C170.045 36.0307 170.031 37.9345 168.628 38.5876C168.628 38.5876 168.628 38.6988 168.628 38.6849C170.421 38.268 170.393 35.7528 169.92 34.252Z" fill="#263238"/>
<path d="M168.28 32.7236C165.64 32.8209 166.015 38.0877 168.461 37.9904C170.907 37.8931 170.49 32.6403 168.28 32.7236Z" fill="#263238"/>
<path d="M179.092 33.6387C179.092 33.6387 179.231 33.7082 179.231 33.7776C179.3 35.4174 179.648 37.2656 181.162 37.7103C181.162 37.7103 181.162 37.8076 181.162 37.7937C179.286 37.6825 178.855 35.1951 179.092 33.6387Z" fill="#263238"/>
<path d="M180.384 31.8331C182.997 31.444 183.58 36.6968 181.162 37.0442C178.744 37.3917 178.202 32.1666 180.384 31.8331Z" fill="#263238"/>
<path d="M166.14 29.554C166.818 29.3039 167.481 29.0163 168.127 28.6924C168.872 28.4922 169.528 28.0467 169.989 27.4278C170.113 27.2016 170.155 26.9391 170.107 26.6856C170.059 26.432 169.924 26.2032 169.725 26.0382C169.311 25.7793 168.836 25.634 168.349 25.6169C167.861 25.5999 167.377 25.7116 166.946 25.9409C166.002 26.2922 165.217 26.9734 164.736 27.8586C164.628 28.067 164.584 28.3026 164.609 28.536C164.634 28.7694 164.727 28.9904 164.877 29.1712C165.026 29.352 165.226 29.4848 165.451 29.5528C165.675 29.6209 165.915 29.6213 166.14 29.554Z" fill="#263238"/>
<path d="M182.649 29.0251C181.912 29.0251 181.259 28.8861 180.495 28.8027C179.726 28.8219 178.97 28.5929 178.341 28.1496C178.165 27.9674 178.055 27.7311 178.03 27.4789C178.005 27.2267 178.065 26.9734 178.202 26.7599C178.523 26.3852 178.938 26.1027 179.405 25.9415C179.871 25.7803 180.372 25.7462 180.856 25.8428C181.866 25.8782 182.824 26.2953 183.538 27.0101C183.707 27.1785 183.82 27.394 183.864 27.6281C183.908 27.8623 183.88 28.1041 183.783 28.3221C183.687 28.54 183.528 28.7237 183.325 28.8492C183.123 28.9746 182.887 29.0359 182.649 29.0251Z" fill="#263238"/>
<path d="M169.656 44.606C170.117 45.2213 170.701 45.7341 171.371 46.112C172.041 46.4899 172.782 46.7248 173.547 46.8017C174.21 46.8982 174.884 46.8982 175.548 46.8017C175.676 46.8 175.803 46.7765 175.923 46.7322L176.27 46.6627C176.357 46.6411 176.435 46.5911 176.49 46.5206C176.545 46.4501 176.576 46.3632 176.576 46.2736C176.584 46.2183 176.584 46.1622 176.576 46.1069V45.9679C176.576 44.7033 176.257 42.7995 176.257 42.7995C176.729 42.9941 179.147 43.8834 179.036 43.2303C178.48 37.5714 177.348 31.9839 175.659 26.5546C175.649 26.5235 175.63 26.4963 175.604 26.477C175.577 26.4577 175.546 26.4473 175.513 26.4473C175.481 26.4473 175.449 26.4577 175.423 26.477C175.396 26.4963 175.377 26.5235 175.367 26.5546C175.854 31.7796 177.257 36.8796 177.827 42.1325C176.966 41.8026 176.063 41.5968 175.145 41.521C174.964 41.5905 175.715 45.1897 175.701 45.7595C174.678 45.9321 173.631 45.898 172.621 45.6594C171.611 45.4207 170.66 44.9822 169.823 44.3698C169.67 44.3698 169.545 44.481 169.656 44.606Z" fill="#263238"/>
<path d="M174.201 46.7297C173.496 47.5171 172.601 48.1104 171.602 48.4529C171.056 48.6331 170.467 48.6331 169.921 48.4529C168.725 48.0499 168.767 46.9381 169.059 45.9932C169.222 45.5062 169.441 45.0398 169.712 44.6035C170.947 45.7678 172.518 46.512 174.201 46.7297Z" fill="#263238"/>
<path d="M171.602 48.3991C171.056 48.5793 170.467 48.5793 169.921 48.3991C168.725 47.9961 168.767 46.8844 169.059 45.9395C169.696 46.0075 170.293 46.2865 170.753 46.7321C171.214 47.1777 171.513 47.7644 171.602 48.3991Z" fill="#FF9BBC"/>
<path d="M144.92 35.7246C151.146 36.7946 155.19 29.6519 154.342 23.4957C154.342 23.4957 170.782 27.4146 172.963 14.1018C173.95 16.0398 175.4 17.7045 177.184 18.948C178.968 20.1916 181.031 20.9757 183.191 21.2306L184.581 26.3584C186.346 26.0388 188.666 21.3557 184.873 17.1173C184.873 17.1173 185.262 10.4053 180.704 5.90287C179.488 4.60514 177.921 3.68936 176.194 3.26739C174.466 2.84542 172.653 2.93547 170.976 3.52655C168.289 1.12966 164.777 -0.130784 161.179 0.0107507C159.292 0.124326 157.459 0.688242 155.835 1.65531C154.21 2.62238 152.84 3.96448 151.841 5.56933C151.841 5.56933 143.42 6.30583 141.418 12.0312C140.812 13.6412 140.553 15.3613 140.659 17.0785C140.764 18.7956 141.231 20.4711 142.03 21.9949C142.03 21.9949 139.723 24.0933 140.265 29.2072C140.682 32.4451 143.044 35.3911 144.92 35.7246Z" fill="#263238"/>
<path d="M172.713 12.8789C172.73 13.9753 172.628 15.0703 172.408 16.1446C172.231 17.216 171.923 18.2615 171.49 19.2574C170.639 21.2202 169.082 22.7922 167.127 23.6626C165.125 24.457 162.964 24.7711 160.818 24.5797C159.748 24.4268 158.65 24.3574 157.58 24.1628C156.51 23.9683 155.426 23.6903 154.342 23.4958C155.371 23.8571 156.441 24.1767 157.497 24.5241C158.553 24.8715 159.679 24.9549 160.776 25.1634C163.031 25.464 165.325 25.1916 167.447 24.3712C169.555 23.4015 171.201 21.6461 172.032 19.4797C172.815 17.3727 173.05 15.1013 172.713 12.8789Z" fill="#263238"/>
<path d="M180.482 21.4951C178.717 20.6936 177.1 19.5988 175.701 18.2572C175.023 17.5909 174.434 16.8388 173.95 16.0199C173.47 15.172 173.088 14.2722 172.811 13.3379C172.797 14.3528 173.006 15.3584 173.422 16.284C173.822 17.2294 174.408 18.0848 175.145 18.7992C175.894 19.5367 176.757 20.1469 177.702 20.6057C178.575 21.0502 179.513 21.3506 180.482 21.4951Z" fill="#263238"/>
<path d="M151.299 37.2791C151.299 37.2791 146.561 29.1497 142.961 30.7755C139.362 32.4014 142.447 43.8938 146.422 45.7559C146.914 46.0314 147.457 46.2041 148.018 46.2635C148.58 46.3229 149.147 46.2678 149.686 46.1015C150.225 45.9352 150.725 45.6612 151.155 45.296C151.585 44.9309 151.937 44.4822 152.189 43.9772L151.299 37.2791Z" fill="#AD6359"/>
<path d="M143.809 34.002V34.1131C146.588 35.5028 147.88 38.282 148.714 41.1586C148.571 40.8566 148.365 40.5891 148.109 40.3747C147.853 40.1604 147.553 40.0041 147.23 39.9169C146.908 39.8297 146.571 39.8136 146.241 39.8696C145.912 39.9256 145.599 40.0525 145.323 40.2414C145.24 40.2414 145.323 40.4221 145.323 40.4082C145.846 40.2815 146.395 40.3219 146.894 40.5238C147.393 40.7258 147.815 41.079 148.103 41.5338C148.573 42.2863 148.959 43.0878 149.256 43.924C149.381 44.2019 149.854 44.0908 149.784 43.7989V43.7295C150.145 40.0608 147.713 34.6968 143.809 34.002Z" fill="#263238"/>
<path d="M138.194 73.4112C105.732 107.207 58.4006 192.782 52.5502 205.052C48.5759 213.39 92.1134 235.346 93.9616 229.288C96.3379 221.52 134.261 125.759 144.35 89.6284C149.909 69.6731 144.892 66.463 138.194 73.4112Z" fill="#AD6359"/>
<path d="M96.0188 223.494C94.5041 227.663 89.3346 245.256 85.7077 247.451C82.0807 249.647 63.1259 249.174 53.5513 249.174C43.9766 249.174 42.1006 246.52 42.2674 243.227C42.4341 239.933 62.4867 239.294 62.4867 239.294C62.4867 239.294 35.6805 247.021 29.0102 248.285C22.3399 249.55 6.77586 253.455 4.48295 247.868C3.46851 245.339 7.73472 242.796 7.73472 242.796C7.73472 242.796 1.20339 244.7 0.175052 241.406C-1.00615 237.724 4.17722 235.695 4.17722 235.695C4.17722 235.695 0.105566 236.515 0.00829053 233.513C-0.269638 226.829 25.2164 223.494 25.2164 223.494C25.2164 223.494 5.76142 232.999 5.08049 227.51C4.20502 219.922 44.2129 211.598 48.3818 208.291C51.1037 205.994 53.3669 203.202 55.0521 200.064L96.0188 223.494Z" fill="#AD6359"/>
<path d="M42.4065 244.936C42.3424 244.469 42.391 243.993 42.5481 243.548C42.7052 243.103 42.9664 242.703 43.3098 242.379C44.0054 241.737 44.8101 241.224 45.6861 240.865C47.4771 240.093 49.3387 239.498 51.2447 239.086C55.0106 238.127 58.8738 237.446 62.7231 236.446C58.7429 236.407 54.7738 236.874 50.9111 237.835C48.9413 238.293 47.0431 239.018 45.2692 239.989C44.3554 240.497 43.556 241.188 42.9207 242.018C42.5934 242.42 42.3744 242.9 42.2844 243.41C42.1945 243.921 42.2365 244.446 42.4065 244.936Z" fill="#263238"/>
<path d="M7.66553 242.795C10.4448 242.114 13.1407 241.336 15.8505 240.558C18.5603 239.78 21.2563 238.932 23.9661 238.126L32.0399 235.597C34.7173 234.754 37.4178 233.925 40.1415 233.109C37.3262 233.416 34.5356 233.917 31.7898 234.61C29.0105 235.236 26.2312 236 23.5908 236.861C20.9505 237.723 18.199 238.585 15.5587 239.641C12.9184 240.697 10.2364 241.558 7.66553 242.795Z" fill="#263238"/>
<path d="M33.6654 226.412C31.0621 226.575 28.4748 226.932 25.9251 227.482C20.8126 228.513 15.8237 230.083 11.042 232.165C8.64076 233.182 6.31832 234.376 4.09375 235.737C6.55342 234.889 8.95751 233.944 11.4033 233.124C13.8491 232.304 16.2948 231.457 18.7545 230.706C21.2142 229.956 23.6877 229.205 26.1613 228.469C28.6349 227.732 31.1501 227.093 33.6654 226.412Z" fill="#263238"/>
<path d="M29.7187 220.006C21.3027 220.737 13.1929 223.513 6.09473 228.094C10.0691 226.704 13.9184 225.189 17.865 223.925C21.8116 222.66 25.7165 221.298 29.7187 220.006Z" fill="#263238"/>
<path d="M143.948 98.9537C136.235 132.083 99.4792 222.632 99.4792 222.632L66.4057 206.693L49.73 198.633C49.73 198.633 106.539 109.89 129.76 80.8605C131.557 78.637 133.201 76.724 134.693 75.1213C149.006 59.7796 149.909 73.412 143.948 98.9537Z" fill="#A6A6A6"/>
<path d="M102.175 212.795C82.7199 201.497 60.5551 192.589 56.7892 190.755C56.6224 190.672 56.4974 190.963 56.678 191.047C60.4578 192.645 84.6932 205.583 102.05 213.114C102.258 213.198 102.356 212.906 102.175 212.795Z" fill="#263238"/>
<path d="M118.434 174.175L131.33 137.836C133.526 131.791 135.582 125.718 137.653 119.631C139.723 113.545 141.697 107.43 143.392 101.232C142.047 107.524 140.387 113.743 138.417 119.868C136.513 126.024 134.429 132.11 132.317 138.183C130.204 144.256 127.953 150.287 125.632 156.248C123.312 162.21 120.963 168.269 118.434 174.175Z" fill="#263238"/>
<path d="M144.239 105.152C143.889 106.411 143.39 107.624 142.753 108.765C142.44 109.338 142.092 109.89 141.71 110.419C141.337 110.962 140.903 111.46 140.418 111.906C140.96 110.697 141.53 109.571 142.141 108.432C142.757 107.287 143.458 106.191 144.239 105.152Z" fill="#263238"/>
</svg>
