<!-- 
https://www.figma.com/ 
I used this resource to layout my images and pages for this program
https://undraw.co/ 
I used this resource to find free vector stock images for my program so the images 
are displayed with high-quality 
 -->
<svg width="30" height="30" viewBox="0 0 30 30" fill="none" xmlns="http://www.w3.org/2000/svg">
<path d="M22.6563 30C22.2328 29.9986 21.8155 29.8906 21.4413 29.6851L15.2639 26.3016V26.3003C15.0919 26.2067 14.8884 26.2081 14.7177 26.3016L8.54287 29.6851H8.54161C7.66164 30.1528 6.60468 30.0671 5.80566 29.4611C5.0066 28.8563 4.60076 27.8352 4.75628 26.8193L5.93587 19.6517C5.96748 19.4528 5.90552 19.2512 5.76772 19.1115L0.770044 14.0348C0.0708686 13.3062 -0.176927 12.2324 0.129031 11.2534C0.434992 10.2745 1.24162 9.55639 2.21639 9.39564L9.12206 8.34947V8.35079C9.31297 8.32048 9.47734 8.19663 9.56331 8.01612L12.652 1.49545C13.0996 0.578401 14.0036 0 14.991 0C15.9784 0 16.8824 0.578401 17.33 1.49545L20.4187 8.01747V8.01615C20.5047 8.19666 20.669 8.32051 20.8599 8.35082L27.7656 9.39699V9.39567C28.748 9.54456 29.5647 10.2626 29.8719 11.2469C30.1792 12.2311 29.9238 13.3115 29.2119 14.0335L24.2152 19.1102C24.0774 19.2512 24.0142 19.4528 24.0471 19.6518L25.2267 26.8194L25.2254 26.8181C25.3506 27.6073 25.1369 28.4136 24.6438 29.025C24.1495 29.6364 23.4237 29.9921 22.6563 30ZM14.9907 24.1222C15.413 24.1222 15.8302 24.2289 16.2044 24.4344L22.3818 27.8192V27.8179C22.5791 27.926 22.8193 27.9088 22.9988 27.7718C23.1796 27.6348 23.2706 27.4029 23.2327 27.1736L22.0531 20.0074C21.9077 19.1246 22.1884 18.2247 22.8041 17.6002L27.8008 12.5248H27.7995C27.9601 12.3615 28.017 12.119 27.9475 11.8977C27.8792 11.6776 27.6959 11.5156 27.4746 11.4826L20.569 10.4364H20.5702C19.7194 10.3073 18.9848 9.75132 18.6055 8.95023L15.5168 2.42821C15.4169 2.21872 15.2134 2.08697 14.9908 2.08697C14.7683 2.08697 14.5648 2.21872 14.4649 2.42821L11.3762 8.95023V8.94892C10.9969 9.75132 10.2623 10.3073 9.41271 10.4365L2.50705 11.4826C2.2858 11.5156 2.10247 11.6776 2.03421 11.899C1.96468 12.119 2.02157 12.3628 2.18214 12.5249L7.17884 17.6002C7.79328 18.2247 8.07396 19.1246 7.92857 20.0074L6.74898 27.175C6.71232 27.4043 6.80208 27.6362 6.98288 27.7719C7.16367 27.9089 7.40264 27.9273 7.60114 27.818L13.776 24.4345C14.1515 24.2303 14.5671 24.1222 14.9907 24.1222Z" fill="#808080"/>
</svg>
