<!-- 
https://www.figma.com/ 
I used this resource to layout my images and pages for this program
https://undraw.co/ 
I used this resource to find free vector stock images for my program so the images 
are displayed with high-quality 
 --><svg width="700" height="679" viewBox="0 0 700 679" fill="none" xmlns="http://www.w3.org/2000/svg">
<path d="M376.644 379.346L370.354 380.514L368.953 387.13L367.552 380.514L361.278 379.346L367.521 377.82L368.953 371.562L370.385 377.82L376.644 379.346Z" fill="#5375E2"/>
<path d="M269.655 83.9894L263.365 85.157L261.964 91.7738L260.563 85.157L254.289 83.9894L260.532 82.4636L261.964 76.205L263.396 82.4636L269.655 83.9894Z" fill="#5375E2"/>
<path d="M194.302 296.52L188.012 297.672L186.611 304.289L185.21 297.672L178.935 296.52L185.178 294.994L186.611 288.735L188.043 294.994L194.302 296.52Z" fill="#5375E2"/>
<path d="M372.658 269.85L366.384 271.018L364.983 277.635L363.582 271.018L357.292 269.85L363.551 268.324L364.983 262.066L366.415 268.324L372.658 269.85Z" fill="#5375E2"/>
<path d="M453.803 243.71L450.3 244.348L449.506 248.054L448.728 244.348L445.225 243.71L448.712 242.854L449.506 239.351L450.316 242.854L453.803 243.71Z" fill="#5375E2"/>
<path d="M236.229 231.52L232.726 232.174L231.947 235.879L231.153 232.174L227.65 231.52L231.138 230.664L231.947 227.176L232.741 230.664L236.229 231.52Z" fill="#5375E2"/>
<path d="M344.993 108.37L341.474 109.024L340.696 112.714L339.917 109.024L336.399 108.37L339.902 107.514L340.696 104.026L341.49 107.514L344.993 108.37Z" fill="#5375E2"/>
<path d="M426.854 303.557L423.351 304.195L422.572 307.901L421.778 304.195L418.275 303.557L421.763 302.701L422.572 299.198L423.366 302.701L426.854 303.557Z" fill="#5375E2"/>
<path d="M398.316 310.672L394.797 311.31L394.019 315.015L393.225 311.31L389.722 310.672L393.209 309.815L394.019 306.312L394.813 309.815L398.316 310.672Z" fill="#5375E2"/>
<path d="M398.316 163.313L394.797 163.966L394.019 167.672L393.225 163.966L389.722 163.313L393.209 162.456L394.019 158.969L394.813 162.456L398.316 163.313Z" fill="#5375E2"/>
<path d="M245.959 158.019L242.441 158.658L241.662 162.363L240.868 158.658L237.365 158.019L240.868 157.163L241.662 153.66L242.456 157.163L245.959 158.019Z" fill="#5375E2"/>
<path d="M159.49 154.189L155.987 154.843L155.193 158.549L154.414 154.843L150.911 154.189L154.399 153.333L155.193 149.846L156.002 153.333L159.49 154.189Z" fill="#5375E2"/>
<path d="M206.663 328.218L203.16 328.872L202.382 332.562L201.588 328.872L198.085 328.218L201.572 327.362L202.382 323.874L203.176 327.362L206.663 328.218Z" fill="#5375E2"/>
<path d="M383.837 327.206C383.569 327.206 383.311 327.313 383.121 327.502C382.932 327.692 382.825 327.95 382.825 328.218C382.825 328.486 382.932 328.744 383.121 328.933C383.311 329.123 383.569 329.23 383.837 329.23C384.105 329.23 384.363 329.123 384.553 328.933C384.742 328.744 384.849 328.486 384.849 328.218C384.849 327.95 384.742 327.692 384.553 327.502C384.363 327.313 384.105 327.206 383.837 327.206Z" fill="#5375E2"/>
<path d="M399.297 184.517C399.048 184.548 398.819 184.669 398.653 184.857C398.487 185.045 398.396 185.287 398.396 185.537C398.396 185.788 398.487 186.03 398.653 186.218C398.819 186.406 399.048 186.526 399.297 186.557C399.546 186.526 399.775 186.406 399.941 186.218C400.107 186.03 400.198 185.788 400.198 185.537C400.198 185.287 400.107 185.045 399.941 184.857C399.775 184.669 399.546 184.548 399.297 184.517Z" fill="#5375E2"/>
<path d="M220.24 97.2229C219.991 97.2537 219.762 97.3744 219.596 97.5622C219.43 97.75 219.338 97.992 219.338 98.2427C219.338 98.4933 219.43 98.7353 219.596 98.9231C219.762 99.111 219.991 99.2316 220.24 99.2624C220.488 99.2316 220.717 99.111 220.883 98.9231C221.049 98.7353 221.141 98.4933 221.141 98.2427C221.141 97.992 221.049 97.75 220.883 97.5622C220.717 97.3744 220.488 97.2537 220.24 97.2229Z" fill="#5375E2"/>
<path d="M142.598 161.289C142.329 161.289 142.072 161.395 141.882 161.585C141.692 161.775 141.586 162.032 141.586 162.301C141.586 162.569 141.692 162.826 141.882 163.016C142.072 163.206 142.329 163.313 142.598 163.313C142.866 163.313 143.123 163.206 143.313 163.016C143.503 162.826 143.61 162.569 143.61 162.301C143.61 162.032 143.503 161.775 143.313 161.585C143.123 161.395 142.866 161.289 142.598 161.289Z" fill="#5375E2"/>
<path d="M202.382 262.066C202.133 262.097 201.904 262.217 201.738 262.405C201.572 262.593 201.481 262.835 201.481 263.086C201.481 263.336 201.572 263.578 201.738 263.766C201.904 263.954 202.133 264.075 202.382 264.105C202.631 264.075 202.86 263.954 203.026 263.766C203.192 263.578 203.283 263.336 203.283 263.086C203.283 262.835 203.192 262.593 203.026 262.405C202.86 262.217 202.631 262.097 202.382 262.066Z" fill="#5375E2"/>
<path d="M172.256 243.461C172.066 243.461 171.884 243.537 171.75 243.671C171.616 243.805 171.54 243.987 171.54 244.177C171.54 244.367 171.616 244.549 171.75 244.684C171.884 244.818 172.066 244.893 172.256 244.893C172.446 244.893 172.628 244.818 172.763 244.684C172.897 244.549 172.972 244.367 172.972 244.177C172.972 243.987 172.897 243.805 172.763 243.671C172.628 243.537 172.446 243.461 172.256 243.461Z" fill="#5375E2"/>
<path d="M228.242 122.133C228.052 122.133 227.87 122.209 227.736 122.343C227.601 122.477 227.526 122.659 227.526 122.849C227.526 123.039 227.601 123.221 227.736 123.356C227.87 123.49 228.052 123.565 228.242 123.565C228.432 123.565 228.614 123.49 228.748 123.356C228.883 123.221 228.958 123.039 228.958 122.849C228.958 122.659 228.883 122.477 228.748 122.343C228.614 122.209 228.432 122.133 228.242 122.133Z" fill="#5375E2"/>
<path d="M249.587 223.206C249.413 223.232 249.254 223.319 249.139 223.452C249.025 223.585 248.962 223.754 248.962 223.93C248.962 224.106 249.025 224.275 249.139 224.408C249.254 224.541 249.413 224.628 249.587 224.654C249.761 224.628 249.919 224.541 250.034 224.408C250.149 224.275 250.212 224.106 250.212 223.93C250.212 223.754 250.149 223.585 250.034 223.452C249.919 223.319 249.761 223.232 249.587 223.206Z" fill="#5375E2"/>
<path d="M183.201 353.517C183.027 353.543 182.869 353.63 182.754 353.763C182.639 353.896 182.576 354.065 182.576 354.241C182.576 354.417 182.639 354.586 182.754 354.719C182.869 354.852 183.027 354.939 183.201 354.965C183.375 354.939 183.534 354.852 183.649 354.719C183.763 354.586 183.827 354.417 183.827 354.241C183.827 354.065 183.763 353.896 183.649 353.763C183.534 353.63 183.375 353.543 183.201 353.517Z" fill="#5375E2"/>
<path d="M362.196 337.217C361.708 337.26 361.254 337.485 360.923 337.847C360.593 338.208 360.409 338.681 360.409 339.171C360.409 339.661 360.593 340.133 360.923 340.495C361.254 340.856 361.708 341.081 362.196 341.124C362.684 341.081 363.138 340.856 363.469 340.495C363.8 340.133 363.983 339.661 363.983 339.171C363.983 338.681 363.8 338.208 363.469 337.847C363.138 337.485 362.684 337.26 362.196 337.217Z" fill="#5375E2"/>
<path d="M479.445 224.887C478.929 224.887 478.434 225.092 478.069 225.457C477.704 225.822 477.499 226.317 477.499 226.833C477.499 227.35 477.704 227.845 478.069 228.21C478.434 228.575 478.929 228.78 479.445 228.78C479.961 228.78 480.456 228.575 480.821 228.21C481.186 227.845 481.391 227.35 481.391 226.833C481.391 226.317 481.186 225.822 480.821 225.457C480.456 225.092 479.961 224.887 479.445 224.887Z" fill="#5375E2"/>
<path d="M282.593 70.2265C282.105 70.2701 281.65 70.4948 281.32 70.8564C280.989 71.218 280.806 71.6903 280.806 72.1804C280.806 72.6704 280.989 73.1427 281.32 73.5043C281.65 73.8659 282.105 74.0907 282.593 74.1343C283.081 74.0907 283.535 73.8659 283.866 73.5043C284.196 73.1427 284.38 72.6704 284.38 72.1804C284.38 71.6903 284.196 71.218 283.866 70.8564C283.535 70.4948 283.081 70.2701 282.593 70.2265Z" fill="#5375E2"/>
<path d="M256.982 147.946C256.494 147.99 256.04 148.215 255.709 148.576C255.378 148.938 255.195 149.41 255.195 149.9C255.195 150.39 255.378 150.862 255.709 151.224C256.04 151.586 256.494 151.81 256.982 151.854C257.47 151.81 257.924 151.586 258.255 151.224C258.586 150.862 258.769 150.39 258.769 149.9C258.769 149.41 258.586 148.938 258.255 148.576C257.924 148.215 257.47 147.99 256.982 147.946Z" fill="#5375E2"/>
<path d="M192.402 346.9C191.914 346.944 191.46 347.169 191.129 347.53C190.799 347.892 190.615 348.364 190.615 348.854C190.615 349.344 190.799 349.817 191.129 350.178C191.46 350.54 191.914 350.765 192.402 350.808C192.891 350.765 193.345 350.54 193.675 350.178C194.006 349.817 194.189 349.344 194.189 348.854C194.189 348.364 194.006 347.892 193.675 347.53C193.345 347.169 192.891 346.944 192.402 346.9Z" fill="#5375E2"/>
<path d="M274.11 32.8479H47.5728V380.198H274.11V32.8479Z" fill="#DBDBDB"/>
<path d="M155.579 46.7615H59.9198V201.26H155.579V46.7615Z" fill="white"/>
<path d="M261.763 46.7615H166.104V201.26H261.763V46.7615Z" fill="white"/>
<path d="M155.579 211.785H59.9198V366.284H155.579V211.785Z" fill="white"/>
<path d="M261.763 211.785H166.104V366.284H261.763V211.785Z" fill="white"/>
<path d="M101.235 32.8479H47.5728V529.792H101.235V32.8479Z" fill="#EBEBEB"/>
<path d="M91.0511 56.4689L91.4599 110.199L91.6131 163.93L91.9027 271.391L91.6131 378.852L91.4769 432.583L91.0511 486.314L90.6424 432.583L90.4892 378.852L90.1996 271.391L90.4892 163.93L90.6424 110.199L91.0511 56.4689Z" fill="white"/>
<path d="M66.4253 68.9351L66.8341 116.909L67.0725 164.884L67.2598 260.833L67.0725 356.798L66.8341 404.773L66.4253 452.747L65.9996 404.773L65.7612 356.798L65.5738 260.833L65.7612 164.884L65.9996 116.909L66.4253 68.9351Z" fill="white"/>
<path d="M78.7382 80.2602L79.147 136.443L79.3002 192.609L79.5898 304.975L79.3002 417.324L79.147 473.507L78.7382 529.673L78.3125 473.507L78.1762 417.324L77.8867 304.975L78.1762 192.609L78.3295 136.443L78.7382 80.2602Z" fill="white"/>
<path d="M57.246 59.3129L57.6718 118.101L57.825 176.89L58.0975 294.484L57.825 412.079L57.6718 470.884L57.246 529.673L56.8373 470.884L56.684 412.079L56.4115 294.484L56.684 176.89L56.8373 118.101L57.246 59.3129Z" fill="white"/>
<path d="M220.447 529.792H274.11L274.11 32.8479H220.447L220.447 529.792Z" fill="#EBEBEB"/>
<path d="M230.614 56.4689L231.04 110.199L231.193 163.93L231.466 271.391L231.193 378.852L231.04 432.583L230.614 486.314L230.206 432.583L230.052 378.852L229.763 271.391L230.052 163.93L230.206 110.199L230.614 56.4689Z" fill="white"/>
<path d="M255.257 68.9351L255.666 116.909L255.905 164.884L256.109 260.833L255.922 356.798L255.683 404.773L255.257 452.747L254.849 404.773L254.61 356.798L254.406 260.833L254.61 164.884L254.849 116.909L255.257 68.9351Z" fill="white"/>
<path d="M242.944 80.2602L243.353 136.443L243.506 192.609L243.796 304.975L243.506 417.324L243.353 473.507L242.944 529.673L242.519 473.507L242.365 417.324L242.093 304.975L242.382 192.609L242.536 136.443L242.944 80.2602Z" fill="white"/>
<path d="M264.42 59.3129L264.828 118.101L264.982 176.89L265.271 294.484L264.982 412.079L264.845 470.884L264.42 529.673L264.011 470.884L263.858 412.079L263.568 294.484L263.858 176.89L264.011 118.101L264.42 59.3129Z" fill="white"/>
<path d="M493.055 144.188C519.599 117.644 519.599 74.6069 493.055 48.0626C466.511 21.5184 423.474 21.5184 396.93 48.0627C370.386 74.6069 370.386 117.644 396.93 144.188C423.474 170.732 466.511 170.732 493.055 144.188Z" fill="#EBEBEB"/>
<path opacity="0.5" d="M465.695 160.873C455.544 164.11 444.774 164.914 434.255 163.221C423.736 161.527 413.762 157.384 405.14 151.124C396.517 144.865 389.488 136.666 384.619 127.189C379.75 117.712 377.177 107.223 377.11 96.5687C377.043 85.9143 379.482 75.3934 384.231 65.8556C388.98 56.3178 395.905 48.0304 404.447 41.6628C412.99 35.2952 422.91 31.0258 433.407 29.1995C443.904 27.3731 454.683 28.0409 464.874 31.149C451.163 27.5258 436.605 28.9651 423.869 35.2032C411.133 41.4413 401.071 52.0603 395.528 65.1141C389.985 78.1679 389.332 92.7821 393.688 106.278C398.045 119.775 407.119 131.249 419.248 138.598C431.377 145.948 445.748 148.68 459.728 146.294C473.708 143.909 486.36 136.565 495.365 125.609C504.371 114.653 509.126 100.819 508.76 86.6419C508.394 72.4647 502.931 58.8942 493.373 48.4174C501.533 56.688 507.436 66.9131 510.518 78.1156C513.6 89.3181 513.757 101.124 510.976 112.405C508.194 123.685 502.566 134.064 494.63 142.55C486.693 151.036 476.713 157.344 465.644 160.873H465.695Z" fill="#DBDBDB"/>
<path d="M419.095 90.2871C419.675 92.0911 419.707 94.0268 419.187 95.8491C418.666 97.6713 417.617 99.2981 416.171 100.524C414.726 101.749 412.949 102.518 411.066 102.734C409.183 102.949 407.279 102.601 405.594 101.733C403.909 100.866 402.52 99.5176 401.601 97.8599C400.683 96.2022 400.277 94.3093 400.435 92.4208C400.593 90.5323 401.308 88.7331 402.489 87.251C403.67 85.769 405.264 84.6706 407.07 84.0951C409.486 83.325 412.108 83.5444 414.362 84.7052C416.617 85.8659 418.319 87.8733 419.095 90.2871Z" fill="#C7C7C7"/>
<path d="M480.925 70.5188C481.503 72.3233 481.532 74.2586 481.01 76.0799C480.487 77.9012 479.436 79.5265 477.99 80.7503C476.543 81.9741 474.766 82.7412 472.884 82.9547C471.001 83.1681 469.097 82.8183 467.413 81.9495C465.73 81.0807 464.341 79.7319 463.424 78.0738C462.508 76.4158 462.103 74.5229 462.262 72.6349C462.421 70.7468 463.137 68.9484 464.319 67.4673C465.5 65.9861 467.094 64.8887 468.9 64.314C470.097 63.9312 471.358 63.788 472.61 63.8928C473.862 63.9975 475.082 64.348 476.198 64.9242C477.315 65.5005 478.307 66.2912 479.118 67.2511C479.929 68.2111 480.543 69.3214 480.925 70.5188Z" fill="#C7C7C7"/>
<path d="M453.747 76.1595C454.351 77.9708 454.59 79.884 454.45 81.7883C454.309 83.6926 453.792 85.55 452.927 87.2527C452.063 88.9555 450.87 90.4697 449.416 91.7075C447.962 92.9453 446.276 93.882 444.458 94.4634C442.639 95.0448 440.723 95.2592 438.82 95.0942C436.918 94.9292 435.067 94.3881 433.376 93.5023C431.684 92.6165 430.185 91.4036 428.966 89.934C427.747 88.4643 426.832 86.7672 426.274 84.9411L453.747 76.1595Z" fill="#C7C7C7"/>
<path d="M453.465 85.736C452.689 87.7483 451.472 89.5611 449.904 91.0409C448.335 92.5207 446.454 93.6299 444.4 94.2867C442.346 94.9435 440.17 95.1313 438.034 94.8363C435.898 94.5412 433.855 93.7708 432.056 92.5818C434.22 89.0731 437.568 86.4544 441.494 85.1988C445.421 83.9433 449.667 84.1338 453.465 85.736Z" fill="#DBDBDB"/>
<path d="M649.275 310.857C655.67 284.585 639.556 258.103 613.284 251.708C587.012 245.313 560.53 261.427 554.135 287.699C547.74 313.972 563.854 340.454 590.127 346.848C616.399 353.243 642.881 337.129 649.275 310.857Z" fill="#EBEBEB"/>
<path opacity="0.5" d="M589.266 346.611C581.836 344.66 574.97 340.988 569.221 335.892C563.473 330.796 559.005 324.419 556.177 317.277C553.35 310.134 552.243 302.426 552.946 294.777C553.649 287.127 556.142 279.75 560.223 273.243C564.305 266.735 569.861 261.279 576.441 257.316C583.022 253.353 590.443 250.994 598.104 250.43C605.765 249.866 613.451 251.112 620.542 254.069C627.632 257.025 633.927 261.608 638.918 267.448C631.983 259.949 622.578 255.201 612.427 254.072C602.276 252.944 592.058 255.512 583.646 261.305C575.234 267.098 569.191 275.728 566.625 285.614C564.059 295.501 565.142 305.98 569.675 315.133C574.207 324.286 581.887 331.499 591.305 335.45C600.724 339.401 611.251 339.826 620.957 336.646C630.664 333.466 638.899 326.895 644.154 318.137C649.409 309.379 651.332 299.021 649.571 288.96C651.328 297.136 650.962 305.626 648.509 313.62C646.055 321.615 641.596 328.849 635.556 334.632C629.515 340.415 622.095 344.556 614.001 346.66C605.907 348.763 597.41 348.76 589.318 346.649L589.266 346.611Z" fill="#DBDBDB"/>
<path d="M633.431 297.562C633.085 298.878 632.357 300.063 631.339 300.966C630.32 301.868 629.057 302.449 627.708 302.634C626.36 302.819 624.987 302.601 623.763 302.006C622.539 301.411 621.518 300.466 620.831 299.292C620.143 298.117 619.819 296.765 619.9 295.406C619.98 294.048 620.462 292.743 621.283 291.658C622.105 290.573 623.23 289.756 624.516 289.31C625.801 288.864 627.191 288.809 628.508 289.152C629.384 289.38 630.206 289.779 630.928 290.325C631.649 290.872 632.256 291.555 632.713 292.336C633.17 293.117 633.469 293.981 633.592 294.878C633.715 295.774 633.66 296.686 633.431 297.562Z" fill="#C7C7C7"/>
<path d="M588.202 285.703C587.857 287.024 587.128 288.213 586.108 289.119C585.087 290.026 583.82 290.608 582.468 290.794C581.115 290.98 579.738 290.76 578.511 290.163C577.283 289.566 576.261 288.618 575.573 287.439C574.884 286.26 574.561 284.903 574.644 283.541C574.728 282.178 575.213 280.871 576.04 279.785C576.867 278.699 577.997 277.882 579.288 277.438C580.579 276.995 581.973 276.945 583.292 277.294C584.167 277.523 584.988 277.923 585.708 278.47C586.428 279.017 587.034 279.7 587.49 280.481C587.946 281.262 588.243 282.125 588.365 283.021C588.488 283.917 588.432 284.829 588.202 285.703Z" fill="#C7C7C7"/>
<path d="M592.856 283.832C592.841 286.803 593.687 289.715 595.292 292.216C596.966 294.493 599.398 296.097 602.15 296.741C604.844 297.6 607.759 297.441 610.342 296.293C612.999 294.949 615.257 292.934 616.893 290.447C615.96 293.537 613.932 296.181 611.188 297.882C609.748 298.74 608.138 299.274 606.471 299.446C604.809 299.577 603.138 299.412 601.535 298.959C599.943 298.512 598.436 297.806 597.074 296.87C595.71 295.89 594.58 294.621 593.766 293.152C592.26 290.282 591.933 286.938 592.856 283.832Z" fill="#C7C7C7"/>
<path d="M655.502 452.086H542.38V608.629H655.502V452.086Z" fill="#EBEBEB"/>
<path d="M660.976 446.278H536.893V452.085H660.976V446.278Z" fill="#DBDBDB"/>
<path d="M700 446.278H660.976V452.085H700V446.278Z" fill="#EBEBEB"/>
<path d="M693.834 452.086H655.502V608.629H693.834V452.086Z" fill="#DBDBDB"/>
<path d="M643.298 524.556H554.533V474.354H643.298V524.556ZM554.841 524.236H643.003V474.674H554.841V524.236Z" fill="#C7C7C7"/>
<path d="M603.825 489.032H586.544V498.968H603.825V489.032Z" fill="#C7C7C7"/>
<path d="M609.094 498.378H591.493V489.622H609.094V498.378ZM591.813 498.057H608.774V489.942H591.813V498.057Z" fill="#C7C7C7"/>
<path d="M643.298 587.578H554.533V537.376H643.298V587.578ZM554.841 587.258H643.003V537.696H554.841V587.258Z" fill="#C7C7C7"/>
<path d="M603.825 552.055H586.544V561.99H603.825V552.055Z" fill="#C7C7C7"/>
<path d="M609.094 561.4H591.493V552.644H609.094V561.4ZM591.813 561.08H608.774V552.965H591.813V561.08Z" fill="#C7C7C7"/>
<path d="M56.921 360.468L40.0885 360.814L31.5505 360.968C28.7045 360.968 25.8328 360.968 22.974 361.032H22.3971V360.468L22.333 346.123V345.469H22.974L39.9475 345.546C45.601 345.546 51.2546 345.687 56.921 345.751H57.2671V346.097C57.2671 348.52 57.1517 350.943 57.1004 353.341L56.921 360.468ZM56.921 360.468L56.7415 353.212C56.7415 350.828 56.5877 348.469 56.562 346.123L56.921 346.469C51.2546 346.533 45.601 346.674 39.9475 346.674L22.974 346.764L23.615 346.123L23.5381 360.468L22.974 359.891C25.7687 359.891 28.5506 359.891 31.3582 359.891L39.7936 360.045L56.921 360.468Z" fill="#EBEBEB"/>
<path d="M37.986 378.557L21.1536 378.903L12.6155 379.057C9.7567 379.057 6.89788 379.057 4.03905 379.121H3.46216V378.557L3.39806 364.212V363.596H4.09033H21.0125C26.6661 363.596 32.3196 363.737 37.986 363.801H38.3322V364.148C38.3322 366.571 38.2168 368.993 38.1655 371.391L37.986 378.557ZM37.986 378.557L37.7937 371.288C37.7937 368.904 37.6527 366.545 37.6271 364.199L37.986 364.545C32.3196 364.609 26.6661 364.75 21.0125 364.75L4.09033 364.878L4.7185 364.25L4.6544 378.596L4.09033 378.019C6.88506 378.019 9.66697 378.019 12.4745 378.083L20.91 378.237L37.986 378.557Z" fill="#EBEBEB"/>
<path d="M634.891 360.348L618.071 360.694L609.533 360.848C606.674 360.848 603.803 360.848 600.944 360.912H600.38V360.348L600.303 346.002V345.387H600.944H617.879C623.545 345.387 629.199 345.528 634.852 345.592H635.211V345.938C635.211 348.361 635.096 350.784 635.045 353.182L634.891 360.348ZM634.891 360.348L634.711 353.092C634.711 350.707 634.57 348.348 634.545 346.002L634.891 346.349C629.237 346.413 623.584 346.554 617.917 346.554L600.944 346.631L601.585 346.002L601.521 360.348L600.944 359.771C603.738 359.771 606.533 359.771 609.341 359.835L617.776 359.989L634.891 360.348Z" fill="#EBEBEB"/>
<path d="M615.956 105.912L599.136 106.271L590.598 106.412C587.739 106.412 584.868 106.412 582.009 106.489H581.445V105.912L581.368 91.554V90.913H582.009L598.982 90.9899C604.636 90.9899 610.302 91.1437 615.956 91.2078H616.315V91.554C616.315 93.9897 616.212 96.4127 616.148 98.7972L615.956 105.912ZM615.956 105.912L615.776 98.669C615.712 96.2717 615.635 93.9128 615.61 91.5668L615.956 91.9129C610.302 91.9129 604.636 92.118 598.982 92.1309L581.983 92.2078L582.624 91.5668V105.912L582.047 105.335C584.842 105.335 587.637 105.335 590.444 105.412L598.88 105.553L615.956 105.912Z" fill="#EBEBEB"/>
<path d="M634.891 124.001L618.071 124.36L609.533 124.501C606.674 124.501 603.803 124.501 600.944 124.578H600.38V124.001L600.303 109.656V109.015H600.944L617.917 109.092C623.584 109.092 629.237 109.245 634.891 109.309H635.25V109.656C635.25 112.091 635.134 114.514 635.083 116.899L634.891 124.001ZM634.891 124.001L634.711 116.758C634.711 114.36 634.57 112.002 634.545 109.656L634.891 110.002C629.237 110.002 623.584 110.207 617.917 110.22L600.944 110.297L601.585 109.656L601.521 124.001L600.944 123.424C603.738 123.424 606.533 123.424 609.341 123.501L617.776 123.642L634.891 124.001Z" fill="#EBEBEB"/>
<path d="M34.588 107.879L17.7555 108.238L9.21747 108.379C6.37147 108.379 3.49982 108.379 0.640993 108.456H0.0640983V107.879L0 93.5212V92.8802H0.640993L17.6529 92.9699C23.3065 92.9699 28.9601 93.1238 34.6264 93.1879H34.9726V93.5212C34.9726 95.957 34.8572 98.3799 34.8059 100.764L34.588 107.879ZM34.588 107.879L34.4085 100.636C34.4085 98.2389 34.2547 95.88 34.229 93.534L34.588 93.8801C28.9216 93.8801 23.268 94.0853 17.6145 94.0981L0.640993 94.175L1.28199 93.534L1.20506 107.879L0.640993 107.303C3.43572 107.303 6.21763 107.303 9.02518 107.379L17.4606 107.52L34.588 107.879Z" fill="#EBEBEB"/>
<path d="M335.06 678.026C407.506 678.026 466.236 669.506 466.236 658.996C466.236 648.487 407.506 639.967 335.06 639.967C262.613 639.967 203.883 648.487 203.883 658.996C203.883 669.506 262.613 678.026 335.06 678.026Z" fill="#EBEBEB"/>
<path d="M124.349 617.909L188.471 617.623L252.592 617.516L380.835 617.314L509.077 617.516L573.199 617.623L637.32 617.909L573.199 618.206L509.077 618.302L380.835 618.504L252.592 618.302L188.471 618.206L124.349 617.909Z" fill="#263238"/>
<path d="M152.35 507.064C150.961 512.146 150.041 517.344 149.6 522.594C149.746 522.86 149.72 523.816 149.6 523.551C149.6 524.401 148.272 524.255 148.272 523.405C148.272 522.86 148.272 522.315 148.272 521.784C145.243 518.011 140.832 515.619 137.258 512.338C134.392 509.766 132.302 506.443 131.226 502.746C128.277 492.556 131.04 481.755 127.493 471.592C124.424 462.836 118.924 455.211 114.274 447.279C109.359 438.883 105.745 430.008 105.373 420.23C105.094 412.697 105.984 402.667 111.723 397.021C117.795 391.042 125.328 395.533 129.991 400.86C143.502 416.311 149.746 435.934 152.271 455.941C153.599 467.021 155.1 478.168 154.768 489.341C154.557 495.314 153.747 501.252 152.35 507.064Z" fill="#5375E2"/>
<path d="M149.667 526.673C150.4 516.22 150.275 505.725 149.295 495.293C149.295 495.293 149.295 495.293 149.295 495.187C149.467 486.697 150.132 478.248 149.799 469.758C149.388 460.576 148.138 451.451 146.066 442.497C146.066 442.39 145.88 442.417 145.907 442.497C147.559 451.298 148.545 460.211 148.856 469.16C149.033 473.961 148.993 478.753 148.737 483.535C148.657 485.09 148.511 486.657 148.418 488.238C144.894 464.423 136.285 441.645 123.175 421.453C123.003 421.174 122.511 421.453 122.684 421.758C132.072 437.106 139.032 453.812 143.316 471.286C136.82 459.263 127.028 449.378 119.748 437.82C119.748 437.754 119.615 437.82 119.642 437.887C126.178 450.747 136.913 460.897 143.848 473.558C145.043 478.726 146.013 483.947 146.744 489.182C147.711 496.379 148.234 503.629 148.311 510.89C144.326 503.503 140.247 496.435 137.019 488.624C136.939 488.411 136.634 488.557 136.7 488.756C139.45 496.874 143.157 505.616 148.325 512.537C148.325 517.679 148.205 522.82 147.9 527.948C147.103 541.646 144.751 555.17 143.675 568.814C143.677 568.89 143.707 568.962 143.758 569.018C143.809 569.074 143.878 569.11 143.953 569.12C144.028 569.129 144.104 569.112 144.168 569.071C144.231 569.029 144.278 568.967 144.299 568.894C147.036 554.957 148.829 540.851 149.667 526.673Z" fill="#263238"/>
<path d="M135.119 421.027C135.119 420.934 134.933 421.027 134.973 421.027C137.471 427.949 138.879 434.964 140.686 442.058C140.706 442.119 140.747 442.171 140.802 442.204C140.857 442.237 140.922 442.249 140.985 442.237C141.048 442.226 141.105 442.192 141.145 442.142C141.186 442.092 141.206 442.029 141.204 441.965C140.473 434.911 137.909 427.657 135.119 421.027Z" fill="#263238"/>
<path d="M198.65 450.029C196.985 454.089 195.064 458.038 192.897 461.853C188.394 470.037 183.69 477.53 182.84 487.096C182.468 491.347 182.335 495.625 181.033 499.717C179.854 503.243 178.157 506.574 175.998 509.601C171.123 516.722 165.011 522.887 160.494 530.233C155.785 537.928 152.307 546.31 150.185 555.077C150.065 555.555 149.321 555.436 149.427 554.958C149.433 554.922 149.433 554.886 149.427 554.851C149.418 554.817 149.418 554.78 149.427 554.745C148.71 534.312 150.344 513.733 156.575 494.164C159.325 485.544 162.631 477.113 166.473 468.921C169.807 461.827 173.966 454.998 179.758 449.697C183.558 446.27 191.808 439.786 197.215 443.214C199.872 444.875 199.673 447.479 198.65 450.029Z" fill="#5375E2"/>
<path d="M178.124 496.342C174.522 502.269 170.556 507.966 166.247 513.401C164.281 515.991 162.261 518.542 160.295 521.133C159.365 522.355 158.315 523.564 157.465 524.879C157.997 522.727 158.528 520.588 159.073 518.436C161.73 508.113 164.241 497.697 168.173 487.773C172.198 478.164 176.937 468.869 182.349 459.967C182.495 459.741 182.11 459.568 181.963 459.794C177.659 466.889 173.275 473.983 169.648 481.463C167.644 485.639 165.896 489.934 164.413 494.323C166.076 484.993 168.402 475.794 171.375 466.796C171.375 466.716 171.282 466.663 171.255 466.796C167.36 475.882 164.921 485.526 164.028 495.372C163.138 498.03 162.328 500.687 161.57 503.344C158.355 514.769 155.525 526.314 152.908 537.886C152.859 530.269 153.517 522.663 154.874 515.168C154.874 514.995 154.649 514.955 154.609 515.168C152.617 522.972 151.948 531.056 152.629 539.081C151.646 543.51 150.681 547.938 149.733 552.367C147.727 561.786 145.269 571.365 144.087 580.93C144.088 580.977 144.105 581.021 144.135 581.056C144.165 581.091 144.207 581.114 144.252 581.122C144.298 581.13 144.344 581.122 144.384 581.099C144.425 581.076 144.455 581.04 144.472 580.997C145.867 575.842 146.717 570.488 147.86 565.28C149.002 560.072 150.198 554.811 151.407 549.603C153.187 541.991 155.047 534.418 156.934 526.846C158.262 524.069 160.654 521.598 162.487 519.273C164.493 516.722 166.473 514.158 168.465 511.567C172.137 506.763 175.424 501.676 178.297 496.356C178.363 496.302 178.19 496.236 178.124 496.342Z" fill="#263238"/>
<path d="M179.001 487.6C174.5 493.339 170.604 499.527 167.376 506.067C167.376 506.147 167.469 506.227 167.522 506.147C171.428 500.022 175.268 493.845 179.173 487.72C179.187 487.614 179.067 487.507 179.001 487.6Z" fill="#263238"/>
<path d="M92.0345 469.453C94.6916 474.009 97.7074 479.483 96.5648 484.957C95.8474 488.424 93.3099 491.241 92.8582 494.775C91.8219 502.573 99.6072 507.728 105.227 511.421C119.256 520.628 138.44 528.825 141.097 547.624C141.19 548.288 142.346 548.115 142.267 547.464C142.273 547.425 142.273 547.384 142.267 547.345C142.267 547.345 142.267 547.345 142.267 547.239C144.108 537.73 144.013 527.947 141.988 518.476C139.902 508.791 135.664 500.089 130.682 491.573C122.232 477.171 113.291 462.425 100.537 451.398C97.0032 448.342 89.7627 442.855 86.9462 449.737C84.1297 456.619 88.846 463.833 92.0345 469.453Z" fill="#5375E2"/>
<path d="M104.868 499.929C114.168 510 128.955 515.646 136.966 526.925C132.497 509.755 124.044 493.88 112.295 480.586C112.256 480.52 112.239 480.442 112.247 480.366C112.256 480.289 112.288 480.218 112.34 480.161C112.392 480.105 112.461 480.066 112.537 480.052C112.612 480.037 112.69 480.048 112.76 480.081C121.328 488.409 128.176 498.34 132.914 509.309C130.704 501.66 127.8 494.229 124.238 487.109C124.213 487.055 124.209 486.993 124.227 486.937C124.245 486.88 124.284 486.832 124.335 486.802C124.387 486.772 124.448 486.762 124.506 486.775C124.564 486.787 124.616 486.821 124.65 486.87C129.043 494.646 132.182 503.066 133.95 511.82C144.499 537.354 145.482 567.3 143.25 594.189C143.25 594.27 143.218 594.348 143.16 594.405C143.103 594.463 143.025 594.495 142.944 594.495C142.863 594.495 142.785 594.463 142.728 594.405C142.671 594.348 142.639 594.27 142.639 594.189C143.25 572.933 142.904 551.397 137.829 530.685C137.723 530.26 137.603 529.835 137.497 529.357C128.782 517.214 114.062 511.594 104.589 500.062C104.616 500.009 104.788 499.823 104.868 499.929Z" fill="#263238"/>
<path d="M102.716 491.281C107.605 495.758 112.401 500.341 117.33 504.818C117.33 504.818 117.33 504.951 117.33 504.911C111.801 501.195 106.819 496.723 102.53 491.626C102.264 491.374 102.517 491.095 102.716 491.281Z" fill="#263238"/>
<path d="M101.945 471.871C106.266 478.954 111.153 485.677 116.559 491.971C116.559 492.051 116.559 492.171 116.426 492.091C110.369 486.323 105.377 479.532 101.68 472.03C101.669 471.996 101.67 471.959 101.683 471.926C101.696 471.892 101.719 471.864 101.75 471.846C101.781 471.827 101.816 471.82 101.852 471.824C101.887 471.829 101.92 471.845 101.945 471.871Z" fill="#263238"/>
<path d="M123.933 613.161H166.685L160.933 555.635H130.509L123.933 613.161Z" fill="#455A64"/>
<path d="M129.446 564.975H161.876L160.933 555.635H130.509L129.446 564.975Z" fill="#263238"/>
<path d="M125.275 558.438H165.357V549.258H125.275V558.438Z" fill="#455A64"/>
<path d="M338.21 490.184L383.063 549.427C391.7 560.711 399.06 570.75 402.385 576.298C402.385 576.298 402.385 576.298 402.385 576.392C403.306 577.604 403.937 579.012 404.229 580.506C404.229 580.506 404.229 580.6 404.229 580.632C402.653 585.47 314.507 657.068 310.583 658.534C306.658 660 302.198 648.967 303.396 643.451C304.594 637.935 326.09 595.43 326.09 595.43L281.883 535.763L338.21 490.184Z" fill="#D3766A"/>
<path d="M373.859 537.213L383.063 549.364C391.7 560.648 399.06 570.687 402.385 576.235C402.385 576.235 402.385 576.235 402.385 576.329C403.153 577.627 403.771 579.007 404.229 580.443C404.229 580.443 404.229 580.537 404.229 580.569C402.653 585.407 314.507 657.005 310.583 658.471C306.658 659.937 302.198 648.905 303.396 643.389C304.594 637.873 326.09 595.368 326.09 595.368L316.556 583.169L373.859 537.213Z" fill="#EBEBEB"/>
<path d="M310.614 658.471C314.538 657.021 402.637 585.423 404.261 580.569C404.907 578.725 395.23 565.281 383.063 549.379L382.669 548.875L325.318 594.438L326.122 595.383C326.122 595.383 304.657 637.935 303.427 643.404C302.198 648.873 306.706 659.952 310.614 658.471Z" fill="#5375E2"/>
<path d="M308.833 654.247C323.395 641.813 383.268 593.051 398.666 581.861C398.792 581.767 398.871 581.861 398.744 581.956C384.56 594.564 324.31 642.884 309.101 654.452C308.676 654.736 308.534 654.515 308.833 654.247Z" fill="#263238"/>
<path d="M321.489 599.434C326.437 593.587 334.317 588.685 342.166 589.221C342.481 589.221 342.434 589.662 342.166 589.757C335.116 592.498 328.38 595.985 322.072 600.158C321.975 600.196 321.869 600.201 321.769 600.174C321.669 600.147 321.581 600.089 321.516 600.009C321.451 599.928 321.413 599.829 321.408 599.726C321.403 599.622 321.432 599.52 321.489 599.434Z" fill="#263238"/>
<path d="M319.329 605.406C324.294 599.559 332.174 594.658 340.022 595.194C340.322 595.194 340.29 595.635 340.022 595.73C332.973 598.465 326.237 601.947 319.928 606.116C319.832 606.169 319.721 606.188 319.613 606.168C319.505 606.148 319.407 606.092 319.336 606.008C319.266 605.924 319.226 605.818 319.225 605.709C319.224 605.599 319.261 605.492 319.329 605.406Z" fill="#263238"/>
<path d="M317.186 611.38C322.135 605.533 330.015 600.616 337.863 601.151C338.163 601.151 338.131 601.608 337.863 601.703C330.817 604.445 324.081 607.926 317.769 612.089C317.674 612.135 317.566 612.147 317.463 612.124C317.359 612.101 317.267 612.044 317.2 611.963C317.133 611.881 317.095 611.779 317.092 611.674C317.09 611.568 317.123 611.464 317.186 611.38Z" fill="#263238"/>
<path d="M379.738 541.61L318.352 593.051C318.352 593.051 247.715 502.793 231.782 457.293C220.451 424.875 272.758 262.64 272.758 262.64L339.691 258.117C339.691 258.117 296.367 414.363 301.174 429.54C307.1 448.026 379.738 541.61 379.738 541.61Z" fill="#37474F"/>
<path d="M311.528 578.284C321.063 570.404 318.21 572.5 327.856 564.698C332.584 560.869 363.552 535.779 368.58 532.973C368.69 532.973 368.816 533.084 368.737 533.178C364.876 537.433 333.45 561.988 328.675 565.723C318.888 573.351 321.615 571.05 311.749 578.567C311.73 578.582 311.709 578.592 311.686 578.599C311.663 578.605 311.64 578.607 311.616 578.604C311.593 578.601 311.57 578.593 311.55 578.582C311.529 578.57 311.511 578.554 311.497 578.536C311.482 578.517 311.471 578.496 311.465 578.473C311.459 578.45 311.457 578.427 311.46 578.403C311.463 578.38 311.471 578.357 311.482 578.337C311.494 578.316 311.51 578.298 311.528 578.284Z" fill="#263238"/>
<path d="M359.36 530.467C347.918 516.22 336.802 501.689 326.012 486.875C315.295 472.187 304.72 457.277 295.106 441.848C292.79 438.382 290.931 434.632 289.574 430.69C288.323 426.196 288.161 421.469 289.102 416.9C290.599 407.775 292.506 398.697 294.413 389.651C298.258 371.495 302.629 353.455 307.525 335.531C312.411 317.627 317.879 299.881 323.663 282.246C324.373 280.087 325.098 277.912 325.823 275.737C325.933 275.422 325.429 275.296 325.318 275.611C318.825 293.283 312.994 311.176 307.825 329.29C302.655 347.403 298.048 365.554 294.003 383.741C291.986 392.913 290.11 402.128 288.377 411.384C287.303 415.885 286.774 420.499 286.801 425.127C287.115 429.159 288.235 433.087 290.094 436.679C292.086 440.536 294.345 444.249 296.856 447.79C299.398 451.614 301.972 455.428 304.578 459.232C309.831 466.891 315.19 474.472 320.653 481.974C331.528 496.851 342.717 511.587 354.742 525.566C356.208 527.284 357.689 528.986 359.155 530.688C359.202 530.846 359.486 530.625 359.36 530.467Z" fill="#263238"/>
<path d="M339.754 258.117C339.754 258.117 327.146 303.695 316.24 347.95C304.058 322.733 283.286 279.299 276.304 262.341L339.754 258.117Z" fill="#263238"/>
<path d="M419.359 362.008L459.358 309.432C468.688 298.731 477.056 289.495 481.832 285.13C481.857 285.12 481.885 285.12 481.911 285.13C483.707 283.554 484.984 282.529 485.583 282.514C485.583 282.514 485.662 282.514 485.693 282.514C490.768 283.128 578.536 355.152 580.742 358.698C582.949 362.244 573.036 368.832 567.393 368.753C561.751 368.674 515.811 356.145 515.811 356.145L473.258 408.736L419.359 362.008Z" fill="#D3766A"/>
<path d="M485.583 282.451H485.693C490.768 283.081 578.536 355.105 580.742 358.651C582.949 362.197 573.036 368.785 567.409 368.706C561.783 368.627 515.811 356.098 515.811 356.098L508.151 366.641C493.683 354.931 467.301 333.545 451.289 320.102C455.749 313.798 459.358 309.511 459.374 309.495C468.688 298.778 477.041 289.558 481.816 285.209L481.911 285.13C483.707 283.412 484.984 282.466 485.583 282.451Z" fill="#EBEBEB"/>
<path d="M580.742 358.619C578.536 355.073 490.768 283.05 485.693 282.435C483.77 282.167 472.533 294.334 459.374 309.432L458.964 309.921L515.133 357.012L515.905 356.035C515.905 356.035 561.83 368.643 567.488 368.643C573.146 368.643 582.98 362.149 580.742 358.619Z" fill="#5375E2"/>
<path d="M576.96 361.204C561.877 349.431 502.115 300.496 488.089 287.714C487.978 287.604 488.089 287.525 488.167 287.62C503.376 298.967 562.744 348.375 577.165 360.967C577.464 361.22 577.275 361.456 576.96 361.204Z" fill="#263238"/>
<path d="M520.728 359.77C514.014 356.082 507.615 349.336 506.544 341.535C506.544 341.236 506.938 341.189 507.08 341.393C511.169 347.753 515.924 353.66 521.264 359.013C521.339 359.093 521.384 359.196 521.391 359.305C521.399 359.413 521.369 359.522 521.305 359.611C521.242 359.7 521.15 359.764 521.045 359.793C520.94 359.822 520.828 359.814 520.728 359.77Z" fill="#263238"/>
<path d="M527 360.684C520.286 356.996 513.904 350.25 512.816 342.449C512.816 342.15 513.194 342.102 513.336 342.323C517.426 348.678 522.18 354.579 527.52 359.927C527.578 360.009 527.61 360.106 527.611 360.207C527.612 360.307 527.582 360.405 527.525 360.487C527.468 360.57 527.387 360.633 527.293 360.668C527.2 360.703 527.097 360.709 527 360.684Z" fill="#263238"/>
<path d="M533.273 361.598C526.575 357.91 520.176 351.165 519.089 343.379C519.089 343.064 519.483 343.017 519.625 343.237C523.71 349.595 528.465 355.497 533.809 360.841C533.869 360.924 533.902 361.024 533.903 361.126C533.904 361.229 533.873 361.329 533.813 361.413C533.754 361.496 533.67 361.559 533.573 361.593C533.476 361.626 533.371 361.628 533.273 361.598Z" fill="#263238"/>
<path d="M274.003 262.498V262.577C274.397 263.933 280.544 285.319 286.611 303.648C291.056 317.028 295.5 328.754 297.644 329.857C300.086 331.086 311.922 335.405 315.894 336.744C315.894 336.744 341.362 424.859 362.575 453.527C369.841 463.361 402.937 473.195 419.122 462.573C457.104 437.672 513.352 372.914 513.352 372.914L447.822 319.329L401.424 380.794C389.935 359.47 383.694 316.429 383.694 316.429C383.694 316.429 381.093 273.877 365.491 256.21L274.003 262.498Z" fill="#37474F"/>
<path d="M497.56 380.731C487.694 373.229 490.421 375.514 480.634 367.902C475.906 364.167 444.386 339.66 440.54 335.389C440.526 335.367 440.519 335.342 440.52 335.316C440.521 335.29 440.53 335.265 440.545 335.245C440.561 335.224 440.582 335.209 440.607 335.201C440.631 335.193 440.657 335.192 440.682 335.2C445.71 337.989 476.725 363.048 481.453 366.862C491.083 374.663 488.23 372.535 497.781 380.447C497.8 380.461 497.815 380.479 497.827 380.5C497.838 380.52 497.846 380.543 497.849 380.566C497.852 380.59 497.85 380.614 497.844 380.636C497.838 380.659 497.827 380.68 497.812 380.699C497.798 380.718 497.78 380.733 497.759 380.745C497.739 380.757 497.716 380.764 497.693 380.767C497.67 380.77 497.646 380.768 497.623 380.762C497.6 380.756 497.579 380.745 497.56 380.731Z" fill="#263238"/>
<path d="M363.584 305.996C361.472 305.602 359.25 305.586 357.122 305.397C355.389 305.24 353.671 305.051 351.953 304.798C348.679 304.445 345.524 303.369 342.717 301.646C339.644 299.582 337.989 296.225 336.287 292.994C335.31 291.087 334.317 289.18 333.309 287.289L331.811 284.547C331.141 283.484 330.531 282.384 329.983 281.253C329.983 281.095 329.652 281.253 329.731 281.347C330.079 282.127 330.379 282.927 330.629 283.743C330.976 284.673 331.307 285.618 331.67 286.548C332.3 288.124 332.93 289.858 333.608 291.513C334.664 294.553 336.076 297.457 337.816 300.165C341.267 304.893 346.988 306.548 352.615 306.879C354.191 306.957 355.846 306.973 357.453 306.958C359.493 307.013 361.535 306.887 363.552 306.579C363.63 306.583 363.705 306.557 363.763 306.505C363.821 306.453 363.855 306.381 363.86 306.303C363.864 306.226 363.837 306.15 363.785 306.093C363.734 306.035 363.661 306 363.584 305.996Z" fill="#263238"/>
<path d="M291.339 327.225C299.747 329.661 307.926 332.825 315.783 336.681C315.816 336.693 315.847 336.712 315.873 336.736C315.899 336.761 315.919 336.79 315.934 336.822C315.949 336.854 315.957 336.889 315.958 336.924C315.959 336.959 315.953 336.995 315.941 337.028C315.929 337.061 315.91 337.091 315.886 337.117C315.861 337.143 315.832 337.164 315.8 337.178C315.768 337.193 315.733 337.201 315.698 337.202C315.663 337.204 315.627 337.198 315.594 337.185C307.383 334.301 299.03 331.575 290.977 328.234C290.843 328.186 290.734 328.086 290.673 327.958C290.613 327.829 290.606 327.682 290.654 327.548C290.702 327.414 290.801 327.305 290.93 327.244C291.058 327.184 291.206 327.177 291.339 327.225Z" fill="#263238"/>
<path d="M285.288 272.695C285.288 272.411 285.776 272.317 285.792 272.616C286.375 282.072 287.541 290.394 288.944 299.188C289.606 303.285 294.444 325.775 301.457 323.632C302.639 323.269 303.159 322.056 303.238 320.243C303.044 317.894 302.568 315.576 301.82 313.34C300.701 308.612 299.74 303.884 299.015 299.156C297.561 290.267 297.033 281.252 297.439 272.254C297.452 272.203 297.482 272.159 297.523 272.127C297.564 272.095 297.615 272.078 297.667 272.078C297.719 272.078 297.77 272.095 297.811 272.127C297.853 272.159 297.882 272.203 297.896 272.254C298.531 284.675 300.111 297.03 302.624 309.211C303.916 315.058 307.494 323.758 301.379 325.082C295.264 326.405 290.063 311.812 289.023 307.746C286.27 296.272 285.014 284.491 285.288 272.695Z" fill="#263238"/>
<path d="M301.3 324.294C302.037 325.785 302.679 327.323 303.223 328.896C303.762 330.1 304.077 331.392 304.152 332.71C304.143 332.762 304.119 332.81 304.084 332.849C304.049 332.889 304.003 332.918 303.952 332.932C303.901 332.947 303.847 332.947 303.796 332.933C303.746 332.919 303.7 332.89 303.664 332.851C302.841 331.74 302.198 330.506 301.757 329.195C301.111 327.777 300.433 326.374 299.834 324.94C299.769 324.749 299.777 324.541 299.858 324.357C299.939 324.172 300.086 324.025 300.27 323.943C300.454 323.862 300.663 323.853 300.853 323.918C301.044 323.983 301.203 324.117 301.3 324.294Z" fill="#263238"/>
<path d="M440.903 342.386C430.837 356.865 420.157 370.933 408.863 384.592C405.805 388.248 402.695 391.862 399.533 395.435C389.273 381.251 384.277 364.293 380.289 347.398C379.265 343.064 378.304 338.714 377.311 334.364C376.081 329.742 375.087 325.061 374.332 320.338C373.718 315.436 373.985 310.441 373.544 305.508C373.092 300.737 372.339 295.999 371.29 291.324C368.897 280.728 365.279 270.446 360.511 260.686C360.511 260.56 360.227 260.686 360.274 260.78C364.142 269.772 367.303 279.051 369.73 288.534C370.901 293.356 371.775 298.246 372.346 303.175C372.914 308.14 372.851 313.104 373.182 318.084C373.692 322.807 374.578 327.481 375.829 332.063C376.822 336.397 377.784 340.747 378.777 345.081C380.645 353.645 382.981 362.1 385.774 370.408C388.851 379.684 393.343 388.429 399.091 396.333C399.135 396.392 399.192 396.439 399.258 396.472C399.324 396.505 399.396 396.522 399.469 396.522C399.543 396.522 399.615 396.505 399.681 396.472C399.747 396.439 399.804 396.392 399.848 396.333C411.416 383.047 422.463 369.289 432.692 354.884C435.613 350.786 438.476 346.647 441.281 342.465C441.423 342.37 441.06 342.166 440.903 342.386Z" fill="#263238"/>
<path d="M401.912 380.447C401.522 381.063 401.164 381.7 400.841 382.354L400.51 382.606C400.292 382.764 400.092 382.943 399.911 383.142C399.56 383.55 399.254 383.993 398.997 384.466C398.527 385.449 398.29 386.528 398.303 387.618C398.452 386.591 398.805 385.605 399.343 384.718C399.583 384.283 399.863 383.872 400.179 383.489C400.271 383.391 400.356 383.285 400.431 383.173C400.431 383.299 400.305 383.41 400.257 383.552C399.855 384.724 399.57 385.933 399.406 387.161C399.249 388.322 399.249 389.499 399.406 390.659C399.525 391.808 399.752 392.942 400.084 394.048H400.163C400.163 392.882 400.021 391.731 400.163 390.549C400.305 389.367 400.525 388.28 400.683 387.145C400.836 386.036 401.052 384.936 401.329 383.851C401.597 382.748 401.818 381.597 402.149 380.494C402.18 380.4 401.991 380.337 401.912 380.447Z" fill="#263238"/>
<path d="M329.747 155.566C317.375 164.486 259.567 187.985 238.496 177.362C217.031 166.519 195.77 108.286 191.547 103.29C179.963 89.4524 229.781 69.8469 234.335 79.4448C241.947 95.4728 258.117 138.277 265.54 139.207C281.158 141.161 295.484 139.128 319.913 138.829C337.044 138.592 343.348 145.716 329.747 155.566Z" fill="#D3766A"/>
<path d="M239.567 90.0199C239.567 90.0199 259.835 135.724 264.405 136.985C272.018 139.16 313.262 137.726 328.076 137.978C342.891 138.23 357.154 151.342 322.072 164.439C286.99 177.536 257.455 184.36 238.37 180.073C226.518 177.394 193.974 126.016 193.974 126.016L239.567 90.0199Z" fill="#5375E2"/>
<path opacity="0.1" d="M239.567 90.0199C239.567 90.0199 259.835 135.724 264.405 136.985C272.018 139.16 313.262 137.726 328.076 137.978C342.891 138.23 357.154 151.342 322.072 164.439C286.99 177.536 257.455 184.36 238.37 180.073C226.518 177.394 193.974 126.016 193.974 126.016L239.567 90.0199Z" fill="black"/>
<path d="M202.799 134.384C219.048 119.066 238.37 105.575 241.569 102.975C241.727 102.848 241.9 103.116 241.742 103.242C238.464 105.622 218.008 123.573 202.973 134.763C202.799 134.81 202.642 134.526 202.799 134.384Z" fill="#263238"/>
<path opacity="0.1" d="M343.868 148.427C343.237 153.06 337.327 158.75 322.072 164.439C287.005 177.551 257.455 184.36 238.385 180.073C236.021 179.537 232.822 177.063 229.229 173.422C256.257 167.591 321.425 153.565 343.868 148.427Z" fill="black"/>
<path d="M194.746 108.491C199.631 112.131 234.146 91.8164 234.934 85.6227C235.01 83.5043 234.808 81.385 234.335 79.3187C234.335 79.3187 236.762 65.6074 242.846 54.9063C247.936 45.923 256.525 33.1573 251.797 30.2417C244.91 25.955 232.113 40.801 225.273 49.7527C222.846 44.1264 220.246 39.5244 217.724 37.381C209.387 30.3678 173.139 63.5586 175.219 74.4646C177.252 84.9923 189.86 104.866 194.746 108.491Z" fill="#D3766A"/>
<path d="M228.394 50.919C226.439 56.2459 221.27 50.919 221.27 50.919C221.27 50.919 226.849 60.375 222.704 65.1031C218.559 69.8311 212.697 62.9597 212.255 62.4869C212.539 62.9912 217.44 71.8484 212.791 76.1667C208.142 80.4849 203.067 72.8886 202.752 72.3843C202.878 72.9516 204.407 80.4219 200.12 82.8962C192.76 87.1357 188.347 68.129 182.374 64.7406C182.374 64.7406 175.471 74.1967 175.203 74.4646C175.203 74.4646 170.633 56.4665 175.66 48.6495C176.371 47.4985 177.455 46.6253 178.73 46.1752C180.006 45.7251 181.398 45.7251 182.674 46.1752C182.674 46.1752 180.562 40.5331 184.108 37.0343C185.936 35.2377 190.412 36.5615 190.412 36.5615C190.412 36.5615 188.836 31.9753 192.256 29.044C194.935 26.6957 199.033 28.3978 199.033 28.3978C199.033 28.3978 199.631 23.323 203.146 21.8258C210.238 18.7684 232.57 39.4456 228.394 50.919Z" fill="#D3766A"/>
<path d="M199.757 28.5711C199.757 28.5711 199.757 28.382 199.836 28.4293C209.221 33.6187 216.806 41.5391 221.585 51.1396C221.727 51.4548 221.286 51.8173 221.065 51.5178C215.112 42.8773 207.934 35.1476 199.757 28.5711Z" fill="#263238"/>
<path d="M190.38 36.4039C190.286 36.4039 190.38 36.1833 190.506 36.2463C199.773 41.4787 208.93 51.0608 212.697 62.5026C212.823 62.8966 212.539 63.3694 212.366 62.9282C209.277 55.5209 198.134 42.4716 190.38 36.4039Z" fill="#263238"/>
<path d="M202.736 73.2668C198.702 62.4396 191.61 53.9922 183.068 46.3643C182.957 46.2697 183.068 46.1279 183.225 46.1752C188.41 48.7756 193.359 54.1971 196.842 58.7832C200.154 62.9524 202.327 67.9108 203.146 73.1722C203.083 73.3456 202.831 73.5032 202.736 73.2668Z" fill="#263238"/>
<path d="M221.459 50.919C221.633 51.2972 220.908 51.1397 221.065 51.5179C221.743 53.0939 224.974 62.9597 221.963 65.1031C219.536 66.8209 215.549 64.7564 214.336 63.3537L211.262 59.9338L212.933 64.2993C213.686 66.2279 214.117 68.2671 214.209 70.3355C214.31 71.2904 214.208 72.256 213.909 73.1686C213.61 74.0813 213.122 74.9204 212.476 75.6308C211.867 76.283 211.053 76.7062 210.169 76.8295C209.285 76.9529 208.386 76.769 207.622 76.3085C205.927 75.2502 204.532 73.7741 203.571 72.0218L200.735 67.2938L201.854 72.668C202.164 74.1651 202.286 75.6952 202.216 77.2226C202.198 78.6738 201.754 80.0877 200.939 81.2887C200.55 81.8126 200.022 82.2172 199.415 82.4567C198.808 82.6962 198.146 82.7611 197.504 82.6441C196.107 82.1643 194.872 81.3015 193.942 80.154C191.909 77.6725 190.07 75.038 188.442 72.274C187.559 70.9186 186.692 69.5475 185.747 68.2236C184.879 66.8437 183.729 65.6623 182.374 64.7564C183.603 65.7916 184.619 67.0546 185.369 68.4758C186.204 69.8469 186.945 71.2653 187.733 72.6995C189.205 75.6164 190.952 78.3869 192.949 80.9735C194.003 82.41 195.455 83.5059 197.126 84.1255C198.065 84.3552 199.052 84.306 199.964 83.9842C200.877 83.6623 201.676 83.0816 202.263 82.3131C203.334 80.8449 203.933 79.0862 203.981 77.2699C204.092 75.5659 203.98 73.8547 203.65 72.1794L201.948 72.8256C203.046 74.9149 204.677 76.6765 206.676 77.9318C207.802 78.6086 209.13 78.8655 210.427 78.6568C211.688 78.4161 212.847 77.801 213.752 76.8917C214.577 75.9972 215.2 74.9367 215.581 73.7814C215.961 72.6262 216.09 71.4028 215.959 70.1936C215.811 67.9141 215.278 65.6761 214.383 63.5744L212.98 64.4254C214.556 66.1433 218.796 68.9328 222.878 66.7579C227.874 63.0858 222.562 52.7472 221.459 50.919Z" fill="#263238"/>
<path d="M221.27 50.8875C222.235 51.5686 223.298 52.1 224.422 52.4635C224.866 52.6174 225.343 52.6488 225.804 52.5545C226.264 52.4603 226.69 52.2437 227.038 51.9277C227.707 51.1365 228.129 50.1667 228.252 49.1381C228.441 48.0034 228.598 46.8056 228.693 45.5764C229.218 46.7292 229.486 47.9819 229.481 49.2485C229.522 49.9437 229.425 50.6402 229.195 51.2976C228.965 51.955 228.607 52.5602 228.141 53.0782C227.571 53.5985 226.857 53.9337 226.093 54.0395C225.365 54.0935 224.636 53.952 223.981 53.6298C222.808 53.0283 221.858 52.0674 221.27 50.8875Z" fill="#263238"/>
<path d="M373.828 280.575C373.497 280.827 271.828 269.543 270.993 268.235C269.827 266.312 300.118 160.924 323.38 139.286C329.195 133.88 345.286 136.291 351.748 143.273C383.835 177.93 374.978 279.677 373.828 280.575Z" fill="#EBEBEB"/>
<path d="M322.497 139.317L283.459 281.631L263.491 267.305C263.491 267.305 296.067 175.109 305.524 160.436C314.98 145.763 322.497 139.317 322.497 139.317Z" fill="#5375E2"/>
<path opacity="0.1" d="M322.497 139.317L283.459 281.631L263.491 267.305C263.491 267.305 296.067 175.109 305.524 160.436C314.98 145.763 322.497 139.317 322.497 139.317Z" fill="black"/>
<path d="M345.491 138.309C345.491 138.309 343.915 193.059 343.915 205.92C343.915 218.78 340.936 289.007 340.936 289.007L387.192 280.575C387.192 280.575 378.745 212.476 375.814 196.747C372.882 181.019 360.495 142.942 345.491 138.309Z" fill="#5375E2"/>
<path opacity="0.1" d="M345.491 138.309C345.491 138.309 343.915 193.059 343.915 205.92C343.915 218.78 340.936 289.007 340.936 289.007L387.192 280.575C387.192 280.575 378.745 212.476 375.814 196.747C372.882 181.019 360.495 142.942 345.491 138.309Z" fill="black"/>
<path d="M356.46 169.088C383.347 196.621 418.981 226.077 438.791 221.869C456.71 218.055 482.462 197.047 510.562 174.399C516.142 169.908 478.9 128.333 473.432 133.723C462.668 144.329 440.572 171.405 432.329 174.399C428.799 175.676 389.273 155.929 363.363 146.031C331.906 134.006 345.743 158.119 356.46 169.088Z" fill="#D3766A"/>
<path d="M535.243 155.251C527.867 164.124 502.273 180.766 495.843 181.665C489.412 182.563 467.254 145.558 469.712 139.302C472.171 133.045 499.294 105.071 510.83 102.691C522.367 100.311 542.886 146.047 535.243 155.251Z" fill="#D3766A"/>
<path d="M493.762 109.909C492.864 115.945 500.508 113.565 500.508 113.565C500.508 113.565 490.326 119.649 491.808 126.173C493.242 132.478 502.367 129.325 503.029 129.089C502.493 129.42 493.289 135.267 495.464 141.697C497.718 148.427 506.323 143.636 506.89 143.273C506.481 143.746 501.185 150.018 503.943 154.557C508.671 162.437 522.682 146.677 530.089 146.583C530.089 146.583 534.581 155.424 534.707 155.771C534.707 155.771 545.44 144.833 544.73 134.857C544.667 133.399 544.1 132.009 543.125 130.922C542.151 129.836 540.83 129.121 539.388 128.9C539.388 128.9 544.305 124.661 542.76 119.444C541.957 116.796 537.024 115.725 537.024 115.725C537.024 115.725 540.806 112.163 539.151 107.671C537.843 104.078 533.099 103.558 533.099 103.558C533.099 103.558 535.148 98.4515 532.611 95.2206C527.52 88.9323 495.716 96.9542 493.762 109.909Z" fill="#D3766A"/>
<path d="M532.359 103.605C532.376 103.598 532.39 103.586 532.4 103.57C532.41 103.555 532.415 103.537 532.415 103.518C532.415 103.5 532.41 103.482 532.4 103.467C532.39 103.451 532.376 103.439 532.359 103.432C520.817 103.481 509.565 107.043 500.098 113.644C499.798 113.865 500.019 114.432 500.397 114.259C510.477 109.175 521.244 105.586 532.359 103.605Z" fill="#263238"/>
<path d="M537.197 115.851C537.323 115.851 537.292 115.63 537.197 115.63C525.755 115.787 512.154 120.106 502.682 128.963C502.367 129.262 502.383 129.861 502.777 129.546C509.443 124.125 526.701 117.568 537.197 115.851Z" fill="#263238"/>
<path d="M506.433 144.282C515.889 136.134 526.921 131.831 538.915 129.042C539.072 129.042 539.009 128.79 538.915 128.774C532.611 128.538 525.204 131.122 519.561 133.612C514.278 135.828 509.669 139.394 506.197 143.951C506.008 144.124 506.228 144.455 506.433 144.282Z" fill="#263238"/>
<path d="M500.507 113.518C498.657 114.855 496.941 116.37 495.385 118.041C493.798 119.589 492.65 121.53 492.06 123.668C491.848 124.663 492.011 125.701 492.517 126.583C493.034 127.471 493.773 128.209 494.661 128.727C495.588 129.165 496.597 129.405 497.623 129.432C498.648 129.459 499.668 129.273 500.618 128.884L505.346 127.151L501.532 130.413C499.821 131.84 498.357 133.538 497.198 135.44C496.612 136.294 496.212 137.261 496.025 138.28C495.838 139.298 495.867 140.344 496.11 141.35C496.35 142.278 496.9 143.096 497.668 143.67C498.436 144.243 499.376 144.537 500.334 144.502C502.479 144.372 504.556 143.7 506.37 142.548L511.492 139.538L507.663 144.03C506.592 145.286 505.687 146.673 504.968 148.159C504.238 149.537 503.926 151.098 504.069 152.65C504.167 153.345 504.456 153.999 504.904 154.539C505.352 155.079 505.942 155.484 506.607 155.708C508.173 155.987 509.786 155.812 511.256 155.204C514.453 153.934 517.546 152.416 520.507 150.665C522.083 149.829 523.565 148.994 525.141 148.222C526.67 147.348 528.368 146.811 530.121 146.646C528.434 146.988 526.829 147.651 525.393 148.6C523.817 149.483 522.446 150.428 520.98 151.374C518.081 153.369 514.999 155.084 511.776 156.496C510.044 157.297 508.115 157.571 506.228 157.284C505.22 157.017 504.312 156.462 503.615 155.686C502.918 154.911 502.463 153.949 502.304 152.918C502.066 150.994 502.401 149.043 503.266 147.308C504.045 145.647 505.03 144.09 506.197 142.674L507.489 144.171C505.362 145.571 502.907 146.391 500.366 146.551C498.956 146.594 497.576 146.149 496.457 145.29C495.384 144.415 494.603 143.233 494.219 141.902C493.91 140.63 493.873 139.308 494.109 138.021C494.345 136.734 494.85 135.511 495.59 134.432C496.902 132.358 498.541 130.512 500.444 128.963L501.343 130.539C500.148 130.984 498.87 131.163 497.598 131.062C496.327 130.961 495.093 130.584 493.983 129.956C492.917 129.264 492.048 128.309 491.461 127.182C490.874 126.023 490.729 124.69 491.051 123.431C491.802 121.162 493.172 119.147 495.007 117.616C496.681 116.047 498.526 114.673 500.507 113.518Z" fill="#263238"/>
<path d="M473.432 133.723C473.432 133.723 487.348 86.7733 503.029 101.21C507.757 105.496 521.705 128.664 517.119 131.579C511.177 135.33 503.518 126.741 499.562 120.547C499.562 120.547 497.072 137.174 484.984 138.908C482.768 139.189 480.517 138.854 478.479 137.939C476.441 137.024 474.695 135.565 473.432 133.723Z" fill="#D3766A"/>
<path d="M501.658 100.091C503.682 101.555 505.482 103.307 507.001 105.291C508.573 107.24 510.01 109.294 511.303 111.438C513.968 115.685 516.257 120.157 518.143 124.802C518.638 126.039 518.956 127.339 519.089 128.664C519.156 129.427 519.059 130.195 518.805 130.917C518.661 131.316 518.454 131.689 518.19 132.021C517.924 132.339 517.61 132.616 517.26 132.84C515.977 133.62 514.457 133.917 512.974 133.675C511.621 133.425 510.32 132.945 509.128 132.257C506.908 130.912 504.935 129.196 503.297 127.182C501.659 125.258 500.168 123.214 498.837 121.067L500.413 120.705C500.06 122.594 499.533 124.446 498.837 126.237C498.162 128.014 497.301 129.715 496.268 131.311C495.228 132.907 493.959 134.341 492.501 135.567C491.058 136.785 489.394 137.716 487.6 138.309C489.26 137.511 490.777 136.446 492.092 135.157C493.364 133.848 494.456 132.374 495.338 130.775C496.223 129.184 496.951 127.511 497.513 125.78C498.071 124.065 498.471 122.303 498.711 120.516L498.979 118.309L500.287 120.153C501.655 122.164 503.15 124.085 504.763 125.906C506.306 127.709 508.125 129.257 510.153 130.492C512.091 131.579 514.518 132.162 516.126 131.122C517.623 130.334 517.04 127.671 516.283 125.48C515.458 123.183 514.511 120.931 513.447 118.735C512.422 116.497 511.35 114.275 510.184 112.116C507.757 107.829 505.314 103.447 501.658 100.091Z" fill="#263238"/>
<path d="M467.963 139.034C467.963 139.034 435.371 172.272 430.611 171.972C422.731 171.468 374.836 148.758 360.794 144.03C346.752 139.302 331.701 142.091 353.891 168.316C378.934 197.898 406.971 224.249 435.954 224.28C451.572 224.28 500.208 190.333 500.208 190.333L467.963 139.034Z" fill="#5375E2"/>
<path opacity="0.1" d="M467.963 139.034C467.963 139.034 435.371 172.272 430.611 171.972C422.731 171.468 374.836 148.758 360.794 144.03C346.752 139.302 331.701 142.091 353.891 168.316C378.934 197.898 406.971 224.249 435.954 224.28C451.572 224.28 500.208 190.333 500.208 190.333L467.963 139.034Z" fill="black"/>
<path d="M487.758 193.154C477.577 173.265 463.897 154.1 461.738 150.602C461.643 150.428 461.391 150.602 461.501 150.791C463.786 154.132 477.056 177.898 487.49 193.343C487.616 193.548 487.868 193.343 487.758 193.154Z" fill="#263238"/>
<path d="M374.679 190.837C373.939 190.058 373.244 189.237 372.599 188.379C371.826 187.543 371.022 186.708 370.282 185.873C368.706 184.297 367.272 182.721 365.774 181.034C362.796 177.803 359.628 174.73 356.539 171.578C359.36 174.982 362.134 178.402 365.191 181.602L365.396 181.822L363.6 180.609C362.354 179.774 361.109 178.938 359.88 178.087C359.88 178.087 359.722 178.166 359.786 178.213C360.936 179.159 362.118 180.057 363.363 180.892C363.993 181.318 364.624 181.728 365.286 182.122L366.2 182.658L369.651 186.235C370.439 187.039 371.227 187.811 372.047 188.631C372.866 189.45 373.844 190.049 374.569 190.916C374.6 191.137 374.868 190.947 374.679 190.837Z" fill="#263238"/>
<path d="M325.886 158.608C330.708 159.774 342.591 152.65 348.044 145.763C348.407 145.29 348.533 139.664 349.021 132.84C349.321 128.695 349.762 124.093 350.471 119.917L323.238 121.855C323.845 127.322 323.782 132.842 323.049 138.293C322.948 138.869 322.789 139.434 322.576 139.979C322.576 140.058 322.576 140.153 322.576 140.263C321.41 143.462 318.336 156.78 325.886 158.608Z" fill="#D3766A"/>
<path d="M322.592 139.979C322.546 140.068 322.514 140.164 322.497 140.263C323.367 140.535 324.258 140.735 325.161 140.862C340.101 143.037 346.799 125.511 348.501 120.058L323.285 121.839C323.902 127.315 323.85 132.846 323.128 138.309C322.994 138.879 322.815 139.438 322.592 139.979Z" fill="#263238"/>
<path d="M362.559 88.6014C362.953 98.4199 351.244 123.463 343.237 127.623C331.622 133.66 316.035 130.444 311.717 117.269C307.588 104.488 323.411 72.1321 332.048 68.7121C344.813 63.6531 361.976 74.1179 362.559 88.6014Z" fill="#D3766A"/>
<path d="M340.59 93.9441C339.956 93.4207 339.351 92.863 338.777 92.2735C338.037 91.7872 337.481 91.0654 337.201 90.2247C337.171 89.9443 337.233 89.6616 337.378 89.4197C337.523 89.1778 337.743 88.9901 338.005 88.8851C338.552 88.7603 339.122 88.7836 339.657 88.9526C340.191 89.1216 340.671 89.4301 341.047 89.8465C341.94 90.567 342.53 91.596 342.702 92.7305C342.719 92.9838 342.664 93.2368 342.545 93.4606C342.425 93.6845 342.245 93.8702 342.025 93.9967C341.804 94.1232 341.553 94.1853 341.3 94.176C341.046 94.1667 340.8 94.0863 340.59 93.9441Z" fill="#A6A6A6"/>
<path d="M323.758 86.726C324.578 86.9308 325.334 86.9781 326.201 87.1042C327.04 87.3501 327.936 87.3169 328.754 87.0096C328.99 86.8602 329.172 86.6381 329.271 86.3766C329.371 86.1152 329.383 85.8285 329.306 85.5597C329.061 85.0519 328.685 84.6188 328.217 84.3056C327.749 83.9924 327.205 83.8105 326.642 83.7788C325.52 83.5232 324.343 83.7035 323.348 84.2831C323.13 84.4278 322.958 84.6327 322.853 84.8732C322.749 85.1136 322.716 85.3791 322.759 85.6377C322.803 85.8962 322.92 86.1366 323.097 86.3298C323.275 86.5229 323.504 86.6605 323.758 86.726Z" fill="#A6A6A6"/>
<path d="M330.834 113.297C330.277 113.65 329.611 113.79 328.959 113.691C328.329 113.406 327.766 112.993 327.304 112.478H327.194C327.298 112.919 327.518 113.323 327.831 113.65C328.144 113.977 328.539 114.215 328.975 114.338C329.361 114.401 329.757 114.346 330.112 114.18C330.466 114.014 330.762 113.745 330.96 113.408C331.039 113.36 330.913 113.266 330.834 113.297Z" fill="#263238"/>
<path d="M331.244 107.419C330.518 107.912 329.698 108.247 328.835 108.405C327.972 108.562 327.085 108.538 326.232 108.333C325.49 108.164 324.774 107.894 324.105 107.529C323.972 107.469 323.845 107.395 323.726 107.309C323.602 107.251 323.485 107.176 323.38 107.088C323.296 107.034 323.232 106.954 323.198 106.86C323.163 106.766 323.161 106.663 323.191 106.568C323.21 106.507 323.237 106.449 323.269 106.395V106.253C323.805 104.913 324.845 102.975 324.845 102.975C324.262 102.975 321.347 102.975 321.693 102.376C324.396 96.5078 327.691 90.9313 331.528 85.7331C331.638 85.5598 331.922 85.7331 331.811 85.9065C329.353 91.3437 325.949 96.3239 323.38 101.745C324.442 101.704 325.504 101.821 326.532 102.092C326.689 102.218 324.546 105.811 324.357 106.442C325.391 107.013 326.53 107.37 327.705 107.491C328.88 107.613 330.067 107.498 331.197 107.151C331.307 107.214 331.402 107.324 331.244 107.419Z" fill="#263238"/>
<path d="M325.161 107.214C325.477 108.464 326.112 109.609 327.005 110.539C327.507 111.034 328.152 111.359 328.849 111.469C330.425 111.706 330.945 110.461 331.149 109.279C331.254 108.649 331.286 108.009 331.244 107.372C329.251 107.967 327.12 107.912 325.161 107.214Z" fill="#263238"/>
<path d="M327.005 110.524C327.507 111.018 328.152 111.343 328.849 111.453C330.425 111.69 330.945 110.445 331.149 109.263C330.417 108.98 329.611 108.95 328.86 109.179C328.108 109.407 327.455 109.881 327.005 110.524Z" fill="#FF9BBC"/>
<path d="M338.62 98.1205C338.715 97.6256 338.677 97.1143 338.509 96.639C338.4 96.3841 338.24 96.1538 338.039 95.9616C337.839 95.7695 337.602 95.6193 337.343 95.5201C337.079 95.4402 336.801 95.42 336.529 95.4609C336.256 95.5018 335.996 95.6027 335.767 95.7565C335.366 96.0392 335.037 96.4116 334.806 96.8439C334.674 97.11 334.558 97.3836 334.459 97.6634C334.246 98.2368 334.17 98.8522 334.238 99.4601C334.364 99.0341 334.533 98.6222 334.743 98.2308C334.936 97.8809 335.152 97.544 335.389 97.2221C335.877 96.576 336.524 96.1189 337.107 96.3711C337.415 96.5201 337.666 96.7651 337.822 97.0693C337.979 97.3735 338.032 97.7204 337.974 98.0574C337.934 98.9076 337.812 99.752 337.611 100.579C338.129 99.8464 338.474 99.0058 338.62 98.1205Z" fill="#263238"/>
<path d="M322.009 90.5083C322.307 90.1056 322.703 89.7856 323.159 89.5785C323.409 89.4736 323.676 89.4196 323.947 89.4196C324.218 89.4196 324.486 89.4736 324.735 89.5785C324.986 89.7103 325.204 89.8983 325.371 90.1279C325.537 90.3576 325.649 90.6226 325.696 90.9023C325.763 91.3901 325.714 91.8867 325.555 92.3523C325.468 92.6343 325.357 92.9084 325.224 93.1718C324.953 93.7215 324.559 94.2015 324.073 94.5744C324.3 94.1931 324.48 93.7856 324.609 93.3609C324.733 92.9799 324.828 92.5901 324.893 92.1947C325.019 91.3909 324.893 90.6186 324.325 90.3665C324.004 90.2441 323.651 90.2302 323.321 90.3269C322.991 90.4237 322.702 90.6257 322.497 90.9023C321.906 91.5205 321.378 92.1963 320.921 92.9196C321.086 92.0407 321.459 91.2139 322.009 90.5083Z" fill="#263238"/>
<g opacity="0.2">
<path d="M337.674 84.4722C336.679 84.2427 335.699 83.9479 334.743 83.5897C333.781 83.1799 332.915 82.5968 331.953 82.2185C330.091 81.5902 328.134 81.2916 326.169 81.336C325.996 81.336 325.98 81.4463 326.169 81.4463C328.236 81.477 330.273 81.9499 332.142 82.8332C333.622 83.6781 335.214 84.3095 336.87 84.7086C340.685 85.3219 344.207 87.1322 346.925 89.878C344.449 87.1948 341.227 85.3125 337.674 84.4722Z" fill="black"/>
<path d="M338.699 81.9979C337.756 81.7819 336.83 81.5029 335.925 81.1626C335.011 80.7686 334.191 80.217 333.277 79.8545C331.512 79.2572 329.656 78.9745 327.793 79.0192C327.635 79.0192 327.619 79.1138 327.793 79.1296C329.751 79.1547 331.68 79.6008 333.45 80.4377C334.846 81.2389 336.347 81.8385 337.911 82.2185C341.536 82.7769 344.891 84.471 347.493 87.0569C345.131 84.5313 342.069 82.7696 338.699 81.9979Z" fill="black"/>
</g>
<path d="M324.262 75.5204C331.197 85.1341 347.193 80.1224 347.193 80.1224C347.258 82.412 348.059 84.6196 349.479 86.417C350.899 88.2144 352.861 89.5056 355.073 90.0985C355.073 90.0985 351.291 106.3 355.404 107.734C361.708 109.956 371.164 89.4524 370.755 84.5667C370.345 79.6811 365.365 76.6867 365.365 76.6867C365.69 73.9528 364.963 71.1976 363.332 68.98C360.18 64.252 343.915 63.2748 343.915 63.2748C343.778 61.0049 343.114 58.7981 341.977 56.8289C341.706 56.3435 341.34 55.918 340.9 55.5785C340.461 55.239 339.956 54.9924 339.418 54.8539C338.88 54.7153 338.32 54.6876 337.771 54.7725C337.221 54.8573 336.695 55.053 336.224 55.3475C336.596 56.7748 336.634 58.2688 336.335 59.713C335.436 64.5356 331.717 63.1803 333.182 59.0669C333.691 57.5067 334.75 56.1847 336.161 55.3475C335.294 51.9906 332.615 50.0206 330.267 50.8244C326.012 52.29 318.494 67.5458 324.262 75.5204Z" fill="#A6A6A6"/>
<path d="M332.788 105.827C331.102 104.747 329.913 103.042 329.481 101.086C329.05 99.1304 329.412 97.0834 330.487 95.394C331.248 94.2039 332.327 93.251 333.603 92.6437C334.878 92.0365 336.298 91.7991 337.701 91.9588C339.105 92.1184 340.435 92.6685 341.542 93.5466C342.648 94.4247 343.486 95.5956 343.96 96.9261C344.434 98.2567 344.525 99.6935 344.223 101.073C343.921 102.453 343.238 103.721 342.252 104.731C341.265 105.742 340.015 106.456 338.643 106.792C337.271 107.128 335.832 107.072 334.491 106.631C333.89 106.441 333.317 106.171 332.788 105.827ZM331.339 95.9298C330.641 97.0195 330.283 98.2916 330.308 99.5851C330.334 100.879 330.743 102.136 331.483 103.197C332.223 104.258 333.261 105.076 334.466 105.547C335.671 106.018 336.988 106.121 338.252 105.843C339.516 105.565 340.668 104.919 341.565 103.986C342.461 103.053 343.06 101.875 343.287 100.601C343.513 99.3273 343.357 98.0149 342.838 96.83C342.318 95.645 341.459 94.6407 340.369 93.9441C339.913 93.6498 339.42 93.4167 338.903 93.2506C337.524 92.7961 336.032 92.8126 334.663 93.2975C333.294 93.7825 332.125 94.7083 331.339 95.9298Z" fill="#455A64"/>
<path d="M318.352 99.0503C315.547 97.7423 314.68 93.5974 316.445 89.8307C317.211 88.1108 318.495 86.6729 320.117 85.7173C320.792 85.2733 321.568 85.0094 322.373 84.9506C323.178 84.8917 323.985 85.04 324.717 85.3813C325.448 85.7226 326.08 86.2455 326.552 86.9002C327.025 87.5549 327.321 88.3196 327.414 89.1215C327.737 90.9751 327.467 92.8835 326.642 94.5745C324.971 98.152 321.552 100.138 318.762 99.3025L318.352 99.0503ZM320.606 86.5999C319.168 87.4486 318.032 88.7275 317.359 90.2562C315.783 93.5185 316.477 97.0646 318.778 98.1363C321.079 99.2079 324.199 97.4271 325.728 94.149C326.457 92.6476 326.699 90.9563 326.421 89.3106C326.336 88.6703 326.098 88.0598 325.728 87.5305C325.358 87.0012 324.866 86.5686 324.294 86.2689L323.947 86.1271C323.388 85.9691 322.802 85.9296 322.227 86.011C321.651 86.0924 321.099 86.293 320.606 86.5999Z" fill="#455A64"/>
<path d="M330.346 96.2923L331.26 95.8668C330.629 94.5114 328.77 92.2262 326.264 93.2348L326.642 94.1647C328.896 93.2506 330.283 96.182 330.346 96.2923Z" fill="#455A64"/>
<path d="M360.022 112.257H361.031C361.031 111.8 360.794 107.64 358.903 106.347C357.012 105.055 344.325 100.595 343.789 100.39L343.442 101.351C347.114 102.659 356.965 106.253 358.336 107.183C359.707 108.112 359.975 111.123 360.022 112.257Z" fill="#455A64"/>
<path d="M351.322 108.554C351.322 108.554 359.628 101.777 362.875 104.976C366.121 108.175 358.147 119.16 353.198 119.57C352.562 119.67 351.912 119.638 351.289 119.478C350.665 119.318 350.081 119.032 349.572 118.638C349.063 118.244 348.64 117.75 348.328 117.187C348.017 116.624 347.824 116.003 347.761 115.362L351.322 108.554Z" fill="#D3766A"/>
<path d="M360.51 108.065C360.589 108.065 360.51 108.191 360.51 108.191C356.98 108.569 354.49 111.028 352.457 113.739C352.73 113.474 353.058 113.271 353.417 113.145C353.777 113.019 354.159 112.972 354.538 113.008C354.917 113.044 355.284 113.162 355.613 113.353C355.942 113.545 356.226 113.805 356.444 114.117C356.454 114.136 356.458 114.157 356.456 114.179C356.454 114.2 356.446 114.22 356.433 114.237C356.419 114.254 356.401 114.266 356.381 114.273C356.361 114.279 356.339 114.28 356.318 114.275C355.813 113.937 355.216 113.766 354.609 113.782C354.002 113.799 353.415 114.004 352.93 114.369C352.129 114.984 351.394 115.681 350.739 116.449C350.503 116.702 350.03 116.449 350.235 116.103C351.354 111.942 356.082 107.214 360.51 108.065Z" fill="#263238"/>
<path d="M322.355 139.475L328.187 155.787L348.927 136.228L354.333 142.974C354.333 142.974 333.561 174.494 333.498 173.044L327.414 158.86L317.485 168.127L319.188 143.967L322.355 139.475Z" fill="#EBEBEB"/>
<path d="M317.643 156.212C318.069 152.241 318.368 148.222 318.967 144.266C318.967 144.124 319.219 144.061 319.251 144.266C319.897 148.143 318.226 163.351 318.1 167.008C318.51 166.598 327.288 158.876 327.367 159.002C328.707 161.255 333.182 171.61 333.482 172.461C336.76 167.449 349.242 149.262 353.166 144.55C353.176 144.535 353.188 144.523 353.202 144.513C353.216 144.503 353.232 144.496 353.249 144.492C353.266 144.489 353.283 144.488 353.3 144.492C353.317 144.495 353.333 144.501 353.348 144.51C353.362 144.52 353.375 144.532 353.384 144.546C353.394 144.56 353.401 144.576 353.405 144.593C353.408 144.61 353.409 144.627 353.406 144.644C353.403 144.661 353.396 144.677 353.387 144.691C350.456 150.003 333.829 174.51 333.592 174.431C331.23 169.576 329.126 164.599 327.288 159.522C325.712 161.224 316.902 169.986 316.902 169.403C316.918 164.996 317.165 160.593 317.643 156.212Z" fill="#263238"/>
</svg>
