<!-- 
https://www.figma.com/ 
I used this resource to layout my images and pages for this program
https://undraw.co/ 
I used this resource to find free vector stock images for my program so the images 
are displayed with high-quality 
 -->
<svg width="750" height="500" viewBox="0 0 750 500" fill="none" xmlns="http://www.w3.org/2000/svg">
<path d="M112.59 322.61H86.1101V333.8H112.59V322.61Z" fill="#EBEBEB"/>
<path d="M97.8201 336.72H71.3401V347.91H97.8201V336.72Z" fill="#EBEBEB"/>
<path d="M453.3 216.59H426.82V227.78H453.3V216.59Z" fill="#EBEBEB"/>
<path d="M438.53 230.7H412.05V241.89H438.53V230.7Z" fill="#EBEBEB"/>
<path d="M423.82 216.59H397.34V227.78H423.82V216.59Z" fill="#EBEBEB"/>
<path d="M678.66 336.72H652.18V347.91H678.66V336.72Z" fill="#EBEBEB"/>
<path d="M663.89 62.84H637.41V74.03H663.89V62.84Z" fill="#EBEBEB"/>
<path d="M678.66 76.95H652.18V88.14H678.66V76.95Z" fill="#EBEBEB"/>
<path d="M112.59 62.84H86.1101V74.03H112.59V62.84Z" fill="#EBEBEB"/>
<path d="M213.22 229.43L206.78 243.61L211.13 245.61C211.752 245.897 212.281 246.351 212.661 246.922C213.04 247.492 213.255 248.156 213.28 248.84C213.317 249.617 213.393 250.391 213.51 251.16C213.617 251.835 213.536 252.527 213.274 253.159C213.013 253.79 212.583 254.338 212.03 254.74L208.15 257.52L217.22 270.18L221.1 267.41C221.658 267.013 222.315 266.778 222.998 266.732C223.681 266.686 224.364 266.831 224.97 267.15C225.658 267.522 226.365 267.856 227.09 268.15C227.731 268.394 228.292 268.811 228.711 269.355C229.129 269.899 229.388 270.548 229.46 271.23L229.92 275.98L245.42 274.45L244.95 269.69C244.888 269.007 245.017 268.32 245.323 267.705C245.628 267.091 246.098 266.573 246.68 266.21C247 266.01 247.32 265.79 247.63 265.57C247.94 265.35 248.25 265.12 248.55 264.88C249.076 264.445 249.713 264.165 250.39 264.071C251.066 263.978 251.755 264.074 252.38 264.35L256.75 266.35L263.18 252.17L258.83 250.17C258.208 249.883 257.679 249.429 257.299 248.858C256.92 248.288 256.705 247.624 256.68 246.94C256.646 246.167 256.573 245.396 256.46 244.63C256.353 243.955 256.435 243.263 256.696 242.632C256.957 242 257.387 241.452 257.94 241.05L261.82 238.27L252.74 225.61L248.87 228.39C248.31 228.784 247.653 229.015 246.97 229.059C246.287 229.103 245.606 228.958 245 228.64C244.317 228.281 243.612 227.963 242.89 227.69C242.248 227.447 241.687 227.03 241.268 226.486C240.85 225.942 240.591 225.293 240.52 224.61L240.05 219.85L224.55 221.38L225.02 226.14C225.078 226.82 224.947 227.503 224.642 228.113C224.336 228.724 223.869 229.238 223.29 229.6C222.96 229.81 222.64 230.03 222.29 230.25L221.37 230.94C220.841 231.377 220.2 231.658 219.52 231.751C218.84 231.845 218.148 231.747 217.52 231.47L213.22 229.43ZM227.55 237.43C229.601 235.958 232.043 235.128 234.566 235.044C237.089 234.961 239.58 235.627 241.725 236.96C243.869 238.293 245.569 240.231 246.611 242.531C247.653 244.83 247.99 247.387 247.578 249.878C247.167 252.369 246.025 254.681 244.299 256.523C242.573 258.365 240.339 259.654 237.88 260.226C235.421 260.797 232.847 260.627 230.485 259.736C228.123 258.845 226.079 257.273 224.61 255.22C222.659 252.474 221.873 249.067 222.424 245.744C222.975 242.421 224.818 239.45 227.55 237.48V237.43Z" fill="#EBEBEB"/>
<path d="M645.85 109.71L639.33 113.48L640.48 115.48C640.645 115.768 640.727 116.096 640.717 116.429C640.706 116.761 640.603 117.083 640.42 117.36C640.208 117.68 640.018 118.014 639.85 118.36C639.705 118.658 639.479 118.91 639.198 119.087C638.917 119.263 638.592 119.358 638.26 119.36H636V126.89H638.3C638.632 126.892 638.957 126.986 639.238 127.163C639.519 127.34 639.745 127.592 639.89 127.89C640.06 128.235 640.25 128.569 640.46 128.89C640.643 129.167 640.746 129.489 640.757 129.821C640.767 130.154 640.685 130.482 640.52 130.77L639.37 132.77L645.89 136.53L647.04 134.53C647.211 134.245 647.457 134.013 647.752 133.859C648.047 133.706 648.378 133.637 648.71 133.66H649.81C650.14 133.635 650.471 133.703 650.765 133.857C651.058 134.011 651.302 134.244 651.47 134.53L652.63 136.53L659.15 132.77L658 130.77C657.835 130.483 657.754 130.157 657.764 129.826C657.775 129.496 657.877 129.175 658.06 128.9C658.265 128.577 658.452 128.243 658.62 127.9C658.767 127.601 658.995 127.349 659.278 127.172C659.56 126.995 659.887 126.901 660.22 126.9H662.52V119.37H660.22C659.887 119.367 659.562 119.271 659.279 119.095C658.997 118.919 658.769 118.668 658.62 118.37C658.456 118.024 658.269 117.69 658.06 117.37C657.877 117.093 657.774 116.771 657.763 116.439C657.753 116.106 657.835 115.778 658 115.49L659.15 113.49L652.63 109.72L651.47 111.72C651.301 112.003 651.058 112.233 650.767 112.387C650.476 112.54 650.148 112.611 649.82 112.59H648.71C648.377 112.613 648.045 112.544 647.75 112.388C647.454 112.233 647.209 111.998 647.04 111.71L645.85 109.71ZM649.22 116.91C650.44 116.91 651.633 117.272 652.648 117.95C653.663 118.628 654.453 119.591 654.92 120.719C655.387 121.846 655.509 123.087 655.271 124.284C655.033 125.481 654.446 126.58 653.583 127.443C652.72 128.306 651.621 128.893 650.424 129.131C649.227 129.37 647.986 129.247 646.859 128.78C645.731 128.313 644.768 127.523 644.09 126.508C643.412 125.493 643.05 124.3 643.05 123.08C643.049 122.269 643.207 121.466 643.517 120.717C643.827 119.968 644.281 119.287 644.854 118.714C645.427 118.141 646.108 117.687 646.857 117.377C647.606 117.067 648.409 116.909 649.22 116.91Z" fill="#EBEBEB"/>
<path d="M88.39 142.53L92.96 148.53L94.79 147.12C95.0549 146.92 95.3704 146.798 95.7008 146.768C96.0312 146.738 96.3635 146.801 96.66 146.95C97 147.11 97.35 147.25 97.66 147.38C97.9737 147.487 98.2513 147.679 98.4615 147.936C98.6718 148.192 98.8063 148.501 98.85 148.83L99.15 151.11L106.62 150.11L106.32 147.83C106.279 147.502 106.329 147.168 106.465 146.867C106.601 146.565 106.817 146.307 107.09 146.12C107.402 145.91 107.703 145.683 107.99 145.44C108.24 145.222 108.545 145.078 108.871 145.023C109.198 144.969 109.533 145.005 109.84 145.13L112 146L114.89 139L112.75 138.12C112.446 137.988 112.183 137.774 111.993 137.502C111.802 137.231 111.691 136.911 111.67 136.58C111.67 136.4 111.67 136.22 111.61 136.03C111.55 135.84 111.56 135.67 111.53 135.48C111.463 135.157 111.489 134.821 111.604 134.512C111.719 134.202 111.918 133.931 112.18 133.73L114 132.4L109.43 126.4L107.59 127.8C107.325 127.999 107.01 128.122 106.68 128.153C106.35 128.185 106.018 128.125 105.72 127.98C105.395 127.819 105.061 127.675 104.72 127.55C104.408 127.441 104.131 127.248 103.921 126.992C103.711 126.736 103.576 126.428 103.53 126.1L103.23 123.81L95.76 124.81L96.06 127.1C96.1016 127.427 96.0516 127.759 95.9157 128.059C95.7797 128.359 95.5631 128.616 95.29 128.8C94.9807 129.013 94.6836 129.244 94.4 129.49C94.148 129.707 93.8407 129.85 93.5124 129.903C93.1841 129.956 92.8475 129.917 92.54 129.79L90.41 128.91L87.52 135.86L89.65 136.75C89.9551 136.879 90.218 137.09 90.409 137.36C90.5999 137.631 90.7111 137.949 90.73 138.28L90.79 138.83C90.79 139.02 90.79 139.2 90.88 139.38C90.944 139.706 90.9162 140.043 90.7996 140.354C90.6831 140.664 90.4824 140.937 90.22 141.14L88.39 142.53ZM95.09 138.26C94.934 137.05 95.1403 135.82 95.6828 134.727C96.2254 133.634 97.0799 132.727 98.1382 132.12C99.1965 131.512 100.411 131.232 101.629 131.315C102.846 131.398 104.012 131.84 104.978 132.585C105.944 133.331 106.667 134.346 107.057 135.502C107.446 136.659 107.484 137.905 107.165 139.082C106.846 140.26 106.186 141.317 105.266 142.12C104.347 142.922 103.21 143.434 102 143.59C101.196 143.694 100.38 143.638 99.5978 143.427C98.8155 143.215 98.0826 142.851 97.4409 142.356C96.7993 141.861 96.2614 141.245 95.858 140.542C95.4546 139.839 95.1937 139.064 95.09 138.26Z" fill="#EBEBEB"/>
<path d="M301.92 76.14H220.87V174.45H301.92V76.14Z" fill="#EBEBEB"/>
<path d="M292.66 85.11H230.13V165.48H292.66V85.11Z" fill="white"/>
<path d="M232.57 85.11H230.13V165.48H232.57V85.11Z" fill="#DBDBDB"/>
<path d="M304.36 76.14H301.92V174.45H304.36V76.14Z" fill="#DBDBDB"/>
<path d="M265.83 96.19H251.09V140.12H265.83V96.19Z" fill="#DBDBDB"/>
<path d="M283.96 126.1H244.65V147.62H283.96V126.1Z" stroke="#EBEBEB" stroke-miterlimit="10"/>
<path d="M526.69 76.14H445.64V174.45H526.69V76.14Z" fill="#EBEBEB"/>
<path d="M517.43 85.11H454.9V165.48H517.43V85.11Z" fill="white"/>
<path d="M457.34 85.11H454.9V165.48H457.34V85.11Z" fill="#DBDBDB"/>
<path d="M529.13 76.14H526.69V174.45H529.13V76.14Z" fill="#DBDBDB"/>
<path d="M490.6 96.19H475.86V140.12H490.6V96.19Z" fill="#DBDBDB"/>
<path d="M508.73 126.1H469.42V147.62H508.73V126.1Z" stroke="#EBEBEB" stroke-miterlimit="10"/>
<path d="M414.3 76.14H333.25V174.45H414.3V76.14Z" fill="#EBEBEB"/>
<path d="M405.05 85.11H342.52V165.48H405.05V85.11Z" fill="white"/>
<path d="M344.96 85.11H342.52V165.48H344.96V85.11Z" fill="#DBDBDB"/>
<path d="M416.75 76.14H414.31V174.45H416.75V76.14Z" fill="#DBDBDB"/>
<path d="M380.36 105.88H367.73V137.82H380.36V105.88Z" fill="#EBEBEB"/>
<path d="M393.66 125.29H359.73V147.31H393.66V125.29Z" stroke="#DBDBDB" stroke-miterlimit="10"/>
<path d="M375 458.52C548.252 458.52 688.7 447.466 688.7 433.83C688.7 420.194 548.252 409.14 375 409.14C201.748 409.14 61.3 420.194 61.3 433.83C61.3 447.466 201.748 458.52 375 458.52Z" fill="#EBEBEB"/>
<path d="M222.69 302.94H191.04V371.32H222.69V302.94Z" fill="#5375E2"/>
<g opacity="0.1">
<path d="M222.7 302.94H215.45V371.32H222.7V302.94Z" fill="black"/>
</g>
<path d="M264.39 277.09H232.74V371.32H264.39V277.09Z" fill="#5375E2"/>
<g opacity="0.1">
<path d="M264.4 277.09H257.15V371.32H264.4V277.09Z" fill="black"/>
</g>
<path d="M181.08 318.34H149.43V371.32H181.08V318.34Z" fill="#5375E2"/>
<g opacity="0.1">
<path d="M181.08 318.34H173.83V371.32H181.08V318.34Z" fill="black"/>
</g>
<path d="M306.1 242.68H274.45V371.32H306.1V242.68Z" fill="#5375E2"/>
<g opacity="0.1">
<path d="M306.1 242.68H298.85V371.32H306.1V242.68Z" fill="black"/>
</g>
<path d="M138.21 350.78V337.59C138.21 337.59 253.5 330 300.09 231.68L304.72 232.6C304.72 232.6 273.79 333.41 138.21 350.78Z" fill="#37474F"/>
<path d="M309.04 235.91L294.48 232.19L306.55 222.93L309.04 235.91Z" fill="#37474F"/>
<path d="M52.77 371.11L133.33 370.87L213.89 370.78L375 370.61L536.11 370.78L616.67 370.87L697.23 371.11L616.67 371.36L536.11 371.44L375 371.61L213.89 371.44L133.33 371.36L52.77 371.11Z" fill="#263238"/>
<path d="M656.32 311.13C656.32 311.13 665.67 277.59 673.13 266.2C680.59 254.81 694.5 242.3 694.5 242.3C694.5 242.3 694.17 294 656.32 311.13Z" fill="#5375E2"/>
<path d="M657 310.55C660.147 305.3 662.992 299.874 665.52 294.3C666.592 288.309 668.144 282.413 670.16 276.67C670.16 276.56 670.35 276.62 670.33 276.73C669.09 282.02 667.64 287.28 666.33 292.56C670.11 284.4 673.69 276.13 678.18 268.41C679.22 264.684 680.672 261.085 682.51 257.68C682.51 257.58 682.73 257.68 682.68 257.74C681.543 260.361 680.568 263.049 679.76 265.79C681.882 262.35 684.255 259.071 686.86 255.98C687.03 255.79 687.35 255.98 687.19 256.21C681.19 263.88 677.04 272.6 673.09 281.43C677.337 276.823 681.257 271.924 684.82 266.77C684.82 266.77 684.93 266.77 684.9 266.83C681.187 272.606 676.985 278.053 672.34 283.11C669.47 289.58 666.64 296.11 663.21 302.23C670.06 296.44 675.33 288.94 680.55 281.71C680.576 281.682 680.611 281.665 680.649 281.661C680.687 281.657 680.726 281.667 680.757 281.689C680.788 281.71 680.811 281.743 680.821 281.78C680.83 281.816 680.827 281.856 680.81 281.89C675.59 289.82 670.19 297.29 662.68 303.17C661.161 305.872 659.492 308.486 657.68 311C657.62 311.09 657.527 311.153 657.421 311.175C657.315 311.196 657.205 311.175 657.115 311.115C657.025 311.055 656.962 310.962 656.94 310.856C656.919 310.75 656.94 310.64 657 310.55Z" fill="#263238"/>
<path d="M651.3 311.17C651.3 311.17 668.1 280.25 663.22 250.27C658.34 220.29 653.12 209.61 653.12 209.61C653.12 209.61 626.71 256.24 651.3 311.17Z" fill="#5375E2"/>
<path d="M644.41 262.56C645.83 271.068 647.998 279.434 650.89 287.56C650.94 276.56 651.15 265.56 651.44 254.56C649.551 247.861 648.487 240.957 648.27 234C648.27 233.8 648.57 233.81 648.58 234C649.109 239.947 650.096 245.844 651.53 251.64C651.783 242.56 652.077 233.483 652.41 224.41C652.41 224.378 652.423 224.348 652.445 224.325C652.468 224.303 652.498 224.29 652.53 224.29C652.562 224.29 652.592 224.303 652.615 224.325C652.637 224.348 652.65 224.378 652.65 224.41C652.65 238.58 652.65 252.76 652.55 266.94C654.597 261.46 656.218 255.83 657.4 250.1C657.4 250.04 657.5 250.1 657.49 250.1C656.99 256.73 654.98 263.1 652.49 269.27C652.42 278.34 652.32 287.4 652.12 296.46C654.96 286.83 658 277.46 658.82 267.31C658.827 267.288 658.841 267.268 658.86 267.254C658.879 267.24 658.901 267.233 658.925 267.233C658.948 267.233 658.971 267.24 658.99 267.254C659.009 267.268 659.023 267.288 659.03 267.31C658.81 278.53 655.92 289.93 652.21 300.49C652.173 300.596 652.107 300.69 652.02 300.76C651.94 304.07 651.85 307.38 651.73 310.69C651.716 310.776 651.671 310.855 651.604 310.912C651.537 310.968 651.453 310.999 651.365 310.999C651.277 310.999 651.193 310.968 651.126 310.912C651.059 310.855 651.014 310.776 651 310.69C650.873 303.91 650.817 297.133 650.83 290.36C647.172 281.49 644.937 272.097 644.21 262.53C644.214 262.503 644.228 262.48 644.25 262.464C644.271 262.448 644.298 262.441 644.325 262.445C644.351 262.449 644.375 262.463 644.391 262.485C644.407 262.506 644.414 262.533 644.41 262.56Z" fill="#263238"/>
<path d="M645.56 257.78C646.145 260.472 646.536 263.202 646.73 265.95C646.73 266.04 646.59 266.05 646.57 265.95C645.92 263.272 645.459 260.552 645.19 257.81C645.17 257.61 645.52 257.57 645.56 257.78Z" fill="#263238"/>
<path d="M655.38 235.17C655.38 235.08 655.54 235.11 655.54 235.17C655.515 237.076 655.232 238.97 654.7 240.8C654.691 240.83 654.669 240.856 654.641 240.871C654.613 240.886 654.58 240.889 654.55 240.88C654.519 240.871 654.494 240.85 654.479 240.822C654.464 240.793 654.461 240.76 654.47 240.73C654.83 238.9 655.06 237 655.38 235.17Z" fill="#263238"/>
<path d="M647 312.91C647 312.91 643.46 280.82 632.18 266.12C620.9 251.42 604.61 245.33 604.61 245.33C604.61 245.33 618.17 300.93 647 312.91Z" fill="#5375E2"/>
<path d="M626.65 287.75C631.075 292.855 635.926 297.576 641.15 301.86C638.483 295.56 635.517 289.407 632.25 283.4C626.51 279.56 620.79 275.56 616.82 269.8C616.809 269.781 616.806 269.759 616.81 269.738C616.814 269.717 616.826 269.698 616.843 269.685C616.86 269.671 616.881 269.665 616.902 269.665C616.924 269.666 616.944 269.675 616.96 269.69C621.07 274.69 626.19 278.49 631.52 282.07C626.581 273.023 621.087 264.289 615.07 255.92C615.047 255.876 615.041 255.825 615.052 255.777C615.062 255.729 615.09 255.686 615.13 255.656C615.169 255.626 615.218 255.611 615.267 255.613C615.317 255.616 615.364 255.636 615.4 255.67C618.956 260.001 622.271 264.525 625.33 269.22C624.02 265.92 622.88 262.51 621.55 259.22C621.548 259.203 621.552 259.186 621.561 259.172C621.57 259.157 621.583 259.146 621.598 259.139C621.614 259.132 621.631 259.131 621.647 259.135C621.664 259.138 621.679 259.147 621.69 259.16C624.066 263.278 625.929 267.67 627.24 272.24C631.401 278.911 635.077 285.872 638.24 293.07C637.37 288.31 636.44 283.57 635.32 278.85C635.32 278.76 635.45 278.72 635.48 278.85C637.198 284.015 638.378 289.343 639 294.75C640.947 299.35 642.693 304.017 644.24 308.75C644.24 308.88 644.09 308.96 644.04 308.83C643.273 306.83 642.477 304.877 641.65 302.97C641.65 302.97 641.58 302.97 641.54 302.97C635.96 298.69 630.54 293.68 626.64 287.79C626.58 287.75 626.62 287.72 626.65 287.75Z" fill="#263238"/>
<path d="M612.58 263.11C613.75 264.11 614.84 265.11 615.98 266.11C617.051 266.943 618.054 267.859 618.98 268.85C618.98 268.85 618.98 268.95 618.92 268.93C617.655 268.224 616.494 267.345 615.47 266.32C614.36 265.376 613.333 264.339 612.4 263.22C612.38 263.16 612.5 263 612.58 263.11Z" fill="#263238"/>
<path d="M672.69 309.6L671.52 324.89L668 371.11H637.33L633.81 324.89L632.64 309.6H672.69Z" fill="#455A64"/>
<path d="M672.69 309.6L671.52 324.89H633.81L632.64 309.6H672.69Z" fill="#37474F"/>
<path d="M629.91 313.82H675.41V302.1H629.91V313.82Z" fill="#455A64"/>
<path d="M238.73 416.69C236.73 417.35 178.02 416.84 175.79 415.4C174.95 414.86 174.52 406.32 174.31 395.97C174.26 393.74 169.83 357.75 169.83 357.75L209.05 357.98L212.13 396.2C212.13 396.2 234.5 406.44 236.77 408.27C239.04 410.1 240.79 416 238.73 416.69Z" fill="#EB9481"/>
<path d="M238.73 416.69C236.73 417.35 178.02 416.84 175.79 415.4C175.13 414.97 174.72 409.57 174.47 402.22C184.47 403.73 218.47 408.77 226.01 408.03C231.12 407.53 227.83 404.38 224.16 401.81C229.87 404.53 235.68 407.39 236.77 408.27C239 410.11 240.79 416 238.73 416.69Z" fill="#263238"/>
<path d="M114 212.42C114 212.42 158.58 290.42 159.73 295.9C161.51 304.28 171.84 395.62 171.84 395.62L215.72 395.35C215.72 395.35 207 313.8 199.58 289.73C195.52 276.59 174.16 240.97 164.15 223.38C163.26 221.81 163.52 214.62 163.52 214.62L114 212.42Z" fill="#455A64"/>
<path d="M211.49 388C204.68 387.87 184.09 387.3 175.02 388C174.95 388 174.95 388.12 175.02 388.13C178.13 388.61 204.68 388.29 211.49 388.13C211.503 388.146 211.521 388.157 211.541 388.162C211.561 388.167 211.581 388.166 211.601 388.159C211.62 388.152 211.636 388.139 211.648 388.122C211.66 388.105 211.666 388.085 211.666 388.065C211.666 388.045 211.66 388.025 211.648 388.008C211.636 387.991 211.62 387.978 211.601 387.971C211.581 387.964 211.561 387.963 211.541 387.968C211.521 387.973 211.503 387.984 211.49 388Z" fill="#263238"/>
<path d="M121.67 219.62C124.6 224.34 127.67 228.96 130.67 233.62C133.67 238.28 136.67 242.98 139.59 247.69C145.47 257.11 151.213 266.61 156.82 276.19C159.542 280.606 161.861 285.258 163.75 290.09C165.479 294.933 166.761 299.924 167.58 305C168.45 310.1 169 315.24 169.51 320.38C170.063 325.86 170.607 331.333 171.14 336.8C172.25 348 174.77 367.88 175.89 379.08C176.02 380.45 176.15 381.83 176.27 383.2C176.27 383.4 175.93 383.44 175.91 383.2C174.65 372.07 172.22 352.2 171.09 341.08C170.523 335.54 169.96 329.993 169.4 324.44C168.88 319.28 168.4 314.12 167.65 308.98C166.975 303.908 165.919 298.894 164.49 293.98C162.918 288.897 160.781 284.007 158.12 279.4C152.75 269.86 147.05 260.48 141.35 251.12C135.65 241.76 129.81 232.28 123.79 223C123.05 221.85 122.3 220.72 121.52 219.59C121.47 219.61 121.62 219.53 121.67 219.62Z" fill="#263238"/>
<path d="M131.63 419.87C129.47 419.71 73.97 396.43 72.44 394.26C72.3761 394.133 72.3484 393.991 72.36 393.85C72.36 391.93 76.36 385.27 79.68 376.5C79.89 375.94 98.94 343.76 98.94 343.76L135.22 358.69L114.65 390.89C114.65 390.89 131.55 408.78 132.96 411.33C134.37 413.88 133.78 420 131.63 419.87Z" fill="#EB9481"/>
<path d="M131.63 419.87C129.47 419.71 73.97 396.43 72.44 394.26C72.3761 394.133 72.3484 393.991 72.36 393.85C72.36 392.31 74.95 387.69 77.69 381.38C87.69 388.75 119.03 408.23 124.93 408.65C128.04 408.87 125.46 403.73 123.41 400.3C127.77 405.05 132.27 410.07 132.96 411.3C134.36 413.88 133.78 420 131.63 419.87Z" fill="#263238"/>
<path d="M117.92 391.7L77.3201 374.7C77.3201 374.7 131.19 292.39 131.63 286.86C132.02 281.96 110.32 239 109.63 226.55C108.85 213.11 115.44 202.8 122.63 196.44L163.56 214.6C163.56 214.6 159.98 221.91 152.94 225.78C152.94 225.78 173.94 275.38 172.51 290.54C171.08 305.7 117.92 391.7 117.92 391.7Z" fill="#455A64"/>
<path d="M119.83 384C113.96 381.39 115.68 382.06 109.83 379.51C106.95 378.27 87.9702 370.1 85.0702 369.42C85.0102 369.42 84.9702 369.5 85.0702 369.54C87.5902 371.12 106.71 378.95 109.62 380.14C115.62 382.57 113.89 381.81 119.86 384.14C119.868 384.129 119.873 384.116 119.875 384.103C119.878 384.09 119.877 384.077 119.875 384.064C119.872 384.051 119.867 384.038 119.859 384.027C119.851 384.016 119.841 384.007 119.83 384Z" fill="#263238"/>
<path d="M159.84 225C155.455 225.971 151.16 227.309 147 229C146.972 229.016 146.95 229.042 146.939 229.072C146.927 229.103 146.927 229.136 146.937 229.167C146.948 229.198 146.969 229.224 146.997 229.241C147.025 229.258 147.058 229.265 147.09 229.26C151.41 228.05 155.8 226.93 160.04 225.5C160.106 225.473 160.159 225.422 160.188 225.356C160.216 225.29 160.217 225.216 160.19 225.15C160.164 225.084 160.112 225.031 160.046 225.003C159.981 224.974 159.906 224.973 159.84 225Z" fill="#263238"/>
<path d="M154.86 223.19C154.442 223.91 154.074 224.659 153.76 225.43C153.442 226.011 153.244 226.651 153.18 227.31C153.18 227.44 153.35 227.47 153.43 227.4C153.875 226.866 154.238 226.27 154.51 225.63C154.87 224.94 155.26 224.25 155.6 223.55C155.83 223.09 155.13 222.74 154.86 223.19Z" fill="#263238"/>
<path d="M155.42 219.23C155.69 218.59 155.96 217.95 156.24 217.31C156.52 216.67 156.86 215.99 157.1 215.31C157.1 215.21 157.31 215.31 157.26 215.39C157 216.04 156.82 216.73 156.61 217.39C156.4 218.05 156.17 218.72 155.94 219.39C155.51 220.63 154.99 221.85 154.44 223.04C155.123 223.082 155.807 222.97 156.44 222.71C157.086 222.309 157.592 221.719 157.89 221.02C158.27 220.3 158.62 219.56 159.01 218.85C159.479 218.076 159.881 217.263 160.21 216.42C160.21 216.31 160.41 216.42 160.37 216.49C159.774 218.286 159 220.018 158.06 221.66C157.67 222.3 157.34 222.96 156.63 223.2C155.845 223.413 155.024 223.457 154.22 223.33C154.12 223.33 154 223.33 154.03 223.18C154.46 221.85 154.9 220.51 155.42 219.23Z" fill="#263238"/>
<path d="M153.53 227.41C154.99 230.6 156.27 233.78 157.63 236.96C158.99 240.14 160.2 243.2 161.4 246.36C163.83 252.73 166 259.22 167.9 265.78C168.833 269.02 169.687 272.287 170.46 275.58C171.31 278.865 171.921 282.207 172.29 285.58C172.6 288.947 172.261 292.341 171.29 295.58C170.29 298.89 164.89 310.11 163.36 313.2C162.42 315.09 162.11 314.83 162.56 313.87C163.85 311.17 171.29 295.58 171.68 289.12C171.88 285.78 170.47 281.05 169.76 277.79C169.05 274.53 168.2 271.17 167.29 267.88C165.5 261.42 163.36 255.08 161.15 248.75C159.91 245.2 158.58 241.69 157.32 238.15C156.06 234.61 154.75 231.37 153.32 227.47C153.316 227.456 153.315 227.442 153.317 227.428C153.318 227.413 153.323 227.399 153.33 227.387C153.337 227.374 153.346 227.363 153.357 227.354C153.368 227.346 153.381 227.339 153.395 227.335C153.409 227.331 153.423 227.33 153.438 227.332C153.452 227.333 153.466 227.338 153.478 227.345C153.491 227.352 153.502 227.361 153.511 227.372C153.52 227.383 153.526 227.396 153.53 227.41Z" fill="#263238"/>
<path d="M122.67 216.55C123.41 216.29 124.42 216.75 125.16 216.89C126.115 217.061 127.081 217.168 128.05 217.21C129.007 217.255 129.966 217.235 130.92 217.15C131.881 217.133 132.825 216.897 133.68 216.46C135.079 215.465 136.28 214.216 137.22 212.78C138.356 211.318 139.291 209.71 140 208C140 207.9 140.19 208 140.16 208.07C139.84 209.07 139.6 210.07 139.16 210.98C138.773 211.875 138.315 212.738 137.79 213.56C136.914 215.2 135.646 216.598 134.1 217.63C132.39 218.58 130.21 218.49 128.33 218.36C127.236 218.289 126.149 218.132 125.08 217.89C124.31 217.72 123.01 217.58 122.53 216.89C122.514 216.859 122.505 216.825 122.503 216.79C122.501 216.755 122.507 216.72 122.521 216.687C122.534 216.655 122.554 216.626 122.58 216.602C122.606 216.578 122.637 216.561 122.67 216.55Z" fill="#263238"/>
<path d="M89.06 367.08C95.89 357.02 124.65 307.52 131.06 297.13C132.751 294.709 134.192 292.122 135.36 289.41C136.45 286.41 135.88 283.48 134.97 280.52C133.249 275.103 131.222 269.788 128.9 264.6C126.61 259.39 124.14 254.25 121.71 249.1C119.151 244.034 116.884 238.825 114.92 233.5C113.04 228.485 112.723 223.019 114.01 217.82C115.44 212.59 118.45 207.91 121.59 203.55C122.42 202.4 123.26 201.27 124.09 200.12C124.15 200.03 124.28 200.12 124.22 200.23C120.77 204.77 117.39 209.58 115.34 214.93C114.288 217.572 113.683 220.37 113.55 223.21C113.5 226.094 113.911 228.967 114.77 231.72C116.36 237.08 118.9 242.16 121.27 247.21C123.64 252.26 126.17 257.49 128.51 262.69C130.892 267.909 132.998 273.25 134.82 278.69C135.62 281.11 136.51 283.69 136.42 286.24C136.32 289.08 134.94 291.61 133.51 293.99C127.28 304.32 98.67 353.46 91.87 363.49C91.0234 364.757 90.1667 366.02 89.3 367.28C89.18 367.43 89 367.24 89.06 367.08Z" fill="#263238"/>
<path d="M126.56 118.09C117.94 125.48 120.34 136.25 116.74 142.09C114.54 145.66 107.37 149.44 105.95 153.56C103.6 160.33 109.34 162.76 108.06 166.43C106.24 171.65 99.2602 171.24 98.0602 179.77C96.8602 188.3 106.18 197.36 128.44 199.82C150.7 202.28 162.94 194.12 163.74 186.89C164.54 179.66 157.13 177.25 156.62 171.89C156.3 168.43 160.87 166.03 161.11 159.68C161.35 153.33 155.11 151.26 154.26 145.87C153.41 140.48 156.26 127.36 148.26 120.67C140.26 113.98 130.82 114.44 126.56 118.09Z" fill="#263238"/>
<path d="M127.56 118.28C125.153 119.991 123.192 122.255 121.84 124.88C120.445 127.664 119.378 130.6 118.66 133.63C118.283 135.436 117.703 137.194 116.93 138.87C116.157 140.268 115.141 141.518 113.93 142.56C111.52 144.74 108.65 146.4 106.48 148.84C104.31 151.28 102.84 154.26 103.66 157.42C104.1 159.14 105.24 160.54 105.94 162.15C106.64 163.76 106.88 165.55 105.57 166.81C104.46 167.89 102.85 168.39 101.57 169.27C100.324 170.138 99.2265 171.202 98.32 172.42C97.4128 173.631 96.7667 175.017 96.4224 176.49C96.0782 177.964 96.0433 179.492 96.32 180.98C97.63 187.91 104.13 191.85 110.13 194.33L112.65 195.33C112.78 195.38 112.89 195.19 112.76 195.13C106.76 192.44 99.76 189.27 97.44 182.54C96.9123 181.074 96.728 179.507 96.9014 177.959C97.0747 176.41 97.6011 174.923 98.44 173.61C99.2923 172.31 100.373 171.175 101.63 170.26C102.84 169.37 104.23 168.82 105.47 167.97C106.079 167.58 106.575 167.036 106.907 166.394C107.238 165.751 107.395 165.032 107.36 164.31C107.167 162.722 106.598 161.204 105.7 159.88C104.766 158.506 104.27 156.881 104.28 155.22C104.46 153.603 105.075 152.065 106.06 150.77C107.94 148.12 110.71 146.38 113.2 144.37C115.745 142.497 117.64 139.874 118.62 136.87C119.08 135.28 119.36 133.65 119.76 132.05C120.123 130.56 120.567 129.091 121.09 127.65C122.075 124.751 123.683 122.102 125.8 119.89C126.36 119.325 126.976 118.819 127.64 118.38C127.71 118.35 127.64 118.23 127.56 118.28Z" fill="#263238"/>
<path d="M164.68 181.59C164.404 180.411 163.875 179.305 163.13 178.35C162.36 177.35 161.42 176.54 160.57 175.64C159.688 174.835 159.057 173.794 158.75 172.64C158.6 171.23 158.955 169.813 159.75 168.64C160.511 167.398 161.18 166.101 161.75 164.76C162.505 162.723 162.772 160.538 162.531 158.38C162.29 156.221 161.546 154.15 160.36 152.33C159.6 151.09 158.74 149.91 157.97 148.67C157.114 147.322 156.442 145.866 155.97 144.34C154.97 140.99 154.75 137.46 153.97 134.06C153.109 130.581 151.9 127.197 150.36 123.96C150.36 123.88 150.2 123.96 150.24 124.04C151.607 126.962 152.666 130.018 153.4 133.16C154.11 136.16 154.4 139.16 154.91 142.16C155.123 143.64 155.488 145.095 156 146.5C156.527 147.797 157.173 149.042 157.93 150.22C159.43 152.67 160.99 155.1 161.4 158C161.816 160.861 161.315 163.781 159.97 166.34C158.8 168.55 157.16 170.99 158.18 173.58C159.05 175.78 161.18 177.09 162.53 178.91C163.259 179.905 163.769 181.043 164.028 182.25C164.286 183.456 164.287 184.703 164.03 185.91C162.84 192.14 156.59 195.23 150.74 195.54C150.708 195.548 150.68 195.567 150.66 195.594C150.639 195.62 150.628 195.652 150.628 195.685C150.628 195.718 150.639 195.75 150.66 195.776C150.68 195.803 150.708 195.822 150.74 195.83C155.82 195.77 161.35 193.53 163.74 188.77C164.865 186.554 165.197 184.02 164.68 181.59Z" fill="#263238"/>
<path d="M151.34 164.9C165.34 177.59 183.61 190.96 193.18 188.31C201.84 185.92 213.82 174.89 226.91 162.98C229.51 160.62 210.06 141.37 207.55 144.16C202.55 149.67 192.55 163.57 188.63 165.27C186.94 166 167 157.5 154 153.43C138.3 148.48 145.78 159.85 151.34 164.9Z" fill="#EB9481"/>
<path d="M237.43 158.45C232.87 161.8 225.43 166.31 222.06 166.84C218.89 167.34 205.4 146.91 207.42 144.31C213.69 136.2 226.25 130.31 232.02 130.55C237.79 130.79 242.15 155 237.43 158.45Z" fill="#EB9481"/>
<path d="M89.0001 338.71C83.1058 338.649 77.3127 337.171 72.1101 334.4L72.5901 333.52C78.5901 336.77 88.1701 339.28 97.0201 336.52C100.064 335.575 102.879 334.011 105.288 331.925C107.698 329.839 109.649 327.277 111.02 324.4C117.08 312.61 130.66 263.85 138.77 234.72C143.36 218.23 145.59 210.27 146.1 209.55C147.79 207.13 238.69 127.1 240.53 126.41C242.37 125.72 509.64 54.92 521.01 51.91L521.27 52.91C518.49 53.65 243.39 126.51 240.88 127.38C238.39 128.69 148.79 207.62 146.88 210.16C146.41 210.94 143.3 222.1 139.7 235.02C131 266.06 118 313 111.84 324.88C108.55 331.28 103.65 335.53 97.2701 337.5C94.5892 338.313 91.8017 338.721 89.0001 338.71Z" fill="#263238"/>
<path d="M223.07 132C221.93 134.76 225.85 134.53 225.85 134.53C225.85 134.53 220.28 136.23 220.2 139.53C220.12 142.83 224.86 142.27 225.2 142.25C224.9 142.34 219.83 144.03 220.1 147.37C220.37 150.71 225.04 149.57 225.34 149.49C225.09 149.66 221.83 152.02 222.6 154.49C223.94 158.77 232.45 152.97 235.98 153.8C235.98 153.8 237.07 158.53 237.09 158.71C237.09 158.71 243.49 154.78 244.34 149.95C244.476 149.251 244.368 148.527 244.035 147.897C243.702 147.268 243.164 146.771 242.51 146.49C242.51 146.49 245.34 145.06 245.22 142.42C245.15 141.07 242.93 139.98 242.93 139.98C243.561 139.625 244.081 139.103 244.434 138.472C244.787 137.84 244.959 137.123 244.93 136.4C244.73 134.53 242.53 133.73 242.53 133.73C242.53 133.73 244.12 131.54 243.3 129.73C241.62 126 225.54 126 223.07 132Z" fill="#EB9481"/>
<path d="M243 139.94C243.06 139.94 243.07 139.84 243 139.83C236.924 138.409 230.54 139.207 225 142.08C224.81 142.18 224.75 142.47 225 142.36C228.84 140.59 237.83 139.51 243 139.94Z" fill="#263238"/>
<path d="M225 149.82C230.44 147.06 236.21 146.32 242.25 146.42C242.33 146.42 242.33 146.31 242.25 146.29C239.31 145.44 235.45 145.78 232.47 146.29C229.694 146.713 227.079 147.861 224.89 149.62C224.84 149.7 224.91 149.88 225 149.82Z" fill="#263238"/>
<path d="M225.85 134.5C224.804 134.921 223.799 135.44 222.85 136.05C221.917 136.601 221.144 137.387 220.61 138.33C220.385 138.776 220.335 139.289 220.47 139.77C220.619 140.253 220.883 140.692 221.24 141.05C221.631 141.368 222.083 141.602 222.568 141.736C223.054 141.87 223.562 141.902 224.06 141.83L226.5 141.56L224.3 142.66C223.317 143.137 222.418 143.772 221.64 144.54C221.258 144.875 220.952 145.287 220.742 145.749C220.531 146.211 220.422 146.712 220.42 147.22C220.412 147.694 220.573 148.155 220.873 148.521C221.174 148.887 221.594 149.135 222.06 149.22C223.095 149.413 224.161 149.341 225.16 149.01L227.95 148.18L225.6 149.87C224.938 150.333 224.343 150.885 223.83 151.51C223.305 152.062 222.957 152.759 222.83 153.51C222.793 153.851 222.852 154.196 223.001 154.505C223.149 154.814 223.381 155.076 223.67 155.26C224.382 155.576 225.169 155.683 225.94 155.57C227.613 155.351 229.265 154.997 230.88 154.51C231.7 154.3 232.53 154.08 233.37 153.9C234.201 153.677 235.07 153.633 235.92 153.77C235.074 153.724 234.228 153.847 233.43 154.13C232.61 154.37 231.81 154.65 231 154.92C229.381 155.531 227.707 155.983 226 156.27C225.079 156.448 224.126 156.351 223.26 155.99C222.814 155.74 222.449 155.366 222.209 154.914C221.97 154.462 221.866 153.95 221.91 153.44C222.028 152.498 222.421 151.611 223.04 150.89C223.603 150.191 224.256 149.57 224.98 149.04L225.42 149.9C224.242 150.313 222.978 150.413 221.75 150.19C221.074 150.041 220.47 149.663 220.04 149.12C219.632 148.576 219.401 147.92 219.38 147.24C219.382 146.598 219.52 145.964 219.786 145.379C220.051 144.795 220.438 144.274 220.92 143.85C221.788 143.027 222.785 142.352 223.87 141.85L224.11 142.68C223.491 142.754 222.864 142.69 222.273 142.493C221.681 142.295 221.141 141.97 220.69 141.54C220.265 141.084 219.965 140.526 219.82 139.92C219.676 139.301 219.761 138.651 220.06 138.09C220.69 137.096 221.583 136.297 222.64 135.78C223.658 135.233 224.735 134.804 225.85 134.5Z" fill="#263238"/>
<path d="M209.08 142.36C209.08 142.36 222.77 120.2 228.51 128.93C230.22 131.52 234.14 144.21 231.61 145.04C228.34 146.12 225.72 141.13 224.61 137.74C224.61 137.74 221.45 145.36 215.49 144.74C213.19 144.489 210.987 143.671 209.08 142.36Z" fill="#EB9481"/>
<path d="M228 128.23C228.791 129.168 229.441 130.215 229.93 131.34C230.439 132.456 230.88 133.601 231.25 134.77C232.006 137.108 232.562 139.507 232.91 141.94C233 142.587 233 143.243 232.91 143.89C232.848 144.249 232.708 144.591 232.5 144.89C232.39 145.066 232.248 145.219 232.08 145.34C231.915 145.46 231.733 145.555 231.54 145.62C230.836 145.836 230.078 145.797 229.4 145.51C228.786 145.231 228.224 144.849 227.74 144.38C226.847 143.476 226.114 142.428 225.57 141.28C225.024 140.167 224.556 139.018 224.17 137.84H224.97C224.58 138.697 224.107 139.514 223.56 140.28C223.03 141.049 222.42 141.76 221.74 142.4C221.053 143.032 220.279 143.561 219.44 143.97C218.608 144.38 217.705 144.624 216.78 144.69C217.67 144.499 218.521 144.161 219.3 143.69C220.061 143.219 220.754 142.647 221.36 141.99C221.972 141.383 222.521 140.716 223 140C223.468 139.248 223.866 138.454 224.19 137.63L224.58 136.63L224.99 137.63C225.398 138.75 225.879 139.842 226.43 140.9C226.943 141.937 227.618 142.886 228.43 143.71C228.767 144.101 229.199 144.398 229.684 144.573C230.169 144.748 230.691 144.796 231.2 144.71C232 144.51 232.04 143.18 231.94 142.04C231.84 140.9 231.62 139.68 231.4 138.5C231.18 137.32 230.93 136.13 230.62 134.96C230.102 132.594 229.218 130.323 228 128.23Z" fill="#263238"/>
<path d="M174.49 184.51L182 162.78C182 162.78 163.61 154.37 153.08 152.11C142.55 149.85 140 154.29 149.39 164C158.78 173.71 174.49 184.51 174.49 184.51Z" fill="#5375E2"/>
<path d="M178.18 162.26C176.84 165.07 175.75 168.02 174.66 170.94C173.57 173.86 172.58 176.76 171.73 179.73C171.73 179.78 171.81 179.82 171.83 179.73C173.03 176.85 174.14 173.93 175.21 171C176.28 168.07 177.39 165.22 178.29 162.27C178.31 162.24 178.21 162.2 178.18 162.26Z" fill="#263238"/>
<path opacity="0.1" d="M178.36 173.36L174.49 184.51C174.49 184.51 158.81 173.63 149.39 163.96C146.14 160.63 144.33 157.96 143.78 155.89L178.36 173.36Z" fill="black"/>
<path d="M164.27 215.26L111.39 206.09C111.39 206.09 124.19 168.62 135.39 155.19C140.87 148.6 148.94 151.28 152.24 154.14C153.29 155.05 163.6 169.29 164.62 175.21C165.5 180.45 161.93 186.04 161.93 186.04L164.27 215.26Z" fill="#5375E2"/>
<path d="M159.39 186.07C157.414 185.865 155.427 185.775 153.44 185.8C152.44 185.8 151.44 185.88 150.44 185.98L149.02 186.14C148.5 186.21 148.02 186.35 147.47 186.4C147.42 186.4 147.42 186.5 147.47 186.49C147.96 186.49 148.47 186.49 148.95 186.49H150.43L153.43 186.42C155.43 186.35 157.43 186.3 159.37 186.29C159.5 186.23 159.49 186.08 159.39 186.07Z" fill="#263238"/>
<path d="M129.41 158.54C109.22 175.54 89.9401 213.41 98.2101 218.1C105.76 222.38 131.26 222.1 141.88 220.78C145 220.39 141.53 196.17 138.19 196.58C134.19 197.07 123.96 197.38 123.56 197.31C122.7 197.15 135.47 170.59 139.56 160.82C145.24 147.21 137 152.16 129.41 158.54Z" fill="#EB9481"/>
<path d="M170.09 194.69C170.403 195.387 170.495 196.163 170.354 196.914C170.213 197.665 169.845 198.354 169.3 198.89C170.411 199.584 171.242 200.646 171.65 201.89C172.27 204.09 169.09 206.03 169.09 206.03C170.097 206.975 170.794 208.202 171.09 209.55C171.47 211.72 168.54 214.13 168.54 214.13C168.977 215.506 168.902 216.994 168.33 218.32C166.66 221.8 160.81 222.45 157.09 222.91C153.37 223.37 142.41 221.17 140.28 220.97L137.15 197.14C137.15 197.14 153.24 190.36 157.68 190.44C161.41 190.48 168.79 192.07 170.09 194.69Z" fill="#EB9481"/>
<path d="M169.09 198.53C165.09 197.53 161.09 197.69 157.02 197.66C157.002 197.66 156.984 197.667 156.971 197.68C156.958 197.694 156.95 197.711 156.95 197.73C156.95 197.749 156.958 197.766 156.971 197.779C156.984 197.793 157.002 197.8 157.02 197.8C161.02 197.8 165.02 198.57 169.02 198.72C169.045 198.729 169.073 198.728 169.098 198.717C169.122 198.706 169.141 198.685 169.15 198.66C169.159 198.635 169.158 198.607 169.147 198.583C169.136 198.558 169.115 198.539 169.09 198.53Z" fill="#263238"/>
<path d="M169 205.69C168.077 205.547 167.139 205.523 166.21 205.62C165.21 205.62 164.21 205.72 163.21 205.79C161.21 205.94 159.26 206.13 157.3 206.38C157.21 206.38 157.21 206.53 157.3 206.52C159.3 206.38 161.24 206.26 163.21 206.2L166.21 206.13C167.142 206.192 168.078 206.148 169 206C169.041 206 169.081 205.984 169.11 205.955C169.139 205.926 169.155 205.886 169.155 205.845C169.155 205.804 169.139 205.764 169.11 205.735C169.081 205.706 169.041 205.69 169 205.69Z" fill="#263238"/>
<path d="M168.44 214.1C167.602 213.98 166.751 214 165.92 214.16L163.23 214.41C161.43 214.56 159.63 214.71 157.82 214.8C157.801 214.8 157.784 214.807 157.771 214.82C157.757 214.834 157.75 214.851 157.75 214.87C157.75 214.889 157.757 214.906 157.771 214.919C157.784 214.933 157.801 214.94 157.82 214.94C159.66 214.86 161.49 214.8 163.32 214.7L166.02 214.54C166.844 214.57 167.667 214.451 168.45 214.19L168.44 214.1Z" fill="#263238"/>
<path d="M107.72 180.05L128.86 189.13C128.86 189.13 138.55 171.39 141.57 161.05C144.59 150.71 140.33 147.77 130.01 156.48C119.69 165.19 107.72 180.05 107.72 180.05Z" fill="#5375E2"/>
<path d="M129.61 184.6C126.9 183.07 124.04 181.76 121.21 180.47C118.38 179.18 115.55 177.98 112.65 176.92C112.637 176.92 112.624 176.925 112.615 176.935C112.605 176.944 112.6 176.957 112.6 176.97C112.6 176.983 112.605 176.996 112.615 177.005C112.624 177.015 112.637 177.02 112.65 177.02C115.43 178.42 118.26 179.74 121.11 181.02C123.96 182.3 126.73 183.6 129.6 184.71C129.62 184.73 129.66 184.64 129.61 184.6Z" fill="#263238"/>
<path d="M138.8 168.82C137.44 172.35 135.9 175.82 134.28 179.19C133.46 180.89 132.62 182.58 131.74 184.25C130.86 185.92 129.96 187.58 128.95 189.18V189.27H128.87C128.36 189.02 127.87 188.77 127.37 188.51L128.95 189.07L128.81 189.12L131.21 184L133.66 178.91C134.49 177.22 135.32 175.53 136.19 173.86C137.06 172.19 137.87 170.47 138.8 168.82Z" fill="#263238"/>
<path d="M134.8 177.32C135.219 176.405 135.718 175.528 136.29 174.7C136.85 173.866 137.486 173.086 138.19 172.37C137.782 173.294 137.283 174.175 136.7 175C136.14 175.83 135.504 176.607 134.8 177.32Z" fill="#263238"/>
<path d="M139.31 154.44C139.8 155.25 145.9 159.54 149.84 158.01C151.13 157.51 148.71 150.38 148.71 150.38L148.65 149.81L147.84 141.87L137.29 139.2L135.79 138.88C135.79 138.88 136.16 141.04 136.64 143.72C136.64 143.85 136.69 143.97 136.71 144.11C136.73 144.25 136.71 144.4 136.78 144.54C136.85 144.95 136.92 145.36 137 145.76C137.08 146.16 137.11 146.37 137.19 146.7C137.27 147.03 137.32 147.34 137.39 147.7C137.873 149.989 138.514 152.241 139.31 154.44Z" fill="#EB9481"/>
<path d="M136.64 143.72C138.078 145.546 139.896 147.036 141.969 148.088C144.041 149.14 146.318 149.727 148.64 149.81L147.83 141.87L137.28 139.2L135.78 138.88C135.78 138.88 136.16 141 136.64 143.72Z" fill="#263238"/>
<path d="M155.1 126.17C161.03 138.87 154.1 143.86 151.35 145.17C148.86 146.33 140.25 149.95 133.04 137.93C125.83 125.91 129.87 119.14 135.42 116.2C140.97 113.26 149.18 113.47 155.1 126.17Z" fill="#EB9481"/>
<path d="M149.86 123.4C149.55 123.5 149.24 123.55 148.92 123.62C148.595 123.728 148.245 123.728 147.92 123.62C147.824 123.568 147.748 123.486 147.703 123.387C147.657 123.288 147.646 123.176 147.67 123.07C147.749 122.861 147.884 122.677 148.061 122.54C148.237 122.402 148.448 122.316 148.67 122.29C149.1 122.157 149.565 122.192 149.97 122.39C150.075 122.434 150.163 122.511 150.221 122.61C150.279 122.708 150.304 122.823 150.292 122.936C150.279 123.05 150.231 123.156 150.153 123.24C150.075 123.323 149.972 123.379 149.86 123.4Z" fill="#263238"/>
<path d="M143.09 129.81C143.396 129.71 143.697 129.593 143.99 129.46C144.326 129.381 144.626 129.191 144.84 128.92C144.894 128.823 144.913 128.712 144.895 128.603C144.876 128.494 144.822 128.394 144.74 128.32C144.558 128.197 144.346 128.125 144.126 128.111C143.906 128.097 143.687 128.141 143.49 128.24C143.066 128.378 142.709 128.671 142.49 129.06C142.446 129.15 142.428 129.252 142.438 129.352C142.449 129.452 142.488 129.547 142.551 129.626C142.614 129.705 142.699 129.764 142.794 129.796C142.889 129.829 142.992 129.834 143.09 129.81Z" fill="#263238"/>
<path d="M145.8 130.53C145.8 130.53 145.75 130.6 145.8 130.64C146.25 131.48 146.63 132.52 145.99 133.19C146.87 132.63 146.36 131.26 145.8 130.53Z" fill="#263238"/>
<path d="M144.59 130C143.17 130.58 144.43 133.39 145.75 132.85C147.07 132.31 145.79 129.53 144.59 130Z" fill="#263238"/>
<path d="M144.11 130.41C143.93 130.68 143.82 131.07 143.54 131.23C143.26 131.39 142.82 131.23 142.47 131.06C142.47 131.06 142.42 131.06 142.47 131.11C142.71 131.66 143.16 132.11 143.78 131.94C144.038 131.822 144.243 131.612 144.355 131.352C144.468 131.092 144.48 130.799 144.39 130.53C144.33 130.41 144.18 130.31 144.11 130.41Z" fill="#263238"/>
<path d="M150.45 128C150.45 128 150.53 128 150.55 128C150.9 128.88 151.46 129.84 152.38 129.78V129.83C151.37 130.16 150.64 128.88 150.45 128Z" fill="#263238"/>
<path d="M150.83 126.73C152.19 126.01 153.53 128.73 152.28 129.45C151.03 130.17 149.69 127.34 150.83 126.73Z" fill="#263238"/>
<path d="M151.49 126.63C151.78 126.63 152.13 126.84 152.4 126.73C152.67 126.62 152.79 126.19 152.85 125.81C152.85 125.81 152.85 125.81 152.9 125.81C153.17 126.33 153.27 126.97 152.81 127.31C152.35 127.65 151.81 127.31 151.45 126.88C151.37 126.8 151.38 126.62 151.49 126.63Z" fill="#263238"/>
<path d="M148.8 137.65C149.097 137.839 149.451 137.917 149.8 137.87C150.127 137.735 150.421 137.53 150.66 137.27C150.66 137.27 150.73 137.27 150.72 137.27C150.661 137.495 150.543 137.7 150.377 137.863C150.212 138.027 150.006 138.143 149.78 138.2C149.582 138.225 149.38 138.189 149.202 138.099C149.024 138.008 148.877 137.865 148.78 137.69C148.7 137.67 148.76 137.63 148.8 137.65Z" fill="#263238"/>
<path d="M151 132.84C151 132.84 151.77 134.05 152.06 134.66C152.06 134.72 151.95 134.81 151.75 134.92C151.271 135.26 150.707 135.46 150.121 135.499C149.535 135.538 148.95 135.413 148.43 135.14C148.36 135.14 148.43 135.01 148.49 135.02C149.515 135.192 150.567 135.027 151.49 134.55C151.49 134.36 150.08 132.55 150.18 132.47C150.674 132.294 151.188 132.183 151.71 132.14C150.16 129.57 148.22 127.27 146.71 124.69C146.699 124.671 146.696 124.649 146.7 124.628C146.704 124.607 146.716 124.588 146.733 124.575C146.75 124.561 146.771 124.555 146.792 124.555C146.814 124.556 146.834 124.565 146.85 124.58C149.011 126.984 150.927 129.596 152.57 132.38C152.74 132.71 151.27 132.83 151 132.84Z" fill="#263238"/>
<path d="M151.26 135C151.116 135.598 150.82 136.149 150.4 136.6C150.169 136.838 149.867 136.995 149.54 137.05C148.82 137.17 148.54 136.59 148.43 136.05C148.376 135.75 148.355 135.445 148.37 135.14C149.324 135.402 150.336 135.353 151.26 135Z" fill="#263238"/>
<path d="M150.4 136.55C150.169 136.788 149.867 136.945 149.54 137C148.82 137.12 148.54 136.54 148.43 136C148.772 135.855 149.154 135.83 149.511 135.93C149.869 136.03 150.183 136.249 150.4 136.55Z" fill="#FF9CBD"/>
<path d="M134.43 138.58C137.43 136.85 133.43 126.84 132.89 125.58C133.25 126.34 135.19 130.32 135.57 130.32C135.903 130.146 136.202 129.912 136.45 129.63C136.206 129.157 135.998 128.665 135.83 128.16C135.74 127.93 136.16 128.59 136.72 129.38L137.21 128.92C136.653 127.934 136.23 126.878 135.95 125.78C135.85 125.36 136.82 126.98 137.95 128.25C140.196 126.093 142.675 124.191 145.34 122.58C146.1 122.15 146.77 121.81 147.34 121.58C146.73 120.41 145.96 119.25 146.18 119.47C146.778 120.049 147.317 120.686 147.79 121.37C148.12 121.22 148.43 121.09 148.71 120.98C147.93 119.3 145.79 117.09 146.26 117.35C147.679 118.181 148.93 119.27 149.95 120.56C151.18 120.2 151.6 120.25 151.48 119.95C150.644 118.299 149.489 116.831 148.081 115.629C146.674 114.427 145.042 113.517 143.28 112.95C137.49 111.32 128.89 115.09 127.46 122.95C127.46 122.95 123.81 128.5 125.22 132.57C126.63 136.64 132.67 139.58 134.43 138.58Z" fill="#263238"/>
<path d="M135.51 137.93C135.51 137.93 131.14 134.87 129.65 136.57C128.16 138.27 132.49 143.44 134.98 143.46C135.299 143.484 135.621 143.444 135.924 143.341C136.227 143.238 136.506 143.074 136.745 142.86C136.983 142.646 137.176 142.386 137.311 142.096C137.446 141.805 137.52 141.49 137.53 141.17L135.51 137.93Z" fill="#EB9481"/>
<path d="M130.93 138V138.06C131.762 138.155 132.564 138.423 133.285 138.847C134.007 139.271 134.632 139.84 135.12 140.52C134.974 140.392 134.801 140.299 134.614 140.246C134.427 140.194 134.231 140.183 134.04 140.216C133.848 140.248 133.666 140.323 133.507 140.434C133.348 140.546 133.216 140.691 133.12 140.86C133.12 140.86 133.12 140.95 133.19 140.93C133.427 140.742 133.716 140.634 134.017 140.619C134.319 140.605 134.617 140.686 134.87 140.85C135.297 141.138 135.689 141.473 136.04 141.85C136.16 141.96 136.38 141.8 136.27 141.66C135.62 139.63 133.1 137.45 130.93 138Z" fill="#263238"/>
<path d="M148.78 150.38L147.86 157.22L138.14 151.32L136.59 154.4C136.59 154.4 147.32 164.97 147.22 164.4L148.42 158.4L153.06 161.19L150.39 151.91L148.78 150.38Z" fill="#EBEBEB"/>
<path d="M152 156.52C151.51 155 151.05 153.46 150.49 151.97C150.49 151.91 150.38 151.91 150.38 151.97C150.45 153.54 152.38 159.33 152.72 160.74C152.52 160.62 148.46 158.33 148.44 158.39C148.1 159.39 147.21 163.76 147.17 164.14C145.48 162.46 138.42 155.93 136.53 154.41C136.519 154.405 136.506 154.403 136.494 154.405C136.482 154.407 136.471 154.413 136.462 154.422C136.453 154.43 136.447 154.442 136.445 154.454C136.443 154.466 136.445 154.479 136.45 154.49C138.04 156.32 147.21 164.97 147.3 164.92C147.82 162.829 148.234 160.713 148.54 158.58C150.094 159.689 151.721 160.691 153.41 161.58C153.028 159.87 152.557 158.181 152 156.52Z" fill="#263238"/>
<path d="M165 115C163.531 112.818 162.738 110.251 162.72 107.62C162.72 98.28 172.97 90.71 185.62 90.71C198.27 90.71 208.51 98.28 208.51 107.62C208.51 116.96 198.26 124.54 185.62 124.54C179.999 124.628 174.486 122.995 169.82 119.86L161.93 121.86L165 115Z" fill="#5375E2"/>
<path d="M193.87 107.64C193.868 108.111 194.006 108.572 194.266 108.965C194.526 109.358 194.897 109.664 195.332 109.846C195.767 110.028 196.246 110.076 196.708 109.985C197.17 109.895 197.595 109.669 197.929 109.336C198.263 109.004 198.491 108.58 198.583 108.118C198.676 107.656 198.63 107.177 198.45 106.742C198.27 106.306 197.965 105.934 197.573 105.672C197.182 105.41 196.721 105.27 196.25 105.27C195.621 105.273 195.019 105.523 194.573 105.966C194.128 106.41 193.875 107.011 193.87 107.64Z" fill="#263238"/>
<path d="M185.64 110.01C186.949 110.01 188.01 108.949 188.01 107.64C188.01 106.331 186.949 105.27 185.64 105.27C184.331 105.27 183.27 106.331 183.27 107.64C183.27 108.949 184.331 110.01 185.64 110.01Z" fill="#263238"/>
<path d="M175.02 110.01C176.329 110.01 177.39 108.949 177.39 107.64C177.39 106.331 176.329 105.27 175.02 105.27C173.711 105.27 172.65 106.331 172.65 107.64C172.65 108.949 173.711 110.01 175.02 110.01Z" fill="#263238"/>
<path d="M318.55 388.31L237.86 402.9C194.47 410.16 142.67 412.18 67.6201 404.49L148.73 390.93C214.34 396.35 275.16 395.56 318.55 388.31Z" fill="#5375E2"/>
<path d="M323.58 414.67L237 428.92C266.42 424 297.14 415.54 318.88 404.84C439.48 346.53 490.19 144.57 490.88 142.65H588C587.28 144.57 575.84 177.65 527.41 269.89C497.46 324.71 453.19 365.09 399.98 391.28C378.22 402 353 409.75 323.58 414.67Z" fill="#5375E2"/>
<g opacity="0.3">
<path d="M323.58 414.67L237 428.92C266.42 424 297.14 415.54 318.88 404.84C439.48 346.53 490.19 144.57 490.88 142.65H588C587.28 144.57 575.84 177.65 527.41 269.89C497.46 324.71 453.19 365.09 399.98 391.28C378.22 402 353 409.75 323.58 414.67Z" fill="white"/>
</g>
<path d="M468.33 132.52L490.89 142.65C490.16 144.57 442.39 343.09 318.89 404.84C243.6 442.48 179.21 440.22 68.4402 431.07L67.6602 404.49C175.27 413.38 257.84 406.87 309.33 379.92C425.48 319.1 468.16 133 468.33 132.52Z" fill="#5375E2"/>
<g opacity="0.1">
<path d="M468.33 132.52L490.89 142.65C490.16 144.57 442.39 343.09 318.89 404.84C243.6 442.48 179.21 440.22 68.4402 431.07L67.6602 404.49C175.27 413.38 257.84 406.87 309.33 379.92C425.48 319.1 468.16 133 468.33 132.52Z" fill="black"/>
</g>
<path d="M468.33 132.52H572.98L587.98 142.65H490.89L468.33 132.52Z" fill="#5375E2"/>
<path d="M548.03 67.47L616.08 153.8L455.71 153.37L548.03 67.47Z" fill="#5375E2"/>
<g opacity="0.3">
<path d="M548.03 67.47L616.08 153.8L455.71 153.37L548.03 67.47Z" fill="white"/>
</g>
<path d="M455.71 153.37L428.13 132.21L520.45 46.31L548.03 67.47L455.71 153.37Z" fill="#5375E2"/>
<g opacity="0.1">
<path d="M455.71 153.37L428.13 132.21L520.45 46.31L548.03 67.47L455.71 153.37Z" fill="black"/>
</g>
<path d="M499.62 433.62C501.62 434.27 558.62 433.53 560.75 432.12C561.57 431.6 561.95 423.29 562.12 413.24V412.92C562.12 410.85 556.86 376.11 556.86 376.11L518.74 376.49L525.35 412.99V413.61C525.35 413.61 503.66 423.61 501.46 425.45C499.26 427.29 497.62 433 499.62 433.62Z" fill="#AD6359"/>
<path d="M499.61 433.62C500.61 433.95 516.12 433.91 531.25 433.62C534.25 433.56 537.32 433.49 540.25 433.41C551.04 433.11 559.95 432.67 560.78 432.13C561.61 431.59 561.98 423.53 562.14 413.67C562.14 413.53 562.14 413.39 562.14 413.25C562.14 413.11 562.14 413.03 562.14 412.93L525.41 413V413.62C525.41 413.62 503.72 423.62 501.53 425.45C499.34 427.28 497.62 433 499.61 433.62Z" fill="#A6A6A6"/>
<path d="M500.24 431.4C509.84 431.04 548.6 430.5 558.12 430.87C558.2 430.87 558.2 430.93 558.12 430.93C548.61 431.5 509.84 431.73 500.24 431.56C500 431.56 500 431.41 500.24 431.4Z" fill="#263238"/>
<path d="M521.26 413.15C525.03 412.39 529.66 412.91 532.59 415.57C532.7 415.67 532.59 415.83 532.43 415.79C528.8 414.676 525.063 413.952 521.28 413.63C521.216 413.633 521.154 413.61 521.107 413.567C521.06 413.524 521.033 413.464 521.03 413.4C521.027 413.336 521.05 413.274 521.093 413.227C521.136 413.18 521.196 413.153 521.26 413.15Z" fill="#263238"/>
<path d="M518.56 414.83C522.33 414.07 526.96 414.59 529.88 417.25C529.99 417.35 529.88 417.51 529.72 417.47C526.093 416.357 522.359 415.63 518.58 415.3C518.525 415.291 518.475 415.264 518.439 415.223C518.402 415.181 518.38 415.128 518.378 415.073C518.376 415.018 518.392 414.963 518.426 414.919C518.459 414.875 518.506 414.843 518.56 414.83Z" fill="#263238"/>
<path d="M515.85 416.51C519.62 415.75 524.25 416.27 527.17 418.93C527.29 419.03 527.17 419.19 527.02 419.15C523.389 418.045 519.652 417.324 515.87 417C515.805 417.003 515.742 416.979 515.694 416.935C515.646 416.891 515.618 416.83 515.615 416.765C515.612 416.7 515.636 416.637 515.68 416.589C515.724 416.541 515.785 416.513 515.85 416.51Z" fill="#263238"/>
<path d="M524.6 413.12H563.33C563.33 413.12 550.33 331.51 550.68 329.84C550.85 328.98 600.75 240.7 600.75 240.7H557C557 240.7 516.47 303.84 510.91 319.7C506.84 331.3 524.6 413.12 524.6 413.12Z" fill="#263238"/>
<path d="M523.66 405.6C526 405.41 528.33 405.22 530.66 405.12C532.99 405.02 535.32 404.99 537.66 404.94C542.32 404.84 546.98 404.78 551.66 404.72C552.99 404.72 554.32 404.72 555.66 404.72C557 404.72 558.34 404.86 559.66 404.72C559.76 404.72 559.76 404.87 559.66 404.87C558.49 404.87 557.32 405.12 556.16 405.2C555 405.28 553.83 405.4 552.66 405.48C550.33 405.63 548 405.74 545.66 405.84C541 406.04 536.34 406.09 531.66 406.12C528.99 406.12 526.34 405.93 523.66 405.74C523.642 405.721 523.631 405.696 523.631 405.67C523.631 405.644 523.642 405.619 523.66 405.6Z" fill="#455A64"/>
<path d="M545.42 326.56C546.182 324.145 547.297 321.857 548.73 319.77C551.657 314.93 554.58 310.09 557.5 305.25C563.427 295.437 569.383 285.64 575.37 275.86C578.37 271.02 581.37 266.2 584.3 261.37C587.05 256.91 593.3 244.98 594 243.83C594 243.74 594.19 243.78 594.14 243.83C592.14 248.03 589.51 253.28 587.05 257.66C584.34 262.47 581.44 267.18 578.63 271.93C572.86 281.7 567 291.36 561.15 301C558.203 305.887 555.247 310.77 552.28 315.65C550.86 317.99 549.39 320.32 548.02 322.65C546.614 324.917 545.872 327.533 545.88 330.2C546.035 332.99 546.335 335.771 546.78 338.53C547.15 341.32 547.51 344.1 547.89 346.89C548.643 352.463 549.427 358.027 550.24 363.58C551.867 374.76 553.563 385.927 555.33 397.08C555.55 398.47 555.78 399.85 556 401.24C556 401.37 555.82 401.42 555.8 401.29C553.8 390.13 551.86 378.97 550.17 367.76C548.48 356.55 546.94 345.31 545.45 334.07C544.975 331.59 544.965 329.044 545.42 326.56Z" fill="#455A64"/>
<path d="M685.61 436.72C683.61 437.34 626.61 436.02 624.5 434.59C623.68 434.06 623.39 425.75 623.33 415.69V415.38C623.33 413.31 608.23 378.49 608.23 378.49L645.47 379.25L660.09 415.82V416.45C660.09 416.45 681.67 426.7 683.86 428.52C686.05 430.34 687.62 436.1 685.61 436.72Z" fill="#AD6359"/>
<path d="M685.61 436.72C683.61 437.34 626.61 436.02 624.5 434.59C623.68 434.06 623.39 425.75 623.33 415.69V415.38C623.33 415.38 620.78 408.38 620.77 408.11L657.54 408.76L660.09 415.82V416.45C660.09 416.45 681.67 426.7 683.86 428.52C686.05 430.34 687.62 436.1 685.61 436.72Z" fill="#EBEBEB"/>
<path d="M685.61 436.72C683.61 437.34 626.61 436.02 624.5 434.59C623.68 434.06 623.39 425.75 623.33 415.69V415.38L660.09 415.82V416.45C660.09 416.45 681.67 426.7 683.86 428.52C686.05 430.34 687.62 436.1 685.61 436.72Z" fill="#A6A6A6"/>
<path d="M685 434.49C675.4 434.03 636.65 433.09 627.12 433.37C627.05 433.37 627.05 433.42 627.12 433.43C636.63 434.09 675.39 434.72 685 434.65C685.22 434.65 685.22 434.5 685 434.49Z" fill="#263238"/>
<path d="M664.18 416C660.42 415.21 655.78 415.68 652.83 418.31C652.72 418.41 652.83 418.57 652.99 418.53C656.627 417.452 660.368 416.765 664.15 416.48C664.214 416.484 664.276 416.463 664.324 416.42C664.372 416.378 664.401 416.319 664.405 416.255C664.409 416.191 664.388 416.129 664.345 416.081C664.303 416.033 664.244 416.004 664.18 416Z" fill="#263238"/>
<path d="M666.87 417.73C663.11 416.94 658.47 417.41 655.52 420.03C655.41 420.14 655.52 420.3 655.68 420.26C659.315 419.177 663.057 418.49 666.84 418.21C666.904 418.214 666.966 418.193 667.014 418.15C667.062 418.108 667.091 418.049 667.095 417.985C667.099 417.921 667.077 417.859 667.035 417.811C666.993 417.763 666.934 417.734 666.87 417.73Z" fill="#263238"/>
<path d="M669.56 419.44C665.8 418.64 661.16 419.12 658.21 421.74C658.1 421.84 658.21 422 658.37 421.97C662.006 420.889 665.748 420.198 669.53 419.91C669.585 419.903 669.636 419.877 669.674 419.836C669.712 419.795 669.735 419.743 669.738 419.687C669.742 419.632 669.726 419.577 669.694 419.532C669.661 419.487 669.614 419.454 669.56 419.44Z" fill="#263238"/>
<path d="M561.57 240.7C561.57 240.7 566.82 272.7 567.17 273.7C567.17 273.7 569.17 274.63 572.64 276.25L615.13 416.31L662.13 416.47L606.35 240.7H561.57Z" fill="#263238"/>
<path d="M565.47 272.72C569.55 274.424 573.475 276.478 577.2 278.86C577.224 278.881 577.24 278.909 577.245 278.941C577.251 278.972 577.246 279.004 577.231 279.032C577.216 279.06 577.191 279.082 577.162 279.094C577.133 279.106 577.101 279.109 577.07 279.1C573.07 277.18 569.07 275.33 565.23 273.19C565.168 273.158 565.121 273.103 565.099 273.036C565.077 272.97 565.083 272.897 565.115 272.835C565.147 272.773 565.202 272.726 565.269 272.704C565.335 272.682 565.408 272.688 565.47 272.72Z" fill="#455A64"/>
<path d="M567 254.4C567.64 258.23 568 262.11 568.43 265.97C568.54 266.89 568.65 267.82 568.75 268.74C568.775 269.594 569.001 270.43 569.41 271.18C570.24 272.47 571.73 273.07 573.08 273.66C573.24 273.73 573.18 273.98 573 273.92C571.549 273.567 570.209 272.86 569.1 271.86C567.87 270.56 567.91 268.59 567.72 266.91C567.175 262.768 566.875 258.597 566.82 254.42C566.817 254.396 566.824 254.372 566.839 254.353C566.854 254.335 566.876 254.323 566.9 254.32C566.924 254.317 566.948 254.324 566.967 254.339C566.985 254.354 566.997 254.376 567 254.4Z" fill="#455A64"/>
<path d="M571.63 255.57C571.77 258.33 572.07 261.09 572.3 263.84C572.42 265.19 572.51 266.55 572.6 267.91C572.69 269.27 572.84 270.71 572.8 272.1C572.794 272.118 572.782 272.133 572.767 272.144C572.752 272.155 572.734 272.16 572.715 272.16C572.696 272.16 572.678 272.155 572.663 272.144C572.648 272.133 572.636 272.118 572.63 272.1C572.4 270.79 572.37 269.43 572.26 268.1C572.15 266.77 572.05 265.31 571.98 263.92C571.82 261.13 571.74 258.33 571.49 255.55C571.493 255.531 571.503 255.515 571.518 255.503C571.533 255.492 571.551 255.487 571.57 255.49C571.589 255.493 571.605 255.503 571.617 255.518C571.628 255.533 571.633 255.551 571.63 255.57Z" fill="#455A64"/>
<path d="M577.64 282.13C580.9 290.07 615.7 403.9 616.08 404.89C616.08 404.97 615.98 405.02 615.94 404.94C611.29 395.84 581.58 293.15 578.62 285.15L577.51 282.15C577.48 282.11 577.61 282.06 577.64 282.13Z" fill="#455A64"/>
<path d="M614.78 408.43C616.14 408.24 617.55 408.25 618.92 408.15C620.29 408.05 621.68 408.03 623.06 408C625.82 407.94 628.58 407.897 631.34 407.87C636.82 407.8 642.34 407.78 647.78 407.78C650.91 407.78 654.03 407.95 657.16 408.01C657.26 408.01 657.26 408.16 657.16 408.17C654.41 408.28 651.65 408.45 648.89 408.55C646.13 408.65 643.37 408.67 640.61 408.71C635.05 408.79 629.49 408.88 623.93 408.87C622.38 408.87 620.84 408.87 619.3 408.81C617.76 408.75 616.3 408.81 614.77 408.59C614.67 408.58 614.7 408.44 614.78 408.43Z" fill="#455A64"/>
<path d="M567.44 192.5C558.09 185.86 543.99 169.71 541.2 163.34C537.62 155.15 531.31 126.87 534.15 123.57C535.72 121.75 556.15 124.45 557.29 126.73C558.43 129.01 559.01 153.91 559.29 155.8C559.57 157.69 568.93 175.56 574.15 184.07C580.31 194 573.53 196.82 567.44 192.5Z" fill="#AD6359"/>
<path d="M534.48 130.29C533.576 128.633 533.225 126.73 533.48 124.86C534.05 121.86 536.09 118.69 535.48 116.86C534.57 113.99 531.8 109.38 532.89 108.34C535.12 106.19 537.89 107.67 541.13 112.95C541.97 114.32 543.21 117.79 544.24 117.95C546.05 118.26 546.81 115.09 547.02 112.19C547.43 106.58 546.89 98.36 550.6 97.3C552 96.89 552.67 98.93 552.97 101.45C553.11 97.79 553.66 94.17 555.2 93.66C555.598 93.5427 556.026 93.5807 556.397 93.7663C556.768 93.9519 557.055 94.2712 557.2 94.66C557.277 94.2135 557.492 93.8023 557.815 93.4847C558.138 93.167 558.552 92.959 559 92.89C560.44 92.65 561.45 93.89 562.14 95.74C562.263 95.5976 562.417 95.4862 562.591 95.4149C562.765 95.3437 562.953 95.3146 563.14 95.33C567.03 95.4 568.72 109.47 567.36 113.01C564.508 119.973 560.712 126.511 556.08 132.44C550.85 134 534.48 130.3 534.48 130.29Z" fill="#AD6359"/>
<path d="M552.45 117.79C553.596 115.437 554.204 112.858 554.23 110.24C554.23 107.17 553.4 104.17 553.09 101.12C553.09 101.04 552.95 101.06 552.96 101.12C553.18 102.6 553.25 104.12 553.41 105.61C553.57 107.1 553.77 108.53 553.83 109.99C553.947 112.654 553.462 115.31 552.41 117.76C552.41 117.76 552.44 117.82 552.45 117.79Z" fill="#263238"/>
<path d="M557.39 118.72C558.466 115.941 559.254 113.06 559.74 110.12C560.15 106.89 559.44 103.66 558.74 100.51C558.34 98.62 557.91 96.74 557.43 94.87C557.43 94.79 557.28 94.8 557.3 94.87C558 98.08 558.61 101.32 559.11 104.58C559.596 107.599 559.484 110.684 558.78 113.66C558.37 115.35 557.78 117.02 557.3 118.66C557.34 118.73 557.38 118.75 557.39 118.72Z" fill="#263238"/>
<path d="M562.44 118.48C563.638 116.051 564.387 113.426 564.65 110.73C564.695 107.424 564.325 104.125 563.55 100.91C563.16 99.17 562.72 97.45 562.25 95.73C562.25 95.66 562.11 95.73 562.12 95.73C563.091 99.579 563.809 103.487 564.27 107.43C564.522 109.305 564.478 111.208 564.14 113.07C563.723 114.903 563.147 116.696 562.42 118.43C562.42 118.43 562.43 118.49 562.44 118.48Z" fill="#263238"/>
<path d="M559.15 135L533.3 140.47C533.3 140.47 538.78 160.72 541.01 165.47C543.24 170.22 561.13 190.62 568.1 194.28C575.07 197.94 579.68 194.19 575.32 184.84C570.96 175.49 561.43 157.65 560.83 155.66C560.23 153.67 559.15 135 559.15 135Z" fill="#455A64"/>
<path d="M573.77 192.14C573.174 192.583 572.63 193.093 572.15 193.66C572.825 193.353 573.462 192.971 574.05 192.52C574.646 192.08 575.186 191.569 575.66 191C574.99 191.309 574.356 191.691 573.77 192.14ZM567.77 181.86C567.265 183.251 567.061 184.734 567.17 186.21C567.675 184.819 567.88 183.336 567.77 181.86ZM542.11 155.77C541.671 155.174 541.164 154.63 540.6 154.15C540.899 154.828 541.282 155.467 541.74 156.05C542.177 156.645 542.684 157.186 543.25 157.66C542.947 156.991 542.572 156.357 542.13 155.77H542.11ZM537.34 139.59L536.85 139.69C537.284 140.282 537.787 140.819 538.35 141.29C538.085 140.688 537.753 140.118 537.36 139.59H537.34ZM560.65 175.92C560.211 175.324 559.704 174.78 559.14 174.3C559.439 174.978 559.822 175.617 560.28 176.2C560.717 176.795 561.224 177.336 561.79 177.81C561.487 177.141 561.112 176.507 560.67 175.92H560.65ZM555.27 158.05C554.675 158.487 554.134 158.994 553.66 159.56C554.332 159.255 554.967 158.872 555.55 158.42C556.145 157.983 556.686 157.476 557.16 156.91C556.495 157.217 555.867 157.599 555.29 158.05H555.27ZM550.72 136.76L550.57 136.93L551.1 136.68L550.72 136.76ZM563.43 165C562.699 164.892 561.957 164.868 561.22 164.93C562.611 165.435 564.094 165.639 565.57 165.53C564.88 165.271 564.161 165.094 563.43 165ZM545.55 145.56C544.819 145.452 544.077 145.428 543.34 145.49C544.729 146.005 546.213 146.213 547.69 146.1C547 145.838 546.282 145.657 545.55 145.56ZM548.55 165.25C548.045 166.641 547.841 168.124 547.95 169.6C548.455 168.209 548.66 166.726 548.55 165.25ZM558.64 142.32C558.126 143.713 557.918 145.2 558.03 146.68C558.531 145.284 558.739 143.8 558.64 142.32Z" fill="white"/>
<path d="M558.06 142.22C554.41 143.22 539.32 146.56 536.06 147.07C535.83 147.07 535.76 146.97 535.99 146.91C543.232 144.891 550.58 143.276 558 142.07C558.01 142.066 558.02 142.064 558.031 142.064C558.042 142.064 558.052 142.067 558.062 142.071C558.072 142.075 558.08 142.081 558.088 142.089C558.095 142.096 558.101 142.105 558.105 142.115C558.109 142.125 558.111 142.135 558.111 142.146C558.111 142.157 558.109 142.167 558.104 142.177C558.1 142.187 558.094 142.195 558.087 142.203C558.079 142.21 558.07 142.216 558.06 142.22Z" fill="#263238"/>
<path d="M568.1 194.21C563.1 191.59 552.53 180.37 546.1 172.48L571.25 176.48C572.8 179.54 574.25 182.48 575.33 184.81C579.68 194.12 575.08 197.88 568.1 194.21Z" fill="#263238"/>
<path d="M609.16 245.12C609.16 245.12 548.77 253.46 548.64 253.35C547.75 252.64 550.88 188.08 553.28 182.54C555.85 176.6 563.85 173.54 568.35 176.02C579.64 182.33 593.96 208.1 597.35 216.1C603 229.27 608.78 241.52 609.16 245.12Z" fill="#455A64"/>
<path d="M560.67 175.92C560.519 175.966 560.372 176.023 560.23 176.09L560.32 176.22C560.757 176.815 561.264 177.356 561.83 177.83C561.516 177.152 561.127 176.511 560.67 175.92ZM559.23 239.42C558.716 240.813 558.508 242.3 558.62 243.78C559.121 242.384 559.328 240.9 559.23 239.42ZM580.23 199.06C579.716 200.453 579.508 201.94 579.62 203.42C580.121 202.024 580.328 200.54 580.23 199.06ZM567.83 181.86C567.325 183.251 567.12 184.734 567.23 186.21C567.735 184.819 567.939 183.336 567.83 181.86ZM583.71 248.45C583.682 248.512 583.659 248.575 583.64 248.64H583.72C583.709 248.575 583.692 248.512 583.67 248.45H583.71ZM570.1 222C569.595 223.391 569.39 224.874 569.5 226.35C570.005 224.959 570.209 223.476 570.1 222ZM554.1 204C553.596 205.395 553.391 206.881 553.5 208.36C554.004 206.965 554.209 205.479 554.1 204ZM594.92 225.72C594.652 226.412 594.471 227.134 594.38 227.87C594.271 228.601 594.248 229.343 594.31 230.08C594.57 229.386 594.748 228.665 594.84 227.93C594.961 227.196 594.991 226.451 594.93 225.71L594.92 225.72ZM584.39 193.32C584.13 193.305 583.87 193.305 583.61 193.32C583.936 193.448 584.27 193.555 584.61 193.64L584.39 193.32ZM567.1 202.32C566.368 202.212 565.627 202.188 564.89 202.25C566.279 202.765 567.763 202.973 569.24 202.86C568.554 202.589 567.839 202.398 567.11 202.29L567.1 202.32ZM585.05 221.32C584.318 221.212 583.577 221.188 582.84 221.25C584.231 221.755 585.714 221.959 587.19 221.85C586.504 221.579 585.79 221.387 585.06 221.28L585.05 221.32ZM551.22 217.88C550.762 217.818 550.302 217.781 549.84 217.77C549.84 217.87 549.84 217.97 549.84 218.07C550.281 218.184 550.729 218.274 551.18 218.34C551.911 218.448 552.653 218.472 553.39 218.41C552.695 218.136 551.97 217.945 551.23 217.84L551.22 217.88ZM588 242.38C587.268 242.272 586.527 242.248 585.79 242.31C587.185 242.814 588.671 243.019 590.15 242.91C589.456 242.653 588.734 242.475 588 242.38ZM569.28 236.46C568.548 236.352 567.807 236.328 567.07 236.39C568.465 236.894 569.951 237.099 571.43 236.99C570.739 236.733 570.021 236.556 569.29 236.46H569.28ZM550.56 234.66C550.032 234.593 549.502 234.556 548.97 234.55C548.965 234.633 548.965 234.717 548.97 234.8C549.472 234.941 549.983 235.048 550.5 235.12C551.231 235.233 551.973 235.257 552.71 235.19C552.019 234.931 551.301 234.754 550.57 234.66H550.56ZM573.76 192.14C573.163 192.583 572.62 193.093 572.14 193.66C572.814 193.353 573.452 192.971 574.04 192.52C574.635 192.08 575.176 191.569 575.65 191C574.983 191.31 574.353 191.692 573.77 192.14H573.76ZM594.82 216.22C594.225 216.657 593.684 217.164 593.21 217.73C593.882 217.425 594.516 217.042 595.1 216.59C595.695 216.153 596.236 215.646 596.71 215.08C596.041 215.386 595.41 215.769 594.83 216.22H594.82ZM576.31 213.12C575.715 213.557 575.174 214.064 574.7 214.63C575.372 214.325 576.006 213.942 576.59 213.49C577.185 213.053 577.726 212.546 578.2 211.98C577.531 212.286 576.9 212.668 576.32 213.12H576.31ZM600.74 240.7C600.142 241.134 599.601 241.641 599.13 242.21C600.471 241.58 601.667 240.677 602.64 239.56C601.965 239.86 601.33 240.243 600.75 240.7H600.74ZM573.74 245.14C573.142 245.574 572.601 246.081 572.13 246.65C573.471 246.02 574.667 245.117 575.64 244C574.968 244.301 574.337 244.683 573.76 245.14H573.74ZM558.21 226.38C557.612 226.814 557.071 227.321 556.6 227.89C557.941 227.26 559.137 226.357 560.11 225.24C559.438 225.541 558.807 225.923 558.23 226.38H558.21ZM577.21 183.9C577.139 183.799 577.062 183.702 576.98 183.61C576.713 183.297 576.443 182.997 576.17 182.71C576.037 182.579 575.897 182.455 575.75 182.34C576.053 183.016 576.436 183.654 576.89 184.24C577.327 184.835 577.834 185.376 578.4 185.85C578.083 185.154 577.684 184.5 577.21 183.9ZM588.53 207.05C588.091 206.454 587.584 205.91 587.02 205.43C587.323 206.106 587.706 206.744 588.16 207.33C588.597 207.925 589.104 208.466 589.67 208.94C589.365 208.268 588.982 207.634 588.53 207.05ZM604.37 232.13C604.046 231.736 603.684 231.374 603.29 231.05C603.589 231.728 603.972 232.367 604.43 232.95C604.63 233.2 604.81 233.44 605.03 233.68L604.37 232.13ZM565.37 250C565.526 250.368 565.714 250.723 565.93 251.06L566.37 251C566.057 250.633 565.709 250.298 565.33 250H565.37ZM550.83 248.32C550.391 247.724 549.884 247.18 549.32 246.7C549.619 247.378 550.002 248.017 550.46 248.6C550.897 249.195 551.404 249.736 551.97 250.21C551.648 249.538 551.252 248.904 550.79 248.32H550.83ZM582.27 232.66C581.831 232.064 581.324 231.52 580.76 231.04C581.059 231.718 581.442 232.357 581.9 232.94C582.337 233.535 582.844 234.076 583.41 234.55C583.088 233.878 582.692 233.244 582.23 232.66H582.27ZM560.16 192.66C559.721 192.064 559.214 191.52 558.65 191.04C558.949 191.718 559.332 192.357 559.79 192.94C560.227 193.535 560.734 194.076 561.3 194.55C560.98 193.868 560.584 193.223 560.12 192.63L560.16 192.66ZM563.73 212.54C563.291 211.944 562.784 211.4 562.22 210.92C562.519 211.598 562.902 212.237 563.36 212.82C563.797 213.415 564.304 213.956 564.87 214.43C564.55 213.748 564.154 213.103 563.69 212.51L563.73 212.54Z" fill="white"/>
<path d="M556.09 185.5C558.92 185.97 566.21 180.38 567.49 175.87C567.57 175.56 566.49 172.75 565.33 169.28C564.64 167.17 563.92 164.81 563.41 162.6L550.35 169.12C551.767 171.697 552.865 174.438 553.62 177.28C553.685 177.586 553.722 177.897 553.73 178.21C553.726 178.26 553.726 178.31 553.73 178.36C553.86 180.14 552.83 185 556.09 185.5Z" fill="#AD6359"/>
<path d="M562.75 162.93C562.95 166.03 563.01 176.14 555.19 178.11C554.715 178.238 554.23 178.325 553.74 178.37C553.736 178.317 553.736 178.263 553.74 178.21C553.726 177.898 553.69 177.587 553.63 177.28C552.88 174.436 551.781 171.695 550.36 169.12L562.75 162.93Z" fill="#263238"/>
<path d="M550.38 140.16C550.38 140.16 545.38 141.02 543.38 145.5C541.38 149.98 541.38 155.13 541.75 155.5C542.12 155.87 550.38 140.16 550.38 140.16Z" fill="#263238"/>
<path d="M567.38 150.07C567.76 155.32 561.92 168.89 557.71 171.25C551.61 174.67 543.23 173.25 540.71 166.25C538.29 159.5 546.21 141.95 550.71 139.97C557.49 137.05 566.83 142.32 567.38 150.07Z" fill="#AD6359"/>
<path d="M550.9 156.08C550.9 156.08 550.95 156.15 550.9 156.19C550.47 157.09 550.12 158.19 550.81 158.85C550.81 158.85 550.81 158.92 550.81 158.9C549.87 158.31 550.34 156.86 550.9 156.08Z" fill="#263238"/>
<path d="M552.13 155.49C553.64 156.03 552.45 159.02 551.05 158.49C549.65 157.96 550.86 155 552.13 155.49Z" fill="#263238"/>
<path d="M545.79 153.84C545.79 153.84 545.7 153.84 545.69 153.84C545.35 154.77 544.8 155.84 543.84 155.76V155.82C544.91 156.13 545.62 154.78 545.79 153.84Z" fill="#263238"/>
<path d="M545.35 152.54C543.91 151.83 542.6 154.77 543.94 155.42C545.28 156.07 546.56 153.13 545.35 152.54Z" fill="#263238"/>
<path d="M554.56 153.13C554.12 153.04 553.72 152.89 553.29 152.76C552.826 152.695 552.396 152.476 552.07 152.14C551.989 152.015 551.951 151.868 551.962 151.72C551.973 151.572 552.032 151.431 552.13 151.32C552.361 151.126 552.64 150.998 552.937 150.95C553.235 150.903 553.54 150.937 553.82 151.05C554.422 151.184 554.951 151.542 555.3 152.05C555.367 152.169 555.399 152.304 555.393 152.44C555.387 152.576 555.343 152.708 555.266 152.82C555.189 152.932 555.082 153.021 554.957 153.076C554.832 153.13 554.695 153.149 554.56 153.13Z" fill="#263238"/>
<path d="M544.3 150.91C544.618 151.202 544.952 151.475 545.3 151.73C545.624 152.068 546.048 152.293 546.51 152.37C546.661 152.367 546.806 152.312 546.922 152.216C547.038 152.12 547.119 151.987 547.15 151.84C547.174 151.54 547.116 151.239 546.982 150.97C546.848 150.7 546.644 150.472 546.39 150.31C545.938 149.894 545.344 149.666 544.73 149.67C544.592 149.682 544.461 149.735 544.351 149.82C544.242 149.905 544.16 150.02 544.115 150.151C544.069 150.282 544.063 150.423 544.095 150.558C544.128 150.692 544.199 150.815 544.3 150.91Z" fill="#263238"/>
<path d="M549.12 164.25C548.824 164.443 548.47 164.524 548.12 164.48C547.778 164.338 547.47 164.123 547.22 163.85C547.22 163.85 547.16 163.85 547.16 163.85C547.218 164.093 547.342 164.315 547.518 164.491C547.695 164.668 547.917 164.792 548.16 164.85C548.367 164.873 548.577 164.835 548.763 164.74C548.95 164.646 549.105 164.5 549.21 164.32C549.214 164.308 549.215 164.295 549.211 164.283C549.208 164.271 549.2 164.26 549.19 164.252C549.18 164.245 549.168 164.24 549.156 164.24C549.143 164.239 549.13 164.243 549.12 164.25Z" fill="#263238"/>
<path d="M549.25 161.1C548.869 161.371 548.436 161.56 547.978 161.657C547.521 161.753 547.048 161.754 546.59 161.66C546.191 161.576 545.805 161.442 545.44 161.26C545.368 161.224 545.298 161.184 545.23 161.14L545 161C544.956 160.97 544.922 160.927 544.904 160.876C544.886 160.826 544.885 160.771 544.9 160.72V160.63V160.55C545.16 159.83 545.66 158.77 545.66 158.77C545.35 158.77 543.79 158.87 543.96 158.5C545.318 155.339 546.994 152.323 548.96 149.5C548.972 149.479 548.992 149.463 549.015 149.457C549.039 149.45 549.064 149.453 549.085 149.465C549.106 149.477 549.122 149.497 549.129 149.52C549.135 149.544 549.132 149.569 549.12 149.59C547.87 152.53 546.12 155.23 544.82 158.17C545.381 158.132 545.944 158.179 546.49 158.31C546.58 158.38 545.49 160.31 545.39 160.66C545.949 160.952 546.562 161.128 547.191 161.178C547.819 161.228 548.452 161.15 549.05 160.95C549.29 161 549.34 161.05 549.25 161.1Z" fill="#263238"/>
<path d="M546 161.06C546.177 161.723 546.521 162.329 547 162.82C547.278 163.074 547.627 163.238 548 163.29C548.81 163.39 549.1 162.72 549.2 162.09C549.239 161.758 549.239 161.422 549.2 161.09C548.157 161.419 547.037 161.408 546 161.06Z" fill="#263238"/>
<path d="M547 162.82C547.278 163.074 547.627 163.238 548 163.29C548.81 163.39 549.1 162.72 549.2 162.09C548.805 161.947 548.372 161.941 547.973 162.073C547.574 162.205 547.231 162.469 547 162.82Z" fill="#FF9CBD"/>
<path d="M562.78 162.22C561.12 162.1 561.14 156.95 561.32 155.04C561.49 153.36 562.86 148.35 562.92 148.04C562.98 147.73 554.77 149.78 551.44 147.22C548.11 144.66 546.91 140.33 547.44 138.73C547.97 137.13 554.21 134.96 558.33 136.32C562.45 137.68 565.91 144.92 565.91 144.92C565.543 143.914 565.255 142.881 565.05 141.83C565.697 142.263 566.228 142.849 566.594 143.537C566.96 144.224 567.151 144.991 567.15 145.77C567.15 145.77 567.54 143.24 567.75 143.27C567.96 143.3 569.22 146.09 568.17 147.42C568.17 147.42 569.73 150.36 569.08 152.67C568.43 154.98 564.74 162.36 562.78 162.22Z" fill="#263238"/>
<path d="M549.07 145.36C549.952 146.391 550.983 147.285 552.13 148.01C553.467 148.664 554.943 148.98 556.43 148.93C557.916 148.926 559.391 148.683 560.8 148.21C562.03 147.8 563.23 147.21 564.5 146.89C564.82 146.81 564.97 147.29 564.72 147.46C562.132 149.165 559.065 149.995 555.97 149.83C554.531 149.753 553.136 149.303 551.923 148.525C550.71 147.746 549.72 146.666 549.05 145.39C549.05 145.39 549.06 145.35 549.07 145.36Z" fill="#263238"/>
<path d="M561.72 161.1C561.72 161.1 566.05 157.33 567.83 158.99C569.61 160.65 565.56 166.65 562.91 166.99C562.57 167.054 562.221 167.049 561.883 166.974C561.546 166.899 561.227 166.756 560.946 166.554C560.666 166.352 560.429 166.095 560.251 165.798C560.073 165.502 559.957 165.173 559.91 164.83L561.72 161.1Z" fill="#AD6359"/>
<path d="M566.63 160.68V160.75C564.76 161.01 563.47 162.37 562.43 163.85C562.571 163.704 562.743 163.591 562.932 163.518C563.122 163.445 563.325 163.414 563.528 163.427C563.73 163.44 563.927 163.498 564.106 163.595C564.284 163.692 564.439 163.827 564.56 163.99C564.56 163.99 564.56 164.09 564.49 164.07C564.216 163.898 563.895 163.817 563.572 163.836C563.25 163.856 562.941 163.976 562.69 164.18C562.266 164.517 561.884 164.903 561.55 165.33C561.43 165.46 561.18 165.33 561.28 165.15C561.79 162.93 564.24 160.32 566.63 160.68Z" fill="#263238"/>
<path d="M556.36 196.58C544.26 194.22 520.72 183.8 517.05 181.1C509.36 175.43 493.72 147.67 495.05 143.23C495.79 140.78 516.81 139.99 518.96 141.69C521.11 143.39 530.4 164.19 531.54 165.88C532.68 167.57 556.42 183.59 561.63 188.15C571.06 196.41 564.23 198.12 556.36 196.58Z" fill="#AD6359"/>
<path d="M517.52 149.33C517.52 149.33 521.96 141.4 524.62 136.07C526.1 133.07 528.19 127.78 528.28 125.07C528.42 121.07 526.43 104.2 522.33 104.59C518.62 104.95 522.17 119.22 522.17 119.22C522.17 119.22 519.86 104.5 515.47 105.75C511.08 107 517.24 122.59 517.24 122.59C517.24 122.59 514.53 107.53 510.24 109.53C506.97 111.05 511.75 125.53 511.75 125.53C511.75 125.53 509.33 112.6 505.9 114.01C502.12 115.58 505.69 129.18 505.69 129.18C497.59 134.24 494.34 137.79 495.02 144.18C495.1 145.2 517.52 149.33 517.52 149.33Z" fill="#AD6359"/>
<path d="M523.69 125.52C523.48 123.78 523.28 122.02 522.92 120.31C522.56 118.6 522.14 116.89 521.62 115.22C520.989 113.021 520.11 110.9 519 108.9C520.516 112.624 521.684 116.481 522.49 120.42C522.85 122.13 523.29 123.83 523.66 125.54C523.64 125.58 523.7 125.56 523.69 125.52Z" fill="#263238"/>
<path d="M517.53 126.94C517.17 124.73 516.89 122.53 516.43 120.34C515.97 118.15 515.22 115.12 514.62 112.97C514.62 112.81 514.31 112.8 514.35 112.97C514.87 115.14 515.49 118.27 515.99 120.44C516.49 122.61 517.06 124.77 517.48 126.95C517.48 127 517.53 127 517.53 126.94Z" fill="#263238"/>
<path d="M512.46 129.11C511.988 125.701 511.164 122.349 510 119.11C509.95 118.95 509.86 119.11 509.91 119.23C510.79 122.53 511.5 125.11 512.34 129.1C512.35 129.19 512.46 129.18 512.46 129.11Z" fill="#263238"/>
<path d="M497.49 153.16L524.94 150.34C524.94 150.34 530.65 163.56 531.79 165.14C532.93 166.72 558.66 183.68 563.79 187.94C568.92 192.2 568.03 200.11 556.99 197.94C547.46 196.07 521.69 185.39 516.83 182.13C511.97 178.87 497.49 153.16 497.49 153.16Z" fill="#455A64"/>
<path d="M560.12 192.63C559.681 192.034 559.174 191.49 558.61 191.01C558.909 191.688 559.292 192.327 559.75 192.91C560.187 193.505 560.694 194.046 561.26 194.52C560.951 193.85 560.569 193.216 560.12 192.63ZM549.12 192.15C548.525 192.587 547.984 193.094 547.51 193.66C548.182 193.355 548.817 192.972 549.4 192.52C549.993 192.079 550.53 191.569 551 191C550.334 191.31 549.707 191.696 549.13 192.15H549.12ZM550.3 181.29C549.569 181.182 548.827 181.158 548.09 181.22C549.479 181.735 550.963 181.943 552.44 181.83C551.753 181.569 551.038 181.388 550.31 181.29H550.3ZM540.5 186.29C539.996 187.685 539.791 189.171 539.9 190.65C540.404 189.255 540.609 187.769 540.5 186.29ZM506.14 156.7C505.701 156.104 505.194 155.56 504.63 155.08C504.929 155.758 505.312 156.397 505.77 156.98C506.207 157.575 506.714 158.116 507.28 158.59C506.971 157.92 506.589 157.286 506.14 156.7ZM534.55 170.51C534.111 169.914 533.604 169.37 533.04 168.89C533.343 169.566 533.726 170.204 534.18 170.79C534.617 171.385 535.124 171.926 535.69 172.4C535.385 171.728 535.002 171.094 534.55 170.51ZM522.34 174C521.745 174.437 521.204 174.944 520.73 175.51C521.402 175.205 522.037 174.822 522.62 174.37C523.216 173.933 523.756 173.426 524.23 172.86C523.558 173.165 522.924 173.548 522.34 174ZM540.85 177.1C540.255 177.537 539.714 178.044 539.24 178.61C539.912 178.305 540.547 177.922 541.13 177.47C541.726 177.033 542.266 176.526 542.74 175.96C542.067 176.268 541.433 176.654 540.85 177.11V177.1ZM519.79 153C519.194 153.443 518.65 153.953 518.17 154.52C518.845 154.213 519.482 153.831 520.07 153.38C520.666 152.94 521.206 152.429 521.68 151.86C521.01 152.169 520.376 152.551 519.79 153ZM529.68 182.47C528.949 182.362 528.207 182.338 527.47 182.4C528.861 182.905 530.344 183.109 531.82 183C531.128 182.752 530.41 182.584 529.68 182.5V182.47ZM513.88 165.21C513.149 165.102 512.407 165.078 511.67 165.14C513.059 165.655 514.543 165.863 516.02 165.75C515.329 165.499 514.611 165.327 513.88 165.24V165.21ZM519.27 181.83C519.091 182.297 518.954 182.779 518.86 183.27L519.26 183.48C519.317 182.942 519.32 182.399 519.27 181.86V181.83ZM526.21 160C525.696 161.393 525.488 162.88 525.6 164.36C526.101 162.964 526.309 161.48 526.21 160Z" fill="white"/>
<path d="M503.2 159.63C506.97 159.34 522.34 157.63 525.63 157.02C525.86 157.02 525.89 156.83 525.63 156.84C518.104 157.305 510.609 158.186 503.18 159.48C503.165 159.487 503.153 159.499 503.145 159.514C503.137 159.529 503.134 159.546 503.136 159.562C503.139 159.579 503.146 159.594 503.157 159.606C503.169 159.618 503.184 159.627 503.2 159.63Z" fill="#263238"/>
<path d="M562.17 200.52C559.898 199.746 557.688 198.8 555.56 197.69C553.416 196.623 551.342 195.42 549.35 194.09C551.587 194.935 553.774 195.907 555.9 197C556.96 197.55 558.02 198.1 559.06 198.68C560.1 199.26 561.14 199.9 562.17 200.52Z" fill="#263238"/>
<path d="M555.5 197.24C554.732 197.186 553.973 197.038 553.24 196.8C552.502 196.576 551.794 196.263 551.13 195.87C551.899 195.927 552.658 196.078 553.39 196.32C554.127 196.543 554.835 196.852 555.5 197.24Z" fill="#263238"/>
<path d="M563.79 187.94C562.709 187.335 561.703 186.607 560.79 185.77C559.866 184.963 559.04 184.05 558.33 183.05C559.411 183.655 560.417 184.383 561.33 185.22C562.254 186.027 563.08 186.94 563.79 187.94Z" fill="#263238"/>
</svg>
