<!-- 
https://www.figma.com/ 
I used this resource to layout my images and pages for this program
https://undraw.co/ 
I used this resource to find free vector stock images for my program so the images 
are displayed with high-quality 
 -->
<svg width="671" height="526" viewBox="0 0 671 526" fill="none" xmlns="http://www.w3.org/2000/svg">
<path d="M88.8587 41.0779H50.6177V53.2485H88.8587V41.0779Z" fill="#EBEBEB"/>
<path d="M496.298 131.081H456.969V117.823H496.298V131.081ZM458.057 129.994H495.21V118.911H458.057V129.994Z" fill="#EBEBEB"/>
<path d="M67.5301 25.7311C61.1784 25.8399 44.8965 26.1118 38.7623 26.1879H29.2891L29.7894 25.6876V37.8582L29.2456 37.3144C35.5973 37.3144 51.7921 37.4014 57.9263 37.4884L67.4866 37.608L67.2256 37.8582L67.4866 25.6876L67.5301 25.7311ZM67.5301 25.7311L67.7803 37.9017V38.1627H67.5192C62.7445 38.228 53.1625 38.3368 48.3987 38.3694L29.2782 38.4455H28.7344V37.9017V25.7311V25.2417H29.2238H38.8711C44.9618 25.307 61.1675 25.5789 67.4649 25.6876L67.5301 25.7311Z" fill="#EBEBEB"/>
<path d="M169.302 296.945C162.95 297.053 146.658 297.325 140.534 297.401H131.061L131.55 296.901V309.072L131.007 308.528C137.358 308.528 153.553 308.615 159.687 308.702L169.248 308.822L168.987 309.072L169.248 296.901L169.302 296.945ZM169.302 296.945L169.552 309.115V309.376H169.291C164.517 309.441 154.934 309.55 150.171 309.594L131.05 309.659H130.506V309.104V296.934V296.444H131.007H140.654C146.745 296.51 162.95 296.792 169.248 296.89L169.302 296.945Z" fill="#EBEBEB"/>
<path d="M147.963 281.598C141.611 281.707 125.329 281.979 119.206 282.055H109.732L110.222 281.554V293.725L109.678 293.181C116.019 293.181 132.214 293.268 138.348 293.355L147.908 293.475L147.658 293.725L147.908 281.554L147.963 281.598ZM147.963 281.598L148.224 293.769V294.03H147.952C143.188 294.095 133.606 294.204 128.831 294.247L109.722 294.312H109.178V293.758V281.587V281.098H109.678H119.314C125.416 281.163 141.622 281.446 147.908 281.544L147.963 281.598Z" fill="#EBEBEB"/>
<path d="M126.721 296.944H88.48V309.115H126.721V296.944Z" fill="#EBEBEB"/>
<path d="M517.082 6.74316H478.841V18.9137H517.082V6.74316Z" fill="#EBEBEB"/>
<path d="M495.754 433.051H457.513V445.221H495.754V433.051Z" fill="#EBEBEB"/>
<path d="M517.082 417.704C510.73 417.813 494.449 418.085 488.314 418.161H478.841L479.342 417.66V429.831L478.798 429.287C485.149 429.287 501.344 429.363 507.478 429.461L517.039 429.57L516.778 429.831L517.039 417.66L517.082 417.704ZM517.082 417.704L517.343 429.875V430.136H517.082C512.308 430.201 502.736 430.31 497.962 430.342L478.841 430.418H478.297V429.907L478.352 417.737V417.236H478.841H488.488C494.579 417.302 510.796 417.573 517.082 417.682V417.704Z" fill="#EBEBEB"/>
<path d="M105.393 433.051C99.0411 433.159 82.7593 433.431 76.6251 433.497L67.1519 433.551L67.6522 433.051V445.221L67.1084 444.677C73.4601 444.677 89.6549 444.754 95.7891 444.841L105.349 444.96L105.088 445.221L105.349 433.051H105.393ZM105.393 433.051L105.643 445.221V445.482H105.382C100.607 445.547 91.0253 445.656 86.2615 445.689L67.141 445.765H66.5972V445.221V433.051V432.55H67.0866H76.7339C82.8246 432.616 99.0303 432.887 105.328 432.996L105.393 433.051Z" fill="#EBEBEB"/>
<path d="M512.057 3.16479H254.55V189.193H512.057V3.16479Z" fill="white"/>
<path d="M515.212 192.347H251.396V0H515.212V192.347ZM257.705 186.028H508.947V6.31913H257.705V186.028Z" fill="#EBEBEB"/>
<path d="M443.929 141.555C443.826 141.557 443.724 141.53 443.635 141.479L429.985 133.604C429.894 133.551 429.818 133.474 429.765 133.383C429.712 133.292 429.683 133.188 429.681 133.082V117.323C429.682 117.217 429.71 117.113 429.764 117.021C429.817 116.929 429.893 116.853 429.985 116.8L443.635 108.915C443.725 108.862 443.829 108.833 443.934 108.833C444.039 108.833 444.143 108.862 444.233 108.915L457.883 116.8C457.975 116.853 458.051 116.929 458.104 117.021C458.158 117.113 458.186 117.217 458.187 117.323V133.082C458.185 133.188 458.156 133.292 458.103 133.383C458.05 133.474 457.974 133.551 457.883 133.604L444.233 141.479C444.141 141.532 444.035 141.558 443.929 141.555ZM430.877 132.734L443.929 140.261L456.98 132.734V117.671L443.929 110.133L430.877 117.671V132.734Z" fill="#EBEBEB"/>
<path d="M471.228 141.555C471.121 141.557 471.016 141.531 470.923 141.479L457.285 133.604C457.192 133.552 457.115 133.476 457.062 133.385C457.008 133.293 456.98 133.188 456.98 133.082V117.322C456.979 117.216 457.006 117.111 457.06 117.019C457.114 116.927 457.191 116.852 457.285 116.8L470.923 108.915C471.016 108.862 471.121 108.833 471.228 108.833C471.335 108.833 471.44 108.862 471.533 108.915L485.171 116.8C485.265 116.852 485.342 116.927 485.396 117.019C485.45 117.111 485.477 117.216 485.476 117.322V133.082C485.476 133.188 485.448 133.293 485.394 133.385C485.341 133.476 485.264 133.552 485.171 133.604L471.576 141.479C471.47 141.539 471.349 141.565 471.228 141.555ZM458.176 132.734L471.228 140.261L484.28 132.734V117.671L471.228 110.133L458.176 117.671V132.734Z" fill="#EBEBEB"/>
<path d="M471.228 110.046C471.148 110.046 471.07 110.03 470.996 110C470.923 109.969 470.856 109.924 470.801 109.867C470.745 109.81 470.701 109.743 470.672 109.669C470.642 109.596 470.628 109.517 470.629 109.437V100.084C470.629 99.9249 470.692 99.7727 470.805 99.6606C470.917 99.5484 471.069 99.4854 471.228 99.4854C471.386 99.4854 471.538 99.5484 471.651 99.6606C471.763 99.7727 471.826 99.9249 471.826 100.084V109.437C471.827 109.517 471.813 109.596 471.784 109.669C471.754 109.743 471.71 109.81 471.655 109.867C471.599 109.924 471.532 109.969 471.459 110C471.386 110.03 471.307 110.046 471.228 110.046Z" fill="#EBEBEB"/>
<path d="M484.878 117.921C484.768 117.923 484.66 117.895 484.566 117.839C484.472 117.783 484.395 117.702 484.345 117.605C484.27 117.465 484.254 117.301 484.299 117.149C484.343 116.997 484.446 116.868 484.584 116.79L492.524 112.439C492.593 112.401 492.669 112.377 492.748 112.368C492.826 112.359 492.906 112.366 492.981 112.389C493.057 112.411 493.128 112.448 493.189 112.498C493.251 112.547 493.302 112.609 493.339 112.678C493.378 112.748 493.402 112.824 493.411 112.902C493.419 112.981 493.412 113.06 493.39 113.136C493.368 113.212 493.331 113.283 493.281 113.344C493.231 113.406 493.17 113.457 493.1 113.494L485.16 117.845C485.075 117.897 484.977 117.923 484.878 117.921Z" fill="#EBEBEB"/>
<path d="M432.769 131.897C432.609 131.894 432.457 131.829 432.345 131.715C432.234 131.601 432.171 131.448 432.171 131.288V119.281C432.171 119.122 432.234 118.97 432.346 118.858C432.458 118.745 432.61 118.682 432.769 118.682C432.928 118.682 433.08 118.745 433.192 118.858C433.304 118.97 433.367 119.122 433.367 119.281V131.31C433.364 131.467 433.3 131.616 433.188 131.726C433.076 131.836 432.926 131.897 432.769 131.897Z" fill="#EBEBEB"/>
<path d="M460.939 131.897C460.859 131.897 460.78 131.881 460.707 131.851C460.634 131.82 460.567 131.775 460.512 131.718C460.456 131.661 460.412 131.594 460.383 131.52C460.353 131.446 460.339 131.367 460.34 131.288V119.281C460.34 119.122 460.403 118.97 460.516 118.858C460.628 118.745 460.78 118.682 460.939 118.682C461.097 118.682 461.249 118.745 461.362 118.858C461.474 118.97 461.537 119.122 461.537 119.281V131.31C461.534 131.467 461.47 131.616 461.358 131.726C461.246 131.836 461.095 131.897 460.939 131.897Z" fill="#EBEBEB"/>
<path d="M454.804 119.237C454.696 119.24 454.59 119.209 454.5 119.15L444.102 113.102C443.965 113.023 443.866 112.892 443.825 112.739C443.784 112.587 443.806 112.424 443.885 112.287C443.923 112.216 443.975 112.155 444.038 112.105C444.101 112.056 444.173 112.02 444.251 112C444.328 111.979 444.409 111.975 444.488 111.987C444.567 111.999 444.643 112.027 444.711 112.069L455.109 118.116C455.246 118.196 455.345 118.326 455.386 118.479C455.427 118.632 455.405 118.795 455.326 118.932C455.273 119.024 455.197 119.1 455.106 119.154C455.014 119.207 454.91 119.236 454.804 119.237Z" fill="#EBEBEB"/>
<path d="M481.919 119.237C481.811 119.24 481.705 119.21 481.615 119.15L471.217 113.103C471.148 113.064 471.088 113.012 471.039 112.95C470.991 112.888 470.956 112.817 470.935 112.741C470.915 112.665 470.91 112.585 470.921 112.507C470.932 112.429 470.959 112.354 471 112.287C471.038 112.218 471.09 112.158 471.152 112.109C471.214 112.061 471.285 112.025 471.361 112.005C471.437 111.985 471.517 111.98 471.595 111.991C471.673 112.002 471.748 112.029 471.815 112.069L482.213 118.117C482.314 118.187 482.391 118.287 482.434 118.403C482.476 118.519 482.481 118.645 482.449 118.764C482.417 118.883 482.349 118.989 482.254 119.068C482.159 119.147 482.042 119.194 481.919 119.204V119.237Z" fill="#EBEBEB"/>
<path d="M401.391 107.001C401.285 107.002 401.18 106.976 401.086 106.925L387.448 99.0506C387.357 98.9968 387.281 98.9205 387.227 98.8292C387.174 98.7378 387.145 98.6343 387.143 98.5285V82.7687C387.144 82.6628 387.173 82.5588 387.226 82.4673C387.279 82.3757 387.356 82.2997 387.448 82.2467L401.086 74.3614C401.181 74.3127 401.285 74.2874 401.391 74.2874C401.497 74.2874 401.601 74.3127 401.696 74.3614L415.345 82.2467C415.436 82.3002 415.511 82.3767 415.562 82.4683C415.614 82.56 415.64 82.6636 415.639 82.7687V98.5285C415.639 98.6334 415.612 98.7367 415.561 98.8281C415.509 98.9196 415.435 98.9962 415.345 99.0506L401.696 106.881C401.607 106.949 401.502 106.99 401.391 107.001ZM388.339 98.1805L401.391 105.707L414.443 98.1805V83.1168L401.391 75.5795L388.339 83.1168V98.1805Z" fill="#EBEBEB"/>
<path d="M401.391 75.4923C401.232 75.4894 401.079 75.424 400.967 75.3101C400.856 75.1961 400.793 75.0429 400.793 74.8832V65.5513C400.793 65.3927 400.856 65.2405 400.968 65.1283C401.08 65.0162 401.233 64.9531 401.391 64.9531C401.546 64.9588 401.693 65.0243 401.8 65.1358C401.908 65.2474 401.968 65.3964 401.968 65.5513V74.9049C401.965 75.058 401.904 75.2042 401.796 75.3135C401.689 75.4227 401.544 75.4867 401.391 75.4923Z" fill="#EBEBEB"/>
<path d="M427.32 73.3826C427.162 73.3826 427.01 73.3196 426.897 73.2074C426.785 73.0952 426.722 72.9431 426.722 72.7844V63.4308C426.721 63.3519 426.735 63.2734 426.765 63.2002C426.794 63.1269 426.838 63.0604 426.894 63.0045C426.95 62.9487 427.017 62.9047 427.09 62.8751C427.163 62.8456 427.241 62.8311 427.32 62.8326C427.479 62.8326 427.631 62.8956 427.743 63.0078C427.856 63.12 427.919 63.2722 427.919 63.4308V72.7844C427.919 72.9431 427.856 73.0952 427.743 73.2074C427.631 73.3196 427.479 73.3826 427.32 73.3826Z" fill="#EBEBEB"/>
<path d="M415.019 83.3668C414.91 83.3691 414.802 83.3408 414.708 83.2851C414.614 83.2294 414.537 83.1484 414.486 83.0514C414.415 82.9106 414.4 82.7477 414.444 82.5961C414.488 82.4445 414.589 82.3156 414.725 82.2357L422.665 77.8852C422.734 77.847 422.81 77.8228 422.889 77.8142C422.968 77.8055 423.047 77.8125 423.123 77.8347C423.199 77.857 423.269 77.894 423.331 77.9438C423.392 77.9935 423.443 78.0549 423.481 78.1245C423.519 78.1937 423.543 78.2697 423.552 78.3483C423.561 78.4269 423.554 78.5064 423.531 78.5822C423.509 78.6581 423.472 78.7288 423.422 78.7902C423.373 78.8517 423.311 78.9026 423.242 78.9402L415.302 83.2907C415.217 83.3426 415.119 83.369 415.019 83.3668Z" fill="#EBEBEB"/>
<path d="M439.426 83.3668C439.326 83.369 439.228 83.3426 439.143 83.2907L431.203 78.9402C431.134 78.9026 431.072 78.8517 431.022 78.7902C430.973 78.7288 430.936 78.6581 430.913 78.5822C430.891 78.5064 430.884 78.4269 430.893 78.3483C430.901 78.2697 430.926 78.1937 430.964 78.1245C431.001 78.0549 431.052 77.9935 431.114 77.9438C431.175 77.894 431.246 77.857 431.322 77.8347C431.398 77.8125 431.477 77.8055 431.556 77.8142C431.634 77.8228 431.71 77.847 431.78 77.8852L439.719 82.2357C439.858 82.3137 439.96 82.4426 440.005 82.5949C440.049 82.7473 440.033 82.9111 439.959 83.0514C439.908 83.1484 439.831 83.2294 439.737 83.2851C439.643 83.3408 439.535 83.3691 439.426 83.3668Z" fill="#EBEBEB"/>
<path d="M412.43 97.3646C412.271 97.3618 412.118 97.2963 412.007 97.1824C411.895 97.0685 411.832 96.9152 411.832 96.7556V84.7264C411.832 84.5677 411.895 84.4156 412.007 84.3034C412.119 84.1912 412.272 84.1282 412.43 84.1282C412.589 84.1282 412.741 84.1912 412.853 84.3034C412.965 84.4156 413.028 84.5677 413.028 84.7264V96.7556C413.03 96.835 413.015 96.914 412.986 96.9878C412.957 97.0616 412.913 97.1289 412.857 97.1856C412.801 97.2423 412.735 97.2873 412.662 97.3181C412.588 97.3488 412.51 97.3646 412.43 97.3646Z" fill="#EBEBEB"/>
<path d="M390.787 84.6828C390.682 84.683 390.579 84.656 390.487 84.6046C390.396 84.5531 390.319 84.4789 390.265 84.3891C390.224 84.3208 390.197 84.245 390.186 84.1662C390.175 84.0873 390.18 84.0071 390.2 83.9301C390.22 83.8531 390.256 83.781 390.304 83.7178C390.353 83.6547 390.413 83.6019 390.482 83.5625L400.88 77.5153C401.024 77.436 401.194 77.4172 401.352 77.4631C401.51 77.509 401.644 77.6158 401.723 77.76C401.802 77.9042 401.821 78.0741 401.775 78.2322C401.729 78.3902 401.622 78.5236 401.478 78.6029L391.091 84.6066C390.998 84.6573 390.893 84.6835 390.787 84.6828Z" fill="#EBEBEB"/>
<path d="M323.549 48.5627C323.447 48.5592 323.347 48.5332 323.256 48.4865L309.606 40.6012C309.514 40.5482 309.438 40.4722 309.384 40.3806C309.331 40.2891 309.302 40.1852 309.301 40.0792V24.3194C309.303 24.2137 309.332 24.1102 309.386 24.0188C309.439 23.9274 309.515 23.8512 309.606 23.7974L323.256 15.9229C323.346 15.8693 323.449 15.8411 323.555 15.8411C323.66 15.8411 323.763 15.8693 323.854 15.9229L337.504 23.7974C337.593 23.8517 337.667 23.9283 337.719 24.0198C337.77 24.1113 337.797 24.2145 337.797 24.3194V40.0792C337.798 40.1843 337.772 40.288 337.72 40.3796C337.669 40.4713 337.594 40.5477 337.504 40.6012L323.854 48.4865C323.759 48.5334 323.655 48.5594 323.549 48.5627ZM310.498 39.7311L323.549 47.2684L336.601 39.7311V24.6675L323.549 17.1411L310.498 24.6675V39.7311Z" fill="#EBEBEB"/>
<path d="M337.199 24.9283C337.091 24.926 336.985 24.8958 336.891 24.8405C336.798 24.7853 336.721 24.7069 336.666 24.6129C336.595 24.4721 336.58 24.3092 336.624 24.1576C336.669 24.006 336.769 23.8771 336.906 23.7972L344.845 19.4467C344.987 19.369 345.153 19.3505 345.308 19.3954C345.463 19.4402 345.594 19.5447 345.672 19.686C345.744 19.8268 345.759 19.9897 345.714 20.1413C345.67 20.2929 345.569 20.4218 345.433 20.5017L337.493 24.8522C337.401 24.8976 337.301 24.9235 337.199 24.9283Z" fill="#EBEBEB"/>
<path d="M312.945 38.9156C312.866 38.9171 312.788 38.9026 312.714 38.8731C312.641 38.8436 312.575 38.7995 312.519 38.7437C312.463 38.6879 312.419 38.6213 312.389 38.5481C312.36 38.4748 312.345 38.3964 312.347 38.3174V26.2882C312.345 26.2093 312.36 26.1308 312.389 26.0576C312.419 25.9843 312.463 25.9178 312.519 25.862C312.575 25.8061 312.641 25.7621 312.714 25.7326C312.788 25.703 312.866 25.6886 312.945 25.69C313.104 25.69 313.256 25.7531 313.368 25.8653C313.48 25.9774 313.543 26.1296 313.543 26.2882V38.3609C313.532 38.5119 313.464 38.6531 313.353 38.7561C313.242 38.859 313.096 38.916 312.945 38.9156Z" fill="#EBEBEB"/>
<path d="M334.535 26.2443C334.431 26.2423 334.329 26.2123 334.241 26.1573L323.843 20.1101C323.773 20.0718 323.711 20.0196 323.662 19.9566C323.612 19.8936 323.576 19.8211 323.556 19.7437C323.536 19.6663 323.531 19.5856 323.543 19.5064C323.555 19.4273 323.583 19.3514 323.626 19.2835C323.705 19.1467 323.836 19.0471 323.989 19.0063C324.141 18.9655 324.304 18.987 324.441 19.066L334.839 25.1132C334.977 25.1948 335.076 25.3273 335.117 25.4819C335.158 25.6366 335.136 25.801 335.057 25.9398C335.004 26.0323 334.929 26.1093 334.837 26.1628C334.745 26.2164 334.641 26.2445 334.535 26.2443Z" fill="#EBEBEB"/>
<path d="M324.137 45.5826C324.014 45.5728 323.897 45.5252 323.802 45.4464C323.707 45.3675 323.639 45.2613 323.607 45.1422C323.574 45.0231 323.58 44.897 323.622 44.7812C323.664 44.6653 323.742 44.5653 323.843 44.495L334.241 38.4477C334.308 38.4072 334.383 38.3806 334.461 38.3695C334.539 38.3585 334.619 38.3633 334.695 38.3836C334.771 38.4039 334.842 38.4393 334.904 38.4877C334.966 38.5361 335.018 38.5965 335.056 38.6653C335.136 38.804 335.158 38.9685 335.117 39.1231C335.076 39.2778 334.976 39.4102 334.839 39.4919L324.441 45.5391C324.345 45.5799 324.24 45.5949 324.137 45.5826Z" fill="#EBEBEB"/>
<path d="M473.468 62.1144C473.361 62.1123 473.256 62.0823 473.164 62.0274L459.514 54.153C459.423 54.0995 459.349 54.023 459.297 53.9314C459.245 53.8397 459.219 53.7361 459.22 53.6309V37.8712C459.219 37.766 459.245 37.6624 459.297 37.5708C459.349 37.4791 459.423 37.4027 459.514 37.3491L473.164 29.4747C473.254 29.4211 473.357 29.3928 473.463 29.3928C473.568 29.3928 473.671 29.4211 473.762 29.4747L487.412 37.3491C487.503 37.4021 487.58 37.4782 487.633 37.5697C487.687 37.6613 487.715 37.7652 487.716 37.8712V53.5874C487.715 53.6934 487.687 53.7973 487.633 53.8889C487.58 53.9805 487.503 54.0565 487.412 54.1095L473.751 62.0274C473.666 62.0805 473.568 62.1105 473.468 62.1144ZM460.417 53.2829L473.468 60.8202L486.52 53.2829V38.2192L473.468 30.6928L460.417 38.2192V53.2829Z" fill="#EBEBEB"/>
<path d="M487.107 38.4695C486.985 38.4578 486.87 38.4088 486.776 38.3292C486.683 38.2496 486.617 38.1433 486.586 38.0246C486.555 37.9059 486.561 37.7806 486.604 37.6656C486.647 37.5506 486.724 37.4516 486.825 37.3819L494.764 33.0314C494.909 32.9549 495.077 32.9389 495.233 32.9869C495.389 33.0348 495.52 33.1427 495.596 33.287C495.673 33.4312 495.689 33.5999 495.641 33.7559C495.593 33.912 495.485 34.0426 495.341 34.119L487.401 38.4695C487.304 38.4907 487.204 38.4907 487.107 38.4695Z" fill="#EBEBEB"/>
<path d="M462.875 52.4999C462.716 52.4999 462.564 52.4369 462.452 52.3247C462.339 52.2125 462.276 52.0603 462.276 51.9017V39.8399C462.296 39.6937 462.368 39.5597 462.479 39.4626C462.59 39.3655 462.733 39.312 462.88 39.312C463.027 39.312 463.17 39.3655 463.281 39.4626C463.392 39.5597 463.464 39.6937 463.484 39.8399V51.8691C463.487 51.9509 463.473 52.0324 463.444 52.1088C463.414 52.1853 463.37 52.255 463.313 52.3139C463.256 52.3727 463.188 52.4196 463.113 52.4515C463.037 52.4835 462.956 52.4999 462.875 52.4999Z" fill="#EBEBEB"/>
<path d="M484.453 39.7856C484.347 39.7877 484.242 39.7615 484.149 39.7094L473.751 33.6622C473.679 33.6222 473.617 33.5686 473.566 33.5043C473.515 33.44 473.478 33.3664 473.456 33.2876C473.433 33.2088 473.427 33.1264 473.436 33.0452C473.446 32.9639 473.472 32.8853 473.512 32.8139C473.552 32.7424 473.605 32.6796 473.67 32.6289C473.734 32.5783 473.807 32.5407 473.886 32.5185C473.965 32.4963 474.047 32.4898 474.129 32.4994C474.21 32.5091 474.289 32.5346 474.36 32.5746L484.758 38.6218C484.893 38.7053 484.991 38.8378 485.032 38.9916C485.072 39.1455 485.052 39.309 484.975 39.4484C484.927 39.547 484.853 39.6306 484.761 39.6901C484.669 39.7496 484.563 39.7826 484.453 39.7856Z" fill="#EBEBEB"/>
<path d="M474.056 59.1342C473.932 59.1264 473.813 59.0802 473.717 59.0022C473.621 58.9241 473.551 58.818 473.517 58.6985C473.484 58.579 473.488 58.452 473.53 58.3352C473.572 58.2184 473.649 58.1175 473.751 58.0466L484.149 51.9993C484.217 51.9593 484.292 51.9331 484.37 51.9221C484.448 51.9111 484.527 51.9156 484.603 51.9353C484.68 51.955 484.751 51.9895 484.814 52.0369C484.877 52.0843 484.93 52.1436 484.97 52.2114C485.01 52.2793 485.036 52.3543 485.047 52.4323C485.058 52.5103 485.054 52.5897 485.034 52.6659C485.014 52.7422 484.98 52.8138 484.932 52.8767C484.885 52.9396 484.826 52.9926 484.758 53.0326L474.36 59.0254C474.27 59.0875 474.165 59.125 474.056 59.1342Z" fill="#EBEBEB"/>
<path d="M320.903 74.9543L89.2764 104.667L129.803 420.591L361.43 390.878L320.903 74.9543Z" fill="#EBEBEB"/>
<path d="M119.566 421.899L129.803 420.586L89.2765 104.662L79.0387 105.976L119.566 421.899Z" fill="#DBDBDB"/>
<path d="M320.906 74.9489L89.2793 104.662L93.3244 136.195L324.951 106.482L320.906 74.9489Z" fill="#DBDBDB"/>
<path d="M89.2651 104.662L79.0273 105.975L83.0724 137.508L93.3101 136.195L89.2651 104.662Z" fill="#A6A6A6"/>
<path d="M84.1204 137.374L83.5811 137.443L120.063 421.833L120.602 421.764L84.1204 137.374Z" fill="#C7C7C7"/>
<path d="M85.3636 137.217L84.8242 137.286L121.307 421.688L121.847 421.618L85.3636 137.217Z" fill="#C7C7C7"/>
<path d="M86.6053 137.05L86.0659 137.119L122.548 421.509L123.087 421.44L86.6053 137.05Z" fill="#C7C7C7"/>
<path d="M88.178 136.323L87.6396 136.394L124.913 420.247L125.452 420.177L88.178 136.323Z" fill="#C7C7C7"/>
<path d="M89.407 136.164L88.8687 136.234L126.144 420.099L126.682 420.028L89.407 136.164Z" fill="#C7C7C7"/>
<path d="M90.3211 136.57L89.7817 136.639L126.265 421.04L126.804 420.971L90.3211 136.57Z" fill="#C7C7C7"/>
<path d="M91.5623 136.413L91.0229 136.482L127.505 420.873L128.044 420.804L91.5623 136.413Z" fill="#C7C7C7"/>
<path d="M92.8055 136.257L92.2661 136.326L128.749 420.727L129.289 420.658L92.8055 136.257Z" fill="#C7C7C7"/>
<path d="M134.283 232.796L217.979 221.806L217.75 220.062L134.054 231.052L134.283 232.796Z" fill="#C7C7C7"/>
<path d="M135.842 241.002L219.696 230.245L219.472 228.497L135.618 239.254L135.842 241.002Z" fill="#C7C7C7"/>
<path d="M133.456 222.497L314.682 199.25L314.457 197.502L133.232 220.75L133.456 222.497Z" fill="#C7C7C7"/>
<path d="M131.092 204.011L312.318 180.763L312.094 179.016L130.868 202.264L131.092 204.011Z" fill="#C7C7C7"/>
<path d="M129.909 194.758L311.135 171.51L310.911 169.762L129.685 193.01L129.909 194.758Z" fill="#C7C7C7"/>
<path d="M127.534 176.273L308.76 153.025L308.536 151.278L127.31 174.525L127.534 176.273Z" fill="#C7C7C7"/>
<path d="M126.341 167.02L307.567 143.772L307.343 142.024L126.117 165.272L126.341 167.02Z" fill="#C7C7C7"/>
<path d="M137.012 250.246L220.866 239.489L220.642 237.741L136.788 248.498L137.012 250.246Z" fill="#C7C7C7"/>
<path d="M138.195 259.488L222.049 248.731L221.825 246.984L137.971 257.741L138.195 259.488Z" fill="#C7C7C7"/>
<path d="M139.388 268.741L223.242 257.985L223.018 256.237L139.164 266.994L139.388 268.741Z" fill="#C7C7C7"/>
<path d="M140.571 277.995L224.426 267.238L224.202 265.49L140.347 276.247L140.571 277.995Z" fill="#C7C7C7"/>
<path d="M141.764 287.248L225.619 276.491L225.394 274.744L141.54 285.501L141.764 287.248Z" fill="#C7C7C7"/>
<path d="M142.946 296.48L226.8 285.723L226.576 283.975L142.722 294.732L142.946 296.48Z" fill="#C7C7C7"/>
<path d="M144.139 305.733L227.993 294.976L227.769 293.228L143.915 303.985L144.139 305.733Z" fill="#C7C7C7"/>
<path d="M145.322 314.986L229.176 304.229L228.952 302.482L145.098 313.239L145.322 314.986Z" fill="#C7C7C7"/>
<path d="M147.697 333.471L231.551 322.714L231.327 320.967L147.473 331.724L147.697 333.471Z" fill="#C7C7C7"/>
<path d="M148.879 342.725L232.733 331.968L232.509 330.22L148.655 340.977L148.879 342.725Z" fill="#C7C7C7"/>
<path d="M232.022 219.25L315.876 208.493L315.652 206.745L231.798 217.502L232.022 219.25Z" fill="#C7C7C7"/>
<path d="M233.204 228.503L317.059 217.746L316.834 215.999L232.98 226.756L233.204 228.503Z" fill="#C7C7C7"/>
<path d="M234.398 237.756L318.252 227L318.028 225.252L234.174 236.009L234.398 237.756Z" fill="#C7C7C7"/>
<path d="M235.58 247.01L319.435 236.253L319.21 234.505L235.356 245.262L235.58 247.01Z" fill="#C7C7C7"/>
<path d="M236.774 256.252L320.628 245.495L320.404 243.748L236.55 254.505L236.774 256.252Z" fill="#C7C7C7"/>
<path d="M239.128 274.749L322.982 263.992L322.758 262.245L238.903 273.002L239.128 274.749Z" fill="#C7C7C7"/>
<path d="M240.321 283.992L324.175 273.235L323.951 271.487L240.097 282.244L240.321 283.992Z" fill="#C7C7C7"/>
<path d="M241.504 293.245L325.358 282.488L325.134 280.741L241.279 291.498L241.504 293.245Z" fill="#C7C7C7"/>
<path d="M242.696 302.488L326.55 291.731L326.326 289.983L242.471 300.74L242.696 302.488Z" fill="#C7C7C7"/>
<path d="M243.879 311.73L327.733 300.973L327.509 299.226L243.654 309.982L243.879 311.73Z" fill="#C7C7C7"/>
<path d="M245.072 320.983L328.926 310.227L328.702 308.479L244.847 319.236L245.072 320.983Z" fill="#C7C7C7"/>
<path d="M246.255 330.237L330.109 319.48L329.885 317.732L246.03 328.489L246.255 330.237Z" fill="#C7C7C7"/>
<path opacity="0.1" d="M119.597 114.495C119.735 115.562 119.553 116.646 119.074 117.61C118.596 118.573 117.842 119.373 116.909 119.909C115.975 120.444 114.904 120.69 113.831 120.616C112.757 120.542 111.73 120.152 110.878 119.494C110.027 118.836 109.39 117.94 109.048 116.92C108.706 115.9 108.674 114.801 108.956 113.763C109.239 112.725 109.823 111.794 110.635 111.088C111.447 110.381 112.45 109.932 113.517 109.796C114.946 109.614 116.389 110.007 117.529 110.888C118.669 111.769 119.413 113.066 119.597 114.495Z" fill="black"/>
<path d="M117.465 114.723C117.542 115.36 117.429 116.005 117.141 116.578C116.852 117.151 116.402 117.626 115.845 117.945C115.288 118.263 114.649 118.41 114.009 118.367C113.369 118.325 112.756 118.095 112.246 117.706C111.736 117.316 111.352 116.786 111.143 116.18C110.933 115.574 110.906 114.919 111.066 114.298C111.226 113.677 111.566 113.117 112.042 112.687C112.519 112.258 113.111 111.979 113.746 111.884C114.177 111.82 114.617 111.843 115.04 111.952C115.462 112.061 115.858 112.253 116.205 112.518C116.552 112.783 116.842 113.114 117.059 113.493C117.275 113.872 117.413 114.29 117.465 114.723Z" fill="#263238"/>
<path opacity="0.1" d="M147.723 110.84C147.861 111.908 147.679 112.992 147.2 113.955C146.722 114.919 145.968 115.719 145.035 116.254C144.101 116.789 143.03 117.036 141.957 116.962C140.883 116.888 139.856 116.497 139.004 115.84C138.153 115.182 137.516 114.286 137.174 113.266C136.832 112.246 136.8 111.147 137.082 110.109C137.365 109.07 137.949 108.139 138.761 107.433C139.573 106.727 140.576 106.278 141.643 106.142C143.072 105.96 144.515 106.353 145.655 107.234C146.795 108.115 147.539 109.412 147.723 110.84Z" fill="black"/>
<path d="M145.592 111.112C145.67 111.751 145.557 112.399 145.268 112.973C144.978 113.548 144.526 114.025 143.966 114.343C143.407 114.661 142.766 114.807 142.124 114.762C141.482 114.717 140.868 114.483 140.359 114.09C139.849 113.696 139.468 113.161 139.262 112.551C139.056 111.942 139.034 111.285 139.201 110.663C139.367 110.042 139.714 109.483 140.197 109.058C140.68 108.633 141.278 108.36 141.915 108.274C142.344 108.216 142.779 108.243 143.197 108.355C143.614 108.467 144.005 108.66 144.347 108.924C144.689 109.189 144.975 109.518 145.189 109.894C145.402 110.269 145.539 110.683 145.592 111.112Z" fill="#263238"/>
<path opacity="0.1" d="M175.849 107.24C175.987 108.307 175.805 109.391 175.326 110.355C174.848 111.319 174.094 112.119 173.161 112.654C172.227 113.189 171.156 113.435 170.083 113.362C169.009 113.288 167.982 112.897 167.13 112.239C166.279 111.581 165.642 110.686 165.3 109.665C164.958 108.645 164.926 107.547 165.208 106.508C165.491 105.47 166.075 104.539 166.887 103.833C167.699 103.127 168.702 102.677 169.769 102.542C171.198 102.36 172.641 102.752 173.781 103.633C174.921 104.514 175.665 105.811 175.849 107.24Z" fill="black"/>
<path d="M173.728 107.512C173.804 108.15 173.689 108.796 173.398 109.37C173.108 109.943 172.655 110.418 172.096 110.734C171.536 111.051 170.896 111.195 170.255 111.149C169.614 111.103 169.001 110.869 168.493 110.476C167.984 110.083 167.603 109.549 167.397 108.94C167.191 108.332 167.17 107.676 167.335 107.055C167.5 106.434 167.845 105.876 168.327 105.45C168.808 105.024 169.405 104.751 170.041 104.663C170.471 104.603 170.909 104.63 171.328 104.742C171.747 104.853 172.14 105.048 172.483 105.313C172.827 105.578 173.114 105.91 173.327 106.287C173.541 106.665 173.677 107.081 173.728 107.512Z" fill="#263238"/>
<path opacity="0.1" d="M204.019 103.619C204.157 104.686 203.975 105.77 203.496 106.733C203.018 107.697 202.264 108.497 201.331 109.032C200.397 109.568 199.326 109.814 198.253 109.74C197.179 109.666 196.152 109.276 195.3 108.618C194.449 107.96 193.812 107.064 193.47 106.044C193.128 105.024 193.096 103.925 193.378 102.887C193.661 101.849 194.245 100.917 195.057 100.211C195.869 99.5052 196.872 99.0558 197.939 98.92C199.368 98.7381 200.811 99.1308 201.951 100.012C203.091 100.893 203.835 102.19 204.019 103.619Z" fill="black"/>
<path d="M201.942 103.89C202.017 104.528 201.902 105.175 201.612 105.748C201.321 106.321 200.868 106.796 200.309 107.112C199.75 107.429 199.11 107.573 198.469 107.527C197.828 107.482 197.215 107.248 196.706 106.855C196.198 106.462 195.817 105.927 195.611 105.319C195.405 104.71 195.383 104.054 195.548 103.433C195.714 102.812 196.059 102.254 196.54 101.828C197.022 101.403 197.618 101.129 198.255 101.041C198.685 100.981 199.122 101.008 199.541 101.12C199.961 101.232 200.353 101.426 200.697 101.691C201.04 101.957 201.327 102.288 201.541 102.665C201.755 103.043 201.891 103.459 201.942 103.89Z" fill="#263238"/>
<path opacity="0.1" d="M232.297 99.9965C232.435 101.064 232.253 102.148 231.775 103.111C231.296 104.075 230.542 104.875 229.609 105.41C228.675 105.945 227.604 106.192 226.531 106.118C225.457 106.044 224.43 105.653 223.579 104.996C222.727 104.338 222.09 103.442 221.748 102.422C221.406 101.402 221.374 100.303 221.657 99.2647C221.939 98.2264 222.523 97.2953 223.335 96.5892C224.147 95.8831 225.15 95.4337 226.218 95.2979C227.647 95.1161 229.089 95.5087 230.229 96.3896C231.369 97.2705 232.113 98.5677 232.297 99.9965Z" fill="black"/>
<path d="M230.122 100.269C230.2 100.907 230.087 101.554 229.798 102.128C229.509 102.703 229.057 103.179 228.498 103.497C227.939 103.815 227.299 103.961 226.657 103.917C226.016 103.872 225.402 103.639 224.892 103.247C224.383 102.855 224.001 102.321 223.794 101.712C223.587 101.103 223.564 100.447 223.729 99.8255C223.894 99.204 224.239 98.645 224.72 98.2188C225.202 97.7926 225.798 97.5181 226.435 97.4298C226.864 97.3704 227.301 97.3969 227.719 97.5079C228.138 97.6189 228.53 97.8122 228.874 98.0764C229.217 98.3406 229.504 98.6706 229.718 99.0469C229.933 99.4233 230.07 99.8386 230.122 100.269Z" fill="#263238"/>
<path opacity="0.1" d="M260.358 96.3966C260.496 97.4637 260.314 98.5477 259.836 99.5114C259.357 100.475 258.603 101.275 257.67 101.81C256.737 102.346 255.665 102.592 254.592 102.518C253.518 102.444 252.491 102.054 251.64 101.396C250.788 100.738 250.151 99.842 249.809 98.8219C249.467 97.8017 249.435 96.703 249.718 95.6648C250 94.6266 250.584 93.6955 251.396 92.9894C252.208 92.2833 253.211 91.8339 254.279 91.6981C255.708 91.5162 257.15 91.9088 258.29 92.7898C259.43 93.6707 260.174 94.9679 260.358 96.3966Z" fill="black"/>
<path d="M258.237 96.6686C258.313 97.3068 258.198 97.953 257.907 98.5262C257.617 99.0994 257.164 99.574 256.604 99.8906C256.045 100.207 255.405 100.352 254.764 100.306C254.123 100.26 253.51 100.026 253.001 99.6329C252.493 99.24 252.112 98.7056 251.906 98.097C251.7 97.4883 251.678 96.8323 251.844 96.2114C252.009 95.5904 252.354 95.0322 252.836 94.6066C253.317 94.181 253.914 93.907 254.55 93.819C254.98 93.7596 255.417 93.7866 255.837 93.8983C256.256 94.01 256.649 94.2042 256.992 94.4695C257.335 94.7349 257.622 95.066 257.836 95.4436C258.05 95.8212 258.186 96.2377 258.237 96.6686Z" fill="#263238"/>
<path opacity="0.1" d="M288.517 92.7421C288.655 93.8092 288.473 94.8932 287.994 95.8569C287.516 96.8206 286.762 97.6207 285.829 98.1559C284.895 98.6911 283.824 98.9373 282.751 98.8635C281.677 98.7897 280.65 98.3991 279.798 97.7411C278.947 97.0832 278.31 96.1875 277.968 95.1673C277.626 94.1472 277.594 93.0485 277.876 92.0103C278.159 90.972 278.743 90.041 279.555 89.3348C280.367 88.6287 281.37 88.1793 282.437 88.0435C283.866 87.8617 285.309 88.2543 286.449 89.1352C287.589 90.0161 288.333 91.3133 288.517 92.7421Z" fill="black"/>
<path d="M286.385 93.0573C286.461 93.696 286.346 94.3427 286.055 94.9164C285.764 95.49 285.311 95.965 284.751 96.2815C284.191 96.5981 283.55 96.7422 282.909 96.6957C282.267 96.6492 281.654 96.4142 281.146 96.0202C280.637 95.6262 280.257 95.0908 280.052 94.4812C279.847 93.8716 279.827 93.2151 279.994 92.594C280.161 91.973 280.508 91.4152 280.991 90.9906C281.474 90.566 282.071 90.2937 282.709 90.2077C283.138 90.1499 283.574 90.178 283.992 90.2904C284.41 90.4028 284.802 90.5973 285.144 90.8625C285.486 91.1277 285.772 91.4584 285.985 91.8352C286.198 92.212 286.334 92.6274 286.385 93.0573Z" fill="#263238"/>
<path opacity="0.1" d="M316.763 89.164C316.9 90.2311 316.719 91.3151 316.24 92.2788C315.761 93.2425 315.008 94.0425 314.074 94.5777C313.141 95.1129 312.07 95.3592 310.996 95.2854C309.923 95.2115 308.895 94.8209 308.044 94.163C307.193 93.505 306.556 92.6093 306.213 91.5892C305.871 90.5691 305.839 89.4704 306.122 88.4321C306.404 87.3939 306.989 86.4628 307.801 85.7567C308.612 85.0506 309.616 84.6012 310.683 84.4654C312.112 84.2836 313.555 84.6762 314.695 85.5571C315.835 86.438 316.578 87.7352 316.763 89.164Z" fill="black"/>
<path d="M314.631 89.4792C314.706 90.1178 314.592 90.7646 314.301 91.3382C314.01 91.9119 313.556 92.3868 312.997 92.7034C312.437 93.02 311.796 93.1641 311.154 93.1176C310.513 93.0711 309.9 92.8361 309.391 92.4421C308.883 92.0481 308.503 91.5127 308.298 90.9031C308.093 90.2935 308.072 89.637 308.239 89.0159C308.406 88.3949 308.753 87.837 309.236 87.4125C309.719 86.9879 310.317 86.7155 310.954 86.6296C311.383 86.5718 311.82 86.5999 312.238 86.7123C312.656 86.8247 313.047 87.0192 313.389 87.2844C313.731 87.5496 314.017 87.8802 314.23 88.257C314.444 88.6339 314.58 89.0493 314.631 89.4792Z" fill="#263238"/>
<path d="M115.388 103.412C115.736 106.098 116.563 114.897 116.563 114.897C116.955 117.943 112.212 118.541 111.854 115.506C111.495 112.472 110.766 107.077 110.135 102.139C109.265 95.396 106.024 93.3404 103.098 93.7211C99.4546 94.1887 97.8558 98.8547 98.4431 103.51L93.7119 104.119C92.3633 93.6232 96.8552 88.892 102.021 88.272C109.874 87.2279 113.931 92.0352 115.388 103.412Z" fill="#A6A6A6"/>
<path d="M143.547 99.8009C143.895 102.487 144.721 111.286 144.721 111.286C145.113 114.332 140.371 114.93 140.012 111.895C139.653 108.861 138.924 103.466 138.293 98.5175C137.423 91.7851 134.182 89.7295 131.256 90.1101C127.613 90.5778 126.014 95.2437 126.601 99.8988L121.87 100.508C120.522 90.0122 125.024 85.2811 130.18 84.6502C138.032 83.617 142.089 88.3917 143.547 99.8009Z" fill="#A6A6A6"/>
<path d="M171.705 96.179C172.053 98.8763 172.88 107.675 172.88 107.675C173.272 110.721 168.529 111.308 168.171 108.284C167.812 105.261 167.083 99.8552 166.452 94.9065C165.593 88.174 162.341 86.1184 159.415 86.4991C155.772 86.9668 154.173 91.6327 154.76 96.2877L150.029 96.8968C148.68 86.4012 153.183 81.67 158.338 81.0392C166.202 80.0059 170.302 84.8024 171.705 96.179Z" fill="#A6A6A6"/>
<path d="M199.864 92.5681C200.212 95.2654 201.039 104.064 201.039 104.064C201.43 107.11 196.688 107.697 196.329 104.663C195.97 101.628 195.242 96.2443 194.611 91.2956C193.752 84.5632 190.5 82.5075 187.574 82.8773C183.93 83.345 182.331 88.0109 182.93 92.666L178.188 93.2751C176.839 82.7686 181.342 78.0483 186.497 77.4174C194.361 76.4277 198.407 81.1915 199.864 92.5681Z" fill="#A6A6A6"/>
<path d="M228.034 88.9572C228.371 91.6545 229.197 100.453 229.197 100.453C229.589 103.499 224.847 104.086 224.488 101.052C224.129 98.0171 223.4 92.6334 222.769 87.6847C221.91 80.9522 218.658 78.8966 215.733 79.2664C212.089 79.7341 210.49 84.4 211.088 89.0551L206.346 89.6533C204.998 79.1577 209.5 74.4265 214.656 73.8065C222.508 72.7733 226.565 77.5806 228.034 88.9572Z" fill="#A6A6A6"/>
<path d="M256.225 85.3464C256.563 88.0437 257.389 96.8427 257.389 96.8427C257.781 99.8771 253.039 100.475 252.68 97.4409C252.321 94.4064 251.592 89.0117 250.961 84.0739C250.102 77.3415 246.85 75.2858 243.935 75.6556C240.281 76.1233 238.682 80.7892 239.28 85.4443L234.538 86.0534C233.189 75.5577 237.692 70.8266 242.848 70.2066C250.679 69.1625 254.725 73.9698 256.225 85.3464Z" fill="#A6A6A6"/>
<path d="M284.351 81.7353C284.688 84.4218 285.515 93.2207 285.515 93.2207C285.906 96.2661 281.164 96.8643 280.805 93.8298C280.446 90.7953 279.718 85.4006 279.087 80.4628C278.228 73.7195 274.976 71.6748 272.061 72.0446C268.417 72.5122 266.808 77.1782 267.406 81.8332L262.664 82.4423C261.315 71.9467 265.818 67.2155 270.973 66.5955C278.837 65.5514 282.894 70.3587 284.351 81.7353Z" fill="#A6A6A6"/>
<path d="M312.51 78.1245C312.858 80.8109 313.674 89.6099 313.674 89.6099C314.065 92.6552 309.323 93.2534 308.964 90.2189C308.606 87.1844 307.877 81.7898 307.246 76.852C306.387 70.1087 303.135 68.053 300.22 68.4337C296.576 68.9014 294.967 73.5673 295.565 78.2224L290.823 78.8314C289.474 68.3358 293.977 63.6046 299.132 62.9847C306.996 61.9406 311.053 66.7479 312.51 78.1245Z" fill="#A6A6A6"/>
<path d="M207.066 435.298H14.7339V455.658H207.066V435.298Z" fill="#5375E2"/>
<path opacity="0.6" d="M207.066 435.298H14.7339V455.658H207.066V435.298Z" fill="white"/>
<path d="M170.793 455.657H189.583V435.298H170.793V455.657Z" fill="#5375E2"/>
<path d="M155.972 455.657H163.815V435.298H155.972V455.657Z" fill="#5375E2"/>
<path d="M31.8587 455.657H50.6494V435.298H31.8587L31.8587 455.657Z" fill="#5375E2"/>
<path d="M215.915 485.288H18.0986V499.73H215.915V485.288Z" fill="#455A64"/>
<path d="M70.2733 485.288H62.2031V499.73H70.2733V485.288Z" fill="#5375E2"/>
<path d="M56.8807 485.288H48.8105V499.73H56.8807V485.288Z" fill="#5375E2"/>
<path d="M196.194 485.288H188.124V499.73H196.194V485.288Z" fill="#5375E2"/>
<path d="M182.801 485.288H174.731V499.73H182.801V485.288Z" fill="#5375E2"/>
<path d="M142.894 413.749H23.1611V435.309H142.894V413.749Z" fill="#455A64"/>
<path d="M214.011 413.749H142.753V435.309H214.011V413.749Z" fill="#37474F"/>
<path d="M140.243 415.988H23.1611V433.07H140.243V415.988Z" fill="white"/>
<path d="M30.7334 429.554C39.8637 429.677 48.9904 429.763 58.1135 429.814L85.4937 429.889L112.863 429.814C121.993 429.77 131.12 429.684 140.243 429.554C131.113 429.431 121.986 429.348 112.863 429.305L85.4937 429.229L58.1135 429.305C48.9832 429.348 39.8565 429.431 30.7334 429.554Z" fill="#DBDBDB"/>
<path d="M30.7334 426.211C39.8637 426.327 48.9904 426.41 58.1135 426.46L85.4937 426.536L112.863 426.46C121.993 426.417 131.12 426.334 140.243 426.211C131.113 426.082 121.986 425.995 112.863 425.952L85.4937 425.876L58.1135 425.952C48.9832 425.959 39.8565 426.045 30.7334 426.211Z" fill="#DBDBDB"/>
<path d="M30.7334 422.858C39.8637 422.98 48.9904 423.063 58.1135 423.106L85.4937 423.182L112.863 423.106C121.993 423.063 131.12 422.98 140.243 422.858C131.113 422.728 121.986 422.641 112.863 422.598L85.4937 422.522L58.1135 422.598C48.9832 422.677 39.8565 422.764 30.7334 422.858Z" fill="#DBDBDB"/>
<path d="M30.7334 419.472C39.8637 419.594 48.9904 419.677 58.1135 419.72L85.4937 419.796L112.863 419.72C121.993 419.677 131.12 419.594 140.243 419.472C131.113 419.356 121.986 419.27 112.863 419.212L85.4937 419.136L58.1135 419.223C48.9832 419.288 39.8565 419.371 30.7334 419.472Z" fill="#DBDBDB"/>
<path d="M130.789 451.947L122.632 443.336L114.475 451.947V429.63L116.217 426.211H132.53L130.789 429.63V451.947Z" fill="#5375E2"/>
<path d="M127.684 485.288H242.959V455.657H127.684V485.288Z" fill="#37474F"/>
<path d="M-0.000106812 485.288H127.673V455.657H-0.000106812V485.288Z" fill="#263238"/>
<path d="M131.189 482.216H242.959V458.741H131.189V482.216Z" fill="white"/>
<path d="M235.722 463.565C227.01 463.443 218.298 463.36 209.586 463.316L183.461 463.241L157.325 463.316C148.613 463.36 139.9 463.443 131.188 463.565C139.893 463.688 148.605 463.771 157.325 463.814L183.461 463.89L209.586 463.814C218.305 463.771 227.017 463.688 235.722 463.565Z" fill="#DBDBDB"/>
<path d="M235.722 468.152C227.01 468.037 218.298 467.95 209.586 467.893L183.461 467.817L157.325 467.893C148.613 467.936 139.9 468.022 131.188 468.152C139.893 468.275 148.605 468.358 157.325 468.401L183.461 468.477L209.586 468.401C218.305 468.372 227.017 468.289 235.722 468.152Z" fill="#DBDBDB"/>
<path d="M235.722 472.782C227.01 472.652 218.298 472.566 209.586 472.523L183.461 472.479L157.325 472.555C148.613 472.598 139.9 472.685 131.188 472.815C139.893 472.937 148.605 473.02 157.325 473.063L183.461 473.139L209.586 473.063C218.305 472.999 227.017 472.905 235.722 472.782Z" fill="#DBDBDB"/>
<path d="M235.722 477.38C227.01 477.265 218.298 477.182 209.586 477.131L183.461 477.055L157.325 477.131C148.613 477.174 139.9 477.257 131.188 477.38C139.893 477.51 148.605 477.596 157.325 477.64L183.461 477.715L209.586 477.64C218.305 477.596 227.017 477.51 235.722 477.38Z" fill="#DBDBDB"/>
<path d="M68.9534 413.749H178.149V391.248H68.9534V413.749Z" fill="#5375E2"/>
<path d="M6.70687 413.749H68.9531V391.248H6.70687V413.749Z" fill="#5375E2"/>
<path opacity="0.2" d="M6.70679 413.749H66.1729V391.248H6.70679V413.749Z" fill="black"/>
<path d="M68.9534 411.412H178.149V393.573H68.9534V411.412Z" fill="white"/>
<path d="M171.074 397.252C162.571 397.122 154.061 397.035 145.544 396.992L120.014 396.906L94.4834 396.992C85.9805 397.035 77.4704 397.122 68.9531 397.252C77.4632 397.381 85.9733 397.468 94.4834 397.511L120.014 397.598L145.544 397.511C154.061 397.468 162.571 397.381 171.074 397.252Z" fill="#DBDBDB"/>
<path d="M171.074 400.746C162.571 400.623 154.061 400.537 145.544 400.486L120.014 400.411L94.4834 400.486C85.9805 400.53 77.4704 400.616 68.9531 400.746C77.4632 400.876 85.9733 400.966 94.4834 401.016L120.014 401.092L145.544 401.016C154.061 400.966 162.571 400.876 171.074 400.746Z" fill="#DBDBDB"/>
<path d="M171.074 404.251C162.571 404.121 154.061 404.031 145.544 403.981L120.014 403.905L94.4834 403.981C85.9805 404.031 77.4704 404.121 68.9531 404.251C77.4632 404.381 85.9733 404.467 94.4834 404.511L120.014 404.597L145.544 404.511C154.061 404.467 162.571 404.381 171.074 404.251Z" fill="#DBDBDB"/>
<path d="M171.074 407.745C162.571 407.622 154.061 407.536 145.544 407.485L120.014 407.41L94.4834 407.485C85.9805 407.529 77.4704 407.615 68.9531 407.745C77.4632 407.875 85.9733 407.965 94.4834 408.015L120.014 408.091L145.544 408.015C154.061 407.965 162.571 407.875 171.074 407.745Z" fill="#DBDBDB"/>
<path d="M88.3067 421.181L93.5859 415.61L98.865 421.181V406.75L97.7399 404.532H87.1816L88.3067 406.75V421.181Z" fill="#455A64"/>
<path d="M446.025 87.9841L459.939 353.378L312.042 364.068L312.068 364.56C312.584 374.343 309.168 384.022 302.552 391.526C295.936 399.03 286.644 403.764 276.664 404.716L275.341 404.811C274.041 404.913 272.738 404.939 271.438 404.889L264.235 403.97C262.438 403.544 260.677 402.989 258.968 402.31C258.116 402.007 257.284 401.655 256.476 401.255C256.039 401.071 255.62 400.85 255.224 400.594C254.078 400.038 252.977 399.399 251.93 398.683C251.746 398.577 251.571 398.456 251.406 398.324C250.602 397.841 249.84 397.297 249.126 396.695C248.761 396.42 248.393 396.103 247.981 395.789C243.351 391.859 239.824 386.833 237.722 381.17C237.68 381.052 237.622 380.941 237.551 380.838C237.253 379.968 236.952 379.045 236.706 378.117C236.335 376.953 236.066 375.758 235.904 374.544C235.777 374.006 235.75 373.481 235.666 372.929C235.635 372.749 235.626 372.566 235.637 372.383C235.601 371.687 235.414 371.056 235.378 370.361L221.445 104.603C220.894 94.1053 211.988 67.615 178.862 70.0093L406.098 53.5848C411.084 53.2202 416.072 53.821 420.778 55.3527C425.483 56.8844 429.814 59.3172 433.522 62.5118C437.23 65.7065 440.243 69.6004 442.388 73.9711C444.534 78.3418 445.77 83.1035 446.025 87.9841Z" fill="white"/>
<path d="M446.027 87.9849C446.112 88.1399 460.142 353.443 460.205 353.61C460.269 353.777 312.167 364.374 312.116 364.453L312.489 364.04C312.703 368.059 312.316 372.1 311.341 376.035C309.772 381.938 306.802 387.421 302.676 392.034C298.55 396.647 293.387 400.256 287.611 402.565C282.44 404.554 276.935 405.504 271.428 405.356L264.17 404.442C262.116 403.977 260.113 403.331 258.186 402.511C251.912 400.015 246.469 395.905 242.421 390.608C238.373 385.31 235.867 379.017 235.163 372.379C234.779 369.871 234.662 365.336 234.505 362.758C234.168 356.337 233.236 338.552 232.886 331.874C229.394 264.226 224.715 173.106 221.22 105.383C220.51 91.8458 212.221 78.5984 199.397 73.2413C192.948 70.6956 185.943 69.6928 178.952 70.3148L178.923 69.7583C234.064 65.9016 353.575 57.1346 407.434 53.5103C427.608 52.5355 445.091 68.2443 445.994 87.9873L446.027 87.9849ZM446.027 87.9849C445.084 68.32 427.643 52.5759 407.461 53.6157C354.145 57.3297 233.638 66.3514 178.972 70.2811L178.945 69.7567C186.027 69.1095 193.127 70.1129 199.664 72.6849C212.7 78.1019 221.098 91.5455 221.907 105.301C225.535 173.047 230.385 264.09 233.988 331.762C234.339 338.45 235.267 356.161 235.607 362.646C235.805 365.167 235.827 369.774 236.254 372.267C236.449 374.057 236.773 375.829 237.224 377.568C238.662 382.937 241.328 387.889 245.023 392.055C248.717 396.221 253.344 399.493 258.557 401.625C260.41 402.42 262.335 403.054 264.308 403.519L271.512 404.448C276.879 404.638 282.252 403.708 287.275 401.72C292.299 399.731 296.858 396.729 300.652 392.912C304.445 389.095 307.387 384.55 309.282 379.578C311.178 374.606 311.983 369.319 311.646 364.068L311.626 363.683L312.019 363.655L459.872 353.108C459.584 354.74 445.951 87.5822 445.97 87.9568L446.027 87.9849Z" fill="#263238"/>
<path d="M339.065 79.8233L417.465 74.7351L417.355 72.8539L338.954 77.9421L339.065 79.8233Z" fill="#DBDBDB"/>
<path d="M251.536 142.217L329.936 137.128L329.825 135.247L251.425 140.335L251.536 142.217Z" fill="#DBDBDB"/>
<path d="M252.234 153.587L330.635 148.499L330.524 146.617L252.124 151.706L252.234 153.587Z" fill="#DBDBDB"/>
<path d="M252.933 164.946L331.333 159.857L331.223 157.976L252.822 163.064L252.933 164.946Z" fill="#DBDBDB"/>
<path d="M253.632 176.305L332.032 171.216L331.921 169.335L253.521 174.423L253.632 176.305Z" fill="#DBDBDB"/>
<path d="M254.33 187.664L332.731 182.575L332.62 180.694L254.22 185.782L254.33 187.664Z" fill="#DBDBDB"/>
<path d="M255.029 199.023L333.43 193.934L333.319 192.053L254.918 197.141L255.029 199.023Z" fill="#DBDBDB"/>
<path d="M255.727 210.37L334.127 205.282L334.017 203.401L255.616 208.489L255.727 210.37Z" fill="#DBDBDB"/>
<path d="M256.426 221.73L334.826 216.641L334.715 214.76L256.315 219.848L256.426 221.73Z" fill="#DBDBDB"/>
<path d="M257.124 233.088L335.525 228L335.414 226.119L257.014 231.207L257.124 233.088Z" fill="#DBDBDB"/>
<path d="M257.824 244.458L336.224 239.37L336.113 237.489L257.713 242.577L257.824 244.458Z" fill="#DBDBDB"/>
<path d="M259.221 267.176L337.622 262.088L337.511 260.207L259.11 265.295L259.221 267.176Z" fill="#DBDBDB"/>
<path d="M259.919 278.535L338.32 273.447L338.209 271.566L259.809 276.654L259.919 278.535Z" fill="#DBDBDB"/>
<path d="M260.618 289.894L339.019 284.806L338.908 282.925L260.507 288.013L260.618 289.894Z" fill="#DBDBDB"/>
<path d="M261.317 301.253L339.717 296.165L339.607 294.284L261.206 299.372L261.317 301.253Z" fill="#DBDBDB"/>
<path d="M262.714 323.971L341.115 318.883L341.004 317.002L262.604 322.09L262.714 323.971Z" fill="#DBDBDB"/>
<path d="M263.413 335.33L341.813 330.242L341.703 328.361L263.302 333.449L263.413 335.33Z" fill="#DBDBDB"/>
<path d="M264.112 346.7L342.512 341.612L342.401 339.731L264.001 344.819L264.112 346.7Z" fill="#DBDBDB"/>
<path d="M339.764 91.1824L418.164 86.0942L418.053 84.213L339.653 89.3012L339.764 91.1824Z" fill="#DBDBDB"/>
<path d="M340.462 102.541L418.863 97.4531L418.752 95.5719L340.352 100.66L340.462 102.541Z" fill="#DBDBDB"/>
<path d="M341.161 113.9L419.561 108.812L419.45 106.931L341.05 112.019L341.161 113.9Z" fill="#DBDBDB"/>
<path d="M341.86 125.259L420.26 120.171L420.15 118.29L341.749 123.378L341.86 125.259Z" fill="#DBDBDB"/>
<path d="M342.558 136.618L420.959 131.53L420.848 129.649L342.448 134.737L342.558 136.618Z" fill="#DBDBDB"/>
<path d="M343.257 147.988L421.658 142.9L421.547 141.019L343.146 146.107L343.257 147.988Z" fill="#DBDBDB"/>
<path d="M343.956 159.347L422.356 154.259L422.246 152.378L343.845 157.466L343.956 159.347Z" fill="#DBDBDB"/>
<path d="M344.655 170.706L423.055 165.618L422.944 163.737L344.544 168.825L344.655 170.706Z" fill="#DBDBDB"/>
<path d="M345.353 182.065L423.754 176.977L423.643 175.096L345.243 180.184L345.353 182.065Z" fill="#DBDBDB"/>
<path d="M346.75 204.772L425.151 199.684L425.04 197.803L346.64 202.891L346.75 204.772Z" fill="#DBDBDB"/>
<path d="M347.449 216.131L425.849 211.043L425.738 209.162L347.338 214.25L347.449 216.131Z" fill="#DBDBDB"/>
<path d="M348.147 227.49L426.548 222.402L426.437 220.521L348.037 225.609L348.147 227.49Z" fill="#DBDBDB"/>
<path d="M348.847 238.86L427.247 233.772L427.136 231.891L348.736 236.979L348.847 238.86Z" fill="#DBDBDB"/>
<path d="M349.545 250.219L427.946 245.131L427.835 243.249L349.435 248.338L349.545 250.219Z" fill="#DBDBDB"/>
<path d="M350.244 261.578L428.645 256.49L428.534 254.609L350.133 259.697L350.244 261.578Z" fill="#DBDBDB"/>
<path d="M350.942 272.937L429.343 267.849L429.232 265.967L350.832 271.056L350.942 272.937Z" fill="#DBDBDB"/>
<path d="M351.641 284.296L430.042 279.208L429.931 277.326L351.53 282.415L351.641 284.296Z" fill="#DBDBDB"/>
<path d="M248.056 85.341L287.247 82.8331C300.312 82.0242 313.367 81.2159 326.437 80.4879C313.376 81.3689 300.321 82.1592 287.257 82.9951L248.056 85.341Z" fill="#DBDBDB"/>
<path d="M248.236 88.267L287.427 85.7592C300.493 84.9502 313.547 84.1419 326.617 83.4139C313.557 84.2949 300.501 85.0852 287.437 85.9211L248.236 88.267Z" fill="#DBDBDB"/>
<path d="M248.417 91.1931L287.608 88.6951C300.673 87.8864 313.728 87.0784 326.797 86.3417C313.737 87.2224 300.681 88.0124 287.617 88.848L248.417 91.1931Z" fill="#DBDBDB"/>
<path d="M248.596 94.1193L287.788 91.6214C300.853 90.8127 313.907 90.0047 326.977 89.268C313.916 90.1486 300.861 90.9386 287.797 91.7743L248.596 94.1193Z" fill="#DBDBDB"/>
<path d="M248.777 97.0544L287.968 94.5474C301.033 93.7387 314.088 92.9307 327.158 92.203C314.097 93.0747 301.038 93.8197 287.977 94.7003L248.777 97.0544Z" fill="#DBDBDB"/>
<path d="M248.957 99.9824L288.148 97.4745C301.213 96.6655 314.268 95.8572 327.338 95.1293C314.277 96.0012 301.218 96.7465 288.158 97.6365L248.957 99.9824Z" fill="#DBDBDB"/>
<path d="M249.137 102.908L288.328 100.401C301.393 99.5916 314.448 98.7833 327.518 98.0553C314.456 98.9273 301.401 99.7265 288.338 100.563L249.137 102.908Z" fill="#DBDBDB"/>
<path d="M249.317 105.834L288.508 103.327C301.573 102.518 314.628 101.709 327.698 100.981C314.637 101.862 301.582 102.653 288.518 103.489L249.317 105.834Z" fill="#DBDBDB"/>
<path d="M249.497 108.761L288.688 106.253C301.753 105.444 314.807 104.636 327.878 103.908C314.817 104.789 301.761 105.579 288.698 106.415L249.497 108.761Z" fill="#DBDBDB"/>
<path d="M249.677 111.687L288.868 109.179C301.933 108.37 314.988 107.562 328.058 106.834C314.997 107.715 301.941 108.505 288.878 109.341L249.677 111.687Z" fill="#DBDBDB"/>
<path d="M249.857 114.613L289.047 112.105C302.113 111.296 315.167 110.488 328.238 109.76C315.177 110.641 302.121 111.431 289.057 112.267L249.857 114.613Z" fill="#DBDBDB"/>
<path d="M250.037 117.539L289.229 115.041C302.294 114.232 315.348 113.424 328.418 112.688C315.357 113.568 302.302 114.358 289.238 115.194L250.037 117.539Z" fill="#DBDBDB"/>
<path d="M250.217 120.474L289.408 117.967C302.474 117.159 315.528 116.351 328.598 115.623C315.537 116.495 302.481 117.285 289.418 118.12L250.217 120.474Z" fill="#DBDBDB"/>
<path d="M250.397 123.4L289.588 120.893C302.653 120.085 315.708 119.277 328.778 118.549C315.717 119.421 302.658 120.166 289.597 121.046L250.397 123.4Z" fill="#DBDBDB"/>
<path d="M250.577 126.328L289.768 123.82C302.833 123.011 315.888 122.203 328.958 121.475C315.897 122.347 302.838 123.092 289.778 123.982L250.577 126.328Z" fill="#DBDBDB"/>
<path d="M263.75 104.943L257.61 105.381L258.879 129.214L265.019 128.777L263.75 104.943Z" fill="#5375E2"/>
<path d="M274.217 94.1479L268.012 94.5859L269.838 128.525L276.043 128.087L274.217 94.1479Z" fill="#263238"/>
<path d="M285.644 100.758L279.485 101.196L280.909 127.858L287.068 127.42L285.644 100.758Z" fill="#DBDBDB"/>
<path d="M296.177 91.1938L289.962 91.6318L291.877 127.169L298.091 126.731L296.177 91.1938Z" fill="#5375E2"/>
<path d="M307.478 95.2982L301.292 95.7361L302.942 126.501L309.127 126.063L307.478 95.2982Z" fill="#263238"/>
<path d="M319.451 112.091L313.391 112.527L314.091 125.823L320.151 125.387L319.451 112.091Z" fill="#DBDBDB"/>
<path d="M250.06 83.9819L250.822 95.368L251.542 106.768C252.018 114.364 252.439 121.965 252.85 129.566L252.44 129.245L271.623 127.862L290.796 126.48L309.985 125.203L329.168 124.033L310.006 125.617L290.829 127.116L271.657 128.498L252.104 129.907L252.086 129.557C251.686 121.955 251.286 114.353 251.006 106.743L250.515 95.3263L250.06 83.9819Z" fill="#DBDBDB"/>
<path d="M265.175 131.3L259.231 131.704L259.257 132.162L265.201 131.757L265.175 131.3Z" fill="#DBDBDB"/>
<path d="M276.199 130.622L270.255 131.027L270.281 131.484L276.225 131.079L276.199 130.622Z" fill="#DBDBDB"/>
<path d="M287.223 129.944L281.28 130.348L281.305 130.806L287.249 130.401L287.223 129.944Z" fill="#DBDBDB"/>
<path d="M298.248 129.266L292.304 129.67L292.33 130.128L298.273 129.723L298.248 129.266Z" fill="#DBDBDB"/>
<path d="M309.283 128.587L303.339 128.991L303.365 129.449L309.309 129.044L309.283 128.587Z" fill="#DBDBDB"/>
<path d="M320.307 127.909L314.363 128.313L314.389 128.771L320.332 128.366L320.307 127.909Z" fill="#DBDBDB"/>
<path d="M393.733 308.793C393.925 312.463 393.01 316.131 391.101 319.341C389.193 322.551 386.376 325.16 383.001 326.845L374.636 310.173L393.733 308.793Z" fill="#5375E2"/>
<path d="M372.126 308.811L380.496 325.487C379.92 325.765 379.342 326.021 378.774 326.244C375.134 327.621 371.181 327.907 367.425 327.064C364.424 326.371 361.655 324.97 359.355 322.983C357.055 320.997 355.293 318.482 354.22 315.655C352.882 312.124 352.679 308.253 353.638 304.555C354.406 301.596 355.891 298.848 357.967 296.548C360.042 294.248 362.646 292.464 365.553 291.351C369.19 289.96 373.147 289.673 376.902 290.531C379.905 291.217 382.676 292.612 384.978 294.595C387.28 296.579 389.044 299.092 390.117 301.918C390.777 303.675 391.165 305.524 391.269 307.406L372.126 308.811Z" fill="#5375E2"/>
<path d="M372.126 308.811L380.496 325.487C379.92 325.765 379.342 326.021 378.774 326.244C374.992 327.693 370.866 327.944 366.985 326.962C363.104 325.979 359.666 323.813 357.162 320.772C354.658 317.731 353.215 313.97 353.039 310.027C352.864 306.083 353.964 302.158 356.184 298.812C358.404 295.465 361.63 292.867 365.401 291.389C369.172 289.911 373.297 289.628 377.186 290.581C381.076 291.534 384.531 293.673 387.06 296.695C389.589 299.716 391.062 303.464 391.269 307.406L372.126 308.811Z" fill="#DBDBDB"/>
<path d="M372.104 308.782L360.431 323.832C357.902 321.967 355.905 319.499 354.626 316.653C353.346 313.807 352.824 310.676 353.108 307.546C353.392 304.417 354.472 301.39 356.25 298.744C358.028 296.097 360.446 293.917 363.282 292.402C366.118 290.887 369.281 290.087 372.481 290.075C375.68 290.063 378.814 290.839 381.593 292.333C384.372 293.826 386.708 295.989 388.385 298.622C390.063 301.255 391.029 304.274 391.194 307.402L372.104 308.782Z" fill="#455A64"/>
<path d="M404.808 331.607L390.443 332.642L371.735 316.581L371.982 316.308L390.577 332.282L404.789 331.258L404.808 331.607Z" fill="#263238"/>
<path d="M372.811 315.034L370.805 315.179L370.908 317.143L372.914 316.998L372.811 315.034Z" fill="#263238"/>
<path d="M403.966 318.025L387.813 319.178L379.75 312.324L379.997 312.054L387.947 318.822L403.948 317.68L403.966 318.025Z" fill="#263238"/>
<path d="M380.826 310.9L378.82 311.045L378.923 313.009L380.929 312.864L380.826 310.9Z" fill="#263238"/>
<path d="M403.137 304.725L378.785 306.275L378.804 306.59L403.156 305.04L403.137 304.725Z" fill="#263238"/>
<path d="M379.478 305.368L377.472 305.513L377.575 307.477L379.581 307.332L379.478 305.368Z" fill="#263238"/>
<path d="M426.263 301.483L408.561 302.693L408.645 304.212L426.348 303.001L426.263 301.483Z" fill="#EBEBEB"/>
<path d="M431.744 304.592L408.772 306.145L408.856 307.645L431.828 306.092L431.744 304.592Z" fill="#EBEBEB"/>
<path d="M421.266 308.683L408.983 309.536L409.068 311.079L421.35 310.226L421.266 308.683Z" fill="#EBEBEB"/>
<path d="M405.058 302.788L401.024 303.08L401.231 307.029L405.265 306.737L405.058 302.788Z" fill="#455A64"/>
<path d="M429.229 314.643L409.378 315.993L409.462 317.504L429.314 316.153L429.229 314.643Z" fill="#EBEBEB"/>
<path d="M426.148 318.279L409.589 319.414L409.674 320.937L426.232 319.802L426.148 318.279Z" fill="#EBEBEB"/>
<path d="M432.773 321.328L409.801 322.882L409.886 324.382L432.858 322.828L432.773 321.328Z" fill="#EBEBEB"/>
<path d="M405.875 316.08L401.841 316.372L402.048 320.321L406.082 320.029L405.875 316.08Z" fill="#5375E2"/>
<path d="M430.047 327.934L410.195 329.285L410.28 330.795L430.131 329.445L430.047 327.934Z" fill="#EBEBEB"/>
<path d="M426.966 331.581L410.408 332.717L410.492 334.24L427.05 333.104L426.966 331.581Z" fill="#EBEBEB"/>
<path d="M433.591 334.62L410.619 336.173L410.703 337.673L433.675 336.12L433.591 334.62Z" fill="#EBEBEB"/>
<path d="M406.693 329.372L402.659 329.663L402.866 333.612L406.9 333.321L406.693 329.372Z" fill="#DBDBDB"/>
<path d="M181.926 67.2116C192.027 66.4966 201.915 69.7304 209.418 76.2026C216.92 82.6747 221.424 91.8559 221.94 101.729L222.782 117.779L146.603 123.277L145.76 107.228C145.502 102.334 146.232 97.4166 147.91 92.7565C149.588 88.0965 152.181 83.7852 155.539 80.0691C158.898 76.3529 162.957 73.3047 167.484 71.0985C172.012 68.8924 176.919 67.5716 181.926 67.2116Z" fill="#DBDBDB"/>
<path d="M515.091 352.705L515.116 353.175C515.627 362.524 512.249 371.773 505.704 378.944C499.16 386.115 489.968 390.64 480.096 391.55L278.57 405.638C288.443 404.728 297.634 400.203 304.179 393.032C310.723 385.861 314.101 376.612 313.591 367.263L313.565 366.793L515.091 352.705Z" fill="#DBDBDB"/>
<path d="M78.627 525.157C214.089 524.486 366.037 524.486 501.499 525.157C366.037 525.817 214.089 525.817 78.627 525.157Z" fill="#263238"/>
<path d="M474.5 513.974C477.563 514.962 564.729 513.824 568.017 511.674C569.267 510.886 569.855 498.171 570.105 482.794V482.306C570.168 479.143 570.218 475.88 570.218 472.567C570.218 472.117 570.218 471.654 570.218 471.204L565.992 425.983L507.681 426.571L513.432 471.366L513.507 473.142L513.857 482.406V483.369C513.857 483.369 480.726 498.722 477.363 501.472C474 504.223 471.437 512.999 474.5 513.974Z" fill="#EB9481"/>
<path d="M474.5 513.974C477.563 514.962 564.729 513.824 568.017 511.674C569.267 510.886 569.855 498.171 570.105 482.793V482.306C570.168 479.143 570.218 475.88 570.218 472.567C570.218 472.117 570.218 471.654 570.218 471.204L513.432 471.366L513.507 473.142L513.857 482.406V483.369C513.857 483.369 480.726 498.721 477.363 501.472C474 504.222 471.437 512.999 474.5 513.974Z" fill="#EBEBEB"/>
<path d="M474.488 513.962C476.063 514.474 499.742 514.424 522.897 513.962C527.547 513.874 532.173 513.762 536.649 513.649C553.165 513.199 566.805 512.511 568.067 511.686C569.33 510.861 569.893 498.534 570.143 483.444C570.143 483.231 570.143 483.019 570.143 482.806C570.143 482.593 570.143 482.468 570.143 482.306H570.068L513.895 482.418V483.381C513.895 483.381 480.726 498.721 477.363 501.472C474 504.222 471.437 512.999 474.488 513.962Z" fill="#A6A6A6"/>
<path d="M475.437 510.586C490.128 510.023 549.426 509.186 563.991 509.761C564.104 509.761 564.116 509.848 563.991 509.861C549.438 510.724 490.14 511.111 475.45 510.824C475.137 510.811 475.137 510.586 475.437 510.586Z" fill="#263238"/>
<path d="M507.606 482.656C513.382 481.493 520.458 482.294 524.934 486.407C525.109 486.569 524.934 486.807 524.697 486.757C519.147 485.045 513.43 483.93 507.644 483.431C507.541 483.436 507.44 483.4 507.364 483.331C507.288 483.262 507.242 483.165 507.237 483.062C507.232 482.96 507.268 482.859 507.338 482.783C507.407 482.707 507.503 482.661 507.606 482.656Z" fill="#263238"/>
<path d="M503.468 485.219C509.231 484.069 516.32 484.869 520.796 488.97C520.971 489.12 520.796 489.37 520.546 489.307C515.002 487.592 509.288 486.482 503.505 485.994C503.403 485.999 503.302 485.963 503.226 485.894C503.15 485.825 503.104 485.728 503.099 485.625C503.094 485.523 503.13 485.422 503.199 485.346C503.269 485.27 503.365 485.224 503.468 485.219Z" fill="#263238"/>
<path d="M499.33 487.795C505.093 486.632 512.182 487.432 516.646 491.545C516.821 491.708 516.646 491.945 516.408 491.895C510.859 490.181 505.142 489.066 499.355 488.57C499.252 488.573 499.152 488.535 499.077 488.465C499.002 488.395 498.958 488.297 498.955 488.195C498.951 488.092 498.989 487.992 499.059 487.917C499.13 487.842 499.227 487.798 499.33 487.795Z" fill="#263238"/>
<path opacity="0.2" d="M522.872 513.949C527.522 513.862 532.148 513.749 536.624 513.637C553.14 513.187 566.78 512.499 568.042 511.674C569.305 510.849 569.868 498.522 570.118 483.431C570.118 483.219 570.118 483.006 570.118 482.794C570.118 482.581 570.118 482.456 570.118 482.294H570.043C562.354 487.695 535.236 505.748 522.872 513.949Z" fill="black"/>
<path d="M510.044 482.594H572.881C572.881 482.594 560.241 335.967 560.728 333.416C561.366 330.128 565.067 315.288 570.005 295.909C571.543 289.846 573.218 283.345 575.006 276.593C579.694 258.353 584.858 238.411 589.346 221.071C596.097 195.078 601.361 174.887 601.361 174.887H548.026C548.026 174.887 541.775 194.553 534.011 220.121C521.284 261.691 504.268 318.889 502.593 332.791C499.867 355.245 510.044 482.594 510.044 482.594Z" fill="#263238"/>
<path d="M512.87 471.891C522.459 471.691 519.709 471.616 529.298 471.529C533.986 471.529 564.829 471.216 569.205 471.941C569.224 471.949 569.241 471.961 569.253 471.978C569.264 471.995 569.27 472.015 569.27 472.035C569.27 472.056 569.264 472.076 569.253 472.092C569.241 472.109 569.224 472.122 569.205 472.129C564.817 472.854 533.986 472.592 529.298 472.542C519.709 472.454 522.459 472.379 512.87 472.179C512.839 472.17 512.812 472.151 512.792 472.125C512.773 472.099 512.763 472.068 512.763 472.035C512.763 472.003 512.773 471.971 512.792 471.946C512.812 471.92 512.839 471.901 512.87 471.891Z" fill="#37474F"/>
<path d="M548.864 324.464C550.914 315.388 553.99 306.499 556.665 297.584C562.116 279.481 567.592 261.39 573.093 243.312C575.844 234.269 578.603 225.234 581.37 216.207C582.783 211.644 584.183 207.08 585.608 202.53C587.033 197.979 588.596 193.653 589.859 189.165C590.372 187.339 590.647 188.339 589.997 190.665C588.671 195.341 587.359 200.029 585.996 204.705C583.295 213.948 580.574 223.192 577.832 232.435C572.397 250.847 566.909 269.221 561.366 287.558C558.599 296.776 555.828 305.986 553.052 315.188C551.651 319.565 550.519 324.024 549.664 328.54C548.921 333.27 548.732 338.07 549.102 342.843C549.702 352.445 550.814 362.034 551.702 371.598C552.59 381.162 553.49 390.802 554.377 400.353C556.144 419.457 557.895 438.569 559.628 457.689C559.853 460.098 560.062 462.519 560.254 464.953C560.316 465.765 559.741 465.865 559.653 465.09C557.591 446.187 555.34 427.071 553.577 408.142C551.814 389.214 550.039 370.485 548.276 351.644C547.839 346.919 547.339 342.18 547.326 337.429C547.356 333.064 547.871 328.715 548.864 324.464Z" fill="#37474F"/>
<path d="M554.127 174.887C557.878 203.467 564.854 257.04 569.993 295.909C581.995 248.813 601.249 174.887 601.249 174.887H554.127Z" fill="#37474F"/>
<path d="M541 514.812C544.063 515.812 631.229 515 634.53 512.862C635.78 512.061 636.418 499.359 636.718 483.981C636.718 483.819 636.718 483.656 636.718 483.494C636.793 480.331 636.843 477.068 636.855 473.754C636.855 473.304 636.855 472.854 636.855 472.392C637.055 450.2 635.455 427.171 635.455 427.171L578.482 427.546L580.07 472.342L580.132 474.117L580.445 483.394V484.344C580.445 484.344 547.214 499.584 543.838 502.322C540.462 505.06 537.95 513.849 541 514.812Z" fill="#EB9481"/>
<path d="M541 514.812C544.063 515.812 631.229 514.999 634.53 512.862C635.78 512.061 636.418 499.359 636.718 483.981C636.718 483.819 636.718 483.656 636.718 483.494C636.793 480.331 636.843 477.067 636.855 473.754C636.855 473.304 636.855 472.854 636.855 472.392H580.07L580.132 474.167L580.445 483.444V484.394C580.445 484.394 547.214 499.634 543.838 502.372C540.462 505.11 537.95 513.849 541 514.812Z" fill="#EBEBEB"/>
<path d="M541 514.812C544.063 515.812 631.229 514.999 634.529 512.861C635.779 512.061 636.417 499.359 636.717 483.981C636.717 483.819 636.717 483.656 636.717 483.494L580.457 483.394V484.344C580.457 484.344 547.226 499.584 543.85 502.322C540.474 505.06 537.949 513.849 541 514.812Z" fill="#A6A6A6"/>
<path d="M541.962 511.424C556.652 510.924 615.951 510.311 630.503 510.924C630.628 510.924 630.628 511.011 630.503 511.024C615.963 511.836 556.652 511.974 541.962 511.661C541.625 511.661 541.625 511.436 541.962 511.424Z" fill="#263238"/>
<path d="M574.231 483.619C579.994 482.481 587.083 483.306 591.534 487.37C591.709 487.532 591.534 487.77 591.296 487.707C585.753 485.978 580.04 484.846 574.256 484.331C574.172 484.319 574.095 484.278 574.039 484.214C573.982 484.151 573.949 484.07 573.947 483.986C573.944 483.901 573.97 483.818 574.022 483.751C574.074 483.684 574.148 483.637 574.231 483.619Z" fill="#263238"/>
<path d="M570.08 486.169C575.844 485.031 582.932 485.857 587.383 489.92C587.558 490.082 587.383 490.32 587.146 490.27C581.603 488.537 575.89 487.401 570.105 486.882C570.021 486.869 569.945 486.828 569.888 486.765C569.832 486.702 569.799 486.621 569.796 486.536C569.793 486.451 569.82 486.368 569.872 486.301C569.924 486.234 569.997 486.187 570.08 486.169Z" fill="#263238"/>
<path d="M565.929 488.72C571.693 487.594 578.782 488.407 583.232 492.47C583.408 492.62 583.232 492.87 582.995 492.808C577.453 491.073 571.739 489.941 565.954 489.432C565.878 489.41 565.811 489.365 565.763 489.303C565.714 489.24 565.686 489.164 565.683 489.085C565.681 489.006 565.703 488.928 565.747 488.862C565.791 488.797 565.855 488.747 565.929 488.72Z" fill="#263238"/>
<path d="M549.751 174.887C549.751 174.887 551.002 200.342 556.803 220.508C557.265 222.171 557.778 223.821 558.328 225.384C563.667 227.54 568.798 230.181 573.656 233.273C573.656 233.273 574.268 253.752 574.906 276.593C575.594 302.123 576.294 330.603 576.156 336.604C575.619 359.196 578.982 483.481 578.982 483.481L641.743 483.731C641.743 483.731 630.391 344.956 630.491 336.667C630.604 323.364 627.441 264.541 625.003 221.646C624.138 205.942 622.178 190.318 619.139 174.887H549.751Z" fill="#263238"/>
<path d="M581.107 472.367C590.696 472.204 587.933 472.117 597.523 472.067C602.224 472.067 633.054 471.904 637.443 472.642C637.53 472.642 637.53 472.817 637.443 472.842C633.054 473.542 602.211 473.142 597.523 473.079C587.933 472.942 590.684 472.879 581.107 472.642C581.071 472.642 581.036 472.627 581.01 472.602C580.984 472.576 580.97 472.541 580.97 472.504C580.97 472.468 580.984 472.433 581.01 472.407C581.036 472.381 581.071 472.367 581.107 472.367Z" fill="#37474F"/>
<path d="M616.976 183.989C618.126 218.995 619.351 254.002 620.914 289.008C622.477 324.015 630.741 449.85 632.854 469.379C632.854 469.504 632.666 469.554 632.641 469.379C628.078 434.635 625.528 383.225 623.277 348.269C621.027 313.313 619.527 278.256 618.276 243.25C617.614 223.446 617.089 203.642 616.501 183.839C616.526 183.689 616.964 183.714 616.976 183.989Z" fill="#37474F"/>
<path d="M555.715 223.871C561.957 226.479 567.959 229.625 573.656 233.273C573.704 233.298 573.74 233.341 573.757 233.392C573.773 233.444 573.768 233.5 573.743 233.548C573.719 233.596 573.676 233.632 573.624 233.649C573.572 233.665 573.516 233.66 573.468 233.635C567.417 230.697 561.229 227.872 555.353 224.596C555.256 224.548 555.183 224.464 555.149 224.362C555.115 224.26 555.123 224.149 555.171 224.052C555.219 223.956 555.304 223.883 555.406 223.849C555.508 223.815 555.619 223.823 555.715 223.871Z" fill="#37474F"/>
<path d="M555.378 202.28C555.79 204.505 556.328 206.718 556.815 208.931C557.303 211.144 557.603 213.132 558.153 215.182C558.595 217.174 559.607 218.994 561.066 220.42C561.879 221.183 562.779 221.858 563.654 222.546C564.117 222.921 564.629 223.283 565.117 223.671C565.117 223.371 565.004 223.071 564.942 222.771C564.792 221.921 564.654 221.071 564.517 220.27C564.192 218.383 563.892 216.52 563.604 214.619C563.042 210.869 562.516 207.181 561.754 203.517C561.754 203.488 561.766 203.459 561.787 203.438C561.808 203.417 561.836 203.405 561.866 203.405C561.896 203.405 561.925 203.417 561.946 203.438C561.967 203.459 561.979 203.488 561.979 203.517C562.904 207.156 563.917 210.744 564.717 214.407C565.117 216.207 566.517 225.071 566.58 225.659C566.642 226.247 566.705 226.909 566.73 227.609C566.811 228.269 566.811 228.937 566.73 229.597C566.717 229.627 566.697 229.652 566.67 229.67C566.643 229.688 566.612 229.697 566.58 229.697C566.548 229.697 566.516 229.688 566.49 229.67C566.463 229.652 566.442 229.627 566.43 229.597C566.16 228.982 565.971 228.335 565.867 227.672C565.705 227.034 565.554 226.422 565.442 225.746C565.442 225.521 565.367 225.284 565.342 225.046C564.467 224.509 563.654 223.796 562.841 223.221C562.029 222.646 561.054 221.971 560.229 221.258C558.685 219.952 557.573 218.208 557.04 216.257C556.507 214.167 556.159 212.033 556.003 209.881C555.715 207.381 555.515 204.88 555.153 202.38C555.115 202.18 555.378 202.13 555.378 202.28Z" fill="#37474F"/>
<path d="M575.944 107.187C571.393 122.09 559.066 152.958 547.188 157.196C533.098 162.285 493.291 137.668 479.901 123.928C475.038 118.927 496.154 97.2979 501.817 100.061C507.481 102.824 539.749 126.653 541.612 125.566C544.763 123.728 551.414 116.289 563.216 104.137C575.018 91.9844 578.132 100.023 575.944 107.187Z" fill="#EB9481"/>
<path d="M492.116 131.091C496.179 131.642 510.419 109.562 508.369 105.887C505.121 99.0097 503.334 91.5348 503.118 83.9328C503.205 76.9815 504.13 66.6671 500.392 66.4295C494.941 66.142 492.203 79.0444 491.09 86.5457C487.84 84.0453 484.839 82.1324 482.626 81.6948C475.425 80.2196 464.773 111.563 469.561 117.314C474.187 122.902 488.065 130.529 492.116 131.091Z" fill="#EB9481"/>
<path d="M481.473 108.455L488.03 110.687L497.837 81.8797L491.28 79.6476L481.473 108.455Z" fill="#C7C7C7"/>
<path d="M473.024 127.778L482.939 131.154L491.628 105.612L481.726 102.236L473.024 127.778Z" fill="#263238"/>
<path d="M493.291 86.2708C493.866 90.0215 489.078 88.5712 489.078 88.5712C489.078 88.5712 495.454 92.3219 494.541 96.4977C493.629 100.673 487.928 98.4731 487.515 98.3355C487.853 98.5356 493.616 102.174 492.278 106.225C490.941 110.275 485.477 107.475 485.127 107.25C485.39 107.537 488.715 111.45 486.99 114.301C484.027 119.189 475.263 109.413 470.637 109.363C470.637 109.363 469.649 117.189 469.562 117.402C469.562 117.402 461.035 108.275 461.46 102.036C461.507 101.125 461.863 100.256 462.47 99.5744C463.077 98.8925 463.898 98.4379 464.798 98.2855C464.798 98.2855 461.723 95.6475 462.673 92.422C463.173 90.7717 466.261 90.0965 466.261 90.0965C465.601 89.4657 465.126 88.6661 464.888 87.7845C464.65 86.9029 464.658 85.973 464.911 85.0956C465.724 82.8452 468.662 82.5201 468.662 82.5201C468.662 82.5201 467.411 79.3321 468.949 77.3067C472.162 73.1559 492.041 78.1318 493.291 86.2708Z" fill="#EB9481"/>
<path d="M469.111 82.3452C469.036 82.3452 469.036 82.2327 469.111 82.2327C476.329 82.2504 483.37 84.4609 489.303 88.5713C489.478 88.7089 489.303 89.0714 489.115 88.9589C482.805 85.7922 476.066 83.5642 469.111 82.3452Z" fill="#263238"/>
<path d="M466.173 90.0213C466.086 90.0213 466.173 89.8713 466.173 89.8838C474.125 89.9708 481.782 92.9075 487.752 98.1603C487.965 98.3478 487.952 98.7229 487.752 98.5229C483.501 95.1348 472.712 91.059 466.173 90.0213Z" fill="#263238"/>
<path d="M485.365 107.725C479.476 102.649 472.55 99.9733 465.036 98.248C464.936 98.248 465.036 98.0855 465.036 98.0855C468.937 97.9354 473.613 99.5358 477.138 101.086C480.441 102.465 483.324 104.685 485.502 107.525C485.677 107.637 485.54 107.837 485.365 107.725Z" fill="#263238"/>
<path d="M489.203 88.4836C489.428 88.6462 488.94 88.7837 489.203 88.9587C490.103 89.6713 495.216 94.4347 494.128 96.6851C493.253 98.473 490.24 98.548 489.065 98.1229L486.127 97.0477L488.515 99.0856C489.588 99.9732 490.505 101.034 491.228 102.224C491.607 102.762 491.866 103.376 491.986 104.023C492.107 104.67 492.087 105.336 491.928 105.974C491.778 106.554 491.435 107.066 490.955 107.425C490.476 107.784 489.889 107.969 489.29 107.95C487.954 107.857 486.664 107.427 485.539 106.699L482.339 104.824L484.739 107.637C485.408 108.417 485.975 109.278 486.427 110.2C486.895 111.059 487.096 112.039 487.002 113.013C486.933 113.449 486.743 113.858 486.453 114.191C486.164 114.525 485.787 114.771 485.364 114.901C484.388 115.078 483.38 114.969 482.464 114.588C480.441 113.809 478.485 112.868 476.613 111.775C475.663 111.25 474.7 110.725 473.712 110.25C472.754 109.717 471.692 109.398 470.599 109.312C471.664 109.526 472.676 109.951 473.575 110.563C474.512 111.1 475.425 111.688 476.338 112.276C478.149 113.522 480.075 114.594 482.089 115.476C483.178 115.963 484.384 116.128 485.564 115.951C486.204 115.792 486.783 115.447 487.228 114.96C487.673 114.473 487.964 113.865 488.065 113.213C488.211 112.011 487.998 110.793 487.452 109.713C486.965 108.676 486.347 107.705 485.614 106.825L484.814 107.762C486.144 108.634 487.678 109.142 489.265 109.237C490.146 109.266 491.01 108.982 491.703 108.437C492.374 107.892 492.863 107.155 493.103 106.324C493.296 105.527 493.318 104.699 493.167 103.893C493.016 103.087 492.696 102.322 492.228 101.649C491.41 100.355 490.384 99.2059 489.19 98.2479L488.64 99.1981C490.14 99.6982 493.528 99.9857 495.229 97.3603C496.929 93.5846 490.44 89.1963 489.203 88.4836Z" fill="#263238"/>
<path d="M489.115 88.5213C489.9 88.606 490.693 88.5681 491.466 88.4088C491.776 88.3532 492.065 88.2162 492.304 88.0119C492.544 87.8076 492.725 87.5433 492.828 87.2461C492.965 86.563 492.9 85.8549 492.641 85.2082C492.38 84.443 492.079 83.6919 491.741 82.9578C492.422 83.4728 492.988 84.1243 493.404 84.8706C493.899 85.6779 494.061 86.6467 493.854 87.5711C493.687 88.0692 493.373 88.5051 492.953 88.8213C492.543 89.0893 492.068 89.2405 491.578 89.2589C490.7 89.2808 489.837 89.0224 489.115 88.5213Z" fill="#263238"/>
<path d="M511.844 104.112L486.252 136.017C486.252 136.017 528.085 166.623 548.213 158.934C552.852 157.159 568.605 137.618 576.581 109.288C578.869 101.174 576.118 86.5833 560.641 104.024C545.163 121.465 541.812 124.315 541.112 124.353C540.412 124.39 511.844 104.112 511.844 104.112Z" fill="#EBEBEB"/>
<path d="M495.767 139.568C497.417 136.955 499.455 134.567 501.355 132.067C503.256 129.566 505.106 127.278 507.019 124.903C510.857 120.115 514.608 115.189 518.758 110.65C518.777 110.625 518.804 110.609 518.834 110.604C518.865 110.599 518.896 110.607 518.921 110.625C518.946 110.644 518.962 110.671 518.967 110.701C518.972 110.732 518.964 110.763 518.946 110.788C515.558 115.976 511.62 120.79 507.781 125.703C505.856 128.129 503.897 130.537 501.905 132.929C500.045 135.289 498.054 137.543 495.942 139.681C495.842 139.831 495.704 139.681 495.767 139.568Z" fill="#263238"/>
<path opacity="0.1" d="M576.631 109.288C568.655 137.618 552.877 157.159 548.263 158.934C543.65 160.71 537.011 160.485 529.873 158.534C542.375 139.593 562.379 109.325 571.718 95.8852C577.344 95.0225 578.156 103.774 576.631 109.288Z" fill="black"/>
<path d="M540.462 196.579L624.69 201.467C624.69 201.467 614.688 127.316 587.921 98.7231C584.608 95.1974 576.406 95.1599 570.843 97.2978C568.855 98.0604 561.704 107.512 558.903 116.339C556.102 125.165 540.275 196.291 540.462 196.579Z" fill="#5375E2"/>
<path d="M573.768 116.914L571.73 110.775L566.154 115.051L566.729 119.514L571.13 120.652L573.768 116.914Z" fill="#263238"/>
<path d="M571.131 120.652L566.867 171.124L558.878 186.189L554.54 168.661L566.73 119.514L571.131 120.652Z" fill="#263238"/>
<path d="M584.708 96.9104C581.885 112.488 580.022 128.225 579.132 144.032C576.632 204.28 581.245 311.187 582.883 318.976C583.846 323.44 635.693 315.413 635.693 315.413C635.693 315.413 630.967 191.978 613.713 143.544C597.761 98.6357 584.708 96.9104 584.708 96.9104Z" fill="#EBEBEB"/>
<path d="M623.715 231.685C617.834 232.497 611.91 232.96 605.975 233.073C597.673 233.073 589.434 232.26 587.059 232.235C586.846 232.235 586.733 232.923 586.884 232.948C593.17 233.716 599.492 234.166 605.824 234.298C611.621 234.255 617.402 233.707 623.103 232.66C623.103 234.41 623.103 235.786 623.103 237.548C617.252 238.674 605.962 240.636 587.721 238.286C587.721 237.548 587.721 233.635 587.609 232.56C587.609 232.397 586.909 232.372 586.884 232.622C586.733 233.673 586.308 243.087 586.296 245C586.296 249.701 586.571 263.016 587.746 265.591C590.409 271.43 601.761 271.442 604.912 271.467C608.062 271.492 618.202 271.805 622.002 268.091C624.028 266.104 624.503 255.327 624.165 245.787C623.99 241.224 623.978 231.772 623.715 231.685ZM605.787 270.267C595.785 270.267 591.359 268.179 589.809 266.079C588.009 263.578 587.859 259.377 587.721 254.677C587.609 250.988 587.721 239.411 587.721 239.186C593.572 240.374 609.038 241.974 623.078 238.711C623.078 244.187 623.078 248.575 623.078 254.064C623.078 258.027 622.828 264.691 620.815 267.004C619.139 268.942 613.051 270.254 605.787 270.267Z" fill="#DBDBDB"/>
<path d="M569.368 97.3728C569.368 97.3728 556.228 143.931 554.79 151.133C553.353 158.334 542.288 307.486 539.65 312.825C538.775 314.625 507.682 303.623 507.682 303.623C507.682 303.623 554.565 123.778 558.228 115.176C563.817 102.074 569.368 97.3728 569.368 97.3728Z" fill="#EBEBEB"/>
<path d="M593.384 104.262C614.7 126.378 632.716 159.659 630.378 177.838C628.053 195.803 622.052 193.191 620.301 192.84C609.562 190.628 592.034 139.631 587.02 118.227C582.432 98.6856 588.108 98.7731 593.384 104.262Z" fill="#EBEBEB"/>
<path d="M607.887 176.825C606.949 174.4 605.974 171.987 605.061 169.536L602.273 162.235C600.436 157.359 598.523 152.495 596.81 147.595C595.097 142.694 593.222 137.818 591.496 132.904C590.621 130.454 589.788 127.991 588.996 125.516C588.146 123.015 587.408 120.515 586.646 118.014C587.68 123.139 588.999 128.202 590.596 133.179C592.134 138.18 593.884 143.081 595.597 147.995C597.31 152.908 599.348 157.746 601.348 162.56C603.349 167.373 605.461 172.187 607.887 176.825Z" fill="#263238"/>
<path d="M588.271 124.415C587.94 123.559 587.556 122.724 587.121 121.915C586.909 121.502 586.696 121.09 586.459 120.665C586.244 120.232 586.002 119.815 585.733 119.414C585.822 120.365 586.103 121.288 586.559 122.127C586.986 122.988 587.566 123.763 588.271 124.415Z" fill="#263238"/>
<path d="M570.731 117.707L519.362 130.172L535.59 197.044L586.959 184.579L570.731 117.707Z" fill="#5375E2"/>
<path opacity="0.4" d="M570.731 117.707L519.362 130.172L535.59 197.044L586.959 184.579L570.731 117.707Z" fill="black"/>
<path d="M556.61 117.46L532.256 123.343L534.038 130.719L558.392 124.837L556.61 117.46Z" fill="#C7C7C7"/>
<path d="M551.089 118.814L548.089 119.527L547.263 116.126L539.975 117.889L540.8 121.29L537.799 122.015L536.299 115.814L549.626 112.601L551.089 118.814Z" fill="#C7C7C7"/>
<path d="M623.64 192.678C615.663 194.416 605.124 188.927 577.556 171.924C573.743 169.561 583.12 138.168 587.321 140.493C592.609 143.394 612.525 155.796 613.863 156.896C625.178 166.098 629.053 191.503 623.64 192.678Z" fill="#EB9481"/>
<path d="M597.348 148.982C597.348 148.982 589.121 139.131 583.183 135.305C576.915 131.487 569.815 129.248 562.491 128.779C554.59 128.241 535.099 132.392 535.311 138.218C535.511 143.481 555.215 138.218 555.215 138.218C555.215 138.218 534.249 140.256 535.649 146.557C537.049 152.858 559.578 145.469 559.578 145.469C559.578 145.469 538.074 148.045 540.55 154.308C542.413 159.047 563.204 153.508 563.204 153.508C563.204 153.508 544.726 155.846 546.438 160.797C548.339 166.273 567.842 162.36 567.842 162.36C574.318 174.225 582.507 177.075 588.396 178.538C589.834 178.863 597.348 148.982 597.348 148.982Z" fill="#EB9481"/>
<path d="M562.428 137.03C559.928 137.18 557.428 137.318 555.002 137.68C552.577 138.043 550.114 138.505 547.701 139.105C544.545 139.829 541.479 140.902 538.562 142.306C543.925 140.181 552.677 138.718 555.127 138.355C557.578 137.993 560.003 137.493 562.441 137.105L562.428 137.03Z" fill="#263238"/>
<path d="M563.929 145.857C560.779 146.182 557.678 146.394 554.502 146.857C551.327 147.32 548.464 148.045 545.376 148.72C545.138 148.72 545.251 148.882 545.488 148.832C548.601 148.282 551.514 148.007 554.615 147.495C557.715 146.982 560.866 146.332 563.942 145.932C563.992 145.919 563.967 145.844 563.929 145.857Z" fill="#263238"/>
<path d="M566.63 153.196C561.789 153.586 557.001 154.47 552.34 155.834C552.102 155.896 552.265 156.021 552.503 155.984C557.241 155.008 560.942 154.221 566.643 153.371C566.63 153.358 566.63 153.196 566.63 153.196Z" fill="#263238"/>
<path d="M597.035 144.832L589.659 183.089C589.659 183.089 619.239 199.217 625.065 192.253C629.854 186.514 624.353 166.323 616.814 158.622C613.676 155.408 597.035 144.832 597.035 144.832Z" fill="#EBEBEB"/>
<path d="M596.785 146.107L597.098 144.856H596.998C599.761 146.782 602.549 148.682 605.287 150.632C608.025 152.583 610.775 154.521 613.413 156.596C614.731 157.6 615.983 158.685 617.164 159.847C618.303 161.052 619.336 162.353 620.252 163.735C622.083 166.546 623.454 169.631 624.315 172.874C623.787 169.51 622.615 166.28 620.865 163.36C619.985 161.886 618.95 160.511 617.777 159.259C616.584 158.04 615.31 156.904 613.963 155.858C611.288 153.783 608.512 151.858 605.699 149.995C602.886 148.132 599.986 146.394 597.035 144.744H596.96V144.831L596.785 146.107Z" fill="#263238"/>
<path d="M603.799 153.658C603.311 155.546 602.973 157.484 602.548 159.397C602.123 161.31 601.823 163.235 601.498 165.16C600.835 168.998 600.185 172.849 599.598 176.712C599.435 177.763 599.273 178.825 599.135 179.875C598.998 180.926 598.973 182.163 598.81 183.289C598.816 183.302 598.826 183.313 598.838 183.321C598.85 183.329 598.864 183.334 598.879 183.334C598.893 183.334 598.908 183.329 598.92 183.321C598.932 183.313 598.942 183.302 598.948 183.289C599.123 182.351 599.435 181.426 599.635 180.488C599.835 179.55 600.023 178.538 600.21 177.562C600.56 175.637 600.898 173.724 601.236 171.799C601.898 167.961 602.486 164.11 603.086 160.234C603.398 158.059 603.761 155.858 603.949 153.671C603.999 153.558 603.824 153.533 603.799 153.658Z" fill="#263238"/>
<path d="M590.384 179.675C590.259 180.838 590.096 181.976 589.946 183.126L589.834 182.888C599.148 187.314 608.587 192.515 618.889 193.89C620.363 194.049 621.854 193.917 623.277 193.503C621.895 194.144 620.388 194.469 618.864 194.453C608.262 194.015 598.498 188.677 589.609 183.276L589.471 183.176C589.771 182.013 590.059 180.838 590.384 179.675Z" fill="#263238"/>
<path d="M572.618 111.338C577.232 112.326 584.945 105.087 587.934 99.3857C588.134 98.9981 587.446 94.8974 586.846 89.884C586.496 86.8459 586.171 83.4453 586.108 80.3322C586.108 79.6946 566.642 85.5207 566.642 85.5207C567.841 89.3984 568.564 93.4078 568.792 97.4604C568.791 97.879 568.758 98.297 568.692 98.7106C568.686 98.7813 568.686 98.8524 568.692 98.9231C568.317 101.399 568.167 110.388 572.618 111.338Z" fill="#EB9481"/>
<path d="M586.359 85.0831C579.557 95.7475 570.681 95.0849 568.63 94.8474C568.231 91.6871 567.561 88.5668 566.63 85.5207C566.63 85.5207 586.083 79.6946 586.096 80.3322C586.146 81.87 586.233 83.4828 586.359 85.0831Z" fill="#263238"/>
<path d="M590.772 56.2651C592.372 63.3414 587.234 83.07 582.02 87.1582C574.406 93.0968 562.679 92.8468 557.828 83.8576C553.115 75.106 560.266 49.5513 566.067 45.9132C574.556 40.5122 588.409 45.7631 590.772 56.2651Z" fill="#EB9481"/>
<path d="M570.293 68.0549C570.293 68.0549 570.38 68.155 570.368 68.205C569.98 69.4552 569.768 71.093 570.855 71.8431C570.855 71.8431 570.855 71.9306 570.855 71.9181C569.418 71.3305 569.718 69.2426 570.293 68.0549Z" fill="#263238"/>
<path d="M571.831 66.9671C574.018 67.3547 573.081 71.693 571.068 71.3304C569.055 70.9679 570.005 66.6546 571.831 66.9671Z" fill="#263238"/>
<path d="M562.478 66.092C562.478 66.092 562.366 66.092 562.353 66.1921C562.103 67.5423 561.603 69.0551 560.291 69.2301C560.291 69.2301 560.291 69.3051 560.291 69.3176C561.816 69.4177 562.466 67.4173 562.478 66.092Z" fill="#263238"/>
<path d="M561.629 64.4417C559.503 63.8166 558.416 68.1049 560.379 68.68C562.341 69.2551 563.367 65.0168 561.629 64.4417Z" fill="#263238"/>
<path d="M573.819 65.5669C573.237 65.3946 572.665 65.19 572.106 64.9543C571.472 64.8227 570.897 64.4893 570.468 64.0042C570.367 63.8228 570.328 63.6134 570.358 63.4079C570.387 63.2025 570.483 63.0123 570.63 62.8664C570.964 62.6228 571.356 62.4724 571.767 62.4306C572.178 62.3889 572.593 62.4573 572.968 62.6289C573.781 62.8707 574.479 63.3993 574.931 64.1167C575.024 64.2866 575.065 64.4797 575.05 64.6726C575.035 64.8655 574.964 65.0499 574.846 65.2033C574.728 65.3568 574.569 65.4729 574.386 65.5374C574.204 65.602 574.007 65.6122 573.819 65.5669Z" fill="#A6A6A6"/>
<path d="M560.153 62.0413C560.748 62.1685 561.349 62.2645 561.953 62.3288C562.566 62.5356 563.229 62.5356 563.841 62.3288C564.017 62.2214 564.151 62.0585 564.224 61.8661C564.296 61.6736 564.302 61.4626 564.241 61.2662C564.068 60.8908 563.797 60.5694 563.455 60.336C563.114 60.1027 562.716 59.9661 562.303 59.9409C561.454 59.7335 560.558 59.8635 559.803 60.3035C559.661 60.4184 559.553 60.57 559.491 60.7419C559.429 60.9138 559.416 61.0993 559.452 61.2784C559.488 61.4575 559.572 61.6232 559.696 61.7577C559.82 61.8922 559.978 61.9903 560.153 62.0413Z" fill="#A6A6A6"/>
<path d="M569.242 80.3073C568.855 80.5448 568.442 80.9199 567.992 80.8449C567.497 80.7336 567.032 80.5161 566.629 80.2073C566.629 80.2073 566.529 80.2073 566.554 80.2073C566.69 80.513 566.906 80.7764 567.179 80.97C567.451 81.1636 567.771 81.2802 568.105 81.3075C568.384 81.2848 568.65 81.1819 568.872 81.011C569.094 80.8402 569.262 80.6088 569.355 80.3448C569.392 80.3198 569.305 80.2698 569.242 80.3073Z" fill="#263238"/>
<path d="M568.693 75.9812C568.236 76.4379 567.692 76.7966 567.092 77.0353C566.492 77.2739 565.85 77.3875 565.204 77.369C564.639 77.3536 564.079 77.2568 563.542 77.0814C563.438 77.0609 563.337 77.0273 563.242 76.9814C563.142 76.9549 563.045 76.9172 562.954 76.8689C562.886 76.8416 562.83 76.7921 562.793 76.7286C562.757 76.6651 562.743 76.5912 562.754 76.5188C562.748 76.4731 562.748 76.427 562.754 76.3813V76.2688C562.942 75.2311 563.379 73.6808 563.379 73.6808C562.967 73.7933 560.879 74.2434 560.991 73.6808C562.112 69.048 563.7 64.5408 565.73 60.2283C565.741 60.1968 565.765 60.1712 565.795 60.1572C565.826 60.1431 565.861 60.1417 565.892 60.1533C565.924 60.1649 565.949 60.1886 565.963 60.219C565.977 60.2495 565.979 60.2843 565.967 60.3158C564.967 64.6041 563.204 68.6799 562.129 72.9807C562.879 72.8078 563.649 72.7405 564.417 72.7806C564.554 72.8556 563.529 75.7687 563.479 76.2438C564.302 76.5028 565.168 76.5954 566.026 76.5159C566.885 76.4365 567.719 76.1867 568.48 75.7812C568.705 75.7812 568.793 75.8937 568.693 75.9812Z" fill="#263238"/>
<path d="M564.267 76.694C564.675 77.5554 565.299 78.2964 566.079 78.8444C566.512 79.1303 567.024 79.2745 567.542 79.257C568.667 79.257 568.905 78.2193 568.892 77.3316C568.879 76.8629 568.812 76.3973 568.692 75.9438C567.336 76.6616 565.784 76.9245 564.267 76.694Z" fill="#263238"/>
<path d="M566.079 78.8443C566.512 79.1303 567.023 79.2745 567.542 79.2569C568.667 79.2569 568.905 78.2192 568.892 77.3315C568.321 77.2304 567.733 77.3247 567.223 77.5992C566.712 77.8737 566.309 78.3124 566.079 78.8443Z" fill="#FF9ABB"/>
<path d="M586.783 75.6564C583.282 74.5187 584.857 65.4045 584.857 65.4045C584.857 65.4045 580.694 62.904 580.769 54.39C580.769 54.39 576.231 61.9789 561.653 57.4655C561.675 54.741 562.55 52.0917 564.154 49.8891C562.215 52.1933 560.467 54.6519 558.928 57.2405C558.928 57.2405 557.677 44.2006 568.992 41.7501C573.518 40.775 579.857 42.3002 588.708 48.8764C588.708 48.8764 591.634 43.3879 592.621 44.3506C593.609 45.3133 590.446 50.3767 590.446 50.3767C590.446 50.3767 594.959 49.8266 595.522 50.8518C596.084 51.877 591.684 52.102 591.684 52.102C593.48 53.1252 594.848 54.7612 595.537 56.7105C596.225 58.6597 596.189 60.7918 595.434 62.7165C593.134 69.4177 588.521 76.269 586.783 75.6564Z" fill="#A6A6A6"/>
<path d="M590.521 51.7518C592.418 52.0291 594.148 52.9907 595.384 54.4555C596.621 55.9202 597.279 57.7868 597.235 59.7033C597.023 61.9169 596.314 64.0539 595.159 65.9544C593.973 67.9586 592.541 69.8066 590.896 71.4554C590.809 71.5554 590.671 71.3929 590.759 71.3054C592.218 69.7415 593.429 67.9619 594.347 66.0294C595.321 64.2315 596.005 62.2904 596.372 60.2784C596.628 58.3998 596.162 56.4942 595.07 54.9448C593.977 53.3954 592.339 52.3171 590.483 51.9268C590.383 51.9393 590.383 51.7268 590.521 51.7518Z" fill="#A6A6A6"/>
<path d="M577.882 41.2625C580.318 42.2979 582.608 43.6471 584.695 45.2757C586.742 46.7351 588.526 48.5318 589.971 50.5892C590.046 50.7017 589.909 50.8267 589.821 50.7267C586.444 47.2893 582.47 44.4934 578.094 42.4752C574.106 40.5124 569.13 39.6122 565.317 42.4752C565.317 42.4752 565.179 42.4752 565.229 42.3752C568.755 39.2621 573.818 39.5747 577.882 41.2625Z" fill="#A6A6A6"/>
<path d="M557.878 72.5183C555.69 71.9057 554.652 68.7676 555.565 65.417C556.477 62.0664 559.003 59.916 561.191 60.5161C563.379 61.1162 564.416 64.2668 563.504 67.6174C562.591 70.968 560.116 73.0934 557.878 72.5183ZM560.978 61.2662C559.228 60.7911 557.228 62.729 556.377 65.592C555.527 68.455 556.377 71.1805 558.103 71.6556C559.828 72.1307 561.853 70.2054 562.704 67.3423C563.554 64.4793 562.766 61.7788 561.028 61.2662H560.978Z" fill="#37474F"/>
<path d="M571.38 76.2691C570.149 76.022 569.02 75.4097 568.142 74.512C567.264 73.6142 566.676 72.4727 566.456 71.2361C566.236 69.9996 566.393 68.7254 566.907 67.5796C567.422 66.4337 568.27 65.4695 569.34 64.8124C570.41 64.1554 571.654 63.8361 572.909 63.8961C574.163 63.956 575.371 64.3926 576.373 65.1487C577.376 65.9049 578.128 66.9456 578.531 68.1353C578.934 69.3249 578.969 70.6084 578.632 71.8183C578.255 73.3669 577.281 74.7039 575.923 75.5376C574.565 76.3714 572.932 76.6343 571.38 76.2691ZM574.468 65.017C573.447 64.6463 572.338 64.5921 571.286 64.8615C570.233 65.131 569.286 65.7116 568.569 66.5274C567.852 67.3433 567.397 68.3566 567.265 69.4348C567.132 70.5131 567.328 71.6063 567.826 72.5716C568.325 73.5369 569.102 74.3295 570.058 74.8458C571.014 75.3621 572.104 75.5782 573.184 75.4658C574.265 75.3533 575.286 74.9177 576.115 74.2157C576.944 73.5137 577.543 72.5779 577.832 71.5307C578.248 70.2209 578.128 68.7995 577.497 67.5783C576.867 66.3571 575.777 65.4359 574.468 65.017Z" fill="#37474F"/>
<path d="M567.879 68.1925C565.166 66.3172 563.529 66.9423 563.516 66.9423L563.204 66.1672C563.279 66.1672 565.229 65.3545 568.355 67.5174L567.879 68.1925Z" fill="#37474F"/>
<path d="M578.382 71.1181L578.444 70.293C578.994 70.293 587.559 70.7305 588.909 71.0306C590.259 71.3307 593.097 74.0687 593.41 74.3812L592.885 75.0188C591.711 73.7742 590.348 72.7235 588.846 71.9058C587.684 71.6182 582.995 71.5307 578.382 71.1181Z" fill="#37474F"/>
<path d="M583.67 74.2435C583.67 74.2435 588.783 68.2174 591.571 70.1052C594.359 71.993 590.071 81.0197 586.508 81.9824C586.059 82.1351 585.584 82.1958 585.112 82.1608C584.639 82.1259 584.178 81.996 583.757 81.7789C583.336 81.5618 582.963 81.262 582.66 80.8974C582.357 80.5329 582.131 80.1109 581.995 79.657L583.67 74.2435Z" fill="#EB9481"/>
<path d="M590.271 72.6558V72.7558C587.77 73.5059 586.282 75.6188 585.182 77.8567C585.344 77.6279 585.554 77.437 585.798 77.2973C586.041 77.1575 586.311 77.0722 586.591 77.0473C586.87 77.0223 587.151 77.0583 587.416 77.1527C587.68 77.2471 587.92 77.3977 588.12 77.5942C588.183 77.5942 588.12 77.7442 588.045 77.7192C587.634 77.5444 587.179 77.501 586.743 77.595C586.306 77.689 585.91 77.9158 585.607 78.2443C585.105 78.799 584.665 79.4069 584.295 80.0571C584.157 80.2572 583.782 80.0571 583.882 79.8696C584.132 76.7315 586.945 72.6558 590.271 72.6558Z" fill="#263238"/>
<path d="M568.792 97.8104L572.017 108.962L587.883 97.3728L590.258 102.811C590.258 102.811 574.305 121.24 574.368 120.315L571.342 110.913L564.128 116.026L566.954 100.848L568.792 97.8104Z" fill="#5375E2"/>
<path d="M565.017 108.438C565.58 105.937 566.067 103.437 566.742 100.936C566.742 100.849 566.917 100.836 566.917 100.936C567.08 103.437 564.905 112.963 564.555 115.276C564.855 115.051 571.193 110.813 571.243 110.9C571.968 112.438 574.206 119.277 574.331 119.89C576.832 116.964 587.421 105.512 590.297 102.811C590.372 102.736 590.509 102.811 590.434 102.924C588.121 106.075 574.419 121.227 574.269 121.152C573.041 117.902 571.99 114.589 571.118 111.226C570.006 112.188 563.517 117.077 563.554 116.702C563.892 113.922 564.38 111.164 565.017 108.438Z" fill="#263238"/>
<path d="M501.393 78.1443C500.452 78.0973 499.518 77.9591 498.604 77.7317L497.954 77.5567L497.379 77.3817L496.979 77.2566L491.141 75.1188C491.671 75.3191 492.214 75.4862 492.766 75.6189C493.232 75.7316 493.703 75.8192 494.179 75.8814C494.616 75.8814 495.079 75.9939 495.554 76.0189C507.106 76.6815 518.571 64.8919 521.146 49.7641C523.134 38.0494 519.283 27.7476 512.119 23.3217C511.227 22.7706 510.281 22.3139 509.294 21.959L515.145 24.0719C515.395 24.1594 515.633 24.2594 515.883 24.3719L516.508 24.647L516.795 24.797L517.258 25.0345L517.52 25.1846C522.009 27.7726 525.259 32.6235 526.672 38.6871C526.747 38.9996 526.81 39.3122 526.872 39.6247C527.646 43.6619 527.667 47.8071 526.935 51.852C524.409 67.0173 512.945 78.7694 501.393 78.1443Z" fill="#37474F"/>
<path d="M475.675 47.126C473.049 62.5663 479.101 75.8813 489.577 79.732L495.416 81.8574C484.939 78.1067 478.901 64.6917 481.514 49.2514C484.552 31.4356 498.004 17.6081 511.519 18.3707C512.619 18.4357 513.711 18.5989 514.782 18.8583C515.423 19.0061 516.053 19.194 516.67 19.4209L510.831 17.308C509.176 16.7041 507.44 16.3502 505.68 16.2578C492.153 15.4827 478.7 29.3227 475.675 47.126Z" fill="#37474F"/>
<path d="M530.61 52.0268C533.248 36.5365 527.147 23.1215 516.62 19.3833L515.908 19.1458H515.708C515.42 19.0583 515.132 18.9832 514.832 18.9207C514.307 18.7957 513.782 18.6832 513.245 18.6082C512.707 18.5332 512.144 18.4706 511.582 18.4331C498.029 17.6705 484.577 31.5106 481.576 49.3138C480.661 54.4271 480.771 59.6715 481.901 64.7416C482.06 65.4501 482.247 66.1502 482.464 66.842C482.676 67.5297 482.902 68.1923 483.164 68.8549C483.402 69.5021 483.673 70.1364 483.977 70.7553C484.114 71.0678 484.264 71.3679 484.427 71.6804C484.885 72.5435 485.394 73.3785 485.952 74.1809C486.315 74.7185 486.702 75.2311 487.102 75.7312C488.845 77.9395 491.046 79.7437 493.553 81.0196C493.732 81.1173 493.916 81.2049 494.104 81.2822L495.016 81.6823H495.091C495.834 81.9819 496.599 82.2244 497.379 82.4074C498.451 82.6617 499.543 82.8207 500.642 82.8825C514.12 83.6826 527.597 69.8551 530.61 52.0268ZM501.392 78.1441C500.452 78.0971 499.518 77.9589 498.604 77.7315L497.954 77.5565L497.379 77.3815C496.257 77.0093 495.183 76.5057 494.179 75.8812C487.002 71.4679 483.152 61.166 485.139 49.4513C487.715 34.2736 499.192 22.4839 510.744 23.1965C511.207 23.1965 511.669 23.2715 512.119 23.334C512.591 23.3962 513.058 23.4838 513.52 23.5966C514.069 23.7309 514.612 23.8937 515.145 24.0842C515.395 24.1717 515.633 24.2717 515.883 24.3842L516.508 24.6593L516.795 24.8093L517.258 25.0469L517.52 25.1969C522.009 27.7849 525.259 32.6357 526.672 38.6994C526.747 39.0119 526.81 39.3245 526.872 39.637C527.646 43.6742 527.667 47.8195 526.935 51.8643C524.409 67.0171 512.945 78.7692 501.392 78.1441Z" fill="#455A64"/>
<path opacity="0.4" d="M495.554 76.0189C495.079 76.0189 494.617 75.9439 494.179 75.8814C487.003 71.4681 483.152 61.1662 485.14 49.4515C487.715 34.2737 499.192 22.4841 510.745 23.1967C511.207 23.1967 511.67 23.2717 512.12 23.3342C519.284 27.76 523.134 38.0619 521.146 49.7766C518.571 64.8918 507.106 76.6815 495.554 76.0189Z" fill="white"/>
<g opacity="0.3">
<path d="M520.034 33.761L487.678 40.8998C488.436 39.1059 489.334 37.3752 490.366 35.7238L518.146 29.5852C518.911 30.9118 519.543 32.3105 520.034 33.761Z" fill="#EBEBEB"/>
<path d="M514.396 25.0096L495.93 29.0853C500.305 25.1221 505.519 22.8342 510.745 23.1592C511.207 23.1592 511.67 23.2342 512.12 23.2967C512.929 23.7976 513.691 24.3709 514.396 25.0096Z" fill="#EBEBEB"/>
<path d="M520.984 37.0368L486.265 44.7007C486.515 43.8755 486.802 43.0504 487.102 42.2002L520.433 34.8489C520.646 35.5865 520.833 36.2616 520.984 37.0368Z" fill="#EBEBEB"/>
<path d="M513.508 66.78C512.694 67.7855 511.817 68.7376 510.882 69.6306L491.616 73.8813C490.982 73.3053 490.397 72.678 489.866 72.006L513.508 66.78Z" fill="#EBEBEB"/>
<path d="M518.634 58.2531L486.228 65.4044C485.227 62.4888 484.687 59.4349 484.627 56.3528L521.359 48.2388C521.297 48.7264 521.222 49.2139 521.147 49.714C520.645 52.6488 519.802 55.5146 518.634 58.2531Z" fill="#EBEBEB"/>
</g>
<path d="M670.997 52.2736C670.997 56.4082 669.849 60.4614 667.68 63.9814C665.511 67.5014 662.407 70.3497 658.714 72.2085C655.021 74.0674 650.884 74.8639 646.764 74.509C642.645 74.1542 638.705 72.662 635.385 70.1989L624.448 72.9899L629.002 62.7994C627.401 59.8079 626.504 56.4907 626.378 53.1002C626.252 49.7096 626.901 46.335 628.275 43.2328C629.649 40.1306 631.712 37.3825 634.308 35.1975C636.903 33.0125 639.963 31.4481 643.254 30.6232C646.545 29.7984 649.981 29.7347 653.3 30.4371C656.62 31.1396 659.735 32.5896 662.41 34.677C665.085 36.7643 667.248 39.4341 668.736 42.4833C670.224 45.5324 670.998 48.8807 670.997 52.2736Z" fill="white"/>
<path d="M670.997 52.2738C671.203 65.1363 659.53 75.8893 646.733 74.7642C642.553 74.4483 638.544 72.9722 635.157 70.502L635.482 70.5669L624.567 73.4444L623.615 73.6932L624.015 72.7954L628.526 62.5941V63.0484C626.073 58.4411 625.281 53.1296 626.284 48.0072C627.287 42.8848 630.023 38.264 634.032 34.9219C648.691 22.8274 670.976 33.2992 670.976 52.2954L670.997 52.2738ZM670.997 52.2738C671.062 38.0158 657.107 27.1438 643.325 30.93C629.781 34.2836 622.771 50.3266 629.456 62.5616L629.586 62.7888L629.478 63.016L624.88 73.174L624.329 72.5249L635.287 69.8204H635.471L635.612 69.9286C650.108 80.9088 670.911 70.4587 670.997 52.317V52.2738Z" fill="#263238"/>
<path d="M645.067 65.558L635.06 55.4325L638.424 52.1114L644.266 58.0288L656.404 38.9893L660.385 41.5315L645.067 65.558Z" fill="#5375E2"/>
</svg>
