<!-- 
https://www.figma.com/ 
I used this resource to layout my images and pages for this program
https://undraw.co/ 
I used this resource to find free vector stock images for my program so the images 
are displayed with high-quality 
 -->
<svg width="870" height="870" viewBox="0 0 870 870" fill="none" xmlns="http://www.w3.org/2000/svg">
<g clip-path="url(#clip0_9_4)">
<path d="M606.437 130.966H517.157V16.3521H583.451L606.437 38.189V130.966Z" fill="#EBEBEB"/>
<path d="M583.451 16.3521L606.437 38.189H583.451V16.3521Z" fill="#DBDBDB"/>
<path d="M525.875 38.5371L575.517 38.5371V35.5965L525.875 35.5965V38.5371Z" fill="#DBDBDB"/>
<path d="M525.875 45.9668L575.517 45.9668V43.0262L525.875 43.0262V45.9668Z" fill="#DBDBDB"/>
<path d="M525.875 53.3967L575.517 53.3967V50.4561L525.875 50.4561V53.3967Z" fill="#DBDBDB"/>
<path d="M525.875 60.8264L598.607 60.8264V57.8858L525.875 57.8858V60.8264Z" fill="#DBDBDB"/>
<path d="M525.875 68.2563L598.607 68.2563V65.3157L525.875 65.3157V68.2563Z" fill="#DBDBDB"/>
<path d="M525.875 75.6687L598.607 75.6687V72.7281L525.875 72.7281V75.6687Z" fill="#DBDBDB"/>
<path d="M525.875 83.0984L598.607 83.0984V80.1578L525.875 80.1578V83.0984Z" fill="#DBDBDB"/>
<path d="M525.875 90.5283L598.607 90.5283V87.5877L525.875 87.5877V90.5283Z" fill="#DBDBDB"/>
<path d="M525.875 97.958L598.607 97.958V95.0174L525.875 95.0174V97.958Z" fill="#DBDBDB"/>
<path d="M525.875 105.388L598.607 105.388V102.447L525.875 102.447V105.388Z" fill="#DBDBDB"/>
<path d="M525.875 112.818L598.607 112.818V109.877L525.875 109.877V112.818Z" fill="#DBDBDB"/>
<path d="M525.875 120.248L598.607 120.248V117.307L525.875 117.307V120.248Z" fill="#DBDBDB"/>
<path d="M612.473 141.404C620.456 138.077 624.23 128.907 620.902 120.925C617.574 112.942 608.405 109.168 600.422 112.496C592.439 115.824 588.665 124.993 591.993 132.976C595.321 140.959 604.49 144.732 612.473 141.404Z" fill="#C7C7C7"/>
<path d="M614.197 122.979H598.677V137.073H614.197V122.979Z" fill="white"/>
<path d="M612.649 127.329H611.1V121.1C611.139 120.467 611.048 119.833 610.832 119.237C610.617 118.64 610.281 118.095 609.847 117.633C609.413 117.171 608.888 116.803 608.306 116.551C607.724 116.3 607.097 116.17 606.463 116.17C605.829 116.17 605.202 116.3 604.62 116.551C604.038 116.803 603.513 117.171 603.079 117.633C602.644 118.095 602.309 118.64 602.094 119.237C601.878 119.833 601.787 120.467 601.826 121.1V127.381H600.242V121.1C600.242 119.453 600.897 117.873 602.062 116.708C603.227 115.543 604.807 114.888 606.454 114.888C608.102 114.888 609.682 115.543 610.847 116.708C612.012 117.873 612.666 119.453 612.666 121.1L612.649 127.329Z" fill="white"/>
<path d="M607.098 130.2L607.742 133.28H604.993L605.636 130.2C605.44 130.075 605.279 129.903 605.166 129.699C605.054 129.496 604.994 129.267 604.993 129.035C604.993 128.67 605.137 128.32 605.395 128.063C605.653 127.805 606.003 127.66 606.367 127.66C606.732 127.66 607.082 127.805 607.339 128.063C607.597 128.32 607.742 128.67 607.742 129.035C607.741 129.267 607.681 129.496 607.568 129.699C607.456 129.903 607.294 130.075 607.098 130.2Z" fill="#C7C7C7"/>
<path d="M572.634 155.615L572.86 244.79C572.865 245.976 572.636 247.151 572.186 248.249C571.736 249.346 571.075 250.344 570.24 251.186C569.404 252.028 568.411 252.697 567.318 253.155C566.224 253.613 565.05 253.851 563.864 253.856L422.437 254.221C421.251 254.223 420.076 253.992 418.98 253.54C417.883 253.089 416.887 252.425 416.046 251.588C415.206 250.751 414.539 249.757 414.083 248.662C413.627 247.568 413.391 246.394 413.389 245.208L413.163 156.033C413.158 154.93 413.371 153.837 413.79 152.817C414.208 151.796 414.823 150.868 415.601 150.086C416.378 149.304 417.302 148.683 418.32 148.258C419.338 147.833 420.429 147.614 421.532 147.611L564.212 147.246C565.315 147.241 566.408 147.454 567.428 147.873C568.449 148.291 569.377 148.906 570.159 149.684C570.941 150.461 571.563 151.385 571.987 152.403C572.412 153.421 572.632 154.512 572.634 155.615Z" fill="#EBEBEB"/>
<path d="M549.84 232.297C549.844 233.939 549.36 235.544 548.451 236.911C547.542 238.278 546.248 239.344 544.733 239.976C543.217 240.607 541.549 240.775 539.938 240.458C538.327 240.141 536.847 239.354 535.684 238.196C534.521 237.037 533.727 235.56 533.403 233.951C533.08 232.341 533.241 230.672 533.866 229.154C534.491 227.636 535.552 226.338 536.915 225.423C538.278 224.508 539.881 224.018 541.523 224.015C542.613 224.012 543.693 224.225 544.7 224.64C545.708 225.055 546.624 225.664 547.397 226.433C548.169 227.202 548.782 228.116 549.202 229.122C549.621 230.128 549.838 231.207 549.84 232.297Z" fill="#DBDBDB"/>
<path d="M560.071 232.262C560.075 233.903 559.592 235.508 558.683 236.874C557.775 238.241 556.482 239.307 554.968 239.939C553.453 240.571 551.786 240.74 550.176 240.424C548.566 240.109 547.085 239.323 545.921 238.167C544.757 237.01 543.962 235.535 543.637 233.926C543.311 232.318 543.47 230.65 544.092 229.131C544.714 227.613 545.773 226.314 547.133 225.397C548.494 224.48 550.096 223.987 551.737 223.98C552.828 223.975 553.91 224.186 554.92 224.6C555.929 225.014 556.848 225.623 557.622 226.392C558.396 227.162 559.011 228.076 559.431 229.083C559.851 230.091 560.069 231.171 560.071 232.262Z" fill="#5375E2"/>
<path d="M449.192 162.842L433.88 162.882C429.844 162.893 426.58 166.174 426.591 170.21L426.607 176.282C426.617 180.318 429.898 183.582 433.934 183.571L449.246 183.531C453.282 183.52 456.545 180.24 456.535 176.204L456.519 170.131C456.508 166.095 453.228 162.832 449.192 162.842Z" fill="#5375E2"/>
<path d="M554.242 173.92H540.705C539.959 173.922 539.219 173.777 538.529 173.493C537.839 173.209 537.211 172.792 536.683 172.265C536.154 171.738 535.735 171.112 535.449 170.422C535.162 169.733 535.015 168.994 535.015 168.248C535.013 167.504 535.157 166.766 535.441 166.078C535.724 165.39 536.14 164.765 536.665 164.238C537.191 163.711 537.815 163.293 538.502 163.007C539.189 162.722 539.926 162.575 540.67 162.575H554.207C554.953 162.571 555.692 162.714 556.382 162.996C557.072 163.278 557.7 163.694 558.229 164.219C558.757 164.745 559.177 165.37 559.463 166.058C559.75 166.747 559.897 167.485 559.897 168.23C559.899 168.975 559.755 169.713 559.472 170.402C559.189 171.091 558.773 171.718 558.248 172.246C557.723 172.775 557.099 173.195 556.412 173.482C555.724 173.769 554.987 173.918 554.242 173.92Z" fill="white"/>
<path d="M502.459 224.943L426.735 225.141L426.744 228.864L502.469 228.666L502.459 224.943Z" fill="#DBDBDB"/>
<path d="M480.383 233.283L426.774 233.423L426.783 237.147L480.393 237.007L480.383 233.283Z" fill="#DBDBDB"/>
<path d="M529.805 162.632L492.03 162.73L492.04 166.454L529.815 166.355L529.805 162.632Z" fill="#DBDBDB"/>
<path d="M430.093 205.136H429.571V210.791H430.093V205.136Z" fill="#C7C7C7"/>
<path d="M432.651 207.711H426.996V208.233H432.651V207.711Z" fill="#C7C7C7"/>
<path d="M431.649 205.772L427.638 209.783L428.007 210.152L432.018 206.141L431.649 205.772Z" fill="#C7C7C7"/>
<path d="M428.024 205.789L427.655 206.158L431.666 210.169L432.035 209.8L428.024 205.789Z" fill="#C7C7C7"/>
<path d="M436.897 205.136H436.375V210.791H436.897V205.136Z" fill="#C7C7C7"/>
<path d="M439.472 207.711H433.817V208.233H439.472V207.711Z" fill="#C7C7C7"/>
<path d="M438.461 205.781L434.462 209.78L434.831 210.149L438.83 206.15L438.461 205.781Z" fill="#C7C7C7"/>
<path d="M434.817 205.768L434.448 206.137L438.446 210.137L438.815 209.768L434.817 205.768Z" fill="#C7C7C7"/>
<path d="M443.718 205.136H443.196V210.791H443.718V205.136Z" fill="#C7C7C7"/>
<path d="M446.275 207.711H440.62V208.233H446.275V207.711Z" fill="#C7C7C7"/>
<path d="M441.63 210.147L441.264 209.782L445.266 205.78L445.649 206.145L441.63 210.147Z" fill="#C7C7C7"/>
<path d="M445.266 210.147L441.264 206.145L441.63 205.78L445.649 209.782L445.266 210.147Z" fill="#C7C7C7"/>
<path d="M450.521 205.136H449.999V210.791H450.521V205.136Z" fill="#C7C7C7"/>
<path d="M453.096 207.711H447.441V208.233H453.096V207.711Z" fill="#C7C7C7"/>
<path d="M448.45 210.147L448.085 209.782L452.087 205.78L452.452 206.145L448.45 210.147Z" fill="#C7C7C7"/>
<path d="M452.087 210.147L448.085 206.145L448.45 205.78L452.452 209.782L452.087 210.147Z" fill="#C7C7C7"/>
<path d="M465.398 205.136H464.876V210.791H465.398V205.136Z" fill="#C7C7C7"/>
<path d="M467.956 207.711H462.301V208.233H467.956V207.711Z" fill="#C7C7C7"/>
<path d="M463.327 210.147L462.944 209.782L466.946 205.78L467.329 206.145L463.327 210.147Z" fill="#C7C7C7"/>
<path d="M466.946 210.147L462.944 206.145L463.327 205.78L467.329 209.782L466.946 210.147Z" fill="#C7C7C7"/>
<path d="M472.201 205.136H471.679V210.791H472.201V205.136Z" fill="#C7C7C7"/>
<path d="M474.777 207.711H469.122V208.233H474.777V207.711Z" fill="#C7C7C7"/>
<path d="M470.131 210.147L469.765 209.782L473.767 205.78L474.133 206.145L470.131 210.147Z" fill="#C7C7C7"/>
<path d="M473.767 210.147L469.765 206.145L470.131 205.78L474.133 209.782L473.767 210.147Z" fill="#C7C7C7"/>
<path d="M479.022 205.136H478.5V210.791H479.022V205.136Z" fill="#C7C7C7"/>
<path d="M481.58 207.711H475.925V208.233H481.58V207.711Z" fill="#C7C7C7"/>
<path d="M476.951 210.147L476.569 209.782L480.571 205.78L480.953 206.145L476.951 210.147Z" fill="#C7C7C7"/>
<path d="M480.571 210.147L476.569 206.145L476.951 205.78L480.953 209.782L480.571 210.147Z" fill="#C7C7C7"/>
<path d="M485.843 205.136H485.321V210.791H485.843V205.136Z" fill="#C7C7C7"/>
<path d="M488.401 207.711H482.746V208.233H488.401V207.711Z" fill="#C7C7C7"/>
<path d="M483.755 210.147L483.389 209.782L487.391 205.78L487.757 206.145L483.755 210.147Z" fill="#C7C7C7"/>
<path d="M487.391 210.147L483.389 206.145L483.755 205.78L487.757 209.782L487.391 210.147Z" fill="#C7C7C7"/>
<path d="M500.702 205.136H500.18V210.791H500.702V205.136Z" fill="#C7C7C7"/>
<path d="M503.278 207.711H497.623V208.233H503.278V207.711Z" fill="#C7C7C7"/>
<path d="M498.632 210.147L498.266 209.782L502.268 205.78L502.634 206.145L498.632 210.147Z" fill="#C7C7C7"/>
<path d="M502.268 210.147L498.266 206.145L498.632 205.78L502.634 209.782L502.268 210.147Z" fill="#C7C7C7"/>
<path d="M507.523 205.136H507.001V210.791H507.523V205.136Z" fill="#C7C7C7"/>
<path d="M510.081 207.711H504.426V208.233H510.081V207.711Z" fill="#C7C7C7"/>
<path d="M505.435 210.147L505.07 209.782L509.072 205.78L509.455 206.145L505.435 210.147Z" fill="#C7C7C7"/>
<path d="M509.072 210.147L505.07 206.145L505.435 205.78L509.455 209.782L509.072 210.147Z" fill="#C7C7C7"/>
<path d="M514.327 205.136H513.805V210.791H514.327V205.136Z" fill="#C7C7C7"/>
<path d="M516.902 207.711H511.247V208.233H516.902V207.711Z" fill="#C7C7C7"/>
<path d="M512.256 210.147L511.891 209.782L515.893 205.78L516.258 206.145L512.256 210.147Z" fill="#C7C7C7"/>
<path d="M515.893 210.147L511.891 206.145L512.256 205.78L516.258 209.782L515.893 210.147Z" fill="#C7C7C7"/>
<path d="M521.148 205.136H520.625V210.791H521.148V205.136Z" fill="#C7C7C7"/>
<path d="M523.705 207.711H518.05V208.233H523.705V207.711Z" fill="#C7C7C7"/>
<path d="M519.059 210.147L518.694 209.782L522.696 205.78L523.079 206.145L519.059 210.147Z" fill="#C7C7C7"/>
<path d="M522.696 210.147L518.694 206.145L519.059 205.78L523.079 209.782L522.696 210.147Z" fill="#C7C7C7"/>
<path d="M536.007 205.136H535.485V210.791H536.007V205.136Z" fill="#C7C7C7"/>
<path d="M538.582 207.711H532.927V208.233H538.582V207.711Z" fill="#C7C7C7"/>
<path d="M533.936 210.147L533.571 209.782L537.573 205.78L537.938 206.145L533.936 210.147Z" fill="#C7C7C7"/>
<path d="M537.573 210.147L533.571 206.145L533.936 205.78L537.938 209.782L537.573 210.147Z" fill="#C7C7C7"/>
<path d="M542.828 205.136H542.306V210.791H542.828V205.136Z" fill="#C7C7C7"/>
<path d="M545.386 207.711H539.731V208.233H545.386V207.711Z" fill="#C7C7C7"/>
<path d="M540.757 210.147L540.375 209.782L544.394 205.78L544.759 206.145L540.757 210.147Z" fill="#C7C7C7"/>
<path d="M544.394 210.147L540.375 206.145L540.757 205.78L544.759 209.782L544.394 210.147Z" fill="#C7C7C7"/>
<path d="M549.649 205.136H549.127V210.791H549.649V205.136Z" fill="#C7C7C7"/>
<path d="M552.207 207.711H546.552V208.233H552.207V207.711Z" fill="#C7C7C7"/>
<path d="M547.561 210.147L547.195 209.782L551.197 205.78L551.563 206.145L547.561 210.147Z" fill="#C7C7C7"/>
<path d="M551.197 210.147L547.195 206.145L547.561 205.78L551.563 209.782L551.197 210.147Z" fill="#C7C7C7"/>
<path d="M556.452 205.136H555.93V210.791H556.452V205.136Z" fill="#C7C7C7"/>
<path d="M559.01 207.711H553.355V208.233H559.01V207.711Z" fill="#C7C7C7"/>
<path d="M554.381 210.147L553.999 209.782L558.001 205.78L558.383 206.145L554.381 210.147Z" fill="#C7C7C7"/>
<path d="M558.001 210.147L553.999 206.145L554.381 205.78L558.383 209.782L558.001 210.147Z" fill="#C7C7C7"/>
<path d="M588.28 256.267C589.669 247.73 583.875 239.684 575.338 238.296C566.802 236.907 558.756 242.701 557.367 251.238C555.978 259.774 561.773 267.82 570.309 269.209C578.846 270.598 586.892 264.803 588.28 256.267Z" fill="#C7C7C7"/>
<path d="M580.621 249.819H565.1V263.913H580.621V249.819Z" fill="white"/>
<path d="M579.072 254.169H577.506V247.87C577.434 246.689 576.914 245.581 576.052 244.77C575.19 243.96 574.052 243.508 572.869 243.508C571.686 243.508 570.548 243.96 569.686 244.77C568.824 245.581 568.304 246.689 568.232 247.87V254.169H566.648V247.87C566.648 246.223 567.303 244.643 568.468 243.478C569.633 242.313 571.213 241.658 572.86 241.658C574.508 241.658 576.088 242.313 577.253 243.478C578.418 244.643 579.072 246.223 579.072 247.87V254.169Z" fill="white"/>
<path d="M573.521 257.04L574.165 260.12H571.416L572.06 257.04C571.864 256.915 571.702 256.743 571.589 256.539C571.477 256.335 571.417 256.107 571.416 255.874C571.416 255.51 571.561 255.16 571.819 254.902C572.076 254.644 572.426 254.5 572.791 254.5C573.155 254.5 573.505 254.644 573.763 254.902C574.02 255.16 574.165 255.51 574.165 255.874C574.164 256.107 574.104 256.335 573.992 256.539C573.879 256.743 573.718 256.915 573.521 257.04Z" fill="#C7C7C7"/>
<path d="M103.289 131.542L208.917 149.218L221.74 72.5925L116.112 54.9164L103.289 131.542Z" fill="#EBEBEB"/>
<path d="M108.401 127.881L205.259 144.09L216.612 76.2507L119.753 60.0421L108.401 127.881Z" fill="white"/>
<path d="M127.94 81.2162C127.677 82.801 127.889 84.4283 128.55 85.8925C129.211 87.3567 130.292 88.5921 131.655 89.4424C133.018 90.2928 134.602 90.72 136.208 90.6701C137.814 90.6203 139.369 90.0955 140.677 89.1622C141.984 88.2288 142.986 86.9288 143.555 85.4264C144.124 83.924 144.235 82.2866 143.874 80.7212C143.512 79.1558 142.695 77.7326 141.525 76.6314C140.356 75.5303 138.886 74.8006 137.301 74.5346C135.174 74.1822 132.994 74.6877 131.239 75.9402C129.484 77.1928 128.298 79.0901 127.94 81.2162Z" fill="#DBDBDB"/>
<path d="M153.866 120.471L207.736 129.501L186.909 88.4722L153.866 120.471Z" fill="#DBDBDB"/>
<path d="M132.76 116.956L177.217 124.403L158.964 96.9111L132.76 116.956Z" fill="#EBEBEB"/>
<path d="M207.739 129.46L110.88 113.251L108.433 127.873L205.292 144.082L207.739 129.46Z" fill="#EBEBEB"/>
<path d="M72.956 155.758H180.053V78.0668L72.956 78.0668L72.956 155.758Z" fill="#EBEBEB"/>
<path d="M77.393 151.286H175.599V82.5039L77.393 82.5039L77.393 151.286Z" fill="white"/>
<path d="M88.8596 102.061C88.8562 103.673 89.3308 105.249 90.2235 106.59C91.1162 107.932 92.3868 108.978 93.8745 109.597C95.3622 110.216 97 110.38 98.5808 110.068C100.162 109.755 101.614 108.981 102.755 107.843C103.895 106.705 104.673 105.254 104.988 103.674C105.304 102.094 105.144 100.455 104.528 98.9665C103.912 97.4775 102.868 96.2047 101.529 95.3091C100.189 94.4136 98.6142 93.9356 97.0028 93.9355C94.8461 93.9355 92.7775 94.7911 91.2509 96.3145C89.7242 97.8379 88.8642 99.9046 88.8596 102.061Z" fill="#DBDBDB"/>
<path d="M120.998 136.496H175.616L148.298 99.4688L120.998 136.496Z" fill="#DBDBDB"/>
<path d="M99.5781 136.513H144.679L122.129 112.397L99.5781 136.513Z" fill="#EBEBEB"/>
<path d="M175.599 136.479H77.3931V151.303H175.599V136.479Z" fill="#EBEBEB"/>
<path d="M338.865 551.581H185.327V764.053H338.865V551.581Z" fill="#EBEBEB"/>
<path d="M346.312 543.699H177.898V551.581H346.312V543.699Z" fill="#DBDBDB"/>
<path d="M399.261 543.699H346.295V551.581H399.261V543.699Z" fill="#EBEBEB"/>
<path d="M390.891 551.581H338.865V764.053H390.891V551.581Z" fill="#DBDBDB"/>
<path d="M322.352 649.944H201.84V581.84H322.352V649.944ZM202.292 649.509H321.9V582.24H202.275L202.292 649.509Z" fill="#C7C7C7"/>
<path d="M268.743 601.728H245.288V615.213H268.743V601.728Z" fill="#C7C7C7"/>
<path d="M275.894 614.413H252.004V602.529H275.894V614.413ZM252.439 613.978H275.459V602.964H252.439V613.978Z" fill="#C7C7C7"/>
<path d="M322.352 735.482H201.84V667.344H322.352V735.482ZM202.292 735.047H321.9V667.779H202.275L202.292 735.047Z" fill="#C7C7C7"/>
<path d="M268.743 687.267H245.288V700.752H268.743V687.267Z" fill="#C7C7C7"/>
<path d="M275.894 699.951H252.004V688.067H275.894V699.951ZM252.439 699.516H275.459V688.502H252.439V699.516Z" fill="#C7C7C7"/>
<path d="M89.6797 797.122L176.019 796.687L262.34 796.548L435 796.252L607.66 796.531L693.982 796.687L780.32 797.122L693.982 797.54L607.66 797.697L435 797.992L262.34 797.697L176.019 797.54L89.6797 797.122Z" fill="#263238"/>
<path d="M179.742 873.474C222.294 873.474 256.789 866.852 256.789 858.684C256.789 850.515 222.294 843.894 179.742 843.894C137.19 843.894 102.695 850.515 102.695 858.684C102.695 866.852 137.19 873.474 179.742 873.474Z" fill="#EBEBEB"/>
<path d="M466.268 887.046C632.536 887.046 767.323 873.826 767.323 857.518C767.323 841.21 632.536 827.99 466.268 827.99C300 827.99 165.213 841.21 165.213 857.518C165.213 873.826 300 887.046 466.268 887.046Z" fill="#EBEBEB"/>
<path d="M572.196 590.963L567.133 621.378L532.768 806.914H527.235L552.221 621.378L555.91 590.963H572.196Z" fill="#C7C7C7"/>
<path d="M555.91 590.963H572.196L567.133 621.378H552.221L555.91 590.963Z" fill="#A6A6A6"/>
<path d="M680.093 806.914H674.56L640.195 621.378L635.132 590.963H651.418L655.107 621.378L680.093 806.914Z" fill="#C7C7C7"/>
<path d="M651.418 590.963L655.107 621.378H640.195L635.132 590.963H651.418Z" fill="#A6A6A6"/>
<path d="M783.154 806.914H777.603L743.256 621.378L738.175 590.963H754.461L758.167 621.378L783.154 806.914Z" fill="#C7C7C7"/>
<path d="M758.167 621.378H743.256L738.175 590.963H754.461L758.167 621.378Z" fill="#A6A6A6"/>
<path d="M774.367 605.249H522.606V578.731H616.845L665.93 303.776H799.562L774.367 605.249Z" fill="#C7C7C7"/>
<path d="M773.288 578.731H522.606V605.249H774.228L773.288 578.731Z" fill="#DBDBDB"/>
<path d="M774.367 605.249H760.638L786.495 303.776H799.562L774.367 605.249Z" fill="#DBDBDB"/>
<path d="M777.481 265.287C773.601 261.024 757.715 249.105 743.986 242.667C737.339 239.483 717.26 232.401 714.406 237.325C711.553 242.25 717.277 244.842 717.277 244.842C717.277 244.842 708.334 243.102 705.95 248.322C703.566 253.542 712.527 257.283 712.527 257.283C712.527 257.283 703.235 256.187 701.217 261.546C699.199 266.905 708.856 269.167 708.856 269.167C708.856 269.167 700.399 267.775 700.608 272.891C700.852 279.051 716.72 279.851 723.907 283.766C725.542 284.636 755.714 303.967 755.714 303.967L777.481 265.287Z" fill="#EB9481"/>
<path d="M708.977 269.22C720.653 269.846 725.664 272.16 735.077 278.824C735.269 278.946 735.495 278.703 735.321 278.546C726.725 271.186 720.862 267.393 709.012 268.645C708.403 268.715 708.421 269.185 708.977 269.22Z" fill="#263238"/>
<path d="M712.04 257.022C724.116 258.762 729.562 261.181 739.88 267.462C740.037 267.462 740.193 267.306 740.054 267.201C730.414 260.241 724.498 256.57 712.214 256.448C711.709 256.413 711.535 256.935 712.04 257.022Z" fill="#263238"/>
<path d="M718.269 244.947C729.84 247.452 735.93 249.871 745.187 257.231C745.413 257.405 745.692 257.109 745.483 256.918C736.783 248.479 729.196 245.399 718.391 244.599C717.643 244.547 717.538 244.79 718.269 244.947Z" fill="#263238"/>
<path d="M760.76 310.51C760.76 310.51 746.213 308.648 740.002 306.421C733.79 304.194 713.78 287.42 717.138 282.861C721.505 276.997 735.008 284.41 741.15 288.899C741.15 288.899 751.242 275.327 762.03 278.546C772.818 281.765 760.76 310.51 760.76 310.51Z" fill="#EB9481"/>
<path d="M718.861 281.643C726.708 279.172 734.382 285.593 740.663 289.508C740.754 289.57 740.858 289.61 740.967 289.623C741.077 289.636 741.187 289.622 741.29 289.582C741.393 289.543 741.484 289.479 741.557 289.397C741.63 289.314 741.681 289.215 741.707 289.108C746.318 283.696 754.391 277.415 761.856 278.146C761.902 278.146 761.947 278.127 761.979 278.095C762.012 278.062 762.03 278.018 762.03 277.972C762.03 277.926 762.012 277.881 761.979 277.849C761.947 277.816 761.902 277.798 761.856 277.798C753.956 275.936 745.517 281.469 740.837 287.716C734.468 283.592 726.482 277.502 718.774 281.574C718.791 281.591 718.826 281.661 718.861 281.643Z" fill="#263238"/>
<path d="M637.794 250.567C643.014 248.253 663.285 242.093 678.475 241.693C685.836 241.501 707.064 243.189 707.655 248.844C708.247 254.499 701.983 254.551 701.983 254.551C701.983 254.551 710.839 256.605 710.909 262.329C710.979 268.054 701.252 267.845 701.252 267.845C701.252 267.845 710.196 270.612 709.865 276.336C709.534 282.061 699.773 280.199 699.773 280.199C699.773 280.199 708.073 282.357 705.811 286.95C703.079 292.483 688.237 286.776 680.094 287.403C678.249 287.542 642.84 292.936 642.84 292.936L637.794 250.567Z" fill="#EB9481"/>
<path d="M699.634 280.269C688.707 276.11 683.191 276.18 671.916 278.529C671.689 278.529 671.568 278.268 671.794 278.198C682.651 274.962 689.542 273.883 699.86 279.851C700.365 280.042 700.156 280.46 699.634 280.269Z" fill="#263238"/>
<path d="M701.739 267.862C690.012 264.522 684.043 264.539 672.055 266.122C671.881 266.122 671.829 265.861 672.055 265.827C683.695 263.356 690.586 262.347 701.878 267.323C702.331 267.462 702.279 268.019 701.739 267.862Z" fill="#263238"/>
<path d="M701.008 254.36C689.42 251.941 682.877 251.681 671.428 254.639C671.402 254.648 671.374 254.652 671.346 254.65C671.319 254.648 671.291 254.641 671.266 254.629C671.241 254.617 671.219 254.6 671.2 254.579C671.182 254.558 671.168 254.534 671.159 254.508C671.149 254.482 671.145 254.454 671.147 254.426C671.149 254.398 671.156 254.371 671.168 254.346C671.18 254.321 671.197 254.299 671.218 254.28C671.238 254.262 671.263 254.247 671.289 254.238C682.686 250.08 690.847 250.341 701.06 253.995C701.739 254.203 701.739 254.464 701.008 254.36Z" fill="#263238"/>
<path d="M635.48 296.938C635.48 296.938 649.522 301.149 656.082 301.636C662.641 302.123 687.837 294.954 686.601 289.456C684.983 282.322 669.636 283.609 662.241 285.228C662.241 285.228 658.535 268.715 647.329 267.253C636.124 265.792 635.48 296.938 635.48 296.938Z" fill="#EB9481"/>
<path d="M685.54 287.611C679.38 282.148 669.758 284.897 662.432 285.871C662.324 285.893 662.213 285.888 662.107 285.856C662.001 285.825 661.905 285.768 661.826 285.691C661.747 285.614 661.688 285.519 661.655 285.414C661.621 285.309 661.613 285.197 661.632 285.088C659.631 278.285 654.811 269.254 647.712 266.888C647.503 266.888 647.573 266.505 647.712 266.557C655.699 268.054 661.162 276.528 662.885 284.149C670.384 282.966 680.163 280.669 685.505 287.49C685.627 287.594 685.592 287.646 685.54 287.611Z" fill="#263238"/>
<path d="M677.814 357.385C638.003 346.632 575.311 310.632 581.07 293.301C586.656 276.458 610.163 258.849 640.23 249.488C644.615 248.113 643.71 257.318 645.746 273.361C646.738 280.947 660.049 301.392 653.628 301.34C650.272 301.442 646.965 302.18 643.884 303.515C641.535 304.42 669.775 323.281 685.557 335.113C706.82 350.982 694.814 361.962 677.814 357.385Z" fill="#EB9481"/>
<path d="M620.342 345.171L664.468 317.54C664.468 317.54 690.968 333.652 697.528 342.578C704.088 351.504 698.92 361.161 678.388 361.179C654.776 361.196 620.342 345.171 620.342 345.171Z" fill="#5375E2"/>
<g opacity="0.1">
<path d="M675.761 324.813H652.88L656.951 322.272H671.95L675.761 324.813Z" fill="black"/>
<path d="M687.401 333.165H639.517L643.571 330.624H684.043L687.401 333.165Z" fill="black"/>
<path d="M696.641 341.499H626.206L630.26 338.959H694.222C695.145 339.846 695.962 340.699 696.641 341.499Z" fill="black"/>
<path d="M700.173 349.851H631.478C629.059 348.912 626.936 348.111 625.214 347.311H699.86C700.089 348.138 700.194 348.994 700.173 349.851Z" fill="black"/>
<path d="M697.668 355.663C696.654 356.689 695.478 357.542 694.188 358.186H657.23C654.133 357.42 651.07 356.568 648.095 355.663H697.668Z" fill="black"/>
</g>
<path d="M632 348.564C649.765 337.706 667.357 325.456 670.28 323.073C670.402 322.968 670.28 322.777 670.106 322.846C656.847 330.569 644.064 339.081 631.826 348.337C631.796 348.36 631.776 348.395 631.771 348.432C631.767 348.47 631.777 348.508 631.8 348.538C631.823 348.568 631.857 348.587 631.894 348.592C631.932 348.597 631.97 348.587 632 348.564Z" fill="#263238"/>
<path d="M678.354 361.179C669.684 360.903 661.086 359.505 652.776 357.02C664.312 349.277 678.023 340.142 688.063 333.687C691.56 336.258 694.732 339.244 697.511 342.578C704.053 351.487 698.903 361.161 678.354 361.179Z" fill="#263238"/>
<path d="M532.35 842.271C537.257 842.741 670.558 810.951 674.752 806.671C675.274 806.184 672.646 794.073 668.801 777.543V777.213C666.382 766.773 627.563 682.035 627.563 682.035L541.155 706.116L580.409 784.712C580.409 784.712 564.14 796.457 550.22 807.68C541.607 814.536 534.177 820.678 532.611 822.679C528.418 827.847 527.478 841.836 532.35 842.271Z" fill="#EB9481"/>
<path d="M532.368 842.254C537.24 842.724 670.541 810.934 674.769 806.671C675.274 806.184 672.646 794.073 668.801 777.543V777.23C667.931 773.332 661.945 759.082 654.881 742.778C640.665 746.589 589.683 760.369 571.17 766.094L580.479 784.729C580.479 784.729 564.14 796.474 550.22 807.68C541.607 814.518 534.177 820.678 532.611 822.661C528.418 827.847 527.461 841.854 532.368 842.254Z" fill="#EBEBEB"/>
<path d="M531.915 842.898C536.961 843.333 670.35 811.23 674.595 806.793C676.231 805.053 673.29 784.068 665.982 761.761L580.009 782.641C580.009 782.641 536.109 817.442 531.898 822.766C527.687 828.09 526.887 842.48 531.915 842.898Z" fill="#5375E2"/>
<path d="M532.542 837.104C554.779 831.17 644.998 809.264 667.409 805.175C667.6 805.175 667.635 805.262 667.409 805.314C645.52 811.665 555.127 832.771 532.594 837.469C532.159 837.573 532.072 837.26 532.542 837.104Z" fill="#263238"/>
<path d="M539.38 815.841C541.851 815.175 544.434 815.03 546.965 815.413C549.495 815.797 551.919 816.7 554.083 818.068C557.983 820.507 560.798 824.35 561.948 828.804C561.948 828.943 561.739 829.013 561.687 828.804C559.858 824.559 556.702 821.021 552.693 818.721C548.684 816.422 544.037 815.484 539.449 816.049C539.429 816.042 539.411 816.031 539.396 816.016C539.381 816.001 539.37 815.982 539.363 815.962C539.357 815.942 539.355 815.921 539.357 815.9C539.36 815.878 539.368 815.858 539.38 815.841Z" fill="#263238"/>
<path d="M573.606 786.487C582.532 784.207 593.668 784.869 600.993 790.854C601.272 791.098 600.993 791.481 600.645 791.411C591.827 789.197 582.797 787.931 573.71 787.635C573.577 787.617 573.455 787.555 573.362 787.458C573.27 787.361 573.213 787.236 573.201 787.103C573.189 786.969 573.222 786.836 573.296 786.724C573.369 786.612 573.478 786.529 573.606 786.487Z" fill="#263238"/>
<path d="M567.342 790.854C576.268 788.575 587.404 789.236 594.729 795.222C595.008 795.448 594.729 795.848 594.381 795.779C585.568 793.572 576.544 792.312 567.463 792.02C567.387 792.028 567.309 792.021 567.236 791.999C567.162 791.977 567.093 791.941 567.033 791.892C566.974 791.844 566.924 791.784 566.887 791.717C566.851 791.649 566.828 791.575 566.82 791.498C566.812 791.422 566.819 791.344 566.841 791.27C566.863 791.197 566.899 791.128 566.947 791.068C566.996 791.008 567.056 790.959 567.123 790.922C567.191 790.885 567.265 790.862 567.342 790.854Z" fill="#263238"/>
<path d="M561.077 795.204C570.004 792.925 581.14 793.586 588.465 799.572C588.744 799.798 588.465 800.198 588.117 800.128C579.306 797.907 570.281 796.641 561.199 796.353C561.066 796.337 560.941 796.277 560.846 796.181C560.752 796.086 560.692 795.961 560.678 795.827C560.664 795.693 560.696 795.559 560.768 795.446C560.841 795.332 560.95 795.247 561.077 795.204Z" fill="#263238"/>
<path d="M554.831 799.572C563.74 797.292 574.876 797.953 582.201 803.922C582.48 804.165 582.201 804.565 581.853 804.496C573.04 802.283 564.017 801.017 554.935 800.72C554.783 800.734 554.632 800.687 554.514 800.589C554.397 800.491 554.323 800.35 554.309 800.198C554.295 800.046 554.342 799.894 554.44 799.777C554.538 799.659 554.679 799.585 554.831 799.572Z" fill="#263238"/>
<path d="M656.604 785.304C666.661 782.92 670.384 798.528 660.327 800.964C650.27 803.4 646.546 787.688 656.604 785.304Z" fill="#263238"/>
<path d="M562.052 777.891C568.385 782.955 576.685 785.112 584.115 787.983C584.286 788.032 584.466 788.041 584.64 788.008C584.814 787.974 584.979 787.901 585.119 787.792C585.26 787.684 585.373 787.544 585.449 787.383C585.526 787.223 585.564 787.047 585.559 786.87C585.597 786.87 585.633 786.86 585.666 786.843C585.699 786.825 585.727 786.8 585.747 786.769C585.768 786.738 585.781 786.702 585.784 786.665C585.788 786.628 585.782 786.591 585.768 786.556C583.138 778.517 578.433 771.314 572.126 765.676C568.403 762.44 561.808 760.143 558.206 764.998C554.761 769.522 558.363 774.933 562.052 777.891ZM559.86 770.566C558.398 760.613 568.994 765.99 571.639 768.478C573.333 770.109 574.914 771.853 576.372 773.698C579.315 777.571 582.062 781.59 584.602 785.739C581.035 784.103 577.364 782.781 573.745 781.284C569.36 779.527 560.66 776.064 559.86 770.566Z" fill="#263238"/>
<path d="M616.183 773.193C614.078 767.521 607.1 767.851 602.611 769.905C594.962 773.546 588.408 779.139 583.611 786.121C583.59 786.152 583.576 786.187 583.572 786.224C583.567 786.261 583.57 786.299 583.582 786.334C583.594 786.369 583.613 786.401 583.639 786.428C583.665 786.454 583.697 786.474 583.732 786.487C583.678 786.655 583.664 786.834 583.691 787.009C583.718 787.184 583.786 787.35 583.89 787.494C583.993 787.638 584.128 787.756 584.285 787.838C584.443 787.92 584.617 787.963 584.794 787.966C592.728 787.305 601.306 787.583 608.806 784.486C613.191 782.711 618.184 778.552 616.183 773.193ZM596.626 784.503C592.728 784.921 588.83 785.147 584.95 785.704C588.562 782.44 592.336 779.362 596.26 776.482C598.172 775.098 600.184 773.859 602.281 772.776C605.517 771.14 617.193 768.982 612.982 778.117C610.668 783.146 601.272 783.999 596.626 784.503Z" fill="#263238"/>
<path d="M572.701 774.481L664.451 749.912C664.451 749.912 583.819 582.716 590.327 573.511C593.581 568.917 679.572 565.037 706.246 541.008C740.889 509.81 715.677 464.448 715.677 464.448H619.524C619.524 464.448 621.264 484.51 617.61 487.642C615.209 489.73 501.03 502.763 489.598 541.773C475.591 589.606 572.701 774.481 572.701 774.481Z" fill="#263238"/>
<path d="M571.1 761.031C573.534 759.901 576.046 758.947 578.617 758.177C581.279 757.255 583.958 756.333 586.621 755.445C591.841 753.705 597.2 752.07 602.524 750.539C613.26 747.441 623.996 744.414 634.819 741.595C640.456 740.133 652.514 736.949 653.28 737.054C653.628 737.054 653.715 737.715 653.402 737.836C642.962 741.63 632.348 744.884 621.751 748.19C611.155 751.496 600.558 754.715 589.822 757.481C586.847 758.247 583.854 758.943 580.879 759.674C577.765 760.594 574.59 761.291 571.378 761.762C571.1 761.779 570.752 761.187 571.1 761.031Z" fill="#455A64"/>
<path d="M573.658 566.029C575.554 564.289 578.443 564.045 580.844 563.558L622.239 555.38C635.149 552.822 648.147 550.491 660.988 547.602C671.62 545.218 682.408 542.121 691.491 536.031C700.379 530.048 706.82 521.069 709.639 510.732C712.579 500.448 712.475 489.486 711.152 478.959C710.822 476.384 710.265 473.826 709.708 471.286C709.708 471.094 709.987 471.025 710.022 471.286C714.128 490.878 715.12 513.742 700.834 529.872C693.874 537.736 684.113 542.539 674.125 545.74C662.833 549.377 651.001 551.291 639.325 553.588L597.931 561.766C591.284 563.071 584.533 564.15 577.956 565.733C576.62 565.945 575.378 566.551 574.389 567.473C573.929 568.184 573.65 568.995 573.574 569.838C573.498 570.681 573.629 571.529 573.954 572.31C574.719 575.547 575.694 578.766 576.72 581.933C585.072 607.58 643.571 729.015 645.154 731.816C645.328 732.112 644.859 732.355 644.685 732.06C631.287 709.753 587.682 616.002 578.565 591.781C576.169 585.582 574.175 579.235 572.596 572.78C572.039 570.448 571.692 567.838 573.658 566.029Z" fill="#455A64"/>
<path d="M297.554 845.612C302.113 847.439 438.964 854.434 444.219 851.458C444.845 851.145 445.733 838.774 446.672 821.878L447.368 805.905C447.612 800.511 518.065 721.985 518.065 721.985L419.842 716.052L359.777 803.904C359.777 803.904 340.863 810.603 324.35 817.389C314.119 821.6 305.28 825.341 303.14 826.82C297.92 830.665 292.978 843.837 297.554 845.612Z" fill="#EB9481"/>
<path d="M465.325 782.293C455.094 794.473 447.456 804.096 447.386 805.87L446.673 821.844C445.733 838.774 444.846 851.145 444.219 851.424C438.999 854.399 302.113 847.404 297.537 845.595C292.961 843.785 297.816 830.631 303.21 826.785C305.28 825.324 314.137 821.565 324.316 817.337C340.811 810.568 359.725 803.869 359.725 803.869L377.125 778.5L465.325 782.293Z" fill="#EBEBEB"/>
<path d="M296.945 846.099C301.661 847.944 438.703 854.59 444.097 851.545C446.15 850.397 449.317 829.378 448.482 805.923L360.125 801.729C360.125 801.729 308.221 822.748 302.705 826.716C297.189 830.683 292.247 844.22 296.945 846.099Z" fill="#5375E2"/>
<path d="M299.19 840.74C322.193 841.28 414.9 845.682 437.59 847.979C437.781 847.979 437.781 848.118 437.59 848.118C414.778 848.118 322.106 842.898 299.173 841.158C298.686 841.053 298.703 840.74 299.19 840.74Z" fill="#263238"/>
<path d="M311.718 822.227C314.279 822.281 316.8 822.867 319.121 823.949C321.443 825.03 323.514 826.583 325.203 828.508C328.267 831.94 329.887 836.421 329.727 841.019C329.727 841.158 329.466 841.14 329.449 841.019C328.89 836.433 326.86 832.153 323.663 828.818C320.467 825.484 316.276 823.275 311.718 822.522C311.679 822.522 311.641 822.507 311.614 822.479C311.586 822.451 311.57 822.414 311.57 822.375C311.57 822.335 311.586 822.298 311.614 822.27C311.641 822.242 311.679 822.227 311.718 822.227Z" fill="#263238"/>
<path d="M352.817 803.678C362.004 803.991 372.514 807.767 377.856 815.562C378.064 815.858 377.629 816.154 377.368 815.997C369.532 811.395 361.225 807.645 352.591 804.809C352.469 804.754 352.369 804.66 352.307 804.54C352.246 804.421 352.227 804.285 352.253 804.154C352.279 804.022 352.35 803.904 352.452 803.817C352.554 803.731 352.683 803.682 352.817 803.678Z" fill="#263238"/>
<path d="M345.579 806.097C354.783 806.427 365.275 810.186 370.635 817.981C370.826 818.277 370.408 818.573 370.13 818.416C362.299 813.814 353.999 810.063 345.37 807.228C345.22 807.2 345.087 807.114 345.001 806.988C344.914 806.863 344.881 806.708 344.909 806.558C344.936 806.408 345.023 806.275 345.148 806.189C345.274 806.102 345.429 806.069 345.579 806.097Z" fill="#263238"/>
<path d="M338.34 808.533C347.545 808.846 358.054 812.604 363.396 820.399C363.605 820.713 363.17 820.991 362.909 820.852C355.076 816.237 346.769 812.48 338.131 809.646C338.004 809.6 337.896 809.509 337.829 809.391C337.762 809.273 337.738 809.135 337.763 809.001C337.789 808.867 337.86 808.747 337.966 808.661C338.072 808.575 338.204 808.53 338.34 808.533Z" fill="#263238"/>
<path d="M331.102 810.951C340.306 811.265 350.816 815.023 356.158 822.836C356.367 823.131 355.932 823.427 355.671 823.271C347.862 818.669 339.585 814.912 330.98 812.065C330.857 812.023 330.751 811.94 330.682 811.83C330.612 811.72 330.582 811.589 330.596 811.46C330.61 811.33 330.668 811.209 330.76 811.117C330.852 811.024 330.972 810.966 331.102 810.951Z" fill="#263238"/>
<path d="M432.805 825.863C443.123 826.385 442.305 842.428 431.97 841.889C421.634 841.349 422.469 825.324 432.805 825.863Z" fill="#263238"/>
<path d="M344.134 792.177C348.797 798.823 356.158 803.208 362.491 808.063C362.642 808.167 362.816 808.232 362.997 808.254C363.179 808.276 363.364 808.254 363.535 808.189C363.706 808.124 363.859 808.018 363.98 807.881C364.101 807.744 364.187 807.579 364.231 807.402C364.267 807.41 364.305 807.409 364.341 807.401C364.376 807.392 364.41 807.375 364.438 807.352C364.467 807.328 364.49 807.299 364.505 807.265C364.52 807.232 364.528 807.195 364.527 807.158C364.231 798.712 361.723 790.492 357.254 783.32C354.592 779.179 348.902 775.107 344.065 778.744C339.227 782.38 341.42 788.296 344.134 792.177ZM344.134 784.538C345.544 774.585 354.191 782.694 356.036 785.843C357.203 787.887 358.226 790.009 359.098 792.194C360.839 796.755 362.349 801.401 363.622 806.114C360.664 803.539 357.497 801.242 354.452 798.789C350.764 795.813 343.316 790.019 344.082 784.538H344.134Z" fill="#263238"/>
<path d="M397.413 802.878C396.978 796.84 390.192 795.204 385.233 795.918C376.87 797.273 369.01 800.801 362.439 806.149C362.41 806.172 362.387 806.201 362.371 806.234C362.355 806.267 362.346 806.303 362.346 806.34C362.346 806.377 362.355 806.414 362.371 806.447C362.387 806.48 362.41 806.509 362.439 806.532C362.331 806.678 362.26 806.848 362.233 807.028C362.205 807.208 362.222 807.391 362.282 807.563C362.343 807.735 362.444 807.889 362.577 808.013C362.711 808.136 362.872 808.225 363.048 808.272C370.861 809.89 379.004 812.569 387.06 811.752C391.88 811.16 397.813 808.585 397.413 802.878ZM375.472 808.237C371.609 807.541 367.798 806.653 363.918 806.114C368.303 803.992 372.792 802.093 377.368 800.424C379.591 799.648 381.864 799.026 384.172 798.562C387.756 797.901 399.571 799.119 392.959 806.706C389.322 810.882 380.065 809.072 375.472 808.237Z" fill="#263238"/>
<path d="M355.583 785.495L465.325 798.98C465.325 798.98 573.849 669.141 582.619 660.494C609.797 633.698 707.237 587.414 736.313 544.436C762.413 505.79 735.982 464.5 735.982 464.5H628.833C631.58 475.915 635.234 487.092 639.76 497.925C639.76 497.925 550.759 564.933 503.327 612.765C472.755 643.616 355.583 785.495 355.583 785.495Z" fill="#263238"/>
<path d="M620.707 491C623.838 491.602 626.907 492.487 629.877 493.645C632.974 494.724 636.037 495.976 639.047 497.316C644.944 500.028 650.689 503.06 656.256 506.399C656.43 506.503 656.256 506.747 656.099 506.66C650.218 503.824 644.163 501.301 638.09 498.882L629.39 495.402C626.377 494.357 623.421 493.154 620.533 491.8C620.098 491.696 620.29 491 620.707 491Z" fill="#455A64"/>
<path d="M626.345 464.465C627.72 469.32 628.938 474.209 630.469 479.011C631.182 481.204 631.878 483.448 632.783 485.589C633.549 487.329 634.68 489.417 636.802 489.765C639.238 490.165 639.882 488.025 639.621 486.076C639.254 483.837 638.772 481.619 638.177 479.429C637.603 476.906 634.697 464.656 634.697 464.587C634.697 464.517 634.697 464.361 634.819 464.221C634.848 464.196 634.885 464.182 634.923 464.182C634.962 464.182 634.999 464.196 635.028 464.221C635.497 464.465 638.508 473.878 639.134 476.21C639.76 478.542 640.439 480.891 641.083 483.17C641.745 484.892 641.966 486.752 641.727 488.581C641.528 489.452 641.056 490.236 640.38 490.818C639.704 491.4 638.858 491.751 637.968 491.818C638.055 491.974 638.16 492.114 638.247 492.288C638.473 492.757 638.647 493.262 638.838 493.749C639.03 494.236 639.221 494.758 639.395 495.263C639.464 495.509 639.516 495.759 639.552 496.011C639.552 496.307 639.552 496.585 639.552 496.864C639.591 496.963 639.589 497.074 639.547 497.172C639.504 497.27 639.425 497.347 639.325 497.386C639.226 497.425 639.116 497.423 639.018 497.381C638.92 497.338 638.843 497.259 638.803 497.16C638.664 496.916 638.473 496.725 638.316 496.481C638.167 496.228 638.044 495.96 637.951 495.681C637.777 495.193 637.62 494.706 637.481 494.219C637.342 493.732 637.168 493.227 637.063 492.74C637.006 492.441 636.965 492.139 636.942 491.835C635.917 491.773 634.93 491.43 634.088 490.843C632.68 489.706 631.624 488.191 631.043 486.476C630.243 484.458 629.616 482.37 628.972 480.299C627.325 475.194 626.131 469.954 625.405 464.639C625.382 464.514 625.41 464.386 625.482 464.281C625.553 464.177 625.664 464.105 625.788 464.082C625.913 464.059 626.042 464.087 626.146 464.158C626.25 464.23 626.322 464.34 626.345 464.465Z" fill="#455A64"/>
<path d="M690.359 474.54C690.881 476.941 691.229 479.377 691.856 481.778C692.482 484.179 693.178 486.441 694.031 488.738C694.783 490.95 695.85 493.042 697.198 494.95C698.588 496.747 700.236 498.33 702.087 499.648C705.618 502.283 709.556 504.322 713.745 505.686C715.851 506.404 718.002 506.985 720.183 507.426C721.314 507.634 722.445 507.808 723.663 507.913C724.607 507.921 725.54 508.11 726.412 508.47C726.495 508.519 726.564 508.589 726.611 508.673C726.659 508.757 726.684 508.852 726.684 508.948C726.684 509.045 726.659 509.139 726.611 509.223C726.564 509.307 726.495 509.377 726.412 509.427C724.78 509.966 723.035 510.074 721.349 509.74C715.776 509.343 710.364 507.695 705.515 504.92C702.246 503.19 699.302 500.906 696.815 498.169C694.449 495.286 692.776 491.899 691.925 488.268C690.671 483.847 690.033 479.274 690.029 474.679C690.04 474.647 690.058 474.618 690.081 474.594C690.104 474.569 690.132 474.55 690.164 474.537C690.195 474.524 690.228 474.517 690.262 474.518C690.295 474.518 690.329 474.526 690.359 474.54Z" fill="#455A64"/>
<path d="M379.7 769.4C382.662 769.324 385.627 769.441 388.574 769.748C391.689 769.957 394.786 770.148 397.883 770.392C403.99 770.897 410.063 771.453 416.153 772.132C428.333 773.524 440.652 774.968 452.85 776.656C459.218 777.543 472.877 779.37 473.608 779.771C473.681 779.819 473.737 779.889 473.769 779.972C473.8 780.054 473.804 780.144 473.781 780.229C473.757 780.314 473.708 780.389 473.64 780.444C473.571 780.5 473.487 780.532 473.399 780.536C461.219 779.892 449.039 778.709 436.859 777.561C424.679 776.412 412.499 775.212 400.319 773.524C396.978 773.054 393.637 772.497 390.279 771.993C386.716 771.618 383.182 771.008 379.7 770.166C379.369 770.027 379.3 769.4 379.7 769.4Z" fill="#455A64"/>
<path d="M615.94 635.42C610.25 639.074 604.752 643.006 599.236 646.904C593.97 650.332 588.915 654.074 584.098 658.11C581.723 660.344 579.486 662.721 577.399 665.226L570.856 672.795C566.489 677.824 562.156 682.905 557.859 688.003C555.423 690.868 553.004 693.768 550.603 696.703C548.097 699.713 545.766 702.88 543.243 705.89C543.212 705.928 543.198 705.975 543.201 706.023C543.205 706.071 543.226 706.116 543.261 706.149C543.296 706.182 543.343 706.2 543.391 706.201C543.439 706.201 543.485 706.183 543.521 706.151C547.975 701.122 552.708 696.303 557.163 691.257C561.617 686.211 566.071 681.165 570.474 676.049C574.876 670.933 578.808 666.009 583.332 661.329C587.959 656.954 592.98 653.017 598.331 649.566C604.421 645.216 610.511 640.866 616.479 636.325C616.984 635.942 616.514 635.107 615.94 635.42Z" fill="#455A64"/>
<path d="M638.038 498.673C619.733 511.515 600.802 525.87 583.593 540.12C566.385 554.371 549.35 568.917 532.716 583.881C528.076 588.057 523.436 592.291 518.796 596.583C514.167 600.898 509.643 606.31 505.015 610.625C504.771 610.851 505.154 611.217 505.398 610.99C513.767 603.491 522.415 595.33 530.889 587.953C539.362 580.575 547.767 573.337 556.24 566.081C573.269 551.5 590.513 537.168 607.971 523.086C617.645 515.238 628.851 507.304 638.421 499.213C638.786 498.952 638.351 498.43 638.038 498.673Z" fill="#455A64"/>
<path d="M732.728 477.08C731.684 474 730.571 470.938 729.422 467.875C729.422 467.701 729.074 467.875 729.144 467.962C733.459 480.699 737.844 493.749 738.331 507.321C738.633 513.82 737.688 520.317 735.547 526.461C733.311 532.332 729.994 537.733 725.768 542.382C717.242 552.004 706.402 559.591 696.188 567.264C685.052 575.605 673.737 583.725 662.241 591.624C650.792 599.489 639.047 606.988 627.18 614.244C615.313 621.5 603.307 628.042 591.51 635.124C585.79 638.504 580.437 642.469 575.537 646.956C570.595 651.585 566.176 656.718 561.721 661.816C552.186 672.708 542.744 683.682 533.394 694.737C514.614 716.777 496.21 739.147 478.184 761.848C475.98 764.609 473.776 767.388 471.572 770.183C471.467 770.322 471.572 770.514 471.763 770.374C490.323 747.65 509.086 725.088 528.052 702.688C537.471 691.552 546.943 680.474 556.466 669.454C565.601 658.91 574.388 647.722 586.046 639.874C591.667 636.046 597.67 632.793 603.568 629.434C609.751 625.954 615.876 622.37 621.943 618.681C634.041 611.408 645.943 603.868 657.647 596.061C669.288 588.266 680.772 580.279 692.047 571.945C697.662 567.792 703.241 563.558 708.786 559.243C713.582 555.616 718.177 551.73 722.549 547.602C726.874 543.514 730.589 538.827 733.581 533.682C736.59 528.242 738.455 522.244 739.062 516.056C740.384 502.78 736.922 489.504 732.728 477.08Z" fill="#455A64"/>
<path d="M611.503 483.327C613.417 486.981 747.223 517.918 748.162 517.309C750.494 515.569 758.167 393.038 722.863 338.228C716.651 328.571 701.548 326.779 693.77 328.797C689.89 329.807 673.934 343.396 666.626 356.985C659.318 370.575 610.32 480.995 611.503 483.327Z" fill="#5375E2"/>
<g opacity="0.1">
<path d="M717.904 333.165H687.088C688.306 332.155 689.437 331.303 690.429 330.624H713.31C714.936 331.287 716.478 332.14 717.904 333.165Z" fill="black"/>
<path d="M724.864 341.499H678.214C679.032 340.612 679.867 339.759 680.685 338.959H723.315C723.855 339.794 724.359 340.629 724.864 341.499Z" fill="black"/>
<path d="M729.283 349.851H671.202C671.829 348.981 672.49 348.111 673.151 347.311H728.031C728.466 348.146 728.866 348.999 729.283 349.851Z" fill="black"/>
<path d="M732.92 358.186H666.017L666.626 356.985C666.87 356.55 667.113 356.098 667.374 355.663H731.859C732.207 356.498 732.555 357.333 732.92 358.186Z" fill="black"/>
<path d="M735.913 366.538H661.963C662.398 365.633 662.798 364.798 663.163 363.998H735.043C735.339 364.833 735.634 365.72 735.913 366.538Z" fill="black"/>
<path d="M738.488 374.89H658.1L659.266 372.349H737.74C738.001 373.185 738.245 374.037 738.488 374.89Z" fill="black"/>
<path d="M740.68 383.224H654.289C654.672 382.354 655.055 381.484 655.438 380.684H740.054L740.68 383.224Z" fill="black"/>
<path d="M742.577 391.577H650.496C650.879 390.724 651.279 389.837 651.645 389.036H742.02C742.212 389.871 742.403 390.724 742.577 391.577Z" fill="black"/>
<path d="M744.178 399.929H646.738C647.121 399.076 647.486 398.189 647.869 397.388H743.708C743.882 398.223 744.039 399.076 744.178 399.929Z" fill="black"/>
<path d="M745.587 408.263H643.031C643.414 407.41 643.78 406.523 644.162 405.723H745.1L745.587 408.263Z" fill="black"/>
<path d="M746.84 416.615H639.325C639.691 415.78 640.074 414.875 640.439 414.075H746.422C746.544 414.927 746.649 415.763 746.84 416.615Z" fill="black"/>
<path d="M747.762 424.88H635.654C636.019 424.027 636.385 423.14 636.768 422.34H747.466C747.571 423.262 747.658 424.097 747.762 424.88Z" fill="black"/>
<path d="M748.58 433.302H632C632.348 432.466 632.731 431.562 633.096 430.761H748.336C748.423 431.614 748.58 432.449 748.58 433.302Z" fill="black"/>
<path d="M749.241 441.654H628.364C628.712 440.818 629.094 439.914 629.46 439.113H749.05C749.119 439.966 749.189 440.801 749.241 441.654Z" fill="black"/>
<path d="M749.763 449.988H624.761L625.84 447.448H749.624C749.676 448.3 749.711 449.24 749.763 449.988Z" fill="black"/>
<path d="M750.129 458.34H621.195L622.273 455.8H750.042C750.076 456.652 750.111 457.505 750.129 458.34Z" fill="black"/>
<path d="M750.32 466.64H617.697L618.759 464.1H750.32V466.64Z" fill="black"/>
<path d="M750.494 475.027H614.322C614.617 474.227 614.965 473.374 615.313 472.487H750.477C750.494 473.339 750.494 474.192 750.494 475.027Z" fill="black"/>
<path d="M750.494 480.838C750.494 481.691 750.494 482.578 750.494 483.379H611.538C611.59 482.518 611.803 481.674 612.164 480.891L750.494 480.838Z" fill="black"/>
<path d="M750.32 489.26C750.32 490.13 750.32 491 750.32 491.8H638.96C635.48 490.913 632.33 490.06 629.39 489.26H750.32Z" fill="black"/>
<path d="M750.111 497.525C750.111 498.395 750.111 499.265 750.007 500.066H672.542C669.062 499.213 665.582 498.326 662.102 497.525H750.111Z" fill="black"/>
<path d="M749.659 505.86C749.659 506.747 749.537 507.6 749.468 508.4H707.708L696.833 505.86H749.659Z" fill="black"/>
<path d="M748.858 514.212C748.774 515.069 748.623 515.918 748.406 516.752H744.926C742.316 516.23 738.262 515.343 733.164 514.212H748.858Z" fill="black"/>
</g>
<path d="M716.825 366.416C740.889 364.467 780.77 355.837 802.468 343.796C815.483 336.523 817.449 326.761 818.128 319.941C819.868 302.297 790.462 273.657 775.01 262.973C772.975 261.564 770.017 271.934 760.655 283.575C752.738 293.44 737.809 304.576 740.054 306.473C743.36 309.257 758.689 319.819 757.958 321.089C756.706 323.264 742.49 329.302 721.192 339.62C692.621 353.401 699.86 367.808 716.825 366.416Z" fill="#EB9481"/>
<path d="M780.126 359.613L738.853 327.875C738.853 327.875 710.926 341.377 703.566 349.625C696.206 357.873 700.399 367.982 720.862 369.983C744.317 372.262 780.126 359.613 780.126 359.613Z" fill="#5375E2"/>
<path d="M769.738 360.604C754.078 346.806 737.287 333.582 734.138 331.459C733.999 331.372 733.86 331.581 733.964 331.686C745.24 342.108 757.134 351.841 769.582 360.831C769.704 360.918 769.86 360.709 769.738 360.604Z" fill="#263238"/>
<path d="M744.735 366.764C741.621 367.296 738.656 368.482 736.035 370.244C734.79 371.173 733.672 372.261 732.711 373.481C732.214 374.066 731.772 374.694 731.389 375.36C731 375.99 730.668 376.654 730.397 377.343C730.397 377.5 730.571 377.587 730.658 377.483C731.163 376.978 731.58 376.386 732.102 375.882C732.624 375.377 733.094 374.838 733.633 374.351C734.729 373.318 735.891 372.359 737.113 371.48C739.416 369.591 742.039 368.129 744.856 367.164C744.883 367.156 744.907 367.143 744.928 367.126C744.95 367.108 744.967 367.087 744.98 367.063C744.993 367.038 745.001 367.012 745.004 366.985C745.006 366.957 745.004 366.93 744.996 366.903C744.988 366.877 744.974 366.853 744.957 366.831C744.94 366.81 744.918 366.793 744.894 366.78C744.87 366.767 744.843 366.759 744.816 366.756C744.788 366.753 744.761 366.756 744.735 366.764Z" fill="#263238"/>
<g opacity="0.1">
<path d="M745.726 333.165H728.535C730.275 332.225 732.015 331.425 733.372 330.624H742.42L745.726 333.165Z" fill="black"/>
<path d="M756.567 341.499H714.128C715.45 340.647 716.842 339.759 718.234 338.959H753.261L756.567 341.499Z" fill="black"/>
<path d="M767.424 349.851H703.34L703.531 349.625C704.289 348.799 705.103 348.026 705.967 347.311H764.101L767.424 349.851Z" fill="black"/>
<path d="M778.264 358.186H700.243C700.147 357.344 700.183 356.493 700.347 355.663H774.993L778.264 358.186Z" fill="black"/>
<path d="M765.736 363.98C762.639 364.815 759.177 365.72 755.505 366.52H707.238C705.861 365.845 704.58 364.991 703.427 363.98H765.736Z" fill="black"/>
</g>
<path d="M690.186 351.435C697.146 354.323 711.222 345.414 717.573 337.341C717.991 336.784 719.539 312.006 720.357 307.117C720.514 306.125 688.498 309.449 688.498 309.449C689.227 315.84 689.169 322.298 688.324 328.676C688.202 329.389 683.521 348.633 690.186 351.435Z" fill="#EB9481"/>
<path d="M687.784 330.642C687.784 330.746 687.784 330.85 687.68 330.972H687.837C688.807 331.279 689.803 331.5 690.812 331.633C707.516 334.035 716.529 314.512 719.4 306.908C714.18 306.751 688.498 309.414 688.498 309.414C689.227 315.806 689.169 322.263 688.324 328.641C688.324 328.884 688.237 329.11 688.202 329.319C688.104 329.772 687.964 330.215 687.784 330.642Z" fill="#263238"/>
<path d="M684.304 252.394C684.304 252.394 673.864 256.605 671.846 267.149C669.828 277.693 672.124 288.795 673.029 289.351C673.934 289.908 684.304 252.394 684.304 252.394Z" fill="#263238"/>
<path d="M724.55 268.158C727.874 279.172 722.01 310.945 714.11 318.027C702.748 328.275 684.182 329.215 675.482 315.556C667.043 302.332 675.482 261.059 684.182 254.656C697.128 245.173 719.609 251.907 724.55 268.158Z" fill="#EB9481"/>
<path d="M673.273 280.269C672.607 283.185 672.199 286.155 672.055 289.143C671.846 292.223 671.811 295.302 671.829 298.382C671.829 298.556 672.107 298.539 672.107 298.382C672.107 295.355 672.316 292.327 672.577 289.317C672.838 286.307 673.325 283.314 673.482 280.304C673.499 280.164 673.308 280.164 673.273 280.269Z" fill="#263238"/>
<path d="M692.9 287.42C692.9 287.333 693.056 287.542 693.039 287.629C692.587 289.769 692.43 292.275 694.24 293.336C694.24 293.336 694.24 293.475 694.24 293.458C691.925 292.64 692.169 289.299 692.9 287.42Z" fill="#263238"/>
<path d="M695.266 285.454C698.746 285.819 697.772 292.762 694.536 292.414C691.299 292.066 692.326 285.158 695.266 285.454Z" fill="#263238"/>
<path d="M680.998 286.011C680.998 285.924 680.807 286.011 680.807 286.167C680.563 288.342 679.937 290.778 677.884 291.231V291.353C680.32 291.335 681.12 288.099 680.998 286.011Z" fill="#263238"/>
<path d="M679.38 283.488C675.9 282.74 674.717 289.647 677.884 290.343C681.05 291.039 682.251 284.114 679.38 283.488Z" fill="#263238"/>
<path d="M698.45 282.652C697.573 282.261 696.719 281.819 695.893 281.33C694.925 280.988 694.094 280.341 693.526 279.486C693.407 279.182 693.39 278.848 693.478 278.534C693.566 278.22 693.754 277.943 694.013 277.746C694.593 277.435 695.245 277.284 695.903 277.308C696.56 277.333 697.199 277.532 697.754 277.885C698.983 278.425 699.964 279.406 700.504 280.634C700.607 280.919 700.626 281.228 700.559 281.524C700.492 281.819 700.341 282.09 700.125 282.302C699.909 282.515 699.636 282.661 699.339 282.723C699.042 282.785 698.734 282.761 698.45 282.652Z" fill="#263238"/>
<path d="M677.24 279.607C678.197 279.549 679.149 279.438 680.094 279.277C681.122 279.301 682.129 278.989 682.965 278.389C683.167 278.151 683.291 277.856 683.319 277.544C683.347 277.233 683.278 276.92 683.121 276.649C682.697 276.162 682.152 275.795 681.542 275.584C680.931 275.373 680.276 275.327 679.641 275.449C678.294 275.519 677.022 276.09 676.074 277.05C675.895 277.278 675.783 277.551 675.748 277.839C675.714 278.127 675.76 278.419 675.88 278.683C676 278.947 676.191 279.173 676.431 279.336C676.67 279.499 676.95 279.593 677.24 279.607Z" fill="#263238"/>
<path d="M692.726 307.674C692.134 308.109 691.525 308.735 690.725 308.7C689.926 308.564 689.163 308.268 688.48 307.83C688.48 307.83 688.341 307.83 688.376 307.917C688.622 308.388 688.992 308.782 689.446 309.058C689.9 309.334 690.42 309.481 690.951 309.483C691.415 309.422 691.85 309.224 692.2 308.914C692.55 308.604 692.8 308.196 692.917 307.743C692.9 307.691 692.796 307.622 692.726 307.674Z" fill="#263238"/>
<path d="M691.351 300.905C690.686 301.685 689.867 302.318 688.944 302.764C688.022 303.211 687.016 303.46 685.992 303.498C685.103 303.538 684.214 303.456 683.347 303.254L682.843 303.115C682.687 303.085 682.536 303.038 682.39 302.976C682.275 302.943 682.176 302.872 682.109 302.773C682.042 302.674 682.012 302.555 682.025 302.436C682.017 302.367 682.017 302.297 682.025 302.227V302.036C682.199 300.296 682.721 297.86 682.721 297.86C682.077 298.086 678.788 299.043 678.962 298.191C680.195 290.735 682.183 283.424 684.896 276.371C684.983 276.145 685.348 276.249 685.296 276.475C684.182 283.435 681.816 290.03 680.65 296.938C681.823 296.574 683.042 296.38 684.269 296.364C684.496 296.468 683.191 301.183 683.156 301.949C684.494 302.279 685.885 302.335 687.246 302.113C688.606 301.892 689.908 301.398 691.073 300.661C691.351 300.592 691.508 300.766 691.351 300.905Z" fill="#263238"/>
<path d="M684.444 302.541C685.183 303.852 686.25 304.949 687.541 305.725C688.259 306.133 689.087 306.303 689.907 306.212C691.647 306.003 691.96 304.472 691.821 303.028C691.755 302.286 691.598 301.555 691.351 300.853C689.287 302.135 686.867 302.727 684.444 302.541Z" fill="#263238"/>
<path d="M687.541 305.725C688.258 306.133 689.087 306.303 689.907 306.212C691.647 306.003 691.96 304.472 691.821 303.028C690.909 302.932 689.99 303.146 689.214 303.635C688.437 304.124 687.848 304.86 687.541 305.725Z" fill="#FF98B9"/>
<path d="M721.975 293.928C718.339 294.45 715.972 283.383 715.468 279.172C715.015 275.484 715.624 264.069 715.572 263.269C715.52 262.468 698.868 270.855 690.499 266.923C682.129 262.99 677.518 254.203 677.971 250.515C678.423 246.826 690.76 239.222 700.243 240.214C709.726 241.206 720.601 255.16 720.601 255.16C719.336 253.169 718.231 251.08 717.295 248.914C717.521 248.514 723.211 251.889 723.663 256.396C723.663 256.396 723.298 250.776 723.785 250.741C724.272 250.706 728.257 256.117 726.639 259.441C726.639 259.441 731.354 265.026 731.058 270.298C730.762 275.571 726.256 293.319 721.975 293.928Z" fill="#263238"/>
<path d="M684.565 264.121C686.943 265.919 689.576 267.35 692.378 268.367C695.559 269.168 698.889 269.168 702.07 268.367C705.26 267.661 708.315 266.444 711.118 264.765C713.589 263.304 715.868 261.424 718.461 260.189C719.104 259.876 719.661 260.815 719.209 261.303C714.444 266.203 708.226 269.437 701.478 270.525C698.348 271.035 695.139 270.721 692.167 269.613C689.195 268.506 686.563 266.643 684.531 264.208C684.531 264.208 684.53 264.087 684.565 264.121Z" fill="#263238"/>
<path d="M694.257 297.686C691.876 297.038 689.847 295.474 688.615 293.335C687.383 291.197 687.046 288.657 687.68 286.272C688.133 284.59 689.048 283.068 690.323 281.881C691.597 280.693 693.179 279.887 694.889 279.554C696.599 279.221 698.368 279.374 699.995 279.996C701.622 280.619 703.041 281.685 704.093 283.074C705.144 284.463 705.784 286.119 705.94 287.854C706.097 289.589 705.764 291.333 704.978 292.888C704.193 294.443 702.987 295.746 701.498 296.65C700.009 297.553 698.296 298.021 696.554 297.999C695.778 297.998 695.005 297.893 694.257 297.686ZM688.881 286.585C688.464 288.127 688.515 289.757 689.025 291.27C689.536 292.783 690.483 294.11 691.748 295.085C693.013 296.059 694.538 296.637 696.131 296.744C697.724 296.852 699.314 296.485 700.698 295.689C702.082 294.894 703.2 293.705 703.909 292.275C704.618 290.844 704.887 289.235 704.682 287.652C704.477 286.068 703.807 284.581 702.756 283.379C701.706 282.176 700.323 281.312 698.781 280.895C698.127 280.727 697.456 280.634 696.78 280.617C694.989 280.596 693.241 281.171 691.811 282.252C690.381 283.332 689.351 284.856 688.881 286.585Z" fill="#5375E2"/>
<path d="M674.769 295.076C670.976 294.571 668.436 290.03 669.097 284.932C669.352 282.623 670.333 280.454 671.898 278.737C672.52 277.955 673.334 277.346 674.261 276.971C675.187 276.595 676.195 276.466 677.187 276.596C678.178 276.725 679.119 277.109 679.918 277.71C680.717 278.311 681.347 279.109 681.747 280.025C682.807 282.093 683.191 284.443 682.843 286.741C682.216 291.561 678.945 295.163 675.378 295.111L674.769 295.076ZM672.803 279.59C671.422 281.124 670.557 283.054 670.332 285.106C669.758 289.508 671.811 293.423 674.926 293.806C678.04 294.189 681.033 290.952 681.625 286.533C681.923 284.496 681.583 282.417 680.65 280.582C680.313 279.86 679.806 279.229 679.173 278.745C678.54 278.26 677.799 277.935 677.014 277.798H676.544C675.83 277.819 675.128 277.989 674.484 278.298C673.839 278.606 673.267 279.047 672.803 279.59Z" fill="#5375E2"/>
<path d="M687.854 287.42L688.776 286.567C687.523 285.21 684.496 283.209 681.92 285.332L682.703 286.289C685.018 284.34 687.68 287.263 687.854 287.42Z" fill="#5375E2"/>
<path d="M728.692 295.146L729.875 294.728C729.666 294.171 727.857 289.369 725.16 288.551C722.463 287.733 705.88 287.194 705.167 287.159V288.412C709.969 288.586 722.898 289.16 724.829 289.752C726.76 290.343 728.222 293.823 728.692 295.146Z" fill="#5375E2"/>
<path d="M717.695 294.05C717.695 294.05 725.107 283.94 729.718 286.602C734.329 289.265 728.587 304.002 723.072 305.969C722.38 306.263 721.636 306.415 720.884 306.414C720.133 306.413 719.389 306.26 718.698 305.964C718.007 305.668 717.383 305.236 716.864 304.692C716.344 304.149 715.941 303.506 715.677 302.802L717.695 294.05Z" fill="#EB9481"/>
<path d="M727.978 290.796V290.935C724.116 292.414 722.01 295.929 720.514 299.635C720.745 299.255 721.055 298.931 721.424 298.684C721.793 298.436 722.212 298.272 722.65 298.203C723.089 298.133 723.537 298.16 723.965 298.281C724.392 298.402 724.788 298.615 725.125 298.904C725.229 298.904 725.125 299.13 725.02 299.095C724.35 298.874 723.628 298.862 722.95 299.061C722.273 299.26 721.672 299.661 721.227 300.209C720.506 301.15 719.877 302.158 719.348 303.219C719.174 303.567 718.548 303.358 718.687 302.976C718.756 297.86 722.706 291.178 727.978 290.796Z" fill="#263238"/>
<path d="M730.536 286.724C730.012 286.339 729.401 286.09 728.757 285.999C728.114 285.907 727.457 285.977 726.847 286.202C726.673 286.202 726.656 286.359 726.847 286.306C727.58 286.089 728.359 286.089 729.092 286.306C729.701 286.498 731.423 287.211 731.406 290.813C731.141 293.658 730.357 296.43 729.092 298.991C729.092 299.078 729.196 299.165 729.249 299.078C730.09 297.475 730.767 295.79 731.267 294.049C731.754 292.101 732.398 288.307 730.536 286.724Z" fill="#263238"/>
<path d="M720.166 339.742C718.93 341.116 717.834 342.561 716.529 343.866C715.216 345.19 713.833 346.445 712.388 347.624C709.592 349.913 706.558 351.896 703.34 353.54C700.014 355.52 696.143 356.385 692.291 356.011C690.544 355.714 688.912 354.946 687.569 353.79C686.226 352.634 685.224 351.134 684.67 349.451C683.051 345.101 684.148 340.473 685.209 335.914C685.209 335.757 685 335.688 684.948 335.914C683.747 340.594 682.843 344.44 683.66 348.842C683.928 350.56 684.62 352.184 685.675 353.567C686.729 354.949 688.112 356.047 689.698 356.759C697.406 359.961 705.619 354.41 711.326 349.66C712.997 348.265 714.583 346.771 716.077 345.188C717.675 343.577 719.131 341.831 720.427 339.968C720.479 339.759 720.27 339.62 720.166 339.742Z" fill="#263238"/>
<path d="M760.85 485.748H136.99V507.933H760.85V485.748Z" fill="#37474F"/>
<path d="M760.85 499.268H136.99V507.933H760.85V499.268Z" fill="#455A64"/>
<path d="M159.367 819.219H150.406L176.506 507.933H199.387L159.367 819.219Z" fill="#455A64"/>
<path d="M199.387 507.933L196.707 528.761H174.766L176.506 507.933H199.387Z" fill="#263238"/>
<path d="M738.473 819.219H747.434L721.334 507.933H698.453L738.473 819.219Z" fill="#455A64"/>
<path d="M698.453 507.933L701.133 528.761H723.074L721.334 507.933H698.453Z" fill="#263238"/>
<path d="M530.574 485.73H626.953V478.231L530.574 475.116V485.73Z" fill="#455A64"/>
<path d="M454.815 485.591H518.412C523.84 485.591 515.976 470.14 496.174 464.224C476.373 458.308 448.585 479.797 454.815 485.591Z" fill="#37474F"/>
<path d="M479.766 485.591C478.732 482.34 477.343 479.213 475.625 476.265C474.776 474.824 473.785 473.472 472.667 472.228C471.512 470.973 470.261 469.81 468.926 468.748C470.648 469.254 472.244 470.12 473.607 471.288C474.989 472.459 476.165 473.853 477.087 475.412C478.015 476.959 478.724 478.628 479.192 480.371C479.68 482.066 479.874 483.831 479.766 485.591Z" fill="#263238"/>
<path d="M472.232 470.888C468.891 473.063 465.55 475.012 462.418 477.257C460.851 478.343 459.373 479.554 457.999 480.876C456.589 482.182 455.5 483.796 454.815 485.591C454.859 483.526 455.629 481.543 456.99 479.989C458.253 478.4 459.742 477.005 461.409 475.847C463.056 474.696 464.803 473.694 466.629 472.855C468.422 472.002 470.3 471.343 472.232 470.888Z" fill="#263238"/>
<path d="M409.192 455.681H563.756L539.187 340.615H384.606L409.192 455.681Z" fill="#455A64"/>
<path d="M403.485 455.681H558.049L533.463 340.615H378.898L403.485 455.681Z" fill="#37474F"/>
<path d="M486.848 414.425H490.467L484.969 388.621H481.35L486.848 414.425Z" fill="#263238"/>
<path d="M479.697 414.425H483.316L477.818 388.621H474.181L479.697 414.425Z" fill="#263238"/>
<path d="M472.545 414.425H476.164L470.666 388.621H467.029L472.545 414.425Z" fill="#263238"/>
<path d="M465.394 414.425H469.013L463.515 388.621H459.878L465.394 414.425Z" fill="#263238"/>
<path d="M458.225 414.425H461.862L456.363 388.621H452.727L458.225 414.425Z" fill="#263238"/>
<path d="M451.074 414.425H454.71L449.194 388.621H445.575L451.074 414.425Z" fill="#263238"/>
<path d="M443.922 414.425H447.559L442.043 388.621H438.424L443.922 414.425Z" fill="#263238"/>
<path d="M447.193 485.748H523.214V479.832L447.193 477.378V485.748Z" fill="#455A64"/>
<path d="M426.522 485.73H467.343L491.929 421.246H451.108L426.522 485.73Z" fill="#455A64"/>
<path d="M419.806 485.73H460.626L485.195 421.246H444.392L419.806 485.73Z" fill="#263238"/>
<path d="M404.376 104.168C404.376 104.168 394.98 180.015 379.32 197.084C360.632 217.547 347.078 214.484 339.526 225.116C331.992 214.537 318.42 217.547 299.715 197.067C284.055 179.998 274.694 104.151 274.694 104.151C315.723 84.2453 339.526 61.9211 339.526 61.9211C340.257 62.6345 363.973 84.576 404.376 104.168Z" fill="#5375E2"/>
<path opacity="0.2" d="M339.526 61.956V225.116C331.992 214.537 318.42 217.547 299.715 197.067C284.055 179.998 274.694 104.151 274.694 104.151C315.723 84.2453 339.526 61.9211 339.526 61.9211V61.956Z" fill="black"/>
<path opacity="0.1" d="M404.376 104.168C404.376 104.168 394.98 180.015 379.32 197.084C360.633 217.547 347.078 214.484 339.526 225.116V61.9561C340.257 62.6347 363.973 84.5761 404.376 104.168Z" fill="black"/>
<path d="M394.301 110.276C394.301 110.276 386.28 174.36 373.16 188.767C357.361 206.167 345.895 203.54 339.509 212.466C333.14 203.54 321.674 206.098 305.875 188.767C292.72 174.343 284.734 110.276 284.734 110.276C319.394 93.4499 339.509 74.6057 339.509 74.6057C339.509 74.6057 359.658 93.4499 394.301 110.276Z" fill="#5375E2"/>
<path d="M355.952 134.444H323.083V164.268H355.952V134.444Z" fill="white"/>
<path d="M352.663 143.632H349.322V130.321C349.216 127.792 348.136 125.402 346.309 123.65C344.482 121.898 342.049 120.92 339.518 120.92C336.986 120.92 334.553 121.898 332.726 123.65C330.899 125.402 329.819 127.792 329.713 130.321V143.632H326.372V130.321C326.496 126.917 327.935 123.694 330.387 121.33C332.838 118.966 336.112 117.645 339.518 117.645C342.923 117.645 346.197 118.966 348.648 121.33C351.1 123.694 352.539 126.917 352.663 130.321V143.632Z" fill="white"/>
<path d="M340.918 149.722L342.293 156.247H336.447L337.821 149.722C337.283 149.385 336.868 148.883 336.641 148.29C336.413 147.698 336.385 147.047 336.56 146.437C336.735 145.827 337.103 145.29 337.61 144.908C338.117 144.526 338.735 144.319 339.37 144.319C340.005 144.319 340.622 144.526 341.129 144.908C341.636 145.29 342.005 145.827 342.18 146.437C342.355 147.047 342.326 147.698 342.099 148.29C341.871 148.883 341.457 149.385 340.918 149.722Z" fill="#37474F"/>
<path d="M232.168 424.369H136.99V343.876L184.562 313.653L232.168 343.876V424.369Z" fill="#5375E2"/>
<path opacity="0.2" d="M232.168 424.369H136.99V343.876L184.562 313.653L232.168 343.876V424.369Z" fill="black"/>
<path d="M226.792 411.562H142.349V303.178H205.042L226.792 323.832V411.562Z" fill="#EBEBEB"/>
<path d="M205.042 303.178L226.792 323.832H205.042V303.178Z" fill="#DBDBDB"/>
<path d="M150.597 324.145H197.542V321.361H150.597V324.145Z" fill="#DBDBDB"/>
<path d="M150.597 331.174H197.542V328.39H150.597V331.174Z" fill="#DBDBDB"/>
<path d="M150.597 338.187H197.542V335.403H150.597V338.187Z" fill="#DBDBDB"/>
<path d="M150.597 345.234H219.379V342.45H150.597V345.234Z" fill="#DBDBDB"/>
<path d="M150.597 352.246H219.379V349.462H150.597V352.246Z" fill="#DBDBDB"/>
<path d="M150.597 359.275H219.379V356.491H150.597V359.275Z" fill="#DBDBDB"/>
<path d="M150.597 366.288H219.379V363.504H150.597V366.288Z" fill="#DBDBDB"/>
<path d="M150.597 373.334H219.379V370.55H150.597V373.334Z" fill="#DBDBDB"/>
<path d="M150.597 380.347H219.379V377.563H150.597V380.347Z" fill="#DBDBDB"/>
<path d="M150.597 387.376H219.379V384.592H150.597V387.376Z" fill="#DBDBDB"/>
<path d="M150.597 394.388H219.379V391.604H150.597V394.388Z" fill="#DBDBDB"/>
<path d="M150.597 401.418H219.379V398.634H150.597V401.418Z" fill="#DBDBDB"/>
<path d="M232.168 364.026V424.369H136.99V364.026C141.079 366.34 145.099 368.758 149.17 371.142C153.242 373.526 157.226 375.962 161.228 378.433C165.694 381.147 170.149 383.896 174.592 386.68H174.748L174.626 386.785L184.614 393.031C187.937 390.943 191.261 388.838 194.602 386.785L194.48 386.68H194.619C199.073 383.914 203.51 381.165 207.982 378.433C211.984 375.985 216.004 373.561 220.04 371.16C224.06 368.758 228.079 366.34 232.168 364.026Z" fill="#5375E2"/>
<path d="M232.168 364.026C228.323 366.723 224.408 369.246 220.528 371.96C216.647 374.674 212.715 377.18 208.783 379.738C204.85 382.296 200.552 385.08 196.446 387.724L196.081 387.985L185.119 394.945L184.562 395.276L184.04 394.945C180.386 392.625 176.738 390.305 173.095 387.985C172.961 387.915 172.833 387.833 172.712 387.742C168.571 385.097 164.465 382.522 160.358 379.738C156.252 376.954 152.528 374.518 148.631 371.977C144.733 369.437 140.836 366.757 136.99 364.043C141.079 366.357 145.099 368.776 149.17 371.16C153.242 373.543 157.226 375.979 161.228 378.45C165.694 381.165 170.149 383.914 174.592 386.698L184.579 392.944C187.903 390.856 191.226 388.751 194.567 386.698C199.021 383.931 203.458 381.182 207.93 378.45C211.932 376.003 215.951 373.578 219.988 371.177C224.06 368.758 228.079 366.34 232.168 364.026Z" fill="white"/>
<path d="M174.714 386.593L174.592 386.698L173.095 387.968C170.712 389.986 168.258 391.918 165.77 393.797C162.742 396.111 159.645 398.321 156.531 400.513C153.416 402.706 150.249 404.828 147.03 406.882C143.811 408.935 140.575 410.953 137.217 412.798C140.105 410.275 143.115 407.908 146.143 405.611C149.17 403.315 152.285 401.07 155.382 398.878C158.479 396.685 161.681 394.562 164.883 392.509C167.44 390.769 170.103 389.238 172.713 387.724L174.557 386.68L174.714 386.593Z" fill="white"/>
<path d="M231.925 412.798C228.566 410.953 225.313 408.935 222.111 406.882C218.909 404.828 215.76 402.671 212.611 400.513C209.461 398.356 206.399 396.111 203.354 393.797C200.883 391.918 198.447 390.004 196.081 387.985C195.559 387.55 195.054 387.133 194.567 386.698L194.445 386.593H194.584L196.446 387.655C199.108 389.168 201.666 390.787 204.259 392.44C207.478 394.493 210.627 396.633 213.759 398.808C216.891 400.983 219.971 403.228 222.998 405.542C226.026 407.856 229.036 410.275 231.925 412.798Z" fill="white"/>
<path d="M231.925 439.802C240.573 439.802 247.585 432.791 247.585 424.142C247.585 415.494 240.573 408.482 231.925 408.482C223.276 408.482 216.265 415.494 216.265 424.142C216.265 432.791 223.276 439.802 231.925 439.802Z" fill="#37474F"/>
<path d="M239.685 420.193H224.164V434.287H239.685V420.193Z" fill="white"/>
<path d="M238.136 424.56H236.64V418.261C236.568 417.081 236.048 415.972 235.186 415.162C234.324 414.351 233.186 413.9 232.003 413.9C230.82 413.9 229.681 414.351 228.82 415.162C227.958 415.972 227.438 417.081 227.366 418.261V424.56H225.8V418.261C225.755 417.419 225.882 416.577 226.174 415.785C226.466 414.994 226.915 414.27 227.496 413.658C228.076 413.046 228.775 412.559 229.55 412.226C230.325 411.893 231.159 411.721 232.003 411.721C232.846 411.721 233.681 411.893 234.456 412.226C235.231 412.559 235.93 413.046 236.51 413.658C237.09 414.27 237.54 414.994 237.832 415.785C238.123 416.577 238.251 417.419 238.206 418.261L238.136 424.56Z" fill="white"/>
<path d="M232.586 427.414L233.247 430.494H230.481L231.124 427.414C230.929 427.288 230.768 427.115 230.656 426.912C230.544 426.708 230.483 426.48 230.481 426.248C230.475 426.003 230.535 425.762 230.653 425.547C230.771 425.333 230.943 425.153 231.153 425.027C231.362 424.9 231.602 424.831 231.846 424.827C232.091 424.822 232.332 424.882 232.547 425.001C232.761 425.119 232.94 425.292 233.066 425.502C233.192 425.712 233.26 425.951 233.264 426.196C233.268 426.441 233.207 426.682 233.088 426.896C232.969 427.11 232.796 427.288 232.586 427.414Z" fill="#37474F"/>
<path d="M303.039 241.75H143.272V265.971H303.039V241.75Z" fill="white"/>
<path d="M303.891 266.841H142.402V240.88H303.891V266.841ZM144.142 265.101H302.151V242.62H144.142V265.101Z" fill="#EBEBEB"/>
<path d="M139.009 269.521C147.657 269.521 154.669 262.509 154.669 253.861C154.669 245.212 147.657 238.201 139.009 238.201C130.36 238.201 123.349 245.212 123.349 253.861C123.349 262.509 130.36 269.521 139.009 269.521Z" fill="#37474F"/>
<path d="M146.769 249.894H131.248V263.988H146.769V249.894Z" fill="white"/>
<path d="M145.22 254.243H143.637V247.962C143.637 246.735 143.149 245.557 142.281 244.689C141.413 243.821 140.236 243.334 139.009 243.334C137.781 243.334 136.604 243.821 135.736 244.689C134.868 245.557 134.38 246.735 134.38 247.962V254.243H132.797V247.962C132.797 246.315 133.451 244.735 134.616 243.57C135.781 242.405 137.361 241.75 139.009 241.75C140.656 241.75 142.236 242.405 143.401 243.57C144.566 244.735 145.22 246.315 145.22 247.962V254.243Z" fill="white"/>
<path d="M139.67 257.115L140.314 260.212H137.547L138.208 257.115C138.005 256.995 137.837 256.825 137.721 256.62C137.605 256.416 137.545 256.184 137.547 255.949C137.585 255.609 137.747 255.294 138.002 255.066C138.258 254.838 138.588 254.712 138.93 254.712C139.272 254.712 139.603 254.838 139.858 255.066C140.113 255.294 140.275 255.609 140.314 255.949C140.314 256.182 140.255 256.411 140.142 256.615C140.03 256.819 139.867 256.991 139.67 257.115Z" fill="#37474F"/>
<path d="M170.972 248.71H169.232V259.794H170.972V248.71Z" fill="#37474F"/>
<path d="M175.636 253.374H164.552V255.114H175.636V253.374Z" fill="#37474F"/>
<path d="M173.4 249.71L165.563 257.547L166.793 258.778L174.631 250.94L173.4 249.71Z" fill="#37474F"/>
<path d="M166.805 249.71L165.575 250.94L173.412 258.778L174.643 257.548L166.805 249.71Z" fill="#37474F"/>
<path d="M189.782 248.71H188.042V259.794H189.782V248.71Z" fill="#37474F"/>
<path d="M194.462 253.374H183.379V255.114H194.462V253.374Z" fill="#37474F"/>
<path d="M192.229 249.708L184.391 257.546L185.621 258.776L193.459 250.939L192.229 249.708Z" fill="#37474F"/>
<path d="M185.621 249.721L184.391 250.951L192.229 258.789L193.459 257.558L185.621 249.721Z" fill="#37474F"/>
<path d="M208.609 248.71H206.869V259.794H208.609V248.71Z" fill="#37474F"/>
<path d="M213.272 253.374H202.188V255.114H213.272V253.374Z" fill="#37474F"/>
<path d="M211.027 249.719L203.19 257.557L204.42 258.787L212.257 250.95L211.027 249.719Z" fill="#37474F"/>
<path d="M204.433 249.719L203.202 250.949L211.04 258.787L212.27 257.557L204.433 249.719Z" fill="#37474F"/>
<path d="M227.436 248.71H225.696V259.794H227.436V248.71Z" fill="#37474F"/>
<path d="M232.099 253.374H221.015V255.114H232.099V253.374Z" fill="#37474F"/>
<path d="M229.856 249.717L222.018 257.555L223.248 258.785L231.086 250.948L229.856 249.717Z" fill="#37474F"/>
<path d="M223.261 249.718L222.031 250.948L229.868 258.785L231.098 257.555L223.261 249.718Z" fill="#37474F"/>
<path d="M246.245 248.71H244.505V259.794H246.245V248.71Z" fill="#37474F"/>
<path d="M250.925 253.374H239.842V255.114H250.925V253.374Z" fill="#37474F"/>
<path d="M248.684 249.716L240.846 257.553L242.077 258.784L249.914 250.946L248.684 249.716Z" fill="#37474F"/>
<path d="M242.077 249.728L240.846 250.959L248.684 258.796L249.914 257.566L242.077 249.728Z" fill="#37474F"/>
<path d="M265.072 248.71H263.332V259.794H265.072V248.71Z" fill="#37474F"/>
<path d="M269.735 253.374H258.651V255.114H269.735V253.374Z" fill="#37474F"/>
<path d="M267.5 249.709L259.663 257.547L260.893 258.777L268.73 250.94L267.5 249.709Z" fill="#37474F"/>
<path d="M260.905 249.709L259.675 250.94L267.512 258.777L268.743 257.547L260.905 249.709Z" fill="#37474F"/>
<path d="M732.69 84.5496H572.923V108.77H732.69V84.5496Z" fill="white"/>
<path d="M733.542 109.64H572.053V83.6797H733.542V109.64ZM573.793 107.9H731.802V85.4197H573.793V107.9Z" fill="#EBEBEB"/>
<path d="M568.66 112.32C577.309 112.32 584.32 105.309 584.32 96.66C584.32 88.0112 577.309 81 568.66 81C560.011 81 553 88.0112 553 96.66C553 105.309 560.011 112.32 568.66 112.32Z" fill="#37474F"/>
<path d="M576.42 92.6929H560.9V106.787H576.42V92.6929Z" fill="white"/>
<path d="M574.872 97.0428H573.288V90.7614C573.288 89.5338 572.801 88.3566 571.933 87.4886C571.065 86.6206 569.888 86.133 568.66 86.133C567.433 86.133 566.255 86.6206 565.387 87.4886C564.519 88.3566 564.032 89.5338 564.032 90.7614V97.0428H562.448V90.7614C562.448 89.1139 563.103 87.5339 564.268 86.369C565.433 85.204 567.013 84.5496 568.66 84.5496C570.308 84.5496 571.888 85.204 573.052 86.369C574.217 87.5339 574.872 89.1139 574.872 90.7614V97.0428Z" fill="white"/>
<path d="M569.321 99.9139L569.965 103.011H567.198L567.859 99.9139C567.657 99.7947 567.489 99.6242 567.373 99.4196C567.257 99.2149 567.196 98.9833 567.198 98.7481C567.236 98.4079 567.399 98.0938 567.654 97.8657C567.909 97.6376 568.239 97.5115 568.582 97.5115C568.924 97.5115 569.254 97.6376 569.509 97.8657C569.764 98.0938 569.927 98.4079 569.965 98.7481C569.965 98.981 569.906 99.2102 569.794 99.4141C569.681 99.6181 569.518 99.79 569.321 99.9139Z" fill="#37474F"/>
<path d="M600.624 91.5095H598.884V102.593H600.624V91.5095Z" fill="#37474F"/>
<path d="M605.287 96.1729H594.203V97.9129H605.287V96.1729Z" fill="#37474F"/>
<path d="M603.052 92.5092L595.214 100.347L596.444 101.577L604.282 93.7396L603.052 92.5092Z" fill="#37474F"/>
<path d="M596.457 92.5094L595.226 93.7397L603.064 101.577L604.294 100.347L596.457 92.5094Z" fill="#37474F"/>
<path d="M619.433 91.5095H617.693V102.593H619.433V91.5095Z" fill="#37474F"/>
<path d="M624.114 96.1729H613.03V97.9129H624.114V96.1729Z" fill="#37474F"/>
<path d="M621.88 92.5078L614.042 100.345L615.273 101.576L623.11 93.7381L621.88 92.5078Z" fill="#37474F"/>
<path d="M615.273 92.5201L614.042 93.7505L621.88 101.588L623.11 100.358L615.273 92.5201Z" fill="#37474F"/>
<path d="M638.26 91.5095H636.52V102.593H638.26V91.5095Z" fill="#37474F"/>
<path d="M642.923 96.1729H631.839V97.9129H642.923V96.1729Z" fill="#37474F"/>
<path d="M640.678 92.5185L632.841 100.356L634.071 101.586L641.909 93.7489L640.678 92.5185Z" fill="#37474F"/>
<path d="M634.084 92.5184L632.854 93.7488L640.691 101.586L641.921 100.356L634.084 92.5184Z" fill="#37474F"/>
<path d="M657.087 91.5095H655.347V102.593H657.087V91.5095Z" fill="#37474F"/>
<path d="M661.75 96.1729H650.666V97.9129H661.75V96.1729Z" fill="#37474F"/>
<path d="M659.507 92.5168L651.669 100.354L652.9 101.585L660.737 93.7472L659.507 92.5168Z" fill="#37474F"/>
<path d="M652.912 92.5169L651.682 93.7473L659.519 101.585L660.75 100.354L652.912 92.5169Z" fill="#37474F"/>
<path d="M675.896 91.5095H674.156V102.593H675.896V91.5095Z" fill="#37474F"/>
<path d="M680.577 96.1729H669.493V97.9129H680.577V96.1729Z" fill="#37474F"/>
<path d="M678.335 92.5153L670.498 100.353L671.728 101.583L679.566 93.7457L678.335 92.5153Z" fill="#37474F"/>
<path d="M671.728 92.5277L670.498 93.7581L678.335 101.595L679.566 100.365L671.728 92.5277Z" fill="#37474F"/>
<path d="M694.723 91.5095H692.983V102.593H694.723V91.5095Z" fill="#37474F"/>
<path d="M699.386 96.1729H688.302V97.9129H699.386V96.1729Z" fill="#37474F"/>
<path d="M697.151 92.5087L689.314 100.346L690.544 101.577L698.382 93.7391L697.151 92.5087Z" fill="#37474F"/>
<path d="M690.557 92.5086L689.326 93.739L697.164 101.576L698.394 100.346L690.557 92.5086Z" fill="#37474F"/>
<path d="M131.997 683.603C131.997 683.603 93.4212 674.903 72.2802 655.381C51.1392 635.858 39.342 601.006 39.342 601.006C54.0009 603.835 68.4524 607.648 82.5984 612.42C86.0784 616.109 92.6208 623.713 95.6832 630.916C96.0428 626.517 96.0776 622.097 95.7876 617.692C100.721 619.833 105.34 622.637 109.516 626.027C127.038 641.321 131.997 683.603 131.997 683.603Z" fill="#5375E2"/>
<path d="M63.4237 617.971C58.2037 614.317 52.8097 610.819 47.5723 607.148C47.5223 607.098 47.4903 607.034 47.4815 606.964C47.4727 606.894 47.4875 606.824 47.5236 606.764C47.5598 606.703 47.6151 606.657 47.6807 606.632C47.7463 606.607 47.8185 606.605 47.8855 606.626C57.8209 612.559 67.6345 618.91 77.1001 625.557C80.4061 627.871 83.6599 630.29 86.8615 632.743L86.2003 631.595C85.0345 629.663 83.8165 627.767 82.5985 625.87C80.1794 621.998 77.4379 618.337 74.4031 614.926C74.2987 614.804 74.4031 614.63 74.5945 614.752C77.6047 618.232 80.5975 621.712 83.2945 625.313C84.5995 627.053 85.8001 628.793 86.9485 630.725C87.5575 631.682 88.1317 632.656 88.6885 633.631L89.2627 634.622C94.2565 638.537 99.1111 642.626 103.739 646.942C106.611 649.621 109.36 652.37 112.022 655.224C110.543 650.561 109.238 645.845 107.498 641.304C107.498 641.147 107.707 641.095 107.759 641.304C109.499 646.124 111.239 650.961 112.579 655.92C115.537 659.098 118.35 662.41 121.018 665.855C121.018 665.647 121.018 665.438 120.879 665.229C120.444 663.489 119.991 661.592 119.504 659.8C118.564 656.32 117.538 652.84 116.354 649.36C114.122 642.248 110.581 635.615 105.915 629.803C105.81 629.663 105.915 629.489 106.106 629.611C113.64 638.537 118.06 649.238 120.879 660.461C121.279 662.114 121.679 663.75 122.044 665.403C122.253 666.273 122.479 667.143 122.636 668.065C123.802 669.649 124.933 671.232 126.116 672.868C132.692 682.922 138.164 693.656 142.437 704.884C147.265 717.488 151.395 730.349 154.809 743.407C154.809 743.668 154.495 743.755 154.408 743.512C146.857 720.892 139.166 698.045 126.238 677.879C123.513 673.62 120.575 669.503 117.433 665.542C111.044 665.132 104.737 663.88 98.6761 661.819C92.0574 659.588 85.7443 656.536 79.8841 652.736C76.5675 650.481 73.3676 648.059 70.2967 645.48C70.2782 645.47 70.262 645.457 70.2495 645.44C70.2369 645.424 70.2283 645.404 70.2241 645.384C70.22 645.363 70.2205 645.342 70.2256 645.322C70.2307 645.302 70.2403 645.283 70.2536 645.267C70.267 645.251 70.2837 645.238 70.3027 645.23C70.3216 645.221 70.3423 645.217 70.3631 645.217C70.384 645.218 70.4044 645.223 70.4231 645.232C70.4417 645.241 70.458 645.255 70.4707 645.271C75.8559 649.602 81.8027 653.185 88.1491 655.92C94.3843 658.777 100.905 660.965 107.602 662.445C110.456 663.071 113.344 663.524 116.302 663.924C112.733 659.516 108.941 655.294 104.94 651.274C103.635 649.987 102.295 648.734 100.956 647.481C96.4569 644.334 91.6812 641.602 86.6875 639.32C80.3713 636.258 74.1595 633.022 67.8955 629.837C64.4155 628.097 60.9355 626.201 57.2989 624.478C57.1597 624.391 57.2989 624.182 57.4381 624.252C63.7891 627.314 70.2271 630.168 76.5781 633.109C82.6159 635.858 88.7581 638.624 94.4827 641.809L95.2135 642.244C89.9819 637.696 84.5937 633.341 79.0489 629.176C73.8811 625.383 68.6959 621.607 63.4237 617.971Z" fill="#263238"/>
<path d="M65.616 637.842C68.748 639.216 71.9496 640.434 75.0468 641.896C78.144 643.357 81.2586 645.132 84.3036 646.924C84.4254 647.011 84.3036 647.185 84.1644 647.133C81.102 645.654 77.9874 644.28 74.9424 642.748C71.8974 641.217 68.7306 639.495 65.529 638.103C65.3898 638.033 65.4594 637.772 65.616 637.842Z" fill="#263238"/>
<path d="M257.295 489.228C250.168 498.421 246.136 509.635 245.776 521.261C245.637 524.741 246.193 529.526 246.594 535.181C232.204 542.82 221.416 556.74 221.416 556.74C229.594 551.833 240.799 549.78 246.855 550.65C246.657 554.522 246.163 558.373 245.376 562.169C242.713 562.012 237.546 562.378 229.02 565.405C234.087 565.353 239.11 566.348 243.775 568.328C236.902 590.218 216.457 612.681 160.029 622.268C154.033 595.429 157.564 567.34 170.016 542.82C186.929 509.534 257.295 489.228 257.295 489.228Z" fill="#5375E2"/>
<path d="M140.488 715.811C141.463 706.461 142.681 697.141 144.142 687.849C147.002 669.26 150.8 650.827 155.522 632.622C157.734 624.075 160.453 615.667 163.665 607.444C163.505 605.941 163.441 604.43 163.474 602.92C163.474 601.18 163.474 599.301 163.474 597.508C163.474 593.889 163.648 590.276 163.996 586.668C164.572 579.532 165.736 572.455 167.476 565.51C168.502 561.49 169.703 557.541 170.956 553.556C170.956 553.399 171.251 553.469 171.199 553.556C169.336 560.495 167.946 567.552 167.041 574.68C166.034 581.705 165.401 588.78 165.144 595.873C165.144 597.804 165.04 599.736 165.04 601.684C165.04 602.502 165.04 603.337 165.04 604.173C167.803 597.454 170.976 590.911 174.54 584.58C180.275 574.495 186.73 564.836 193.854 555.679C193.872 554.613 194.03 553.554 194.324 552.529C194.585 551.259 194.863 550.006 195.142 548.754C195.716 546.178 196.36 543.534 197.073 541.063C198.465 535.947 200.327 531.006 201.928 525.96C201.928 525.786 202.223 525.873 202.171 525.96C200.675 530.953 199.683 536.139 198.552 541.219C197.978 543.742 197.438 546.265 196.812 548.788C196.534 550.041 196.255 551.294 195.994 552.564V552.843C198.274 549.972 200.605 547.118 202.954 544.334C213.725 531.702 225.574 519.974 237.441 508.473C238.903 507.046 240.399 505.654 241.878 504.244C241.905 504.228 241.936 504.221 241.967 504.225C241.998 504.229 242.027 504.243 242.049 504.265C242.071 504.287 242.085 504.316 242.089 504.347C242.093 504.378 242.086 504.409 242.069 504.436C230.707 516.303 219.449 528.291 208.905 540.837C206.399 543.829 203.911 546.84 201.475 549.902C202.763 549.032 204.05 548.162 205.321 547.362C208.609 545.204 211.933 543.116 215.36 541.202C218.788 539.288 222.233 537.409 225.8 535.651C229.367 533.894 233.3 532.398 236.78 530.431C236.936 530.344 237.058 530.588 236.919 530.658C233.35 532.305 229.907 534.213 226.618 536.365C223.138 538.401 219.658 540.454 216.37 542.594C213.081 544.734 209.723 546.77 206.434 548.91C203.685 550.65 200.988 552.634 198.134 554.287C191.591 562.689 185.554 571.474 180.056 580.596C176.637 586.341 173.519 592.259 170.712 598.326L172.73 597.456L177.95 595.159C181.274 593.68 184.615 592.236 187.938 590.792C194.272 588.043 200.692 585.572 206.904 582.492C210.402 580.849 213.786 578.972 217.031 576.872C217.17 576.768 217.292 576.994 217.17 577.098C205.599 585.067 192.619 590.688 179.812 596.36L174.262 598.813C172.73 599.492 171.199 600.24 169.633 600.832C165.847 609.299 162.655 618.021 160.081 626.932C155.068 644.907 151.002 663.132 147.901 681.533C144.664 699.96 142.472 718.525 140.784 737.213C140.558 739.545 140.349 741.859 140.088 744.173C140.088 744.367 140.011 744.553 139.874 744.69C139.737 744.827 139.551 744.904 139.357 744.904C139.163 744.904 138.977 744.827 138.84 744.69C138.703 744.553 138.626 744.367 138.626 744.173C138.539 734.69 139.496 725.207 140.488 715.811Z" fill="#263238"/>
<path d="M174.818 559.959C175.862 554.217 177.394 548.614 178.942 542.994C178.942 542.82 179.221 542.907 179.186 542.994C177.759 548.51 176.732 554.13 175.706 559.733C174.679 565.336 173.705 571.165 172.904 576.907C172.904 576.994 172.748 577.011 172.748 576.907C173.125 571.224 173.816 565.566 174.818 559.959Z" fill="#263238"/>
<path d="M199.144 575.515C203.07 572.908 207.175 570.582 211.428 568.555C213.481 567.493 215.569 566.484 217.64 565.475C219.711 564.466 222.025 563.561 224.148 562.499C224.176 562.492 224.207 562.494 224.234 562.505C224.261 562.517 224.285 562.536 224.3 562.561C224.316 562.587 224.323 562.616 224.32 562.646C224.318 562.675 224.306 562.703 224.287 562.726C222.216 563.752 220.267 565.005 218.232 566.119C216.196 567.232 214.073 568.415 211.968 569.599C207.844 571.808 203.79 574.262 199.457 576.071C199.383 576.113 199.296 576.123 199.214 576.101C199.133 576.078 199.064 576.023 199.022 575.95C198.98 575.876 198.97 575.788 198.993 575.707C199.016 575.625 199.07 575.556 199.144 575.515Z" fill="#263238"/>
<path opacity="0.1" d="M131.301 616.787C131.301 616.787 95.5964 608.261 79.223 584.319C63.563 561.455 58.4996 522.479 58.0994 519.052C58.7432 522.184 66.1208 556.253 90.4112 572.122C109.012 584.284 126.986 594.272 131.301 616.787Z" fill="#263238"/>
<path d="M131.301 616.787C131.301 616.787 95.5963 608.261 79.2229 584.319C63.5629 561.455 58.4995 522.479 58.0993 519.052C58.0925 518.971 58.0925 518.889 58.0993 518.808C58.0993 518.808 75.2209 543.168 93.2125 549.345C111.204 555.522 136.452 577.011 131.301 616.787Z" fill="#5375E2"/>
<path d="M64.3981 532.223C67.5697 538.779 71.2342 545.084 75.3601 551.085C79.5235 556.782 84.4604 561.871 90.0283 566.206C94.8829 570.051 100.016 573.548 104.923 577.307L104.801 577.133C103.879 575.776 102.904 574.436 101.878 573.148C99.8419 570.538 97.6147 568.067 95.3527 565.631C90.9331 560.812 86.3917 556.096 82.4245 550.894C80.2093 548.021 78.2913 544.931 76.6999 541.672C76.6999 541.515 76.8739 541.428 76.9435 541.672C82.7377 553.73 94.3435 561.455 102.556 571.634C103.728 573.086 104.825 574.596 105.845 576.158C106.66 577.286 107.349 578.499 107.898 579.778C112.417 583.397 116.504 587.525 120.078 592.079C119.77 589.728 119.293 587.402 118.651 585.119C117.818 581.946 116.541 578.906 114.858 576.089C114.858 575.95 114.997 575.793 115.084 575.932C116.812 578.761 118.208 581.779 119.243 584.928C120.01 587.414 120.466 589.986 120.6 592.584C122.363 594.98 123.973 597.484 125.42 600.083C125.263 599.318 125.124 598.552 124.967 597.787C124.271 594.307 123.488 590.687 122.566 587.19C120.883 580.078 117.987 573.309 114.005 567.18C113.998 567.151 114 567.121 114.011 567.094C114.023 567.066 114.042 567.043 114.067 567.027C114.093 567.012 114.122 567.005 114.152 567.007C114.181 567.01 114.209 567.021 114.232 567.041C118.322 573.107 121.521 579.729 123.732 586.703C124.88 590.183 125.785 593.767 126.586 597.369C126.986 599.109 127.334 600.849 127.664 602.589C127.838 603.494 128.047 604.433 128.186 605.373C131.733 613.139 134.49 621.242 136.417 629.559C139.929 644.424 142.475 659.501 144.038 674.695C145.873 690.6 146.692 706.605 146.491 722.614C146.491 724.615 146.352 726.616 146.23 728.635C146.23 729.139 145.43 729.226 145.412 728.635C145.064 720.718 144.856 712.801 144.386 704.884C143.916 696.967 143.22 689.067 142.385 681.167C140.757 665.666 138.27 650.266 134.938 635.04C132.049 621.99 128.291 608.853 121.157 597.421C117.61 591.734 113.275 586.579 108.281 582.109C103.287 577.62 97.8409 573.688 92.6209 569.529C87.2751 565.468 82.4223 560.797 78.1615 555.609C73.7456 549.856 69.894 543.691 66.6601 537.2C65.8249 535.582 64.9201 533.981 64.1023 532.363C64.0849 532.223 64.3111 532.084 64.3981 532.223Z" fill="#263238"/>
<path d="M70.5578 537.461C72.887 542.277 75.5439 546.928 78.5096 551.381C78.5096 551.485 78.4052 551.59 78.3356 551.485C75.2755 547.076 72.5867 542.42 70.2968 537.565C70.2272 537.391 70.4708 537.304 70.5578 537.461Z" fill="#263238"/>
<path d="M262.271 601.006C262.271 601.006 262.845 651.727 232.517 666.36C202.189 680.993 185.92 668.813 165.318 673.72C166.119 672.52 180.822 651.379 204.225 645.55C228.306 639.512 254.98 622.129 262.271 601.006Z" fill="#5375E2"/>
<path opacity="0.1" d="M262.271 601.006C262.271 601.006 262.845 651.727 232.517 666.36C202.189 680.993 185.92 668.813 165.318 673.72C176.209 668.543 187.847 665.114 199.805 663.559C218.962 661.14 255.485 648.751 262.271 601.006Z" fill="black"/>
<path d="M163.317 674.625C166.924 671.336 170.985 668.582 175.375 666.447C176.036 666.134 176.698 665.89 177.359 665.612C177.678 665.204 178.021 664.814 178.385 664.446C179.285 663.488 180.238 662.582 181.239 661.732C183.133 660.085 185.171 658.612 187.329 657.329C192.358 654.371 197.873 652.301 202.989 649.569C203.004 649.561 203.02 649.556 203.037 649.554C203.054 649.553 203.071 649.554 203.087 649.559C203.103 649.564 203.118 649.572 203.131 649.583C203.144 649.593 203.155 649.606 203.163 649.621C203.171 649.636 203.176 649.652 203.178 649.669C203.179 649.686 203.178 649.703 203.173 649.719C203.168 649.735 203.16 649.75 203.149 649.763C203.139 649.776 203.126 649.787 203.111 649.795C200.57 651.118 198.117 652.562 195.646 654.006C193.175 655.45 190.792 656.755 188.443 658.252C186.332 659.603 184.326 661.109 182.44 662.758C181.918 663.228 181.396 663.733 180.891 664.255C184.242 663.117 187.666 662.204 191.14 661.523C196.69 660.409 202.293 659.609 207.844 658.426C210.561 657.85 213.245 657.124 215.882 656.251C218.405 654.232 220.911 652.214 223.295 650.021C226.188 647.384 228.816 644.47 231.142 641.321C231.247 641.182 231.473 641.321 231.368 641.461C227.689 646.44 223.521 651.039 218.927 655.189C220.232 654.685 221.537 654.163 222.808 653.571C233.223 648.898 242.164 641.467 248.664 632.082C248.768 631.943 248.995 632.082 248.89 632.204C243.385 640.262 236.277 647.097 228.01 652.283C223.86 654.872 219.422 656.969 214.786 658.53C209.414 660.206 203.931 661.502 198.378 662.41C192.935 663.303 187.562 664.582 182.3 666.238C177.464 667.877 172.918 670.273 168.833 673.337C161.088 679.351 154.856 687.091 150.632 695.94C144.89 707.441 142.159 720.3 140.627 733.019C140.627 733.559 139.723 733.559 139.757 733.019C141.184 711.6 146.891 689.432 163.317 674.625Z" fill="#263238"/>
<path d="M198.517 658.078C200.104 655.715 202.242 653.774 204.746 652.423C207.625 650.932 210.152 648.844 212.159 646.298C212.263 646.159 212.489 646.298 212.385 646.437C210.567 648.762 208.352 650.747 205.843 652.301C203.085 653.757 200.657 655.765 198.709 658.199C198.622 658.321 198.43 658.199 198.517 658.078Z" fill="#263238"/>
<path d="M182.422 712.052L181.048 739.945L176.82 825.152H113.188L108.96 739.945L107.585 712.052H182.422Z" fill="#37474F"/>
<path d="M182.422 712.052L181.048 739.945H108.96L107.585 712.052H182.422Z" fill="#263238"/>
<path d="M186.877 700.412H103.113V727.016H186.877V700.412Z" fill="#37474F"/>
</g>
<defs>
<clipPath id="clip0_9_4">
<rect width="870" height="870" fill="white"/>
</clipPath>
</defs>
</svg>
